<svg xmlns="http://www.w3.org/2000/svg" xmlns:xlink="http://www.w3.org/1999/xlink" width="181" height="182" viewBox="0 0 181 182">
  <defs>
    <clipPath id="clip-path">
      <rect id="Rect치ngulo_349716" data-name="Rect치ngulo 349716" width="164.394" height="161.841" fill="none"/>
    </clipPath>
  </defs>
  <g id="Grupo_1016680" data-name="Grupo 1016680" transform="translate(-398 -9143)">
    <ellipse id="Elipse_5696" data-name="Elipse 5696" cx="90.5" cy="91" rx="90.5" ry="91" transform="translate(398 9143)" fill="#ffe8ce"/>
    <g id="Grupo_1016679" data-name="Grupo 1016679" transform="translate(406 9153)">
      <g id="Grupo_1016678" data-name="Grupo 1016678" clip-path="url(#clip-path)">
        <path id="Trazado_706805" data-name="Trazado 706805" d="M121.945,111.742V99.192h-.792c-5.1,0-10.207,0-15.31-.024-.522,0-.71.134-.815.666a32.545,32.545,0,0,1-2.946,8.463,39.047,39.047,0,0,1-21.809,19.615c-12.044,4.433-23.661,3.206-34.712-3.254-.3-.177-.6-.358-.77-.456l-4.068,3.782,2.8,2.527c-.645.6-1.19,1.084-1.708,1.594q-10.189,10.021-20.364,20.055a14.029,14.029,0,0,1-6.49,4.03A11.983,11.983,0,0,1,.109,146a11.072,11.072,0,0,1,3.338-9.512c4.118-4.107,8.31-8.142,12.457-12.22,3.5-3.438,6.976-6.9,10.54-10.42L28.86,116.6c.5-.441.758-.643.99-.868.892-.866,1.747-1.773,2.678-2.6.443-.392.39-.648.114-1.095a37.713,37.713,0,0,1-5.6-27.192A39.2,39.2,0,0,1,33.609,69.1c.127-.181.261-.357.4-.533s.266-.333.494-.618c-.378-.042-.626-.092-.875-.093-6.782-.018-13.564.011-20.345-.058-5.625-.058-9.606-2.781-12.124-7.641A12,12,0,0,1,.014,54.568q-.03-15.83-.006-31.659c.006-4.823,3.535-9.69,8.28-11.524a14.365,14.365,0,0,1,5.31-.944c4.387.019,8.774,0,13.161.023a.854.854,0,0,0,.923-.627A15.426,15.426,0,0,1,40.352.167,15.131,15.131,0,0,1,52.176,3.348a15.944,15.944,0,0,1,5.016,6.668c.182.455.5.426.859.427,4.454,0,8.908.015,13.362,0a12.969,12.969,0,0,1,6.5,1.6A12.764,12.764,0,0,1,84.737,22.2a29.7,29.7,0,0,1,.138,3.3c.012,5.243,0,10.487,0,15.73V41.9c1.557-.048,3.049-.126,4.541-.134q5.842-.028,11.683.005a.687.687,0,0,0,.772-.519,15.968,15.968,0,0,1,24.419-6.69A14.928,14.928,0,0,1,131.41,41.3c.163.444.423.473.81.472q6.714-.014,13.429-.006a12.814,12.814,0,0,1,6.962,1.86,12.633,12.633,0,0,1,6.377,11.043c.086,10.486.057,20.973.02,31.46A13.129,13.129,0,0,1,145.9,99.165c-1.208.023-2.418.023-3.625-.018a3.05,3.05,0,0,0-1.876.548c-3.262,2.169-6.54,4.313-9.812,6.467q-4.071,2.68-8.143,5.358a3.908,3.908,0,0,1-.5.222M100.772,91.327c.208-16.93-13.9-33.81-34.253-33.9C47.249,57.35,31.867,72.178,31.793,91.31A34.02,34.02,0,0,0,66.23,125.276a34.182,34.182,0,0,0,34.542-33.949m26.56,10.781c.278-.161.489-.271.687-.4,3.61-2.369,7.227-4.728,10.818-7.124a3.582,3.582,0,0,1,2.129-.633c1.5.021,3,.028,4.5.009a10.762,10.762,0,0,0,2.068-.155,7.937,7.937,0,0,0,6.255-7.473c.056-3.568.025-7.137.025-10.706q0-10.376-.012-20.752a7.731,7.731,0,0,0-3.38-6.5,7.968,7.968,0,0,0-4.808-1.4c-4.14-.026-8.281,0-12.422-.029-.571,0-.646.234-.673.7a15.386,15.386,0,0,1-5.5,11.076c-.2.179-.418.35-.669.56l.751.328a26.9,26.9,0,0,1,8.5,5.785,24.926,24.926,0,0,1,7.3,15.155c.261,2.445.156,4.926.254,7.39.026.652-.2.8-.843.8q-17.76-.03-35.521-.015c-.3,0-.6.026-.864.038v5.23h.725q6.815-.011,13.63-.021c2.082,0,4.163.021,6.244.013.541,0,.786.124.775.742-.041,2.246-.017,4.494-.014,6.741,0,.188.023.376.04.647M46.372,57.493c-.431-.035-.736-.081-1.042-.081q-14.4,0-28.8.025c-.509,0-.665-.148-.658-.633.03-1.96-.011-3.922.054-5.881a23.807,23.807,0,0,1,2.559-9.837A26.045,26.045,0,0,1,32.189,28.2a2.061,2.061,0,0,0,.32-.211,2.882,2.882,0,0,0-.188-.245c-.092-.1-.192-.184-.292-.271a15.379,15.379,0,0,1-5.535-11.193c-.029-.495-.179-.634-.667-.632-4.162.017-8.326.006-12.489.021a8.576,8.576,0,0,0-1.732.165A7.742,7.742,0,0,0,5.29,23.7Q5.245,39.129,5.284,54.56a7.838,7.838,0,0,0,8.22,8.081c8.415.027,16.83.007,25.245-.013a1.834,1.834,0,0,0,.97-.333c2.152-1.5,4.285-3.019,6.422-4.535a2.252,2.252,0,0,0,.231-.268m28-4.553A4.016,4.016,0,0,0,74.5,52.5a12.933,12.933,0,0,1,4.542-7.651,1.239,1.239,0,0,0,.476-1.078Q79.5,33.7,79.51,23.618a7.8,7.8,0,0,0-7.805-7.934c-4.273-.081-8.548-.021-12.822-.035-.432,0-.57.14-.588.571a14.428,14.428,0,0,1-3.744,9.386c-.741.818-1.531,1.591-2.314,2.4a1.749,1.749,0,0,0,.233.141A26.343,26.343,0,0,1,63.91,37.023,25.578,25.578,0,0,1,68.875,51.7c.018.492.134.668.671.712,1.578.129,3.148.34,4.822.53m-38.5,77.621-9.555-9.378c-4.031,3.98-8.122,8.016-12.209,12.057-2.4,2.372-4.824,4.718-7.172,7.137A6.084,6.084,0,0,0,5.446,146.1a6.268,6.268,0,0,0,4.57,4.987,6.514,6.514,0,0,0,6.8-1.654q4.986-4.9,9.947-9.825c3.057-3.028,6.107-6.066,9.108-9.048m80.777-73.134a10.437,10.437,0,1,0-.1-20.866A10.48,10.48,0,0,0,106,47.148a10.681,10.681,0,0,0,10.652,10.279M53,15.63a10.613,10.613,0,0,0-21.223.075A10.613,10.613,0,0,0,53,15.63m53.9,43.655A15.994,15.994,0,0,1,100.755,47c-.208-.021-.36-.049-.512-.049-4.183,0-8.366-.021-12.548.018a7.821,7.821,0,0,0-8.119,6.844c-.1.591.067.791.6.993A39.872,39.872,0,0,1,95.54,65.011l1.231,1.323A27.929,27.929,0,0,1,106.9,59.285m15.921,4.264a3.774,3.774,0,0,0-.035.484q.517,6.283,1.038,12.566c.174,2.128.338,4.256.481,6.386.031.465.214.573.666.571q6.207-.03,12.413-.012c.432,0,.55-.155.517-.545-.06-.7-.039-1.415-.152-2.107-1.34-8.2-5.958-13.85-13.751-17-.359-.145-.747-.22-1.177-.343m-74.3-31.369c0,.275-.007.381,0,.486.249,2.894.51,5.788.747,8.683q.422,5.165.8,10.334c.029.388.138.536.553.536q6.241-.01,12.482.016c.459,0,.594-.17.552-.589-.069-.7-.058-1.414-.182-2.1-1.446-8.042-5.852-13.786-13.615-16.9-.4-.163-.826-.285-1.342-.46m-12.271.072c-.68.211-1.245.345-1.777.557A20.95,20.95,0,0,0,21.159,51.783c-.013.363.133.45.47.449q6.276-.016,12.551-.008c.344,0,.482-.1.5-.438.064-.944.152-1.886.228-2.83q.522-6.484,1.043-12.968c.1-1.2.195-2.4.3-3.736m74.276,31.33c-.26.057-.367.073-.469.1a20.865,20.865,0,0,0-9.673,6.375.882.882,0,0,0-.121,1.256A34.844,34.844,0,0,1,105.1,83.049a.489.489,0,0,0,.58.466c.872-.013,1.745-.019,2.616.011.453.016.623-.122.66-.586q.714-8.95,1.464-17.9c.037-.452.072-.9.117-1.461m8.506,19.926c0-.231.01-.383,0-.533-.146-1.975-.288-3.951-.446-5.925-.368-4.607-.753-9.214-1.1-13.822-.048-.625-.42-.616-.865-.627-.475-.011-.806.056-.842.656-.108,1.779-.266,3.555-.408,5.332q-.528,6.614-1.053,13.228c-.043.556-.006,1.118-.006,1.692ZM42.348,52.216v-.008c.671,0,1.343-.01,2.014,0,.35.007.483-.122.447-.472-.059-.569-.085-1.141-.13-1.711q-.511-6.452-1.027-12.9c-.143-1.755-.332-3.507-.467-5.263-.062-.8-.659-.451-1.051-.524-.456-.084-.479.229-.507.568-.119,1.447-.272,2.893-.39,4.341-.222,2.72-.427,5.442-.643,8.163-.19,2.392-.376,4.784-.588,7.174-.043.484.062.686.6.642.578-.047,1.163-.01,1.744-.01M37.107,124.2l2.946-3.036-3.972-4.127-3.16,3.041,4.186,4.122" transform="translate(0 0)" fill="#161615"/>
        <path id="Trazado_706806" data-name="Trazado 706806" d="M261.118,312.459q-11.751,0-23.5,0a8.033,8.033,0,0,1-8.078-6.339,10.973,10.973,0,0,1-.167-2.169q-.015-15.135-.008-30.27a7.853,7.853,0,0,1,4.078-7.185,8.754,8.754,0,0,1,4.575-1.087q23.2-.014,46.4,0a8.154,8.154,0,0,1,8.205,5.866,9.455,9.455,0,0,1,.345,2.41q.034,15.2,0,30.4c-.01,3.464-1.474,6.176-4.779,7.6a9.952,9.952,0,0,1-3.772.737c-7.766.065-15.533.033-23.3.033m-.1-5.284q11.985,0,23.97,0a2.479,2.479,0,0,0,2.622-2.557q0-15.762,0-31.524a2.278,2.278,0,0,0-1.832-2.289,5.587,5.587,0,0,0-1.2-.112q-23.231-.008-46.463,0c-.313,0-.627,0-.939.019a2.545,2.545,0,0,0-2.594,2.575c-.015.242-.011.484-.011.727q.008,13.68.017,27.36,0,1.521,0,3.04a2.72,2.72,0,0,0,2.862,2.792c7.855-.064,15.711-.027,23.567-.025" transform="translate(-128.592 -150.626)" fill="#161615"/>
        <path id="Trazado_706807" data-name="Trazado 706807" d="M141.343,166.7a34.494,34.494,0,0,1-68.979-.017c.073-19.133,15.456-33.96,34.726-33.878,20.349.086,34.462,16.966,34.253,33.9m-34.49-28.658c-14.861-.166-29.345,11.792-29.181,29C77.82,182.691,90.8,195.468,107.01,195.4c15.864-.067,29.149-12.781,28.968-28.9-.195-17.336-14.754-28.594-29.125-28.458" transform="translate(-40.571 -75.373)" fill="#ffc403"/>
        <path id="Trazado_706808" data-name="Trazado 706808" d="M262.511,163.713c-.018-.271-.04-.459-.04-.647,0-2.247-.027-4.494.014-6.741.011-.619-.234-.745-.775-.743-2.081.008-4.163-.014-6.244-.013q-6.816,0-13.631.022h-.725v-5.23c.263-.012.564-.037.865-.037q17.76,0,35.521.014c.641,0,.869-.147.843-.8-.1-2.463.007-4.945-.254-7.39a24.928,24.928,0,0,0-7.3-15.154,26.889,26.889,0,0,0-8.5-5.786l-.751-.328c.251-.21.464-.38.669-.56a15.384,15.384,0,0,0,5.5-11.076c.027-.465.1-.7.673-.7,4.14.028,8.281,0,12.422.03a7.966,7.966,0,0,1,4.807,1.4,7.733,7.733,0,0,1,3.381,6.5q.024,10.376.012,20.752c0,3.569.031,7.138-.025,10.706a7.938,7.938,0,0,1-6.254,7.473,10.734,10.734,0,0,1-2.068.155c-1.5.019-3,.012-4.5-.009a3.588,3.588,0,0,0-2.13.633c-3.591,2.4-7.208,4.755-10.818,7.124-.2.13-.409.239-.687.4m21.1-47.251c0-.682-.02-1.363.007-2.043.017-.417-.108-.6-.56-.591-1.384.02-2.768.016-4.152.01-.4,0-.546.159-.54.557.017,1.363.019,2.724,0,4.086-.007.409.138.541.54.538,1.384-.015,2.768-.023,4.152,0,.464.009.576-.173.562-.582-.022-.659-.006-1.318-.007-1.978m-2.6,7.825v-.008c-.648,0-1.3.035-1.945-.01-.591-.041-.714.2-.7.733.042,1.231.062,2.466.015,3.7-.021.565.15.736.7.726,1.318-.026,2.637-.018,3.956,0,.39.006.572-.091.568-.512-.012-1.386,0-2.772.015-4.159,0-.336-.122-.476-.47-.469-.715.014-1.431,0-2.146,0" transform="translate(-135.178 -61.604)" fill="#de6262"/>
        <path id="Trazado_706809" data-name="Trazado 706809" d="M53.088,78.027a2.294,2.294,0,0,1-.23.268c-2.137,1.516-4.27,3.039-6.423,4.534a1.826,1.826,0,0,1-.969.333c-8.415.02-16.831.04-25.246.013A7.838,7.838,0,0,1,12,75.094q-.051-15.431.007-30.863a7.742,7.742,0,0,1,6.316-7.866,8.543,8.543,0,0,1,1.732-.164c4.163-.016,8.326,0,12.489-.022.488,0,.638.138.667.632A15.378,15.378,0,0,0,38.745,48c.1.086.2.176.293.271a2.893,2.893,0,0,1,.188.245,2.093,2.093,0,0,1-.32.211A26.046,26.046,0,0,0,25.2,61.62a23.812,23.812,0,0,0-2.559,9.837c-.066,1.959-.025,3.921-.054,5.88-.007.485.149.634.658.633q14.4-.032,28.8-.025c.305,0,.611.046,1.042.08M22.562,51.868H17.367v5.149h5.194Zm-2.68-5.243v-.006c.67,0,1.343-.036,2.009.012.527.038.721-.117.708-.649-.032-1.318-.035-2.638-.018-3.956.007-.466-.166-.6-.627-.6-1.384.017-2.769.014-4.152-.025-.421-.012-.5.161-.494.5.005,1.407.015,2.814,0,4.22-.005.424.186.522.568.51.67-.019,1.34-.005,2.01-.005" transform="translate(-6.716 -20.533)" fill="#de6262"/>
        <path id="Trazado_706810" data-name="Trazado 706810" d="M141.027,73.468c-1.675-.19-3.245-.4-4.823-.53-.536-.044-.653-.22-.671-.712a25.578,25.578,0,0,0-4.964-14.675,26.343,26.343,0,0,0-11.442-8.873,1.719,1.719,0,0,1-.232-.141c.783-.811,1.574-1.585,2.314-2.4a14.424,14.424,0,0,0,3.745-9.386c.018-.431.156-.573.588-.571,4.274.014,8.55-.046,12.822.035a7.8,7.8,0,0,1,7.805,7.934q.006,10.077.01,20.155a1.24,1.24,0,0,1-.477,1.078,12.932,12.932,0,0,0-4.542,7.651,4.13,4.13,0,0,1-.133.438" transform="translate(-66.659 -20.527)" fill="#de6262"/>
        <path id="Trazado_706811" data-name="Trazado 706811" d="M42.608,289.6c-3,2.982-6.05,6.019-9.108,9.048q-4.966,4.92-9.948,9.825a6.514,6.514,0,0,1-6.8,1.654,6.268,6.268,0,0,1-4.57-4.987,6.084,6.084,0,0,1,1.488-5.723c2.348-2.42,4.774-4.766,7.172-7.137,4.087-4.041,8.178-8.077,12.209-12.057l9.555,9.378" transform="translate(-6.738 -159.039)" fill="#ffc403"/>
        <path id="Trazado_706812" data-name="Trazado 706812" d="M251.907,105.409A10.681,10.681,0,0,1,241.256,95.13a10.66,10.66,0,0,1,21.309-.393,10.623,10.623,0,0,1-10.658,10.672" transform="translate(-135.26 -47.982)" fill="#ffdbdb"/>
        <path id="Trazado_706813" data-name="Trazado 706813" d="M93.553,22.467a10.614,10.614,0,0,1-21.223.074,10.64,10.64,0,0,1,10.632-10.5A10.534,10.534,0,0,1,93.553,22.467" transform="translate(-40.552 -6.837)" fill="#ffdbdb"/>
        <path id="Trazado_706814" data-name="Trazado 706814" d="M208.413,120.892a27.925,27.925,0,0,0-10.133,7.049l-1.232-1.324a39.869,39.869,0,0,0-15.361-10.209c-.536-.2-.707-.4-.6-.993a7.821,7.821,0,0,1,8.119-6.844c4.182-.039,8.365-.016,12.548-.018.152,0,.3.028.512.048a15.992,15.992,0,0,0,6.149,12.289" transform="translate(-101.509 -61.606)" fill="#de6262"/>
        <path id="Trazado_706815" data-name="Trazado 706815" d="M279.514,146.952a12.233,12.233,0,0,1,1.177.344c7.793,3.15,12.412,8.8,13.751,17,.113.692.092,1.405.152,2.107.033.39-.085.546-.517.545q-6.206-.016-12.413.012c-.452,0-.635-.106-.666-.571-.142-2.13-.307-4.258-.48-6.386q-.512-6.284-1.039-12.567a3.76,3.76,0,0,1,.035-.484" transform="translate(-156.689 -83.402)" fill="#03a4a4"/>
        <path id="Trazado_706816" data-name="Trazado 706816" d="M110.454,74.415c.515.176.937.3,1.342.46,7.763,3.116,12.169,8.86,13.615,16.9.124.69.112,1.4.181,2.1.042.419-.093.591-.552.589q-6.241-.028-12.482-.016c-.415,0-.524-.148-.553-.536q-.382-5.169-.8-10.334c-.237-2.9-.5-5.789-.747-8.683-.009-.1,0-.211,0-.486" transform="translate(-61.924 -42.234)" fill="#03a4a4"/>
        <path id="Trazado_706817" data-name="Trazado 706817" d="M63.259,74.581c-.108,1.333-.206,2.535-.3,3.736q-.521,6.484-1.043,12.968c-.076.943-.165,1.885-.228,2.83-.023.338-.161.438-.5.437q-6.275-.012-12.551.008c-.337,0-.483-.086-.47-.449A20.949,20.949,0,0,1,61.481,75.139c.532-.212,1.1-.347,1.777-.558" transform="translate(-27 -42.328)" fill="#03a4a4"/>
        <path id="Trazado_706818" data-name="Trazado 706818" d="M238.225,147.029c-.044.557-.08,1.009-.116,1.462q-.737,8.947-1.464,17.9c-.037.464-.207.6-.66.586-.871-.031-1.744-.024-2.616-.011a.489.489,0,0,1-.58-.466,34.832,34.832,0,0,0-4.826-11.73.882.882,0,0,1,.121-1.256,20.866,20.866,0,0,1,9.673-6.375c.1-.032.209-.047.468-.1" transform="translate(-127.69 -83.446)" fill="#03a4a4"/>
        <path id="Trazado_706819" data-name="Trazado 706819" d="M264.9,165.665h-4.726c0-.574-.037-1.136.006-1.692.342-4.41.7-8.819,1.053-13.228.142-1.777.3-3.553.408-5.332.036-.6.368-.667.843-.656.445.01.817,0,.865.627.351,4.609.736,9.215,1.1,13.822.158,1.974.3,3.95.446,5.925.011.15,0,.3,0,.534" transform="translate(-145.857 -82.156)" fill="#ffdbdb"/>
        <path id="Trazado_706820" data-name="Trazado 706820" d="M93.39,93.325c-.582,0-1.166-.036-1.744.01-.536.044-.641-.158-.6-.642.212-2.39.4-4.782.588-7.174.216-2.721.421-5.442.643-8.163.118-1.448.271-2.893.39-4.341.028-.339.051-.653.507-.568.392.073.989-.277,1.051.524.135,1.756.324,3.507.467,5.263q.525,6.45,1.027,12.9c.045.57.071,1.142.13,1.711.036.349-.1.479-.447.472-.671-.013-1.342,0-2.014,0Z" transform="translate(-51.041 -41.109)" fill="#ffdbdb"/>
        <path id="Trazado_706821" data-name="Trazado 706821" d="M79.118,277.8l-4.186-4.122,3.16-3.041,3.972,4.127L79.118,277.8" transform="translate(-42.011 -153.599)" fill="#ffc403"/>
        <path id="Trazado_706822" data-name="Trazado 706822" d="M267.665,314.115c-7.856,0-15.712-.036-23.567.027a2.72,2.72,0,0,1-2.862-2.792q0-1.52,0-3.04-.008-13.681-.016-27.361c0-.242-.005-.485.01-.727a2.545,2.545,0,0,1,2.594-2.575c.312-.022.626-.018.94-.018q23.231,0,46.463,0a5.582,5.582,0,0,1,1.2.112,2.279,2.279,0,0,1,1.833,2.289q0,15.762,0,31.524a2.479,2.479,0,0,1-2.622,2.557q-11.985,0-23.97,0M246.674,282.92a.956.956,0,0,0-.069.2q.009,8.589.023,17.178c0,2.665.031,5.329.022,7.994,0,.472.172.627.623.606.581-.026,1.163-.03,1.745-.03q19.6,0,39.2.022c.541,0,.749-.106.738-.678-.025-1.3.008-2.6.044-3.9.011-.4-.12-.551-.533-.546-1.3.015-2.6,0-3.893,0-.917.007-.913.019-.913-.878q0-7.071.009-14.141c0-.349.029-.658-.493-.652-1.409.017-2.819,0-4.229,0-.359,0-.528.139-.514.516.022.638.012,1.277.012,1.916,0,4.207-.014,8.414,0,12.621,0,.491-.136.645-.647.632-1.364-.034-2.73-.024-4.094,0-.5.009-.645-.159-.642-.652.021-3.017-.014-6.034.024-9.051.008-.654-.246-.783-.815-.775-1.208.018-2.416,0-3.625-.007-.86,0-.841-.005-.839.827.007,3.016,0,6.033,0,9.05,0,.337,0,.584-.487.574-1.387-.027-2.774-.018-4.161.011-.5.01-.643-.158-.63-.65.032-1.3-.026-2.6.008-3.9.015-.551-.216-.688-.71-.682-1.119.014-2.238,0-3.357,0h-1.306v5.236c-1.652,0-3.237-.007-4.822,0-.411,0-.524-.164-.523-.559q.019-9.68.012-19.36v-.934Z" transform="translate(-135.241 -157.567)" fill="#de6262"/>
        <path id="Trazado_706823" data-name="Trazado 706823" d="M113.624,144.914c14.37-.136,28.93,11.122,29.124,28.458.181,16.118-13.1,28.832-28.968,28.9-16.207.068-29.189-12.708-29.338-28.353-.164-17.212,14.32-29.17,29.181-29m.019,52.106a23.454,23.454,0,1,0-23.9-24.033c-.392,12.729,10.558,24.5,23.9,24.033" transform="translate(-47.342 -82.245)" fill="#161615"/>
        <path id="Trazado_706824" data-name="Trazado 706824" d="M331.157,123.4c0,.659-.016,1.319.006,1.978.014.409-.1.591-.562.582-1.384-.026-2.768-.018-4.152,0-.4,0-.547-.129-.541-.537.022-1.362.021-2.724,0-4.086,0-.4.14-.559.541-.557,1.384.006,2.768.011,4.152-.01.452-.007.577.173.56.591-.028.68-.007,1.362-.007,2.043" transform="translate(-182.72 -68.538)" fill="#161615"/>
        <path id="Trazado_706825" data-name="Trazado 706825" d="M328.56,144.917c.715,0,1.431.01,2.146,0,.348-.007.474.133.47.469-.016,1.387-.027,2.773-.015,4.159,0,.421-.178.518-.568.512-1.319-.018-2.638-.026-3.956,0-.553.01-.724-.161-.7-.726.047-1.23.027-2.465-.015-3.7-.018-.529.105-.774.7-.733.645.045,1.3.01,1.945.01v.008" transform="translate(-182.726 -82.234)" fill="#161615"/>
        <rect id="Rect치ngulo_349715" data-name="Rect치ngulo 349715" width="5.194" height="5.149" transform="translate(10.651 31.335)" fill="#161615"/>
        <path id="Trazado_706826" data-name="Trazado 706826" d="M26.677,53.481c-.67,0-1.34-.014-2.01.005-.382.011-.573-.086-.568-.51.018-1.406.007-2.813,0-4.22,0-.336.073-.509.494-.5,1.384.039,2.768.042,4.152.025.461-.006.634.133.627.6-.017,1.318-.014,2.638.018,3.956.013.531-.181.687-.708.649-.666-.048-1.339-.012-2.009-.012v.006" transform="translate(-13.512 -27.389)" fill="#161615"/>
        <path id="Trazado_706827" data-name="Trazado 706827" d="M253.543,289.864h5.162v.934q0,9.68-.012,19.36c0,.395.112.561.523.559,1.585-.01,3.171,0,4.822,0v-5.236h1.306c1.119,0,2.238.014,3.357,0,.494-.006.725.131.71.682-.034,1.3.024,2.6-.008,3.9-.012.492.126.66.63.65,1.387-.029,2.774-.038,4.161-.011.483.01.488-.237.487-.574,0-3.017.007-6.033,0-9.049,0-.832-.022-.832.839-.827,1.208.005,2.417.024,3.625.007.568-.009.823.12.815.775-.038,3.017,0,6.034-.024,9.051,0,.493.143.661.642.652,1.364-.025,2.73-.035,4.094,0,.511.013.648-.141.647-.632-.014-4.207,0-8.414,0-12.621,0-.639.01-1.278-.012-1.916-.013-.377.155-.518.514-.516,1.409.006,2.819.021,4.229,0,.522-.007.493.3.493.652q-.008,7.071-.009,14.141c0,.9,0,.885.913.878,1.3-.009,2.6.01,3.893,0,.412,0,.544.145.532.546-.036,1.3-.069,2.6-.044,3.9.011.572-.2.679-.738.678q-19.6-.028-39.2-.022c-.582,0-1.164,0-1.745.03-.451.021-.625-.134-.623-.606.009-2.665-.017-5.33-.022-7.994q-.016-8.589-.023-17.178a.958.958,0,0,1,.069-.2" transform="translate(-142.11 -164.512)" fill="#161615"/>
        <path id="Trazado_706828" data-name="Trazado 706828" d="M120.392,203.851c-13.345.47-24.295-11.3-23.9-24.033a23.9,23.9,0,1,1,23.9,24.033" transform="translate(-54.091 -89.076)" fill="#abffff"/>
      </g>
    </g>
  </g>
</svg>
