<svg xmlns="http://www.w3.org/2000/svg" xmlns:xlink="http://www.w3.org/1999/xlink" width="181" height="182" viewBox="0 0 181 182">
  <defs>
    <clipPath id="clip-path">
      <rect id="Rectángulo_349714" data-name="Rectángulo 349714" width="156.735" height="156.271" fill="none"/>
    </clipPath>
  </defs>
  <g id="Grupo_1016681" data-name="Grupo 1016681" transform="translate(-1017 -9143)">
    <ellipse id="Elipse_157" data-name="Elipse 157" cx="90.5" cy="91" rx="90.5" ry="91" transform="translate(1017 9143)" fill="#ffe8ce"/>
    <g id="Grupo_1016677" data-name="Grupo 1016677" transform="translate(1029 9156)">
      <g id="Grupo_1016676" data-name="Grupo 1016676" clip-path="url(#clip-path)">
        <path id="Trazado_706792" data-name="Trazado 706792" d="M45.648,39.4c.762.549,1.5.995,2.139,1.561,1.14,1.015,2.248,2.071,3.3,3.172a1.064,1.064,0,0,0,1.481.314c3.133-1.555,6.29-3.063,9.456-4.552.543-.255.6-.615.6-1.124-.01-9.094.108-18.189-.048-27.28A11.141,11.141,0,0,1,73.766.006q16.1-.019,32.2,0a8.473,8.473,0,0,1,1.081.08,2.747,2.747,0,0,1,2.584,2.841c.028,2.224.026,4.449-.024,6.673-.015.668.158.843.829.843a42.227,42.227,0,0,1,5.991.177A10.7,10.7,0,0,1,125.2,21.417c-.215,4.706-4.649,9.345-9.361,9.709-1.716.133-3.445.09-5.168.125-.3.006-.6,0-.951,0a4.335,4.335,0,0,0-.089.6q0,5.715.021,11.429c.006,2.521-1,3.528-3.529,3.528H80.866c-.1.463-.174.891-.273,1.314a10.035,10.035,0,0,1-5.655,7.112q-8.3,3.97-16.622,7.9a4.107,4.107,0,0,0-1.028.534,1.263,1.263,0,0,0-.427.876c.777,8.915,1.6,17.826,2.384,26.74a129.086,129.086,0,0,1,.725,14.233c-.088,3.891-.1,7.788,0,11.679A87.753,87.753,0,0,1,57.7,138.7c-.243,1.083-.42,2.181-.622,3.272a1.052,1.052,0,0,0,.038.279c.727-.088,1.433-.181,2.142-.258a12.243,12.243,0,0,1,13.247,8.38,11.371,11.371,0,0,1,.458,2.863,2.75,2.75,0,0,1-2.957,3.031c-.084,0-.167,0-.25,0H42.226a2.806,2.806,0,0,1-3.139-3.058c-.033-6.285-.1-12.57-.018-18.854a75.971,75.971,0,0,0-1.525-15.316c-.911-4.773-1.724-9.566-2.651-14.336a5.5,5.5,0,0,0-1.075-2.449,2.141,2.141,0,0,0-2.679-.452,2.378,2.378,0,0,0-1.53,2.451c.153,1.516.462,3.016.731,4.519a88.4,88.4,0,0,1,1.723,11.273,39.416,39.416,0,0,1-4.14,19.754c-.406.817-.793,1.643-1.208,2.5a13.71,13.71,0,0,1,4.257,3.585,12.847,12.847,0,0,1,2.774,7.281,2.774,2.774,0,0,1-2.989,3.1q-7.134.012-14.267,0-6.8,0-13.6,0a2.688,2.688,0,0,1-2.556-4.009c1.625-3.346,3.343-6.647,4.984-9.985a34.753,34.753,0,0,0,3.406-19.186,36.079,36.079,0,0,0-2.94-10.636A40.05,40.05,0,0,1,2.53,94.575,49.2,49.2,0,0,1,5.2,81.9c3.2-10.046,6.359-20.107,9.539-30.161A21.117,21.117,0,0,1,24.413,39.46c.4-.235.819-.436,1.342-.712-7.27-5.116-10.9-11.97-9.97-20.813.586-5.592,3.55-10.011,7.993-13.362C34.521-3.531,47.094.149,53.649,9.438c7.443,10.548,2.3,24.809-8,29.963m-17.6,111.656a7.871,7.871,0,0,0-4.528-4.576c-.443-.161-.891-.315-1.321-.507a2.43,2.43,0,0,1-1.476-2.919,15.754,15.754,0,0,1,.972-2.287c1.161-2.609,2.483-5.158,3.455-7.834a31.983,31.983,0,0,0,1.38-16.106c-.605-3.838-1.4-7.645-2.032-11.48a7.859,7.859,0,0,1,7.72-8.964,8.142,8.142,0,0,1,7.521,6.565c1.093,5.612,2.007,11.259,3.077,16.876a84.821,84.821,0,0,1,1.467,17.491c-.074,4-.011,8.007-.009,12.011,0,1.8,0,1.8,1.84,1.8q9.76,0,19.52,0H67.3a2.373,2.373,0,0,0-.1-.444,7.412,7.412,0,0,0-9.334-3.1c-.968.406-1.848,1.03-2.825,1.411a3.914,3.914,0,0,1-2.063.314c-1.641-.334-2.336-1.685-1.965-3.549.656-3.294,1.345-6.582,2-9.875a62.235,62.235,0,0,0,1.589-12.458c-.025-6.256-.112-12.514.023-18.767.141-6.525-.584-12.986-1.106-19.463-.394-4.9-.844-9.8-1.277-14.7-.121-1.367-.27-2.731-.416-4.2-.576.24-1.09.433-1.586.666-3.392,1.594-6.77,3.218-10.174,4.785a10.094,10.094,0,0,1-5.742.965,9.742,9.742,0,0,1-8.289-10.335,9.318,9.318,0,0,1,5.333-7.669c4.959-2.5,9.984-4.858,14.98-7.281a5.315,5.315,0,0,0,.525-.344c-.232-.258-.41-.464-.6-.661-5.989-6.345-14.933-5.91-21.093-1.124-3.193,2.48-4.948,5.813-6.122,9.593-3.035,9.78-6.085,19.555-9.261,29.29A38.82,38.82,0,0,0,7.723,99.432,31.7,31.7,0,0,0,9.7,108.513c1.572,4.034,3.181,8.038,3.819,12.376a40.987,40.987,0,0,1-.392,14.251,49.137,49.137,0,0,1-4.782,12.477c-.56,1.1-1.118,2.2-1.745,3.44ZM67.928,23.014h.006c0,1.445.006,2.891,0,4.337q-.02,4.127-.053,8.254c-.011,1.2.094,1.288,1.17.941a1.393,1.393,0,0,1,.493-.07,23.141,23.141,0,0,1,3.149.22,9.928,9.928,0,0,1,6.352,3.942,1.78,1.78,0,0,0,1.529.962q11.51-.048,23.021-.013c.6,0,.782-.135.779-.8q-.025-6.169.077-12.338a2.427,2.427,0,0,1,2.315-2.384c.829-.075,1.663-.114,2.5-.126,1.918-.028,3.839.027,5.754-.056a5.119,5.119,0,0,0,4.684-6.515,5.443,5.443,0,0,0-5.054-3.687c-2.474-.024-4.949.012-7.424-.021a2.609,2.609,0,0,1-2.852-2.772c-.056-2.251-.081-4.5-.032-6.754.014-.655-.146-.82-.76-.819-10.148.011-20.3-.018-30.445.031a5.1,5.1,0,0,0-4.259,2.258,6.779,6.779,0,0,0-.944,4.148q0,5.63,0,11.26m-16-1.979C52.153,13.25,46.726,5.354,36.143,5.3a15.486,15.486,0,0,0-15.5,15.685,16.2,16.2,0,0,0,15.783,15.47c8.363-.045,15.793-6.837,15.506-15.423M31.241,63.144a4.1,4.1,0,0,0,1.223,3.016c1.42,1.409,3.361,2.036,6.046.752,10.042-4.8,20.113-9.544,30.169-14.318,1.6-.762,3.221-1.51,4.763-2.385a4.572,4.572,0,0,0,2.176-4.854,4.784,4.784,0,0,0-3.847-3.583c-1.568-.275-2.88.416-4.2,1.059q-12.806,6.234-25.6,12.483c-2.67,1.3-5.379,2.521-8.041,3.836a4.427,4.427,0,0,0-2.686,3.994" transform="translate(0 0)" fill="#161615"/>
        <path id="Trazado_706793" data-name="Trazado 706793" d="M213.513,218.431q-16.683,0-33.366,0a10.753,10.753,0,0,1-9.6-5.459,9.477,9.477,0,0,1-1.441-5.068q-.051-10.967-.064-21.934c-.007-3.642,0-7.284.009-10.926,0-.333.008-.668.041-1a2.673,2.673,0,0,1,2.5-2.462c1.137-.069,2.278-.08,3.418-.079q17.475.011,34.95.052c.736,0,.944-.178.936-.922-.038-3.836-.019-7.673-.018-11.51a2.9,2.9,0,0,1,3.236-3.229c2.28-.014,4.56-.014,6.84-.024a5.378,5.378,0,0,0,4.357-2.078,4.69,4.69,0,0,0,.8-5.139,4.991,4.991,0,0,0-4.483-3.237c-2.468-.117-4.946,0-7.42-.024a4.156,4.156,0,0,1-1.7-.3,2.667,2.667,0,0,1-1.627-2.59c.017-3.253-.01-6.506,0-9.759a2.758,2.758,0,0,1,2.726-2.874c.249-.016.5-.018.75-.018,10.983,0,21.966-.033,32.949.024a10.875,10.875,0,0,1,10.421,9.279,18.31,18.31,0,0,1,.172,2.489q.014,32.529,0,65.059c0,4.515-1.761,8.073-5.749,10.39a11.172,11.172,0,0,1-5.774,1.338q-11.178,0-22.355,0h-10.51Zm39.17-63.215h-.127q0-7.632,0-15.265a4.419,4.419,0,0,0-1.108-2.893,5.424,5.424,0,0,0-4.407-1.965l-29.869,0c-.139,0-.278.008-.417.006-.514-.011-.74.19-.721.751.039,1.139.058,2.283-.014,3.418-.051.783.28.957.964.939,1.251-.033,2.5-.024,3.754-.017a10.884,10.884,0,0,1,8.193,3.685,9.554,9.554,0,0,1,2.724,8.089c-.679,4.832-5.56,9.53-11.146,9.181-1.219-.076-2.447-.014-3.67.009-.466.009-.819.091-.81.758q.054,4.337-.018,8.675c-.012.737.319.926.934.925.278,0,.556-.024.834-.022,2.947.012,5.894,0,8.84.051a2.687,2.687,0,0,1,2.468,2.312,16.477,16.477,0,0,1,.117,1.829c.026,2.224-.009,4.45.057,6.673a5.148,5.148,0,0,0,4.68,4.733,5.346,5.346,0,0,0,5.695-5.43c.045-2.391-.009-4.783.016-7.174a2.763,2.763,0,0,1,2.964-2.973c2.947-.029,5.895-.01,8.843-.006,1.179,0,1.226-.04,1.225-1.187q0-7.549,0-15.1M223.82,176.76c-2.495,0-4.855,0-7.215,0-.543,0-.529.376-.53.748-.005,2.113-.091,4.231.009,6.339a3.1,3.1,0,0,1-3.446,3.436c-1.919-.015-3.838-.008-5.757,0a12.559,12.559,0,0,0-2.246.075,5.2,5.2,0,0,0-4.151,5.227,4.921,4.921,0,0,0,4.541,4.821c2.576.169,5.167.1,7.752.131,2.246.029,3.259,1.017,3.271,3.257.02,3.782.035,7.564,0,11.346-.007.793.267.985,1.012.984q14.935-.027,29.869-.015a6.576,6.576,0,0,0,1.569-.132c2.623-.652,4.064-2.6,4.071-5.553.025-9.955.023-19.91.047-29.865,0-.63-.232-.807-.837-.795-1.64.032-3.281,0-4.922.006-1.942,0-1.905.005-1.953,1.973a29.739,29.739,0,0,1-.321,5.225,10.668,10.668,0,0,1-4.75,6.7A8.9,8.9,0,0,1,232,192.134a11.189,11.189,0,0,1-8.176-11.092c0-1.384,0-2.769,0-4.282m-31.207.018v0q-8.719,0-17.438-.007c-.531,0-.875.009-.874.726.02,10.178,0,20.356.018,30.534a5.127,5.127,0,0,0,3.957,4.864,15.892,15.892,0,0,0,3.066.208q14.35.048,28.7.069c.508,0,.782-.106.779-.681q-.023-4.5,0-9.01c0-.52-.221-.675-.7-.668-1.279.018-2.559-.018-3.838.016a11.03,11.03,0,0,1-4.467-.822,11.177,11.177,0,0,1-6.695-9.424,10.862,10.862,0,0,1,10.5-10.71c1.446-.01,2.893-.027,4.339.009.642.016.907-.181.88-.851a31.157,31.157,0,0,1,0-3.252c.053-.823-.229-1.027-1.026-1.022-5.729.032-11.458.017-17.187.017" transform="translate(-101.17 -77.712)" fill="#161615"/>
        <path id="Trazado_706794" data-name="Trazado 706794" d="M188.513,166.214c0,.459,0,.9,0,1.334,0,2.307.025,4.616-.027,6.922a2.37,2.37,0,0,0,.867,2.043,14.249,14.249,0,0,1,1.376,1.333c.357.393.645.349.959-.016a.675.675,0,0,1,.059-.059c2.091-1.924,2.091-1.924,2.091-4.759q0-8.048,0-16.1v-1.021c1.675,0,3.3-.019,4.924.035.138,0,.371.495.373.76.031,4.225.031,8.451.038,12.676,0,.292,0,.584,0,1.024,2.152-2.148,4.167-4.165,6.19-6.174.631-.627,1.288-1.228,1.924-1.85a.53.53,0,0,1,.9.037c.93,1.069,1.881,2.12,2.824,3.179l.479.046a4.5,4.5,0,0,0-.916.555q-8.369,8.32-16.719,16.659a10.313,10.313,0,0,1-1.327,1.135,2.13,2.13,0,0,1-2.767-.078c-1.493-1.329-2.938-2.717-4.35-4.132q-6.95-6.965-13.86-13.97a3.435,3.435,0,0,1-.269-.34c1.017-1.043,2.02-2.042,2.984-3.078.428-.46.707-.33,1.088.053q3.76,3.785,7.55,7.542c.092.092.194.175.464.417v-4.176Z" transform="translate(-102.514 -93.301)" fill="#161615"/>
        <path id="Trazado_706795" data-name="Trazado 706795" d="M227.556,135.152v-5.121h5.24c0,1.571.015,3.139-.025,4.7,0,.143-.358.394-.554.4-1.521.033-3.042.018-4.661.018" transform="translate(-136.193 -77.824)" fill="#161615"/>
        <path id="Trazado_706796" data-name="Trazado 706796" d="M206.57,160.912c-1.625,0-3.064-.008-4.5,0-.471,0-.608-.191-.606-.656q.008-1.869-.084-3.739c-.025-.518.189-.722.659-.726,1.331-.01,2.662-.029,3.992.006.184,0,.513.289.517.451.04,1.516.024,3.034.024,4.659" transform="translate(-120.523 -93.235)" fill="#161615"/>
        <path id="Trazado_706797" data-name="Trazado 706797" d="M206.606,135.048c-1.561,0-3.081.01-4.6-.018a.567.567,0,0,1-.391-.391c-.028-1.548-.018-3.1-.018-4.76h5.008Z" transform="translate(-120.656 -77.733)" fill="#161615"/>
        <path id="Trazado_706798" data-name="Trazado 706798" d="M37.882,213.2H16.43c.628-1.237,1.185-2.339,1.746-3.44a49.151,49.151,0,0,0,4.781-12.477,40.988,40.988,0,0,0,.392-14.251c-.638-4.337-2.246-8.342-3.819-12.376a31.718,31.718,0,0,1-1.974-9.081,38.827,38.827,0,0,1,2.081-15.243c3.177-9.734,6.227-19.51,9.262-29.29,1.173-3.78,2.929-7.113,6.121-9.593,6.161-4.786,15.1-5.221,21.093,1.124.186.2.364.4.6.661a5.315,5.315,0,0,1-.525.344c-5,2.423-10.021,4.785-14.98,7.28a9.319,9.319,0,0,0-5.333,7.669,9.742,9.742,0,0,0,8.289,10.335A10.094,10.094,0,0,0,49.9,133.9c3.4-1.567,6.782-3.191,10.174-4.785.5-.233,1.01-.426,1.586-.666.147,1.468.3,2.833.416,4.2.433,4.9.882,9.794,1.277,14.7.521,6.478,1.247,12.938,1.105,19.463-.135,6.253-.048,12.511-.022,18.767a62.271,62.271,0,0,1-1.589,12.458c-.658,3.294-1.347,6.581-2,9.875-.371,1.863.324,3.215,1.965,3.549a3.918,3.918,0,0,0,2.063-.314c.976-.382,1.856-1,2.825-1.412a7.413,7.413,0,0,1,9.334,3.1,2.373,2.373,0,0,1,.1.444H75.468q-9.76,0-19.52,0c-1.839,0-1.839.006-1.84-1.8,0-4-.065-8.009.009-12.011A84.793,84.793,0,0,0,52.65,181.97c-1.07-5.617-1.984-11.264-3.077-16.876a8.142,8.142,0,0,0-7.521-6.565,7.86,7.86,0,0,0-7.72,8.964c.628,3.835,1.427,7.642,2.032,11.48a31.983,31.983,0,0,1-1.38,16.106c-.972,2.676-2.294,5.226-3.455,7.834a15.8,15.8,0,0,0-.972,2.287,2.43,2.43,0,0,0,1.476,2.919c.43.192.877.346,1.321.507a7.871,7.871,0,0,1,4.528,4.576" transform="translate(-9.833 -62.146)" fill="#e8e8e8"/>
        <path id="Trazado_706799" data-name="Trazado 706799" d="M169.114,30.941q0-5.63,0-11.26a6.78,6.78,0,0,1,.944-4.148,5.1,5.1,0,0,1,4.259-2.258c10.148-.049,20.3-.02,30.445-.031.613,0,.774.165.76.819-.049,2.25-.024,4.5.032,6.754a2.609,2.609,0,0,0,2.852,2.772c2.474.034,4.949,0,7.424.021a5.444,5.444,0,0,1,5.054,3.687,5.119,5.119,0,0,1-4.684,6.515c-1.915.083-3.836.028-5.754.056-.832.012-1.667.051-2.5.126a2.427,2.427,0,0,0-2.315,2.384q-.11,6.168-.078,12.338c0,.662-.177.8-.78.8q-11.511-.019-23.021.013a1.779,1.779,0,0,1-1.529-.962,9.929,9.929,0,0,0-6.352-3.942,23.142,23.142,0,0,0-3.149-.22,1.393,1.393,0,0,0-.493.071c-1.076.347-1.18.255-1.17-.942q.038-4.127.053-8.254c.007-1.446,0-2.891,0-4.337Z" transform="translate(-101.186 -7.927)" fill="#ffc403"/>
        <path id="Trazado_706800" data-name="Trazado 706800" d="M82.7,28.94c.287,8.586-7.143,15.378-15.506,15.423A16.2,16.2,0,0,1,51.408,28.893a15.486,15.486,0,0,1,15.5-15.686c10.583.051,16.01,7.947,15.788,15.732" transform="translate(-30.767 -7.905)" fill="#e8e8e8"/>
        <path id="Trazado_706801" data-name="Trazado 706801" d="M77.811,125.321a4.427,4.427,0,0,1,2.686-3.994c2.662-1.315,5.371-2.537,8.041-3.836q12.807-6.23,25.6-12.483c1.32-.643,2.632-1.334,4.2-1.059a4.784,4.784,0,0,1,3.847,3.583,4.572,4.572,0,0,1-2.176,4.854c-1.542.875-3.159,1.623-4.763,2.385-10.056,4.775-20.127,9.516-30.169,14.318-2.685,1.284-4.626.657-6.046-.752a4.1,4.1,0,0,1-1.223-3.016" transform="translate(-46.57 -62.176)" fill="#e8e8e8"/>
        <path id="Trazado_706802" data-name="Trazado 706802" d="M322.7,163.038q0,7.55,0,15.1c0,1.147-.046,1.188-1.226,1.187-2.947,0-5.895-.023-8.842.006a2.763,2.763,0,0,0-2.964,2.973c-.025,2.391.028,4.783-.016,7.174a5.346,5.346,0,0,1-5.695,5.43,5.148,5.148,0,0,1-4.68-4.733c-.066-2.223-.032-4.449-.057-6.673a16.444,16.444,0,0,0-.117-1.829,2.687,2.687,0,0,0-2.468-2.312c-2.946-.049-5.893-.04-8.84-.051-.278,0-.556.022-.833.022-.614,0-.946-.188-.933-.925q.072-4.337.018-8.675c-.008-.667.345-.749.81-.758,1.223-.023,2.451-.085,3.67-.009,5.585.348,10.467-4.349,11.146-9.181a9.554,9.554,0,0,0-2.724-8.089,10.885,10.885,0,0,0-8.193-3.685c-1.251-.007-2.5-.016-3.754.017-.684.018-1.015-.156-.964-.939.073-1.135.053-2.28.015-3.418-.019-.561.206-.762.72-.751.139,0,.278-.006.417-.006l29.869,0a5.424,5.424,0,0,1,4.407,1.965,4.419,4.419,0,0,1,1.108,2.893q0,7.632,0,15.265h.127" transform="translate(-171.19 -85.534)" fill="#a03d3d"/>
        <path id="Trazado_706803" data-name="Trazado 706803" d="M270.689,246.7c0,1.513,0,2.9,0,4.282a11.189,11.189,0,0,0,8.176,11.092A8.9,8.9,0,0,0,286.7,260.6a10.667,10.667,0,0,0,4.75-6.7,29.771,29.771,0,0,0,.321-5.225c.048-1.968.011-1.972,1.953-1.974,1.641,0,3.282.026,4.922-.006.605-.012.839.165.837.795-.024,9.955-.021,19.91-.047,29.865-.008,2.956-1.449,4.9-4.071,5.553a6.575,6.575,0,0,1-1.569.132q-14.935.009-29.869.015c-.745,0-1.019-.19-1.012-.984.034-3.781.019-7.564,0-11.345-.012-2.24-1.025-3.228-3.271-3.257-2.585-.033-5.176.039-7.752-.131a4.92,4.92,0,0,1-4.54-4.821,5.2,5.2,0,0,1,4.151-5.228,12.594,12.594,0,0,1,2.246-.075c1.919-.008,3.838-.015,5.757,0a3.1,3.1,0,0,0,3.447-3.436c-.1-2.108-.014-4.226-.009-6.339,0-.372-.013-.749.53-.748,2.36,0,4.721,0,7.216,0" transform="translate(-148.039 -147.648)" fill="#06d1d1"/>
        <path id="Trazado_706804" data-name="Trazado 706804" d="M200.46,246.718c5.729,0,11.458.015,17.187-.017.8,0,1.08.2,1.026,1.022a31.148,31.148,0,0,0,0,3.252c.027.67-.238.867-.88.851-1.445-.036-2.892-.019-4.339-.009a10.862,10.862,0,0,0-10.5,10.71,11.177,11.177,0,0,0,6.695,9.424,11.029,11.029,0,0,0,4.467.822c1.278-.034,2.559,0,3.838-.016.483-.007.707.149.7.669q-.021,4.5,0,9.01c0,.575-.271.683-.779.681q-14.35-.042-28.7-.069a15.891,15.891,0,0,1-3.066-.208,5.127,5.127,0,0,1-3.957-4.864c-.013-10.178,0-20.356-.018-30.534,0-.717.343-.728.874-.726q8.719.016,17.438.007Z" transform="translate(-109.016 -147.651)" fill="#b20d0d"/>
      </g>
    </g>
  </g>
</svg>
