<svg xmlns="http://www.w3.org/2000/svg" width="1044.37" height="430.827" viewBox="0 0 1044.37 430.827">
  <g id="Grupo_1017225" data-name="Grupo 1017225" transform="translate(-262.5 -4854)">
    <rect id="Rectángulo_349377" data-name="Rectángulo 349377" width="258.87" height="87.827" rx="19.697" transform="translate(265 5022.5)" fill="#fff" stroke="#ffd100" stroke-miterlimit="10" stroke-width="5"/>
    <rect id="Rectángulo_349520" data-name="Rectángulo 349520" width="258.87" height="87.827" rx="19.697" transform="translate(1045.5 5022.5)" fill="#fff" stroke="#ffd100" stroke-miterlimit="10" stroke-width="5"/>
    <rect id="Rectángulo_349517" data-name="Rectángulo 349517" width="258.87" height="87.827" rx="19.697" transform="translate(649.534 4856.5)" fill="#b20d0d" stroke="#b20d0d" stroke-miterlimit="10" stroke-width="5"/>
    <rect id="Rectángulo_349518" data-name="Rectángulo 349518" width="258.87" height="87.827" rx="19.697" transform="translate(656.5 5022.5)" fill="#fff" stroke="#b20d0d" stroke-miterlimit="10" stroke-width="5"/>
    <rect id="Rectángulo_349519" data-name="Rectángulo 349519" width="258.87" height="87.827" rx="19.697" transform="translate(656.5 5194.5)" fill="#b20d0d" stroke="#b20d0d" stroke-miterlimit="10" stroke-width="5"/>
    <path id="Trazado_714952" data-name="Trazado 714952" d="M14.344-8.751H6.528v4.928H15.76V0H1.558V-20.617H15.789v3.837H6.528v4.347h7.816ZM23.775-11.1,26-15.321h4.956L26.918-7.859,31.152,0H26.168L23.761-4.531,21.4,0H16.383l4.248-7.859L16.61-15.321h5.013ZM38.048-19.13v3.809h2.521v3.313H38.048V-5a1.79,1.79,0,0,0,.312,1.2,1.671,1.671,0,0,0,1.232.34,7,7,0,0,0,1.189-.085V-.127a8.807,8.807,0,0,1-2.69.411A5,5,0,0,1,34.452-.878,4.759,4.759,0,0,1,33.276-4.4v-7.6H31.322v-3.313h1.954V-19.13ZM49.858.283a7.876,7.876,0,0,1-5.707-2.1,7.261,7.261,0,0,1-2.181-5.473v-.4a9.409,9.409,0,0,1,.871-4.149,6.372,6.372,0,0,1,2.542-2.782,7.673,7.673,0,0,1,3.965-.984,6.632,6.632,0,0,1,5.1,2,7.874,7.874,0,0,1,1.869,5.586V-6.16H46.828a3.439,3.439,0,0,0,1.119,2.025,3.329,3.329,0,0,0,2.237.736,4.289,4.289,0,0,0,3.54-1.586L55.9-2.407A6.1,6.1,0,0,1,53.377-.446,8.542,8.542,0,0,1,49.858.283ZM49.32-11.923q-2.1,0-2.492,2.775h4.814v-.368a2.364,2.364,0,0,0-.581-1.777A2.31,2.31,0,0,0,49.32-11.923ZM67.5-11l-1.572-.113q-2.251,0-2.889,1.416V0H58.269V-15.321h4.475l.156,1.968A3.7,3.7,0,0,1,66.255-15.6a4.653,4.653,0,0,1,1.331.17ZM74.256,0H69.47V-15.321h4.786ZM69.187-19.272a2.13,2.13,0,0,1,.736-1.671,2.778,2.778,0,0,1,1.912-.651,2.778,2.778,0,0,1,1.912.651,2.13,2.13,0,0,1,.736,1.671,2.13,2.13,0,0,1-.736,1.671,2.778,2.778,0,0,1-1.912.651,2.778,2.778,0,0,1-1.912-.651A2.13,2.13,0,0,1,69.187-19.272ZM76.592-7.8a9.043,9.043,0,0,1,.892-4.085,6.38,6.38,0,0,1,2.563-2.754A7.719,7.719,0,0,1,83.97-15.6a7.045,7.045,0,0,1,5.423,2.131,8.178,8.178,0,0,1,1.982,5.8v.17a7.934,7.934,0,0,1-1.99,5.685A7.064,7.064,0,0,1,84,.283a7.144,7.144,0,0,1-5.253-1.961A7.671,7.671,0,0,1,76.606-7Zm4.772.3A5.7,5.7,0,0,0,82.03-4.39,2.217,2.217,0,0,0,84-3.4q2.549,0,2.605-3.922V-7.8q0-4.121-2.634-4.121-2.393,0-2.591,3.554ZM102.746-11l-1.572-.113q-2.251,0-2.889,1.416V0H93.514V-15.321h4.475l.156,1.968A3.7,3.7,0,0,1,101.5-15.6a4.653,4.653,0,0,1,1.331.17Z" transform="translate(341.152 5077)" fill="#12263f"/>
    <path id="Trazado_714955" data-name="Trazado 714955" d="M14.344-8.751H6.528v4.928H15.76V0H1.558V-20.617H15.789v3.837H6.528v4.347h7.816ZM23.775-11.1,26-15.321h4.956L26.918-7.859,31.152,0H26.168L23.761-4.531,21.4,0H16.383l4.248-7.859L16.61-15.321h5.013ZM38.048-19.13v3.809h2.521v3.313H38.048V-5a1.79,1.79,0,0,0,.312,1.2,1.671,1.671,0,0,0,1.232.34,7,7,0,0,0,1.189-.085V-.127a8.807,8.807,0,0,1-2.69.411A5,5,0,0,1,34.452-.878,4.759,4.759,0,0,1,33.276-4.4v-7.6H31.322v-3.313h1.954V-19.13ZM49.858.283a7.876,7.876,0,0,1-5.707-2.1,7.261,7.261,0,0,1-2.181-5.473v-.4a9.409,9.409,0,0,1,.871-4.149,6.372,6.372,0,0,1,2.542-2.782,7.673,7.673,0,0,1,3.965-.984,6.632,6.632,0,0,1,5.1,2,7.874,7.874,0,0,1,1.869,5.586V-6.16H46.828a3.439,3.439,0,0,0,1.119,2.025,3.329,3.329,0,0,0,2.237.736,4.289,4.289,0,0,0,3.54-1.586L55.9-2.407A6.1,6.1,0,0,1,53.377-.446,8.542,8.542,0,0,1,49.858.283ZM49.32-11.923q-2.1,0-2.492,2.775h4.814v-.368a2.364,2.364,0,0,0-.581-1.777A2.31,2.31,0,0,0,49.32-11.923ZM67.5-11l-1.572-.113q-2.251,0-2.889,1.416V0H58.269V-15.321h4.475l.156,1.968A3.7,3.7,0,0,1,66.255-15.6a4.653,4.653,0,0,1,1.331.17ZM74.256,0H69.47V-15.321h4.786ZM69.187-19.272a2.13,2.13,0,0,1,.736-1.671,2.778,2.778,0,0,1,1.912-.651,2.778,2.778,0,0,1,1.912.651,2.13,2.13,0,0,1,.736,1.671,2.13,2.13,0,0,1-.736,1.671,2.778,2.778,0,0,1-1.912.651,2.778,2.778,0,0,1-1.912-.651A2.13,2.13,0,0,1,69.187-19.272ZM76.592-7.8a9.043,9.043,0,0,1,.892-4.085,6.38,6.38,0,0,1,2.563-2.754A7.719,7.719,0,0,1,83.97-15.6a7.045,7.045,0,0,1,5.423,2.131,8.178,8.178,0,0,1,1.982,5.8v.17a7.934,7.934,0,0,1-1.99,5.685A7.064,7.064,0,0,1,84,.283a7.144,7.144,0,0,1-5.253-1.961A7.671,7.671,0,0,1,76.606-7Zm4.772.3A5.7,5.7,0,0,0,82.03-4.39,2.217,2.217,0,0,0,84-3.4q2.549,0,2.605-3.922V-7.8q0-4.121-2.634-4.121-2.393,0-2.591,3.554ZM102.746-11l-1.572-.113q-2.251,0-2.889,1.416V0H93.514V-15.321h4.475l.156,1.968A3.7,3.7,0,0,1,101.5-15.6a4.653,4.653,0,0,1,1.331.17Z" transform="translate(1123 5077)" fill="#12263f"/>
    <path id="Trazado_714951" data-name="Trazado 714951" d="M-72.993-7.236V0h-5.142V-21.328h8.511a9.913,9.913,0,0,1,4.329.9,6.789,6.789,0,0,1,2.915,2.563,7,7,0,0,1,1.033,3.772A6.171,6.171,0,0,1-63.582-9.1a9.269,9.269,0,0,1-6.13,1.868Zm0-3.97h3.369a3.177,3.177,0,0,0,2.278-.747,2.776,2.776,0,0,0,.784-2.109,3.431,3.431,0,0,0-.806-2.388,2.853,2.853,0,0,0-2.2-.908h-3.428Zm23.745-.176-1.626-.117q-2.329,0-2.988,1.465V0H-58.8V-15.85h4.629l.161,2.036a3.823,3.823,0,0,1,3.472-2.329,4.814,4.814,0,0,1,1.377.176Zm.63,3.311A9.355,9.355,0,0,1-47.7-12.3a6.6,6.6,0,0,1,2.651-2.849,7.985,7.985,0,0,1,4.058-1,7.288,7.288,0,0,1,5.61,2.2,8.46,8.46,0,0,1,2.051,6v.176a8.208,8.208,0,0,1-2.058,5.881A7.307,7.307,0,0,1-40.957.293a7.39,7.39,0,0,1-5.435-2.029,7.935,7.935,0,0,1-2.212-5.5Zm4.937.308a5.9,5.9,0,0,0,.688,3.223,2.294,2.294,0,0,0,2.036,1.025q2.637,0,2.7-4.058v-.5q0-4.263-2.725-4.263-2.476,0-2.681,3.677Zm19.233,4.248a2.2,2.2,0,0,0,1.611-.564,2.068,2.068,0,0,0,.557-1.575h4.629a5.48,5.48,0,0,1-1.868,4.277A6.947,6.947,0,0,1-24.331.293,7.034,7.034,0,0,1-29.78-1.875a8.542,8.542,0,0,1-1.992-6.006v-.205a9.654,9.654,0,0,1,.886-4.241,6.453,6.453,0,0,1,2.556-2.827,7.622,7.622,0,0,1,3.955-.989,6.86,6.86,0,0,1,4.907,1.714,6.079,6.079,0,0,1,1.816,4.644H-22.28a2.71,2.71,0,0,0-.6-1.89,2.073,2.073,0,0,0-1.611-.659q-1.919,0-2.241,2.446a17.262,17.262,0,0,0-.1,2.139,6.78,6.78,0,0,0,.571,3.311A1.978,1.978,0,0,0-24.448-3.516ZM-7.9.293a8.148,8.148,0,0,1-5.9-2.175,7.512,7.512,0,0,1-2.256-5.662v-.41a9.734,9.734,0,0,1,.9-4.292,6.592,6.592,0,0,1,2.629-2.878,7.938,7.938,0,0,1,4.1-1.018A6.861,6.861,0,0,1-3.149-14.07,8.145,8.145,0,0,1-1.216-8.291v1.919H-11.03A3.558,3.558,0,0,0-9.873-4.277a3.443,3.443,0,0,0,2.314.762A4.437,4.437,0,0,0-3.9-5.156L-1.641-2.49A6.306,6.306,0,0,1-4.255-.461,8.836,8.836,0,0,1-7.9.293Zm-.557-12.627q-2.168,0-2.578,2.871h4.98v-.381a2.445,2.445,0,0,0-.6-1.838A2.39,2.39,0,0,0-8.452-12.334ZM9.067-4.453a1.14,1.14,0,0,0-.659-1.011,10.027,10.027,0,0,0-2.5-.791A11.422,11.422,0,0,1,2.856-7.332,5.1,5.1,0,0,1,1.025-8.95,3.865,3.865,0,0,1,.4-11.133a4.381,4.381,0,0,1,1.8-3.6,7.422,7.422,0,0,1,4.717-1.414,8.223,8.223,0,0,1,5.039,1.421,4.443,4.443,0,0,1,1.9,3.735H8.906q0-1.9-2.007-1.9a1.989,1.989,0,0,0-1.3.432,1.338,1.338,0,0,0-.527,1.077,1.228,1.228,0,0,0,.645,1.069,6.09,6.09,0,0,0,2.058.674,17.785,17.785,0,0,1,2.483.63q3.574,1.23,3.574,4.409A4.151,4.151,0,0,1,11.9-1.069,8.447,8.447,0,0,1,6.914.293,8.62,8.62,0,0,1,3.281-.439,6.075,6.075,0,0,1,.791-2.432,4.511,4.511,0,0,1-.1-5.083H4.512a1.908,1.908,0,0,0,.732,1.6,3.013,3.013,0,0,0,1.8.505,2.37,2.37,0,0,0,1.516-.41A1.312,1.312,0,0,0,9.067-4.453Zm6.445-3.618a9.355,9.355,0,0,1,.923-4.226,6.6,6.6,0,0,1,2.651-2.849,7.985,7.985,0,0,1,4.058-1,7.288,7.288,0,0,1,5.61,2.2,8.46,8.46,0,0,1,2.051,6v.176a8.208,8.208,0,0,1-2.058,5.881A7.307,7.307,0,0,1,23.174.293a7.39,7.39,0,0,1-5.435-2.029,7.935,7.935,0,0,1-2.212-5.5Zm4.937.308a5.9,5.9,0,0,0,.688,3.223,2.294,2.294,0,0,0,2.036,1.025q2.637,0,2.7-4.058v-.5q0-4.263-2.725-4.263-2.476,0-2.681,3.677Zm19.38-.278a9.682,9.682,0,0,1,1.626-5.933A5.352,5.352,0,0,1,46-16.143a4.552,4.552,0,0,1,3.574,1.67V-22.5h4.951V0H50.083l-.249-1.7A4.674,4.674,0,0,1,45.967.293a5.342,5.342,0,0,1-4.482-2.168A9.989,9.989,0,0,1,39.829-8.042Zm4.937.308q0,4.219,2.461,4.219A2.43,2.43,0,0,0,49.57-4.893v-6.035a2.365,2.365,0,0,0-2.314-1.406q-2.285,0-2.476,3.691ZM65,.293a8.148,8.148,0,0,1-5.9-2.175,7.512,7.512,0,0,1-2.256-5.662v-.41a9.734,9.734,0,0,1,.9-4.292,6.592,6.592,0,0,1,2.629-2.878,7.938,7.938,0,0,1,4.1-1.018,6.861,6.861,0,0,1,5.273,2.073,8.145,8.145,0,0,1,1.934,5.779v1.919H61.86a3.558,3.558,0,0,0,1.157,2.095,3.443,3.443,0,0,0,2.314.762,4.437,4.437,0,0,0,3.662-1.641L71.25-2.49A6.306,6.306,0,0,1,68.635-.461,8.836,8.836,0,0,1,65,.293Zm-.557-12.627q-2.168,0-2.578,2.871h4.98v-.381a2.445,2.445,0,0,0-.6-1.838A2.39,2.39,0,0,0,64.438-12.334ZM-96.8,15.21v3.94H-94.2v3.428H-96.8v7.251a1.851,1.851,0,0,0,.322,1.245,1.729,1.729,0,0,0,1.274.352,7.242,7.242,0,0,0,1.23-.088v3.53a9.11,9.11,0,0,1-2.783.425,5.171,5.171,0,0,1-3.765-1.2,4.923,4.923,0,0,1-1.216-3.647V22.578h-2.021V19.15h2.021V15.21Zm14.136,8.408-1.626-.117q-2.329,0-2.988,1.465V35h-4.937V19.15h4.629l.161,2.036a3.823,3.823,0,0,1,3.472-2.329,4.814,4.814,0,0,1,1.377.176ZM-72.4,35a5.574,5.574,0,0,1-.469-1.421,4.59,4.59,0,0,1-3.809,1.714,5.623,5.623,0,0,1-3.809-1.355,4.313,4.313,0,0,1-1.567-3.406,4.433,4.433,0,0,1,1.9-3.9,9.7,9.7,0,0,1,5.537-1.318h1.523v-.839q0-2.193-1.89-2.193a1.545,1.545,0,0,0-1.758,1.737h-4.937a4.425,4.425,0,0,1,1.956-3.731,8.218,8.218,0,0,1,4.988-1.434,7.205,7.205,0,0,1,4.79,1.479,5.144,5.144,0,0,1,1.8,4.058v7.017a7.186,7.186,0,0,0,.674,3.34V35Zm-3.091-3.223a2.754,2.754,0,0,0,1.531-.4,2.479,2.479,0,0,0,.872-.894V27.954h-1.436q-2.578,0-2.578,2.314a1.413,1.413,0,0,0,.454,1.091A1.643,1.643,0,0,0-75.491,31.777ZM-60.872,19.15l.161,1.86a5.375,5.375,0,0,1,4.526-2.153,4.522,4.522,0,0,1,3.7,1.479,7.044,7.044,0,0,1,1.267,4.453V35h-4.951V25a2.675,2.675,0,0,0-.483-1.765,2.236,2.236,0,0,0-1.758-.564,2.354,2.354,0,0,0-2.153,1.143V35H-65.5V19.15Zm20.684,11.4a1.14,1.14,0,0,0-.659-1.011,10.027,10.027,0,0,0-2.5-.791A11.422,11.422,0,0,1-46.4,27.668,5.1,5.1,0,0,1-48.23,26.05a3.865,3.865,0,0,1-.63-2.183,4.381,4.381,0,0,1,1.8-3.6,7.422,7.422,0,0,1,4.717-1.414A8.223,8.223,0,0,1-37.3,20.278a4.443,4.443,0,0,1,1.9,3.735h-4.951q0-1.9-2.007-1.9a1.989,1.989,0,0,0-1.3.432,1.338,1.338,0,0,0-.527,1.077,1.228,1.228,0,0,0,.645,1.069,6.09,6.09,0,0,0,2.058.674,17.785,17.785,0,0,1,2.483.63q3.574,1.23,3.574,4.409a4.151,4.151,0,0,1-1.926,3.53,8.447,8.447,0,0,1-4.988,1.362,8.62,8.62,0,0,1-3.633-.732,6.075,6.075,0,0,1-2.49-1.992,4.511,4.511,0,0,1-.894-2.651h4.614a1.908,1.908,0,0,0,.732,1.6,3.013,3.013,0,0,0,1.8.505,2.37,2.37,0,0,0,1.516-.41A1.312,1.312,0,0,0-40.188,30.547ZM-32.029,35V22.578h-2.3V19.15h2.3v-1.26a5.476,5.476,0,0,1,1.6-4.2,6.308,6.308,0,0,1,4.482-1.494,9.816,9.816,0,0,1,2.314.308l.015,3.633A4.51,4.51,0,0,0-24.836,16q-2.241,0-2.241,1.934V19.15h3.091v3.428h-3.091V35Zm9.155-8.071a9.355,9.355,0,0,1,.923-4.226A6.6,6.6,0,0,1-19.3,19.854a7.985,7.985,0,0,1,4.058-1,7.288,7.288,0,0,1,5.61,2.2,8.46,8.46,0,0,1,2.051,6v.176a8.208,8.208,0,0,1-2.058,5.881,7.307,7.307,0,0,1-5.574,2.175,7.39,7.39,0,0,1-5.435-2.029,7.935,7.935,0,0,1-2.212-5.5Zm4.937.308a5.9,5.9,0,0,0,.688,3.223,2.294,2.294,0,0,0,2.036,1.025q2.637,0,2.7-4.058v-.5q0-4.263-2.725-4.263-2.476,0-2.681,3.677ZM4.182,23.618,2.556,23.5q-2.329,0-2.988,1.465V35H-5.369V19.15H-.74l.161,2.036a3.823,3.823,0,0,1,3.472-2.329,4.814,4.814,0,0,1,1.377.176Zm6.445-4.468.161,1.86a5.45,5.45,0,0,1,4.526-2.153,4.012,4.012,0,0,1,4.058,2.388,5.275,5.275,0,0,1,4.658-2.388q4.819,0,4.951,5.83V35H24.031V25a3.022,3.022,0,0,0-.41-1.772,1.746,1.746,0,0,0-1.494-.557,2.339,2.339,0,0,0-2.183,1.3l.015.205V35H15.007V25.024a3.176,3.176,0,0,0-.4-1.8,1.741,1.741,0,0,0-1.509-.557,2.367,2.367,0,0,0-2.168,1.3V35H6V19.15ZM40.73,35a5.574,5.574,0,0,1-.469-1.421,4.59,4.59,0,0,1-3.809,1.714,5.623,5.623,0,0,1-3.809-1.355,4.313,4.313,0,0,1-1.567-3.406,4.433,4.433,0,0,1,1.9-3.9,9.7,9.7,0,0,1,5.537-1.318h1.523v-.839q0-2.193-1.89-2.193a1.545,1.545,0,0,0-1.758,1.737H31.458a4.425,4.425,0,0,1,1.956-3.731A8.218,8.218,0,0,1,38.4,18.857a7.205,7.205,0,0,1,4.79,1.479,5.144,5.144,0,0,1,1.8,4.058v7.017a7.186,7.186,0,0,0,.674,3.34V35Zm-3.091-3.223a2.754,2.754,0,0,0,1.531-.4,2.479,2.479,0,0,0,.872-.894V27.954H38.606q-2.578,0-2.578,2.314a1.413,1.413,0,0,0,.454,1.091A1.643,1.643,0,0,0,37.639,31.777Zm16.787-.293a2.2,2.2,0,0,0,1.611-.564,2.068,2.068,0,0,0,.557-1.575h4.629a5.48,5.48,0,0,1-1.868,4.277,6.947,6.947,0,0,1-4.812,1.67,7.034,7.034,0,0,1-5.449-2.168A8.542,8.542,0,0,1,47.1,27.119v-.205a9.654,9.654,0,0,1,.886-4.241,6.453,6.453,0,0,1,2.556-2.827,7.622,7.622,0,0,1,3.955-.989,6.86,6.86,0,0,1,4.907,1.714,6.079,6.079,0,0,1,1.816,4.644H56.594a2.71,2.71,0,0,0-.6-1.89,2.073,2.073,0,0,0-1.611-.659q-1.919,0-2.241,2.446a17.262,17.262,0,0,0-.1,2.139,6.78,6.78,0,0,0,.571,3.311A1.978,1.978,0,0,0,54.426,31.484ZM68.518,35H63.567V19.15h4.951ZM63.274,15.063a2.2,2.2,0,0,1,.762-1.729,3.239,3.239,0,0,1,3.955,0,2.342,2.342,0,0,1,0,3.457,3.239,3.239,0,0,1-3.955,0A2.2,2.2,0,0,1,63.274,15.063Zm7.661,11.865a9.355,9.355,0,0,1,.923-4.226,6.6,6.6,0,0,1,2.651-2.849,7.985,7.985,0,0,1,4.058-1,7.288,7.288,0,0,1,5.61,2.2,8.46,8.46,0,0,1,2.051,6v.176a8.208,8.208,0,0,1-2.058,5.881A7.307,7.307,0,0,1,78.6,35.293a7.39,7.39,0,0,1-5.435-2.029,7.935,7.935,0,0,1-2.212-5.5Zm4.937.308a5.9,5.9,0,0,0,.688,3.223A2.294,2.294,0,0,0,78.6,31.484q2.637,0,2.7-4.058v-.5q0-4.263-2.725-4.263-2.476,0-2.681,3.677ZM79.241,12.5h5.215l-4.072,4.6-4.028-.007Zm13.7,6.65.161,1.86a5.375,5.375,0,0,1,4.526-2.153,4.522,4.522,0,0,1,3.7,1.479,7.044,7.044,0,0,1,1.267,4.453V35H97.639V25a2.675,2.675,0,0,0-.483-1.765,2.236,2.236,0,0,0-1.758-.564,2.354,2.354,0,0,0-2.153,1.143V35H88.308V19.15Z" transform="translate(779.034 4893)" fill="#fff"/>
    <path id="Trazado_714953" data-name="Trazado 714953" d="M14.344-8.751H6.528v4.928H15.76V0H1.558V-20.617H15.789v3.837H6.528v4.347h7.816Zm7.731-6.57.156,1.8A5.268,5.268,0,0,1,26.607-15.6,3.878,3.878,0,0,1,30.529-13.3a5.1,5.1,0,0,1,4.5-2.308q4.659,0,4.786,5.636V0H35.032V-9.671a2.921,2.921,0,0,0-.4-1.713,1.688,1.688,0,0,0-1.444-.538,2.261,2.261,0,0,0-2.11,1.26l.014.2V0H26.31V-9.643a3.07,3.07,0,0,0-.382-1.742,1.683,1.683,0,0,0-1.458-.538,2.288,2.288,0,0,0-2.1,1.26V0H17.6V-15.321ZM56.768-7.547a9.239,9.239,0,0,1-1.607,5.7A5.153,5.153,0,0,1,50.821.283,4.417,4.417,0,0,1,47.352-1.26V5.891H42.58V-15.321h4.46l.142,1.416a4.417,4.417,0,0,1,3.611-1.7,5.194,5.194,0,0,1,4.4,2.089,9.353,9.353,0,0,1,1.572,5.742ZM52-7.845q0-4.078-2.379-4.078a2.246,2.246,0,0,0-2.266,1.218v6.032A2.319,2.319,0,0,0,49.646-3.4q2.28,0,2.351-3.937ZM68.139-11l-1.572-.113q-2.251,0-2.889,1.416V0H58.906V-15.321h4.475l.156,1.968A3.7,3.7,0,0,1,66.893-15.6a4.653,4.653,0,0,1,1.331.17ZM77,.283A7.876,7.876,0,0,1,71.3-1.82a7.261,7.261,0,0,1-2.181-5.473v-.4a9.409,9.409,0,0,1,.871-4.149,6.372,6.372,0,0,1,2.542-2.782,7.673,7.673,0,0,1,3.965-.984,6.632,6.632,0,0,1,5.1,2A7.874,7.874,0,0,1,83.46-8.015V-6.16H73.973a3.439,3.439,0,0,0,1.119,2.025,3.329,3.329,0,0,0,2.237.736,4.289,4.289,0,0,0,3.54-1.586l2.181,2.577A6.1,6.1,0,0,1,80.522-.446,8.542,8.542,0,0,1,77,.283Zm-.538-12.206q-2.1,0-2.492,2.775h4.814v-.368a2.364,2.364,0,0,0-.581-1.777A2.31,2.31,0,0,0,76.465-11.923ZM93.4-4.3a1.1,1.1,0,0,0-.637-.977,9.693,9.693,0,0,0-2.421-.765A11.041,11.041,0,0,1,87.4-7.087a4.934,4.934,0,0,1-1.77-1.565,3.736,3.736,0,0,1-.609-2.11,4.235,4.235,0,0,1,1.742-3.476,7.175,7.175,0,0,1,4.56-1.366,7.949,7.949,0,0,1,4.871,1.374,4.3,4.3,0,0,1,1.841,3.611H93.245q0-1.841-1.94-1.841a1.923,1.923,0,0,0-1.26.418A1.293,1.293,0,0,0,89.535-11a1.187,1.187,0,0,0,.623,1.034,5.887,5.887,0,0,0,1.99.651,17.192,17.192,0,0,1,2.4.609Q98-7.519,98-4.446A4.013,4.013,0,0,1,96.14-1.034,8.166,8.166,0,0,1,91.319.283a8.333,8.333,0,0,1-3.512-.708A5.872,5.872,0,0,1,85.4-2.351a4.361,4.361,0,0,1-.864-2.563H89A1.844,1.844,0,0,0,89.7-3.363a2.912,2.912,0,0,0,1.742.489,2.291,2.291,0,0,0,1.466-.4A1.268,1.268,0,0,0,93.4-4.3ZM108.863,0a5.388,5.388,0,0,1-.453-1.374A4.437,4.437,0,0,1,104.729.283a5.436,5.436,0,0,1-3.682-1.31,4.169,4.169,0,0,1-1.515-3.292,4.285,4.285,0,0,1,1.841-3.767,9.378,9.378,0,0,1,5.353-1.274H108.2v-.811q0-2.12-1.827-2.12a1.493,1.493,0,0,0-1.7,1.679H99.9a4.278,4.278,0,0,1,1.89-3.607,7.944,7.944,0,0,1,4.822-1.386,6.965,6.965,0,0,1,4.63,1.43,4.972,4.972,0,0,1,1.742,3.922v6.783a6.946,6.946,0,0,0,.651,3.229V0Zm-2.988-3.115a2.662,2.662,0,0,0,1.48-.382,2.4,2.4,0,0,0,.843-.864v-2.45H106.81q-2.492,0-2.492,2.237a1.366,1.366,0,0,0,.439,1.055A1.589,1.589,0,0,0,105.875-3.115Z" transform="translate(734 5077)" fill="#12263f"/>
    <path id="Trazado_714954" data-name="Trazado 714954" d="M46.38,23.331a2.113,2.113,0,0,0-.8-1.758,9.923,9.923,0,0,0-2.805-1.3,26.912,26.912,0,0,1-3.281-1.3q-4.146-2.036-4.146-5.6a5.018,5.018,0,0,1,1.033-3.127A6.68,6.68,0,0,1,39.3,8.133a11.372,11.372,0,0,1,4.248-.754,9.948,9.948,0,0,1,4.124.82,6.529,6.529,0,0,1,2.834,2.336A6.1,6.1,0,0,1,51.521,14H46.395a2.578,2.578,0,0,0-.8-2.021,3.112,3.112,0,0,0-2.161-.718,3.509,3.509,0,0,0-2.175.608,1.79,1.79,0,0,0,.081,3.032,11.084,11.084,0,0,0,3.091,1.377,18.934,18.934,0,0,1,3.633,1.531A6.1,6.1,0,0,1,51.521,23.3,5.208,5.208,0,0,1,49.412,27.7a9.382,9.382,0,0,1-5.786,1.6,11.48,11.48,0,0,1-4.695-.93,7.078,7.078,0,0,1-3.164-2.549,6.641,6.641,0,0,1-1.062-3.728h5.156a3.271,3.271,0,0,0,.886,2.527,4.189,4.189,0,0,0,2.878.813,3.309,3.309,0,0,0,2.014-.549A1.813,1.813,0,0,0,46.38,23.331ZM59.139,29H54.188V13.15h4.951ZM53.895,9.063a2.2,2.2,0,0,1,.762-1.729,3.239,3.239,0,0,1,3.955,0,2.2,2.2,0,0,1,.762,1.729,2.2,2.2,0,0,1-.762,1.729,3.239,3.239,0,0,1-3.955,0A2.2,2.2,0,0,1,53.895,9.063ZM70.477,24.547a1.14,1.14,0,0,0-.659-1.011,10.027,10.027,0,0,0-2.5-.791,11.422,11.422,0,0,1-3.047-1.077,5.1,5.1,0,0,1-1.831-1.619,3.865,3.865,0,0,1-.63-2.183,4.381,4.381,0,0,1,1.8-3.6,7.422,7.422,0,0,1,4.717-1.414,8.223,8.223,0,0,1,5.039,1.421,4.443,4.443,0,0,1,1.9,3.735H70.315q0-1.9-2.007-1.9a1.989,1.989,0,0,0-1.3.432,1.338,1.338,0,0,0-.527,1.077,1.228,1.228,0,0,0,.645,1.069,6.09,6.09,0,0,0,2.058.674,17.785,17.785,0,0,1,2.483.63q3.574,1.23,3.574,4.409a4.151,4.151,0,0,1-1.926,3.53,8.447,8.447,0,0,1-4.988,1.362,8.62,8.62,0,0,1-3.633-.732,6.075,6.075,0,0,1-2.49-1.992,4.511,4.511,0,0,1-.894-2.651h4.614a1.908,1.908,0,0,0,.732,1.6,3.013,3.013,0,0,0,1.8.505,2.37,2.37,0,0,0,1.516-.41A1.312,1.312,0,0,0,70.477,24.547ZM83.294,9.21v3.94H85.9v3.428H83.294v7.251a1.851,1.851,0,0,0,.322,1.245,1.729,1.729,0,0,0,1.274.352,7.242,7.242,0,0,0,1.23-.088v3.53a9.11,9.11,0,0,1-2.783.425,5.171,5.171,0,0,1-3.765-1.2,4.923,4.923,0,0,1-1.216-3.647V16.578H76.336V13.15h2.021V9.21ZM95.511,29.293a8.148,8.148,0,0,1-5.9-2.175,7.512,7.512,0,0,1-2.256-5.662v-.41a9.734,9.734,0,0,1,.9-4.292,6.592,6.592,0,0,1,2.629-2.878,7.938,7.938,0,0,1,4.1-1.018,6.861,6.861,0,0,1,5.273,2.073,8.145,8.145,0,0,1,1.934,5.779v1.919H92.376a3.558,3.558,0,0,0,1.157,2.095,3.443,3.443,0,0,0,2.314.762,4.437,4.437,0,0,0,3.662-1.641l2.256,2.666a6.306,6.306,0,0,1-2.615,2.029A8.836,8.836,0,0,1,95.511,29.293Zm-.557-12.627q-2.168,0-2.578,2.871h4.98v-.381a2.445,2.445,0,0,0-.6-1.838A2.39,2.39,0,0,0,94.954,16.666Zm13.887-3.516.161,1.86a5.45,5.45,0,0,1,4.526-2.153,4.012,4.012,0,0,1,4.058,2.388,5.275,5.275,0,0,1,4.658-2.388q4.819,0,4.951,5.83V29h-4.951V19a3.022,3.022,0,0,0-.41-1.772,1.746,1.746,0,0,0-1.494-.557,2.339,2.339,0,0,0-2.183,1.3l.015.205V29h-4.951V19.024a3.176,3.176,0,0,0-.4-1.8,1.741,1.741,0,0,0-1.509-.557,2.367,2.367,0,0,0-2.168,1.3V29h-4.937V13.15ZM138.943,29a5.574,5.574,0,0,1-.469-1.421,4.59,4.59,0,0,1-3.809,1.714,5.623,5.623,0,0,1-3.809-1.355,4.313,4.313,0,0,1-1.567-3.406,4.433,4.433,0,0,1,1.9-3.9,9.7,9.7,0,0,1,5.537-1.318h1.523v-.839q0-2.193-1.89-2.193a1.545,1.545,0,0,0-1.758,1.737h-4.937a4.425,4.425,0,0,1,1.956-3.731,8.218,8.218,0,0,1,4.988-1.434,7.205,7.205,0,0,1,4.79,1.479,5.144,5.144,0,0,1,1.8,4.058v7.017a7.186,7.186,0,0,0,.674,3.34V29Zm-3.091-3.223a2.754,2.754,0,0,0,1.531-.4,2.479,2.479,0,0,0,.872-.894V21.954h-1.436q-2.578,0-2.578,2.314a1.413,1.413,0,0,0,.454,1.091A1.643,1.643,0,0,0,135.853,25.777Zm16.934-4.819a9.682,9.682,0,0,1,1.626-5.933,5.352,5.352,0,0,1,4.541-2.168,4.552,4.552,0,0,1,3.574,1.67V6.5h4.951V29H163.04l-.249-1.7a4.674,4.674,0,0,1-3.867,1.992,5.342,5.342,0,0,1-4.482-2.168A9.989,9.989,0,0,1,152.786,20.958Zm4.937.308q0,4.219,2.461,4.219a2.43,2.43,0,0,0,2.344-1.377V18.072a2.365,2.365,0,0,0-2.314-1.406q-2.285,0-2.476,3.691Zm20.229,8.027a8.148,8.148,0,0,1-5.9-2.175,7.512,7.512,0,0,1-2.256-5.662v-.41a9.734,9.734,0,0,1,.9-4.292,6.592,6.592,0,0,1,2.629-2.878,7.938,7.938,0,0,1,4.1-1.018A6.861,6.861,0,0,1,182.7,14.93a8.145,8.145,0,0,1,1.934,5.779v1.919h-9.814a3.558,3.558,0,0,0,1.157,2.095,3.443,3.443,0,0,0,2.314.762,4.437,4.437,0,0,0,3.662-1.641l2.256,2.666a6.306,6.306,0,0,1-2.615,2.029A8.836,8.836,0,0,1,177.952,29.293ZM177.4,16.666q-2.168,0-2.578,2.871h4.98v-.381a2.445,2.445,0,0,0-.6-1.838A2.39,2.39,0,0,0,177.4,16.666ZM69.8,60.484a2.2,2.2,0,0,0,1.611-.564,2.068,2.068,0,0,0,.557-1.575h4.629a5.48,5.48,0,0,1-1.868,4.277,6.947,6.947,0,0,1-4.812,1.67,7.034,7.034,0,0,1-5.449-2.168,8.542,8.542,0,0,1-1.992-6.006v-.205a9.654,9.654,0,0,1,.886-4.241,6.453,6.453,0,0,1,2.556-2.827,7.622,7.622,0,0,1,3.955-.989,6.86,6.86,0,0,1,4.907,1.714,6.079,6.079,0,0,1,1.816,4.644H71.963a2.71,2.71,0,0,0-.6-1.89,2.073,2.073,0,0,0-1.611-.659q-1.919,0-2.241,2.446a17.262,17.262,0,0,0-.1,2.139,6.78,6.78,0,0,0,.571,3.311A1.978,1.978,0,0,0,69.8,60.484Zm8.262-4.556A9.355,9.355,0,0,1,78.98,51.7a6.6,6.6,0,0,1,2.651-2.849,7.985,7.985,0,0,1,4.058-1,7.288,7.288,0,0,1,5.61,2.2,8.46,8.46,0,0,1,2.051,6v.176a8.208,8.208,0,0,1-2.058,5.881,7.307,7.307,0,0,1-5.574,2.175,7.39,7.39,0,0,1-5.435-2.029,7.935,7.935,0,0,1-2.212-5.5Zm4.937.308a5.9,5.9,0,0,0,.688,3.223,2.294,2.294,0,0,0,2.036,1.025q2.637,0,2.7-4.058v-.5q0-4.263-2.725-4.263-2.476,0-2.681,3.677Zm17.065-8.086.161,1.86a5.375,5.375,0,0,1,4.526-2.153,4.522,4.522,0,0,1,3.7,1.479,7.044,7.044,0,0,1,1.267,4.453V64h-4.951V54a2.675,2.675,0,0,0-.483-1.765,2.236,2.236,0,0,0-1.758-.564,2.354,2.354,0,0,0-2.153,1.143V64H95.43V48.15Zm18.135-3.94v3.94H120.8v3.428h-2.607v7.251a1.851,1.851,0,0,0,.322,1.245,1.729,1.729,0,0,0,1.274.352,7.242,7.242,0,0,0,1.23-.088v3.53a9.11,9.11,0,0,1-2.783.425,5.171,5.171,0,0,1-3.765-1.2,4.923,4.923,0,0,1-1.216-3.647V51.578h-2.021V48.15h2.021V44.21Zm14.136,8.408L130.7,52.5q-2.329,0-2.988,1.465V64h-4.937V48.15h4.629l.161,2.036a3.823,3.823,0,0,1,3.472-2.329,4.814,4.814,0,0,1,1.377.176Zm.63,3.311a9.355,9.355,0,0,1,.923-4.226,6.6,6.6,0,0,1,2.651-2.849,7.985,7.985,0,0,1,4.058-1,7.288,7.288,0,0,1,5.61,2.2,8.46,8.46,0,0,1,2.051,6v.176a8.208,8.208,0,0,1-2.058,5.881,7.307,7.307,0,0,1-5.574,2.175,7.39,7.39,0,0,1-5.435-2.029,7.935,7.935,0,0,1-2.212-5.5Zm4.937.308a5.9,5.9,0,0,0,.688,3.223,2.294,2.294,0,0,0,2.036,1.025q2.637,0,2.7-4.058v-.5q0-4.263-2.725-4.263-2.476,0-2.681,3.677ZM155.635,64h-4.951V41.5h4.951Z" transform="translate(676 5201)" fill="#fff"/>
    <path id="Unión_1" data-name="Unión 1" d="M-4169,11748.943h15.207a7.013,7.013,0,0,1-.207-1.7V11725a7,7,0,0,1,7-7h22a7,7,0,0,1,7,7v22.247a7.013,7.013,0,0,1-.207,1.7H-4104l-32.5,30.058Z" transform="translate(4915.535 -6765.016)" fill="#06d1d1"/>
    <path id="Unión_3" data-name="Unión 3" d="M-4169,11748.943h15.207a7.013,7.013,0,0,1-.207-1.7v-62.634a7,7,0,0,1,7-7h22a7,7,0,0,1,7,7v62.634a7.013,7.013,0,0,1-.207,1.7H-4104l-32.5,30.058Z" transform="translate(-11137.945 929.999) rotate(-90)" fill="#06d1d1"/>
    <path id="Unión_4" data-name="Unión 4" d="M-4169,11748.943h15.207a7.013,7.013,0,0,1-.207-1.7v-62.634a7,7,0,0,1,7-7h22a7,7,0,0,1,7,7v62.634a7.013,7.013,0,0,1-.207,1.7H-4104l-32.5,30.058Z" transform="translate(-10748.945 929.999) rotate(-90)" fill="#06d1d1"/>
    <path id="Unión_2" data-name="Unión 2" d="M-4169,11748.943h15.207a7.013,7.013,0,0,1-.207-1.7V11725a7,7,0,0,1,7-7h22a7,7,0,0,1,7,7v22.247a7.013,7.013,0,0,1-.207,1.7H-4104l-32.5,30.058Z" transform="translate(4915.535 -6599.014)" fill="#06d1d1"/>
    <path id="Unión_5" data-name="Unión 5" d="M-4169,11748.943h15.209a7.037,7.037,0,0,1-.207-1.7v-98.259a7,7,0,0,1,7-7h249.33a7,7,0,0,1,7,7v22a7,7,0,0,1-7,7H-4118v69.256a7.037,7.037,0,0,1-.207,1.7H-4104l-32.5,30.058Z" transform="translate(-2962.001 16897.988) rotate(180)" fill="#06d1d1"/>
  </g>
</svg>
