<svg xmlns="http://www.w3.org/2000/svg" width="795" height="399.594" viewBox="0 0 795 399.594">
  <g id="Grupo_1017226" data-name="Grupo 1017226" transform="translate(-390 -8817.5)">
    <path id="Trazado_707597" data-name="Trazado 707597" d="M-1304-5508h792" transform="translate(1694 14327)" fill="none" stroke="#e8e8e8" stroke-width="3"/>
    <path id="Trazado_707602" data-name="Trazado 707602" d="M-1304-5508h792" transform="translate(1694 14383)" fill="none" stroke="#e8e8e8" stroke-width="3"/>
    <path id="Trazado_707598" data-name="Trazado 707598" d="M-1304-5508h792" transform="translate(1697 14441)" fill="none" stroke="#e8e8e8" stroke-width="3"/>
    <path id="Trazado_707599" data-name="Trazado 707599" d="M-1304-5508h792" transform="translate(1697 14498)" fill="none" stroke="#e8e8e8" stroke-width="3"/>
    <path id="Trazado_707600" data-name="Trazado 707600" d="M-1304-5508h792" transform="translate(1697 14555)" fill="none" stroke="#e8e8e8" stroke-width="3"/>
    <path id="Trazado_707601" data-name="Trazado 707601" d="M-1304-5508h792" transform="translate(1697 14612)" fill="none" stroke="#e8e8e8" stroke-width="3"/>
    <rect id="Rectángulo_349903" data-name="Rectángulo 349903" width="46" height="229" transform="translate(439 8875)" fill="#b20d0d"/>
    <rect id="Rectángulo_349906" data-name="Rectángulo 349906" width="46" height="114" transform="translate(637 8990)" fill="#b20d0d"/>
    <rect id="Rectángulo_349908" data-name="Rectángulo 349908" width="46" height="171" transform="translate(835 8933)" fill="#b20d0d"/>
    <rect id="Rectángulo_349910" data-name="Rectángulo 349910" width="46" height="114" transform="translate(1033 8990)" fill="#b20d0d"/>
    <rect id="Rectángulo_349904" data-name="Rectángulo 349904" width="46" height="199" transform="translate(495 8905)" fill="#8a3d02"/>
    <rect id="Rectángulo_349905" data-name="Rectángulo 349905" width="46" height="104" transform="translate(693 9000)" fill="#8a3d02"/>
    <rect id="Rectángulo_349907" data-name="Rectángulo 349907" width="46" height="114" transform="translate(891 8990)" fill="#8a3d02"/>
    <rect id="Rectángulo_349909" data-name="Rectángulo 349909" width="46" height="160" transform="translate(1089 8944)" fill="#8a3d02"/>
    <rect id="Rectángulo_349911" data-name="Rectángulo 349911" width="19" height="19" transform="translate(448 9193)" fill="#b20d0d"/>
    <rect id="Rectángulo_349912" data-name="Rectángulo 349912" width="19" height="19" transform="translate(854 9193)" fill="#8a3d02"/>
    <path id="Trazado_714978" data-name="Trazado 714978" d="M9.536,21.456H6.753V29H1.611V7.672H10a9.368,9.368,0,0,1,5.933,1.683,5.7,5.7,0,0,1,2.139,4.756,6.925,6.925,0,0,1-.9,3.688,6.394,6.394,0,0,1-2.82,2.371l4.453,8.612V29H13.3ZM6.753,17.5H10a2.919,2.919,0,0,0,2.2-.771,2.98,2.98,0,0,0,.74-2.151,3.015,3.015,0,0,0-.747-2.166,2.892,2.892,0,0,0-2.2-.786H6.753Zm21.87,11.792a8.148,8.148,0,0,1-5.9-2.175,7.512,7.512,0,0,1-2.256-5.662v-.41a9.734,9.734,0,0,1,.9-4.292,6.592,6.592,0,0,1,2.629-2.878,7.938,7.938,0,0,1,4.1-1.018,6.861,6.861,0,0,1,5.273,2.073A8.145,8.145,0,0,1,35.3,20.709v1.919H25.488a3.558,3.558,0,0,0,1.157,2.095,3.443,3.443,0,0,0,2.314.762,4.437,4.437,0,0,0,3.662-1.641l2.256,2.666a6.306,6.306,0,0,1-2.615,2.029A8.836,8.836,0,0,1,28.623,29.293Zm-.557-12.627q-2.168,0-2.578,2.871h4.98v-.381a2.445,2.445,0,0,0-.6-1.838A2.39,2.39,0,0,0,28.066,16.666Zm17.52,7.881a1.14,1.14,0,0,0-.659-1.011,10.027,10.027,0,0,0-2.5-.791,11.422,11.422,0,0,1-3.047-1.077,5.1,5.1,0,0,1-1.831-1.619,3.865,3.865,0,0,1-.63-2.183,4.381,4.381,0,0,1,1.8-3.6,7.422,7.422,0,0,1,4.717-1.414,8.223,8.223,0,0,1,5.039,1.421,4.443,4.443,0,0,1,1.9,3.735H45.425q0-1.9-2.007-1.9a1.989,1.989,0,0,0-1.3.432,1.338,1.338,0,0,0-.527,1.077,1.228,1.228,0,0,0,.645,1.069,6.09,6.09,0,0,0,2.058.674,17.785,17.785,0,0,1,2.483.63q3.574,1.23,3.574,4.409a4.151,4.151,0,0,1-1.926,3.53,8.447,8.447,0,0,1-4.988,1.362,8.62,8.62,0,0,1-3.633-.732,6.075,6.075,0,0,1-2.49-1.992,4.511,4.511,0,0,1-.894-2.651H41.03a1.908,1.908,0,0,0,.732,1.6,3.013,3.013,0,0,0,1.8.505,2.37,2.37,0,0,0,1.516-.41A1.312,1.312,0,0,0,45.586,24.547Zm16.509,2.739a5.09,5.09,0,0,1-4.233,2.007,4.992,4.992,0,0,1-3.948-1.516,6.376,6.376,0,0,1-1.34-4.358V13.15H57.51v10.3a1.774,1.774,0,0,0,1.978,2.036A2.58,2.58,0,0,0,61.9,24.269V13.15H66.87V29H62.241ZM74.78,29H69.829V6.5H74.78ZM83.569,9.21v3.94h2.607v3.428H83.569v7.251a1.851,1.851,0,0,0,.322,1.245,1.729,1.729,0,0,0,1.274.352,7.242,7.242,0,0,0,1.23-.088v3.53a9.11,9.11,0,0,1-2.783.425,5.171,5.171,0,0,1-3.765-1.2,4.923,4.923,0,0,1-1.216-3.647V16.578H76.611V13.15h2.021V9.21ZM97.046,29a5.574,5.574,0,0,1-.469-1.421,4.59,4.59,0,0,1-3.809,1.714,5.623,5.623,0,0,1-3.809-1.355,4.313,4.313,0,0,1-1.567-3.406,4.433,4.433,0,0,1,1.9-3.9,9.7,9.7,0,0,1,5.537-1.318h1.523v-.839q0-2.193-1.89-2.193a1.545,1.545,0,0,0-1.758,1.737H87.773a4.425,4.425,0,0,1,1.956-3.731,8.218,8.218,0,0,1,4.988-1.434,7.205,7.205,0,0,1,4.79,1.479,5.144,5.144,0,0,1,1.8,4.058v7.017a7.186,7.186,0,0,0,.674,3.34V29Zm-3.091-3.223a2.754,2.754,0,0,0,1.531-.4,2.479,2.479,0,0,0,.872-.894V21.954H94.922q-2.578,0-2.578,2.314A1.413,1.413,0,0,0,92.8,25.36,1.643,1.643,0,0,0,93.955,25.777Zm9.463-4.819a9.682,9.682,0,0,1,1.626-5.933,5.352,5.352,0,0,1,4.541-2.168,4.552,4.552,0,0,1,3.574,1.67V6.5h4.951V29h-4.438l-.249-1.7a4.674,4.674,0,0,1-3.867,1.992,5.342,5.342,0,0,1-4.482-2.168A9.989,9.989,0,0,1,103.418,20.958Zm4.937.308q0,4.219,2.461,4.219a2.43,2.43,0,0,0,2.344-1.377V18.072a2.365,2.365,0,0,0-2.314-1.406q-2.285,0-2.476,3.691Zm11.938-.337a9.355,9.355,0,0,1,.923-4.226,6.6,6.6,0,0,1,2.651-2.849,7.985,7.985,0,0,1,4.058-1,7.288,7.288,0,0,1,5.61,2.2,8.46,8.46,0,0,1,2.051,6v.176a8.208,8.208,0,0,1-2.058,5.881,7.307,7.307,0,0,1-5.574,2.175,7.39,7.39,0,0,1-5.435-2.029,7.935,7.935,0,0,1-2.212-5.5Zm4.937.308a5.9,5.9,0,0,0,.688,3.223,2.294,2.294,0,0,0,2.036,1.025q2.637,0,2.7-4.058v-.5q0-4.263-2.725-4.263-2.476,0-2.681,3.677Zm25.371.527V29h-5.142V7.672h8.511a9.913,9.913,0,0,1,4.329.9,6.789,6.789,0,0,1,2.915,2.563,7,7,0,0,1,1.033,3.772,6.171,6.171,0,0,1-2.234,4.988,9.269,9.269,0,0,1-6.13,1.868Zm0-3.97h3.369a3.177,3.177,0,0,0,2.278-.747,2.776,2.776,0,0,0,.784-2.109,3.431,3.431,0,0,0-.806-2.388,2.853,2.853,0,0,0-2.2-.908H150.6Zm23.745-.176L172.72,17.5q-2.329,0-2.988,1.465V29h-4.937V13.15h4.629l.161,2.036a3.823,3.823,0,0,1,3.472-2.329,4.814,4.814,0,0,1,1.377.176Zm9.17,11.675a8.148,8.148,0,0,1-5.9-2.175,7.512,7.512,0,0,1-2.256-5.662v-.41a9.734,9.734,0,0,1,.9-4.292,6.592,6.592,0,0,1,2.629-2.878,7.938,7.938,0,0,1,4.1-1.018,6.861,6.861,0,0,1,5.273,2.073,8.145,8.145,0,0,1,1.934,5.779v1.919h-9.814a3.558,3.558,0,0,0,1.157,2.095,3.443,3.443,0,0,0,2.314.762,4.437,4.437,0,0,0,3.662-1.641l2.256,2.666a6.306,6.306,0,0,1-2.615,2.029A8.836,8.836,0,0,1,183.516,29.293Zm-.557-12.627q-2.168,0-2.578,2.871h4.98v-.381a2.445,2.445,0,0,0-.6-1.838A2.39,2.39,0,0,0,182.959,16.666Zm17.52,7.881a1.14,1.14,0,0,0-.659-1.011,10.027,10.027,0,0,0-2.5-.791,11.422,11.422,0,0,1-3.047-1.077,5.1,5.1,0,0,1-1.831-1.619,3.865,3.865,0,0,1-.63-2.183,4.381,4.381,0,0,1,1.8-3.6,7.422,7.422,0,0,1,4.717-1.414,8.223,8.223,0,0,1,5.039,1.421,4.443,4.443,0,0,1,1.9,3.735h-4.951q0-1.9-2.007-1.9a1.989,1.989,0,0,0-1.3.432,1.338,1.338,0,0,0-.527,1.077,1.228,1.228,0,0,0,.645,1.069,6.09,6.09,0,0,0,2.058.674,17.785,17.785,0,0,1,2.483.63q3.574,1.23,3.574,4.409a4.151,4.151,0,0,1-1.926,3.53,8.447,8.447,0,0,1-4.988,1.362,8.62,8.62,0,0,1-3.633-.732,6.075,6.075,0,0,1-2.49-1.992,4.511,4.511,0,0,1-.894-2.651h4.614a1.908,1.908,0,0,0,.732,1.6,3.013,3.013,0,0,0,1.8.505,2.37,2.37,0,0,0,1.516-.41A1.312,1.312,0,0,0,200.479,24.547Zm16.509,2.739a5.09,5.09,0,0,1-4.233,2.007,4.992,4.992,0,0,1-3.948-1.516,6.376,6.376,0,0,1-1.34-4.358V13.15H212.4v10.3a1.774,1.774,0,0,0,1.978,2.036,2.58,2.58,0,0,0,2.417-1.216V13.15h4.966V29h-4.629Zm22.192-6.094a9.558,9.558,0,0,1-1.663,5.9,5.331,5.331,0,0,1-4.49,2.2,4.569,4.569,0,0,1-3.589-1.6v7.4H224.5V13.15h4.614l.146,1.465A4.57,4.57,0,0,1,233,12.857a5.374,5.374,0,0,1,4.556,2.161,9.676,9.676,0,0,1,1.626,5.94Zm-4.937-.308q0-4.219-2.461-4.219a2.323,2.323,0,0,0-2.344,1.26v6.24a2.4,2.4,0,0,0,2.373,1.318q2.358,0,2.432-4.072Zm16.553,6.4a5.09,5.09,0,0,1-4.233,2.007,4.992,4.992,0,0,1-3.948-1.516,6.376,6.376,0,0,1-1.34-4.358V13.15h4.937v10.3a1.774,1.774,0,0,0,1.978,2.036,2.58,2.58,0,0,0,2.417-1.216V13.15h4.966V29h-4.629Zm15.146,2.007a8.148,8.148,0,0,1-5.9-2.175,7.512,7.512,0,0,1-2.256-5.662v-.41a9.734,9.734,0,0,1,.9-4.292,6.592,6.592,0,0,1,2.629-2.878,7.938,7.938,0,0,1,4.1-1.018,6.861,6.861,0,0,1,5.273,2.073,8.145,8.145,0,0,1,1.934,5.779v1.919h-9.814a3.558,3.558,0,0,0,1.157,2.095,3.443,3.443,0,0,0,2.314.762,4.437,4.437,0,0,0,3.662-1.641L272.2,26.51a6.306,6.306,0,0,1-2.615,2.029A8.836,8.836,0,0,1,265.942,29.293Zm-.557-12.627q-2.168,0-2.578,2.871h4.98v-.381a2.445,2.445,0,0,0-.6-1.838A2.39,2.39,0,0,0,265.386,16.666Zm17.52,7.881a1.14,1.14,0,0,0-.659-1.011,10.027,10.027,0,0,0-2.5-.791,11.422,11.422,0,0,1-3.047-1.077,5.1,5.1,0,0,1-1.831-1.619,3.865,3.865,0,0,1-.63-2.183,4.381,4.381,0,0,1,1.8-3.6,7.422,7.422,0,0,1,4.717-1.414,8.223,8.223,0,0,1,5.039,1.421,4.443,4.443,0,0,1,1.9,3.735h-4.951q0-1.9-2.007-1.9a1.989,1.989,0,0,0-1.3.432,1.338,1.338,0,0,0-.527,1.077,1.228,1.228,0,0,0,.645,1.069,6.09,6.09,0,0,0,2.058.674,17.785,17.785,0,0,1,2.483.63q3.574,1.23,3.574,4.409a4.151,4.151,0,0,1-1.926,3.53,8.447,8.447,0,0,1-4.988,1.362,8.62,8.62,0,0,1-3.633-.732,6.075,6.075,0,0,1-2.49-1.992,4.511,4.511,0,0,1-.894-2.651h4.614a1.908,1.908,0,0,0,.732,1.6,3.013,3.013,0,0,0,1.8.505,2.37,2.37,0,0,0,1.516-.41A1.312,1.312,0,0,0,282.905,24.547ZM295.723,9.21v3.94h2.607v3.428h-2.607v7.251a1.851,1.851,0,0,0,.322,1.245,1.729,1.729,0,0,0,1.274.352,7.242,7.242,0,0,0,1.23-.088v3.53a9.11,9.11,0,0,1-2.783.425,5.171,5.171,0,0,1-3.765-1.2,4.923,4.923,0,0,1-1.216-3.647V16.578h-2.021V13.15h2.021V9.21ZM309.2,29a5.574,5.574,0,0,1-.469-1.421,4.59,4.59,0,0,1-3.809,1.714,5.623,5.623,0,0,1-3.809-1.355,4.313,4.313,0,0,1-1.567-3.406,4.433,4.433,0,0,1,1.9-3.9,9.7,9.7,0,0,1,5.537-1.318h1.523v-.839q0-2.193-1.89-2.193a1.545,1.545,0,0,0-1.758,1.737h-4.937a4.425,4.425,0,0,1,1.956-3.731,8.218,8.218,0,0,1,4.988-1.434,7.205,7.205,0,0,1,4.79,1.479,5.144,5.144,0,0,1,1.8,4.058v7.017a7.186,7.186,0,0,0,.674,3.34V29Zm-3.091-3.223a2.754,2.754,0,0,0,1.531-.4,2.479,2.479,0,0,0,.872-.894V21.954h-1.436q-2.578,0-2.578,2.314a1.413,1.413,0,0,0,.454,1.091A1.643,1.643,0,0,0,306.108,25.777Zm9.463-4.819a9.682,9.682,0,0,1,1.626-5.933,5.352,5.352,0,0,1,4.541-2.168,4.552,4.552,0,0,1,3.574,1.67V6.5h4.951V29h-4.438l-.249-1.7a4.674,4.674,0,0,1-3.867,1.992,5.342,5.342,0,0,1-4.482-2.168A9.989,9.989,0,0,1,315.571,20.958Zm4.937.308q0,4.219,2.461,4.219a2.43,2.43,0,0,0,2.344-1.377V18.072A2.365,2.365,0,0,0,323,16.666q-2.285,0-2.476,3.691Zm11.938-.337a9.355,9.355,0,0,1,.923-4.226,6.6,6.6,0,0,1,2.651-2.849,7.985,7.985,0,0,1,4.058-1,7.288,7.288,0,0,1,5.61,2.2,8.46,8.46,0,0,1,2.051,6v.176a8.208,8.208,0,0,1-2.058,5.881,7.307,7.307,0,0,1-5.574,2.175,7.39,7.39,0,0,1-5.435-2.029,7.935,7.935,0,0,1-2.212-5.5Zm4.937.308a5.9,5.9,0,0,0,.688,3.223,2.294,2.294,0,0,0,2.036,1.025q2.637,0,2.7-4.058v-.5q0-4.263-2.725-4.263-2.476,0-2.681,3.677Z" transform="translate(471 9182)" fill="#12263f"/>
    <path id="Trazado_714977" data-name="Trazado 714977" d="M9.536,21.456H6.753V29H1.611V7.672H10a9.368,9.368,0,0,1,5.933,1.683,5.7,5.7,0,0,1,2.139,4.756,6.925,6.925,0,0,1-.9,3.688,6.394,6.394,0,0,1-2.82,2.371l4.453,8.612V29H13.3ZM6.753,17.5H10a2.919,2.919,0,0,0,2.2-.771,2.98,2.98,0,0,0,.74-2.151,3.015,3.015,0,0,0-.747-2.166,2.892,2.892,0,0,0-2.2-.786H6.753Zm21.87,11.792a8.148,8.148,0,0,1-5.9-2.175,7.512,7.512,0,0,1-2.256-5.662v-.41a9.734,9.734,0,0,1,.9-4.292,6.592,6.592,0,0,1,2.629-2.878,7.938,7.938,0,0,1,4.1-1.018,6.861,6.861,0,0,1,5.273,2.073A8.145,8.145,0,0,1,35.3,20.709v1.919H25.488a3.558,3.558,0,0,0,1.157,2.095,3.443,3.443,0,0,0,2.314.762,4.437,4.437,0,0,0,3.662-1.641l2.256,2.666a6.306,6.306,0,0,1-2.615,2.029A8.836,8.836,0,0,1,28.623,29.293Zm-.557-12.627q-2.168,0-2.578,2.871h4.98v-.381a2.445,2.445,0,0,0-.6-1.838A2.39,2.39,0,0,0,28.066,16.666Zm17.52,7.881a1.14,1.14,0,0,0-.659-1.011,10.027,10.027,0,0,0-2.5-.791,11.422,11.422,0,0,1-3.047-1.077,5.1,5.1,0,0,1-1.831-1.619,3.865,3.865,0,0,1-.63-2.183,4.381,4.381,0,0,1,1.8-3.6,7.422,7.422,0,0,1,4.717-1.414,8.223,8.223,0,0,1,5.039,1.421,4.443,4.443,0,0,1,1.9,3.735H45.425q0-1.9-2.007-1.9a1.989,1.989,0,0,0-1.3.432,1.338,1.338,0,0,0-.527,1.077,1.228,1.228,0,0,0,.645,1.069,6.09,6.09,0,0,0,2.058.674,17.785,17.785,0,0,1,2.483.63q3.574,1.23,3.574,4.409a4.151,4.151,0,0,1-1.926,3.53,8.447,8.447,0,0,1-4.988,1.362,8.62,8.62,0,0,1-3.633-.732,6.075,6.075,0,0,1-2.49-1.992,4.511,4.511,0,0,1-.894-2.651H41.03a1.908,1.908,0,0,0,.732,1.6,3.013,3.013,0,0,0,1.8.505,2.37,2.37,0,0,0,1.516-.41A1.312,1.312,0,0,0,45.586,24.547Zm16.509,2.739a5.09,5.09,0,0,1-4.233,2.007,4.992,4.992,0,0,1-3.948-1.516,6.376,6.376,0,0,1-1.34-4.358V13.15H57.51v10.3a1.774,1.774,0,0,0,1.978,2.036A2.58,2.58,0,0,0,61.9,24.269V13.15H66.87V29H62.241ZM74.78,29H69.829V6.5H74.78ZM83.569,9.21v3.94h2.607v3.428H83.569v7.251a1.851,1.851,0,0,0,.322,1.245,1.729,1.729,0,0,0,1.274.352,7.242,7.242,0,0,0,1.23-.088v3.53a9.11,9.11,0,0,1-2.783.425,5.171,5.171,0,0,1-3.765-1.2,4.923,4.923,0,0,1-1.216-3.647V16.578H76.611V13.15h2.021V9.21ZM97.046,29a5.574,5.574,0,0,1-.469-1.421,4.59,4.59,0,0,1-3.809,1.714,5.623,5.623,0,0,1-3.809-1.355,4.313,4.313,0,0,1-1.567-3.406,4.433,4.433,0,0,1,1.9-3.9,9.7,9.7,0,0,1,5.537-1.318h1.523v-.839q0-2.193-1.89-2.193a1.545,1.545,0,0,0-1.758,1.737H87.773a4.425,4.425,0,0,1,1.956-3.731,8.218,8.218,0,0,1,4.988-1.434,7.205,7.205,0,0,1,4.79,1.479,5.144,5.144,0,0,1,1.8,4.058v7.017a7.186,7.186,0,0,0,.674,3.34V29Zm-3.091-3.223a2.754,2.754,0,0,0,1.531-.4,2.479,2.479,0,0,0,.872-.894V21.954H94.922q-2.578,0-2.578,2.314A1.413,1.413,0,0,0,92.8,25.36,1.643,1.643,0,0,0,93.955,25.777Zm9.463-4.819a9.682,9.682,0,0,1,1.626-5.933,5.352,5.352,0,0,1,4.541-2.168,4.552,4.552,0,0,1,3.574,1.67V6.5h4.951V29h-4.438l-.249-1.7a4.674,4.674,0,0,1-3.867,1.992,5.342,5.342,0,0,1-4.482-2.168A9.989,9.989,0,0,1,103.418,20.958Zm4.937.308q0,4.219,2.461,4.219a2.43,2.43,0,0,0,2.344-1.377V18.072a2.365,2.365,0,0,0-2.314-1.406q-2.285,0-2.476,3.691Zm11.938-.337a9.355,9.355,0,0,1,.923-4.226,6.6,6.6,0,0,1,2.651-2.849,7.985,7.985,0,0,1,4.058-1,7.288,7.288,0,0,1,5.61,2.2,8.46,8.46,0,0,1,2.051,6v.176a8.208,8.208,0,0,1-2.058,5.881,7.307,7.307,0,0,1-5.574,2.175,7.39,7.39,0,0,1-5.435-2.029,7.935,7.935,0,0,1-2.212-5.5Zm4.937.308a5.9,5.9,0,0,0,.688,3.223,2.294,2.294,0,0,0,2.036,1.025q2.637,0,2.7-4.058v-.5q0-4.263-2.725-4.263-2.476,0-2.681,3.677Zm19.38-.308a9.355,9.355,0,0,1,.923-4.226,6.6,6.6,0,0,1,2.651-2.849,7.985,7.985,0,0,1,4.058-1,7.288,7.288,0,0,1,5.61,2.2,8.46,8.46,0,0,1,2.051,6v.176a8.208,8.208,0,0,1-2.058,5.881,7.307,7.307,0,0,1-5.574,2.175,7.39,7.39,0,0,1-5.435-2.029,7.935,7.935,0,0,1-2.212-5.5Zm4.937.308a5.9,5.9,0,0,0,.688,3.223,2.294,2.294,0,0,0,2.036,1.025q2.637,0,2.7-4.058v-.5q0-4.263-2.725-4.263-2.476,0-2.681,3.677Zm27.246-.029a9.66,9.66,0,0,1-1.611,5.991,5.4,5.4,0,0,1-4.541,2.095,4.684,4.684,0,0,1-3.9-1.919L166.538,29h-4.424V6.5h4.937v7.925a4.519,4.519,0,0,1,3.56-1.567,5.4,5.4,0,0,1,4.57,2.124,9.71,9.71,0,0,1,1.611,5.977Zm-4.951-.315a6.443,6.443,0,0,0-.608-3.254,2.049,2.049,0,0,0-1.868-.973,2.364,2.364,0,0,0-2.314,1.272v6.288a2.377,2.377,0,0,0,2.344,1.258,2.1,2.1,0,0,0,2.212-1.7A12.182,12.182,0,0,0,171.841,20.892ZM184.717,9.21v3.94h2.607v3.428h-2.607v7.251a1.851,1.851,0,0,0,.322,1.245,1.729,1.729,0,0,0,1.274.352,7.242,7.242,0,0,0,1.23-.088v3.53a9.11,9.11,0,0,1-2.783.425,5.171,5.171,0,0,1-3.765-1.2,4.923,4.923,0,0,1-1.216-3.647V16.578h-2.021V13.15h2.021V9.21Zm12.217,20.083a8.148,8.148,0,0,1-5.9-2.175,7.512,7.512,0,0,1-2.256-5.662v-.41a9.734,9.734,0,0,1,.9-4.292,6.592,6.592,0,0,1,2.629-2.878,7.938,7.938,0,0,1,4.1-1.018,6.861,6.861,0,0,1,5.273,2.073,8.145,8.145,0,0,1,1.934,5.779v1.919H193.8a3.558,3.558,0,0,0,1.157,2.095,3.443,3.443,0,0,0,2.314.762,4.437,4.437,0,0,0,3.662-1.641l2.256,2.666a6.306,6.306,0,0,1-2.615,2.029A8.836,8.836,0,0,1,196.934,29.293Zm-.557-12.627q-2.168,0-2.578,2.871h4.98v-.381a2.445,2.445,0,0,0-.6-1.838A2.39,2.39,0,0,0,196.377,16.666Zm13.755-3.516.161,1.86a5.375,5.375,0,0,1,4.526-2.153,4.522,4.522,0,0,1,3.7,1.479,7.044,7.044,0,0,1,1.267,4.453V29h-4.951V19a2.675,2.675,0,0,0-.483-1.765,2.236,2.236,0,0,0-1.758-.564,2.354,2.354,0,0,0-2.153,1.143V29H205.5V13.15ZM227.725,29h-4.951V13.15h4.951ZM222.48,9.063a2.2,2.2,0,0,1,.762-1.729,3.239,3.239,0,0,1,3.955,0,2.2,2.2,0,0,1,.762,1.729,2.2,2.2,0,0,1-.762,1.729,3.239,3.239,0,0,1-3.955,0A2.2,2.2,0,0,1,222.48,9.063Zm7.661,11.895a9.682,9.682,0,0,1,1.626-5.933,5.352,5.352,0,0,1,4.541-2.168,4.552,4.552,0,0,1,3.574,1.67V6.5h4.951V29H240.4l-.249-1.7a4.674,4.674,0,0,1-3.867,1.992,5.342,5.342,0,0,1-4.482-2.168A9.989,9.989,0,0,1,230.142,20.958Zm4.937.308q0,4.219,2.461,4.219a2.43,2.43,0,0,0,2.344-1.377V18.072a2.365,2.365,0,0,0-2.314-1.406q-2.285,0-2.476,3.691Zm11.938-.337a9.355,9.355,0,0,1,.923-4.226,6.6,6.6,0,0,1,2.651-2.849,7.985,7.985,0,0,1,4.058-1,7.288,7.288,0,0,1,5.61,2.2,8.46,8.46,0,0,1,2.051,6v.176a8.208,8.208,0,0,1-2.058,5.881,7.307,7.307,0,0,1-5.574,2.175,7.39,7.39,0,0,1-5.435-2.029,7.935,7.935,0,0,1-2.212-5.5Zm4.937.308a5.9,5.9,0,0,0,.688,3.223,2.294,2.294,0,0,0,2.036,1.025q2.637,0,2.7-4.058v-.5q0-4.263-2.725-4.263-2.476,0-2.681,3.677Z" transform="translate(884 9182)" fill="#12263f"/>
    <path id="Trazado_714974" data-name="Trazado 714974" d="M16.16,21.764V29H11.018V7.672h8.511a9.913,9.913,0,0,1,4.329.9,6.789,6.789,0,0,1,2.915,2.563,7,7,0,0,1,1.033,3.772A6.171,6.171,0,0,1,25.571,19.9a9.269,9.269,0,0,1-6.13,1.868Zm0-3.97h3.369a3.177,3.177,0,0,0,2.278-.747,2.776,2.776,0,0,0,.784-2.109,3.431,3.431,0,0,0-.806-2.388,2.853,2.853,0,0,0-2.2-.908H16.16ZM39.9,17.618,38.279,17.5q-2.329,0-2.988,1.465V29H30.354V13.15h4.629l.161,2.036a3.823,3.823,0,0,1,3.472-2.329,4.814,4.814,0,0,1,1.377.176Zm.63,3.311a9.355,9.355,0,0,1,.923-4.226,6.6,6.6,0,0,1,2.651-2.849,7.985,7.985,0,0,1,4.058-1,7.288,7.288,0,0,1,5.61,2.2,8.46,8.46,0,0,1,2.051,6v.176a8.208,8.208,0,0,1-2.058,5.881A7.307,7.307,0,0,1,48.2,29.293a7.39,7.39,0,0,1-5.435-2.029,7.935,7.935,0,0,1-2.212-5.5Zm4.937.308a5.9,5.9,0,0,0,.688,3.223A2.294,2.294,0,0,0,48.2,25.484q2.637,0,2.7-4.058v-.5q0-4.263-2.725-4.263-2.476,0-2.681,3.677ZM64.7,25.484a2.2,2.2,0,0,0,1.611-.564,2.068,2.068,0,0,0,.557-1.575H71.5a5.48,5.48,0,0,1-1.868,4.277,6.947,6.947,0,0,1-4.812,1.67,7.034,7.034,0,0,1-5.449-2.168,8.542,8.542,0,0,1-1.992-6.006v-.205a9.654,9.654,0,0,1,.886-4.241,6.453,6.453,0,0,1,2.556-2.827,7.622,7.622,0,0,1,3.955-.989,6.86,6.86,0,0,1,4.907,1.714A6.079,6.079,0,0,1,71.5,19.215H66.873a2.71,2.71,0,0,0-.6-1.89,2.073,2.073,0,0,0-1.611-.659q-1.919,0-2.241,2.446a17.262,17.262,0,0,0-.1,2.139,6.78,6.78,0,0,0,.571,3.311A1.978,1.978,0,0,0,64.7,25.484Zm16.553,3.809a8.148,8.148,0,0,1-5.9-2.175A7.512,7.512,0,0,1,73.1,21.456v-.41a9.734,9.734,0,0,1,.9-4.292,6.592,6.592,0,0,1,2.629-2.878,7.938,7.938,0,0,1,4.1-1.018A6.861,6.861,0,0,1,86,14.93a8.145,8.145,0,0,1,1.934,5.779v1.919H78.123a3.558,3.558,0,0,0,1.157,2.095,3.443,3.443,0,0,0,2.314.762,4.437,4.437,0,0,0,3.662-1.641l2.256,2.666A6.306,6.306,0,0,1,84.9,28.539,8.836,8.836,0,0,1,81.257,29.293ZM80.7,16.666q-2.168,0-2.578,2.871H83.1v-.381a2.445,2.445,0,0,0-.6-1.838A2.39,2.39,0,0,0,80.7,16.666Zm17.52,7.881a1.14,1.14,0,0,0-.659-1.011,10.027,10.027,0,0,0-2.5-.791,11.422,11.422,0,0,1-3.047-1.077,5.1,5.1,0,0,1-1.831-1.619,3.865,3.865,0,0,1-.63-2.183,4.381,4.381,0,0,1,1.8-3.6,7.422,7.422,0,0,1,4.717-1.414,8.223,8.223,0,0,1,5.039,1.421,4.443,4.443,0,0,1,1.9,3.735H98.059q0-1.9-2.007-1.9a1.989,1.989,0,0,0-1.3.432,1.338,1.338,0,0,0-.527,1.077,1.228,1.228,0,0,0,.645,1.069,6.09,6.09,0,0,0,2.058.674,17.785,17.785,0,0,1,2.483.63q3.574,1.23,3.574,4.409a4.151,4.151,0,0,1-1.926,3.53,8.447,8.447,0,0,1-4.988,1.362,8.62,8.62,0,0,1-3.633-.732,6.075,6.075,0,0,1-2.49-1.992,4.511,4.511,0,0,1-.894-2.651h4.614a1.908,1.908,0,0,0,.732,1.6,3.013,3.013,0,0,0,1.8.505,2.37,2.37,0,0,0,1.516-.41A1.312,1.312,0,0,0,98.22,24.547Zm6.445-3.618a9.355,9.355,0,0,1,.923-4.226,6.6,6.6,0,0,1,2.651-2.849,7.985,7.985,0,0,1,4.058-1,7.288,7.288,0,0,1,5.61,2.2,8.46,8.46,0,0,1,2.051,6v.176a8.208,8.208,0,0,1-2.058,5.881,7.307,7.307,0,0,1-5.574,2.175,7.39,7.39,0,0,1-5.435-2.029,7.935,7.935,0,0,1-2.212-5.5Zm4.937.308a5.9,5.9,0,0,0,.688,3.223,2.294,2.294,0,0,0,2.036,1.025q2.637,0,2.7-4.058v-.5q0-4.263-2.725-4.263-2.476,0-2.681,3.677ZM144.407,29H129.524V25.777l6.855-7.207q2.534-2.886,2.534-4.585a3.189,3.189,0,0,0-.6-2.095,2.144,2.144,0,0,0-1.743-.718,2.171,2.171,0,0,0-1.831.959,3.943,3.943,0,0,0-.7,2.4h-4.951a7,7,0,0,1,.981-3.625,6.882,6.882,0,0,1,2.725-2.6,8.094,8.094,0,0,1,3.9-.937,7.962,7.962,0,0,1,5.325,1.6,5.7,5.7,0,0,1,1.868,4.585A6.658,6.658,0,0,1,143.411,16a10.76,10.76,0,0,1-1.458,2.5,36.715,36.715,0,0,1-3.186,3.508l-2.754,3.179h8.394Z" transform="translate(610 9118)" fill="#12263f"/>
    <path id="Trazado_714973" data-name="Trazado 714973" d="M16.16,21.764V29H11.018V7.672h8.511a9.913,9.913,0,0,1,4.329.9,6.789,6.789,0,0,1,2.915,2.563,7,7,0,0,1,1.033,3.772A6.171,6.171,0,0,1,25.571,19.9a9.269,9.269,0,0,1-6.13,1.868Zm0-3.97h3.369a3.177,3.177,0,0,0,2.278-.747,2.776,2.776,0,0,0,.784-2.109,3.431,3.431,0,0,0-.806-2.388,2.853,2.853,0,0,0-2.2-.908H16.16ZM39.9,17.618,38.279,17.5q-2.329,0-2.988,1.465V29H30.354V13.15h4.629l.161,2.036a3.823,3.823,0,0,1,3.472-2.329,4.814,4.814,0,0,1,1.377.176Zm.63,3.311a9.355,9.355,0,0,1,.923-4.226,6.6,6.6,0,0,1,2.651-2.849,7.985,7.985,0,0,1,4.058-1,7.288,7.288,0,0,1,5.61,2.2,8.46,8.46,0,0,1,2.051,6v.176a8.208,8.208,0,0,1-2.058,5.881A7.307,7.307,0,0,1,48.2,29.293a7.39,7.39,0,0,1-5.435-2.029,7.935,7.935,0,0,1-2.212-5.5Zm4.937.308a5.9,5.9,0,0,0,.688,3.223A2.294,2.294,0,0,0,48.2,25.484q2.637,0,2.7-4.058v-.5q0-4.263-2.725-4.263-2.476,0-2.681,3.677ZM64.7,25.484a2.2,2.2,0,0,0,1.611-.564,2.068,2.068,0,0,0,.557-1.575H71.5a5.48,5.48,0,0,1-1.868,4.277,6.947,6.947,0,0,1-4.812,1.67,7.034,7.034,0,0,1-5.449-2.168,8.542,8.542,0,0,1-1.992-6.006v-.205a9.654,9.654,0,0,1,.886-4.241,6.453,6.453,0,0,1,2.556-2.827,7.622,7.622,0,0,1,3.955-.989,6.86,6.86,0,0,1,4.907,1.714A6.079,6.079,0,0,1,71.5,19.215H66.873a2.71,2.71,0,0,0-.6-1.89,2.073,2.073,0,0,0-1.611-.659q-1.919,0-2.241,2.446a17.262,17.262,0,0,0-.1,2.139,6.78,6.78,0,0,0,.571,3.311A1.978,1.978,0,0,0,64.7,25.484Zm16.553,3.809a8.148,8.148,0,0,1-5.9-2.175A7.512,7.512,0,0,1,73.1,21.456v-.41a9.734,9.734,0,0,1,.9-4.292,6.592,6.592,0,0,1,2.629-2.878,7.938,7.938,0,0,1,4.1-1.018A6.861,6.861,0,0,1,86,14.93a8.145,8.145,0,0,1,1.934,5.779v1.919H78.123a3.558,3.558,0,0,0,1.157,2.095,3.443,3.443,0,0,0,2.314.762,4.437,4.437,0,0,0,3.662-1.641l2.256,2.666A6.306,6.306,0,0,1,84.9,28.539,8.836,8.836,0,0,1,81.257,29.293ZM80.7,16.666q-2.168,0-2.578,2.871H83.1v-.381a2.445,2.445,0,0,0-.6-1.838A2.39,2.39,0,0,0,80.7,16.666Zm17.52,7.881a1.14,1.14,0,0,0-.659-1.011,10.027,10.027,0,0,0-2.5-.791,11.422,11.422,0,0,1-3.047-1.077,5.1,5.1,0,0,1-1.831-1.619,3.865,3.865,0,0,1-.63-2.183,4.381,4.381,0,0,1,1.8-3.6,7.422,7.422,0,0,1,4.717-1.414,8.223,8.223,0,0,1,5.039,1.421,4.443,4.443,0,0,1,1.9,3.735H98.059q0-1.9-2.007-1.9a1.989,1.989,0,0,0-1.3.432,1.338,1.338,0,0,0-.527,1.077,1.228,1.228,0,0,0,.645,1.069,6.09,6.09,0,0,0,2.058.674,17.785,17.785,0,0,1,2.483.63q3.574,1.23,3.574,4.409a4.151,4.151,0,0,1-1.926,3.53,8.447,8.447,0,0,1-4.988,1.362,8.62,8.62,0,0,1-3.633-.732,6.075,6.075,0,0,1-2.49-1.992,4.511,4.511,0,0,1-.894-2.651h4.614a1.908,1.908,0,0,0,.732,1.6,3.013,3.013,0,0,0,1.8.505,2.37,2.37,0,0,0,1.516-.41A1.312,1.312,0,0,0,98.22,24.547Zm6.445-3.618a9.355,9.355,0,0,1,.923-4.226,6.6,6.6,0,0,1,2.651-2.849,7.985,7.985,0,0,1,4.058-1,7.288,7.288,0,0,1,5.61,2.2,8.46,8.46,0,0,1,2.051,6v.176a8.208,8.208,0,0,1-2.058,5.881,7.307,7.307,0,0,1-5.574,2.175,7.39,7.39,0,0,1-5.435-2.029,7.935,7.935,0,0,1-2.212-5.5Zm4.937.308a5.9,5.9,0,0,0,.688,3.223,2.294,2.294,0,0,0,2.036,1.025q2.637,0,2.7-4.058v-.5q0-4.263-2.725-4.263-2.476,0-2.681,3.677ZM140.466,29h-4.951V13.238l-4.863,1.421v-3.75l9.36-3.237h.454Z" transform="translate(418 9118)" fill="#12263f"/>
    <path id="Trazado_714975" data-name="Trazado 714975" d="M16.16,21.764V29H11.018V7.672h8.511a9.913,9.913,0,0,1,4.329.9,6.789,6.789,0,0,1,2.915,2.563,7,7,0,0,1,1.033,3.772A6.171,6.171,0,0,1,25.571,19.9a9.269,9.269,0,0,1-6.13,1.868Zm0-3.97h3.369a3.177,3.177,0,0,0,2.278-.747,2.776,2.776,0,0,0,.784-2.109,3.431,3.431,0,0,0-.806-2.388,2.853,2.853,0,0,0-2.2-.908H16.16ZM39.9,17.618,38.279,17.5q-2.329,0-2.988,1.465V29H30.354V13.15h4.629l.161,2.036a3.823,3.823,0,0,1,3.472-2.329,4.814,4.814,0,0,1,1.377.176Zm.63,3.311a9.355,9.355,0,0,1,.923-4.226,6.6,6.6,0,0,1,2.651-2.849,7.985,7.985,0,0,1,4.058-1,7.288,7.288,0,0,1,5.61,2.2,8.46,8.46,0,0,1,2.051,6v.176a8.208,8.208,0,0,1-2.058,5.881A7.307,7.307,0,0,1,48.2,29.293a7.39,7.39,0,0,1-5.435-2.029,7.935,7.935,0,0,1-2.212-5.5Zm4.937.308a5.9,5.9,0,0,0,.688,3.223A2.294,2.294,0,0,0,48.2,25.484q2.637,0,2.7-4.058v-.5q0-4.263-2.725-4.263-2.476,0-2.681,3.677ZM64.7,25.484a2.2,2.2,0,0,0,1.611-.564,2.068,2.068,0,0,0,.557-1.575H71.5a5.48,5.48,0,0,1-1.868,4.277,6.947,6.947,0,0,1-4.812,1.67,7.034,7.034,0,0,1-5.449-2.168,8.542,8.542,0,0,1-1.992-6.006v-.205a9.654,9.654,0,0,1,.886-4.241,6.453,6.453,0,0,1,2.556-2.827,7.622,7.622,0,0,1,3.955-.989,6.86,6.86,0,0,1,4.907,1.714A6.079,6.079,0,0,1,71.5,19.215H66.873a2.71,2.71,0,0,0-.6-1.89,2.073,2.073,0,0,0-1.611-.659q-1.919,0-2.241,2.446a17.262,17.262,0,0,0-.1,2.139,6.78,6.78,0,0,0,.571,3.311A1.978,1.978,0,0,0,64.7,25.484Zm16.553,3.809a8.148,8.148,0,0,1-5.9-2.175A7.512,7.512,0,0,1,73.1,21.456v-.41a9.734,9.734,0,0,1,.9-4.292,6.592,6.592,0,0,1,2.629-2.878,7.938,7.938,0,0,1,4.1-1.018A6.861,6.861,0,0,1,86,14.93a8.145,8.145,0,0,1,1.934,5.779v1.919H78.123a3.558,3.558,0,0,0,1.157,2.095,3.443,3.443,0,0,0,2.314.762,4.437,4.437,0,0,0,3.662-1.641l2.256,2.666A6.306,6.306,0,0,1,84.9,28.539,8.836,8.836,0,0,1,81.257,29.293ZM80.7,16.666q-2.168,0-2.578,2.871H83.1v-.381a2.445,2.445,0,0,0-.6-1.838A2.39,2.39,0,0,0,80.7,16.666Zm17.52,7.881a1.14,1.14,0,0,0-.659-1.011,10.027,10.027,0,0,0-2.5-.791,11.422,11.422,0,0,1-3.047-1.077,5.1,5.1,0,0,1-1.831-1.619,3.865,3.865,0,0,1-.63-2.183,4.381,4.381,0,0,1,1.8-3.6,7.422,7.422,0,0,1,4.717-1.414,8.223,8.223,0,0,1,5.039,1.421,4.443,4.443,0,0,1,1.9,3.735H98.059q0-1.9-2.007-1.9a1.989,1.989,0,0,0-1.3.432,1.338,1.338,0,0,0-.527,1.077,1.228,1.228,0,0,0,.645,1.069,6.09,6.09,0,0,0,2.058.674,17.785,17.785,0,0,1,2.483.63q3.574,1.23,3.574,4.409a4.151,4.151,0,0,1-1.926,3.53,8.447,8.447,0,0,1-4.988,1.362,8.62,8.62,0,0,1-3.633-.732,6.075,6.075,0,0,1-2.49-1.992,4.511,4.511,0,0,1-.894-2.651h4.614a1.908,1.908,0,0,0,.732,1.6,3.013,3.013,0,0,0,1.8.505,2.37,2.37,0,0,0,1.516-.41A1.312,1.312,0,0,0,98.22,24.547Zm6.445-3.618a9.355,9.355,0,0,1,.923-4.226,6.6,6.6,0,0,1,2.651-2.849,7.985,7.985,0,0,1,4.058-1,7.288,7.288,0,0,1,5.61,2.2,8.46,8.46,0,0,1,2.051,6v.176a8.208,8.208,0,0,1-2.058,5.881,7.307,7.307,0,0,1-5.574,2.175,7.39,7.39,0,0,1-5.435-2.029,7.935,7.935,0,0,1-2.212-5.5Zm4.937.308a5.9,5.9,0,0,0,.688,3.223,2.294,2.294,0,0,0,2.036,1.025q2.637,0,2.7-4.058v-.5q0-4.263-2.725-4.263-2.476,0-2.681,3.677Zm24.434-4.966h2.329q2.769,0,2.769-2.71a2.343,2.343,0,0,0-.659-1.721,2.5,2.5,0,0,0-1.86-.667,2.676,2.676,0,0,0-1.707.571,1.743,1.743,0,0,0-.725,1.421h-4.937a5.053,5.053,0,0,1,.938-3,6.191,6.191,0,0,1,2.6-2.058,8.89,8.89,0,0,1,3.655-.74,8.735,8.735,0,0,1,5.6,1.626,5.405,5.405,0,0,1,2.036,4.468,4.505,4.505,0,0,1-.842,2.6,6,6,0,0,1-2.454,1.985,5.734,5.734,0,0,1,2.666,1.868,4.919,4.919,0,0,1,.967,3.1,5.5,5.5,0,0,1-2.2,4.57,9.12,9.12,0,0,1-5.771,1.714,9.458,9.458,0,0,1-3.889-.8,6.093,6.093,0,0,1-2.717-2.212,5.751,5.751,0,0,1-.923-3.215h4.966a2.223,2.223,0,0,0,.791,1.7,2.793,2.793,0,0,0,1.948.718,2.925,2.925,0,0,0,2.08-.725,2.424,2.424,0,0,0,.776-1.853,2.833,2.833,0,0,0-.806-2.285,3.368,3.368,0,0,0-2.227-.674h-2.4Z" transform="translate(808 9118)" fill="#12263f"/>
    <path id="Trazado_714976" data-name="Trazado 714976" d="M16.16,21.764V29H11.018V7.672h8.511a9.913,9.913,0,0,1,4.329.9,6.789,6.789,0,0,1,2.915,2.563,7,7,0,0,1,1.033,3.772A6.171,6.171,0,0,1,25.571,19.9a9.269,9.269,0,0,1-6.13,1.868Zm0-3.97h3.369a3.177,3.177,0,0,0,2.278-.747,2.776,2.776,0,0,0,.784-2.109,3.431,3.431,0,0,0-.806-2.388,2.853,2.853,0,0,0-2.2-.908H16.16ZM39.9,17.618,38.279,17.5q-2.329,0-2.988,1.465V29H30.354V13.15h4.629l.161,2.036a3.823,3.823,0,0,1,3.472-2.329,4.814,4.814,0,0,1,1.377.176Zm.63,3.311a9.355,9.355,0,0,1,.923-4.226,6.6,6.6,0,0,1,2.651-2.849,7.985,7.985,0,0,1,4.058-1,7.288,7.288,0,0,1,5.61,2.2,8.46,8.46,0,0,1,2.051,6v.176a8.208,8.208,0,0,1-2.058,5.881A7.307,7.307,0,0,1,48.2,29.293a7.39,7.39,0,0,1-5.435-2.029,7.935,7.935,0,0,1-2.212-5.5Zm4.937.308a5.9,5.9,0,0,0,.688,3.223A2.294,2.294,0,0,0,48.2,25.484q2.637,0,2.7-4.058v-.5q0-4.263-2.725-4.263-2.476,0-2.681,3.677ZM64.7,25.484a2.2,2.2,0,0,0,1.611-.564,2.068,2.068,0,0,0,.557-1.575H71.5a5.48,5.48,0,0,1-1.868,4.277,6.947,6.947,0,0,1-4.812,1.67,7.034,7.034,0,0,1-5.449-2.168,8.542,8.542,0,0,1-1.992-6.006v-.205a9.654,9.654,0,0,1,.886-4.241,6.453,6.453,0,0,1,2.556-2.827,7.622,7.622,0,0,1,3.955-.989,6.86,6.86,0,0,1,4.907,1.714A6.079,6.079,0,0,1,71.5,19.215H66.873a2.71,2.71,0,0,0-.6-1.89,2.073,2.073,0,0,0-1.611-.659q-1.919,0-2.241,2.446a17.262,17.262,0,0,0-.1,2.139,6.78,6.78,0,0,0,.571,3.311A1.978,1.978,0,0,0,64.7,25.484Zm16.553,3.809a8.148,8.148,0,0,1-5.9-2.175A7.512,7.512,0,0,1,73.1,21.456v-.41a9.734,9.734,0,0,1,.9-4.292,6.592,6.592,0,0,1,2.629-2.878,7.938,7.938,0,0,1,4.1-1.018A6.861,6.861,0,0,1,86,14.93a8.145,8.145,0,0,1,1.934,5.779v1.919H78.123a3.558,3.558,0,0,0,1.157,2.095,3.443,3.443,0,0,0,2.314.762,4.437,4.437,0,0,0,3.662-1.641l2.256,2.666A6.306,6.306,0,0,1,84.9,28.539,8.836,8.836,0,0,1,81.257,29.293ZM80.7,16.666q-2.168,0-2.578,2.871H83.1v-.381a2.445,2.445,0,0,0-.6-1.838A2.39,2.39,0,0,0,80.7,16.666Zm17.52,7.881a1.14,1.14,0,0,0-.659-1.011,10.027,10.027,0,0,0-2.5-.791,11.422,11.422,0,0,1-3.047-1.077,5.1,5.1,0,0,1-1.831-1.619,3.865,3.865,0,0,1-.63-2.183,4.381,4.381,0,0,1,1.8-3.6,7.422,7.422,0,0,1,4.717-1.414,8.223,8.223,0,0,1,5.039,1.421,4.443,4.443,0,0,1,1.9,3.735H98.059q0-1.9-2.007-1.9a1.989,1.989,0,0,0-1.3.432,1.338,1.338,0,0,0-.527,1.077,1.228,1.228,0,0,0,.645,1.069,6.09,6.09,0,0,0,2.058.674,17.785,17.785,0,0,1,2.483.63q3.574,1.23,3.574,4.409a4.151,4.151,0,0,1-1.926,3.53,8.447,8.447,0,0,1-4.988,1.362,8.62,8.62,0,0,1-3.633-.732,6.075,6.075,0,0,1-2.49-1.992,4.511,4.511,0,0,1-.894-2.651h4.614a1.908,1.908,0,0,0,.732,1.6,3.013,3.013,0,0,0,1.8.505,2.37,2.37,0,0,0,1.516-.41A1.312,1.312,0,0,0,98.22,24.547Zm6.445-3.618a9.355,9.355,0,0,1,.923-4.226,6.6,6.6,0,0,1,2.651-2.849,7.985,7.985,0,0,1,4.058-1,7.288,7.288,0,0,1,5.61,2.2,8.46,8.46,0,0,1,2.051,6v.176a8.208,8.208,0,0,1-2.058,5.881,7.307,7.307,0,0,1-5.574,2.175,7.39,7.39,0,0,1-5.435-2.029,7.935,7.935,0,0,1-2.212-5.5Zm4.937.308a5.9,5.9,0,0,0,.688,3.223,2.294,2.294,0,0,0,2.036,1.025q2.637,0,2.7-4.058v-.5q0-4.263-2.725-4.263-2.476,0-2.681,3.677Zm32.959-.571h2.168v3.809h-2.168V29h-4.937V24.474h-8.247l-.293-3.018,8.54-13.74V7.672h4.937Zm-8.774,0h3.838V14.1l-.308.5Z" transform="translate(1012 9118)" fill="#12263f"/>
  </g>
</svg>
