<svg xmlns="http://www.w3.org/2000/svg" xmlns:xlink="http://www.w3.org/1999/xlink" width="100" height="100" viewBox="0 0 100 100">
  <defs>
    <clipPath id="clip-path">
      <rect id="Rectángulo_352979" data-name="Rectángulo 352979" width="61.668" height="62.385"/>
    </clipPath>
  </defs>
  <g id="Grupo_1017231" data-name="Grupo 1017231" transform="translate(-1244 -5983)">
    <circle id="Elipse_5680" data-name="Elipse 5680" cx="50" cy="50" r="50" transform="translate(1244 5983)" fill="#fdd75b"/>
    <g id="Grupo_1003068" data-name="Grupo 1003068" transform="translate(1257.166 5994.808)">
      <g id="Grupo_1003067" data-name="Grupo 1003067" transform="translate(6 7)" clip-path="url(#clip-path)">
        <path id="Trazado_714900" data-name="Trazado 714900" d="M27.867,183.061q-9.242,0-18.484,0c-2.231,0-3.326-1.034-3.4-3.269-.019-.576-.216-.712-.735-.7-.994.031-1.99.026-2.984,0A2.085,2.085,0,0,1,.01,176.784Q0,168.993.01,161.2A1.971,1.971,0,0,1,2.2,158.975c.994-.019,1.99-.027,2.984,0,.55.017.783-.119.8-.748.052-2.206,1.2-3.291,3.391-3.3,3.177-.006,6.354.031,9.53-.024.842-.014.974.274.991,1.044.019.847-.269,1-1.039.994-3.112-.044-6.225-.018-9.338-.019a1.757,1.757,0,0,0-1.116.2,1.4,1.4,0,0,0-.454,1.5c.106.576.622.316.955.329.994.037,1.99-.008,2.984.023a1.917,1.917,0,0,1,2.025,2.091q.022,7.937,0,15.874a2.026,2.026,0,0,1-2.118,2.149c-.961.037-1.926-.021-2.887.024-.361.017-.978-.325-.983.5,0,.709.154,1.309.958,1.445a5.83,5.83,0,0,0,.961.017q18.34,0,36.679-.019c.92,0,1.349.145,1.244,1.2-.062.628-.212.823-.839.818-3.53-.027-7.06-.013-10.59-.013H27.867M11.954,169.085c0-2.435-.02-4.871.014-7.306.009-.637-.176-.825-.807-.818q-4.189.048-8.378,0c-.66-.009-.805.229-.8.841q.028,7.209,0,14.417c0,.651.211.828.829.822,2.76-.027,5.521-.041,8.281.008.763.014.891-.261.88-.949-.039-2.337-.015-4.676-.015-7.014" transform="translate(-0.002 -124.724)"/>
        <path id="Trazado_714901" data-name="Trazado 714901" d="M217.244,16.169c-3.339,0-6.677-.018-10.016.014-.729.007-1.016-.16-.995-.966.056-2.109.038-4.221.008-6.332-.009-.629.175-.847.82-.827,1.475.047,2.954.041,4.429,0,.6-.016.771.21.76.787-.028,1.526.027,3.053-.022,4.578-.028.875.529.706,1.019.709s1.02.146,1.007-.722c-.043-2.792.007-5.586-.031-8.378-.009-.708.155-.969.9-.937,1.41.061,2.826.061,4.236,0,.75-.032.905.239.9.944-.038,2.727.021,5.456-.037,8.183-.018.838.312.929,1,.934.706,0,1-.127.991-.946-.044-4.091-.007-8.183-.034-12.275,0-.654.131-.915.837-.889,1.475.055,2.953.036,4.429.006.519-.01.727.108.725.69q-.032,7.355,0,14.71c0,.673-.3.721-.813.719-3.371-.012-6.741-.006-10.112-.006m6.907-8.013c0,1.75.038,3.5-.017,5.251-.024.769.394.782.9.723.461-.053,1.15.321,1.143-.667q-.035-5.348,0-10.7c.007-.885-.57-.672-1.044-.689-.508-.018-1.025-.122-1,.731.05,1.781.015,3.565.015,5.348M218.188,10.1c0-1.137-.007-2.273,0-3.41.008-.939-.693-.526-1.112-.579s-.9-.155-.884.609c.037,2.272.03,4.546,0,6.819-.01.879.607.565,1.008.58.422.015,1.017.239.991-.611-.035-1.135-.009-2.273-.009-3.409M208.3,12.1a8.41,8.41,0,0,1-.009,1.162c-.108.765.23.948.919.892.573-.047,1.175.122,1.066-.847a12.521,12.521,0,0,1,0-2.324c.054-.709-.238-.832-.874-.858-.845-.035-1.261.179-1.105,1.1a5.324,5.324,0,0,1,.008.872" transform="translate(-166.506 -0.038)"/>
        <path id="Trazado_714902" data-name="Trazado 714902" d="M129.944,125.958c.959,1.2.96,1.2-.071,2.239-.794.8-1.619,1.577-2.37,2.418-.521.584-.949.841-1.475.046-.08-.122-.2-.265-.389-.225-.28,1.429-.28,1.429-1.819,1.429-1.058,0-2.119-.046-3.174.015-.829.048-1.3-.139-1.139-1.093a1.143,1.143,0,0,0-.071-.371c-1.254.83-1.254.83-2.368-.3-.749-.757-1.461-1.555-2.255-2.259-.616-.546-.761-.98-.015-1.491a1.3,1.3,0,0,0,.231-.278c-.051-.076-.08-.162-.117-.166-1.318-.147-1.318-.146-1.318-1.51,0-1.168.052-2.339-.017-3.5-.052-.874.195-1.283,1.1-1.133a1.066,1.066,0,0,0,.357-.08c-.855-1.227-.855-1.227.23-2.326.77-.78,1.589-1.519,2.3-2.354.563-.663.986-.692,1.478.014a1.278,1.278,0,0,0,.275.226c.077-.065.157-.1.161-.14.127-1.318.126-1.318,1.5-1.318h2.983c1.463,0,1.463,0,1.64,1.4.058.009.14.045.171.019,1.031-.861,1.03-.861,2.025.145.816.826,1.6,1.686,2.46,2.465.571.519.715.929.025,1.423a1.867,1.867,0,0,0-.3.346c.093.083.134.153.181.157,1.276.1,1.276.1,1.277,1.439,0,1.2-.051,2.4.018,3.6.048.838-.179,1.232-1.052,1.084a1.853,1.853,0,0,0-.466.071m-11.708-5.924a1.729,1.729,0,0,1-1.593,1.791c-.8-.06-1.114.122-1.1,1.036.015.855.293,1.093,1.051.969.7-.115,1.012.209,1.36.855.5.927.079,1.4-.532,1.862-.752.564-.206.888.169,1.255s.651.956,1.249.21c.278-.347.528-.871,1.1-.826a1.572,1.572,0,0,1,1.579,1.808c-.049.808.3.9.954.871.607-.025,1.178.066,1.041-.869a1.215,1.215,0,0,1,.775-1.522,1.285,1.285,0,0,1,1.856.462c.543.8.888.287,1.315-.126.455-.44.809-.788.1-1.345-.314-.246-.806-.47-.729-1.042.148-1.094.7-1.641,1.809-1.572.845.053.826-.386.833-.993.007-.651,0-1.144-.884-1.04-.4.047-.894.225-1.229-.27-.658-.972-.668-1.594.239-2.379.668-.579.323-.876-.107-1.271-.4-.366-.7-.987-1.322-.208-.269.338-.5.875-1.106.777-1.126-.184-1.52-.667-1.566-1.844-.011-.279.182-.653-.3-.8-1.1-.328-1.718.057-1.629,1.189.068.876-.5.975-1.042,1.249a.959.959,0,0,1-1.337-.2c-.9-.959-.9-.9-1.841.034-.426.424-.315.649.047.992a2.912,2.912,0,0,1,.847.946" transform="translate(-91.693 -91.628)"/>
        <path id="Trazado_714903" data-name="Trazado 714903" d="M26.96,14.1c-3.21,0-6.421.012-9.631-.011a1.608,1.608,0,0,0-1.456.679A8.8,8.8,0,0,1,5.721,17.521,9.1,9.1,0,0,1,6.859.258a8.987,8.987,0,0,1,10.73,11.021c-.194.749.006.849.683.846q9.294-.033,18.587,0c.293,0,.751-.186.849.2a2.69,2.69,0,0,1-.031,1.624c-.116.293-.523.151-.8.152q-4.96.012-9.92.005M15.91,9.085A7.024,7.024,0,0,0,8.933,2.044a7.038,7.038,0,0,0-.009,14.074A7.03,7.03,0,0,0,15.91,9.085" transform="translate(0 0.001)"/>
        <path id="Trazado_714904" data-name="Trazado 714904" d="M254.624,227.2a6.544,6.544,0,0,1,6.434,4.061,6.691,6.691,0,0,1-1.581,7.579,6.023,6.023,0,0,1-.616.614,3.125,3.125,0,0,0-1.29,2.911,2.832,2.832,0,0,1-2.729,2.939,2.939,2.939,0,0,1-3.091-2.469.578.578,0,0,1-.037-.19c.334-1.77-.816-2.763-1.89-3.845a6.7,6.7,0,0,1,4.8-11.6m-.049,6.027c.8,0,1.6-.008,2.4,0,.232,0,.5-.088.619.28.343,1.03-.081,1.73-1.134,1.713-.611-.01-.866.157-.825.819.054.872.006,1.751.019,2.627,0,.2-.1.482.2.576a.566.566,0,0,0,.6-.2c.752-.8,1.58-1.534,2.247-2.4a4.342,4.342,0,0,0,.617-4.319,4.952,4.952,0,0,0-6.247-2.941,4.7,4.7,0,0,0-3.249,5.6c.427,1.9,1.955,2.909,3.176,4.16.333.341.708.163.694-.43a20.184,20.184,0,0,1,.013-2.431c.086-.878-.225-1.163-1.068-1.072-.323.035-.795.226-.974-.318-.362-1.1.041-1.673,1.174-1.674h1.732m1.07,8.695c.219-.76-.385-.663-.917-.658s-1.118-.163-1.049.77c.05.67.205,1.2.927,1.226.755.025,1.068-.476,1.038-1.339" transform="translate(-199.966 -182.928)"/>
        <path id="Trazado_714905" data-name="Trazado 714905" d="M226.779,98.922c0,1.558.012,3.116,0,4.675-.021,2.217-1.149,3.361-3.32,3.371-1.957.01-3.916-.04-5.872.021-.876.027-.711-.514-.7-1.005.008-.474-.212-1.053.679-1.027,1.828.054,3.658.017,5.487.015,1.541,0,1.738-.195,1.738-1.714,0-3.116.027-6.233-.018-9.349-.011-.783.155-1.041.982-1.05.871-.01,1.081.258,1.048,1.1-.065,1.653-.019,3.311-.019,4.966" transform="translate(-175.09 -74.764)"/>
        <path id="Trazado_714906" data-name="Trazado 714906" d="M298.957,204.571a4.6,4.6,0,0,1-1.418-.681c-.3-.3.171-.75.292-1.132.175-.551.5-1.059.638-1.616.233-.931.689-.922,1.437-.575.592.275.872.486.511,1.181-.4.768-.67,1.6-1.011,2.4-.078.184-.074.484-.449.419" transform="translate(-240.144 -161.31)"/>
        <path id="Trazado_714907" data-name="Trazado 714907" d="M257.279,203.092c.056.442-.342.406-.564.51-1.165.545-1.168.535-1.641-.625-.279-.686-.536-1.382-.848-2.051-.379-.812.371-.775.714-.911s.819-.744,1.133.123c.362,1,.8,1.967,1.205,2.955" transform="translate(-205.171 -160.771)"/>
        <path id="Trazado_714908" data-name="Trazado 714908" d="M280.787,198.1a5.944,5.944,0,0,0,.008.967c.152.907-.273,1.058-1.069,1.045-.7-.011-.969-.168-.913-.914a23.2,23.2,0,0,0,.009-2.612c-.029-.789.53-.595.917-.561s1.05-.348,1.046.527c0,.516,0,1.032,0,1.549" transform="translate(-225.101 -157.781)"/>
        <path id="Trazado_714909" data-name="Trazado 714909" d="M23.276,239.551H21.551c-1.14,0-1.507-.542-1.185-1.681.1-.35.331-.345.583-.346,1.6,0,3.2-.007,4.793,0,.9,0,.511.714.566,1.147.058.453.081.924-.636.887-.8-.042-1.6-.01-2.4-.008" transform="translate(-16.352 -191.236)"/>
        <path id="Trazado_714910" data-name="Trazado 714910" d="M23.71,198.105c-.639,0-1.28.02-1.918-.008-.329-.014-.842.192-.943-.206a4.369,4.369,0,0,1,0-1.63c.034-.245.379-.164.593-.165,1.534-.006,3.07.034,4.6-.018.875-.029.672.55.689,1.031.018.519.11,1.065-.725,1.006-.764-.053-1.534-.011-2.3-.011" transform="translate(-16.771 -157.87)"/>
        <path id="Trazado_714911" data-name="Trazado 714911" d="M23.616,219.031c-.8,0-1.6-.024-2.4.007s-.575-.553-.547-.938-.343-1.058.522-1.056c1.629,0,3.259-.015,4.888.008.918.013.433.754.514,1.17s.077.851-.586.819c-.8-.039-1.6-.009-2.4-.009" transform="translate(-16.646 -174.747)"/>
        <path id="Trazado_714912" data-name="Trazado 714912" d="M150.492,147.659a2.986,2.986,0,1,1-3.018-3.012,3.042,3.042,0,0,1,3.018,3.012m-3.069-.985a.939.939,0,0,0-.879,1.013.961.961,0,1,0,1.922-.04c-.009-.618-.385-.92-1.043-.974" transform="translate(-116.681 -116.461)"/>
        <path id="Trazado_714913" data-name="Trazado 714913" d="M25.607,36.358c-.183-.168-.328-.29-.462-.425-.592-.595-1.166-1.209-1.777-1.783-.347-.326-.409-.543-.036-.931.9-.935.9-.986,1.839-.083.417.4.62.224.925-.087,1.4-1.432,2.851-2.81,4.2-4.289.616-.676.887-.242,1.261.159.347.372.9.614.214,1.271-1.925,1.858-3.777,3.795-5.659,5.7-.152.154-.317.3-.5.468" transform="translate(-18.633 -22.873)"/>
      </g>
    </g>
  </g>
</svg>
