<svg xmlns="http://www.w3.org/2000/svg" xmlns:xlink="http://www.w3.org/1999/xlink" width="100" height="100" viewBox="0 0 100 100">
  <defs>
    <clipPath id="clip-path">
      <rect id="Rectángulo_352975" data-name="Rectángulo 352975" width="66.773" height="54.354"/>
    </clipPath>
  </defs>
  <g id="Grupo_1017230" data-name="Grupo 1017230" transform="translate(-190 -5844)">
    <circle id="Elipse_5679" data-name="Elipse 5679" cx="50" cy="50" r="50" transform="translate(190 5844)" fill="#abffff"/>
    <g id="Grupo_1003065" data-name="Grupo 1003065" transform="translate(206.701 5843.67)">
      <g id="Grupo_1003064" data-name="Grupo 1003064" transform="translate(0 22.976)" clip-path="url(#clip-path)">
        <path id="Trazado_714892" data-name="Trazado 714892" d="M31.6,14.854q-9.7,0-19.405,0c-.19,0-.255.043-.254.25,0,2.383,0,4.766,0,7.149a1.3,1.3,0,0,1-.177.768.922.922,0,0,1-1.047.408.954.954,0,0,1-.7-.84c-.03-.491-.027-.984-.027-1.477q0-8.614,0-17.229c0-.287,0-.573.019-.86a.307.307,0,0,0-.168-.326,5.246,5.246,0,0,0-7.611,2.96A5.786,5.786,0,0,0,1.939,7.5Q1.93,13.55,1.93,19.6q0,10.913.005,21.826c0,.125-.076.309.056.368s.185-.13.272-.211a7.075,7.075,0,0,1,5.79-2,10.586,10.586,0,0,1,1.764.453c.139.039.2.04.2-.144-.058-3.377-.016-6.755-.027-10.132,0-.842.008-1.684,0-2.527a1.124,1.124,0,0,1,.344-.891.832.832,0,0,1,.86-.243,1.02,1.02,0,0,1,.7.729,1.858,1.858,0,0,1,.036.48q0,6.961,0,13.923c0,.2.014.395,0,.591a.971.971,0,0,1-.552.879.919.919,0,0,1-1.01-.106,5.14,5.14,0,0,0-4.1-.974,5.453,5.453,0,0,0,0,10.676,6.565,6.565,0,0,0,1.245.084l26.343,0c.174,0,.348,0,.521.016a.973.973,0,0,1,.88.869.989.989,0,0,1-.735,1.032,4.455,4.455,0,0,1-1.091.058q-12.937,0-25.873,0a7.647,7.647,0,0,1-2.145-.232,7.277,7.277,0,0,1-4.73-4.062,7.364,7.364,0,0,1-.687-3.172Q-.007,27.3,0,7.722A7.511,7.511,0,0,1,2.471,1.879,6.913,6.913,0,0,1,8.017.072a7.179,7.179,0,0,1,3.236,1.239,1.425,1.425,0,0,1,.689,1.313c-.017,3.315,0,6.63,0,9.945,0,.206.043.275.258.275q16.718-.009,33.437-.006c1.765,0,3.53-.011,5.295,0,.282,0,.321-.1.32-.355-.008-2.822,0-5.644-.007-8.467A4.043,4.043,0,0,1,51.9,1.579,3.308,3.308,0,0,1,54.45.057a30.276,30.276,0,0,1,4.039.022A3.551,3.551,0,0,1,61.5,3.24a9.005,9.005,0,0,1,.054.964c0,2.777,0,5.555-.006,8.332,0,.242.051.313.3.309,1.226-.016,2.451-.013,3.677-.008.853,0,1.245.414,1.245,1.288q0,19.474,0,38.947c0,.892-.343,1.259-1.212,1.274-.7.012-1.408,0-2.113,0l-24.413,0a2.466,2.466,0,0,1-.593-.075.956.956,0,0,1-.685-1.038.916.916,0,0,1,.777-.844,4.738,4.738,0,0,1,.6-.039q12.532,0,25.064,0c.641,0,.64,0,.64-.647q0-18.224,0-36.448c0-.421.077-.406-.385-.407q-1.369,0-2.738-.018c-.113,0-.163.029-.156.146,0,.063,0,.125,0,.188q0,3.306,0,6.612a2.444,2.444,0,0,1-.056.559.906.906,0,0,1-1.04.756.884.884,0,0,1-.815-.86c-.033-.455-.028-.913-.029-1.37q0-5.605,0-11.21c0-.233-.068-.27-.278-.276-1.956-.056-3.912-.022-5.868-.025-.221,0-.268.066-.268.284q.008,14.8,0,29.593c0,.178.009.271.229.269,1.939-.011,3.877-.007,5.816-.01.367,0,.367-.007.367-.377q0-4.1,0-8.2c0-1.38.008-2.759.012-4.139a.92.92,0,0,1,.274-.752.881.881,0,0,1,.948-.263,1.1,1.1,0,0,1,.7,1.008,2.573,2.573,0,0,1,.006.3q0,6.437.006,12.875a3.027,3.027,0,0,1-.331,1.388q-1.889,3.812-3.768,7.629a5.154,5.154,0,0,1-.291.539.9.9,0,0,1-1.506.065,2.107,2.107,0,0,1-.218-.365q-2-4.039-4-8.08a2.332,2.332,0,0,1-.211-1.065q0-11.209,0-22.417c0-.842-.006-1.684,0-2.527,0-.192-.035-.262-.24-.262q-9.7.009-19.405,0Zm24.791-7.5h0c1,0,2,0,3,0,.178,0,.237-.043.236-.237-.006-1.145.007-2.291,0-3.436a1.662,1.662,0,0,0-1.711-1.7c-.278.008-.556.019-.833.019-.781,0-1.563-.016-2.344,0a1.54,1.54,0,0,0-1.528,1.59c0,1.181,0,2.362,0,3.544,0,.171.036.226.215.224.99-.011,1.98-.005,2.97-.005m0,39.441.664-1.334q.944-1.9,1.891-3.795c.074-.148.033-.194-.112-.195s-.261-.008-.391-.007c-1.5.017-3.007.03-4.51-.011-.14,0-.18.027-.1.166.1.186.193.381.288.572l2.273,4.6" transform="translate(0 0)"/>
        <path id="Trazado_714893" data-name="Trazado 714893" d="M84.436,176.892h-15.6a3.06,3.06,0,0,1-.364-.014,1.026,1.026,0,0,1-1.053-1.169c-.032-2.033-.044-4.067.006-6.1a.955.955,0,0,1,1-1.055c.5-.027,1.008-.016,1.512-.017,1.721,0,3.443-.008,5.164,0,.233,0,.306-.065.3-.32-.01-1.819,0-3.637,0-5.456a.962.962,0,0,1,.806-.94,2.3,2.3,0,0,1,.338-.021H84.1c.818,0,1.177.345,1.213,1.19.02.456.022.914.011,1.371,0,.188.04.243.229.243,2.06-.005,4.121,0,6.181,0,.208,0,.418,0,.625.02a.915.915,0,0,1,.912.89,5.752,5.752,0,0,1,.035.912c.005.618.009,1.236,0,1.855,0,.194.046.265.247.264q3.13-.012,6.259-.008c.156,0,.313,0,.469.01a.952.952,0,0,1,.991.93,2.275,2.275,0,0,1,.022.348q0,2.9,0,5.806a2.259,2.259,0,0,1-.042.426.988.988,0,0,1-.926.834c-.1.008-.209,0-.313,0H84.436m-1.08-7.539h-.006c0-1.765,0-3.53,0-5.295,0-.191-.019-.277-.247-.276-1.808.008-3.616,0-5.424-.006-.351,0-.36,0-.359.357q.007,5.281.016,10.562c0,.153.056.18.183.18q2.842-.008,5.685-.008c.132,0,.154-.035.153-.165q-.008-2.674,0-5.348m1.962,1.356h-.006c0,1.317,0,2.634,0,3.951,0,.16.028.235.2.217a4.52,4.52,0,0,1,.469-.011c1.7,0,3.408-.006,5.112,0,.179,0,.258-.026.258-.246q-.014-3.884,0-7.767c0-.186-.011-.287-.243-.285q-2.764.016-5.529,0c-.212,0-.259.067-.258.273.008,1.29,0,2.58,0,3.87m-12.943,4.15c.938,0,1.876,0,2.813,0,.164,0,.207-.041.211-.227.029-1.306.013-2.612.008-3.918,0-.139-.026-.189-.167-.189q-2.827.008-5.653,0c-.175,0-.214.06-.213.233.007,1.28.01,2.559,0,3.839,0,.226.073.262.268.26.912-.01,1.823,0,2.735,0m23.958-4.325c-.93,0-1.86,0-2.79,0-.169,0-.244.02-.243.229q.015,1.934,0,3.869c0,.23.1.239.268.238q2.777-.006,5.553,0c.157,0,.21-.031.209-.2q-.012-1.961,0-3.923c0-.164-.036-.21-.2-.208-.93.01-1.86,0-2.789,0" transform="translate(-53.301 -126.912)"/>
        <path id="Trazado_714894" data-name="Trazado 714894" d="M72.691,90.2q0-2.754,0-5.509a1.519,1.519,0,0,1,.059-.557.9.9,0,0,1,.778-.658c.216-.018.433-.029.65-.03,3.5,0,7.006.01,10.509-.015a1.107,1.107,0,0,1,1.175,1.215q0,5.576,0,11.152A1.074,1.074,0,0,1,84.671,97L74.241,97q-.221,0-.443-.01a1.076,1.076,0,0,1-1.116-1.2q.006-2.714.01-5.428V90.2Zm1.941.038h.007c0,1.5,0,2.992,0,4.488,0,.19.035.265.244.262.843-.013,1.686,0,2.53,0,2.051,0,4.1-.017,6.154-.015.211,0,.326.011.326-.276q-.014-4.488,0-8.977c0-.219-.056-.288-.276-.287q-4.355.011-8.71,0c-.2,0-.276.039-.275.263.009,1.514,0,3.028,0,4.541" transform="translate(-57.483 -65.442)"/>
        <path id="Trazado_714895" data-name="Trazado 714895" d="M265.058,71.094q0-5.065,0-10.129c0-.125,0-.251.01-.376A.969.969,0,0,1,266,59.577a1.058,1.058,0,0,1,1.007,1c.007.08,0,.161,0,.242q0,10.317,0,20.634a1.8,1.8,0,0,1-.106.684.9.9,0,0,1-.926.594.935.935,0,0,1-.869-.758,7.52,7.52,0,0,1-.052-1.34q-.007-4.769,0-9.538" transform="translate(-209.628 -46.732)"/>
        <path id="Trazado_714896" data-name="Trazado 714896" d="M159.263,110.136h6.415a1.083,1.083,0,0,1,.7.167,1.038,1.038,0,0,1,.411,1.083.9.9,0,0,1-.773.732,1.89,1.89,0,0,1-.465.049q-6.31.005-12.62,0a2.444,2.444,0,0,1-.466-.043.9.9,0,0,1-.788-.973.934.934,0,0,1,.786-.982,2.292,2.292,0,0,1,.44-.034q3.181,0,6.363,0" transform="translate(-119.957 -86.391)"/>
        <path id="Trazado_714897" data-name="Trazado 714897" d="M159.233,89.9q-3.286,0-6.572,0a.969.969,0,0,1-.95-1.33.93.93,0,0,1,.892-.655,2.765,2.765,0,0,1,.417-.013h12.466a2.358,2.358,0,0,1,.595.057.894.894,0,0,1,.714,1.075.947.947,0,0,1-.937.866c-.687,0-1.373,0-2.06,0h-4.564" transform="translate(-119.944 -68.946)"/>
        <path id="Trazado_714898" data-name="Trazado 714898" d="M156.49,134.478c-1.285,0-2.571.011-3.856,0a.978.978,0,0,1-.886-1.43.911.911,0,0,1,.8-.553,6.531,6.531,0,0,1,.884-.025q3.232,0,6.463,0a2.179,2.179,0,0,1,.7.069.986.986,0,0,1,.7,1.032.943.943,0,0,1-.951.913c-1.285.012-2.571,0-3.857,0v-.008" transform="translate(-119.94 -103.905)"/>
        <path id="Trazado_714899" data-name="Trazado 714899" d="M94.9,103.735a1.07,1.07,0,0,1-.327.711c-1.022,1.062-2.044,2.124-3.077,3.175a.911.911,0,0,1-1.427,0q-.769-.766-1.512-1.558a1.011,1.011,0,0,1,.514-1.714.784.784,0,0,1,.72.221c.265.272.534.539.8.814.152.161.258.164.423-.012q1.106-1.178,2.244-2.323a.872.872,0,0,1,1.07-.232,1.013,1.013,0,0,1,.577.915" transform="translate(-69.786 -80.577)"/>
      </g>
    </g>
  </g>
</svg>
