<svg xmlns="http://www.w3.org/2000/svg" xmlns:xlink="http://www.w3.org/1999/xlink" width="100" height="100" viewBox="0 0 100 100">
  <defs>
    <clipPath id="clip-path">
      <rect id="Rectángulo_352985" data-name="Rectángulo 352985" width="65" height="65" transform="translate(0 -0.278)" fill="none"/>
    </clipPath>
  </defs>
  <g id="Grupo_1017232" data-name="Grupo 1017232" transform="translate(-200 -6175)">
    <circle id="Elipse_5682" data-name="Elipse 5682" cx="50" cy="50" r="50" transform="translate(200 6175)" fill="#ff9393"/>
    <g id="Grupo_1003072" data-name="Grupo 1003072" transform="translate(217 6192.278)">
      <g id="Grupo_1003071" data-name="Grupo 1003071" clip-path="url(#clip-path)">
        <path id="Trazado_714914" data-name="Trazado 714914" d="M23.746,150.179c.106-.637.214-1.248.308-1.861.05-.322.075-.649.114-.973.073-.609.146-1.218.225-1.826a15.78,15.78,0,0,1,.233-1.618,3.487,3.487,0,0,1,1.738-2.361c1.107-.607,2.213-1.215,3.325-1.81a1.111,1.111,0,0,1,.5-.114c1.27-.011,2.541-.022,3.812,0a2.154,2.154,0,0,1,.944.21c1.118.585,2.231,1.185,3.316,1.838a3.5,3.5,0,0,1,1.643,3c.031.526.145,1.045.218,1.568.071.5.139,1.005.208,1.508.055.4.114.8.163,1.194.04.325.074.651.1.978.012.158.019.291.212.29,1,0,2,0,3.006-.007.016,0,.032-.016.069-.035-.094-.5-.2-1-.281-1.512-.063-.376-.1-.757-.158-1.135-.074-.49-.167-.977-.235-1.468-.078-.57-.162-1.142-.2-1.717a1.017,1.017,0,0,1,.821-1.126,1,1,0,0,1,1.214.886c.105.551.14,1.119.226,1.675.081.519.2,1.031.282,1.549.127.774.241,1.551.36,2.327.026.171.052.342.082.538H48.33c0-.661,0-1.334,0-2.007a2.785,2.785,0,0,1,.05-.541,1.087,1.087,0,0,1,1.233-.953c1.136-.028,2.273-.018,3.409,0a1.4,1.4,0,0,0,.83-.252c1.389-.923,2.786-1.833,4.171-2.762a10.026,10.026,0,0,0,.928-.747,3.37,3.37,0,0,1,2.567-.9,3.258,3.258,0,0,1,2.812,2.824,12.762,12.762,0,0,1,.1,1.533c.008,3.521,0,7.041.007,10.562a1.381,1.381,0,0,1-.887,1.486.257.257,0,0,0-.193.291q.008,5.09,0,10.18v.134h1.063v2.344H.02v-2.34h1.05v-8.21a1.226,1.226,0,0,1-1.017-1,1.558,1.558,0,0,1-.042-.278c0-4.727-.031-9.454.014-14.18a3.31,3.31,0,0,1,3.11-3.35,3.238,3.238,0,0,1,2.211.791,35.6,35.6,0,0,0,3.586,2.51c.635.436,1.287.843,1.936,1.255a.629.629,0,0,0,.319.1c1.137.007,2.273,0,3.409.007a3.9,3.9,0,0,1,.66.061,1,1,0,0,1,.8.963c.035.711.039,1.423.056,2.135,0,.115,0,.23,0,.357H18.42c.109-.628.225-1.253.325-1.881s.182-1.247.272-1.871.172-1.253.274-1.876a4.086,4.086,0,0,1,.2-.753.971.971,0,0,1,1.127-.609,1,1,0,0,1,.81,1.056c-.029.526-.1,1.05-.174,1.573-.11.8-.231,1.588-.356,2.38-.088.559-.191,1.115-.287,1.673-.016.093-.029.188-.047.3Zm32.695,18.142a4.707,4.707,0,0,0-.062-.48c-.241-1.044-.49-2.087-.733-3.13-.25-1.071-.5-2.142-.739-3.217a2.762,2.762,0,0,1-.1-.872,1.178,1.178,0,0,1,.764-.954c1.174-.542,2.343-1.1,3.515-1.646,1.065-.5,2.13-.995,3.206-1.5v-.313q0-4.721,0-9.442c0-.5-.026-.991-.048-1.486a.931.931,0,0,0-.549-.863,1.23,1.23,0,0,0-1.374.238c-.354.282-.678.613-1.048.862-1.423.956-2.874,1.86-4.283,2.838a3.423,3.423,0,0,1-2.259.671c-.669-.044-1.342-.009-2.012-.008-.077,0-.153.009-.219.013V150.2c1.171,0,2.325-.02,3.478.01a2.31,2.31,0,0,0,1.226-.329c1.151-.644,2.3-1.285,3.47-1.891a1.063,1.063,0,0,1,.718-.034c.51.138.749.6.752,1.353.006,1.392.008,2.785,0,4.177a1.419,1.419,0,0,1-.647,1.315c-.4.242-.773.525-1.16.789q-3.124,2.133-6.251,4.262c-.152.1-.182.192-.09.373.594,1.159,1.175,2.326,1.763,3.488q1.2,2.368,2.4,4.734l.353.637.114-.06-.186-.7M45.1,157.266H38.674a1.476,1.476,0,0,1-.012.165,1.225,1.225,0,0,0-.048.192,3.474,3.474,0,0,1-.9,2.306c-.351.4-.726.785-1.074,1.192a.981.981,0,0,0-.22.448c-.06.358-.075.725-.11,1.088s-.072.753-.118,1.127c-.083.664-.178,1.327-.26,1.992-.051.41-.082.822-.132,1.232-.082.663-.173,1.324-.263,2H45.1Zm-25.751,0V169.01h9.522c-.075-.631-.147-1.24-.218-1.848-.063-.543-.126-1.087-.184-1.631-.044-.422-.073-.845-.121-1.266-.1-.876-.2-1.752-.318-2.626a.951.951,0,0,0-.179-.463c-.376-.447-.783-.862-1.162-1.305a3.455,3.455,0,0,1-.79-1.522c-.076-.351-.1-.715-.155-1.082Zm-6.876,11.761a2.806,2.806,0,0,0-.049-.414c-.324-1.185-.658-2.366-.981-3.551-.223-.82-.428-1.646-.65-2.467q-.4-1.462-.813-2.917c-.06-.208-.126-.483-.272-.581-1.612-1.085-3.241-2.14-4.864-3.2a1.186,1.186,0,0,1-.533-1.015c-.017-1.942-.014-3.883,0-5.825a1.125,1.125,0,0,1,.777-1.126,1.318,1.318,0,0,1,1,.191c1.155.635,2.307,1.277,3.468,1.9a1.416,1.416,0,0,0,.628.171c1.181.016,2.362.008,3.543.007.077,0,.155-.008.229-.012v-1.164c-.98,0-1.945-.013-2.91.006a1.807,1.807,0,0,1-1.054-.335q-1.812-1.2-3.621-2.4a13.348,13.348,0,0,1-2.2-1.608,1.4,1.4,0,0,0-.467-.276c-.871-.356-1.562.273-1.556,1.2.031,4.3.016,8.591.008,12.886,0,.239.067.347.272.418.937.325,1.871.663,2.805,1,.754.272,1.506.552,2.261.821a1.441,1.441,0,0,1,1.1,1.069c.143.638.319,1.267.481,1.9q.469,1.829.94,3.658c.121.47.24.94.382,1.4.033.106.151.253.233.256.606.022,1.213.012,1.854.012M49.4,152.569H15.057v2.32H49.4ZM33.459,169.028a4.155,4.155,0,0,1,0-.473c.084-.674.185-1.346.265-2.021.1-.822.179-1.646.269-2.469q.164-1.506.33-3.012a2.061,2.061,0,0,1,.549-1.283c.44-.446.856-.92,1.282-1.382a1.456,1.456,0,0,0,.362-1.108H27.946a1.254,1.254,0,0,0,.392,1.166c.42.455.854.9,1.256,1.368a1.687,1.687,0,0,1,.4.707c.12.608.164,1.233.237,1.851.037.315.065.631.1.946.052.417.121.833.166,1.251.062.583.1,1.169.163,1.753.084.815.18,1.628.263,2.442.016.155.051.263.215.263h2.313m-5.532-18.84c0-1.54-.021-3.05.008-4.559.017-.934.485-1.291,1.147-1.3,2.057-.032,4.115-.02,6.173-.011a1.073,1.073,0,0,1,1.175.84,2.719,2.719,0,0,1,.084.657c.008,1.363,0,2.726,0,4.089v.279h2c-.032-.274-.055-.531-.092-.785-.078-.538-.171-1.074-.242-1.613-.055-.419-.075-.844-.13-1.263-.073-.551-.164-1.1-.25-1.648a2.161,2.161,0,0,0-.146-.723,1.758,1.758,0,0,0-.6-.6c-.84-.493-1.694-.959-2.555-1.409a1.645,1.645,0,0,0-.716-.175c-1.073-.018-2.147-.01-3.22-.005a.774.774,0,0,0-.358.06c-1.045.566-2.092,1.132-3.122,1.731a.919.919,0,0,0-.372.548c-.146.7-.25,1.408-.346,2.117-.135,1-.249,2-.37,3-.03.252-.051.506-.077.768Zm-15.073,2.363c-1.011,0-2.022.006-3.033-.006a1.3,1.3,0,0,1-.557-.13c-.558-.283-1.1-.595-1.654-.894-.38-.206-.761-.409-1.161-.623,0,1.052.006,2.071,0,3.09a.451.451,0,0,0,.235.439c1.413.918,2.813,1.858,4.233,2.761a2,2,0,0,1,.953,1.321c.223.972.507,1.927.765,2.889.055.206.107.413.16.62l.063-.008ZM61.2,169.028v-9.5l-4.16,1.946c.106.381.223.742.308,1.113.215.931.415,1.867.623,2.8.152.683.3,1.367.46,2.049.1.442.2.885.323,1.32.03.1.143.255.221.258.74.02,1.48.012,2.225.012m-52.947-.011-.667-2.548c-.289-1.1-.582-2.206-.862-3.312a.448.448,0,0,0-.289-.374c-.341-.115-.68-.237-1.018-.36-.719-.262-1.437-.526-2.175-.8v7.391Zm6.8-.006h2.117V157.266H15.057Zm32.215,0h2.117V157.266H47.272Zm4.288-11.486c.074-.047.111-.069.148-.094,1.843-1.268,3.67-2.565,5.538-3.786a1.349,1.349,0,0,0,.76-1.482A9.113,9.113,0,0,1,58,150.9c-.528.289-1.014.553-1.5.82-.342.189-.68.386-1.024.571a2.782,2.782,0,0,1-1.394.266c-.837-.009-1.674,0-2.519,0Zm-21.479-7.344h4.274v-3.5H30.081Zm21.53,14.027-.043.017v4.785h2.48l-2.436-4.8" transform="translate(0 -106.649)"/>
        <path id="Trazado_714915" data-name="Trazado 714915" d="M171.756,4.711h.257c1.235,0,2.47-.022,3.7.008a3.286,3.286,0,0,1,2.307.8,3.51,3.51,0,0,1,1.168,2.644c.016,2.222.054,4.444.043,6.665a4.339,4.339,0,0,1-.528,2.367,3.8,3.8,0,0,1-1.61,1.425c0,1.189,0,2.375,0,3.561a1.2,1.2,0,0,1-.719,1.244,1.024,1.024,0,0,1-1.034-.175c-.63-.463-1.259-.929-1.891-1.391-1.277-.935-2.55-1.877-3.838-2.794a1.284,1.284,0,0,0-.689-.222c-1.181-.022-2.362.008-3.543-.015a3.181,3.181,0,0,1-2.948-1.982,10.044,10.044,0,0,1-.35-.961c-.641.465-1.281.926-1.918,1.393-.542.4-1.079.8-1.621,1.2a1.236,1.236,0,0,1-.987.33c-.579-.131-.835-.567-.855-1.293-.032-1.107-.012-2.216,0-3.324a.37.37,0,0,0-.217-.4,3.285,3.285,0,0,1-1.71-2.037,5.471,5.471,0,0,1-.214-1.471c-.021-2.294-.046-4.59.005-6.883a3.369,3.369,0,0,1,2.563-3.28A6.557,6.557,0,0,1,158.34.009c3.266-.009,6.532-.014,9.8,0A3.345,3.345,0,0,1,170.2.567a3.477,3.477,0,0,1,1.483,2.879c.008.407.049.814.078,1.266m-.027,2.354c0,.93.019,1.831-.007,2.73a8.7,8.7,0,0,1-.165,1.75,3.144,3.144,0,0,1-2.159,2.4,6.726,6.726,0,0,1-2.143.18c-.859,0-1.718,0-2.576,0-.339,0-.466.149-.467.51,0,.245-.006.49,0,.735a1.093,1.093,0,0,0,1.043,1.113c1.333-.018,2.666,0,4-.006a1.8,1.8,0,0,1,1.1.355q2.158,1.588,4.322,3.165c.082.06.166.118.262.187,0-.059.007-.079.007-.1,0-.706.006-1.412,0-2.118-.008-.909.342-1.344,1.031-1.468.052-.009.1-.011.156-.021a.977.977,0,0,0,.865-.666,2.346,2.346,0,0,0,.093-.65q.01-3.074,0-6.148c0-.319-.024-.639-.052-.957-.067-.745-.474-.975-.961-.985-1.439-.029-2.879-.01-4.353-.01m-12.886,8.429c1.052-.766,2.078-1.507,3.094-2.264a.5.5,0,0,0,.123-.349c.008-1.471,0-2.942.006-4.413a4.042,4.042,0,0,1,.29-1.626,3.2,3.2,0,0,1,2.9-2.116c1.348-.063,2.7-.014,4.052-.014h.3c-.026-.5-.017-.965-.084-1.421-.1-.7-.433-.919-.981-.922-3.615-.02-7.229-.014-10.844-.006a1.046,1.046,0,0,0-1,1.117q0,3.589,0,7.178a1.044,1.044,0,0,0,.7,1.049,3.326,3.326,0,0,0,.5.121.987.987,0,0,1,.872.813,3.374,3.374,0,0,1,.075.66c.009.721,0,1.443,0,2.194m10.738-8.426c-1.5,0-2.971-.02-4.443.011a1,1,0,0,0-.925,1.1c-.007.607,0,1.215,0,1.822v1.771c1.5,0,2.971.032,4.442-.016.585-.019.9-.411.919-1.127.03-1.174.008-2.349.008-3.56" transform="translate(-121.251 0)"/>
        <path id="Trazado_714916" data-name="Trazado 714916" d="M13.215,29.095a3.392,3.392,0,0,1-3.1-2.63A4.043,4.043,0,0,1,10,25.379c-.008-2.3-.019-4.608.007-6.912a3.414,3.414,0,0,1,2.81-3.439,6.278,6.278,0,0,1,.82-.06c4.035,0,8.07-.01,12.1,0a3.337,3.337,0,0,1,1.964.5,3.428,3.428,0,0,1,1.564,2.942c.022,2.28.054,4.56.048,6.84a3.8,3.8,0,0,1-1.263,3.066,2.725,2.725,0,0,1-1.737.706c-1.651.023-3.3.034-4.954.068a1.147,1.147,0,0,0-.623.195c-1.863,1.348-3.715,2.714-5.571,4.074a1.415,1.415,0,0,1-.9.378.981.981,0,0,1-.99-.852,2.5,2.5,0,0,1-.055-.514c0-1,0-2,0-3v-.282m2.148,1.321c.032.012.044.021.048.018q2.225-1.635,4.448-3.272a1.78,1.78,0,0,1,1.074-.43c1.655.01,3.31,0,4.965.014.882.006,1.276-.4,1.276-1.363q0-3.133,0-6.266c0-.26-.036-.52-.05-.781A.96.96,0,0,0,26.1,17.324q-6.455-.013-12.91-.005a1.085,1.085,0,0,0-1.051,1.16c.01,2.353.018,4.707-.005,7.06a1.141,1.141,0,0,0,1.106,1.2,4.549,4.549,0,0,1,.831,0c.632.055,1.028.18,1.2.837a2.721,2.721,0,0,1,.085.657c.01.731,0,1.462,0,2.183" transform="translate(-7.838 -11.431)"/>
        <path id="Trazado_714917" data-name="Trazado 714917" d="M267.9,109.532a4.446,4.446,0,0,1-4.291,4.725,4.719,4.719,0,0,1-.3-9.347,4.406,4.406,0,0,1,4.586,4.622m-6.39-.013a2.254,2.254,0,0,0,2.162,2.413,2.227,2.227,0,0,0,2.129-2.352,2.154,2.154,0,1,0-4.291-.061" transform="translate(-203.513 -80.138)" fill="#010101"/>
        <path id="Trazado_714918" data-name="Trazado 714918" d="M133.951,94.987a4.4,4.4,0,0,1,4.3,4.33c.128,3.078-2.018,5.051-4.379,5.01a4.537,4.537,0,0,1-4.153-4.794c.022-2.392,1.913-4.614,4.23-4.547m-2.093,4.6A2.253,2.253,0,0,0,134.02,102a2.227,2.227,0,0,0,2.129-2.352,2.154,2.154,0,1,0-4.291-.06" transform="translate(-101.783 -72.564)" fill="#010101"/>
        <path id="Trazado_714919" data-name="Trazado 714919" d="M4.319,104.958a4.4,4.4,0,0,1,4.3,4.333c.127,3.093-2.041,5.066-4.408,5.007a4.54,4.54,0,0,1-4.123-4.8c.023-2.389,1.912-4.612,4.232-4.544m.019,7a2.37,2.37,0,0,0,.1-4.715,2.365,2.365,0,0,0-.1,4.715" transform="translate(-0.067 -80.181)" fill="#010101"/>
        <rect id="Rectángulo_352982" data-name="Rectángulo 352982" width="2.126" height="2.32" transform="translate(15.057 9.436)"/>
        <rect id="Rectángulo_352983" data-name="Rectángulo 352983" width="2.126" height="2.32" transform="translate(10.762 9.436)"/>
        <rect id="Rectángulo_352984" data-name="Rectángulo 352984" width="2.117" height="2.33" transform="translate(6.466 9.425)"/>
      </g>
    </g>
  </g>
</svg>
