<svg xmlns="http://www.w3.org/2000/svg" xmlns:xlink="http://www.w3.org/1999/xlink" width="267.972" height="194.882" viewBox="0 0 267.972 194.882">
  <defs>
    <clipPath id="clip-path">
      <rect id="Rectángulo_351105" data-name="Rectángulo 351105" width="267.972" height="194.882" fill="none"/>
    </clipPath>
  </defs>
  <g id="Grupo_997542" data-name="Grupo 997542" transform="translate(-246.228 -3163.567)">
    <g id="Grupo_997541" data-name="Grupo 997541" transform="translate(246.228 3163.567)">
      <g id="Grupo_997540" data-name="Grupo 997540" clip-path="url(#clip-path)">
        <path id="Trazado_710057" data-name="Trazado 710057" d="M263.128,633.442c-38.763,16.065-97.364,19.591-172.911,18.312S-.173,637.9,0,627.607s32.456-20.418,107.245-13.38c69.347,6.527,185.9,6.773,155.881,19.215" transform="translate(0 -457.112)" fill="#84b9b9"/>
        <rect id="Rectángulo_351098" data-name="Rectángulo 351098" width="238.499" height="137.237" transform="translate(17.676 21.889)" fill="#aa917c"/>
        <path id="Trazado_710058" data-name="Trazado 710058" d="M459.3,538.838a11.1,11.1,0,0,1-7.363,4.7,7.983,7.983,0,0,0,2.289-1.7,2.712,2.712,0,0,0,.578-2.667,13.628,13.628,0,0,1-8.853,3.8,5.864,5.864,0,0,0,1.622-3.448,24.911,24.911,0,0,1-7.358,3.043c-1.119.264-2.524.348-3.187-.592a2.826,2.826,0,0,1-5.321.413,1.149,1.149,0,0,0-.378-.58c-.514-.305-.973.435-1.388.865a2.179,2.179,0,0,1-2.233.4,6.411,6.411,0,0,1-2-1.287c.124.781-1.02,1.226-1.71.838a4.169,4.169,0,0,1-1.378-1.886.877.877,0,0,0-.37-.427c-.428-.193-.836.327-.948.783s-.191,1.018-.625,1.2l-3.339-3.137a.8.8,0,0,0-.5-.277c-.606-.008-.417.933-.363,1.536a1.974,1.974,0,0,1-2.054,1.88,5.2,5.2,0,0,1-2.854-1.161c-.912-.627-2.259-1.259-2.985-.425a5.655,5.655,0,0,0-.554,1.166c-.6,1.14-2.247,1.316-3.413.767a11.192,11.192,0,0,1-2.91-2.508,4.722,4.722,0,0,0-3.344-1.7q.592,2.116,1.1,4.254c.059.251.1.557-.089.73a.743.743,0,0,1-.654.068l-3.348-.712a9.021,9.021,0,0,1,2.206,3.944l-3.247.491c-.223.6.473,1.127,1.076,1.344s1.351.52,1.384,1.161a2.427,2.427,0,0,0-2.027,2.277,32.748,32.748,0,0,0,9.253,3.074,65.406,65.406,0,0,0,8.232.715l19.074.849c3.609.161,7.225.322,10.832.123,9.043-.5,17.369-8.609,17.15-17.918" transform="translate(-294.554 -402.238)" fill="#f7ca68"/>
        <path id="Trazado_710059" data-name="Trazado 710059" d="M524.64,545.39a16.74,16.74,0,0,0,1.48-6.767v-.04q0-.205-.012-.406c0-.02,0-.039,0-.059q-.01-.192-.026-.38c0-.021,0-.043-.006-.064q-.017-.186-.04-.368c0-.02,0-.04-.008-.06q-.025-.189-.058-.373c0-.012,0-.025-.006-.038a7.453,7.453,0,0,0-.3-1.155l-.014-.036q-.055-.154-.117-.3c-.013-.03-.026-.058-.039-.087-.035-.078-.071-.156-.109-.231-.018-.035-.036-.069-.055-.1-.036-.067-.072-.132-.11-.2-.022-.036-.044-.072-.067-.107q-.057-.089-.116-.173c-.025-.035-.05-.07-.076-.1-.04-.053-.083-.1-.125-.156-.027-.032-.055-.065-.083-.1-.045-.049-.092-.1-.139-.143-.029-.028-.057-.058-.086-.085-.053-.048-.108-.093-.163-.138-.027-.021-.052-.044-.079-.065a3.1,3.1,0,0,0-.26-.177c-.064-.039-.131-.074-.2-.107s-.122-.057-.184-.083h0c-2.689-1.114-7.753,1.385-10.332,5.648a12.569,12.569,0,0,0-1.294,2.831h0c-.051.167-.1.332-.136.5-.009.036-.017.071-.025.107q-.047.2-.084.4c-.006.033-.013.066-.019.1-.028.16-.052.318-.071.475,0,.012,0,.024,0,.036-.016.143-.028.284-.036.423,0,.036,0,.073-.006.109q-.009.2-.007.392c0,.019,0,.039,0,.059,0,.149.011.3.023.44,0,.027.006.054.008.081.011.118.026.235.044.351.005.033.01.066.015.1a5.957,5.957,0,0,0,.2.808c.01.031.02.061.031.092q.054.159.116.314c.01.025.02.051.03.076.053.125.109.248.171.368l.025.047c.054.1.112.205.172.305l.053.086c.064.1.131.2.2.3l.026.036c.08.109.166.214.255.318l.059.066q.109.124.228.242l.069.069c.1.1.2.191.31.282h0a6.46,6.46,0,0,0,.825.591c3.351,2.027,8.022.83,10.159-3.943" transform="translate(-382.21 -398.201)" fill="#f08f4a"/>
        <path id="Trazado_710060" data-name="Trazado 710060" d="M582.926,549.384a16.737,16.737,0,0,0-6.887.742l-.038.013q-.194.068-.381.14l-.055.021q-.179.071-.352.145l-.059.026q-.171.075-.336.155l-.054.026q-.172.084-.335.173l-.034.018a7.434,7.434,0,0,0-1,.652l-.03.025q-.128.1-.247.206l-.071.065c-.063.058-.125.117-.184.176-.028.028-.054.056-.081.085-.052.055-.1.11-.151.167-.028.032-.054.065-.081.1-.044.054-.086.109-.127.165q-.038.052-.075.105c-.038.055-.073.111-.108.168-.022.036-.044.073-.065.109-.033.058-.063.118-.092.177-.018.036-.037.072-.053.109-.029.066-.054.132-.079.2-.012.032-.026.063-.036.1a3.119,3.119,0,0,0-.085.3c-.016.073-.029.147-.038.222s-.015.133-.02.2h0c-.2,2.9,3.772,6.914,8.633,8.009a12.59,12.59,0,0,0,3.1.329h0c.174,0,.345-.015.513-.028l.11-.01q.2-.019.4-.046l.1-.013c.16-.024.318-.051.473-.083l.035-.008c.14-.03.277-.064.413-.1l.1-.029c.127-.036.251-.075.373-.118l.056-.018q.21-.075.41-.161l.075-.034q.163-.072.319-.153l.089-.046a5.919,5.919,0,0,0,.7-.441l.077-.058q.134-.1.261-.21l.062-.053q.153-.134.3-.279l.036-.039c.081-.084.159-.171.235-.261l.065-.077c.076-.093.149-.188.218-.285l.026-.036c.078-.111.151-.225.221-.342.015-.025.029-.051.044-.077q.083-.143.158-.292c.015-.029.03-.058.044-.088.06-.125.118-.252.169-.383h0a6.487,6.487,0,0,0,.3-.97c.86-3.82-1.756-7.871-6.96-8.385" transform="translate(-427.138 -410.357)" fill="#f08f4a"/>
        <path id="Trazado_710061" data-name="Trazado 710061" d="M451.187,535.463a16.737,16.737,0,0,0-2.1-6.6l-.021-.034q-.1-.176-.213-.346l-.032-.05q-.1-.161-.212-.316l-.037-.053c-.072-.1-.145-.2-.219-.3l-.036-.048c-.078-.1-.157-.2-.237-.294l-.024-.029a7.448,7.448,0,0,0-.838-.849l-.03-.025q-.124-.105-.251-.2l-.078-.056c-.069-.051-.139-.1-.209-.146-.033-.022-.066-.042-.1-.062-.064-.04-.129-.078-.193-.115l-.111-.06c-.062-.032-.124-.063-.187-.092l-.118-.052c-.062-.026-.124-.05-.186-.072-.04-.014-.08-.029-.12-.042-.064-.021-.128-.038-.192-.054-.039-.01-.078-.022-.117-.03-.07-.015-.14-.027-.21-.038-.034-.005-.067-.012-.1-.016-.1-.013-.209-.021-.314-.023-.075,0-.15,0-.225.007s-.134.012-.2.021h0c-2.886.379-6.023,5.075-6.126,10.056a12.586,12.586,0,0,0,.295,3.1h0c.039.17.083.335.13.5l.032.105q.059.2.125.385c.011.032.022.064.033.095.055.153.114.3.176.447l.015.033c.057.132.118.259.18.385l.05.1q.091.176.19.343l.029.051q.115.191.24.369l.048.066q.1.145.214.282l.063.078a5.972,5.972,0,0,0,.573.6l.073.065q.126.111.257.213l.064.051q.162.123.332.233l.046.028q.148.094.3.178l.089.048c.106.056.214.108.323.157l.04.019q.186.081.379.148l.084.028q.157.053.318.1l.095.026c.135.034.271.065.409.09h0a6.435,6.435,0,0,0,1.01.1c3.915.081,7.363-3.29,6.828-8.492" transform="translate(-327.316 -392.546)" fill="#f08f4a"/>
        <path id="Trazado_710062" data-name="Trazado 710062" d="M400.309,564.64q.1-1.264.205-2.528a10.72,10.72,0,0,1,5.1,1.941l.135-3.683a24.1,24.1,0,0,1,7.486,2.844l.759-5.966c3.041,1.291,5.2,3.915,8.227,5.228s7.831.182,7.8-2.864c.66,2.657,4.355,4.276,7.06,3.094l.736-2.233a4.246,4.246,0,0,0,4.167,2.543A4.113,4.113,0,0,0,445.75,560l1.4,2.766c2.287.829,5.21-.465,5.9-2.612q-.028,1.579-.055,3.158a13,13,0,0,0,10.034-4.144c1.067,4.014-2.06,8.173-6.111,10.055s-8.788,2-13.339,1.979c-11.109-.06-24.708.217-35.72-1.112a108.412,108.412,0,0,1-14.085-3.046c-7.033-2.51,3.016-5.646,6.54-2.405" transform="translate(-292.342 -416.294)" fill="#ffe09c"/>
        <path id="Trazado_710063" data-name="Trazado 710063" d="M449.179,533.267a.241.241,0,0,1-.224-.331,4.984,4.984,0,0,1,2.423-2.61.241.241,0,1,1,.169.451,4.562,4.562,0,0,0-2.145,2.338.241.241,0,0,1-.223.151" transform="translate(-335.38 -396.17)" fill="#ffe09c"/>
        <path id="Trazado_710064" data-name="Trazado 710064" d="M540.112,538.154a.241.241,0,0,1-.166-.415,4.983,4.983,0,0,1,3.289-1.368.241.241,0,1,1-.033.481,4.537,4.537,0,0,0-2.923,1.236.24.24,0,0,1-.166.067" transform="translate(-403.312 -400.692)" fill="#ffe09c"/>
        <path id="Trazado_710065" data-name="Trazado 710065" d="M580.747,557.719a.241.241,0,0,1-.166-.415,4.977,4.977,0,0,1,3.289-1.368.241.241,0,1,1-.033.481,4.545,4.545,0,0,0-2.923,1.236.24.24,0,0,1-.166.067" transform="translate(-433.668 -415.308)" fill="#ffe09c"/>
        <path id="Trazado_710066" data-name="Trazado 710066" d="M260.225,471.783a7.181,7.181,0,0,0,1.247,3.57,1.371,1.371,0,0,0,.811.585,1.745,1.745,0,0,0,1.517-.792,2.848,2.848,0,0,0,.548-1.763,2.328,2.328,0,0,0-.242-.982,10.153,10.153,0,0,0-1.23-1.436c-.295-.384-.5-.857-.786-1.245-.316-.421-1.132-1.475-1.7-.77-.464.575-.226,2.306-.165,2.834" transform="translate(-194.315 -350.152)" fill="#e34927"/>
        <path id="Trazado_710067" data-name="Trazado 710067" d="M217.932,427.958c-.38-.366-.975-.478-1.36-.84a1.249,1.249,0,0,1,.379-1.988c1.189-.514,2.693.752,3.821.128.707-.392,1.079-1.449,1.891-1.338.742.1.877,1.075,1.446,1.533a2.511,2.511,0,0,0,2.123.139.975.975,0,0,1,.749.026.706.706,0,0,1,.231.3c.486,1.007,0,2.226.383,3.271.376,1.026,1.525,1.7,1.793,2.76.072.282-6.307-1.257-6.819-1.4a25.769,25.769,0,0,0-3.4-.523c-1.031-.146-.577.2-.811-.662-.139-.515.028-.964-.428-1.4" transform="translate(-161.534 -316.685)" fill="#e34927"/>
        <path id="Trazado_710068" data-name="Trazado 710068" d="M166.912,446.037a8.462,8.462,0,0,0-3.233-3.1,9.5,9.5,0,0,0-9.9-.134,10.739,10.739,0,0,0-2.38,1.966,41.485,41.485,0,0,1-4.985,4.507C133.49,459.237,131.7,466.4,131.7,466.4c-3.046,17.321,22.841,16.75,22.841,16.75,24.173-1.523,20.557-11.04,20.557-11.04,3.426-4.758-4.568-12.372-4.568-12.372-10.469-9.327-5.139-11.04-5.139-11.04Z" transform="translate(-98.199 -329.804)" fill="#c96f4f"/>
        <path id="Trazado_710069" data-name="Trazado 710069" d="M195.724,450.129a2.615,2.615,0,0,1,1.523-.952c-.19,1.142-.761,2.094-.571,3.236.762-.381.571-1.332,1.142-1.713.381,1.142-.761,2.474.571,3.426.381-.761,1.523-.952,1.713-.571a4.648,4.648,0,0,1,.571,3.616c.761-.571.761-1.523,1.333-2.284a23.34,23.34,0,0,1,.38,3.617c.952-.381.761-1.9,1.523-1.9.952.19.952,1.523,1.523,2.474.381-.571.381-1.713.761-1.9.952-.381,1.142,1.332,1.9,1.9a9.548,9.548,0,0,0,.381-2.284c.952.571,1.142,2.094,2.475,2.284a1.664,1.664,0,0,1,.952-1.713c.19-.381.381.571.952.761,0-.571.381-1.142.19-1.713,1.142.19,1.523,1.333,2.284,1.9a1.262,1.262,0,0,1,.454-1.148c-6.766-7.075-2.452-8.464-2.452-8.464l1.523-2.665a8.462,8.462,0,0,0-3.233-3.1,9.5,9.5,0,0,0-9.9-.134,10.734,10.734,0,0,0-2.38,1.967c-.876.936-1.8,1.825-2.76,2.672-.285.883-1.269,1.586-.855,2.69" transform="translate(-146.142 -329.805)" fill="#f08f4a"/>
        <path id="Trazado_710070" data-name="Trazado 710070" d="M170.528,477.359c-1.048-.933-1.935-1.789-2.687-2.576a1.262,1.262,0,0,0-.453,1.149c-.761-.571-1.142-1.713-2.284-1.9.19.571-.19,1.142-.19,1.713-.571-.19-.761-1.142-.952-.761a1.664,1.664,0,0,0-.952,1.713c-1.332-.19-1.523-1.713-2.474-2.284a9.56,9.56,0,0,1-.381,2.284c-.761-.571-.952-2.284-1.9-1.9-.381.19-.381,1.333-.761,1.9-.571-.952-.571-2.284-1.523-2.474-.761,0-.571,1.523-1.523,1.9a23.309,23.309,0,0,0-.381-3.617c-.571.761-.571,1.713-1.332,2.284a4.65,4.65,0,0,0-.571-3.616c-.19-.381-1.332-.19-1.713.571-1.333-.952-.19-2.284-.571-3.426-.571.381-.381,1.333-1.142,1.713-.19-1.142.381-2.094.571-3.236a2.615,2.615,0,0,0-1.523.952c-.414-1.1.57-1.807.855-2.69q-1.082.953-2.225,1.835c-12.923,9.963-14.714,17.129-14.714,17.129-3.046,17.321,22.841,16.75,22.841,16.75,24.173-1.523,20.557-11.04,20.557-11.04,3.426-4.758-4.568-12.372-4.568-12.372" transform="translate(-98.199 -347.422)" fill="#c96f4f"/>
        <path id="Trazado_710071" data-name="Trazado 710071" d="M289.613,535.9a.241.241,0,0,1-.23-.168,13.309,13.309,0,0,0-2.606-5.042l-.02-.022a16.955,16.955,0,0,1-2.128-3.675.241.241,0,0,1,.447-.179,16.8,16.8,0,0,0,2.052,3.547,13.637,13.637,0,0,1,2.713,5.225.242.242,0,0,1-.23.314" transform="translate(-212.621 -393.443)" fill="#382118"/>
        <path id="Trazado_710072" data-name="Trazado 710072" d="M136.254,533.074a.241.241,0,0,1-.218-.137c-1.318-2.76-.422-8.014,6.048-14.483a.241.241,0,1,1,.34.34c-6.3,6.3-7.144,11.444-5.954,13.935a.241.241,0,0,1-.217.345" transform="translate(-101.237 -387.259)" fill="#382118"/>
        <path id="Trazado_710073" data-name="Trazado 710073" d="M225.562,533.256a5.1,5.1,0,0,1,.278.7,5.941,5.941,0,0,1,.165.731,6.439,6.439,0,0,1,.059,1.5,5.96,5.96,0,0,1-.312,1.473,3.611,3.611,0,0,1-.761,1.305c.071-.5.125-.972.178-1.442s.093-.933.136-1.4l.1-1.409c.025-.238.029-.477.061-.72s.04-.487.092-.74" transform="translate(-168.08 -398.37)" fill="#f08f4a"/>
        <path id="Trazado_710074" data-name="Trazado 710074" d="M227.682,473.646c-.079.121-.162.242-.254.357a3.582,3.582,0,0,1-.3.323,2.421,2.421,0,0,1-.774.49,1.81,1.81,0,0,1-.959.108,2.218,2.218,0,0,1-.893-.36,3.867,3.867,0,0,1-1.183-1.364,5.137,5.137,0,0,1-.583-1.647c.314.489.622.962.957,1.4a5.164,5.164,0,0,0,1.127,1.133,1.743,1.743,0,0,0,1.4.3,4.406,4.406,0,0,0,1.461-.745" transform="translate(-166.393 -352.274)" fill="#c96f4f"/>
        <path id="Trazado_710075" data-name="Trazado 710075" d="M267.122,546.155a3.4,3.4,0,0,0,.747-.016c.116-.012.232-.022.353-.03s.245-.01.355-.014a3,3,0,0,0,.587-.054,1.058,1.058,0,0,0,.278-.11.777.777,0,0,0,.272-.254.566.566,0,0,1,.038.463.92.92,0,0,1-.274.411,1.388,1.388,0,0,1-.882.3,2.537,2.537,0,0,1-.409-.027,2.135,2.135,0,0,1-.409-.1,1.422,1.422,0,0,1-.391-.213.813.813,0,0,1-.267-.361" transform="translate(-199.554 -407.649)" fill="#f08f4a"/>
        <path id="Trazado_710076" data-name="Trazado 710076" d="M252.313,526.436c.233-.02.46-.016.673-.036a2.108,2.108,0,0,0,.578-.118,1.008,1.008,0,0,0,.392-.279.5.5,0,0,0,.132-.334l-.053-1.07.721.822a1.293,1.293,0,0,0,.457.329,1.36,1.36,0,0,0,.572.112,1.457,1.457,0,0,0,.611-.165,1.779,1.779,0,0,0,.565-.463,1.256,1.256,0,0,1-.314.766,1.5,1.5,0,0,1-.758.475,1.636,1.636,0,0,1-.932-.034,1.683,1.683,0,0,1-.783-.536l.668-.247a1.127,1.127,0,0,1-.4.845,1.388,1.388,0,0,1-.765.338,1.743,1.743,0,0,1-.743-.095,2.809,2.809,0,0,1-.626-.311" transform="translate(-188.491 -391.904)" fill="#f08f4a"/>
        <path id="Trazado_710077" data-name="Trazado 710077" d="M196.882,547.258a4.473,4.473,0,0,0,.706.215,4.893,4.893,0,0,0,.613.092,5.1,5.1,0,0,0,.62.018,4.661,4.661,0,0,0,.734-.085,1.074,1.074,0,0,1-.557.657,1.578,1.578,0,0,1-1.684-.152,1.076,1.076,0,0,1-.431-.745" transform="translate(-147.081 -408.83)" fill="#f08f4a"/>
        <path id="Trazado_710078" data-name="Trazado 710078" d="M165.218,550.718a4.452,4.452,0,0,0,.633.371,4.913,4.913,0,0,0,.571.23,5.085,5.085,0,0,0,.594.16,4.572,4.572,0,0,0,.729.087,1.065,1.065,0,0,1-.689.51,1.566,1.566,0,0,1-1.6-.536,1.069,1.069,0,0,1-.243-.822" transform="translate(-123.417 -411.415)" fill="#f08f4a"/>
        <path id="Trazado_710079" data-name="Trazado 710079" d="M235.633,559.746a3.069,3.069,0,0,0,.6.119c.168.018.323.024.478.028s.309,0,.478-.006a3.109,3.109,0,0,0,.6-.089.822.822,0,0,1-.374.641,1.236,1.236,0,0,1-1.442-.036.825.825,0,0,1-.343-.658" transform="translate(-176.03 -418.159)" fill="#f08f4a"/>
        <path id="Trazado_710080" data-name="Trazado 710080" d="M175.283,521.216c.06.1.1.2.16.28.031.041.064.08.091.119a.659.659,0,0,0,.1.1.722.722,0,0,0,.45.166,1.623,1.623,0,0,0,.512-.083,3.154,3.154,0,0,0,.506-.2l.34-.177.17.366a2.246,2.246,0,0,0,.389.6,1.046,1.046,0,0,0,.549.311,1.918,1.918,0,0,0,.75-.01,5.819,5.819,0,0,0,.836-.232,2.207,2.207,0,0,1-.687.62,1.85,1.85,0,0,1-.963.266,1.483,1.483,0,0,1-.541-.114,1.662,1.662,0,0,1-.466-.3,2.3,2.3,0,0,1-.555-.857l.51.19a2.581,2.581,0,0,1-.7.2,1.707,1.707,0,0,1-.757-.049.989.989,0,0,1-.6-.5,1.132,1.132,0,0,1-.092-.688" transform="translate(-130.935 -389.376)" fill="#f08f4a"/>
        <path id="Trazado_710081" data-name="Trazado 710081" d="M238.733,452.2a10.315,10.315,0,0,0-4.665-2.823,1.914,1.914,0,0,0-1.93.533c-.461.442-.934,1.084-1.652,1.03.877.274,1.42,1.1,2.191,1.551a4.905,4.905,0,0,0,2.833.54,3.99,3.99,0,0,1-.683,1.272Z" transform="translate(-172.185 -335.659)" fill="#e34927"/>
        <path id="Trazado_710082" data-name="Trazado 710082" d="M240.045,453.533c.254.175.741-.313.741-.313a1.3,1.3,0,0,1,2.068.154,2.325,2.325,0,0,0,.878.682,4.173,4.173,0,0,0-1.053.547,1.264,1.264,0,0,1-1.892-.408,2.367,2.367,0,0,0-.742-.662" transform="translate(-179.326 -338.251)" fill="#382118"/>
        <path id="Trazado_710083" data-name="Trazado 710083" d="M245.139,454.36a.612.612,0,1,1-.713.583.654.654,0,0,1,.713-.583" transform="translate(-182.599 -339.43)" fill="#f79854"/>
        <path id="Trazado_710084" data-name="Trazado 710084" d="M247.386,456.145a.26.26,0,1,1-.268.251.26.26,0,0,1,.268-.251" transform="translate(-184.61 -340.764)" fill="#382118"/>
        <path id="Trazado_710085" data-name="Trazado 710085" d="M248.773,470.45a9.12,9.12,0,0,0-2.229,3.8,2.1,2.1,0,0,0-.02,1.244,1.693,1.693,0,0,0,1.513.994,2.487,2.487,0,0,0,1.762-.685,2.8,2.8,0,0,0,.671-.942,15.168,15.168,0,0,0,.482-2.276c.149-.574.424-1.114.578-1.686.167-.621.571-2.2-.332-2.287-.737-.068-2.025,1.4-2.426,1.836" transform="translate(-184.101 -350.078)" fill="#e34927"/>
        <path id="Trazado_710086" data-name="Trazado 710086" d="M265.85,458.991c2.031.061,3.449,2.538,3.449,2.538a8,8,0,0,0-3.643-.065c-.287-.2-1.526.468-1.526.468a6.116,6.116,0,0,1,1.23-2,1.516,1.516,0,0,0,.489-.94" transform="translate(-197.32 -342.89)" fill="#ffe09c"/>
        <path id="Trazado_710087" data-name="Trazado 710087" d="M271.489,460.794c-.014.079.082.163.215.187s.252-.021.267-.1-.082-.163-.215-.187-.252.021-.267.1" transform="translate(-202.815 -344.158)" fill="#382118"/>
        <path id="Trazado_710088" data-name="Trazado 710088" d="M70.644,543.258a8.072,8.072,0,0,0,6.76,8.477,20.819,20.819,0,0,1-2.636-6.571,18.99,18.99,0,0,0,9.738,8.447,16.5,16.5,0,0,1-3.718-9.333,24.906,24.906,0,0,0,8.991,8.951,9.313,9.313,0,0,0-.566-4.526,25.316,25.316,0,0,0,3.322,4.8c.288.328.693.68,1.106.539.334-.113.484-.493.592-.828l1.341-4.148,2.528,4.42,4.01-4.676a38.449,38.449,0,0,1,2.372,5.292,22.053,22.053,0,0,1,5.605-4.883l1.585,4.391a44.824,44.824,0,0,1,9.586-3.965,2.3,2.3,0,0,1-.31,2.065,1.133,1.133,0,0,0,.973-.309q.046.957.091,1.915l5.718-3.942a7.6,7.6,0,0,0-1.04,3.077,7.609,7.609,0,0,0,7.3-3.9,3.545,3.545,0,0,0-.748,2.657,5.356,5.356,0,0,0,5.139-4.7q-.242,2.3-.483,4.6a2.365,2.365,0,0,0,2.66-2.218q.08,1.821.16,3.643l5.438-3.577c-.842,3.427-3.66,6.1-6.852,7.607a32.325,32.325,0,0,1-10.261,2.392A222.148,222.148,0,0,1,99.436,560.3q-7.414-.162-14.807-.819c-4.652-.413-8.159-.066-11.046-4.092a17.289,17.289,0,0,1-2.939-12.128" transform="translate(-52.692 -405.842)" fill="#ffe09c"/>
        <path id="Trazado_710089" data-name="Trazado 710089" d="M777.554,553.3a7.287,7.287,0,0,0-4.864.754L777,551.674l-5.562.12a24.167,24.167,0,0,0,2.115-5.913q-3.19,3.446-6.506,6.741c-.288.286-.633.591-1.013.521-.351-.065-.588-.425-.782-.759A48.181,48.181,0,0,1,763,548c-.115,2.181-.57,4.87-2.436,5.477a3.035,3.035,0,0,1-3.127-1.21,11.14,11.14,0,0,1-1.678-3.4l-1.473,3.042a2.966,2.966,0,0,1-.893,1.244,1.726,1.726,0,0,1-2.282-.795,6.564,6.564,0,0,1-.724-2.8l-1.731,4.052-1.661-3.655q-.32,2.151-.64,4.3l-2.543-4.872a3.519,3.519,0,0,1-1.924,4.495c-1.532.44-3.1-.579-4.242-1.81s-2.087-2.731-3.446-3.639l.329,5.146a18.046,18.046,0,0,1-8.241-5.233l.273,4.755a6.83,6.83,0,0,1-4.654-1.146q-.089.716-.179,1.433c-.982.266-1.908-.563-2.651-1.332l-7.518-7.788,2.569,9.306-8-5.85,3.061,7.057-7.018-.358a15.911,15.911,0,0,0,5.189,2.883,4.786,4.786,0,0,1-1.255,2.2q18.647.614,37.3,1.162c5.028.148,10.095.289,15.052-.67,3.36-.65,6.718-1.353,10.066-2.023a18.274,18.274,0,0,0,4.882-1.745c.729-.382,3.6-3.034,4.153-2.924" transform="translate(-524.558 -406.589)" fill="#ffe09c"/>
        <path id="Trazado_710090" data-name="Trazado 710090" d="M97.791,281.7q1.746.334,3.5.607a2.5,2.5,0,0,0-1.175-2.77l6.493,1.374a4.556,4.556,0,0,0-3.113-3.844,22.858,22.858,0,0,0,6.376.776l-3.369-4.017a25.615,25.615,0,0,1,5.5,1.77l-1.582-3.048a7.68,7.68,0,0,0,5.243,2.856q.213-1.819.426-3.637a6.627,6.627,0,0,0,4.31,3.681l.784-4.529a10.046,10.046,0,0,0,3.88,4.053,24.842,24.842,0,0,0,1.614-4.39l1.066,4.769a16.047,16.047,0,0,0,2.2-3.794l.653,2.748a16.842,16.842,0,0,0,5.789-2.7l-.157,2.659a37.059,37.059,0,0,0,7.732-3.276,9.718,9.718,0,0,0-1.091,3.7,27.183,27.183,0,0,0,7.566-1.136,2.3,2.3,0,0,0-.564,2.05q4.912-.453,9.807-1.072l-4.557,2.5a36.6,36.6,0,0,0,7.365.423,3.123,3.123,0,0,0-2.892,2.808l6.457.014a5.03,5.03,0,0,0-5.82,2.535,6.241,6.241,0,0,0,7.922-2.308c.209,2.412-1.563,4.645-3.724,5.734a18.072,18.072,0,0,1-7.067,1.426,115.065,115.065,0,0,1-20.057,0c-8.846-.991-17.753-3.867-26.471-2.075-.827.17-1.614,1.3-2.154,1.383-.963.14-2.623-.937-3.509-1.338a62.93,62.93,0,0,1-7.374-3.947" transform="translate(-73.055 -202.141)" fill="#f7ca68"/>
        <path id="Trazado_710091" data-name="Trazado 710091" d="M174.265,267.216a16.74,16.74,0,0,0-4.039-5.627l-.03-.026q-.154-.135-.31-.263l-.046-.037q-.149-.121-.3-.235l-.052-.039q-.15-.112-.3-.216l-.05-.034q-.157-.107-.316-.206l-.032-.02a7.412,7.412,0,0,0-1.06-.548l-.036-.014c-.1-.041-.2-.079-.3-.114l-.091-.029c-.082-.027-.163-.052-.244-.074l-.114-.029c-.073-.018-.146-.035-.219-.049l-.124-.022c-.069-.012-.138-.021-.206-.029l-.129-.013c-.067-.006-.133-.009-.2-.011-.042,0-.085,0-.127,0-.067,0-.133,0-.2.008-.04,0-.081,0-.121.008-.071.007-.141.018-.212.029-.034.005-.068.009-.1.015-.1.02-.2.045-.305.075-.072.022-.142.048-.212.076s-.123.053-.185.082h0c-2.627,1.253-4.157,6.689-2.715,11.458a12.579,12.579,0,0,0,1.239,2.856h0c.09.149.183.293.277.432l.063.09q.116.169.238.327l.061.08c.1.128.2.252.305.37l.024.026c.1.108.192.21.291.31l.077.077c.094.092.189.182.286.267l.044.039q.168.146.342.277l.066.048q.144.106.291.2l.084.055a5.952,5.952,0,0,0,.731.4l.089.039q.154.067.311.124l.077.028c.128.045.258.085.388.119l.052.013c.113.029.227.054.342.076l.1.018c.118.02.237.037.356.049l.044.005c.135.013.27.021.406.024h.089q.165,0,.332-.007l.1-.005c.138-.009.277-.022.417-.041h0a6.439,6.439,0,0,0,.991-.218c3.748-1.134,5.984-5.407,3.866-10.188" transform="translate(-120.525 -193.918)" fill="#f08f4a"/>
        <path id="Trazado_710092" data-name="Trazado 710092" d="M166.465,269.807h-.016a.241.241,0,0,1-.224-.256,4.987,4.987,0,0,1,1.5-3.232.241.241,0,1,1,.3.377,4.581,4.581,0,0,0-1.317,2.888.241.241,0,0,1-.24.225" transform="translate(-124.178 -198.914)" fill="#ffe09c"/>
        <path id="Trazado_710093" data-name="Trazado 710093" d="M241.12,277.458a16.739,16.739,0,0,0,4.26-5.462l.017-.036q.086-.186.165-.371l.023-.054q.074-.177.141-.354l.023-.06q.065-.175.122-.349l.019-.057q.058-.182.109-.361l.011-.037a7.44,7.44,0,0,0,.227-1.171c0-.013,0-.026,0-.039q.016-.162.024-.321c0-.032,0-.064,0-.1,0-.086,0-.171,0-.255,0-.039,0-.078,0-.117,0-.076-.008-.151-.015-.224,0-.042-.009-.084-.014-.125q-.012-.1-.03-.206c-.007-.043-.015-.085-.024-.127-.013-.066-.029-.131-.046-.194-.011-.041-.021-.083-.033-.123-.019-.064-.041-.126-.063-.189-.014-.038-.027-.076-.041-.114-.027-.066-.057-.131-.088-.195-.015-.031-.028-.062-.043-.093a3.129,3.129,0,0,0-.158-.272c-.041-.063-.086-.123-.133-.182s-.085-.1-.131-.154h0c-1.943-2.167-7.59-2.1-11.759.627a12.591,12.591,0,0,0-2.39,1.994h0c-.118.128-.229.258-.337.388l-.069.086q-.128.159-.247.32l-.06.081q-.142.2-.269.4l-.018.031c-.076.122-.147.244-.215.366l-.052.1q-.093.175-.175.35l-.025.053q-.093.2-.169.406c-.01.026-.018.051-.028.077q-.061.168-.112.336c-.01.032-.02.064-.029.1a5.931,5.931,0,0,0-.173.813c0,.032-.008.064-.012.1-.014.111-.024.222-.031.333,0,.027,0,.054-.006.081-.007.135-.009.271-.005.406,0,.018,0,.036,0,.053q.006.176.024.35,0,.05.011.1c.014.119.031.237.053.355,0,.014,0,.029.007.044.025.133.057.265.092.4.008.029.016.057.025.085q.045.159.1.317c.011.031.021.062.032.093.048.13.1.26.157.388h0a6.452,6.452,0,0,0,.489.889c2.145,3.276,6.875,4.217,10.865.836" transform="translate(-171.269 -197.659)" fill="#f08f4a"/>
        <path id="Trazado_710094" data-name="Trazado 710094" d="M258.557,270.063a.241.241,0,0,1-.141-.436,5,5,0,0,1,3.447-.9.241.241,0,0,1-.1.471,4.568,4.568,0,0,0-3.066.82.24.24,0,0,1-.14.045" transform="translate(-192.975 -200.705)" fill="#ffe09c"/>
        <path id="Trazado_710095" data-name="Trazado 710095" d="M195.718,301.594l2.962.9.081-1.553,4.028.691a5.659,5.659,0,0,0-1.224-4.564,6.244,6.244,0,0,1,2.192,1.571,3.435,3.435,0,0,0,2.394,1.127c.905-.061,1.734-1.107,1.264-1.883a4.833,4.833,0,0,1,.416,1.543c.142.518.667,1.041,1.153.814a1.17,1.17,0,0,0,.461-.52l.865-1.5a6.822,6.822,0,0,0,.822,3.459,6.858,6.858,0,0,0,3.509-3.1,20.1,20.1,0,0,1,.121,2.984,14.657,14.657,0,0,0,5.762-.577c-1.646.832-2.093,2.987-3.411,4.278a8.305,8.305,0,0,1-4.263,1.778l-4.51.942c-4.995,1.043-12.728.615-12.625-6.384" transform="translate(-146.211 -221.927)" fill="#ffe09c"/>
        <path id="Trazado_710096" data-name="Trazado 710096" d="M488.464,149.7a3.3,3.3,0,0,1-.836-2.231,1.425,1.425,0,0,1,1.157-.964,7.743,7.743,0,0,0,1.58-.419c.647-.335,1-1.017,1.491-1.534a1.757,1.757,0,0,1,2.11-.453c.323.166.612.437.939.588.8.368,1.51-.093,2.314.035a2.979,2.979,0,0,1,2.047,1.855,2.9,2.9,0,0,1-.151,2.418,5.1,5.1,0,0,1-1.535,1.591,20.772,20.772,0,0,1-4.824,2.681c-.992.388-1.051.522-1.975-.481a28.058,28.058,0,0,1-2.316-3.086" transform="translate(-364.263 -107.513)" fill="#e34927"/>
        <path id="Trazado_710097" data-name="Trazado 710097" d="M459.945,164.115c3.228-7.6,9.136-6.281,10.469-2.855,1.677,4.311,3.236,10.469,3.236,10.469,1.523,3.236,9.517,4.378,9.517,4.378,8.756.761,10.088,4.759,10.088,4.759,14.466-10.85,9.9-.761,9.9-.761,8.375-1.142,1.9,5.33,1.9,5.33,12.182,2.474-9.9,9.707-9.9,9.707-7.614,16.37-35.975,8.756-35.975,8.756-15.608-6.472-1.332-23.222-1.332-23.222,5.33-7.423,3.807-14.276,3.807-14.276Z" transform="translate(-337.58 -118.433)" fill="#fff"/>
        <path id="Trazado_710098" data-name="Trazado 710098" d="M489.773,174.254c.634-1.279,1.965-3.407,3.288-3.99a1.914,1.914,0,0,1,1.993.184c.532.354,1.11.9,1.808.722-.815.425-1.2,1.331-1.883,1.913a2.908,2.908,0,0,1-1.97.98c.025.214.015.64.19.762a16.456,16.456,0,0,0-2.474-.381c-.27.058.381,1.9.381,1.9Z" transform="translate(-365.886 -127.049)" fill="#e34927"/>
        <path id="Trazado_710099" data-name="Trazado 710099" d="M501.419,173.74c-.206.23-.793-.131-.793-.131a1.3,1.3,0,0,0-1.974.634,2.326,2.326,0,0,1-.694.869,4.181,4.181,0,0,1,1.152.285,1.264,1.264,0,0,0,1.744-.84,2.365,2.365,0,0,1,.566-.818" transform="translate(-372 -129.53)" fill="#382118"/>
        <path id="Trazado_710100" data-name="Trazado 710100" d="M502.763,175.025a.612.612,0,1,0,.829.4.654.654,0,0,0-.829-.4" transform="translate(-375.198 -130.731)" fill="#f79854"/>
        <path id="Trazado_710101" data-name="Trazado 710101" d="M503.262,177.035a.26.26,0,1,0,.32.181.26.26,0,0,0-.32-.181" transform="translate(-375.821 -132.247)" fill="#382118"/>
        <path id="Trazado_710102" data-name="Trazado 710102" d="M471.605,179.555c-2.6.181-4.348,3.3-4.348,3.3a10.693,10.693,0,0,1,4.673-.272c.362-.258,1.972.5,1.972.5a7.34,7.34,0,0,0-1.64-2.4,1.8,1.8,0,0,1-.657-1.131" transform="translate(-349.065 -134.137)" fill="#ffe09c"/>
        <path id="Trazado_710103" data-name="Trazado 710103" d="M481.963,181.832c.021.1-.1.2-.27.241s-.325-.012-.345-.109.1-.2.27-.241.325.013.345.109" transform="translate(-359.59 -135.747)" fill="#382118"/>
        <path id="Trazado_710104" data-name="Trazado 710104" d="M479.9,194.2c-.5.767-1.141,1.468-1.625,2.243a2.906,2.906,0,0,0-.459,1.1,1.326,1.326,0,0,0,.326,1.112,2.45,2.45,0,0,0,1.282.591,12,12,0,0,0,2.487.2,3.225,3.225,0,0,0,1.381-.216,2.5,2.5,0,0,0,.74-.608,3.94,3.94,0,0,0,1.161-2.066,4.011,4.011,0,0,0-1.077-2.719q-.51-.677-1.078-1.321a3,3,0,0,0-.981-.812,1.479,1.479,0,0,0-1.052-.082c-.338.126-.309.25-.333.543a4.37,4.37,0,0,1-.772,2.035" transform="translate(-356.946 -143.106)" fill="#e34927"/>
        <path id="Trazado_710105" data-name="Trazado 710105" d="M551.523,264.985a.24.24,0,0,1-.19-.092,12.371,12.371,0,0,0-6.952-4.056,36.517,36.517,0,0,0-8.267-.639c-3.038,0-6.808,0-9.7-1.86a.241.241,0,1,1,.26-.405c2.777,1.788,6.317,1.786,9.443,1.784a36.9,36.9,0,0,1,8.377.651,12.844,12.844,0,0,1,7.221,4.227.241.241,0,0,1-.189.39" transform="translate(-393.173 -192.661)" fill="#382118"/>
        <path id="Trazado_710106" data-name="Trazado 710106" d="M571.085,286.587a.238.238,0,0,1-.149-.052,9.744,9.744,0,0,0-6.07-1.736c-.8-.013-1.618.016-2.409.044a27.837,27.837,0,0,1-4.2-.066,3.6,3.6,0,0,1-2.2-.866.241.241,0,0,1,.344-.337,3.182,3.182,0,0,0,1.911.725,27.533,27.533,0,0,0,4.125.063c.8-.028,1.622-.056,2.433-.044a10.194,10.194,0,0,1,6.362,1.841.241.241,0,0,1-.15.429" transform="translate(-415.354 -211.789)" fill="#382118"/>
        <path id="Trazado_710107" data-name="Trazado 710107" d="M564.572,301.429a.24.24,0,0,1-.163-.064,3.615,3.615,0,0,0-2.605-.569l-4.834.168a6.729,6.729,0,0,1-5.313-1.82.241.241,0,0,1,.278-.394,8.548,8.548,0,0,0,3.315,1.678,8.446,8.446,0,0,0,1.7.054l4.834-.168a3.987,3.987,0,0,1,2.949.7.241.241,0,0,1-.163.418" transform="translate(-412.04 -223.15)" fill="#382118"/>
        <path id="Trazado_710108" data-name="Trazado 710108" d="M629.026,246a.241.241,0,0,1-.163-.418,12.639,12.639,0,0,1,6.41-2.726.241.241,0,0,1,.068.477,12.362,12.362,0,0,0-6.153,2.6.241.241,0,0,1-.163.063" transform="translate(-469.735 -181.426)" fill="#382118"/>
        <path id="Trazado_710109" data-name="Trazado 710109" d="M635.045,264.248a.241.241,0,0,1-.051-.476c.181-.039,4.46-.956,6.771-.379a.241.241,0,0,1-.117.467c-2.2-.551-6.509.373-6.552.382a.242.242,0,0,1-.052.006" transform="translate(-474.232 -196.626)" fill="#382118"/>
        <path id="Trazado_710110" data-name="Trazado 710110" d="M532.337,222.312c.213-.03.425-.051.637-.071l.033,0,.04.04a1.941,1.941,0,0,1,.53,1.194,2.092,2.092,0,0,1-.33,1.331,2.16,2.16,0,0,1-1.131.839,2.187,2.187,0,0,1-1.424-.013l.46-.462a2.354,2.354,0,0,1-.756,2.623,2.169,2.169,0,0,1-1.3.441,1.957,1.957,0,0,1-1.232-.4,2.157,2.157,0,0,0,2.177-.452,1.921,1.921,0,0,0,.438-1.959l-.274-.727.734.265a1.656,1.656,0,0,0,2.192-1.474,1.888,1.888,0,0,0-.232-1.082l.072.037c-.21-.036-.42-.075-.629-.121" transform="translate(-394.339 -166.023)" fill="#d0d1d3"/>
        <path id="Trazado_710111" data-name="Trazado 710111" d="M473,260.59a2.721,2.721,0,0,0,.383,1.349A2.1,2.1,0,0,0,475.519,263a2.731,2.731,0,0,0,1.308-.5,1.875,1.875,0,0,1-1.179,1.058,2.17,2.17,0,0,1-2.785-1.39A1.88,1.88,0,0,1,473,260.59" transform="translate(-353.17 -194.674)" fill="#d0d1d3"/>
        <path id="Trazado_710112" data-name="Trazado 710112" d="M502.549,277.885a7.689,7.689,0,0,0,1.2.623,5.323,5.323,0,0,0,1.213.334,2.916,2.916,0,0,0,1.192-.056,1.508,1.508,0,0,0,.993-.72,1.047,1.047,0,0,1-.185.725,1.665,1.665,0,0,1-.589.519,2.423,2.423,0,0,1-1.516.247,3.228,3.228,0,0,1-1.383-.554,2.611,2.611,0,0,1-.923-1.118" transform="translate(-375.43 -207.595)" fill="#d0d1d3"/>
        <path id="Trazado_710113" data-name="Trazado 710113" d="M394.477,288.08c.759-.745,1.958-.707,2.992-.954s2.133-1.27,1.651-2.218l-2.566-.653,3.1-.194a1.962,1.962,0,0,0,.933-.217,1.364,1.364,0,0,0-.042-2.072,3.942,3.942,0,0,0-2.237-.756l2.543-.294a2.235,2.235,0,0,0,.95-.257,1.537,1.537,0,0,0,.35-1.984,4.474,4.474,0,0,0-1.6-1.5l5.459,1.974a3.76,3.76,0,0,0-.991-3.33,6.348,6.348,0,0,0,4.2,2.142l.937-3.4a5.625,5.625,0,0,0,5.113,4.221c3.84.146,6.587-3.528,9.97-5.352a3.324,3.324,0,0,0,2.564,4.724c2.37.132,4.182-2.321,6.543-2.559.287,2.114,2.656,3.427,4.787,3.315s4.051-1.256,5.871-2.369l.37,1.507a31.913,31.913,0,0,0,6.459-.093,20.592,20.592,0,0,0,14.751-.828,8.568,8.568,0,0,1-2.367,2.532l6.836.382a9.915,9.915,0,0,0-3.9,1.391,5.741,5.741,0,0,0,2.793.838l-2.341.848a8.725,8.725,0,0,0,4.172,1.346A2.053,2.053,0,0,0,469,286.026a14.865,14.865,0,0,1,4.163,1.834,142.22,142.22,0,0,1-55.336,1.108c-3.741-.667-7.753-1.517-11.527-.6-2.246.547-2.806,1.281-5.087.771a31.566,31.566,0,0,0-6.734-1.062" transform="translate(-294.695 -204.128)" fill="#ffe09c"/>
        <path id="Trazado_710114" data-name="Trazado 710114" d="M499.487,295.984l-3.465,1.1,3.038-5.421a12.663,12.663,0,0,1-4.74,2.816q-.158-1.161-.316-2.323a6.049,6.049,0,0,1-2.459,1.646,3.91,3.91,0,0,0-.971-2.93c-.576,1.234-1.845,2.739-3.3,2.215a2.484,2.484,0,0,1-1.207-1.136,11.711,11.711,0,0,1-1.487-3.6c-1.2.8-1.732,2.109-2.789,3.035s-3.261,1.221-3.884.051c-.845,1.492-2.3,3.252-4.226,2.884-.658-.126-1.276-3.421-1.951-3.444-.5-.017-.942,3.081-1.438,3.077a3.561,3.561,0,0,1-1.943-.8,41.382,41.382,0,0,1-6.644-5.706q.01,1.437.019,2.874a1.743,1.743,0,0,1-.191.987,1.913,1.913,0,0,1-2.48.186,3.922,3.922,0,0,1-1.315-2.069,4,4,0,0,1-1.216,3.589,3.588,3.588,0,0,1-4.152.34c.766,3.089,3.717,5.565,7.125,6.922a34.274,34.274,0,0,0,11.015,1.923c9.161.432,23.437,1.386,28.979-6.221" transform="translate(-337.943 -214.742)" fill="#f7ca68"/>
        <path id="Trazado_710115" data-name="Trazado 710115" d="M793.005,153.33a2.391,2.391,0,0,0-.919-1.044,3.9,3.9,0,0,0-2.947-.58,4.13,4.13,0,0,1-1.239.2c-.846-.084-1.548-.956-2.387-.82-.684.111-1.1.833-1.656,1.26a14.25,14.25,0,0,1-1.29.713,1.537,1.537,0,0,0-.825,1.183c-.021.76.777,1.261,1.495,1.362a7.3,7.3,0,0,1,2.143.3c.522.245.987.751,1.555.678a1.9,1.9,0,0,0,.626-.255,6.886,6.886,0,0,1,3.9-.745c.526.05.979.3,1.4-.092s.337-1.683.144-2.156" transform="translate(-584.002 -112.858)" fill="#e34927"/>
        <path id="Trazado_710116" data-name="Trazado 710116" d="M825,193.173a8.829,8.829,0,0,1,.706,1.261,1.3,1.3,0,0,1-.2,1.365,1.468,1.468,0,0,1-.793.29,1.274,1.274,0,0,1-1.008-.125,1.1,1.1,0,0,1-.257-.321,5.048,5.048,0,0,1-.494-1.734,4.859,4.859,0,0,1-.021-2.131c.146-.491.8-1.814,1.416-1.265.377.333.329,2.073.655,2.661" transform="translate(-614.69 -142.225)" fill="#e34927"/>
        <path id="Trazado_710117" data-name="Trazado 710117" d="M772,178.9a14.836,14.836,0,0,1-.952-9.517c0-5.33-4.188-6.091-7.043-5.33-3.182.849-3.616,7.043-3.616,7.043-3.046,11.8-6.281,15.227-6.281,15.227-14.656,25.887,40.543,20.367,40.543,20.367,11.421-2.284,9.9-12.563,9.9-12.563a11.57,11.57,0,0,0,4.759-5.9c6.616-15.437-1.142-7.8-1.142-7.8.761-15.037-5.52-1.523-5.52-1.523.952-4,.764-6.683-.761-6.852-1.178-.131-1.636,2.167-1.807,3.617a14.76,14.76,0,0,1-.742,3.247c-1.235,3.451-2.209,3.034-2.209,3.034C787.993,172.623,772,178.9,772,178.9" transform="translate(-561.511 -122.373)" fill="#fff"/>
        <path id="Trazado_710118" data-name="Trazado 710118" d="M801.658,175.06a10.314,10.314,0,0,0-4.968-2.246,1.915,1.915,0,0,0-1.852.759c-.405.494-.8,1.188-1.518,1.219.9.168,1.54.92,2.361,1.278a4.907,4.907,0,0,0,2.877.2,3.991,3.991,0,0,1-.526,1.345Z" transform="translate(-592.651 -129.087)" fill="#e34927"/>
        <path id="Trazado_710119" data-name="Trazado 710119" d="M802.81,176.69c.273.144.7-.4.7-.4a1.3,1.3,0,0,1,2.071-.093,2.326,2.326,0,0,0,.953.572,4.18,4.18,0,0,0-.98.669,1.263,1.263,0,0,1-1.927-.18,2.365,2.365,0,0,0-.815-.569" transform="translate(-599.741 -131.276)" fill="#382118"/>
        <path id="Trazado_710120" data-name="Trazado 710120" d="M807.9,177.287a.612.612,0,1,1-.638.663.654.654,0,0,1,.638-.663" transform="translate(-603.067 -132.441)" fill="#f79854"/>
        <path id="Trazado_710121" data-name="Trazado 710121" d="M810.232,178.953a.26.26,0,1,1-.237.281.26.26,0,0,1,.237-.281" transform="translate(-605.108 -133.687)" fill="#382118"/>
        <path id="Trazado_710122" data-name="Trazado 710122" d="M811.29,190.225a7.051,7.051,0,0,0-2.058,2.012,2.407,2.407,0,0,0-.212,2.237,1.506,1.506,0,0,0,.555.646,2.152,2.152,0,0,0,.8.266,2.287,2.287,0,0,0,1.165-.073,2.025,2.025,0,0,0,.928-.834,4.86,4.86,0,0,0,.76-2.045,10.653,10.653,0,0,1,.311-2.567,1.47,1.47,0,0,0,.136-.448.4.4,0,0,0-.23-.393c-.685-.289-1.752.907-2.159,1.2" transform="translate(-604.239 -141.179)" fill="#e34927"/>
        <path id="Trazado_710123" data-name="Trazado 710123" d="M821.994,179.47c2,.476,3.331,3.712,3.331,3.712a7.6,7.6,0,0,0-5.044-.666.63.63,0,0,1,.1-.749,4.845,4.845,0,0,0,1.039-1.381,5.016,5.016,0,0,1,.57-.915" transform="translate(-612.738 -134.073)" fill="#ffe09c"/>
        <path id="Trazado_710124" data-name="Trazado 710124" d="M827.945,182.728c-.032.07.038.171.157.226s.242.044.274-.026-.038-.17-.157-.226-.242-.044-.274.026" transform="translate(-618.512 -136.462)" fill="#382118"/>
        <path id="Trazado_710125" data-name="Trazado 710125" d="M819.9,238.1c.1.455.284.878.41,1.336a3.361,3.361,0,0,1,.125.719,1.728,1.728,0,0,1-.138.765,1.626,1.626,0,0,1-.49.631,2.956,2.956,0,0,1-.662.384,6.506,6.506,0,0,1-.677.246.472.472,0,0,0-.18.089c-.007.009.007,0,.01-.015s0-.026.007-.01c.011.033.078.113.155.243a1.552,1.552,0,0,1,.175.4,1.862,1.862,0,0,1,.031.844,2.4,2.4,0,0,1-.812,1.383,3.259,3.259,0,0,1-1.415.631,5.993,5.993,0,0,1-1.462.088l.315-.408a1.546,1.546,0,0,1-.017.827,1.9,1.9,0,0,1-.387.683,2.118,2.118,0,0,1-1.3.715,2.858,2.858,0,0,1-1.4-.18,5.109,5.109,0,0,1-1.187-.656,6.678,6.678,0,0,0,1.257.416,2.79,2.79,0,0,0,1.247,0,1.766,1.766,0,0,0,.945-.646,1.125,1.125,0,0,0,.216-.987l-.132-.406.447,0a6.514,6.514,0,0,0,1.306-.128,2.567,2.567,0,0,0,1.1-.5,1.72,1.72,0,0,0,.585-.961,1.247,1.247,0,0,0-.005-.534.888.888,0,0,0-.09-.241,2.723,2.723,0,0,1-.19-.359.631.631,0,0,1-.022-.352.6.6,0,0,1,.185-.309,1.055,1.055,0,0,1,.438-.217c.229-.061.441-.109.646-.181a1.666,1.666,0,0,0,.967-.683,1.971,1.971,0,0,0,.152-1.239,12.316,12.316,0,0,1-.158-1.386" transform="translate(-605.865 -177.869)" fill="#d0d1d3"/>
        <path id="Trazado_710126" data-name="Trazado 710126" d="M784.6,280.327a.978.978,0,0,0,.416.778,1.874,1.874,0,0,0,.777.286,5.249,5.249,0,0,0,.928.069,9.742,9.742,0,0,0,1.028-.077,1.886,1.886,0,0,1-.927.636,2.4,2.4,0,0,1-1.153.084,1.649,1.649,0,0,1-1.07-.615,1.1,1.1,0,0,1-.207-.607.731.731,0,0,1,.208-.553" transform="translate(-585.981 -209.419)" fill="#d0d1d3"/>
        <path id="Trazado_710127" data-name="Trazado 710127" d="M805.552,309.816a.746.746,0,0,1,.58.1,2.465,2.465,0,0,0,.445.2,2.049,2.049,0,0,0,.857.079,1.827,1.827,0,0,0,.794-.3,2.57,2.57,0,0,0,.707-.709,1.38,1.38,0,0,1-.316,1.122,1.671,1.671,0,0,1-1.1.6,1.754,1.754,0,0,1-1.209-.294,1.6,1.6,0,0,1-.413-.43.96.96,0,0,0-.35-.372" transform="translate(-601.789 -230.979)" fill="#d0d1d3"/>
        <path id="Trazado_710128" data-name="Trazado 710128" d="M774.358,308.217a.856.856,0,0,1,.524.176,2.088,2.088,0,0,0,.4.205,2.046,2.046,0,0,0,.79.139,1.842,1.842,0,0,0,.767-.194,2.62,2.62,0,0,0,.755-.565,1.309,1.309,0,0,1-.415,1.02,1.607,1.607,0,0,1-1.088.461,1.677,1.677,0,0,1-1.111-.381,1.436,1.436,0,0,1-.356-.443,1.408,1.408,0,0,0-.266-.418" transform="translate(-578.486 -230.076)" fill="#d0d1d3"/>
        <path id="Trazado_710129" data-name="Trazado 710129" d="M959.372,234.37a.237.237,0,0,1-.112-.028.241.241,0,0,1-.1-.326,26.114,26.114,0,0,1,3.849-5.387.241.241,0,0,1,.341.34,26.153,26.153,0,0,0-3.764,5.272.241.241,0,0,1-.213.128" transform="translate(-716.521 -170.745)" fill="#382118"/>
        <path id="Trazado_710130" data-name="Trazado 710130" d="M948.085,223.225a.241.241,0,0,1-.241-.241,14.961,14.961,0,0,1,1.512-3.613.241.241,0,1,1,.423.23,14.425,14.425,0,0,0-1.454,3.383.241.241,0,0,1-.241.241" transform="translate(-708.089 -163.787)" fill="#382118"/>
        <path id="Trazado_710131" data-name="Trazado 710131" d="M954.7,264.359a.241.241,0,0,1-.241-.241,12.566,12.566,0,0,0-1.8-6.264.241.241,0,0,1,.415-.245,13.054,13.054,0,0,1,1.869,6.509.241.241,0,0,1-.241.241" transform="translate(-711.662 -192.359)" fill="#382118"/>
        <path id="Trazado_710132" data-name="Trazado 710132" d="M933.285,237.069a.24.24,0,0,1-.164-.065,21.749,21.749,0,0,0-2.48-1.986.241.241,0,1,1,.274-.4,22.216,22.216,0,0,1,2.536,2.031.241.241,0,0,1-.164.417" transform="translate(-695.159 -175.242)" fill="#382118"/>
        <path id="Trazado_710133" data-name="Trazado 710133" d="M889.116,292.9a.242.242,0,0,1-.223-.148c-.019-.045-1.957-4.515-8.626-7.294a.241.241,0,1,1,.185-.444c6.865,2.86,8.806,7.363,8.885,7.553a.241.241,0,0,1-.129.315.244.244,0,0,1-.093.018" transform="translate(-657.495 -212.907)" fill="#382118"/>
        <path id="Trazado_710134" data-name="Trazado 710134" d="M898.354,285.257a.241.241,0,0,1-.173-.409,4.372,4.372,0,0,0,.932-3.714c-.45-2.2-2.779-5.588-11.322-9.221a.241.241,0,0,1,.189-.443c7.022,2.986,10.927,6.209,11.608,9.579a4.774,4.774,0,0,1-1.061,4.134.24.24,0,0,1-.173.073" transform="translate(-663.117 -202.788)" fill="#382118"/>
        <path id="Trazado_710135" data-name="Trazado 710135" d="M887.12,256.126a.241.241,0,0,1-.131-.443,2.443,2.443,0,0,0,.954-2.173c-.135-2.389-3.015-6.621-15.969-13.209a.241.241,0,0,1,.218-.429c13.177,6.7,16.1,11.109,16.232,13.626a2.919,2.919,0,0,1-1.173,2.589.237.237,0,0,1-.131.039" transform="translate(-651.311 -179.177)" fill="#382118"/>
        <path id="Trazado_710136" data-name="Trazado 710136" d="M709.5,279.389a7.824,7.824,0,0,1,5.051.754l-4.478-2.377,5.776.12a23.6,23.6,0,0,1-2.2-5.913q3.313,3.446,6.756,6.741c.3.286.658.591,1.052.521.364-.064.61-.425.812-.759a47.51,47.51,0,0,0,2.343-4.382c.119,2.181.592,4.87,2.53,5.477a3.214,3.214,0,0,0,3.248-1.21,10.974,10.974,0,0,0,1.742-3.4l1.53,3.042a2.97,2.97,0,0,0,.928,1.244,1.826,1.826,0,0,0,2.37-.8,6.375,6.375,0,0,0,.752-2.8l1.8,4.052,1.725-3.655q.333,2.151.665,4.3l2.641-4.872a3.478,3.478,0,0,0,2,4.494c1.591.44,3.22-.579,4.405-1.81s2.167-2.731,3.579-3.639l-.342,5.146a18.847,18.847,0,0,0,8.559-5.233l-.284,4.755a7.305,7.305,0,0,0,4.833-1.146q.093.716.186,1.433c1.02.266,1.981-.563,2.753-1.332l7.807-7.788-2.668,9.306,8.308-5.85-3.179,7.057,7.288-.358a16.716,16.716,0,0,1-5.389,2.883,4.745,4.745,0,0,0,1.3,2.2q-19.366.614-38.733,1.162c-5.222.148-10.484.289-15.632-.67-3.489-.65-6.977-1.353-10.454-2.023a19.467,19.467,0,0,1-5.07-1.745c-.757-.382-3.736-3.034-4.313-2.924" transform="translate(-530.035 -201.965)" fill="#ffe09c"/>
        <path id="Trazado_710137" data-name="Trazado 710137" d="M759.1,298.3c.51,1.99,2.138,3.838,4.19,3.948s4.03-2.186,3.142-4.038a6,6,0,0,0,2.967,5.108,6.532,6.532,0,0,0,1.4-2.836,6.637,6.637,0,0,0,1.035,3.449q1.139-1.051,2.184-2.2c-.4,1.372,1.138,2.683,2.567,2.628a6.866,6.866,0,0,0,3.776-1.874l1.6,1.889a5.659,5.659,0,0,1,2.549-1.131,1.944,1.944,0,0,1,2.136,1.409c2.154-1.618,5.731,1.023,7.777-.73,1.2-1.029,1.5-3.335,3.079-3.351l.443,2.821a15.612,15.612,0,0,0,4.9-3.471c.107,2.8-2.005,5.207-4.337,6.755-5.861,3.892-13.33,4.182-20.366,4.162-3.939-.011-8.747.182-12.116-2.091-3.338-2.253-5.788-6.7-6.933-10.448" transform="translate(-567.087 -222.781)" fill="#f7ca68"/>
        <rect id="Rectángulo_351099" data-name="Rectángulo 351099" width="244.4" height="15.227" transform="translate(15.011 80.896)" fill="#917b64"/>
        <rect id="Rectángulo_351100" data-name="Rectángulo 351100" width="244.4" height="15.227" transform="translate(15.011 150.37)" fill="#917b64"/>
        <rect id="Rectángulo_351101" data-name="Rectángulo 351101" width="5.52" height="149.419" transform="translate(15.011 24.364)" fill="#917b64"/>
        <rect id="Rectángulo_351102" data-name="Rectángulo 351102" width="3.426" height="139.711" transform="translate(95.145 24.364)" fill="#917b64"/>
        <rect id="Rectángulo_351103" data-name="Rectángulo 351103" width="3.426" height="139.711" transform="translate(176.041 24.364)" fill="#917b64"/>
        <rect id="Rectángulo_351104" data-name="Rectángulo 351104" width="5.52" height="149.419" transform="translate(253.891 24.364)" fill="#917b64"/>
        <path id="Trazado_710138" data-name="Trazado 710138" d="M275.049,0H48.161L31.125,26.933H289.61Z" transform="translate(-23.252 0)" fill="#c96f4f"/>
        <path id="Trazado_710139" data-name="Trazado 710139" d="M131.624,81.423a.241.241,0,0,1-.21-.358c.43-.775.79-1.567,1.138-2.332a27.582,27.582,0,0,1,1.412-2.813.241.241,0,1,1,.413.247,27.309,27.309,0,0,0-1.387,2.765c-.352.775-.715,1.576-1.155,2.367a.241.241,0,0,1-.211.124" transform="translate(-98.15 -56.628)" fill="#382118"/>
        <path id="Trazado_710140" data-name="Trazado 710140" d="M154.477,24.78a.238.238,0,0,1-.1-.022.241.241,0,0,1-.12-.319c.675-1.5,1.492-3.087,2.281-4.626.692-1.348,1.407-2.743,2.028-4.072a.241.241,0,1,1,.437.2c-.624,1.338-1.342,2.736-2.036,4.089-.787,1.534-1.6,3.121-2.271,4.6a.241.241,0,0,1-.22.142" transform="translate(-115.223 -11.655)" fill="#382118"/>
        <path id="Trazado_710141" data-name="Trazado 710141" d="M238.661,51.712a.241.241,0,0,1-.223-.333c.917-2.228,1.8-4.6,2.7-7.25.372-1.094.839-2.168,1.291-3.207a33.947,33.947,0,0,0,1.5-3.887.241.241,0,1,1,.462.136,34.3,34.3,0,0,1-1.525,3.942c-.448,1.03-.911,2.1-1.276,3.17-.9,2.661-1.791,5.041-2.712,7.279a.241.241,0,0,1-.223.149" transform="translate(-178.112 -27.538)" fill="#382118"/>
        <path id="Trazado_710142" data-name="Trazado 710142" d="M270.435,6.525a.241.241,0,0,1-.224-.328l.673-1.728a.241.241,0,0,1,.449.175l-.673,1.728a.241.241,0,0,1-.224.154" transform="translate(-201.849 -3.224)" fill="#382118"/>
        <path id="Trazado_710143" data-name="Trazado 710143" d="M337.809,88.441a.248.248,0,0,1-.059-.007.241.241,0,0,1-.175-.292c.153-.613.361-1.21.582-1.842a16.069,16.069,0,0,0,.817-2.936.241.241,0,0,1,.477.071,16.462,16.462,0,0,1-.838,3.024c-.217.622-.422,1.209-.57,1.8a.24.24,0,0,1-.233.182" transform="translate(-252.181 -62.123)" fill="#382118"/>
        <path id="Trazado_710144" data-name="Trazado 710144" d="M347.776,20.916a.241.241,0,0,1-.232-.306c.811-2.9,1.708-5.917,2.576-8.839.713-2.4,1.45-4.881,2.136-7.283a.241.241,0,1,1,.463.133c-.687,2.4-1.424,4.887-2.137,7.288-.867,2.92-1.764,5.939-2.574,8.831a.241.241,0,0,1-.232.176" transform="translate(-259.626 -3.223)" fill="#382118"/>
        <path id="Trazado_710145" data-name="Trazado 710145" d="M445.416,44.806a.22.22,0,0,1-.036,0,.241.241,0,0,1-.2-.274c.376-2.482.788-5,1.187-7.444.61-3.73,1.24-7.586,1.751-11.364a.241.241,0,0,1,.478.065c-.512,3.784-1.143,7.644-1.754,11.377-.4,2.438-.811,4.959-1.187,7.439a.241.241,0,0,1-.238.2" transform="translate(-332.569 -19.059)" fill="#382118"/>
        <path id="Trazado_710146" data-name="Trazado 710146" d="M459.2,6.086l-.037,0a.241.241,0,0,1-.2-.275l.319-2.042a.241.241,0,0,1,.476.074l-.319,2.042a.241.241,0,0,1-.238.2" transform="translate(-342.87 -2.661)" fill="#382118"/>
        <path id="Trazado_710147" data-name="Trazado 710147" d="M549.083,86.68a.241.241,0,0,1-.241-.241c0-.365-.014-.739-.029-1.135a11.755,11.755,0,0,1,.141-3.043.241.241,0,1,1,.469.11,11.415,11.415,0,0,0-.129,2.916c.015.383.03.779.03,1.153a.241.241,0,0,1-.241.241" transform="translate(-409.969 -61.314)" fill="#382118"/>
        <path id="Trazado_710148" data-name="Trazado 710148" d="M550.051,25.3h-.009a.241.241,0,0,1-.231-.25c.088-2.324.134-4.729.178-7.055.047-2.45.095-4.984.193-7.427a.241.241,0,0,1,.481.019c-.1,2.438-.146,4.969-.192,7.417-.045,2.328-.091,4.736-.179,7.064a.241.241,0,0,1-.24.232" transform="translate(-410.737 -7.721)" fill="#382118"/>
        <path id="Trazado_710149" data-name="Trazado 710149" d="M651.052,59.755a.241.241,0,0,1-.239-.212c-.341-2.843-.619-5.73-.887-8.522-.181-1.883-.368-3.83-.573-5.74a.241.241,0,0,1,.479-.051c.2,1.913.392,3.861.573,5.746.268,2.79.545,5.674.886,8.511a.241.241,0,0,1-.211.268l-.029,0" transform="translate(-485.1 -33.628)" fill="#382118"/>
        <path id="Trazado_710150" data-name="Trazado 710150" d="M646.229,12.648a.24.24,0,0,1-.24-.232,27.866,27.866,0,0,0-.323-2.967,23.819,23.819,0,0,1-.328-3.387.241.241,0,1,1,.482,0,23.069,23.069,0,0,0,.322,3.318,28.19,28.19,0,0,1,.327,3.019.241.241,0,0,1-.232.25h-.009" transform="translate(-482.102 -4.348)" fill="#382118"/>
        <path id="Trazado_710151" data-name="Trazado 710151" d="M744.21,33.821a.241.241,0,0,1-.235-.189l-4.568-20.747a.241.241,0,0,1,.471-.1l4.568,20.747a.241.241,0,0,1-.183.287.245.245,0,0,1-.052.006" transform="translate(-552.371 -9.407)" fill="#382118"/>
        <path id="Trazado_710152" data-name="Trazado 710152" d="M846.97,50.943a.241.241,0,0,1-.229-.165c-.855-2.565-1.7-4.95-2.6-7.476l-.3-.846a.241.241,0,0,1,.454-.161l.3.846c.9,2.528,1.742,4.915,2.6,7.484a.241.241,0,0,1-.228.317" transform="translate(-630.386 -31.477)" fill="#382118"/>
        <path id="Trazado_710153" data-name="Trazado 710153" d="M831.853,7.5a.241.241,0,0,1-.228-.163c-.2-.6-.409-1.22-.615-1.843-.567-1.715-1.153-3.488-1.805-5.113A.241.241,0,1,1,829.651.2c.658,1.639,1.247,3.419,1.816,5.141.206.621.409,1.237.614,1.839a.241.241,0,0,1-.151.306.244.244,0,0,1-.077.013" transform="translate(-619.446 -0.039)" fill="#382118"/>
        <path id="Trazado_710154" data-name="Trazado 710154" d="M959.854,83.616a.241.241,0,0,1-.219-.14L957,77.806a.241.241,0,1,1,.437-.2l2.64,5.671a.241.241,0,0,1-.218.342" transform="translate(-714.909 -57.869)" fill="#382118"/>
        <path id="Trazado_710155" data-name="Trazado 710155" d="M932.811,25.528a.241.241,0,0,1-.227-.16,46.153,46.153,0,0,0-3.116-6.516c-.4-.808-.742-1.649-1.068-2.463a23.739,23.739,0,0,0-1.594-3.432.241.241,0,0,1,.413-.248,24.127,24.127,0,0,1,1.628,3.5c.323.8.656,1.637,1.046,2.416a46.492,46.492,0,0,1,3.144,6.58.241.241,0,0,1-.227.322" transform="translate(-692.348 -9.407)" fill="#382118"/>
      </g>
    </g>
  </g>
</svg>
