<svg xmlns="http://www.w3.org/2000/svg" width="505" height="800.694" viewBox="0 0 505 800.694">
  <g id="Grupo_1017228" data-name="Grupo 1017228" transform="translate(-3032 8291.452)">
    <path id="Trazado_714864" data-name="Trazado 714864" d="M0,0H505V800.694H0Z" transform="translate(3032 -8291.452)" fill="#ffe8ce"/>
    <rect id="Rectángulo_7536" data-name="Rectángulo 7536" width="5.051" height="28.287" transform="translate(3151.628 -8272.204)" fill="#8d0a0a"/>
    <path id="Trazado_715019" data-name="Trazado 715019" d="M5.895-3.486H2.52V0H.762V-8.531H6.316v1.424H2.52v2.2H5.895ZM9.012,0h-1.7V-6.34h1.7Zm-1.8-7.98a.834.834,0,0,1,.255-.627.958.958,0,0,1,.694-.246.96.96,0,0,1,.691.246.829.829,0,0,1,.258.627.831.831,0,0,1-.261.633.962.962,0,0,1-.688.246.962.962,0,0,1-.688-.246A.831.831,0,0,1,7.213-7.98ZM10.16-3.217a3.716,3.716,0,0,1,.694-2.35,2.25,2.25,0,0,1,1.872-.891,1.973,1.973,0,0,1,1.623.715l.07-.6h1.535V-.211a2.71,2.71,0,0,1-.378,1.447,2.427,2.427,0,0,1-1.063.938,3.739,3.739,0,0,1-1.605.322,3.476,3.476,0,0,1-1.359-.278,2.413,2.413,0,0,1-1-.718L11.3.469a1.984,1.984,0,0,0,1.535.709,1.452,1.452,0,0,0,1.049-.36,1.352,1.352,0,0,0,.375-1.022v-.34a1.959,1.959,0,0,1-1.541.662,2.244,2.244,0,0,1-1.849-.894,3.715,3.715,0,0,1-.706-2.37Zm1.693.126A2.314,2.314,0,0,0,12.2-1.738a1.1,1.1,0,0,0,.949.49,1.176,1.176,0,0,0,1.107-.581V-4.5a1.173,1.173,0,0,0-1.1-.581,1.107,1.107,0,0,0-.958.5A2.608,2.608,0,0,0,11.854-3.091Zm9.2,2.446a2.124,2.124,0,0,1-1.734.762,2,2,0,0,1-1.556-.586,2.5,2.5,0,0,1-.548-1.717V-6.34h1.693v4.1q0,.991.9.991a1.223,1.223,0,0,0,1.184-.6V-6.34h1.7V0H21.1Zm6.48-4.107a4.6,4.6,0,0,0-.609-.047,1.24,1.24,0,0,0-1.26.65V0H23.971V-6.34h1.6l.047.756a1.569,1.569,0,0,1,1.412-.873,1.774,1.774,0,0,1,.527.076ZM31.846,0a1.88,1.88,0,0,1-.17-.568,2.049,2.049,0,0,1-1.6.686,2.251,2.251,0,0,1-1.544-.539,1.734,1.734,0,0,1-.612-1.359,1.792,1.792,0,0,1,.747-1.547,3.686,3.686,0,0,1,2.159-.545h.779v-.363a1.045,1.045,0,0,0-.226-.7.887.887,0,0,0-.712-.264A1.009,1.009,0,0,0,30-5a.7.7,0,0,0-.243.563H28.061a1.7,1.7,0,0,1,.34-1.02,2.246,2.246,0,0,1,.961-.735,3.5,3.5,0,0,1,1.395-.267,2.767,2.767,0,0,1,1.86.589A2.06,2.06,0,0,1,33.3-4.213v2.748A3.031,3.031,0,0,0,33.557-.1V0Zm-1.4-1.178a1.458,1.458,0,0,0,.691-.167,1.1,1.1,0,0,0,.469-.448v-1.09h-.633q-1.271,0-1.354.879l-.006.1a.678.678,0,0,0,.223.521A.865.865,0,0,0,30.445-1.178ZM41.637,0H39.943V-6.527L37.922-5.9V-7.277l3.533-1.266h.182Zm8.619,0H44.408V-1.16L47.168-4.1a6.808,6.808,0,0,0,.841-1.084,1.742,1.742,0,0,0,.272-.879,1.3,1.3,0,0,0-.287-.894,1.036,1.036,0,0,0-.82-.325,1.118,1.118,0,0,0-.905.4,1.567,1.567,0,0,0-.331,1.04h-1.7a2.8,2.8,0,0,1,.372-1.424,2.622,2.622,0,0,1,1.052-1.011A3.2,3.2,0,0,1,47.2-8.648a3.027,3.027,0,0,1,2.048.633,2.239,2.239,0,0,1,.729,1.787,2.868,2.868,0,0,1-.328,1.289A7.164,7.164,0,0,1,48.527-3.41L46.588-1.365h3.668Zm1.2-.832a.852.852,0,0,1,.272-.656.967.967,0,0,1,.683-.252.975.975,0,0,1,.688.252.852.852,0,0,1,.272.656.841.841,0,0,1-.27.647.979.979,0,0,1-.691.249.971.971,0,0,1-.686-.249A.841.841,0,0,1,51.451-.832Z" transform="translate(3161.013 -8262.43)" fill="#12263f"/>
    <path id="Trazado_715020" data-name="Trazado 715020" d="M6.85-2.719a3.4,3.4,0,0,1-1.2,2.1A3.357,3.357,0,0,1,3.369.117a2.658,2.658,0,0,1-1.383-.39,2.462,2.462,0,0,1-.92-1.072A4,4,0,0,1,.7-2.895a4.967,4.967,0,0,1,.041-.937l.1-.7A5.307,5.307,0,0,1,2.194-7.567,3.408,3.408,0,0,1,4.811-8.648a2.552,2.552,0,0,1,1.9.776,3.088,3.088,0,0,1,.744,2.089h-1.1Q6.287-7.576,4.957-7.717l-.193-.012a2.264,2.264,0,0,0-1.849.823,4.457,4.457,0,0,0-.958,2.329l-.129.885-.035.516a2.9,2.9,0,0,0,.384,1.714A1.447,1.447,0,0,0,3.422-.8,2.193,2.193,0,0,0,4.9-1.23,2.846,2.846,0,0,0,5.783-2.7ZM8.965,0H7.91L9.469-9h1.061Zm5.613,0a1.42,1.42,0,0,1-.041-.334l.018-.334A2.6,2.6,0,0,1,12.7.117a1.894,1.894,0,0,1-1.362-.53,1.6,1.6,0,0,1-.478-1.3,1.952,1.952,0,0,1,.882-1.573A3.754,3.754,0,0,1,13.91-3.85l1.107.006.07-.5a1.159,1.159,0,0,0-.22-.9,1.06,1.06,0,0,0-.835-.343,1.635,1.635,0,0,0-.964.267,1.135,1.135,0,0,0-.513.735l-1.066.006a1.7,1.7,0,0,1,.434-.987,2.523,2.523,0,0,1,.979-.668,3.161,3.161,0,0,1,1.236-.226,2.1,2.1,0,0,1,1.541.6,1.863,1.863,0,0,1,.463,1.532l-.516,3.141L15.6-.738a2.212,2.212,0,0,0,.07.639l-.012.1ZM12.914-.82a1.85,1.85,0,0,0,.964-.243,2.441,2.441,0,0,0,.782-.706l.229-1.307-.8-.006a3.041,3.041,0,0,0-1.535.316,1.165,1.165,0,0,0-.6.9.908.908,0,0,0,.208.741A.991.991,0,0,0,12.914-.82Zm8.1-.9q.088-.656-.721-.926l-1.1-.322q-1.395-.48-1.348-1.594a1.756,1.756,0,0,1,.765-1.374,2.723,2.723,0,0,1,1.7-.524,2.27,2.27,0,0,1,1.562.56,1.773,1.773,0,0,1,.577,1.427L21.4-4.477a.989.989,0,0,0-.3-.773,1.182,1.182,0,0,0-.826-.311,1.544,1.544,0,0,0-.949.27A.987.987,0,0,0,18.9-4.6q-.076.551.674.8l.533.146a3.433,3.433,0,0,1,1.547.732A1.4,1.4,0,0,1,22.072-1.8a1.778,1.778,0,0,1-.387,1.031,2.211,2.211,0,0,1-.937.671A3.135,3.135,0,0,1,19.5.117a2.473,2.473,0,0,1-1.664-.589A1.82,1.82,0,0,1,17.2-1.957l1.061.006a1.124,1.124,0,0,0,.34.855,1.3,1.3,0,0,0,.932.322,1.827,1.827,0,0,0,1-.243A.936.936,0,0,0,21.018-1.717ZM24.3,0H23.244l1.1-6.34H25.4Zm.873-8.654a.58.58,0,0,1,.448.161.6.6,0,0,1,.179.454.637.637,0,0,1-.179.451.642.642,0,0,1-.448.188.584.584,0,0,1-.451-.158A.573.573,0,0,1,24.551-8a.665.665,0,0,1,.176-.457A.62.62,0,0,1,25.172-8.654ZM26.385,0l.955-5.5h-.973l.146-.838.973-.006.082-.586A2.55,2.55,0,0,1,28.43-8.59a2.531,2.531,0,0,1,1.7-.545,3.548,3.548,0,0,1,.806.114q.39.1.8.243l-.258.926a3.319,3.319,0,0,0-1.312-.311A1.376,1.376,0,0,0,28.623-6.85l-.076.51h1.26L29.66-5.5H28.406L27.451,0Zm4.395,0H29.713l1.1-6.34h1.066Zm4.436-.762a1.609,1.609,0,0,0,1.025-.331,1.575,1.575,0,0,0,.6-.9l1-.006a2.261,2.261,0,0,1-.478,1.09,2.665,2.665,0,0,1-.981.768,2.663,2.663,0,0,1-1.213.258A2.263,2.263,0,0,1,33.829-.3a2.313,2.313,0,0,1-.806-1.119,3.729,3.729,0,0,1-.176-1.614l.029-.293a4.2,4.2,0,0,1,.533-1.635,3.083,3.083,0,0,1,1.1-1.122,2.736,2.736,0,0,1,1.5-.378,2.143,2.143,0,0,1,1.594.668,2.31,2.31,0,0,1,.6,1.635l-.99-.006a1.522,1.522,0,0,0-.346-1,1.205,1.205,0,0,0-.9-.407,1.69,1.69,0,0,0-1.374.615,3.223,3.223,0,0,0-.683,1.77l-.018.152a5.082,5.082,0,0,0-.012.773,1.766,1.766,0,0,0,.387,1.084A1.242,1.242,0,0,0,35.215-.762ZM42.568,0a1.42,1.42,0,0,1-.041-.334l.018-.334a2.6,2.6,0,0,1-1.852.785,1.894,1.894,0,0,1-1.362-.53,1.6,1.6,0,0,1-.478-1.3,1.952,1.952,0,0,1,.882-1.573A3.754,3.754,0,0,1,41.9-3.85l1.107.006.07-.5a1.159,1.159,0,0,0-.22-.9,1.06,1.06,0,0,0-.835-.343,1.635,1.635,0,0,0-.964.267,1.135,1.135,0,0,0-.513.735l-1.066.006a1.7,1.7,0,0,1,.434-.987,2.523,2.523,0,0,1,.979-.668,3.161,3.161,0,0,1,1.236-.226,2.1,2.1,0,0,1,1.541.6,1.863,1.863,0,0,1,.463,1.532l-.516,3.141-.029.451a2.212,2.212,0,0,0,.07.639l-.012.1ZM40.9-.82a1.85,1.85,0,0,0,.964-.243,2.441,2.441,0,0,0,.782-.706l.229-1.307-.8-.006a3.041,3.041,0,0,0-1.535.316,1.165,1.165,0,0,0-.6.9.908.908,0,0,0,.208.741A.991.991,0,0,0,40.9-.82Zm6.855.059a1.609,1.609,0,0,0,1.025-.331,1.575,1.575,0,0,0,.6-.9l1-.006a2.261,2.261,0,0,1-.478,1.09,2.665,2.665,0,0,1-.981.768,2.663,2.663,0,0,1-1.213.258A2.263,2.263,0,0,1,46.374-.3a2.313,2.313,0,0,1-.806-1.119,3.729,3.729,0,0,1-.176-1.614l.029-.293a4.2,4.2,0,0,1,.533-1.635,3.083,3.083,0,0,1,1.1-1.122,2.736,2.736,0,0,1,1.5-.378,2.143,2.143,0,0,1,1.594.668,2.31,2.31,0,0,1,.6,1.635l-.99-.006a1.522,1.522,0,0,0-.346-1,1.205,1.205,0,0,0-.9-.407,1.69,1.69,0,0,0-1.374.615,3.223,3.223,0,0,0-.683,1.77l-.018.152a5.082,5.082,0,0,0-.012.773,1.766,1.766,0,0,0,.387,1.084A1.242,1.242,0,0,0,47.76-.762ZM52.383,0H51.328l1.1-6.34h1.055Zm.873-8.654a.58.58,0,0,1,.448.161.6.6,0,0,1,.179.454.637.637,0,0,1-.179.451.642.642,0,0,1-.448.188.584.584,0,0,1-.451-.158A.573.573,0,0,1,52.635-8a.665.665,0,0,1,.176-.457A.62.62,0,0,1,53.256-8.654Zm4.383,2.2A2.285,2.285,0,0,1,59-6.023a2.464,2.464,0,0,1,.841,1.163,3.6,3.6,0,0,1,.185,1.62l-.012.129a4.264,4.264,0,0,1-.551,1.673A3.232,3.232,0,0,1,58.33-.275,2.772,2.772,0,0,1,56.8.117a2.289,2.289,0,0,1-1.362-.434A2.408,2.408,0,0,1,54.6-1.465a3.7,3.7,0,0,1-.187-1.6,4.32,4.32,0,0,1,.533-1.77A3.307,3.307,0,0,1,56.095-6.05,2.739,2.739,0,0,1,57.639-6.457Zm-2.156,3.4a3.6,3.6,0,0,0,0,.768,1.88,1.88,0,0,0,.413,1.1,1.24,1.24,0,0,0,.946.428,1.69,1.69,0,0,0,.973-.261,2.189,2.189,0,0,0,.75-.841,3.541,3.541,0,0,0,.393-1.248,5.621,5.621,0,0,0,.018-.908,1.952,1.952,0,0,0-.428-1.119,1.268,1.268,0,0,0-.949-.434,1.728,1.728,0,0,0-1.395.645,3.184,3.184,0,0,0-.709,1.734ZM58.541-9h1.354L58.1-7.277l-.932,0Zm4.377,2.654-.152.8a2.5,2.5,0,0,1,1.945-.914,1.573,1.573,0,0,1,1.324.621,2.413,2.413,0,0,1,.316,1.682L65.66,0H64.6l.7-4.167A2.222,2.222,0,0,0,65.3-4.7a.876.876,0,0,0-.967-.837A2,2,0,0,0,62.66-4.519L61.875,0H60.814l1.1-6.34Zm7.623,3.164a4.933,4.933,0,0,1,.533-1.746A3.023,3.023,0,0,1,72.1-6.094a2.345,2.345,0,0,1,1.342-.369,1.98,1.98,0,0,1,1.629.773L75.68-9H76.74L75.182,0h-.967l.111-.68a2.337,2.337,0,0,1-1.852.8,1.751,1.751,0,0,1-1.4-.688,3,3,0,0,1-.562-1.784A5.7,5.7,0,0,1,70.541-3.182Zm1.02.606a2.2,2.2,0,0,0,.3,1.3,1.078,1.078,0,0,0,.926.474,1.916,1.916,0,0,0,1.635-.925l.5-2.926a1.316,1.316,0,0,0-1.277-.89,1.607,1.607,0,0,0-1.1.377,2.442,2.442,0,0,0-.727,1.106A4.561,4.561,0,0,0,71.561-2.576ZM79.6.117a2.286,2.286,0,0,1-1.852-.873,3,3,0,0,1-.562-2.174l.029-.252a4.218,4.218,0,0,1,.56-1.723A3.254,3.254,0,0,1,78.9-6.079a2.618,2.618,0,0,1,1.43-.378,2.016,2.016,0,0,1,1.535.65,2.675,2.675,0,0,1,.609,1.7,4.966,4.966,0,0,1-.023.762l-.064.486H78.24a2.142,2.142,0,0,0,.284,1.465,1.346,1.346,0,0,0,1.163.627,2.255,2.255,0,0,0,1.734-.844l.609.516A2.789,2.789,0,0,1,81-.2,2.914,2.914,0,0,1,79.6.117Zm.674-5.689a1.549,1.549,0,0,0-1.146.445,3.165,3.165,0,0,0-.776,1.377l3.082.006.023-.094a1.734,1.734,0,0,0-.237-1.228A1.116,1.116,0,0,0,80.273-5.572ZM87.17,0H86.115l1.559-9h1.061Zm5.256-6.457a2.285,2.285,0,0,1,1.365.434,2.464,2.464,0,0,1,.841,1.163,3.6,3.6,0,0,1,.185,1.62l-.012.129a4.264,4.264,0,0,1-.551,1.673A3.232,3.232,0,0,1,93.117-.275a2.772,2.772,0,0,1-1.529.393,2.289,2.289,0,0,1-1.362-.434,2.408,2.408,0,0,1-.835-1.148,3.7,3.7,0,0,1-.187-1.6,4.32,4.32,0,0,1,.533-1.77A3.307,3.307,0,0,1,90.882-6.05,2.739,2.739,0,0,1,92.426-6.457Zm-2.156,3.4a3.6,3.6,0,0,0,0,.768,1.88,1.88,0,0,0,.413,1.1,1.24,1.24,0,0,0,.946.428,1.69,1.69,0,0,0,.973-.261,2.189,2.189,0,0,0,.75-.841,3.541,3.541,0,0,0,.393-1.248,5.621,5.621,0,0,0,.018-.908,1.952,1.952,0,0,0-.428-1.119,1.268,1.268,0,0,0-.949-.434,1.728,1.728,0,0,0-1.395.645,3.184,3.184,0,0,0-.709,1.734Zm9.258,1.342q.088-.656-.721-.926l-1.1-.322q-1.395-.48-1.348-1.594a1.756,1.756,0,0,1,.765-1.374,2.723,2.723,0,0,1,1.7-.524,2.27,2.27,0,0,1,1.562.56,1.773,1.773,0,0,1,.577,1.427l-1.055-.006a.989.989,0,0,0-.3-.773,1.182,1.182,0,0,0-.826-.311,1.544,1.544,0,0,0-.949.27.987.987,0,0,0-.428.691q-.076.551.674.8l.533.146a3.433,3.433,0,0,1,1.547.732,1.4,1.4,0,0,1,.422,1.119A1.778,1.778,0,0,1,100.2-.768a2.211,2.211,0,0,1-.937.671A3.135,3.135,0,0,1,98.01.117a2.473,2.473,0,0,1-1.664-.589,1.82,1.82,0,0,1-.633-1.485l1.061.006a1.124,1.124,0,0,0,.34.855,1.3,1.3,0,0,0,.932.322,1.827,1.827,0,0,0,1-.243A.936.936,0,0,0,99.527-1.717Zm7.752.955a1.609,1.609,0,0,0,1.025-.331,1.575,1.575,0,0,0,.6-.9l1-.006a2.261,2.261,0,0,1-.478,1.09,2.665,2.665,0,0,1-.981.768,2.663,2.663,0,0,1-1.213.258A2.263,2.263,0,0,1,105.894-.3a2.313,2.313,0,0,1-.806-1.119,3.729,3.729,0,0,1-.176-1.614l.029-.293a4.2,4.2,0,0,1,.533-1.635,3.083,3.083,0,0,1,1.1-1.122,2.736,2.736,0,0,1,1.5-.378,2.143,2.143,0,0,1,1.594.668,2.31,2.31,0,0,1,.6,1.635l-.99-.006a1.522,1.522,0,0,0-.346-1,1.205,1.205,0,0,0-.9-.407,1.69,1.69,0,0,0-1.374.615,3.223,3.223,0,0,0-.683,1.77l-.018.152a5.082,5.082,0,0,0-.012.773,1.766,1.766,0,0,0,.387,1.084A1.242,1.242,0,0,0,107.279-.762Zm7-5.7a2.285,2.285,0,0,1,1.365.434,2.464,2.464,0,0,1,.841,1.163,3.6,3.6,0,0,1,.185,1.62l-.012.129a4.264,4.264,0,0,1-.551,1.673,3.232,3.232,0,0,1-1.137,1.163,2.772,2.772,0,0,1-1.529.393,2.289,2.289,0,0,1-1.362-.434,2.408,2.408,0,0,1-.835-1.148,3.7,3.7,0,0,1-.187-1.6,4.32,4.32,0,0,1,.533-1.77,3.307,3.307,0,0,1,1.146-1.216A2.739,2.739,0,0,1,114.275-6.457Zm-2.156,3.4a3.6,3.6,0,0,0,0,.768,1.88,1.88,0,0,0,.413,1.1,1.24,1.24,0,0,0,.946.428,1.69,1.69,0,0,0,.973-.261,2.189,2.189,0,0,0,.75-.841,3.541,3.541,0,0,0,.393-1.248,5.621,5.621,0,0,0,.018-.908,1.952,1.952,0,0,0-.428-1.119,1.268,1.268,0,0,0-.949-.434,1.728,1.728,0,0,0-1.395.645,3.184,3.184,0,0,0-.709,1.734Zm9.258,1.342q.088-.656-.721-.926l-1.1-.322q-1.395-.48-1.348-1.594a1.756,1.756,0,0,1,.765-1.374,2.723,2.723,0,0,1,1.7-.524,2.27,2.27,0,0,1,1.562.56,1.773,1.773,0,0,1,.577,1.427l-1.055-.006a.989.989,0,0,0-.3-.773,1.182,1.182,0,0,0-.826-.311,1.544,1.544,0,0,0-.949.27.987.987,0,0,0-.428.691q-.076.551.674.8l.533.146a3.433,3.433,0,0,1,1.547.732,1.4,1.4,0,0,1,.422,1.119,1.778,1.778,0,0,1-.387,1.031,2.211,2.211,0,0,1-.937.671,3.135,3.135,0,0,1-1.248.214A2.473,2.473,0,0,1,118.2-.472a1.82,1.82,0,0,1-.633-1.485l1.061.006a1.124,1.124,0,0,0,.34.855,1.3,1.3,0,0,0,.932.322,1.827,1.827,0,0,0,1-.243A.936.936,0,0,0,121.377-1.717Zm4.934-6.158-.27,1.535H127.2l-.146.838H125.9l-.662,3.943a1.375,1.375,0,0,0-.006.281.447.447,0,0,0,.5.457,3.037,3.037,0,0,0,.516-.059l-.082.885a2.885,2.885,0,0,1-.773.105,1.107,1.107,0,0,1-.949-.466,1.8,1.8,0,0,1-.246-1.222L124.84-5.5h-1.119l.146-.838h1.119l.27-1.535Zm4.465,1.418a2.285,2.285,0,0,1,1.365.434,2.464,2.464,0,0,1,.841,1.163,3.6,3.6,0,0,1,.185,1.62l-.012.129a4.264,4.264,0,0,1-.551,1.673,3.232,3.232,0,0,1-1.137,1.163,2.772,2.772,0,0,1-1.529.393,2.289,2.289,0,0,1-1.362-.434,2.408,2.408,0,0,1-.835-1.148,3.7,3.7,0,0,1-.187-1.6,4.32,4.32,0,0,1,.533-1.77,3.307,3.307,0,0,1,1.146-1.216A2.739,2.739,0,0,1,130.775-6.457Zm-2.156,3.4a3.6,3.6,0,0,0,0,.768,1.88,1.88,0,0,0,.413,1.1,1.24,1.24,0,0,0,.946.428,1.69,1.69,0,0,0,.973-.261,2.189,2.189,0,0,0,.75-.841,3.541,3.541,0,0,0,.393-1.248,5.621,5.621,0,0,0,.018-.908,1.952,1.952,0,0,0-.428-1.119,1.268,1.268,0,0,0-.949-.434,1.728,1.728,0,0,0-1.395.645,3.184,3.184,0,0,0-.709,1.734Zm9.258,1.342q.088-.656-.721-.926l-1.1-.322q-1.395-.48-1.348-1.594a1.756,1.756,0,0,1,.765-1.374,2.723,2.723,0,0,1,1.7-.524,2.27,2.27,0,0,1,1.562.56,1.773,1.773,0,0,1,.577,1.427l-1.055-.006a.989.989,0,0,0-.3-.773,1.182,1.182,0,0,0-.826-.311,1.544,1.544,0,0,0-.949.27.987.987,0,0,0-.428.691q-.076.551.674.8l.533.146a3.433,3.433,0,0,1,1.547.732,1.4,1.4,0,0,1,.422,1.119,1.778,1.778,0,0,1-.387,1.031,2.211,2.211,0,0,1-.937.671,3.135,3.135,0,0,1-1.248.214A2.473,2.473,0,0,1,134.7-.472a1.82,1.82,0,0,1-.633-1.485l1.061.006a1.124,1.124,0,0,0,.34.855,1.3,1.3,0,0,0,.932.322,1.827,1.827,0,0,0,1-.243A.936.936,0,0,0,137.877-1.717Zm5.379-1.465a4.933,4.933,0,0,1,.533-1.746,3.023,3.023,0,0,1,1.025-1.166,2.345,2.345,0,0,1,1.342-.369,1.98,1.98,0,0,1,1.629.773L148.395-9h1.061L147.9,0h-.967l.111-.68a2.337,2.337,0,0,1-1.852.8,1.751,1.751,0,0,1-1.4-.688,3,3,0,0,1-.562-1.784A5.7,5.7,0,0,1,143.256-3.182Zm1.02.606a2.2,2.2,0,0,0,.3,1.3A1.078,1.078,0,0,0,145.5-.8a1.916,1.916,0,0,0,1.635-.925l.5-2.926a1.316,1.316,0,0,0-1.277-.89,1.607,1.607,0,0,0-1.1.377,2.442,2.442,0,0,0-.727,1.106A4.561,4.561,0,0,0,144.275-2.576ZM152.314.117a2.286,2.286,0,0,1-1.852-.873A3,3,0,0,1,149.9-2.93l.029-.252a4.218,4.218,0,0,1,.56-1.723,3.254,3.254,0,0,1,1.122-1.175,2.618,2.618,0,0,1,1.43-.378,2.016,2.016,0,0,1,1.535.65,2.675,2.675,0,0,1,.609,1.7,4.966,4.966,0,0,1-.023.762l-.064.486h-4.143a2.142,2.142,0,0,0,.284,1.465,1.346,1.346,0,0,0,1.163.627,2.255,2.255,0,0,0,1.734-.844l.609.516a2.789,2.789,0,0,1-1.028.9A2.914,2.914,0,0,1,152.314.117Zm.674-5.689a1.549,1.549,0,0,0-1.146.445,3.165,3.165,0,0,0-.776,1.377l3.082.006.023-.094a1.734,1.734,0,0,0-.237-1.228A1.116,1.116,0,0,0,152.988-5.572Zm11.49,2.432a5.03,5.03,0,0,1-.521,1.74,2.962,2.962,0,0,1-1,1.157,2.293,2.293,0,0,1-1.324.366,2.111,2.111,0,0,1-1.687-.744l-.568,3.059h-1.061l1.523-8.777.961-.006-.117.709a2.4,2.4,0,0,1,1.881-.82,1.768,1.768,0,0,1,1.424.674,2.966,2.966,0,0,1,.539,1.793,6.31,6.31,0,0,1-.029.727Zm-1.043-.12.029-.492a2.226,2.226,0,0,0-.325-1.308,1.143,1.143,0,0,0-.94-.477,1.881,1.881,0,0,0-1.588.872l-.533,3.037a1.327,1.327,0,0,0,1.283.866,1.668,1.668,0,0,0,1.345-.617A3.583,3.583,0,0,0,163.436-3.261Zm5.836-2.112-.5-.053a1.815,1.815,0,0,0-1.605.92L166.389,0h-1.061l1.1-6.34,1.025-.006-.158.738a1.9,1.9,0,0,1,1.588-.861,1.945,1.945,0,0,1,.5.088Zm3.457-1.084a2.285,2.285,0,0,1,1.365.434,2.464,2.464,0,0,1,.841,1.163,3.6,3.6,0,0,1,.185,1.62l-.012.129a4.264,4.264,0,0,1-.551,1.673A3.232,3.232,0,0,1,173.42-.275a2.772,2.772,0,0,1-1.529.393,2.289,2.289,0,0,1-1.362-.434,2.408,2.408,0,0,1-.835-1.148,3.7,3.7,0,0,1-.187-1.6,4.32,4.32,0,0,1,.533-1.77,3.307,3.307,0,0,1,1.146-1.216A2.739,2.739,0,0,1,172.729-6.457Zm-2.156,3.4a3.6,3.6,0,0,0,0,.768,1.88,1.88,0,0,0,.413,1.1,1.24,1.24,0,0,0,.946.428,1.69,1.69,0,0,0,.973-.261,2.189,2.189,0,0,0,.75-.841,3.541,3.541,0,0,0,.393-1.248,5.621,5.621,0,0,0,.018-.908,1.952,1.952,0,0,0-.428-1.119,1.268,1.268,0,0,0-.949-.434,1.728,1.728,0,0,0-1.395.645,3.184,3.184,0,0,0-.709,1.734Zm5.637-.123a4.933,4.933,0,0,1,.533-1.746,3.023,3.023,0,0,1,1.025-1.166,2.345,2.345,0,0,1,1.342-.369,1.98,1.98,0,0,1,1.629.773L181.348-9h1.061L180.85,0h-.967l.111-.68a2.337,2.337,0,0,1-1.852.8,1.751,1.751,0,0,1-1.4-.688,3,3,0,0,1-.562-1.784A5.7,5.7,0,0,1,176.209-3.182Zm1.02.606a2.2,2.2,0,0,0,.3,1.3,1.078,1.078,0,0,0,.926.474,1.916,1.916,0,0,0,1.635-.925l.5-2.926a1.316,1.316,0,0,0-1.277-.89,1.607,1.607,0,0,0-1.1.377,2.442,2.442,0,0,0-.727,1.106A4.561,4.561,0,0,0,177.229-2.576Zm9.322,1.949a2.448,2.448,0,0,1-1.893.744,1.58,1.58,0,0,1-1.345-.65,2.487,2.487,0,0,1-.325-1.711l.68-4.1h1.061l-.686,4.113a2.732,2.732,0,0,0-.012.5,1.049,1.049,0,0,0,.252.662A.86.86,0,0,0,184.9-.8a1.9,1.9,0,0,0,1.758-.92l.8-4.617h1.061L187.418,0h-1Zm5.127-.135a1.609,1.609,0,0,0,1.025-.331,1.575,1.575,0,0,0,.6-.9l1-.006a2.261,2.261,0,0,1-.478,1.09,2.665,2.665,0,0,1-.981.768,2.663,2.663,0,0,1-1.213.258A2.263,2.263,0,0,1,190.292-.3a2.313,2.313,0,0,1-.806-1.119,3.729,3.729,0,0,1-.176-1.614l.029-.293a4.2,4.2,0,0,1,.533-1.635,3.083,3.083,0,0,1,1.1-1.122,2.736,2.736,0,0,1,1.5-.378,2.143,2.143,0,0,1,1.594.668,2.31,2.31,0,0,1,.6,1.635l-.99-.006a1.522,1.522,0,0,0-.346-1,1.205,1.205,0,0,0-.9-.407,1.69,1.69,0,0,0-1.374.615,3.223,3.223,0,0,0-.683,1.77l-.018.152a5.082,5.082,0,0,0-.012.773,1.766,1.766,0,0,0,.387,1.084A1.242,1.242,0,0,0,191.678-.762Zm6.152,0a1.609,1.609,0,0,0,1.025-.331,1.575,1.575,0,0,0,.6-.9l1-.006a2.261,2.261,0,0,1-.478,1.09A2.665,2.665,0,0,1,199-.141a2.663,2.663,0,0,1-1.213.258A2.263,2.263,0,0,1,196.444-.3a2.313,2.313,0,0,1-.806-1.119,3.729,3.729,0,0,1-.176-1.614l.029-.293a4.2,4.2,0,0,1,.533-1.635,3.083,3.083,0,0,1,1.1-1.122,2.736,2.736,0,0,1,1.5-.378,2.143,2.143,0,0,1,1.594.668,2.31,2.31,0,0,1,.6,1.635l-.99-.006a1.522,1.522,0,0,0-.346-1,1.205,1.205,0,0,0-.9-.407,1.69,1.69,0,0,0-1.374.615,3.223,3.223,0,0,0-.683,1.77l-.018.152a5.082,5.082,0,0,0-.012.773,1.766,1.766,0,0,0,.387,1.084A1.242,1.242,0,0,0,197.83-.762ZM202.453,0H201.4l1.1-6.34h1.055Zm.873-8.654a.58.58,0,0,1,.448.161.6.6,0,0,1,.179.454.637.637,0,0,1-.179.451.642.642,0,0,1-.448.188.584.584,0,0,1-.451-.158.573.573,0,0,1-.17-.445.665.665,0,0,1,.176-.457A.62.62,0,0,1,203.326-8.654Zm4.383,2.2a2.285,2.285,0,0,1,1.365.434,2.464,2.464,0,0,1,.841,1.163,3.6,3.6,0,0,1,.185,1.62l-.012.129a4.264,4.264,0,0,1-.551,1.673A3.232,3.232,0,0,1,208.4-.275a2.772,2.772,0,0,1-1.529.393,2.289,2.289,0,0,1-1.362-.434,2.408,2.408,0,0,1-.835-1.148,3.7,3.7,0,0,1-.187-1.6,4.32,4.32,0,0,1,.533-1.77,3.307,3.307,0,0,1,1.146-1.216A2.739,2.739,0,0,1,207.709-6.457Zm-2.156,3.4a3.6,3.6,0,0,0,0,.768,1.88,1.88,0,0,0,.413,1.1,1.24,1.24,0,0,0,.946.428,1.69,1.69,0,0,0,.973-.261,2.189,2.189,0,0,0,.75-.841,3.541,3.541,0,0,0,.393-1.248,5.621,5.621,0,0,0,.018-.908,1.952,1.952,0,0,0-.428-1.119,1.268,1.268,0,0,0-.949-.434,1.728,1.728,0,0,0-1.395.645,3.184,3.184,0,0,0-.709,1.734ZM208.611-9h1.354l-1.793,1.723-.932,0Zm4.377,2.654-.152.8a2.5,2.5,0,0,1,1.945-.914,1.573,1.573,0,0,1,1.324.621,2.413,2.413,0,0,1,.316,1.682L215.73,0H214.67l.7-4.167a2.222,2.222,0,0,0,.006-.533.876.876,0,0,0-.967-.837,2,2,0,0,0-1.676,1.018L211.945,0h-1.061l1.1-6.34Zm5.156,5.115a.635.635,0,0,1,.475.176.605.605,0,0,1,.182.469.633.633,0,0,1-.193.466.7.7,0,0,1-.469.19.605.605,0,0,1-.463-.161.605.605,0,0,1-.182-.46.664.664,0,0,1,.182-.478A.658.658,0,0,1,218.145-1.23Z" transform="translate(3161.013 -8247.469)" fill="#12263f"/>
    <rect id="Rectángulo_349522" data-name="Rectángulo 349522" width="244.835" height="88.416" rx="26" transform="translate(3168.779 -7950.772)" fill="#b20d0d"/>
    <text id="_" data-name="
" transform="translate(3143.388 -7553.164)" fill="#12263f" font-size="13" font-family="Roboto-Black, Roboto" font-weight="800"><tspan x="0" y="0"></tspan><tspan x="0" y="19"></tspan></text>
    <path id="Trazado_715023" data-name="Trazado 715023" d="M3.8-4.12A5.731,5.731,0,0,1,1.514-5.227,2.116,2.116,0,0,1,.8-6.849a2.236,2.236,0,0,1,.873-1.806,3.469,3.469,0,0,1,2.269-.714A3.786,3.786,0,0,1,5.64-9,2.792,2.792,0,0,1,6.8-7.985,2.6,2.6,0,0,1,7.2-6.57H5.979a1.69,1.69,0,0,0-.533-1.322,2.168,2.168,0,0,0-1.5-.481,2.22,2.22,0,0,0-1.406.4,1.326,1.326,0,0,0-.5,1.1,1.193,1.193,0,0,0,.479.957A4.7,4.7,0,0,0,4.142-5.2a7.569,7.569,0,0,1,1.8.715,2.736,2.736,0,0,1,.965.911,2.325,2.325,0,0,1,.314,1.225,2.159,2.159,0,0,1-.876,1.8A3.735,3.735,0,0,1,4.005.127,4.344,4.344,0,0,1,2.228-.238a2.991,2.991,0,0,1-1.273-1A2.44,2.44,0,0,1,.508-2.679H1.733a1.592,1.592,0,0,0,.619,1.323A2.606,2.606,0,0,0,4.005-.87a2.4,2.4,0,0,0,1.479-.394A1.278,1.278,0,0,0,6-2.336a1.255,1.255,0,0,0-.476-1.051A5.489,5.489,0,0,0,3.8-4.12ZM11.451.127A3,3,0,0,1,9.179-.79,3.4,3.4,0,0,1,8.3-3.244v-.216a4.121,4.121,0,0,1,.39-1.825A3.045,3.045,0,0,1,9.785-6.541,2.745,2.745,0,0,1,11.305-7a2.572,2.572,0,0,1,2.082.882,3.82,3.82,0,0,1,.743,2.526V-3.1H9.477a2.441,2.441,0,0,0,.594,1.641,1.866,1.866,0,0,0,1.444.625,2.045,2.045,0,0,0,1.054-.254,2.648,2.648,0,0,0,.755-.673l.717.559A2.884,2.884,0,0,1,11.451.127ZM11.305-6.03a1.566,1.566,0,0,0-1.193.517,2.515,2.515,0,0,0-.6,1.45h3.44v-.089a2.237,2.237,0,0,0-.482-1.387A1.475,1.475,0,0,0,11.305-6.03Zm3.9,2.539a4.037,4.037,0,0,1,.743-2.555A2.375,2.375,0,0,1,17.919-7a2.363,2.363,0,0,1,1.961.889l.057-.762h1.073v6.7a2.794,2.794,0,0,1-.79,2.1A2.916,2.916,0,0,1,18.1,2.7a3.532,3.532,0,0,1-1.454-.317,2.5,2.5,0,0,1-1.085-.87l.609-.7a2.3,2.3,0,0,0,1.847.933,1.8,1.8,0,0,0,1.336-.482A1.844,1.844,0,0,0,19.83-.1v-.59a2.414,2.414,0,0,1-1.923.813,2.346,2.346,0,0,1-1.952-.971A4.244,4.244,0,0,1,15.209-3.491Zm1.181.133a3.08,3.08,0,0,0,.476,1.825A1.547,1.547,0,0,0,18.2-.87,1.72,1.72,0,0,0,19.83-1.879V-5.015A1.74,1.74,0,0,0,18.211-6a1.561,1.561,0,0,0-1.339.667A3.354,3.354,0,0,0,16.39-3.358ZM27.022-.679A2.494,2.494,0,0,1,25.01.127a2.135,2.135,0,0,1-1.673-.638A2.761,2.761,0,0,1,22.756-2.4V-6.868h1.174v4.437q0,1.562,1.27,1.562a1.758,1.758,0,0,0,1.79-1v-5h1.174V0H27.047ZM26.07-9.75h1.422l-1.7,1.866-.946,0Zm4.989,2.882L31.1-6A2.5,2.5,0,0,1,33.154-7q2.177,0,2.2,2.457V0H34.176V-4.545a1.581,1.581,0,0,0-.34-1.1A1.361,1.361,0,0,0,32.8-6a1.7,1.7,0,0,0-1,.3,2.069,2.069,0,0,0-.673.8V0H29.948V-6.868Z" transform="translate(3267.941 -7806.71)" fill="#12263f"/>
    <path id="Trazado_715024" data-name="Trazado 715024" d="M3.8-4.12A5.731,5.731,0,0,1,1.514-5.227,2.116,2.116,0,0,1,.8-6.849a2.236,2.236,0,0,1,.873-1.806,3.469,3.469,0,0,1,2.269-.714A3.786,3.786,0,0,1,5.64-9,2.792,2.792,0,0,1,6.8-7.985,2.6,2.6,0,0,1,7.2-6.57H5.979a1.69,1.69,0,0,0-.533-1.322,2.168,2.168,0,0,0-1.5-.481,2.22,2.22,0,0,0-1.406.4,1.326,1.326,0,0,0-.5,1.1,1.193,1.193,0,0,0,.479.957A4.7,4.7,0,0,0,4.142-5.2a7.569,7.569,0,0,1,1.8.715,2.736,2.736,0,0,1,.965.911,2.325,2.325,0,0,1,.314,1.225,2.159,2.159,0,0,1-.876,1.8A3.735,3.735,0,0,1,4.005.127,4.344,4.344,0,0,1,2.228-.238a2.991,2.991,0,0,1-1.273-1A2.44,2.44,0,0,1,.508-2.679H1.733a1.592,1.592,0,0,0,.619,1.323A2.606,2.606,0,0,0,4.005-.87a2.4,2.4,0,0,0,1.479-.394A1.278,1.278,0,0,0,6-2.336a1.255,1.255,0,0,0-.476-1.051A5.489,5.489,0,0,0,3.8-4.12ZM11.451.127A3,3,0,0,1,9.179-.79,3.4,3.4,0,0,1,8.3-3.244v-.216a4.121,4.121,0,0,1,.39-1.825A3.045,3.045,0,0,1,9.785-6.541,2.745,2.745,0,0,1,11.305-7a2.572,2.572,0,0,1,2.082.882,3.82,3.82,0,0,1,.743,2.526V-3.1H9.477a2.441,2.441,0,0,0,.594,1.641,1.866,1.866,0,0,0,1.444.625,2.045,2.045,0,0,0,1.054-.254,2.648,2.648,0,0,0,.755-.673l.717.559A2.884,2.884,0,0,1,11.451.127ZM11.305-6.03a1.566,1.566,0,0,0-1.193.517,2.515,2.515,0,0,0-.6,1.45h3.44v-.089a2.237,2.237,0,0,0-.482-1.387A1.475,1.475,0,0,0,11.305-6.03Zm3.9,2.539a4.037,4.037,0,0,1,.743-2.555A2.375,2.375,0,0,1,17.919-7a2.363,2.363,0,0,1,1.961.889l.057-.762h1.073v6.7a2.794,2.794,0,0,1-.79,2.1A2.916,2.916,0,0,1,18.1,2.7a3.532,3.532,0,0,1-1.454-.317,2.5,2.5,0,0,1-1.085-.87l.609-.7a2.3,2.3,0,0,0,1.847.933,1.8,1.8,0,0,0,1.336-.482A1.844,1.844,0,0,0,19.83-.1v-.59a2.414,2.414,0,0,1-1.923.813,2.346,2.346,0,0,1-1.952-.971A4.244,4.244,0,0,1,15.209-3.491Zm1.181.133a3.08,3.08,0,0,0,.476,1.825A1.547,1.547,0,0,0,18.2-.87,1.72,1.72,0,0,0,19.83-1.879V-5.015A1.74,1.74,0,0,0,18.211-6a1.561,1.561,0,0,0-1.339.667A3.354,3.354,0,0,0,16.39-3.358ZM27.022-.679A2.494,2.494,0,0,1,25.01.127a2.135,2.135,0,0,1-1.673-.638A2.761,2.761,0,0,1,22.756-2.4V-6.868h1.174v4.437q0,1.562,1.27,1.562a1.758,1.758,0,0,0,1.79-1v-5h1.174V0H27.047ZM26.07-9.75h1.422l-1.7,1.866-.946,0Zm4.989,2.882L31.1-6A2.5,2.5,0,0,1,33.154-7q2.177,0,2.2,2.457V0H34.176V-4.545a1.581,1.581,0,0,0-.34-1.1A1.361,1.361,0,0,0,32.8-6a1.7,1.7,0,0,0-1,.3,2.069,2.069,0,0,0-.673.8V0H29.948V-6.868Z" transform="translate(3397.11 -7812.273)" fill="#12263f"/>
    <path id="Trazado_715022" data-name="Trazado 715022" d="M4.088-4.437A6.172,6.172,0,0,1,1.63-5.629,2.279,2.279,0,0,1,.861-7.376,2.408,2.408,0,0,1,1.8-9.321a3.736,3.736,0,0,1,2.444-.769,4.078,4.078,0,0,1,1.829.4A3.007,3.007,0,0,1,7.318-8.6a2.8,2.8,0,0,1,.441,1.524H6.439A1.82,1.82,0,0,0,5.865-8.5a2.335,2.335,0,0,0-1.62-.518,2.391,2.391,0,0,0-1.514.428A1.428,1.428,0,0,0,2.188-7.4,1.285,1.285,0,0,0,2.7-6.37,5.062,5.062,0,0,0,4.46-5.6,8.152,8.152,0,0,1,6.4-4.83a2.946,2.946,0,0,1,1.039.981,2.5,2.5,0,0,1,.338,1.319A2.326,2.326,0,0,1,6.836-.591,4.022,4.022,0,0,1,4.313.137,4.678,4.678,0,0,1,2.4-.256,3.221,3.221,0,0,1,1.029-1.333,2.627,2.627,0,0,1,.547-2.885H1.866a1.714,1.714,0,0,0,.667,1.425,2.806,2.806,0,0,0,1.781.523A2.58,2.58,0,0,0,5.906-1.36,1.377,1.377,0,0,0,6.46-2.516a1.351,1.351,0,0,0-.513-1.131A5.911,5.911,0,0,0,4.088-4.437ZM12.332.137A3.232,3.232,0,0,1,9.885-.851a3.666,3.666,0,0,1-.943-2.642v-.232a4.438,4.438,0,0,1,.42-1.965,3.28,3.28,0,0,1,1.176-1.354,2.956,2.956,0,0,1,1.637-.489,2.77,2.77,0,0,1,2.242.95,4.114,4.114,0,0,1,.8,2.721v.526H10.206a2.629,2.629,0,0,0,.639,1.767A2.009,2.009,0,0,0,12.4-.9a2.2,2.2,0,0,0,1.135-.273,2.851,2.851,0,0,0,.813-.725l.772.6A3.106,3.106,0,0,1,12.332.137Zm-.157-6.631a1.687,1.687,0,0,0-1.285.557,2.708,2.708,0,0,0-.643,1.562h3.705v-.1a2.409,2.409,0,0,0-.52-1.494A1.588,1.588,0,0,0,12.175-6.494Zm4.2,2.734a4.347,4.347,0,0,1,.8-2.751A2.558,2.558,0,0,1,19.3-7.533a2.544,2.544,0,0,1,2.112.957l.062-.82h1.155V-.178a3.009,3.009,0,0,1-.851,2.263,3.141,3.141,0,0,1-2.287.827,3.8,3.8,0,0,1-1.565-.342,2.7,2.7,0,0,1-1.169-.937l.656-.759a2.473,2.473,0,0,0,1.989,1,1.938,1.938,0,0,0,1.439-.52A1.986,1.986,0,0,0,21.355-.1V-.738a2.6,2.6,0,0,1-2.071.875,2.527,2.527,0,0,1-2.1-1.046A4.571,4.571,0,0,1,16.379-3.76Zm1.271.144a3.316,3.316,0,0,0,.513,1.965A1.666,1.666,0,0,0,19.6-.937a1.852,1.852,0,0,0,1.757-1.087V-5.4a1.874,1.874,0,0,0-1.743-1.06,1.681,1.681,0,0,0-1.442.718A3.612,3.612,0,0,0,17.65-3.616ZM29.1-.731a2.686,2.686,0,0,1-2.167.868,2.3,2.3,0,0,1-1.8-.687,2.974,2.974,0,0,1-.625-2.034V-7.4h1.265v4.778q0,1.682,1.367,1.682a1.893,1.893,0,0,0,1.928-1.08V-7.4h1.265V0h-1.2ZM28.075-10.5h1.531L27.774-8.49l-1.019,0Zm5.373,3.1.041.93A2.7,2.7,0,0,1,35.7-7.533q2.345,0,2.365,2.646V0H36.8V-4.895a1.7,1.7,0,0,0-.366-1.183,1.466,1.466,0,0,0-1.118-.383,1.825,1.825,0,0,0-1.08.328,2.228,2.228,0,0,0-.725.861V0H32.252V-7.4Z" transform="translate(3148.567 -7812.87)" fill="#12263f"/>
    <g id="Grupo_992564" data-name="Grupo 992564" transform="translate(3273.448 -7862.805)">
      <ellipse id="Elipse_5678" data-name="Elipse 5678" cx="7.789" cy="7.789" rx="7.789" ry="7.789" transform="translate(2.921 0)" fill="#06d1d1"/>
      <line id="Línea_667" data-name="Línea 667" y2="31.294" transform="translate(11.684 11.684)" fill="none" stroke="#06d1d1" stroke-width="3"/>
      <line id="Línea_668" data-name="Línea 668" y2="31.294" transform="translate(11.684 71.394)" fill="none" stroke="#06d1d1" stroke-width="3"/>
      <path id="Trazado_706546" data-name="Trazado 706546" d="M790,1148.8l12.138,9.672,10.9-9.672" transform="translate(-790 -1055.783)" fill="none" stroke="#06d1d1" stroke-linecap="round" stroke-width="3"/>
    </g>
    <g id="Grupo_1003026" data-name="Grupo 1003026" transform="translate(3382.43 -7869.967) rotate(-21)">
      <ellipse id="Elipse_5678-2" data-name="Elipse 5678" cx="9.302" cy="9.302" rx="9.302" ry="9.302" transform="translate(3.488 0)" fill="#06d1d1"/>
      <line id="Línea_667-2" data-name="Línea 667" y2="37.371" transform="translate(13.953 13.953)" fill="none" stroke="#06d1d1" stroke-width="3"/>
      <line id="Línea_668-2" data-name="Línea 668" y2="37.371" transform="translate(13.953 85.258)" fill="none" stroke="#06d1d1" stroke-width="3"/>
      <path id="Trazado_706546-2" data-name="Trazado 706546" d="M0,0,14.5,11.55,27.518,0" transform="translate(0 111.079)" fill="none" stroke="#06d1d1" stroke-linecap="round" stroke-width="3"/>
    </g>
    <g id="Grupo_1003027" data-name="Grupo 1003027" transform="translate(3176.121 -7875.683) rotate(21)">
      <ellipse id="Elipse_5678-3" data-name="Elipse 5678" cx="8.699" cy="8.699" rx="8.699" ry="8.699" transform="translate(3.262 0)" fill="#06d1d1"/>
      <line id="Línea_667-3" data-name="Línea 667" y2="34.948" transform="translate(13.048 13.048)" fill="none" stroke="#06d1d1" stroke-width="3"/>
      <line id="Línea_668-3" data-name="Línea 668" y2="34.948" transform="translate(13.048 79.731)" fill="none" stroke="#06d1d1" stroke-width="3"/>
      <path id="Trazado_706546-3" data-name="Trazado 706546" d="M0,0,13.556,10.8,25.734,0" transform="translate(0 103.878)" fill="none" stroke="#06d1d1" stroke-linecap="round" stroke-width="3"/>
    </g>
    <path id="Trazado_715021" data-name="Trazado 715021" d="M16.3,12.667a4.673,4.673,0,0,1-.721,2.36,4.35,4.35,0,0,1-1.85,1.586,6.3,6.3,0,0,1-2.72.563,5.025,5.025,0,0,1-3.973-1.644,6.786,6.786,0,0,1-1.45-4.641v-.633A7.746,7.746,0,0,1,6.24,6.967a4.961,4.961,0,0,1,1.885-2.18,5.26,5.26,0,0,1,2.848-.769,5.516,5.516,0,0,1,3.744,1.226,4.844,4.844,0,0,1,1.608,3.379H13.249a2.292,2.292,0,0,0-.589-1.679,2.422,2.422,0,0,0-1.687-.51A1.843,1.843,0,0,0,9.285,7.3a5.536,5.536,0,0,0-.562,2.751v.905a6.126,6.126,0,0,0,.514,2.927,1.882,1.882,0,0,0,1.771.879,2.369,2.369,0,0,0,1.626-.5,2.126,2.126,0,0,0,.6-1.591ZM20.746,17H17.775V3.5h2.971Zm7.181,0a3.344,3.344,0,0,1-.281-.853,2.754,2.754,0,0,1-2.285,1.028,3.374,3.374,0,0,1-2.285-.813,2.588,2.588,0,0,1-.94-2.043,2.66,2.66,0,0,1,1.143-2.338A5.821,5.821,0,0,1,26.6,11.19h.914v-.5q0-1.316-1.134-1.316a.927.927,0,0,0-1.055,1.042H22.363a2.655,2.655,0,0,1,1.173-2.239,4.931,4.931,0,0,1,2.993-.86A4.323,4.323,0,0,1,29.4,8.2a3.086,3.086,0,0,1,1.081,2.435v4.21a4.311,4.311,0,0,0,.4,2V17Zm-1.854-1.934a1.652,1.652,0,0,0,.918-.237,1.487,1.487,0,0,0,.523-.536V12.772h-.861q-1.547,0-1.547,1.389a.848.848,0,0,0,.272.655A.986.986,0,0,0,26.072,15.066Zm11.03-.738a.684.684,0,0,0-.4-.606,6.016,6.016,0,0,0-1.5-.475,6.853,6.853,0,0,1-1.828-.646,3.062,3.062,0,0,1-1.1-.971,2.319,2.319,0,0,1-.378-1.31A2.628,2.628,0,0,1,32.98,8.163a4.453,4.453,0,0,1,2.83-.848,4.934,4.934,0,0,1,3.023.853,2.666,2.666,0,0,1,1.143,2.241H37.006q0-1.143-1.2-1.143a1.194,1.194,0,0,0-.782.259.8.8,0,0,0-.316.646.737.737,0,0,0,.387.642,3.654,3.654,0,0,0,1.235.4,10.671,10.671,0,0,1,1.49.378,2.706,2.706,0,0,1,2.145,2.646A2.491,2.491,0,0,1,38.8,16.358a5.068,5.068,0,0,1-2.993.817,5.172,5.172,0,0,1-2.18-.439,3.645,3.645,0,0,1-1.494-1.2A2.707,2.707,0,0,1,31.6,13.95h2.769a1.145,1.145,0,0,0,.439.962,1.808,1.808,0,0,0,1.081.3,1.422,1.422,0,0,0,.91-.246A.787.787,0,0,0,37.1,14.328ZM44.468,17H41.5V7.49h2.971ZM41.321,5.038A1.322,1.322,0,0,1,41.778,4a1.943,1.943,0,0,1,2.373,0,1.322,1.322,0,0,1,.457,1.037,1.322,1.322,0,0,1-.457,1.037,1.943,1.943,0,0,1-2.373,0A1.322,1.322,0,0,1,41.321,5.038ZM46.981,17V9.547H45.6V7.49h1.38V7.174a3.631,3.631,0,0,1,1.248-2.909,4.987,4.987,0,0,1,3.243-.949,11.509,11.509,0,0,1,3.094.51l-.4,2.338-.492-.132a7.832,7.832,0,0,0-2.021-.255q-1.7,0-1.7,1.547V7.49h1.863V9.547H49.952V17Zm8.947,0H52.949V7.49h2.979Zm5.827-2.109a1.317,1.317,0,0,0,.967-.338,1.241,1.241,0,0,0,.334-.945h2.777a3.288,3.288,0,0,1-1.121,2.566,4.168,4.168,0,0,1-2.887,1,4.22,4.22,0,0,1-3.27-1.3,5.125,5.125,0,0,1-1.2-3.6v-.123A5.792,5.792,0,0,1,57.893,9.6a3.872,3.872,0,0,1,1.534-1.7A4.573,4.573,0,0,1,61.8,7.314a4.116,4.116,0,0,1,2.944,1.028,3.647,3.647,0,0,1,1.09,2.786H63.057A1.626,1.626,0,0,0,62.7,10a1.244,1.244,0,0,0-.967-.4q-1.151,0-1.345,1.468a10.357,10.357,0,0,0-.062,1.283,4.068,4.068,0,0,0,.343,1.986A1.187,1.187,0,0,0,61.756,14.891ZM72.443,17a3.344,3.344,0,0,1-.281-.853,2.754,2.754,0,0,1-2.285,1.028,3.374,3.374,0,0,1-2.285-.813,2.588,2.588,0,0,1-.94-2.043,2.66,2.66,0,0,1,1.143-2.338,5.821,5.821,0,0,1,3.322-.791h.914v-.5q0-1.316-1.134-1.316a.927.927,0,0,0-1.055,1.042H66.88a2.655,2.655,0,0,1,1.173-2.239,4.931,4.931,0,0,1,2.993-.86A4.323,4.323,0,0,1,73.92,8.2,3.086,3.086,0,0,1,75,10.637v4.21a4.311,4.311,0,0,0,.4,2V17Zm-1.854-1.934a1.652,1.652,0,0,0,.918-.237,1.487,1.487,0,0,0,.523-.536V12.772h-.861q-1.547,0-1.547,1.389a.848.848,0,0,0,.272.655A.986.986,0,0,0,70.589,15.066Zm10.072-.176a1.317,1.317,0,0,0,.967-.338,1.241,1.241,0,0,0,.334-.945h2.777a3.288,3.288,0,0,1-1.121,2.566,4.168,4.168,0,0,1-2.887,1,4.22,4.22,0,0,1-3.27-1.3,5.125,5.125,0,0,1-1.2-3.6v-.123A5.792,5.792,0,0,1,76.8,9.6a3.872,3.872,0,0,1,1.534-1.7,4.573,4.573,0,0,1,2.373-.593,4.116,4.116,0,0,1,2.944,1.028,3.647,3.647,0,0,1,1.09,2.786H81.962A1.626,1.626,0,0,0,81.6,10a1.244,1.244,0,0,0-.967-.4q-1.151,0-1.345,1.468a10.357,10.357,0,0,0-.062,1.283,4.068,4.068,0,0,0,.343,1.986A1.187,1.187,0,0,0,80.661,14.891ZM89.116,17H86.146V7.49h2.971ZM85.97,5.038A1.322,1.322,0,0,1,86.427,4,1.943,1.943,0,0,1,88.8,4a1.322,1.322,0,0,1,.457,1.037A1.322,1.322,0,0,1,88.8,6.075a1.943,1.943,0,0,1-2.373,0A1.322,1.322,0,0,1,85.97,5.038Zm4.6,7.119a5.613,5.613,0,0,1,.554-2.536,3.96,3.96,0,0,1,1.591-1.709,4.791,4.791,0,0,1,2.435-.6,4.373,4.373,0,0,1,3.366,1.323,5.076,5.076,0,0,1,1.23,3.6v.105a4.925,4.925,0,0,1-1.235,3.529,4.384,4.384,0,0,1-3.344,1.305A4.434,4.434,0,0,1,91.9,15.958a4.761,4.761,0,0,1-1.327-3.3Zm2.962.185a3.538,3.538,0,0,0,.413,1.934,1.376,1.376,0,0,0,1.222.615q1.582,0,1.617-2.435v-.3q0-2.558-1.635-2.558-1.485,0-1.608,2.206ZM95.55,3.5h3.129L96.235,6.26l-2.417,0Zm8.218,3.99.1,1.116a3.225,3.225,0,0,1,2.716-1.292A2.713,2.713,0,0,1,108.8,8.2a4.226,4.226,0,0,1,.76,2.672V17h-2.971V11a1.6,1.6,0,0,0-.29-1.059,1.342,1.342,0,0,0-1.055-.338,1.413,1.413,0,0,0-1.292.686V17H100.99V7.49Zm11.54,4.685a5.809,5.809,0,0,1,.976-3.56,3.211,3.211,0,0,1,2.725-1.3,2.731,2.731,0,0,1,2.145,1V3.5h2.971V17H121.46l-.149-1.02a2.8,2.8,0,0,1-2.32,1.2,3.205,3.205,0,0,1-2.689-1.3A5.993,5.993,0,0,1,115.308,12.175Zm2.962.185q0,2.531,1.477,2.531a1.458,1.458,0,0,0,1.406-.826V10.443a1.419,1.419,0,0,0-1.389-.844q-1.371,0-1.485,2.215Zm12.138,4.816a4.889,4.889,0,0,1-3.542-1.305,4.507,4.507,0,0,1-1.354-3.4v-.246a5.84,5.84,0,0,1,.541-2.575,3.955,3.955,0,0,1,1.578-1.727,4.763,4.763,0,0,1,2.461-.611,4.117,4.117,0,0,1,3.164,1.244,4.887,4.887,0,0,1,1.16,3.467v1.151h-5.889a2.135,2.135,0,0,0,.694,1.257,2.066,2.066,0,0,0,1.389.457,2.662,2.662,0,0,0,2.2-.984l1.354,1.6a3.784,3.784,0,0,1-1.569,1.217A5.3,5.3,0,0,1,130.407,17.176ZM130.073,9.6q-1.3,0-1.547,1.723h2.988v-.229a1.467,1.467,0,0,0-.36-1.1A1.434,1.434,0,0,0,130.073,9.6ZM47.768,39.891a1.317,1.317,0,0,0,.967-.338,1.241,1.241,0,0,0,.334-.945h2.777a3.288,3.288,0,0,1-1.121,2.566,4.168,4.168,0,0,1-2.887,1,4.22,4.22,0,0,1-3.27-1.3,5.125,5.125,0,0,1-1.2-3.6v-.123a5.792,5.792,0,0,1,.532-2.544,3.872,3.872,0,0,1,1.534-1.7,4.573,4.573,0,0,1,2.373-.593,4.116,4.116,0,0,1,2.944,1.028,3.647,3.647,0,0,1,1.09,2.786H49.069A1.626,1.626,0,0,0,48.708,35a1.244,1.244,0,0,0-.967-.4q-1.151,0-1.345,1.468a10.357,10.357,0,0,0-.062,1.283,4.068,4.068,0,0,0,.343,1.986A1.187,1.187,0,0,0,47.768,39.891Zm4.957-2.733a5.613,5.613,0,0,1,.554-2.536,3.96,3.96,0,0,1,1.591-1.709,4.791,4.791,0,0,1,2.435-.6,4.373,4.373,0,0,1,3.366,1.323,5.076,5.076,0,0,1,1.23,3.6v.105a4.925,4.925,0,0,1-1.235,3.529,4.384,4.384,0,0,1-3.344,1.305,4.434,4.434,0,0,1-3.261-1.217,4.761,4.761,0,0,1-1.327-3.3Zm2.962.185a3.538,3.538,0,0,0,.413,1.934,1.376,1.376,0,0,0,1.222.615q1.582,0,1.617-2.435v-.3q0-2.558-1.635-2.558-1.485,0-1.608,2.206Zm12.5,1.986a.684.684,0,0,0-.4-.606,6.016,6.016,0,0,0-1.5-.475,6.853,6.853,0,0,1-1.828-.646,3.062,3.062,0,0,1-1.1-.971,2.319,2.319,0,0,1-.378-1.31,2.628,2.628,0,0,1,1.081-2.158,4.453,4.453,0,0,1,2.83-.848,4.934,4.934,0,0,1,3.023.853,2.666,2.666,0,0,1,1.143,2.241H68.088q0-1.143-1.2-1.143a1.194,1.194,0,0,0-.782.259.8.8,0,0,0-.316.646.737.737,0,0,0,.387.642,3.654,3.654,0,0,0,1.235.4,10.671,10.671,0,0,1,1.49.378,2.706,2.706,0,0,1,2.145,2.646,2.491,2.491,0,0,1-1.156,2.118,5.068,5.068,0,0,1-2.993.817,5.172,5.172,0,0,1-2.18-.439,3.645,3.645,0,0,1-1.494-1.2,2.707,2.707,0,0,1-.536-1.591h2.769a1.145,1.145,0,0,0,.439.962,1.808,1.808,0,0,0,1.081.3,1.422,1.422,0,0,0,.91-.246A.787.787,0,0,0,68.185,39.328Zm7.69-9.2V32.49H77.44v2.057H75.875V38.9a1.111,1.111,0,0,0,.193.747,1.037,1.037,0,0,0,.765.211,4.345,4.345,0,0,0,.738-.053v2.118a5.466,5.466,0,0,1-1.67.255,3.1,3.1,0,0,1-2.259-.721,2.954,2.954,0,0,1-.729-2.188v-4.72H71.7V32.49h1.213V30.126Zm2.092,7.031a5.613,5.613,0,0,1,.554-2.536,3.96,3.96,0,0,1,1.591-1.709,4.791,4.791,0,0,1,2.435-.6,4.373,4.373,0,0,1,3.366,1.323,5.076,5.076,0,0,1,1.23,3.6v.105a4.925,4.925,0,0,1-1.235,3.529,4.384,4.384,0,0,1-3.344,1.305A4.434,4.434,0,0,1,79.3,40.958a4.761,4.761,0,0,1-1.327-3.3Zm2.962.185a3.538,3.538,0,0,0,.413,1.934,1.376,1.376,0,0,0,1.222.615q1.582,0,1.617-2.435v-.3q0-2.558-1.635-2.558-1.485,0-1.608,2.206Zm12.5,1.986a.684.684,0,0,0-.4-.606,6.016,6.016,0,0,0-1.5-.475A6.853,6.853,0,0,1,89.7,37.6a3.062,3.062,0,0,1-1.1-.971,2.319,2.319,0,0,1-.378-1.31,2.628,2.628,0,0,1,1.081-2.158,4.453,4.453,0,0,1,2.83-.848,4.934,4.934,0,0,1,3.023.853A2.666,2.666,0,0,1,96.3,35.408H93.331q0-1.143-1.2-1.143a1.194,1.194,0,0,0-.782.259.8.8,0,0,0-.316.646.737.737,0,0,0,.387.642,3.654,3.654,0,0,0,1.235.4,10.671,10.671,0,0,1,1.49.378,2.706,2.706,0,0,1,2.145,2.646,2.491,2.491,0,0,1-1.156,2.118,5.068,5.068,0,0,1-2.993.817,5.172,5.172,0,0,1-2.18-.439,3.645,3.645,0,0,1-1.494-1.2,2.707,2.707,0,0,1-.536-1.591h2.769a1.145,1.145,0,0,0,.439.962,1.808,1.808,0,0,0,1.081.3,1.422,1.422,0,0,0,.91-.246A.787.787,0,0,0,93.427,39.328Z" transform="translate(3217.05 -7926.85)" fill="#fff"/>
    <g id="Grupo_997555" data-name="Grupo 997555" transform="translate(3313.505 -7635.49) rotate(124)">
      <path id="Trazado_706547" data-name="Trazado 706547" d="M0,56.764s4.916-28.7,36.351-31.433S79.142,0,79.142,0" transform="matrix(0.985, 0.174, -0.174, 0.985, 9.857, 0)" fill="none" stroke="#06d1d1" stroke-width="3"/>
      <path id="Trazado_706549" data-name="Trazado 706549" d="M0,12.848,9.6,0l8.623,12.848" transform="matrix(0.485, 0.875, -0.875, 0.485, 84.767, 5.877)" fill="none" stroke="#06d1d1" stroke-linecap="round" stroke-width="3"/>
    </g>
    <g id="Grupo_1003031" data-name="Grupo 1003031" transform="translate(3485.4 -7635.49) rotate(124)">
      <path id="Trazado_706547-2" data-name="Trazado 706547" d="M0,56.764s4.916-28.7,36.351-31.433S79.142,0,79.142,0" transform="matrix(0.985, 0.174, -0.174, 0.985, 9.857, 0)" fill="none" stroke="#06d1d1" stroke-width="3"/>
      <path id="Trazado_706549-2" data-name="Trazado 706549" d="M0,12.848,9.6,0l8.623,12.848" transform="matrix(0.485, 0.875, -0.875, 0.485, 84.767, 5.877)" fill="none" stroke="#06d1d1" stroke-linecap="round" stroke-width="3"/>
    </g>
    <g id="Grupo_1003029" data-name="Grupo 1003029" transform="translate(3158.008 -7635.49) rotate(124)">
      <path id="Trazado_706547-3" data-name="Trazado 706547" d="M0,56.764s4.916-28.7,36.351-31.433S79.142,0,79.142,0" transform="matrix(0.985, 0.174, -0.174, 0.985, 9.857, 0)" fill="none" stroke="#06d1d1" stroke-width="3"/>
      <path id="Trazado_706549-3" data-name="Trazado 706549" d="M0,12.848,9.6,0l8.623,12.848" transform="matrix(0.485, 0.875, -0.875, 0.485, 84.767, 5.877)" fill="none" stroke="#06d1d1" stroke-linecap="round" stroke-width="3"/>
    </g>
    <g id="Grupo_997554" data-name="Grupo 997554" transform="translate(3311.12 -7682.869) rotate(56)">
      <path id="Trazado_706547-4" data-name="Trazado 706547" d="M0,0S5.334,31.142,39.438,34.1,85.862,61.584,85.862,61.584" transform="matrix(0.985, -0.174, 0.174, 0.985, 0, 14.91)" fill="none" stroke="#06d1d1" stroke-width="3"/>
      <path id="Trazado_706549-4" data-name="Trazado 706549" d="M0,0,10.414,13.939,19.769,0" transform="matrix(0.485, -0.875, 0.875, 0.485, 79.773, 62.424)" fill="none" stroke="#06d1d1" stroke-linecap="round" stroke-width="3"/>
    </g>
    <g id="Grupo_1003030" data-name="Grupo 1003030" transform="translate(3483.014 -7682.869) rotate(56)">
      <path id="Trazado_706547-5" data-name="Trazado 706547" d="M0,0S5.334,31.142,39.438,34.1,85.862,61.584,85.862,61.584" transform="matrix(0.985, -0.174, 0.174, 0.985, 0, 14.91)" fill="none" stroke="#06d1d1" stroke-width="3"/>
      <path id="Trazado_706549-5" data-name="Trazado 706549" d="M0,0,10.414,13.939,19.769,0" transform="matrix(0.485, -0.875, 0.875, 0.485, 79.773, 62.424)" fill="none" stroke="#06d1d1" stroke-linecap="round" stroke-width="3"/>
    </g>
    <g id="Grupo_1003028" data-name="Grupo 1003028" transform="translate(3155.623 -7682.869) rotate(56)">
      <path id="Trazado_706547-6" data-name="Trazado 706547" d="M0,0S5.334,31.142,39.438,34.1,85.862,61.584,85.862,61.584" transform="matrix(0.985, -0.174, 0.174, 0.985, 0, 14.91)" fill="none" stroke="#06d1d1" stroke-width="3"/>
      <path id="Trazado_706549-6" data-name="Trazado 706549" d="M0,0,10.414,13.939,19.769,0" transform="matrix(0.485, -0.875, 0.875, 0.485, 79.773, 62.424)" fill="none" stroke="#06d1d1" stroke-linecap="round" stroke-width="3"/>
    </g>
    <g id="Grupo_997546" data-name="Grupo 997546" transform="translate(3208.397 -7755.249)">
      <rect id="Rectángulo_349412" data-name="Rectángulo 349412" width="153.145" height="88.603" rx="13" fill="#8a3d02"/>
    </g>
    <g id="Grupo_1003023" data-name="Grupo 1003023" transform="translate(3375.043 -7755.249)">
      <rect id="Rectángulo_349412-2" data-name="Rectángulo 349412" width="153.145" height="88.603" rx="13" fill="#8a3d02"/>
    </g>
    <g id="Grupo_997547" data-name="Grupo 997547" transform="translate(3058.605 -7755.249)">
      <rect id="Rectángulo_349412-3" data-name="Rectángulo 349412" width="137.286" height="88.603" rx="13" fill="#8a3d02"/>
    </g>
    <g id="Grupo_997552" data-name="Grupo 997552" transform="translate(3044 -7561.453)">
      <rect id="Rectángulo_349412-4" data-name="Rectángulo 349412" width="74.587" height="27.604" rx="7" transform="translate(0)" fill="#06d1d1"/>
    </g>
    <g id="Grupo_997556" data-name="Grupo 997556" transform="translate(3210.127 -7561.453)">
      <rect id="Rectángulo_349412-5" data-name="Rectángulo 349412" width="68.848" height="27.604" rx="7" transform="translate(0)" fill="#06d1d1"/>
    </g>
    <g id="Grupo_997559" data-name="Grupo 997559" transform="translate(3378.709 -7561.453)">
      <rect id="Rectángulo_349412-6" data-name="Rectángulo 349412" width="72.121" height="27.604" rx="7" transform="translate(0)" fill="#06d1d1"/>
    </g>
    <g id="Grupo_997553" data-name="Grupo 997553" transform="translate(3120.759 -7561.453)">
      <rect id="Rectángulo_349412-7" data-name="Rectángulo 349412" width="74.587" height="27.604" rx="7" transform="translate(0)" fill="#06d1d1"/>
    </g>
    <g id="Grupo_997557" data-name="Grupo 997557" transform="translate(3282.619 -7561.453)">
      <rect id="Rectángulo_349412-8" data-name="Rectángulo 349412" width="85.287" height="27.604" rx="7" transform="translate(0)" fill="#06d1d1"/>
    </g>
    <g id="Grupo_997558" data-name="Grupo 997558" transform="translate(3454.64 -7561.453)">
      <rect id="Rectángulo_349412-9" data-name="Rectángulo 349412" width="75.096" height="27.604" rx="7" transform="translate(0)" fill="#06d1d1"/>
    </g>
    <path id="Trazado_715026" data-name="Trazado 715026" d="M10.039,10.836H8.172V15H5.828V3.625h4.227a4.778,4.778,0,0,1,3.109.9,3.1,3.1,0,0,1,1.094,2.539A3.5,3.5,0,0,1,13.754,9a3.437,3.437,0,0,1-1.527,1.238l2.461,4.648V15H12.172Zm-1.867-1.9h1.891a1.936,1.936,0,0,0,1.367-.449,1.606,1.606,0,0,0,.484-1.238,1.719,1.719,0,0,0-.457-1.266,1.9,1.9,0,0,0-1.4-.461H8.172Zm11.609,6.219a4.15,4.15,0,0,1-3.027-1.141,4.054,4.054,0,0,1-1.168-3.039v-.219a5.106,5.106,0,0,1,.492-2.277,3.612,3.612,0,0,1,1.395-1.547,3.914,3.914,0,0,1,2.059-.543,3.508,3.508,0,0,1,2.73,1.094,4.444,4.444,0,0,1,1,3.1v.922H17.875a2.1,2.1,0,0,0,.66,1.328,2,2,0,0,0,1.395.5,2.437,2.437,0,0,0,2.039-.945l1.109,1.242A3.389,3.389,0,0,1,21.7,14.754,4.511,4.511,0,0,1,19.781,15.156Zm-.258-6.945a1.411,1.411,0,0,0-1.09.455,2.357,2.357,0,0,0-.535,1.3h3.141V9.788a1.681,1.681,0,0,0-.406-1.165A1.456,1.456,0,0,0,19.523,8.211ZM26.922,15H24.656V3h2.266Zm6.758,0a2.507,2.507,0,0,1-.227-.758,2.732,2.732,0,0,1-2.133.914,3,3,0,0,1-2.059-.719,2.312,2.312,0,0,1-.816-1.812,2.389,2.389,0,0,1,1-2.062,4.915,4.915,0,0,1,2.879-.727h1.039V9.352a1.393,1.393,0,0,0-.3-.937,1.183,1.183,0,0,0-.949-.352,1.345,1.345,0,0,0-.895.273.929.929,0,0,0-.324.75H28.633a2.268,2.268,0,0,1,.453-1.359,3,3,0,0,1,1.281-.98,4.669,4.669,0,0,1,1.859-.355,3.689,3.689,0,0,1,2.48.785,2.747,2.747,0,0,1,.918,2.207v3.664a4.041,4.041,0,0,0,.336,1.82V15Zm-1.867-1.57a1.945,1.945,0,0,0,.922-.223,1.462,1.462,0,0,0,.625-.6V11.156h-.844q-1.7,0-1.8,1.172l-.008.133a.9.9,0,0,0,.3.7A1.153,1.153,0,0,0,31.812,13.43Zm9.063-.094a1.481,1.481,0,0,0,1.016-.344,1.2,1.2,0,0,0,.406-.914h2.117a2.9,2.9,0,0,1-.469,1.574,3.093,3.093,0,0,1-1.262,1.109,3.949,3.949,0,0,1-1.77.395A3.67,3.67,0,0,1,38.054,14a4.56,4.56,0,0,1-1.047-3.184v-.148a4.508,4.508,0,0,1,1.039-3.117A3.627,3.627,0,0,1,40.9,6.391a3.555,3.555,0,0,1,2.543.9,3.2,3.2,0,0,1,.973,2.4H42.3a1.551,1.551,0,0,0-.406-1.072,1.51,1.51,0,0,0-2.223.163,3.333,3.333,0,0,0-.4,1.866v.235a3.375,3.375,0,0,0,.4,1.878A1.377,1.377,0,0,0,40.875,13.336ZM48.086,15H45.82V6.547h2.266Zm-2.4-10.641a1.112,1.112,0,0,1,.34-.836,1.465,1.465,0,0,1,1.848,0,1.105,1.105,0,0,1,.344.836,1.108,1.108,0,0,1-.348.844,1.448,1.448,0,0,1-1.836,0A1.108,1.108,0,0,1,45.687,4.359ZM49.594,10.7a5.013,5.013,0,0,1,.484-2.242A3.546,3.546,0,0,1,51.472,6.93a4.069,4.069,0,0,1,2.113-.539,3.849,3.849,0,0,1,2.793,1.047,4.2,4.2,0,0,1,1.207,2.844l.016.578a4.418,4.418,0,0,1-1.086,3.121,4.209,4.209,0,0,1-5.832,0,4.5,4.5,0,0,1-1.09-3.187Zm2.258.16A3.16,3.16,0,0,0,52.3,12.7a1.628,1.628,0,0,0,2.578.008,3.457,3.457,0,0,0,.461-2.015,3.128,3.128,0,0,0-.461-1.831,1.5,1.5,0,0,0-1.3-.649,1.474,1.474,0,0,0-1.281.646A3.516,3.516,0,0,0,51.851,10.856ZM54.031,3h2.461L54.328,5.422H52.492ZM61.07,6.547l.07.977a2.951,2.951,0,0,1,2.43-1.133,2.453,2.453,0,0,1,2,.789,3.682,3.682,0,0,1,.672,2.359V15H63.984V9.594a1.465,1.465,0,0,0-.312-1.043,1.4,1.4,0,0,0-1.039-.324,1.553,1.553,0,0,0-1.43.813V15H58.945V6.547Zm14.383,6.789a1.481,1.481,0,0,0,1.016-.344,1.2,1.2,0,0,0,.406-.914h2.117a2.9,2.9,0,0,1-.469,1.574,3.093,3.093,0,0,1-1.262,1.109,3.949,3.949,0,0,1-1.77.395A3.67,3.67,0,0,1,72.633,14a4.56,4.56,0,0,1-1.047-3.184v-.148a4.508,4.508,0,0,1,1.039-3.117,3.627,3.627,0,0,1,2.852-1.164,3.555,3.555,0,0,1,2.543.9,3.2,3.2,0,0,1,.973,2.4H76.875a1.551,1.551,0,0,0-.406-1.072,1.51,1.51,0,0,0-2.223.163,3.333,3.333,0,0,0-.4,1.866v.235a3.375,3.375,0,0,0,.4,1.878A1.377,1.377,0,0,0,75.453,13.336ZM79.929,10.7a5.013,5.013,0,0,1,.484-2.242A3.546,3.546,0,0,1,81.808,6.93a4.069,4.069,0,0,1,2.113-.539,3.849,3.849,0,0,1,2.793,1.047,4.2,4.2,0,0,1,1.207,2.844l.016.578a4.418,4.418,0,0,1-1.086,3.121,4.209,4.209,0,0,1-5.832,0,4.5,4.5,0,0,1-1.09-3.187Zm2.258.16A3.16,3.16,0,0,0,82.64,12.7a1.628,1.628,0,0,0,2.578.008,3.457,3.457,0,0,0,.461-2.015,3.128,3.128,0,0,0-.461-1.831,1.5,1.5,0,0,0-1.3-.649,1.474,1.474,0,0,0-1.281.646A3.516,3.516,0,0,0,82.187,10.856Zm9.219-4.309.07.977a2.951,2.951,0,0,1,2.43-1.133,2.453,2.453,0,0,1,2,.789,3.682,3.682,0,0,1,.672,2.359V15H94.32V9.594a1.465,1.465,0,0,0-.312-1.043,1.4,1.4,0,0,0-1.039-.324,1.553,1.553,0,0,0-1.43.813V15H89.281V6.547ZM15.367,39.156a4.15,4.15,0,0,1-3.027-1.141,4.054,4.054,0,0,1-1.168-3.039v-.219a5.106,5.106,0,0,1,.492-2.277,3.612,3.612,0,0,1,1.395-1.547,3.914,3.914,0,0,1,2.059-.543,3.508,3.508,0,0,1,2.73,1.094,4.444,4.444,0,0,1,1,3.1v.922H13.461a2.1,2.1,0,0,0,.66,1.328,2,2,0,0,0,1.395.5,2.437,2.437,0,0,0,2.039-.945l1.109,1.242a3.389,3.389,0,0,1-1.375,1.121A4.511,4.511,0,0,1,15.367,39.156Zm-.258-6.945a1.411,1.411,0,0,0-1.09.455,2.357,2.357,0,0,0-.535,1.3h3.141v-.181a1.681,1.681,0,0,0-.406-1.165A1.456,1.456,0,0,0,15.109,32.211ZM22.508,39H20.242V27h2.266Zm13.453-4.148a5.07,5.07,0,0,1-.887,3.129,2.843,2.843,0,0,1-2.395,1.176,2.633,2.633,0,0,1-2.07-.891V42.25H28.351v-11.7h2.094l.078.828a2.654,2.654,0,0,1,2.141-.984,2.862,2.862,0,0,1,2.43,1.156,5.207,5.207,0,0,1,.867,3.188ZM33.7,34.688a3.327,3.327,0,0,0-.418-1.82,1.361,1.361,0,0,0-1.215-.641,1.478,1.478,0,0,0-1.461.813V36.5a1.5,1.5,0,0,0,1.477.836Q33.7,37.336,33.7,34.688Zm8.406-2.023A6.134,6.134,0,0,0,41.3,32.6a1.654,1.654,0,0,0-1.68.867V39H37.359V30.547h2.133l.063,1.008a2.092,2.092,0,0,1,1.883-1.164,2.366,2.366,0,0,1,.7.1Zm.453,2.031a5.013,5.013,0,0,1,.484-2.242,3.546,3.546,0,0,1,1.395-1.523,4.069,4.069,0,0,1,2.113-.539,3.849,3.849,0,0,1,2.793,1.047,4.2,4.2,0,0,1,1.207,2.844l.016.578a4.418,4.418,0,0,1-1.086,3.121,4.209,4.209,0,0,1-5.832,0,4.5,4.5,0,0,1-1.09-3.187Zm2.258.16a3.16,3.16,0,0,0,.453,1.843,1.628,1.628,0,0,0,2.578.008,3.457,3.457,0,0,0,.461-2.015,3.128,3.128,0,0,0-.461-1.831,1.5,1.5,0,0,0-1.3-.649,1.474,1.474,0,0,0-1.281.646A3.516,3.516,0,0,0,44.82,34.856Zm6.789-.145a5.094,5.094,0,0,1,.887-3.148,2.877,2.877,0,0,1,2.426-1.172,2.589,2.589,0,0,1,2.039.922V27h2.266V39H57.187l-.109-.9a2.657,2.657,0,0,1-2.172,1.055,2.869,2.869,0,0,1-2.395-1.176A5.258,5.258,0,0,1,51.609,34.711Zm2.258.168a3.337,3.337,0,0,0,.414,1.823,1.349,1.349,0,0,0,1.2.634,1.511,1.511,0,0,0,1.477-.884V33.111a1.489,1.489,0,0,0-1.461-.884Q53.867,32.227,53.867,34.879Zm12.172,3.262a2.831,2.831,0,0,1-2.312,1.016,2.67,2.67,0,0,1-2.074-.781,3.335,3.335,0,0,1-.73-2.289V30.547h2.258v5.467q0,1.322,1.2,1.322a1.63,1.63,0,0,0,1.578-.8V30.547h2.266V39H66.1Zm7.406-.8a1.481,1.481,0,0,0,1.016-.344,1.2,1.2,0,0,0,.406-.914h2.117a2.9,2.9,0,0,1-.469,1.574,3.093,3.093,0,0,1-1.262,1.109,3.949,3.949,0,0,1-1.77.395A3.67,3.67,0,0,1,70.625,38a4.56,4.56,0,0,1-1.047-3.184v-.148a4.508,4.508,0,0,1,1.039-3.117,3.627,3.627,0,0,1,2.852-1.164,3.555,3.555,0,0,1,2.543.9,3.2,3.2,0,0,1,.973,2.4H74.867a1.551,1.551,0,0,0-.406-1.072,1.51,1.51,0,0,0-2.223.163,3.333,3.333,0,0,0-.4,1.866v.235a3.375,3.375,0,0,0,.4,1.878A1.377,1.377,0,0,0,73.445,37.336Zm7.531-8.867v2.078h1.445V32.2H80.976v4.219a1.007,1.007,0,0,0,.18.672.9.9,0,0,0,.688.2,3.6,3.6,0,0,0,.664-.055v1.711a4.648,4.648,0,0,1-1.367.2,2.156,2.156,0,0,1-2.422-2.4V32.2H77.484V30.547h1.234V28.469ZM83.094,34.7a5.013,5.013,0,0,1,.484-2.242,3.546,3.546,0,0,1,1.395-1.523,4.069,4.069,0,0,1,2.113-.539,3.849,3.849,0,0,1,2.793,1.047,4.2,4.2,0,0,1,1.207,2.844l.016.578a4.418,4.418,0,0,1-1.086,3.121,4.209,4.209,0,0,1-5.832,0,4.5,4.5,0,0,1-1.09-3.187Zm2.258.16A3.16,3.16,0,0,0,85.8,36.7a1.628,1.628,0,0,0,2.578.008,3.457,3.457,0,0,0,.461-2.015,3.128,3.128,0,0,0-.461-1.831,1.5,1.5,0,0,0-1.3-.649,1.474,1.474,0,0,0-1.281.646A3.516,3.516,0,0,0,85.351,34.856Z" transform="translate(3235.81 -7733.829)" fill="#fff"/>
    <path id="Trazado_715027" data-name="Trazado 715027" d="M31.022,12.18,33.6,3.625h2.609L32.248,15H29.8L25.858,3.625h2.6ZM41.67,15a2.507,2.507,0,0,1-.227-.758,2.732,2.732,0,0,1-2.133.914,3,3,0,0,1-2.059-.719,2.312,2.312,0,0,1-.816-1.812,2.389,2.389,0,0,1,1-2.062,4.915,4.915,0,0,1,2.879-.727H41.35V9.352a1.393,1.393,0,0,0-.3-.937,1.183,1.183,0,0,0-.949-.352,1.345,1.345,0,0,0-.895.273.929.929,0,0,0-.324.75H36.623a2.268,2.268,0,0,1,.453-1.359,3,3,0,0,1,1.281-.98,4.669,4.669,0,0,1,1.859-.355,3.689,3.689,0,0,1,2.48.785,2.747,2.747,0,0,1,.918,2.207v3.664a4.041,4.041,0,0,0,.336,1.82V15ZM39.8,13.43a1.945,1.945,0,0,0,.922-.223,1.462,1.462,0,0,0,.625-.6V11.156h-.844q-1.7,0-1.8,1.172l-.008.133a.9.9,0,0,0,.3.7A1.153,1.153,0,0,0,39.8,13.43ZM50.1,8.664a6.134,6.134,0,0,0-.812-.062,1.654,1.654,0,0,0-1.68.867V15H45.35V6.547h2.133l.063,1.008a2.092,2.092,0,0,1,1.883-1.164,2.366,2.366,0,0,1,.7.1ZM53.569,15H51.3V6.547h2.266ZM51.17,4.359a1.112,1.112,0,0,1,.34-.836,1.465,1.465,0,0,1,1.848,0,1.105,1.105,0,0,1,.344.836,1.108,1.108,0,0,1-.348.844,1.448,1.448,0,0,1-1.836,0A1.108,1.108,0,0,1,51.17,4.359ZM60.326,15a2.507,2.507,0,0,1-.227-.758,2.732,2.732,0,0,1-2.133.914,3,3,0,0,1-2.059-.719,2.312,2.312,0,0,1-.816-1.812,2.389,2.389,0,0,1,1-2.062,4.915,4.915,0,0,1,2.879-.727h1.039V9.352a1.393,1.393,0,0,0-.3-.937,1.183,1.183,0,0,0-.949-.352,1.345,1.345,0,0,0-.895.273.929.929,0,0,0-.324.75H55.279a2.268,2.268,0,0,1,.453-1.359,3,3,0,0,1,1.281-.98,4.669,4.669,0,0,1,1.859-.355,3.689,3.689,0,0,1,2.48.785,2.747,2.747,0,0,1,.918,2.207v3.664a4.041,4.041,0,0,0,.336,1.82V15Zm-1.867-1.57a1.945,1.945,0,0,0,.922-.223,1.462,1.462,0,0,0,.625-.6V11.156h-.844q-1.7,0-1.8,1.172l-.008.133a.9.9,0,0,0,.3.7A1.153,1.153,0,0,0,58.459,13.43Zm13.164-2.578a5.119,5.119,0,0,1-.867,3.168,2.872,2.872,0,0,1-2.422,1.137,2.639,2.639,0,0,1-2.2-1.055l-.1.9H64.006V3h2.258V7.3a2.571,2.571,0,0,1,2.055-.914,2.9,2.9,0,0,1,2.426,1.137,5.126,5.126,0,0,1,.879,3.2Zm-2.258-.164a3.363,3.363,0,0,0-.406-1.871,1.374,1.374,0,0,0-1.211-.59,1.489,1.489,0,0,0-1.484.883v3.336a1.509,1.509,0,0,0,1.5.891A1.394,1.394,0,0,0,69.2,12.258,5.562,5.562,0,0,0,69.365,10.688ZM75.4,15H73.131V6.547H75.4ZM73,4.359a1.112,1.112,0,0,1,.34-.836,1.465,1.465,0,0,1,1.848,0,1.105,1.105,0,0,1,.344.836,1.108,1.108,0,0,1-.348.844,1.448,1.448,0,0,1-1.836,0A1.108,1.108,0,0,1,73,4.359ZM79.639,15H77.373V3h2.266Zm4.242,0H81.615V6.547h2.266Zm-2.4-10.641a1.112,1.112,0,0,1,.34-.836,1.465,1.465,0,0,1,1.848,0,1.105,1.105,0,0,1,.344.836,1.108,1.108,0,0,1-.348.844,1.448,1.448,0,0,1-1.836,0A1.108,1.108,0,0,1,81.483,4.359Zm3.906,6.352a5.094,5.094,0,0,1,.887-3.148A2.877,2.877,0,0,1,88.7,6.391a2.589,2.589,0,0,1,2.039.922V3h2.266V15H90.967l-.109-.9a2.657,2.657,0,0,1-2.172,1.055,2.869,2.869,0,0,1-2.395-1.176A5.258,5.258,0,0,1,85.389,10.711Zm2.258.168a3.337,3.337,0,0,0,.414,1.823,1.349,1.349,0,0,0,1.2.634,1.511,1.511,0,0,0,1.477-.884V9.111a1.489,1.489,0,0,0-1.461-.884Q87.647,8.227,87.647,10.879ZM99.654,15a2.507,2.507,0,0,1-.227-.758,2.732,2.732,0,0,1-2.133.914,3,3,0,0,1-2.059-.719,2.312,2.312,0,0,1-.816-1.812,2.389,2.389,0,0,1,1-2.062A4.915,4.915,0,0,1,98.3,9.836h1.039V9.352a1.393,1.393,0,0,0-.3-.937,1.183,1.183,0,0,0-.949-.352,1.345,1.345,0,0,0-.895.273.929.929,0,0,0-.324.75H94.608a2.268,2.268,0,0,1,.453-1.359,3,3,0,0,1,1.281-.98A4.669,4.669,0,0,1,98.2,6.391a3.689,3.689,0,0,1,2.48.785,2.747,2.747,0,0,1,.918,2.207v3.664a4.041,4.041,0,0,0,.336,1.82V15Zm-1.867-1.57a1.945,1.945,0,0,0,.922-.223,1.462,1.462,0,0,0,.625-.6V11.156H98.49q-1.7,0-1.8,1.172l-.008.133a.9.9,0,0,0,.3.7A1.153,1.153,0,0,0,97.787,13.43Zm5.2-2.719a5.094,5.094,0,0,1,.887-3.148A2.877,2.877,0,0,1,106.3,6.391a2.589,2.589,0,0,1,2.039.922V3H110.6V15h-2.039l-.109-.9a2.657,2.657,0,0,1-2.172,1.055,2.869,2.869,0,0,1-2.395-1.176A5.258,5.258,0,0,1,102.983,10.711Zm2.258.168a3.337,3.337,0,0,0,.414,1.823,1.349,1.349,0,0,0,1.2.634,1.511,1.511,0,0,0,1.477-.884V9.111a1.489,1.489,0,0,0-1.461-.884Q105.24,8.227,105.24,10.879ZM42.869,28.664a6.134,6.134,0,0,0-.812-.062,1.654,1.654,0,0,0-1.68.867V35H38.119V26.547h2.133l.063,1.008A2.092,2.092,0,0,1,42.2,26.391a2.366,2.366,0,0,1,.7.1ZM47.7,35.156a4.15,4.15,0,0,1-3.027-1.141A4.054,4.054,0,0,1,43.5,30.977v-.219a5.106,5.106,0,0,1,.492-2.277,3.612,3.612,0,0,1,1.395-1.547,3.914,3.914,0,0,1,2.059-.543,3.508,3.508,0,0,1,2.73,1.094,4.444,4.444,0,0,1,1,3.1v.922H45.791a2.1,2.1,0,0,0,.66,1.328,2,2,0,0,0,1.395.5,2.437,2.437,0,0,0,2.039-.945l1.109,1.242a3.389,3.389,0,0,1-1.375,1.121A4.511,4.511,0,0,1,47.7,35.156Zm-.258-6.945a1.411,1.411,0,0,0-1.09.455,2.357,2.357,0,0,0-.535,1.3h3.141v-.181a1.681,1.681,0,0,0-.406-1.165A1.456,1.456,0,0,0,47.44,28.211Zm9.594,4.453a.727.727,0,0,0-.41-.652,4.659,4.659,0,0,0-1.316-.426q-3.016-.633-3.016-2.562a2.323,2.323,0,0,1,.934-1.879,3.766,3.766,0,0,1,2.441-.754,4.053,4.053,0,0,1,2.574.758,2.388,2.388,0,0,1,.965,1.969H56.947a1.092,1.092,0,0,0-.312-.8A1.322,1.322,0,0,0,55.658,28a1.351,1.351,0,0,0-.883.258.814.814,0,0,0-.312.656.7.7,0,0,0,.355.605,3.657,3.657,0,0,0,1.2.4,9.8,9.8,0,0,1,1.422.379,2.336,2.336,0,0,1,1.789,2.273,2.205,2.205,0,0,1-.992,1.871,4.28,4.28,0,0,1-2.562.715,4.47,4.47,0,0,1-1.887-.379,3.166,3.166,0,0,1-1.293-1.039,2.414,2.414,0,0,1-.469-1.426h2.141a1.179,1.179,0,0,0,.445.922,1.766,1.766,0,0,0,1.109.32,1.635,1.635,0,0,0,.98-.246A.766.766,0,0,0,57.033,32.664Zm11.258-1.812A5.07,5.07,0,0,1,67.4,33.98a2.843,2.843,0,0,1-2.395,1.176,2.633,2.633,0,0,1-2.07-.891V38.25H60.682v-11.7h2.094l.078.828a2.654,2.654,0,0,1,2.141-.984,2.862,2.862,0,0,1,2.43,1.156,5.207,5.207,0,0,1,.867,3.188Zm-2.258-.164a3.327,3.327,0,0,0-.418-1.82,1.361,1.361,0,0,0-1.215-.641,1.478,1.478,0,0,0-1.461.813V32.5a1.5,1.5,0,0,0,1.477.836Q66.033,33.336,66.033,30.688Zm7.547,4.469a4.15,4.15,0,0,1-3.027-1.141,4.054,4.054,0,0,1-1.168-3.039v-.219a5.106,5.106,0,0,1,.492-2.277,3.612,3.612,0,0,1,1.395-1.547,3.914,3.914,0,0,1,2.059-.543,3.508,3.508,0,0,1,2.73,1.094,4.444,4.444,0,0,1,1,3.1v.922H71.674a2.1,2.1,0,0,0,.66,1.328,2,2,0,0,0,1.395.5,2.437,2.437,0,0,0,2.039-.945l1.109,1.242A3.389,3.389,0,0,1,75.5,34.754,4.511,4.511,0,0,1,73.58,35.156Zm-.258-6.945a1.411,1.411,0,0,0-1.09.455,2.357,2.357,0,0,0-.535,1.3h3.141v-.181a1.681,1.681,0,0,0-.406-1.165A1.456,1.456,0,0,0,73.322,28.211Zm8.531,5.125a1.481,1.481,0,0,0,1.016-.344,1.2,1.2,0,0,0,.406-.914h2.117a2.9,2.9,0,0,1-.469,1.574,3.093,3.093,0,0,1-1.262,1.109,3.949,3.949,0,0,1-1.77.395A3.67,3.67,0,0,1,79.033,34a4.56,4.56,0,0,1-1.047-3.184v-.148a4.508,4.508,0,0,1,1.039-3.117,3.627,3.627,0,0,1,2.852-1.164,3.555,3.555,0,0,1,2.543.9,3.2,3.2,0,0,1,.973,2.4H83.276a1.551,1.551,0,0,0-.406-1.072,1.51,1.51,0,0,0-2.223.163,3.333,3.333,0,0,0-.4,1.866v.235a3.375,3.375,0,0,0,.4,1.878A1.377,1.377,0,0,0,81.854,33.336Zm7.531-8.867v2.078H90.83V28.2H89.385v4.219a1.007,1.007,0,0,0,.18.672.9.9,0,0,0,.688.2,3.6,3.6,0,0,0,.664-.055v1.711a4.648,4.648,0,0,1-1.367.2,2.156,2.156,0,0,1-2.422-2.4V28.2H85.893V26.547h1.234V24.469ZM91.5,30.7a5.013,5.013,0,0,1,.484-2.242,3.546,3.546,0,0,1,1.395-1.523,4.069,4.069,0,0,1,2.113-.539,3.849,3.849,0,0,1,2.793,1.047,4.2,4.2,0,0,1,1.207,2.844l.016.578a4.418,4.418,0,0,1-1.086,3.121,4.209,4.209,0,0,1-5.832,0A4.5,4.5,0,0,1,91.5,30.8Zm2.258.16a3.16,3.16,0,0,0,.453,1.843,1.628,1.628,0,0,0,2.578.008,3.457,3.457,0,0,0,.461-2.015,3.128,3.128,0,0,0-.461-1.831,1.5,1.5,0,0,0-1.3-.649,1.474,1.474,0,0,0-1.281.646A3.516,3.516,0,0,0,93.76,30.856ZM29.862,55a2.507,2.507,0,0,1-.227-.758,2.732,2.732,0,0,1-2.133.914,3,3,0,0,1-2.059-.719,2.312,2.312,0,0,1-.816-1.812,2.389,2.389,0,0,1,1-2.062,4.915,4.915,0,0,1,2.879-.727h1.039v-.484a1.393,1.393,0,0,0-.3-.937,1.183,1.183,0,0,0-.949-.352,1.345,1.345,0,0,0-.895.273.929.929,0,0,0-.324.75H24.815a2.268,2.268,0,0,1,.453-1.359,3,3,0,0,1,1.281-.98,4.669,4.669,0,0,1,1.859-.355,3.689,3.689,0,0,1,2.48.785,2.747,2.747,0,0,1,.918,2.207v3.664a4.041,4.041,0,0,0,.336,1.82V55Zm-1.867-1.57a1.945,1.945,0,0,0,.922-.223,1.462,1.462,0,0,0,.625-.6V51.156H28.7q-1.7,0-1.8,1.172l-.008.133a.9.9,0,0,0,.3.7A1.153,1.153,0,0,0,27.994,53.43Zm17.141-2.578a5.07,5.07,0,0,1-.887,3.129,2.843,2.843,0,0,1-2.395,1.176,2.633,2.633,0,0,1-2.07-.891V58.25H37.526v-11.7h2.094l.078.828a2.654,2.654,0,0,1,2.141-.984,2.862,2.862,0,0,1,2.43,1.156,5.207,5.207,0,0,1,.867,3.188Zm-2.258-.164a3.327,3.327,0,0,0-.418-1.82,1.361,1.361,0,0,0-1.215-.641,1.478,1.478,0,0,0-1.461.813V52.5a1.5,1.5,0,0,0,1.477.836Q42.877,53.336,42.877,50.688Zm8.406-2.023a6.134,6.134,0,0,0-.812-.062,1.654,1.654,0,0,0-1.68.867V55H46.533V46.547h2.133l.063,1.008a2.092,2.092,0,0,1,1.883-1.164,2.366,2.366,0,0,1,.7.1Zm.453,2.031a5.013,5.013,0,0,1,.484-2.242,3.546,3.546,0,0,1,1.395-1.523,4.069,4.069,0,0,1,2.113-.539,3.849,3.849,0,0,1,2.793,1.047,4.2,4.2,0,0,1,1.207,2.844l.016.578a4.418,4.418,0,0,1-1.086,3.121,4.209,4.209,0,0,1-5.832,0,4.5,4.5,0,0,1-1.09-3.187Zm2.258.16a3.16,3.16,0,0,0,.453,1.843,1.628,1.628,0,0,0,2.578.008,3.457,3.457,0,0,0,.461-2.015,3.128,3.128,0,0,0-.461-1.831,1.5,1.5,0,0,0-1.3-.649,1.474,1.474,0,0,0-1.281.646A3.516,3.516,0,0,0,53.994,50.856Zm6.789-.145a5.094,5.094,0,0,1,.887-3.148A2.877,2.877,0,0,1,64.1,46.391a2.589,2.589,0,0,1,2.039.922V43H68.4V55H66.362l-.109-.9a2.657,2.657,0,0,1-2.172,1.055,2.869,2.869,0,0,1-2.395-1.176A5.258,5.258,0,0,1,60.783,50.711Zm2.258.168a3.337,3.337,0,0,0,.414,1.823,1.349,1.349,0,0,0,1.2.634,1.511,1.511,0,0,0,1.477-.884V49.111a1.489,1.489,0,0,0-1.461-.884Q63.041,48.227,63.041,50.879Zm12.172,3.262A2.831,2.831,0,0,1,72.9,55.156a2.67,2.67,0,0,1-2.074-.781,3.335,3.335,0,0,1-.73-2.289V46.547h2.258v5.467q0,1.322,1.2,1.322a1.63,1.63,0,0,0,1.578-.8V46.547H77.4V55H75.276Zm7.406-.8a1.481,1.481,0,0,0,1.016-.344,1.2,1.2,0,0,0,.406-.914h2.117a2.9,2.9,0,0,1-.469,1.574,3.093,3.093,0,0,1-1.262,1.109,3.949,3.949,0,0,1-1.77.395A3.67,3.67,0,0,1,79.8,54a4.56,4.56,0,0,1-1.047-3.184v-.148a4.508,4.508,0,0,1,1.039-3.117,3.627,3.627,0,0,1,2.852-1.164,3.555,3.555,0,0,1,2.543.9,3.2,3.2,0,0,1,.973,2.4H84.041a1.551,1.551,0,0,0-.406-1.072,1.51,1.51,0,0,0-2.223.163,3.333,3.333,0,0,0-.4,1.866v.235a3.375,3.375,0,0,0,.4,1.878A1.377,1.377,0,0,0,82.619,53.336Zm8.344,0a1.481,1.481,0,0,0,1.016-.344,1.2,1.2,0,0,0,.406-.914H94.5a2.9,2.9,0,0,1-.469,1.574,3.093,3.093,0,0,1-1.262,1.109,3.949,3.949,0,0,1-1.77.395A3.67,3.67,0,0,1,88.143,54,4.56,4.56,0,0,1,87.1,50.82v-.148a4.508,4.508,0,0,1,1.039-3.117,3.627,3.627,0,0,1,2.852-1.164,3.555,3.555,0,0,1,2.543.9,3.2,3.2,0,0,1,.973,2.4H92.385a1.551,1.551,0,0,0-.406-1.072,1.51,1.51,0,0,0-2.223.163,3.333,3.333,0,0,0-.4,1.866v.235a3.375,3.375,0,0,0,.4,1.878A1.377,1.377,0,0,0,90.963,53.336ZM98.174,55H95.908V46.547h2.266Zm-2.4-10.641a1.112,1.112,0,0,1,.34-.836,1.465,1.465,0,0,1,1.848,0,1.193,1.193,0,0,1,0,1.68,1.448,1.448,0,0,1-1.836,0A1.108,1.108,0,0,1,95.776,44.359ZM99.682,50.7a5.013,5.013,0,0,1,.484-2.242,3.546,3.546,0,0,1,1.395-1.523,4.069,4.069,0,0,1,2.113-.539,3.849,3.849,0,0,1,2.793,1.047,4.2,4.2,0,0,1,1.207,2.844l.016.578A4.418,4.418,0,0,1,106.6,53.98a4.209,4.209,0,0,1-5.832,0,4.5,4.5,0,0,1-1.09-3.187Zm2.258.16a3.16,3.16,0,0,0,.453,1.843,1.628,1.628,0,0,0,2.578.008,3.457,3.457,0,0,0,.461-2.015,3.128,3.128,0,0,0-.461-1.831,1.5,1.5,0,0,0-1.3-.649,1.474,1.474,0,0,0-1.281.646A3.516,3.516,0,0,0,101.94,50.856ZM104.119,43h2.461l-2.164,2.422H102.58Zm7.039,3.547.07.977a2.951,2.951,0,0,1,2.43-1.133,2.453,2.453,0,0,1,2,.789,3.682,3.682,0,0,1,.672,2.359V55h-2.258V49.594a1.465,1.465,0,0,0-.312-1.043,1.4,1.4,0,0,0-1.039-.324,1.553,1.553,0,0,0-1.43.813V55h-2.258V46.547Z" transform="translate(3058.605 -7741.618)" fill="#fff"/>
    <path id="Trazado_715028" data-name="Trazado 715028" d="M7.921,10.532l2.256-7.485H12.46L8.994,13H6.855L3.4,3.047H5.679ZM17.238,13a2.194,2.194,0,0,1-.2-.663,2.39,2.39,0,0,1-1.866.8,2.626,2.626,0,0,1-1.8-.629,2.023,2.023,0,0,1-.714-1.586,2.09,2.09,0,0,1,.872-1.8,4.3,4.3,0,0,1,2.519-.636h.909V8.058a1.219,1.219,0,0,0-.263-.82,1.035,1.035,0,0,0-.831-.308,1.177,1.177,0,0,0-.783.239.813.813,0,0,0-.284.656H12.822a1.984,1.984,0,0,1,.4-1.189,2.621,2.621,0,0,1,1.121-.858,4.086,4.086,0,0,1,1.627-.311,3.228,3.228,0,0,1,2.17.687,2.4,2.4,0,0,1,.8,1.931v3.206a3.536,3.536,0,0,0,.294,1.593V13ZM15.6,11.626a1.7,1.7,0,0,0,.807-.195,1.28,1.28,0,0,0,.547-.523V9.637H16.22q-1.483,0-1.579,1.025l-.007.116a.791.791,0,0,0,.26.608A1.009,1.009,0,0,0,15.6,11.626Zm9.01-4.17A5.367,5.367,0,0,0,23.9,7.4a1.447,1.447,0,0,0-1.47.759V13H20.458V5.6h1.866l.055.882a1.831,1.831,0,0,1,1.647-1.019,2.07,2.07,0,0,1,.615.089ZM27.65,13H25.667V5.6H27.65Zm-2.1-9.311a.973.973,0,0,1,.3-.731,1.281,1.281,0,0,1,1.617,0,.967.967,0,0,1,.3.731.97.97,0,0,1-.3.738,1.267,1.267,0,0,1-1.606,0A.97.97,0,0,1,25.551,3.689ZM33.563,13a2.194,2.194,0,0,1-.2-.663,2.39,2.39,0,0,1-1.866.8,2.626,2.626,0,0,1-1.8-.629,2.023,2.023,0,0,1-.714-1.586,2.09,2.09,0,0,1,.872-1.8,4.3,4.3,0,0,1,2.519-.636h.909V8.058a1.219,1.219,0,0,0-.263-.82,1.035,1.035,0,0,0-.831-.308,1.177,1.177,0,0,0-.783.239.813.813,0,0,0-.284.656H29.147a1.984,1.984,0,0,1,.4-1.189,2.621,2.621,0,0,1,1.121-.858,4.086,4.086,0,0,1,1.627-.311,3.228,3.228,0,0,1,2.17.687,2.4,2.4,0,0,1,.8,1.931v3.206a3.536,3.536,0,0,0,.294,1.593V13Zm-1.634-1.374a1.7,1.7,0,0,0,.807-.195,1.28,1.28,0,0,0,.547-.523V9.637h-.738q-1.483,0-1.579,1.025l-.007.116a.791.791,0,0,0,.26.608A1.009,1.009,0,0,0,31.929,11.626ZM43.447,9.37a4.479,4.479,0,0,1-.759,2.772,2.513,2.513,0,0,1-2.119.995,2.309,2.309,0,0,1-1.921-.923L38.56,13H36.782V2.5h1.976V6.267a2.25,2.25,0,0,1,1.8-.8,2.534,2.534,0,0,1,2.123.995,4.485,4.485,0,0,1,.769,2.8Zm-1.976-.144a2.942,2.942,0,0,0-.355-1.637,1.2,1.2,0,0,0-1.06-.516,1.3,1.3,0,0,0-1.3.772v2.919a1.321,1.321,0,0,0,1.313.779,1.22,1.22,0,0,0,1.258-.943A4.866,4.866,0,0,0,41.472,9.227ZM46.749,13H44.767V2.5h1.982Zm5.031.137a3.631,3.631,0,0,1-2.649-1,3.548,3.548,0,0,1-1.022-2.659V9.288A4.468,4.468,0,0,1,48.54,7.3a3.161,3.161,0,0,1,1.22-1.354,3.425,3.425,0,0,1,1.8-.475,3.07,3.07,0,0,1,2.389.957,3.889,3.889,0,0,1,.872,2.714v.807h-4.71a1.835,1.835,0,0,0,.578,1.162,1.746,1.746,0,0,0,1.22.438,2.132,2.132,0,0,0,1.784-.827l.971,1.087a2.966,2.966,0,0,1-1.2.981A3.947,3.947,0,0,1,51.78,13.137ZM51.555,7.06a1.234,1.234,0,0,0-.954.4,2.062,2.062,0,0,0-.468,1.14h2.748V8.44a1.471,1.471,0,0,0-.355-1.02A1.274,1.274,0,0,0,51.555,7.06Z" transform="translate(3051.481 -7559.549)"/>
    <path id="Trazado_715030" data-name="Trazado 715030" d="M5.651,13V3.047H8.713a4.651,4.651,0,0,1,2.348.591A4.123,4.123,0,0,1,12.678,5.32,5.187,5.187,0,0,1,13.259,7.8v.458a5.2,5.2,0,0,1-.571,2.468,4.088,4.088,0,0,1-1.61,1.675,4.686,4.686,0,0,1-2.345.6ZM7.7,4.708v6.645h.991a2.227,2.227,0,0,0,1.839-.786,3.552,3.552,0,0,0,.649-2.249V7.791a3.609,3.609,0,0,0-.629-2.3,2.219,2.219,0,0,0-1.839-.783ZM16.7,13H14.722V5.6H16.7Zm-2.1-9.311a.973.973,0,0,1,.3-.731,1.281,1.281,0,0,1,1.617,0,.967.967,0,0,1,.3.731.97.97,0,0,1-.3.738,1.267,1.267,0,0,1-1.606,0A.97.97,0,0,1,14.606,3.689Zm7.882,3.767a5.367,5.367,0,0,0-.711-.055,1.447,1.447,0,0,0-1.47.759V13H18.331V5.6H20.2l.055.882A1.831,1.831,0,0,1,21.9,5.467a2.07,2.07,0,0,1,.615.089Zm4.225,5.681a3.631,3.631,0,0,1-2.649-1,3.548,3.548,0,0,1-1.022-2.659V9.288A4.468,4.468,0,0,1,23.472,7.3a3.161,3.161,0,0,1,1.22-1.354,3.425,3.425,0,0,1,1.8-.475,3.07,3.07,0,0,1,2.389.957,3.889,3.889,0,0,1,.872,2.714v.807h-4.71a1.835,1.835,0,0,0,.578,1.162,1.746,1.746,0,0,0,1.22.438,2.132,2.132,0,0,0,1.784-.827L29.6,11.8a2.966,2.966,0,0,1-1.2.981A3.947,3.947,0,0,1,26.712,13.137ZM26.487,7.06a1.234,1.234,0,0,0-.954.4,2.062,2.062,0,0,0-.468,1.14h2.748V8.44a1.471,1.471,0,0,0-.355-1.02A1.274,1.274,0,0,0,26.487,7.06Zm7.465,4.484a1.3,1.3,0,0,0,.889-.3,1.054,1.054,0,0,0,.355-.8h1.853a2.534,2.534,0,0,1-.41,1.377,2.706,2.706,0,0,1-1.1.971,3.455,3.455,0,0,1-1.548.345,3.211,3.211,0,0,1-2.5-1.008,3.99,3.99,0,0,1-.916-2.786v-.13a3.944,3.944,0,0,1,.909-2.728,3.174,3.174,0,0,1,2.5-1.019,3.111,3.111,0,0,1,2.225.79,2.8,2.8,0,0,1,.851,2.1H35.2a1.358,1.358,0,0,0-.355-.938,1.321,1.321,0,0,0-1.945.142A2.916,2.916,0,0,0,32.543,9.2V9.4a2.953,2.953,0,0,0,.349,1.643A1.2,1.2,0,0,0,33.951,11.544Zm6.59-7.759V5.6h1.265V7.053H40.541v3.691a.881.881,0,0,0,.157.588.79.79,0,0,0,.6.178,3.15,3.15,0,0,0,.581-.048v1.5a4.067,4.067,0,0,1-1.2.178,1.886,1.886,0,0,1-2.119-2.1V7.053h-1.08V5.6h1.08V3.785Zm1.853,5.448a4.387,4.387,0,0,1,.424-1.962,3.1,3.1,0,0,1,1.22-1.333,3.56,3.56,0,0,1,1.849-.472,3.368,3.368,0,0,1,2.444.916,3.676,3.676,0,0,1,1.056,2.488l.014.506a3.866,3.866,0,0,1-.95,2.731,3.683,3.683,0,0,1-5.1,0,3.934,3.934,0,0,1-.954-2.789Zm1.976.14a2.765,2.765,0,0,0,.4,1.612,1.424,1.424,0,0,0,2.256.007,3.025,3.025,0,0,0,.4-1.763,2.737,2.737,0,0,0-.4-1.6,1.311,1.311,0,0,0-1.135-.568,1.29,1.29,0,0,0-1.121.565A3.076,3.076,0,0,0,44.369,9.374Zm10.254,1.582a.637.637,0,0,0-.359-.571,4.077,4.077,0,0,0-1.152-.373q-2.639-.554-2.639-2.242a2.032,2.032,0,0,1,.817-1.644,3.3,3.3,0,0,1,2.136-.66,3.547,3.547,0,0,1,2.252.663,2.09,2.09,0,0,1,.844,1.723H54.548a.956.956,0,0,0-.273-.7,1.157,1.157,0,0,0-.854-.277,1.182,1.182,0,0,0-.772.226.712.712,0,0,0-.273.574.609.609,0,0,0,.311.53,3.2,3.2,0,0,0,1.049.349,8.571,8.571,0,0,1,1.244.332,2.044,2.044,0,0,1,1.565,1.989,1.929,1.929,0,0,1-.868,1.637,3.745,3.745,0,0,1-2.242.625,3.912,3.912,0,0,1-1.651-.332,2.77,2.77,0,0,1-1.131-.909,2.113,2.113,0,0,1-.41-1.248h1.873a1.031,1.031,0,0,0,.39.807,1.546,1.546,0,0,0,.971.28,1.43,1.43,0,0,0,.858-.215A.67.67,0,0,0,54.623,10.956Z" transform="translate(3212.982 -7559.549)"/>
    <path id="Trazado_715032" data-name="Trazado 715032" d="M7.75,8.687H3.812v2.666H8.433V13H1.761V3.047H8.42V4.708H3.812V7.08H7.75Zm5.763,2.27a.637.637,0,0,0-.359-.571A4.077,4.077,0,0,0,12,10.013Q9.363,9.459,9.363,7.771a2.032,2.032,0,0,1,.817-1.644,3.3,3.3,0,0,1,2.136-.66,3.547,3.547,0,0,1,2.252.663,2.09,2.09,0,0,1,.844,1.723H13.437a.956.956,0,0,0-.273-.7,1.157,1.157,0,0,0-.854-.277,1.182,1.182,0,0,0-.772.226.712.712,0,0,0-.273.574.609.609,0,0,0,.311.53,3.2,3.2,0,0,0,1.049.349,8.571,8.571,0,0,1,1.244.332,2.044,2.044,0,0,1,1.565,1.989,1.929,1.929,0,0,1-.868,1.637,3.745,3.745,0,0,1-2.242.625,3.912,3.912,0,0,1-1.651-.332A2.77,2.77,0,0,1,9.541,11.9a2.113,2.113,0,0,1-.41-1.248H11a1.031,1.031,0,0,0,.39.807,1.546,1.546,0,0,0,.971.28,1.43,1.43,0,0,0,.858-.215A.67.67,0,0,0,13.512,10.956ZM19.07,3.785V5.6h1.265V7.053H19.07v3.691a.881.881,0,0,0,.157.588.79.79,0,0,0,.6.178,3.15,3.15,0,0,0,.581-.048v1.5a4.067,4.067,0,0,1-1.2.178,1.886,1.886,0,0,1-2.119-2.1V7.053h-1.08V5.6h1.08V3.785ZM23.52,13H21.538V5.6H23.52Zm-2.1-9.311a.973.973,0,0,1,.3-.731,1.281,1.281,0,0,1,1.617,0,.967.967,0,0,1,.3.731.97.97,0,0,1-.3.738,1.267,1.267,0,0,1-1.606,0A.97.97,0,0,1,21.422,3.689ZM27,5.6l.062.827a2.6,2.6,0,0,1,2.126-.964,1.973,1.973,0,0,1,1.962,1.128,2.54,2.54,0,0,1,2.222-1.128,2.206,2.206,0,0,1,1.791.7,3.221,3.221,0,0,1,.588,2.109V13H33.767V8.283a1.408,1.408,0,0,0-.246-.919,1.091,1.091,0,0,0-.868-.291,1.233,1.233,0,0,0-1.23.848L31.429,13H29.454V8.29a1.391,1.391,0,0,0-.253-.93,1.1,1.1,0,0,0-.861-.287,1.28,1.28,0,0,0-1.217.7V13H25.147V5.6ZM41.553,13a2.194,2.194,0,0,1-.2-.663,2.39,2.39,0,0,1-1.866.8,2.626,2.626,0,0,1-1.8-.629,2.023,2.023,0,0,1-.714-1.586,2.09,2.09,0,0,1,.872-1.8,4.3,4.3,0,0,1,2.519-.636h.909V8.058a1.219,1.219,0,0,0-.263-.82,1.035,1.035,0,0,0-.831-.308,1.177,1.177,0,0,0-.783.239.813.813,0,0,0-.284.656H37.137a1.984,1.984,0,0,1,.4-1.189,2.621,2.621,0,0,1,1.121-.858,4.086,4.086,0,0,1,1.627-.311,3.228,3.228,0,0,1,2.17.687,2.4,2.4,0,0,1,.8,1.931v3.206a3.536,3.536,0,0,0,.294,1.593V13ZM39.92,11.626a1.7,1.7,0,0,0,.807-.195,1.28,1.28,0,0,0,.547-.523V9.637h-.738q-1.483,0-1.579,1.025l-.007.116a.791.791,0,0,0,.26.608A1.009,1.009,0,0,0,39.92,11.626Zm4.546-2.379a4.457,4.457,0,0,1,.776-2.755,2.517,2.517,0,0,1,2.123-1.025,2.265,2.265,0,0,1,1.784.807V2.5h1.982V13H49.346l-.1-.786a2.325,2.325,0,0,1-1.9.923,2.511,2.511,0,0,1-2.1-1.029A4.6,4.6,0,0,1,44.466,9.247Zm1.976.147a2.92,2.92,0,0,0,.362,1.6,1.18,1.18,0,0,0,1.053.555,1.322,1.322,0,0,0,1.292-.774V7.847a1.3,1.3,0,0,0-1.278-.774Q46.441,7.073,46.441,9.394Zm5.913-.161a4.387,4.387,0,0,1,.424-1.962A3.1,3.1,0,0,1,54,5.938a3.56,3.56,0,0,1,1.849-.472,3.368,3.368,0,0,1,2.444.916,3.676,3.676,0,0,1,1.056,2.488l.014.506a3.866,3.866,0,0,1-.95,2.731,3.683,3.683,0,0,1-5.1,0,3.934,3.934,0,0,1-.954-2.789Zm1.976.14a2.765,2.765,0,0,0,.4,1.612,1.424,1.424,0,0,0,2.256.007,3.025,3.025,0,0,0,.4-1.763,2.737,2.737,0,0,0-.4-1.6,1.311,1.311,0,0,0-1.135-.568,1.29,1.29,0,0,0-1.121.565A3.076,3.076,0,0,0,54.33,9.374Zm10.254,1.582a.637.637,0,0,0-.359-.571,4.077,4.077,0,0,0-1.152-.373q-2.639-.554-2.639-2.242a2.032,2.032,0,0,1,.817-1.644,3.3,3.3,0,0,1,2.136-.66,3.547,3.547,0,0,1,2.252.663,2.09,2.09,0,0,1,.844,1.723H64.509a.956.956,0,0,0-.273-.7,1.157,1.157,0,0,0-.854-.277,1.182,1.182,0,0,0-.772.226.712.712,0,0,0-.273.574.609.609,0,0,0,.311.53,3.2,3.2,0,0,0,1.049.349,8.571,8.571,0,0,1,1.244.332A2.044,2.044,0,0,1,66.5,10.874a1.929,1.929,0,0,1-.868,1.637,3.745,3.745,0,0,1-2.242.625,3.912,3.912,0,0,1-1.651-.332,2.77,2.77,0,0,1-1.131-.909,2.113,2.113,0,0,1-.41-1.248h1.873a1.031,1.031,0,0,0,.39.807,1.546,1.546,0,0,0,.971.28,1.43,1.43,0,0,0,.858-.215A.67.67,0,0,0,64.584,10.956Z" transform="translate(3380.02 -7558.575)"/>
    <path id="Trazado_715029" data-name="Trazado 715029" d="M26.248,8.933H22.311V13H20.26V3.047h6.48V4.708h-4.43v2.57h3.938ZM29.885,13H27.9V5.6h1.982Zm-2.1-9.311a.973.973,0,0,1,.3-.731,1.281,1.281,0,0,1,1.617,0,.967.967,0,0,1,.3.731.97.97,0,0,1-.3.738,1.267,1.267,0,0,1-1.606,0A.97.97,0,0,1,27.787,3.689ZM33.6,5.6v7.8a2.646,2.646,0,0,1-.649,1.9,2.468,2.468,0,0,1-1.873.68,4.017,4.017,0,0,1-.978-.116V14.306a3.708,3.708,0,0,0,.622.062q.9,0,.9-.95V5.6Zm-2.14-1.914a.973.973,0,0,1,.3-.731,1.286,1.286,0,0,1,1.62,0,.973.973,0,0,1,.3.731.97.97,0,0,1-.3.738,1.267,1.267,0,0,1-1.606,0A.97.97,0,0,1,31.464,3.689Zm3.377,5.544a4.387,4.387,0,0,1,.424-1.962,3.1,3.1,0,0,1,1.22-1.333,3.56,3.56,0,0,1,1.849-.472,3.368,3.368,0,0,1,2.444.916,3.676,3.676,0,0,1,1.056,2.488l.014.506a3.866,3.866,0,0,1-.95,2.731,3.683,3.683,0,0,1-5.1,0,3.934,3.934,0,0,1-.954-2.789Zm1.976.14a2.765,2.765,0,0,0,.4,1.612,1.424,1.424,0,0,0,2.256.007,3.025,3.025,0,0,0,.4-1.763,2.737,2.737,0,0,0-.4-1.6,1.311,1.311,0,0,0-1.135-.568,1.29,1.29,0,0,0-1.121.565A3.076,3.076,0,0,0,36.817,9.374Zm10.254,1.582a.637.637,0,0,0-.359-.571,4.077,4.077,0,0,0-1.152-.373q-2.639-.554-2.639-2.242a2.032,2.032,0,0,1,.817-1.644,3.3,3.3,0,0,1,2.136-.66,3.547,3.547,0,0,1,2.252.663,2.09,2.09,0,0,1,.844,1.723H47a.956.956,0,0,0-.273-.7,1.157,1.157,0,0,0-.854-.277A1.182,1.182,0,0,0,45.1,7.1a.712.712,0,0,0-.273.574.609.609,0,0,0,.311.53,3.2,3.2,0,0,0,1.049.349,8.571,8.571,0,0,1,1.244.332,2.044,2.044,0,0,1,1.565,1.989,1.929,1.929,0,0,1-.868,1.637,3.745,3.745,0,0,1-2.242.625,3.912,3.912,0,0,1-1.651-.332A2.77,2.77,0,0,1,43.1,11.9a2.113,2.113,0,0,1-.41-1.248h1.873a1.031,1.031,0,0,0,.39.807,1.546,1.546,0,0,0,.971.28,1.43,1.43,0,0,0,.858-.215A.67.67,0,0,0,47.071,10.956Z" transform="translate(3123.614 -7559.549)"/>
    <path id="Trazado_715031" data-name="Trazado 715031" d="M11.354,13H9.3V3.047h2.051Zm3.589-7.4L15,6.458a2.582,2.582,0,0,1,2.126-.991,2.146,2.146,0,0,1,1.75.69,3.221,3.221,0,0,1,.588,2.064V13H17.492V8.27a1.282,1.282,0,0,0-.273-.913,1.224,1.224,0,0,0-.909-.284,1.359,1.359,0,0,0-1.251.711V13H13.083V5.6Zm5.715,3.644a4.457,4.457,0,0,1,.776-2.755,2.517,2.517,0,0,1,2.123-1.025,2.265,2.265,0,0,1,1.784.807V2.5h1.982V13H25.538l-.1-.786a2.325,2.325,0,0,1-1.9.923,2.511,2.511,0,0,1-2.1-1.029A4.6,4.6,0,0,1,20.657,9.247Zm1.976.147a2.92,2.92,0,0,0,.362,1.6,1.18,1.18,0,0,0,1.053.555,1.322,1.322,0,0,0,1.292-.774V7.847a1.3,1.3,0,0,0-1.278-.774Q22.633,7.073,22.633,9.394ZM30.939,13H28.956V5.6h1.982Zm-2.1-9.311a.973.973,0,0,1,.3-.731,1.281,1.281,0,0,1,1.617,0,.967.967,0,0,1,.3.731.97.97,0,0,1-.3.738,1.267,1.267,0,0,1-1.606,0A.97.97,0,0,1,28.84,3.689Zm7.882,3.767a5.367,5.367,0,0,0-.711-.055,1.447,1.447,0,0,0-1.47.759V13H32.566V5.6h1.866l.055.882a1.831,1.831,0,0,1,1.647-1.019,2.07,2.07,0,0,1,.615.089Zm4.225,5.681a3.631,3.631,0,0,1-2.649-1,3.548,3.548,0,0,1-1.022-2.659V9.288A4.468,4.468,0,0,1,37.706,7.3a3.161,3.161,0,0,1,1.22-1.354,3.425,3.425,0,0,1,1.8-.475,3.07,3.07,0,0,1,2.389.957,3.889,3.889,0,0,1,.872,2.714v.807h-4.71a1.835,1.835,0,0,0,.578,1.162,1.746,1.746,0,0,0,1.22.438,2.132,2.132,0,0,0,1.784-.827l.971,1.087a2.966,2.966,0,0,1-1.2.981A3.947,3.947,0,0,1,40.946,13.137ZM40.721,7.06a1.234,1.234,0,0,0-.954.4A2.062,2.062,0,0,0,39.3,8.6h2.748V8.44a1.471,1.471,0,0,0-.355-1.02A1.274,1.274,0,0,0,40.721,7.06Zm7.465,4.484a1.3,1.3,0,0,0,.889-.3,1.054,1.054,0,0,0,.355-.8h1.853a2.534,2.534,0,0,1-.41,1.377,2.706,2.706,0,0,1-1.1.971,3.455,3.455,0,0,1-1.548.345,3.211,3.211,0,0,1-2.5-1.008A3.99,3.99,0,0,1,44.8,9.343v-.13a3.944,3.944,0,0,1,.909-2.728,3.174,3.174,0,0,1,2.5-1.019,3.111,3.111,0,0,1,2.225.79,2.8,2.8,0,0,1,.851,2.1H49.43a1.358,1.358,0,0,0-.355-.938,1.321,1.321,0,0,0-1.945.142A2.916,2.916,0,0,0,46.777,9.2V9.4a2.953,2.953,0,0,0,.349,1.643A1.2,1.2,0,0,0,48.186,11.544Zm6.59-7.759V5.6H56.04V7.053H54.776v3.691a.881.881,0,0,0,.157.588.79.79,0,0,0,.6.178,3.15,3.15,0,0,0,.581-.048v1.5a4.067,4.067,0,0,1-1.2.178,1.886,1.886,0,0,1-2.119-2.1V7.053H51.72V5.6H52.8V3.785Zm1.853,5.448a4.387,4.387,0,0,1,.424-1.962,3.1,3.1,0,0,1,1.22-1.333,3.56,3.56,0,0,1,1.849-.472,3.368,3.368,0,0,1,2.444.916,3.676,3.676,0,0,1,1.056,2.488l.014.506a3.866,3.866,0,0,1-.95,2.731,3.683,3.683,0,0,1-5.1,0,3.934,3.934,0,0,1-.954-2.789Zm1.976.14a2.765,2.765,0,0,0,.4,1.612,1.424,1.424,0,0,0,2.256.007,3.025,3.025,0,0,0,.4-1.763,2.737,2.737,0,0,0-.4-1.6,1.311,1.311,0,0,0-1.135-.568A1.29,1.29,0,0,0,59,7.624,3.076,3.076,0,0,0,58.6,9.374Zm10.254,1.582a.637.637,0,0,0-.359-.571,4.077,4.077,0,0,0-1.152-.373q-2.639-.554-2.639-2.242a2.032,2.032,0,0,1,.817-1.644,3.3,3.3,0,0,1,2.136-.66,3.547,3.547,0,0,1,2.252.663,2.09,2.09,0,0,1,.844,1.723H68.782a.956.956,0,0,0-.273-.7,1.157,1.157,0,0,0-.854-.277,1.182,1.182,0,0,0-.772.226.712.712,0,0,0-.273.574.609.609,0,0,0,.311.53,3.2,3.2,0,0,0,1.049.349,8.571,8.571,0,0,1,1.244.332,2.044,2.044,0,0,1,1.565,1.989,1.929,1.929,0,0,1-.868,1.637,3.745,3.745,0,0,1-2.242.625,3.912,3.912,0,0,1-1.651-.332,2.77,2.77,0,0,1-1.131-.909,2.113,2.113,0,0,1-.41-1.248h1.873a1.031,1.031,0,0,0,.39.807,1.546,1.546,0,0,0,.971.28,1.43,1.43,0,0,0,.858-.215A.67.67,0,0,0,68.858,10.956Z" transform="translate(3285.474 -7558.597)"/>
    <path id="Trazado_715033" data-name="Trazado 715033" d="M13.744,8.687H9.806v2.666h4.621V13H7.755V3.047h6.658V4.708H9.806V7.08h3.937Zm5.763,2.27a.637.637,0,0,0-.359-.571A4.077,4.077,0,0,0,18,10.013q-2.639-.554-2.639-2.242a2.032,2.032,0,0,1,.817-1.644,3.3,3.3,0,0,1,2.136-.66,3.547,3.547,0,0,1,2.252.663,2.09,2.09,0,0,1,.844,1.723H19.431a.956.956,0,0,0-.273-.7,1.157,1.157,0,0,0-.854-.277,1.182,1.182,0,0,0-.772.226.712.712,0,0,0-.273.574.609.609,0,0,0,.311.53,3.2,3.2,0,0,0,1.049.349,8.571,8.571,0,0,1,1.244.332,2.044,2.044,0,0,1,1.565,1.989,1.929,1.929,0,0,1-.868,1.637,3.745,3.745,0,0,1-2.242.625,3.912,3.912,0,0,1-1.651-.332,2.77,2.77,0,0,1-1.131-.909,2.113,2.113,0,0,1-.41-1.248H17a1.031,1.031,0,0,0,.39.807,1.546,1.546,0,0,0,.971.28,1.43,1.43,0,0,0,.858-.215A.67.67,0,0,0,19.506,10.956Zm5.558-7.171V5.6h1.265V7.053H25.064v3.691a.881.881,0,0,0,.157.588.79.79,0,0,0,.6.178,3.15,3.15,0,0,0,.581-.048v1.5a4.067,4.067,0,0,1-1.2.178,1.886,1.886,0,0,1-2.119-2.1V7.053h-1.08V5.6h1.08V3.785ZM31.715,13a2.194,2.194,0,0,1-.2-.663,2.39,2.39,0,0,1-1.866.8,2.626,2.626,0,0,1-1.8-.629,2.023,2.023,0,0,1-.714-1.586,2.09,2.09,0,0,1,.872-1.8,4.3,4.3,0,0,1,2.519-.636h.909V8.058a1.219,1.219,0,0,0-.263-.82,1.035,1.035,0,0,0-.831-.308,1.177,1.177,0,0,0-.783.239.813.813,0,0,0-.284.656H27.3a1.984,1.984,0,0,1,.4-1.189,2.621,2.621,0,0,1,1.121-.858,4.086,4.086,0,0,1,1.627-.311,3.228,3.228,0,0,1,2.17.687,2.4,2.4,0,0,1,.8,1.931v3.206a3.536,3.536,0,0,0,.294,1.593V13Zm-1.634-1.374a1.7,1.7,0,0,0,.807-.195,1.28,1.28,0,0,0,.547-.523V9.637H30.7q-1.483,0-1.579,1.025l-.007.116a.791.791,0,0,0,.26.608A1.009,1.009,0,0,0,30.082,11.626ZM30.834,2.5h2.153L31.093,4.619H29.487Zm5.92,3.1.062.854a2.582,2.582,0,0,1,2.126-.991,2.146,2.146,0,0,1,1.75.69,3.221,3.221,0,0,1,.588,2.064V13H39.3V8.27a1.282,1.282,0,0,0-.273-.913,1.224,1.224,0,0,0-.909-.284,1.359,1.359,0,0,0-1.251.711V13H34.894V5.6Zm5.715,3.644a4.457,4.457,0,0,1,.776-2.755,2.517,2.517,0,0,1,2.123-1.025,2.265,2.265,0,0,1,1.784.807V2.5h1.982V13H47.349l-.1-.786a2.325,2.325,0,0,1-1.9.923,2.511,2.511,0,0,1-2.1-1.029A4.6,4.6,0,0,1,42.468,9.247Zm1.976.147a2.92,2.92,0,0,0,.362,1.6,1.18,1.18,0,0,0,1.053.555,1.322,1.322,0,0,0,1.292-.774V7.847a1.3,1.3,0,0,0-1.278-.774Q44.444,7.073,44.444,9.394ZM54.951,13a2.194,2.194,0,0,1-.2-.663,2.39,2.39,0,0,1-1.866.8,2.626,2.626,0,0,1-1.8-.629,2.023,2.023,0,0,1-.714-1.586,2.09,2.09,0,0,1,.872-1.8,4.3,4.3,0,0,1,2.519-.636h.909V8.058a1.219,1.219,0,0,0-.263-.82,1.035,1.035,0,0,0-.831-.308,1.177,1.177,0,0,0-.783.239.813.813,0,0,0-.284.656H50.535a1.984,1.984,0,0,1,.4-1.189,2.621,2.621,0,0,1,1.121-.858,4.086,4.086,0,0,1,1.627-.311,3.228,3.228,0,0,1,2.17.687,2.4,2.4,0,0,1,.8,1.931v3.206a3.536,3.536,0,0,0,.294,1.593V13Zm-1.634-1.374a1.7,1.7,0,0,0,.807-.195,1.28,1.28,0,0,0,.547-.523V9.637h-.738q-1.483,0-1.579,1.025l-.007.116a.791.791,0,0,0,.26.608A1.009,1.009,0,0,0,53.317,11.626Zm9.01-4.17a5.367,5.367,0,0,0-.711-.055,1.447,1.447,0,0,0-1.47.759V13H58.17V5.6h1.866l.055.882a1.831,1.831,0,0,1,1.647-1.019,2.07,2.07,0,0,1,.615.089Z" transform="translate(3457.495 -7559.549)"/>
    <path id="Trazado_715025" data-name="Trazado 715025" d="M61.255,3.625v7.492a3.836,3.836,0,0,1-1.168,2.953A4.5,4.5,0,0,1,56.9,15.156,4.553,4.553,0,0,1,53.731,14.1a3.77,3.77,0,0,1-1.2-2.9V3.625H54.88v7.508a2.167,2.167,0,0,0,.535,1.629,2.054,2.054,0,0,0,1.48.512q1.977,0,2.008-2.078V3.625Zm6.352,9.039a.727.727,0,0,0-.41-.652,4.659,4.659,0,0,0-1.316-.426q-3.016-.633-3.016-2.562A2.323,2.323,0,0,1,63.8,7.145a3.766,3.766,0,0,1,2.441-.754,4.053,4.053,0,0,1,2.574.758,2.388,2.388,0,0,1,.965,1.969H67.52a1.092,1.092,0,0,0-.312-.8A1.322,1.322,0,0,0,66.231,8a1.351,1.351,0,0,0-.883.258.814.814,0,0,0-.312.656.7.7,0,0,0,.355.605,3.657,3.657,0,0,0,1.2.4,9.8,9.8,0,0,1,1.422.379A2.336,2.336,0,0,1,69.8,12.57a2.2,2.2,0,0,1-.992,1.871,4.28,4.28,0,0,1-2.562.715,4.47,4.47,0,0,1-1.887-.379,3.166,3.166,0,0,1-1.293-1.039,2.414,2.414,0,0,1-.469-1.426h2.141a1.179,1.179,0,0,0,.445.922,1.766,1.766,0,0,0,1.109.32,1.635,1.635,0,0,0,.98-.246A.766.766,0,0,0,67.606,12.664ZM70.9,10.7a5.013,5.013,0,0,1,.484-2.242A3.546,3.546,0,0,1,72.782,6.93,4.069,4.069,0,0,1,74.9,6.391a3.849,3.849,0,0,1,2.793,1.047A4.2,4.2,0,0,1,78.9,10.281l.016.578a4.418,4.418,0,0,1-1.086,3.121,4.209,4.209,0,0,1-5.832,0A4.5,4.5,0,0,1,70.9,10.8Zm2.258.16a3.16,3.16,0,0,0,.453,1.843,1.628,1.628,0,0,0,2.578.008,3.457,3.457,0,0,0,.461-2.015,3.128,3.128,0,0,0-.461-1.831,1.5,1.5,0,0,0-1.3-.649,1.474,1.474,0,0,0-1.281.646A3.516,3.516,0,0,0,73.161,10.856Zm15.016,4.3a4.15,4.15,0,0,1-3.027-1.141,4.054,4.054,0,0,1-1.168-3.039v-.219a5.106,5.106,0,0,1,.492-2.277,3.612,3.612,0,0,1,1.395-1.547,3.914,3.914,0,0,1,2.059-.543,3.508,3.508,0,0,1,2.73,1.094,4.444,4.444,0,0,1,1,3.1v.922H86.27a2.1,2.1,0,0,0,.66,1.328,2,2,0,0,0,1.395.5,2.437,2.437,0,0,0,2.039-.945l1.109,1.242A3.389,3.389,0,0,1,90.1,14.754,4.511,4.511,0,0,1,88.176,15.156Zm-.258-6.945a1.411,1.411,0,0,0-1.09.455,2.357,2.357,0,0,0-.535,1.3h3.141V9.788a1.681,1.681,0,0,0-.406-1.165A1.456,1.456,0,0,0,87.919,8.211Zm7.094-1.664.07.977a2.951,2.951,0,0,1,2.43-1.133,2.453,2.453,0,0,1,2,.789,3.682,3.682,0,0,1,.672,2.359V15H97.926V9.594a1.465,1.465,0,0,0-.312-1.043,1.4,1.4,0,0,0-1.039-.324,1.553,1.553,0,0,0-1.43.813V15H92.887V6.547ZM39.727,34.992V39H37.384V27.625h4.438a5.134,5.134,0,0,1,2.254.469,3.454,3.454,0,0,1,1.5,1.332,3.714,3.714,0,0,1,.523,1.965,3.266,3.266,0,0,1-1.145,2.637,4.767,4.767,0,0,1-3.168.965Zm0-1.9h2.094a2.059,2.059,0,0,0,1.418-.437,1.591,1.591,0,0,0,.488-1.25,1.876,1.876,0,0,0-.492-1.352,1.839,1.839,0,0,0-1.359-.531H39.727ZM49.938,39H47.673V27h2.266ZM56.7,39a2.507,2.507,0,0,1-.227-.758,2.732,2.732,0,0,1-2.133.914,3,3,0,0,1-2.059-.719,2.312,2.312,0,0,1-.816-1.812,2.389,2.389,0,0,1,1-2.062,4.915,4.915,0,0,1,2.879-.727h1.039v-.484a1.393,1.393,0,0,0-.3-.937,1.183,1.183,0,0,0-.949-.352,1.345,1.345,0,0,0-.895.273.929.929,0,0,0-.324.75H51.649a2.268,2.268,0,0,1,.453-1.359,3,3,0,0,1,1.281-.98,4.669,4.669,0,0,1,1.859-.355,3.689,3.689,0,0,1,2.48.785,2.747,2.747,0,0,1,.918,2.207v3.664a4.041,4.041,0,0,0,.336,1.82V39Zm-1.867-1.57a1.945,1.945,0,0,0,.922-.223,1.462,1.462,0,0,0,.625-.6V35.156h-.844q-1.7,0-1.8,1.172l-.008.133a.9.9,0,0,0,.3.7A1.153,1.153,0,0,0,54.829,37.43Zm7.625-6.883.07.977a2.951,2.951,0,0,1,2.43-1.133,2.453,2.453,0,0,1,2,.789,3.682,3.682,0,0,1,.672,2.359V39H65.368V33.594a1.465,1.465,0,0,0-.312-1.043,1.4,1.4,0,0,0-1.039-.324,1.553,1.553,0,0,0-1.43.813V39H60.329V30.547Zm10.773,8.609A4.15,4.15,0,0,1,70.2,38.016a4.054,4.054,0,0,1-1.168-3.039v-.219a5.106,5.106,0,0,1,.492-2.277,3.612,3.612,0,0,1,1.395-1.547,3.914,3.914,0,0,1,2.059-.543,3.508,3.508,0,0,1,2.73,1.094,4.444,4.444,0,0,1,1,3.1v.922H71.321a2.1,2.1,0,0,0,.66,1.328,2,2,0,0,0,1.395.5,2.437,2.437,0,0,0,2.039-.945l1.109,1.242a3.389,3.389,0,0,1-1.375,1.121A4.511,4.511,0,0,1,73.227,39.156Zm-.258-6.945a1.411,1.411,0,0,0-1.09.455,2.357,2.357,0,0,0-.535,1.3h3.141v-.181a1.681,1.681,0,0,0-.406-1.165A1.456,1.456,0,0,0,72.969,32.211ZM82.884,39a2.507,2.507,0,0,1-.227-.758,2.732,2.732,0,0,1-2.133.914,3,3,0,0,1-2.059-.719,2.312,2.312,0,0,1-.816-1.812,2.389,2.389,0,0,1,1-2.062,4.915,4.915,0,0,1,2.879-.727h1.039v-.484a1.393,1.393,0,0,0-.3-.937,1.183,1.183,0,0,0-.949-.352,1.345,1.345,0,0,0-.895.273.929.929,0,0,0-.324.75H77.837a2.268,2.268,0,0,1,.453-1.359,3,3,0,0,1,1.281-.98,4.669,4.669,0,0,1,1.859-.355,3.689,3.689,0,0,1,2.48.785,2.747,2.747,0,0,1,.918,2.207v3.664a4.041,4.041,0,0,0,.336,1.82V39Zm-1.867-1.57a1.945,1.945,0,0,0,.922-.223,1.462,1.462,0,0,0,.625-.6V35.156h-.844q-1.7,0-1.8,1.172l-.008.133a.9.9,0,0,0,.3.7A1.153,1.153,0,0,0,81.016,37.43Zm9.063-.094a1.481,1.481,0,0,0,1.016-.344,1.2,1.2,0,0,0,.406-.914h2.117a2.9,2.9,0,0,1-.469,1.574,3.093,3.093,0,0,1-1.262,1.109,3.949,3.949,0,0,1-1.77.395A3.67,3.67,0,0,1,87.259,38a4.56,4.56,0,0,1-1.047-3.184v-.148a4.508,4.508,0,0,1,1.039-3.117A3.627,3.627,0,0,1,90.1,30.391a3.555,3.555,0,0,1,2.543.9,3.2,3.2,0,0,1,.973,2.4H91.5a1.551,1.551,0,0,0-.406-1.072,1.51,1.51,0,0,0-2.223.163,3.333,3.333,0,0,0-.4,1.866v.235a3.375,3.375,0,0,0,.4,1.878A1.377,1.377,0,0,0,90.079,37.336ZM97.29,39H95.024V30.547H97.29Zm-2.4-10.641a1.112,1.112,0,0,1,.34-.836,1.465,1.465,0,0,1,1.848,0,1.193,1.193,0,0,1,0,1.68,1.448,1.448,0,0,1-1.836,0A1.108,1.108,0,0,1,94.891,28.359ZM98.8,34.7a5.013,5.013,0,0,1,.484-2.242,3.546,3.546,0,0,1,1.395-1.523,4.069,4.069,0,0,1,2.113-.539,3.849,3.849,0,0,1,2.793,1.047,4.2,4.2,0,0,1,1.207,2.844l.016.578a4.418,4.418,0,0,1-1.086,3.121,4.209,4.209,0,0,1-5.832,0A4.5,4.5,0,0,1,98.8,34.8Zm2.258.16a3.16,3.16,0,0,0,.453,1.843,1.628,1.628,0,0,0,2.578.008,3.457,3.457,0,0,0,.461-2.015,3.128,3.128,0,0,0-.461-1.831,1.5,1.5,0,0,0-1.3-.649,1.474,1.474,0,0,0-1.281.646A3.516,3.516,0,0,0,101.055,34.856ZM103.235,27H105.7l-2.164,2.422H101.7Zm7.039,3.547.07.977a2.951,2.951,0,0,1,2.43-1.133,2.453,2.453,0,0,1,2,.789,3.682,3.682,0,0,1,.672,2.359V39h-2.258V33.594a1.465,1.465,0,0,0-.312-1.043,1.4,1.4,0,0,0-1.039-.324,1.553,1.553,0,0,0-1.43.813V39h-2.258V30.547Z" transform="translate(3375.53 -7733.829)" fill="#fff"/>
    <g id="Grupo_1003021" data-name="Grupo 1003021" transform="translate(3176.062 -8195.698)">
      <path id="Trazado_710156" data-name="Trazado 710156" d="M-364.636,525.527h-66.485s-4.356-31.87,30.782-33.074C-400.339,492.453-370.4,486.5-364.636,525.527Z" transform="translate(434.39 -307.418)" fill="#06d1d1"/>
      <path id="Trazado_710157" data-name="Trazado 710157" d="M-208.283,510.046V462.989l30.329-20.559,29.882,21.987s1.055,45.63,0,45.63Z" transform="translate(364.923 -291.937)" fill="#a03d3d"/>
      <rect id="Rectángulo_351106" data-name="Rectángulo 351106" width="56.428" height="51.154" transform="translate(3.27 4.527)" fill="#b76b31"/>
      <path id="Trazado_710158" data-name="Trazado 710158" d="M-212.821,512.072V492.313c0-8.492-.081-16.985.084-25.474a5.587,5.587,0,0,1,1.852-3.913c9.789-7.19,19.734-14.169,29.569-21.3a2.782,2.782,0,0,1,3.88,0c9.933,7.19,19.945,14.271,29.883,21.454a3.706,3.706,0,0,1,1.517,2.386c.158,3.989.071,7.987.071,12.191h-6.057a3.611,3.611,0,0,1-.266-1.3c1.414-6.853-1.89-10.834-7.538-14.262-6.738-4.089-12.937-9.067-19.548-13.787-8.6,6.15-17.175,12.256-25.706,18.417a2.869,2.869,0,0,0-1.2,1.875c-.071,12.253-.052,24.506-.052,37.019h10.743V480.008h32.348v25.7H-152.5V484.595h6.313v27.477Zm43.1-25.47H-188.8v6.046h19.072Zm-.107,19.082v-6.319h-18.928v6.319Z" transform="translate(366.343 -291.442)"/>
      <path id="Trazado_710159" data-name="Trazado 710159" d="M-370.583,486.607c5.274,7.533,6.369,15.762,5.732,24.661h-70.442c-2.291-12.325,3.144-29.115,19.679-37.354-.317-6.13-.073-12.093-1.076-17.837-1.012-5.792-3.261-11.368-5.076-17.4,9.539,0,18.694-.392,27.794.143,5.754.339,9.762,5.608,9.871,11.442.1,5.394.128,10.794-.041,16.185a50.577,50.577,0,0,1-1.159,6.886l10.685,7.5-4.81,4.652c-1.554-1.2-2.87-2.3-4.275-3.275-3.236-2.245-6.157-3.89-10.495-1.363-4.318,2.515-9.258,1.625-13.871-.615a6,6,0,0,0-4.623-.229c-10.139,5.052-15.548,13.36-16.564,24.931h8.5v-8.153h6.295v8.176h28.179V496.83h6.373v8.058h9.4l-4.705-15.193ZM-390.6,459.253h-19.091c-.1,5.5-1.376,11.1,4.163,14.766a9.034,9.034,0,0,0,10.653.006C-389.452,470.392-390.345,464.836-390.6,459.253Zm-.018-7.058c.1-4.317-1.279-6.662-4.431-6.785-5.809-.227-11.632-.065-17.816-.065l2.121,6.85Z" transform="translate(435.792 -290.725)"/>
      <path id="Trazado_710160" data-name="Trazado 710160" d="M-373.281,282.479h-62.125V224.668h62.1v15.816h-6.437v-9.44H-392.4v16.795H-416.25V230.877c-4.016,0-7.753-.072-11.479.081-.538.022-1.475,1.126-1.479,1.734-.084,14.324-.065,28.649-.065,43.225h49.359V247.395h6.634Zm-26.014-51.618c-2.965,0-5.785-.089-8.59.07-.623.035-1.683.922-1.713,1.463-.167,3.014-.081,6.043-.081,9.126h10.384Z" transform="translate(435.672 -224.105)"/>
      <path id="Trazado_710161" data-name="Trazado 710161" d="M-196.272,297.845c-4.882-2.815-9.7-5.672-14.6-8.371-1.672-.921-1.731-1.919-1.329-3.628.67-2.846,2.34-5.516.318-8.789-1.831-2.964-3.808-4.95-7.324-5.321-2.774-.293-3.936-1.681-3.75-4.738.313-5.122.085-10.277.085-15.448a19.9,19.9,0,0,1,4.18-1.17c4.74-.213,6.332-3.907,7.587-7.338.637-1.739-.209-4.234-.916-6.194-.785-2.172-.392-3.291,1.641-4.391,4.727-2.558,9.325-5.352,14.932-8.6.562.885,1.264,1.944,1.92,3.032,2.449,4.061,6.454,4.039,10.287,3.423,1.654-.266,3.381-1.836,4.5-3.264,2.076-2.64,3.918-2.611,6.559-.808a110.5,110.5,0,0,0,10.653,6.252c1.893,1,2.185,2.022,1.676,4.1-.664,2.707-1.913,5.2-.337,8.486,2.326,4.853,6.668,4.976,10.856,6.345v19.279c-1.148.357-2.308.778-3.5,1.079-6.795,1.717-9.227,5.678-7.286,12.507.842,2.962.525,4.7-2.549,6.172-4.5,2.152-8.712,4.919-12.947,7.366-3.55-2.163-5.079-6.391-10.272-6.362C-191.014,291.481-192.777,295.325-196.272,297.845Zm21.369-8c2.07-1.181,3.8-2.288,5.634-3.182,1.944-.948,2.83-2.083,1.766-4.291-1.135-2.356-.689-4.562.837-6.723,1.315-1.862,2.135-4.088,3.527-5.878a7.671,7.671,0,0,1,3.825-2.835c3.168-.719,4.418-2.306,3.842-5.464a7.126,7.126,0,0,1-.006-2.061c.249-2.167-.377-3.462-2.835-3.675a6.109,6.109,0,0,1-5.382-4.124,22.191,22.191,0,0,0-2.418-4.148c-1.793-2.578-2.726-5.156-1.244-8.291a3.023,3.023,0,0,0-.742-2.814c-2.1-1.5-4.441-2.65-6.937-4.075-2.62,4.511-6.533,4.857-11.02,5-4.746.156-8.406-1.062-11.076-4.883-1.964,1.106-3.5,2.127-5.16,2.869-2.428,1.084-3.252,2.642-2.027,5.107,1.033,2.079.466,3.9-.744,5.748-1.254,1.912-2.081,4.141-3.517,5.886-1.2,1.465-2.873,3.107-4.589,3.467-2.828.595-3.593,1.91-3.264,4.476a12.448,12.448,0,0,1,0,2.75c-.2,2.1.234,3.523,2.764,3.728,2.724.22,4.473,1.839,5.561,4.388a27.71,27.71,0,0,0,2.921,5.049c1.364,1.928,1.867,3.873.82,6.054-1.12,2.332-.47,3.873,1.9,4.876a16.773,16.773,0,0,1,3.266,1.884c1.509,1.094,2.549.771,3.773-.562,1.037-1.129,2.505-2.732,3.72-2.679C-185.817,285.706-179.064,282.856-174.9,289.845Z" transform="translate(369.501 -223.85)"/>
      <path id="Trazado_710162" data-name="Trazado 710162" d="M-293.549,326.492a39.955,39.955,0,0,1,39.658,40.324,39.979,39.979,0,0,1-40.144,39.5,39.975,39.975,0,0,1-39.656-40.328A39.967,39.967,0,0,1-293.549,326.492Zm-.182,73.357c18.4-.081,33.569-15.351,33.376-33.594a33.618,33.618,0,0,0-33.32-33.3c-18.256-.153-33.513,15.044-33.551,33.42A33.649,33.649,0,0,0-293.732,399.849Z" transform="translate(403.988 -255.823)"/>
      <path id="Trazado_710163" data-name="Trazado 710163" d="M-283.892,285.641l5.942-6.981,4.034,5.118-14.334,14.1-14.543-14.753,4.559-3.562,5.445,6.446,1.651-.712c-.37-5.558-.12-11.252-1.307-16.629-.955-4.328-5.175-5.844-9.492-5.939-4.447-.1-8.9-.022-13.553-.022v-6.078c5.906,0,11.784-.559,17.509.136,7.806.947,12.969,7.9,13.153,16.479.086,3.991.015,7.985.015,11.977Z" transform="translate(398.318 -233.993)"/>
      <path id="Trazado_710164" data-name="Trazado 710164" d="M-267.663,466.774l-4.143,4.029-6.126-6.94-1.613.632c.414,5.651.188,11.45,1.451,16.9.952,4.108,5.156,5.548,9.337,5.668,3.071.087,6.146.017,9.426.017v6.065c-4.537,0-9.043.515-13.384-.114-7.68-1.111-12.863-7.84-13.1-16.186-.116-4.091-.02-8.188-.02-12.905l-6.568,7.347-5.139-5.533c2.245-2.154,4.831-4.52,7.283-7.018,2.472-2.519,4.811-5.169,7.114-7.66Z" transform="translate(392.727 -294.632)"/>
      <path id="Trazado_710165" data-name="Trazado 710165" d="M-377.435,392.312l-4.246-4.405,7.127-6.05-.375-.685c-4.967,0-9.967-.359-14.89.107-4.335.411-7.385,4.753-7.664,9.72-.076,1.367-.012,2.742-.012,4.377h-5.836c-2.633-11.19,4.587-20.651,16.188-21.008a86.473,86.473,0,0,0,12.533-.775l-7.252-6.177,5.035-4.771,14.715,14.8Z" transform="translate(425.849 -267.085)"/>
      <path id="Trazado_710166" data-name="Trazado 710166" d="M-166.783,359.737c.792,10.084-2.89,17.008-10.85,19.328-3.536,1.031-7.461.779-11.215,1a30.17,30.17,0,0,0-7.074.773l7.576,5.69-5.178,5.063-14.758-14.671,14.956-14.8,4.479,4.669-7.357,6.45c5.769,0,10.787.368,15.722-.112,4.236-.412,7.2-4.6,7.578-9.43.1-1.241.014-2.5.014-3.955Z" transform="translate(364.923 -266.179)"/>
      <path id="Trazado_710167" data-name="Trazado 710167" d="M-159.519,485.184v-6.2h6.308v6.2Z" transform="translate(349.733 -303.325)"/>
      <path id="Trazado_710168" data-name="Trazado 710168" d="M-177.963,478.733h6.035v6.451h-6.035Z" transform="translate(355.479 -303.246)"/>
      <path id="Trazado_710169" data-name="Trazado 710169" d="M-328.189,262.58h-6.289v-5.9h6.289Z" transform="translate(404.233 -234.077)"/>
      <path id="Trazado_710170" data-name="Trazado 710170" d="M-392.7,287.192v-6.314h6.029v6.314Z" transform="translate(422.37 -241.614)"/>
      <path id="Trazado_710171" data-name="Trazado 710171" d="M-367.746,287.243h-5.82V280.9h5.82Z" transform="translate(416.409 -241.623)"/>
      <path id="Trazado_710172" data-name="Trazado 710172" d="M-156.567,340.672h5.912v6.351h-5.912Z" transform="translate(348.814 -260.24)"/>
      <path id="Trazado_710173" data-name="Trazado 710173" d="M-232.35,503.562h6.16v5.917h-6.16Z" transform="translate(372.42 -310.98)"/>
      <path id="Trazado_710174" data-name="Trazado 710174" d="M-382.524,513.063V519.2h-5.854v-6.137Z" transform="translate(421.023 -313.94)"/>
      <path id="Trazado_710175" data-name="Trazado 710175" d="M-397.587,426.611h-5.893v-6h5.893Z" transform="translate(425.727 -285.141)"/>
      <path id="Trazado_710176" data-name="Trazado 710176" d="M-158.845,507.307v6.046h-19.072v-6.046Z" transform="translate(355.464 -312.147)" fill="#abffff"/>
      <path id="Trazado_710177" data-name="Trazado 710177" d="M-158.936,532.164h-18.928v-6.319h18.928Z" transform="translate(355.448 -317.921)" fill="#abffff"/>
      <path id="Trazado_710178" data-name="Trazado 710178" d="M-378.882,468.625c.257,5.583,1.15,11.139-4.275,14.772a9.034,9.034,0,0,1-10.653-.006c-5.539-3.67-4.263-9.265-4.163-14.766Z" transform="translate(424.072 -300.097)" fill="#ffdbdb"/>
      <path id="Trazado_710179" data-name="Trazado 710179" d="M-380.247,455.25h-20.126l-2.121-6.85c6.183,0,12.007-.162,17.816.065C-381.526,448.588-380.147,450.933-380.247,455.25Z" transform="translate(425.42 -293.78)" fill="#8a3d02"/>
      <path id="Trazado_710180" data-name="Trazado 710180" d="M-387.665,233.652V244.31h-10.384c0-3.083-.087-6.112.081-9.126.03-.541,1.09-1.428,1.713-1.463C-393.45,233.562-390.63,233.652-387.665,233.652Z" transform="translate(424.042 -226.895)" fill="#e37c2d"/>
      <path id="Trazado_710181" data-name="Trazado 710181" d="M-171.974,293.662c-4.161-6.989-10.914-4.139-16.8-4.4-1.215-.053-2.683,1.55-3.72,2.679-1.224,1.334-2.264,1.656-3.773.562a16.772,16.772,0,0,0-3.266-1.884c-2.37-1-3.02-2.544-1.9-4.876,1.047-2.181.544-4.125-.82-6.054a27.708,27.708,0,0,1-2.921-5.049c-1.088-2.549-2.837-4.167-5.561-4.388-2.53-.2-2.965-1.624-2.764-3.728a12.447,12.447,0,0,0,0-2.75c-.328-2.566.436-3.881,3.264-4.476,1.716-.361,3.384-2,4.589-3.467,1.436-1.745,2.263-3.974,3.517-5.886,1.21-1.844,1.776-3.67.744-5.748-1.225-2.464-.4-4.022,2.027-5.107,1.661-.742,3.2-1.763,5.16-2.869,2.67,3.821,6.329,5.039,11.076,4.883,4.486-.148,8.4-.494,11.019-5,2.5,1.424,4.842,2.575,6.937,4.075a3.023,3.023,0,0,1,.742,2.814c-1.482,3.135-.549,5.712,1.244,8.291a22.193,22.193,0,0,1,2.418,4.148,6.109,6.109,0,0,0,5.382,4.124c2.457.213,3.083,1.508,2.835,3.675a7.125,7.125,0,0,0,.006,2.061c.576,3.157-.673,4.745-3.842,5.464a7.671,7.671,0,0,0-3.825,2.835c-1.392,1.79-2.212,4.016-3.527,5.878-1.526,2.161-1.973,4.366-.837,6.723,1.064,2.208.178,3.343-1.766,4.291C-168.174,291.374-169.9,292.481-171.974,293.662Zm3.736-28.839a14.661,14.661,0,0,0-14.916-14.732,14.672,14.672,0,0,0-14.735,14.916,14.683,14.683,0,0,0,14.919,14.737A14.684,14.684,0,0,0-168.238,264.823Z" transform="translate(366.571 -227.667)" fill="#abffff"/>
      <path id="Trazado_710182" data-name="Trazado 710182" d="M-290.807,402.772A33.649,33.649,0,0,1-324.3,369.3c.038-18.375,15.294-33.573,33.551-33.42a33.618,33.618,0,0,1,33.32,33.3C-257.238,387.421-272.409,402.691-290.807,402.772Zm3.387-16.061,2.688-.671a9.84,9.84,0,0,0,7.823-10.258,9.633,9.633,0,0,0-8.364-9.428,50.649,50.649,0,0,0-7.872-.329c-2.627.005-5.125-.364-5.14-3.591s2.493-3.634,5.116-3.607c4.313.043,8.627.012,12.916.012v-6.759h-7.178c-.1-2.2-.186-4.092-.272-5.987h-6.278c-.13,2.07-.249,3.971-.369,5.879a36.7,36.7,0,0,0-4.141,1.007,10.071,10.071,0,0,0-6.292,10.4,9.4,9.4,0,0,0,7.819,8.793c3.254.505,6.666.052,9.892.651a5.359,5.359,0,0,1,3.531,3.259c.523,2.189-1.2,3.588-3.476,3.676-2.974.114-5.956.051-8.935.059-1.881,0-3.762,0-5.586,0v6.466l7.242.382c.1,2.153.185,3.953.272,5.831h6.325C-287.6,390.447-287.514,388.645-287.42,386.711Z" transform="translate(401.063 -258.745)" fill="#ffc403"/>
      <path id="Trazado_710183" data-name="Trazado 710183" d="M-161.142,271.151a14.684,14.684,0,0,1-14.733,14.921,14.683,14.683,0,0,1-14.919-14.737,14.672,14.672,0,0,1,14.735-14.916A14.661,14.661,0,0,1-161.142,271.151Zm-6.322.121c.024-4.247-3.98-8.358-8.305-8.528-4.37-.171-8.63,4-8.649,8.471a8.79,8.79,0,0,0,8.251,8.481A8.889,8.889,0,0,0-167.465,271.272Z" transform="translate(359.475 -233.995)"/>
      <path id="Trazado_710184" data-name="Trazado 710184" d="M-278.607,391.334c-.094,1.934-.18,3.737-.28,5.783h-6.325c-.087-1.878-.171-3.678-.272-5.831l-7.242-.382v-6.466c1.824,0,3.705,0,5.586,0,2.979-.008,5.961.055,8.935-.059,2.28-.087,4-1.487,3.476-3.676a5.359,5.359,0,0,0-3.531-3.259c-3.226-.6-6.639-.145-9.892-.651A9.4,9.4,0,0,1-295.971,368a10.071,10.071,0,0,1,6.292-10.4,36.691,36.691,0,0,1,4.141-1.007c.12-1.908.239-3.809.369-5.879h6.278c.086,1.895.172,3.783.272,5.987h7.178v6.759c-4.289,0-8.6.031-12.916-.012-2.622-.027-5.13.368-5.116,3.607s2.513,3.6,5.14,3.591a50.657,50.657,0,0,1,7.872.329A9.633,9.633,0,0,1-268.1,380.4a9.84,9.84,0,0,1-7.823,10.258Z" transform="translate(392.25 -263.368)"/>
    </g>
  </g>
</svg>
