<svg xmlns="http://www.w3.org/2000/svg" width="1027.032" height="331.473" viewBox="0 0 1027.032 331.473">
  <g id="Grupo_1017235" data-name="Grupo 1017235" transform="translate(-287.968 -3519.658)">
    <rect id="Rectángulo_349522" data-name="Rectángulo 349522" width="251.459" height="90.809" rx="26" transform="translate(502.541 3644.646)" fill="#b20d0d"/>
    <text id="_" data-name="
" transform="translate(987.414 3591.12)" fill="#12263f" font-size="15" font-family="Roboto-Black, Roboto" font-weight="800"><tspan x="0" y="0"></tspan><tspan x="0" y="21"></tspan></text>
    <path id="Trazado_715014" data-name="Trazado 715014" d="M4.088-4.437A6.172,6.172,0,0,1,1.63-5.629,2.279,2.279,0,0,1,.861-7.376,2.408,2.408,0,0,1,1.8-9.321a3.736,3.736,0,0,1,2.444-.769,4.078,4.078,0,0,1,1.829.4A3.007,3.007,0,0,1,7.318-8.6a2.8,2.8,0,0,1,.441,1.524H6.439A1.82,1.82,0,0,0,5.865-8.5a2.335,2.335,0,0,0-1.62-.518,2.391,2.391,0,0,0-1.514.428A1.428,1.428,0,0,0,2.188-7.4,1.285,1.285,0,0,0,2.7-6.37,5.062,5.062,0,0,0,4.46-5.6,8.152,8.152,0,0,1,6.4-4.83a2.946,2.946,0,0,1,1.039.981,2.5,2.5,0,0,1,.338,1.319A2.326,2.326,0,0,1,6.836-.591,4.022,4.022,0,0,1,4.313.137,4.678,4.678,0,0,1,2.4-.256,3.221,3.221,0,0,1,1.029-1.333,2.627,2.627,0,0,1,.547-2.885H1.866a1.714,1.714,0,0,0,.667,1.425,2.806,2.806,0,0,0,1.781.523A2.58,2.58,0,0,0,5.906-1.36,1.377,1.377,0,0,0,6.46-2.516a1.351,1.351,0,0,0-.513-1.131A5.911,5.911,0,0,0,4.088-4.437ZM12.332.137A3.232,3.232,0,0,1,9.885-.851a3.666,3.666,0,0,1-.943-2.642v-.232a4.438,4.438,0,0,1,.42-1.965,3.28,3.28,0,0,1,1.176-1.354,2.956,2.956,0,0,1,1.637-.489,2.77,2.77,0,0,1,2.242.95,4.114,4.114,0,0,1,.8,2.721v.526H10.206a2.629,2.629,0,0,0,.639,1.767A2.009,2.009,0,0,0,12.4-.9a2.2,2.2,0,0,0,1.135-.273,2.851,2.851,0,0,0,.813-.725l.772.6A3.106,3.106,0,0,1,12.332.137Zm-.157-6.631a1.687,1.687,0,0,0-1.285.557,2.708,2.708,0,0,0-.643,1.562h3.705v-.1a2.409,2.409,0,0,0-.52-1.494A1.588,1.588,0,0,0,12.175-6.494Zm4.2,2.734a4.347,4.347,0,0,1,.8-2.751A2.558,2.558,0,0,1,19.3-7.533a2.544,2.544,0,0,1,2.112.957l.062-.82h1.155V-.178a3.009,3.009,0,0,1-.851,2.263,3.141,3.141,0,0,1-2.287.827,3.8,3.8,0,0,1-1.565-.342,2.7,2.7,0,0,1-1.169-.937l.656-.759a2.473,2.473,0,0,0,1.989,1,1.938,1.938,0,0,0,1.439-.52A1.986,1.986,0,0,0,21.355-.1V-.738a2.6,2.6,0,0,1-2.071.875,2.527,2.527,0,0,1-2.1-1.046A4.571,4.571,0,0,1,16.379-3.76Zm1.271.144a3.316,3.316,0,0,0,.513,1.965A1.666,1.666,0,0,0,19.6-.937a1.852,1.852,0,0,0,1.757-1.087V-5.4a1.874,1.874,0,0,0-1.743-1.06,1.681,1.681,0,0,0-1.442.718A3.612,3.612,0,0,0,17.65-3.616ZM29.1-.731a2.686,2.686,0,0,1-2.167.868,2.3,2.3,0,0,1-1.8-.687,2.974,2.974,0,0,1-.625-2.034V-7.4h1.265v4.778q0,1.682,1.367,1.682a1.893,1.893,0,0,0,1.928-1.08V-7.4h1.265V0h-1.2ZM28.075-10.5h1.531L27.774-8.49l-1.019,0Zm5.373,3.1.041.93A2.7,2.7,0,0,1,35.7-7.533q2.345,0,2.365,2.646V0H36.8V-4.895a1.7,1.7,0,0,0-.366-1.183,1.466,1.466,0,0,0-1.118-.383,1.825,1.825,0,0,0-1.08.328,2.228,2.228,0,0,0-.725.861V0H32.252V-7.4Z" transform="translate(774 3644.62)" fill="#12263f"/>
    <path id="Trazado_715015" data-name="Trazado 715015" d="M4.088-4.437A6.172,6.172,0,0,1,1.63-5.629,2.279,2.279,0,0,1,.861-7.376,2.408,2.408,0,0,1,1.8-9.321a3.736,3.736,0,0,1,2.444-.769,4.078,4.078,0,0,1,1.829.4A3.007,3.007,0,0,1,7.318-8.6a2.8,2.8,0,0,1,.441,1.524H6.439A1.82,1.82,0,0,0,5.865-8.5a2.335,2.335,0,0,0-1.62-.518,2.391,2.391,0,0,0-1.514.428A1.428,1.428,0,0,0,2.188-7.4,1.285,1.285,0,0,0,2.7-6.37,5.062,5.062,0,0,0,4.46-5.6,8.152,8.152,0,0,1,6.4-4.83a2.946,2.946,0,0,1,1.039.981,2.5,2.5,0,0,1,.338,1.319A2.326,2.326,0,0,1,6.836-.591,4.022,4.022,0,0,1,4.313.137,4.678,4.678,0,0,1,2.4-.256,3.221,3.221,0,0,1,1.029-1.333,2.627,2.627,0,0,1,.547-2.885H1.866a1.714,1.714,0,0,0,.667,1.425,2.806,2.806,0,0,0,1.781.523A2.58,2.58,0,0,0,5.906-1.36,1.377,1.377,0,0,0,6.46-2.516a1.351,1.351,0,0,0-.513-1.131A5.911,5.911,0,0,0,4.088-4.437ZM12.332.137A3.232,3.232,0,0,1,9.885-.851a3.666,3.666,0,0,1-.943-2.642v-.232a4.438,4.438,0,0,1,.42-1.965,3.28,3.28,0,0,1,1.176-1.354,2.956,2.956,0,0,1,1.637-.489,2.77,2.77,0,0,1,2.242.95,4.114,4.114,0,0,1,.8,2.721v.526H10.206a2.629,2.629,0,0,0,.639,1.767A2.009,2.009,0,0,0,12.4-.9a2.2,2.2,0,0,0,1.135-.273,2.851,2.851,0,0,0,.813-.725l.772.6A3.106,3.106,0,0,1,12.332.137Zm-.157-6.631a1.687,1.687,0,0,0-1.285.557,2.708,2.708,0,0,0-.643,1.562h3.705v-.1a2.409,2.409,0,0,0-.52-1.494A1.588,1.588,0,0,0,12.175-6.494Zm4.2,2.734a4.347,4.347,0,0,1,.8-2.751A2.558,2.558,0,0,1,19.3-7.533a2.544,2.544,0,0,1,2.112.957l.062-.82h1.155V-.178a3.009,3.009,0,0,1-.851,2.263,3.141,3.141,0,0,1-2.287.827,3.8,3.8,0,0,1-1.565-.342,2.7,2.7,0,0,1-1.169-.937l.656-.759a2.473,2.473,0,0,0,1.989,1,1.938,1.938,0,0,0,1.439-.52A1.986,1.986,0,0,0,21.355-.1V-.738a2.6,2.6,0,0,1-2.071.875,2.527,2.527,0,0,1-2.1-1.046A4.571,4.571,0,0,1,16.379-3.76Zm1.271.144a3.316,3.316,0,0,0,.513,1.965A1.666,1.666,0,0,0,19.6-.937a1.852,1.852,0,0,0,1.757-1.087V-5.4a1.874,1.874,0,0,0-1.743-1.06,1.681,1.681,0,0,0-1.442.718A3.612,3.612,0,0,0,17.65-3.616ZM29.1-.731a2.686,2.686,0,0,1-2.167.868,2.3,2.3,0,0,1-1.8-.687,2.974,2.974,0,0,1-.625-2.034V-7.4h1.265v4.778q0,1.682,1.367,1.682a1.893,1.893,0,0,0,1.928-1.08V-7.4h1.265V0h-1.2ZM28.075-10.5h1.531L27.774-8.49l-1.019,0Zm5.373,3.1.041.93A2.7,2.7,0,0,1,35.7-7.533q2.345,0,2.365,2.646V0H36.8V-4.895a1.7,1.7,0,0,0-.366-1.183,1.466,1.466,0,0,0-1.118-.383,1.825,1.825,0,0,0-1.08.328,2.228,2.228,0,0,0-.725.861V0H32.252V-7.4Z" transform="translate(774 3686.051)" fill="#12263f"/>
    <path id="Trazado_715016" data-name="Trazado 715016" d="M4.088-4.437A6.172,6.172,0,0,1,1.63-5.629,2.279,2.279,0,0,1,.861-7.376,2.408,2.408,0,0,1,1.8-9.321a3.736,3.736,0,0,1,2.444-.769,4.078,4.078,0,0,1,1.829.4A3.007,3.007,0,0,1,7.318-8.6a2.8,2.8,0,0,1,.441,1.524H6.439A1.82,1.82,0,0,0,5.865-8.5a2.335,2.335,0,0,0-1.62-.518,2.391,2.391,0,0,0-1.514.428A1.428,1.428,0,0,0,2.188-7.4,1.285,1.285,0,0,0,2.7-6.37,5.062,5.062,0,0,0,4.46-5.6,8.152,8.152,0,0,1,6.4-4.83a2.946,2.946,0,0,1,1.039.981,2.5,2.5,0,0,1,.338,1.319A2.326,2.326,0,0,1,6.836-.591,4.022,4.022,0,0,1,4.313.137,4.678,4.678,0,0,1,2.4-.256,3.221,3.221,0,0,1,1.029-1.333,2.627,2.627,0,0,1,.547-2.885H1.866a1.714,1.714,0,0,0,.667,1.425,2.806,2.806,0,0,0,1.781.523A2.58,2.58,0,0,0,5.906-1.36,1.377,1.377,0,0,0,6.46-2.516a1.351,1.351,0,0,0-.513-1.131A5.911,5.911,0,0,0,4.088-4.437ZM12.332.137A3.232,3.232,0,0,1,9.885-.851a3.666,3.666,0,0,1-.943-2.642v-.232a4.438,4.438,0,0,1,.42-1.965,3.28,3.28,0,0,1,1.176-1.354,2.956,2.956,0,0,1,1.637-.489,2.77,2.77,0,0,1,2.242.95,4.114,4.114,0,0,1,.8,2.721v.526H10.206a2.629,2.629,0,0,0,.639,1.767A2.009,2.009,0,0,0,12.4-.9a2.2,2.2,0,0,0,1.135-.273,2.851,2.851,0,0,0,.813-.725l.772.6A3.106,3.106,0,0,1,12.332.137Zm-.157-6.631a1.687,1.687,0,0,0-1.285.557,2.708,2.708,0,0,0-.643,1.562h3.705v-.1a2.409,2.409,0,0,0-.52-1.494A1.588,1.588,0,0,0,12.175-6.494Zm4.2,2.734a4.347,4.347,0,0,1,.8-2.751A2.558,2.558,0,0,1,19.3-7.533a2.544,2.544,0,0,1,2.112.957l.062-.82h1.155V-.178a3.009,3.009,0,0,1-.851,2.263,3.141,3.141,0,0,1-2.287.827,3.8,3.8,0,0,1-1.565-.342,2.7,2.7,0,0,1-1.169-.937l.656-.759a2.473,2.473,0,0,0,1.989,1,1.938,1.938,0,0,0,1.439-.52A1.986,1.986,0,0,0,21.355-.1V-.738a2.6,2.6,0,0,1-2.071.875,2.527,2.527,0,0,1-2.1-1.046A4.571,4.571,0,0,1,16.379-3.76Zm1.271.144a3.316,3.316,0,0,0,.513,1.965A1.666,1.666,0,0,0,19.6-.937a1.852,1.852,0,0,0,1.757-1.087V-5.4a1.874,1.874,0,0,0-1.743-1.06,1.681,1.681,0,0,0-1.442.718A3.612,3.612,0,0,0,17.65-3.616ZM29.1-.731a2.686,2.686,0,0,1-2.167.868,2.3,2.3,0,0,1-1.8-.687,2.974,2.974,0,0,1-.625-2.034V-7.4h1.265v4.778q0,1.682,1.367,1.682a1.893,1.893,0,0,0,1.928-1.08V-7.4h1.265V0h-1.2ZM28.075-10.5h1.531L27.774-8.49l-1.019,0Zm5.373,3.1.041.93A2.7,2.7,0,0,1,35.7-7.533q2.345,0,2.365,2.646V0H36.8V-4.895a1.7,1.7,0,0,0-.366-1.183,1.466,1.466,0,0,0-1.118-.383,1.825,1.825,0,0,0-1.08.328,2.228,2.228,0,0,0-.725.861V0H32.252V-7.4Z" transform="translate(774 3739.316)" fill="#12263f"/>
    <g id="Grupo_992564" data-name="Grupo 992564" transform="translate(-300 4492.884) rotate(-90)">
      <circle id="Elipse_5678" data-name="Elipse 5678" cx="8" cy="8" r="8" transform="translate(794 1040)" fill="#06d1d1"/>
      <line id="Línea_667" data-name="Línea 667" y2="93.467" transform="translate(803 1052)" fill="none" stroke="#06d1d1" stroke-width="3"/>
      <path id="Trazado_706546" data-name="Trazado 706546" d="M790,1148.8l12.467,9.934,11.2-9.934" transform="translate(1 -13.267)" fill="none" stroke="#06d1d1" stroke-linecap="round" stroke-width="3"/>
    </g>
    <g id="Grupo_997544" data-name="Grupo 997544" transform="translate(71.818 2548.045)">
      <path id="Trazado_706547" data-name="Trazado 706547" d="M390,1047.476s5.6,26.794,41.414,29.34,48.75,23.645,48.75,23.645" transform="translate(294.182 95.979)" fill="none" stroke="#06d1d1" stroke-width="3"/>
      <path id="Trazado_706549" data-name="Trazado 706549" d="M0,0,12.467,9.934,23.667,0" transform="matrix(0.891, -0.454, 0.454, 0.891, 758.452, 1192.837)" fill="none" stroke="#06d1d1" stroke-linecap="round" stroke-width="3"/>
    </g>
    <g id="Grupo_997545" data-name="Grupo 997545" transform="translate(756 3620.134)">
      <path id="Trazado_706547-2" data-name="Trazado 706547" d="M390,1112.146s5.6-32.7,41.414-35.811,48.75-28.859,48.75-28.859" transform="translate(-390 -1042.228)" fill="none" stroke="#06d1d1" stroke-width="3"/>
      <path id="Trazado_706549-2" data-name="Trazado 706549" d="M0,9.934,12.467,0l11.2,9.934" transform="matrix(0.891, 0.454, -0.454, 0.891, 78.78, 0)" fill="none" stroke="#06d1d1" stroke-linecap="round" stroke-width="3"/>
    </g>
    <path id="Trazado_715013" data-name="Trazado 715013" d="M19.125,12.667a4.673,4.673,0,0,1-.721,2.36,4.35,4.35,0,0,1-1.85,1.586,6.3,6.3,0,0,1-2.72.563,5.025,5.025,0,0,1-3.973-1.644,6.786,6.786,0,0,1-1.45-4.641v-.633a7.746,7.746,0,0,1,.655-3.292,4.961,4.961,0,0,1,1.885-2.18A5.26,5.26,0,0,1,13.8,4.019a5.516,5.516,0,0,1,3.744,1.226,4.844,4.844,0,0,1,1.608,3.379H16.076a2.292,2.292,0,0,0-.589-1.679,2.422,2.422,0,0,0-1.687-.51,1.843,1.843,0,0,0-1.687.861,5.536,5.536,0,0,0-.562,2.751v.905a6.126,6.126,0,0,0,.514,2.927,1.882,1.882,0,0,0,1.771.879,2.369,2.369,0,0,0,1.626-.5,2.126,2.126,0,0,0,.6-1.591ZM23.573,17H20.6V3.5h2.971Zm7.181,0a3.344,3.344,0,0,1-.281-.853,2.754,2.754,0,0,1-2.285,1.028,3.374,3.374,0,0,1-2.285-.813,2.588,2.588,0,0,1-.94-2.043A2.66,2.66,0,0,1,26.1,11.981a5.821,5.821,0,0,1,3.322-.791h.914v-.5q0-1.316-1.134-1.316a.927.927,0,0,0-1.055,1.042H25.19a2.655,2.655,0,0,1,1.173-2.239,4.931,4.931,0,0,1,2.993-.86A4.323,4.323,0,0,1,32.23,8.2a3.086,3.086,0,0,1,1.081,2.435v4.21a4.311,4.311,0,0,0,.4,2V17ZM28.9,15.066a1.652,1.652,0,0,0,.918-.237,1.487,1.487,0,0,0,.523-.536V12.772h-.861q-1.547,0-1.547,1.389a.848.848,0,0,0,.272.655A.986.986,0,0,0,28.9,15.066Zm11.03-.738a.684.684,0,0,0-.4-.606,6.016,6.016,0,0,0-1.5-.475A6.853,6.853,0,0,1,36.2,12.6a3.062,3.062,0,0,1-1.1-.971,2.319,2.319,0,0,1-.378-1.31,2.628,2.628,0,0,1,1.081-2.158,4.453,4.453,0,0,1,2.83-.848,4.934,4.934,0,0,1,3.023.853A2.666,2.666,0,0,1,42.8,10.408H39.833q0-1.143-1.2-1.143a1.194,1.194,0,0,0-.782.259.8.8,0,0,0-.316.646.737.737,0,0,0,.387.642,3.654,3.654,0,0,0,1.235.4,10.671,10.671,0,0,1,1.49.378,2.706,2.706,0,0,1,2.145,2.646,2.491,2.491,0,0,1-1.156,2.118,5.068,5.068,0,0,1-2.993.817,5.172,5.172,0,0,1-2.18-.439,3.645,3.645,0,0,1-1.494-1.2,2.707,2.707,0,0,1-.536-1.591H37.2a1.145,1.145,0,0,0,.439.962,1.808,1.808,0,0,0,1.081.3,1.422,1.422,0,0,0,.91-.246A.787.787,0,0,0,39.929,14.328ZM47.294,17H44.324V7.49h2.971ZM44.148,5.038A1.322,1.322,0,0,1,44.6,4a1.943,1.943,0,0,1,2.373,0,1.322,1.322,0,0,1,.457,1.037,1.322,1.322,0,0,1-.457,1.037,1.943,1.943,0,0,1-2.373,0A1.322,1.322,0,0,1,44.148,5.038ZM49.808,17V9.547h-1.38V7.49h1.38V7.174a3.631,3.631,0,0,1,1.248-2.909A4.987,4.987,0,0,1,54.3,3.315a11.509,11.509,0,0,1,3.094.51l-.4,2.338L56.5,6.031a7.832,7.832,0,0,0-2.021-.255q-1.7,0-1.7,1.547V7.49h1.863V9.547H52.779V17Zm8.947,0H55.776V7.49h2.979Zm5.827-2.109a1.317,1.317,0,0,0,.967-.338,1.241,1.241,0,0,0,.334-.945h2.777a3.288,3.288,0,0,1-1.121,2.566,4.168,4.168,0,0,1-2.887,1,4.22,4.22,0,0,1-3.27-1.3,5.125,5.125,0,0,1-1.2-3.6v-.123A5.792,5.792,0,0,1,60.72,9.6a3.872,3.872,0,0,1,1.534-1.7,4.573,4.573,0,0,1,2.373-.593,4.116,4.116,0,0,1,2.944,1.028,3.647,3.647,0,0,1,1.09,2.786H65.883A1.626,1.626,0,0,0,65.523,10a1.244,1.244,0,0,0-.967-.4q-1.151,0-1.345,1.468a10.357,10.357,0,0,0-.062,1.283,4.068,4.068,0,0,0,.343,1.986A1.187,1.187,0,0,0,64.583,14.891ZM75.27,17a3.344,3.344,0,0,1-.281-.853A2.754,2.754,0,0,1,72.7,17.176a3.374,3.374,0,0,1-2.285-.813,2.588,2.588,0,0,1-.94-2.043,2.66,2.66,0,0,1,1.143-2.338,5.821,5.821,0,0,1,3.322-.791h.914v-.5q0-1.316-1.134-1.316a.927.927,0,0,0-1.055,1.042H69.707A2.655,2.655,0,0,1,70.88,8.175a4.931,4.931,0,0,1,2.993-.86,4.323,4.323,0,0,1,2.874.888,3.086,3.086,0,0,1,1.081,2.435v4.21a4.311,4.311,0,0,0,.4,2V17Zm-1.854-1.934a1.652,1.652,0,0,0,.918-.237,1.487,1.487,0,0,0,.523-.536V12.772H74q-1.547,0-1.547,1.389a.848.848,0,0,0,.272.655A.986.986,0,0,0,73.416,15.066Zm10.072-.176a1.317,1.317,0,0,0,.967-.338,1.241,1.241,0,0,0,.334-.945h2.777a3.288,3.288,0,0,1-1.121,2.566,4.168,4.168,0,0,1-2.887,1,4.22,4.22,0,0,1-3.27-1.3,5.125,5.125,0,0,1-1.2-3.6v-.123A5.792,5.792,0,0,1,79.625,9.6a3.872,3.872,0,0,1,1.534-1.7,4.573,4.573,0,0,1,2.373-.593,4.116,4.116,0,0,1,2.944,1.028,3.647,3.647,0,0,1,1.09,2.786H84.789A1.626,1.626,0,0,0,84.428,10a1.244,1.244,0,0,0-.967-.4q-1.151,0-1.345,1.468a10.357,10.357,0,0,0-.062,1.283,4.068,4.068,0,0,0,.343,1.986A1.187,1.187,0,0,0,83.488,14.891ZM91.943,17H88.972V7.49h2.971ZM88.8,5.038A1.322,1.322,0,0,1,89.253,4a1.943,1.943,0,0,1,2.373,0,1.322,1.322,0,0,1,.457,1.037,1.322,1.322,0,0,1-.457,1.037,1.943,1.943,0,0,1-2.373,0A1.322,1.322,0,0,1,88.8,5.038Zm4.6,7.119a5.613,5.613,0,0,1,.554-2.536,3.96,3.96,0,0,1,1.591-1.709,4.791,4.791,0,0,1,2.435-.6,4.373,4.373,0,0,1,3.366,1.323,5.076,5.076,0,0,1,1.23,3.6v.105a4.925,4.925,0,0,1-1.235,3.529,4.384,4.384,0,0,1-3.344,1.305,4.434,4.434,0,0,1-3.261-1.217,4.761,4.761,0,0,1-1.327-3.3Zm2.962.185a3.538,3.538,0,0,0,.413,1.934,1.376,1.376,0,0,0,1.222.615q1.582,0,1.617-2.435v-.3q0-2.558-1.635-2.558-1.485,0-1.608,2.206ZM98.376,3.5h3.129L99.062,6.26l-2.417,0Zm8.218,3.99.1,1.116a3.225,3.225,0,0,1,2.716-1.292,2.713,2.713,0,0,1,2.219.888,4.226,4.226,0,0,1,.76,2.672V17h-2.971V11a1.6,1.6,0,0,0-.29-1.059,1.342,1.342,0,0,0-1.055-.338,1.413,1.413,0,0,0-1.292.686V17h-2.962V7.49Zm-84.8,29.685a5.809,5.809,0,0,1,.976-3.56,3.211,3.211,0,0,1,2.725-1.3,2.731,2.731,0,0,1,2.145,1V28.5h2.971V42H27.945L27.8,40.98a2.8,2.8,0,0,1-2.32,1.2,3.205,3.205,0,0,1-2.689-1.3A5.993,5.993,0,0,1,21.793,37.175Zm2.962.185q0,2.531,1.477,2.531a1.458,1.458,0,0,0,1.406-.826V35.443a1.419,1.419,0,0,0-1.389-.844q-1.371,0-1.485,2.215Zm12.138,4.816a4.889,4.889,0,0,1-3.542-1.305A4.507,4.507,0,0,1,32,37.474v-.246a5.84,5.84,0,0,1,.541-2.575,3.955,3.955,0,0,1,1.578-1.727,4.763,4.763,0,0,1,2.461-.611,4.117,4.117,0,0,1,3.164,1.244,4.887,4.887,0,0,1,1.16,3.467v1.151H35.012a2.135,2.135,0,0,0,.694,1.257,2.066,2.066,0,0,0,1.389.457,2.662,2.662,0,0,0,2.2-.984l1.354,1.6a3.784,3.784,0,0,1-1.569,1.217A5.3,5.3,0,0,1,36.893,42.176ZM36.559,34.6q-1.3,0-1.547,1.723H38v-.229a1.467,1.467,0,0,0-.36-1.1A1.434,1.434,0,0,0,36.559,34.6Zm14.036,5.291a1.317,1.317,0,0,0,.967-.338,1.241,1.241,0,0,0,.334-.945h2.777a3.288,3.288,0,0,1-1.121,2.566,4.168,4.168,0,0,1-2.887,1,4.22,4.22,0,0,1-3.27-1.3,5.125,5.125,0,0,1-1.2-3.6v-.123a5.792,5.792,0,0,1,.532-2.544,3.872,3.872,0,0,1,1.534-1.7,4.573,4.573,0,0,1,2.373-.593,4.116,4.116,0,0,1,2.944,1.028,3.647,3.647,0,0,1,1.09,2.786H51.9A1.626,1.626,0,0,0,51.535,35a1.244,1.244,0,0,0-.967-.4q-1.151,0-1.345,1.468a10.357,10.357,0,0,0-.062,1.283,4.068,4.068,0,0,0,.343,1.986A1.187,1.187,0,0,0,50.595,39.891Zm4.957-2.733a5.613,5.613,0,0,1,.554-2.536A3.96,3.96,0,0,1,57.7,32.912a4.791,4.791,0,0,1,2.435-.6A4.373,4.373,0,0,1,63.5,33.637a5.076,5.076,0,0,1,1.23,3.6v.105a4.925,4.925,0,0,1-1.235,3.529,4.384,4.384,0,0,1-3.344,1.305,4.434,4.434,0,0,1-3.261-1.217,4.761,4.761,0,0,1-1.327-3.3Zm2.962.185a3.538,3.538,0,0,0,.413,1.934,1.376,1.376,0,0,0,1.222.615q1.582,0,1.617-2.435v-.3q0-2.558-1.635-2.558-1.485,0-1.608,2.206Zm12.5,1.986a.684.684,0,0,0-.4-.606,6.016,6.016,0,0,0-1.5-.475,6.853,6.853,0,0,1-1.828-.646,3.062,3.062,0,0,1-1.1-.971,2.319,2.319,0,0,1-.378-1.31,2.628,2.628,0,0,1,1.081-2.158,4.453,4.453,0,0,1,2.83-.848,4.934,4.934,0,0,1,3.023.853,2.666,2.666,0,0,1,1.143,2.241H70.915q0-1.143-1.2-1.143a1.194,1.194,0,0,0-.782.259.8.8,0,0,0-.316.646.737.737,0,0,0,.387.642,3.654,3.654,0,0,0,1.235.4,10.671,10.671,0,0,1,1.49.378,2.706,2.706,0,0,1,2.145,2.646,2.491,2.491,0,0,1-1.156,2.118,5.068,5.068,0,0,1-2.993.817,5.172,5.172,0,0,1-2.18-.439,3.645,3.645,0,0,1-1.494-1.2,2.707,2.707,0,0,1-.536-1.591h2.769a1.145,1.145,0,0,0,.439.962,1.808,1.808,0,0,0,1.081.3,1.422,1.422,0,0,0,.91-.246A.787.787,0,0,0,71.012,39.328Zm7.69-9.2V32.49h1.564v2.057H78.7V38.9a1.111,1.111,0,0,0,.193.747,1.037,1.037,0,0,0,.765.211A4.345,4.345,0,0,0,80.4,39.8v2.118a5.466,5.466,0,0,1-1.67.255,3.1,3.1,0,0,1-2.259-.721,2.954,2.954,0,0,1-.729-2.188v-4.72H74.527V32.49H75.74V30.126Zm2.092,7.031a5.613,5.613,0,0,1,.554-2.536,3.96,3.96,0,0,1,1.591-1.709,4.791,4.791,0,0,1,2.435-.6,4.373,4.373,0,0,1,3.366,1.323,5.076,5.076,0,0,1,1.23,3.6v.105a4.925,4.925,0,0,1-1.235,3.529,4.384,4.384,0,0,1-3.344,1.305,4.434,4.434,0,0,1-3.261-1.217,4.761,4.761,0,0,1-1.327-3.3Zm2.962.185a3.538,3.538,0,0,0,.413,1.934,1.376,1.376,0,0,0,1.222.615q1.582,0,1.617-2.435v-.3q0-2.558-1.635-2.558-1.485,0-1.608,2.206Zm12.5,1.986a.684.684,0,0,0-.4-.606,6.016,6.016,0,0,0-1.5-.475,6.853,6.853,0,0,1-1.828-.646,3.062,3.062,0,0,1-1.1-.971,2.319,2.319,0,0,1-.378-1.31,2.628,2.628,0,0,1,1.081-2.158,4.453,4.453,0,0,1,2.83-.848,4.934,4.934,0,0,1,3.023.853,2.666,2.666,0,0,1,1.143,2.241H96.157q0-1.143-1.2-1.143a1.194,1.194,0,0,0-.782.259.8.8,0,0,0-.316.646.737.737,0,0,0,.387.642,3.654,3.654,0,0,0,1.235.4,10.671,10.671,0,0,1,1.49.378A2.706,2.706,0,0,1,99.11,39.24a2.491,2.491,0,0,1-1.156,2.118,5.068,5.068,0,0,1-2.993.817,5.172,5.172,0,0,1-2.18-.439,3.645,3.645,0,0,1-1.494-1.2,2.707,2.707,0,0,1-.536-1.591h2.769a1.145,1.145,0,0,0,.439.962,1.808,1.808,0,0,0,1.081.3,1.422,1.422,0,0,0,.91-.246A.787.787,0,0,0,96.254,39.328Z" transform="translate(570 3667)" fill="#fff"/>
    <g id="Grupo_997550" data-name="Grupo 997550" transform="matrix(0.914, 0.407, -0.407, 0.914, 1046.073, 3555.37)">
      <path id="Trazado_706547-3" data-name="Trazado 706547" d="M390,1112.146s5.6-32.7,41.414-35.811,48.75-28.859,48.75-28.859" transform="matrix(0.985, 0.174, -0.174, 0.985, -190.633, -1099.438)" fill="none" stroke="#06d1d1" stroke-width="3"/>
      <path id="Trazado_706549-3" data-name="Trazado 706549" d="M0,14.638,10.935,0,20.76,14.638" transform="matrix(0.485, 0.875, -0.875, 0.485, 96.893, 6.543)" fill="none" stroke="#06d1d1" stroke-linecap="round" stroke-width="3"/>
    </g>
    <g id="Grupo_997555" data-name="Grupo 997555" transform="matrix(0.914, 0.407, -0.407, 0.914, 1046.073, 3651.081)">
      <path id="Trazado_706547-4" data-name="Trazado 706547" d="M390,1112.146s5.6-32.7,41.414-35.811,48.75-28.859,48.75-28.859" transform="matrix(0.985, 0.174, -0.174, 0.985, -190.633, -1099.438)" fill="none" stroke="#06d1d1" stroke-width="3"/>
      <path id="Trazado_706549-4" data-name="Trazado 706549" d="M0,14.638,10.935,0,20.76,14.638" transform="matrix(0.485, 0.875, -0.875, 0.485, 96.893, 6.543)" fill="none" stroke="#06d1d1" stroke-linecap="round" stroke-width="3"/>
    </g>
    <g id="Grupo_997560" data-name="Grupo 997560" transform="matrix(0.914, 0.407, -0.407, 0.914, 1046.073, 3741.581)">
      <path id="Trazado_706547-5" data-name="Trazado 706547" d="M390,1112.146s5.6-32.7,41.414-35.811,48.75-28.859,48.75-28.859" transform="matrix(0.985, 0.174, -0.174, 0.985, -190.633, -1099.438)" fill="none" stroke="#06d1d1" stroke-width="3"/>
      <path id="Trazado_706549-5" data-name="Trazado 706549" d="M0,14.638,10.935,0,20.76,14.638" transform="matrix(0.485, 0.875, -0.875, 0.485, 96.893, 6.543)" fill="none" stroke="#06d1d1" stroke-linecap="round" stroke-width="3"/>
    </g>
    <g id="Grupo_997551" data-name="Grupo 997551" transform="matrix(0.914, -0.407, 0.407, 0.914, 1014.155, 3556.733)">
      <path id="Trazado_706547-6" data-name="Trazado 706547" d="M0,0S5.6,32.7,41.414,35.811,90.164,64.67,90.164,64.67" transform="matrix(0.985, -0.174, 0.174, 0.985, 0, 15.657)" fill="none" stroke="#06d1d1" stroke-width="3"/>
      <path id="Trazado_706549-6" data-name="Trazado 706549" d="M0,0,10.935,14.638,20.759,0" transform="matrix(0.485, -0.875, 0.875, 0.485, 83.77, 65.552)" fill="none" stroke="#06d1d1" stroke-linecap="round" stroke-width="3"/>
    </g>
    <g id="Grupo_997554" data-name="Grupo 997554" transform="matrix(0.914, -0.407, 0.407, 0.914, 1014.155, 3652.444)">
      <path id="Trazado_706547-7" data-name="Trazado 706547" d="M0,0S5.6,32.7,41.414,35.811,90.164,64.67,90.164,64.67" transform="matrix(0.985, -0.174, 0.174, 0.985, 0, 15.657)" fill="none" stroke="#06d1d1" stroke-width="3"/>
      <path id="Trazado_706549-7" data-name="Trazado 706549" d="M0,0,10.935,14.638,20.759,0" transform="matrix(0.485, -0.875, 0.875, 0.485, 83.77, 65.552)" fill="none" stroke="#06d1d1" stroke-linecap="round" stroke-width="3"/>
    </g>
    <g id="Grupo_997561" data-name="Grupo 997561" transform="matrix(0.914, -0.407, 0.407, 0.914, 1014.155, 3742.944)">
      <path id="Trazado_706547-8" data-name="Trazado 706547" d="M0,0S5.6,32.7,41.414,35.811,90.164,64.67,90.164,64.67" transform="matrix(0.985, -0.174, 0.174, 0.985, 0, 15.657)" fill="none" stroke="#06d1d1" stroke-width="3"/>
      <path id="Trazado_706549-8" data-name="Trazado 706549" d="M0,0,10.935,14.638,20.759,0" transform="matrix(0.485, -0.875, 0.875, 0.485, 83.77, 65.552)" fill="none" stroke="#06d1d1" stroke-linecap="round" stroke-width="3"/>
    </g>
    <g id="Grupo_997546" data-name="Grupo 997546" transform="translate(848 3648)">
      <rect id="Rectángulo_349412" data-name="Rectángulo 349412" width="178" height="75" rx="13" fill="#8a3d02"/>
    </g>
    <g id="Grupo_997547" data-name="Grupo 997547" transform="translate(848 3555)">
      <rect id="Rectángulo_349412-2" data-name="Rectángulo 349412" width="178" height="75" rx="13" fill="#8a3d02"/>
    </g>
    <g id="Grupo_997552" data-name="Grupo 997552" transform="translate(1134 3562)">
      <rect id="Rectángulo_349412-3" data-name="Rectángulo 349412" width="178" height="29" rx="7" transform="translate(3 -4)" fill="#06d1d1"/>
    </g>
    <g id="Grupo_997556" data-name="Grupo 997556" transform="translate(1134 3657.711)">
      <rect id="Rectángulo_349412-4" data-name="Rectángulo 349412" width="178" height="29" rx="7" transform="translate(3 -4)" fill="#06d1d1"/>
    </g>
    <g id="Grupo_997559" data-name="Grupo 997559" transform="translate(1134 3748.21)">
      <rect id="Rectángulo_349412-5" data-name="Rectángulo 349412" width="178" height="29" rx="7" transform="translate(3 -4)" fill="#06d1d1"/>
    </g>
    <g id="Grupo_997553" data-name="Grupo 997553" transform="translate(1134 3598)">
      <rect id="Rectángulo_349412-6" data-name="Rectángulo 349412" width="178" height="29" rx="7" transform="translate(3 -4)" fill="#06d1d1"/>
    </g>
    <g id="Grupo_997557" data-name="Grupo 997557" transform="translate(1134 3693.711)">
      <rect id="Rectángulo_349412-7" data-name="Rectángulo 349412" width="178" height="29" rx="7" transform="translate(3 -4)" fill="#06d1d1"/>
    </g>
    <g id="Grupo_997558" data-name="Grupo 997558" transform="translate(1134 3784.21)">
      <rect id="Rectángulo_349412-8" data-name="Rectángulo 349412" width="178" height="29" rx="7" transform="translate(3 -4)" fill="#06d1d1"/>
    </g>
    <g id="Grupo_997548" data-name="Grupo 997548" transform="translate(848 3741)">
      <rect id="Rectángulo_349412-9" data-name="Rectángulo 349412" width="178" height="75" rx="13" fill="#8a3d02"/>
    </g>
    <path id="Trazado_715018" data-name="Trazado 715018" d="M36.484,10.836H34.617V15H32.273V3.625H36.5a4.778,4.778,0,0,1,3.109.9A3.1,3.1,0,0,1,40.7,7.063,3.5,3.5,0,0,1,40.2,9a3.437,3.437,0,0,1-1.527,1.238l2.461,4.648V15H38.617Zm-1.867-1.9h1.891a1.936,1.936,0,0,0,1.367-.449,1.606,1.606,0,0,0,.484-1.238A1.719,1.719,0,0,0,37.9,5.984a1.9,1.9,0,0,0-1.4-.461H34.617Zm11.609,6.219A4.15,4.15,0,0,1,43.2,14.016a4.054,4.054,0,0,1-1.168-3.039v-.219a5.106,5.106,0,0,1,.492-2.277,3.612,3.612,0,0,1,1.395-1.547,3.914,3.914,0,0,1,2.059-.543,3.508,3.508,0,0,1,2.73,1.094,4.444,4.444,0,0,1,1,3.1v.922H44.32a2.1,2.1,0,0,0,.66,1.328,2,2,0,0,0,1.395.5,2.437,2.437,0,0,0,2.039-.945l1.109,1.242a3.389,3.389,0,0,1-1.375,1.121A4.511,4.511,0,0,1,46.227,15.156Zm-.258-6.945a1.411,1.411,0,0,0-1.09.455,2.357,2.357,0,0,0-.535,1.3h3.141V9.788a1.681,1.681,0,0,0-.406-1.165A1.456,1.456,0,0,0,45.969,8.211ZM53.367,15H51.1V3h2.266Zm6.758,0a2.507,2.507,0,0,1-.227-.758,2.732,2.732,0,0,1-2.133.914,3,3,0,0,1-2.059-.719,2.312,2.312,0,0,1-.816-1.812,2.389,2.389,0,0,1,1-2.062,4.915,4.915,0,0,1,2.879-.727H59.8V9.352a1.393,1.393,0,0,0-.3-.937,1.183,1.183,0,0,0-.949-.352,1.345,1.345,0,0,0-.895.273.929.929,0,0,0-.324.75H55.078a2.268,2.268,0,0,1,.453-1.359,3,3,0,0,1,1.281-.98,4.669,4.669,0,0,1,1.859-.355,3.689,3.689,0,0,1,2.48.785,2.747,2.747,0,0,1,.918,2.207v3.664a4.041,4.041,0,0,0,.336,1.82V15Zm-1.867-1.57a1.945,1.945,0,0,0,.922-.223,1.462,1.462,0,0,0,.625-.6V11.156h-.844q-1.7,0-1.8,1.172l-.008.133a.9.9,0,0,0,.3.7A1.153,1.153,0,0,0,58.258,13.43Zm9.063-.094a1.481,1.481,0,0,0,1.016-.344,1.2,1.2,0,0,0,.406-.914h2.117a2.9,2.9,0,0,1-.469,1.574,3.093,3.093,0,0,1-1.262,1.109,3.949,3.949,0,0,1-1.77.395A3.67,3.67,0,0,1,64.5,14a4.56,4.56,0,0,1-1.047-3.184v-.148a4.508,4.508,0,0,1,1.039-3.117,3.627,3.627,0,0,1,2.852-1.164,3.555,3.555,0,0,1,2.543.9,3.2,3.2,0,0,1,.973,2.4H68.742a1.551,1.551,0,0,0-.406-1.072,1.51,1.51,0,0,0-2.223.163,3.333,3.333,0,0,0-.4,1.866v.235a3.375,3.375,0,0,0,.4,1.878A1.377,1.377,0,0,0,67.32,13.336ZM74.531,15H72.266V6.547h2.266Zm-2.4-10.641a1.112,1.112,0,0,1,.34-.836,1.465,1.465,0,0,1,1.848,0,1.105,1.105,0,0,1,.344.836,1.108,1.108,0,0,1-.348.844,1.448,1.448,0,0,1-1.836,0A1.108,1.108,0,0,1,72.133,4.359ZM76.039,10.7a5.013,5.013,0,0,1,.484-2.242A3.546,3.546,0,0,1,77.918,6.93a4.069,4.069,0,0,1,2.113-.539,3.849,3.849,0,0,1,2.793,1.047,4.2,4.2,0,0,1,1.207,2.844l.016.578a4.418,4.418,0,0,1-1.086,3.121,4.209,4.209,0,0,1-5.832,0,4.5,4.5,0,0,1-1.09-3.187Zm2.258.16A3.16,3.16,0,0,0,78.75,12.7a1.628,1.628,0,0,0,2.578.008,3.457,3.457,0,0,0,.461-2.015,3.128,3.128,0,0,0-.461-1.831,1.5,1.5,0,0,0-1.3-.649,1.474,1.474,0,0,0-1.281.646A3.516,3.516,0,0,0,78.3,10.856ZM80.477,3h2.461L80.773,5.422H78.938Zm7.039,3.547.07.977a2.951,2.951,0,0,1,2.43-1.133,2.453,2.453,0,0,1,2,.789,3.682,3.682,0,0,1,.672,2.359V15H90.43V9.594a1.465,1.465,0,0,0-.312-1.043,1.4,1.4,0,0,0-1.039-.324,1.553,1.553,0,0,0-1.43.813V15H85.391V6.547ZM101.9,13.336a1.481,1.481,0,0,0,1.016-.344,1.2,1.2,0,0,0,.406-.914h2.117a2.9,2.9,0,0,1-.469,1.574,3.093,3.093,0,0,1-1.262,1.109,3.949,3.949,0,0,1-1.77.395A3.67,3.67,0,0,1,99.078,14a4.56,4.56,0,0,1-1.047-3.184v-.148A4.508,4.508,0,0,1,99.07,7.555a3.627,3.627,0,0,1,2.852-1.164,3.555,3.555,0,0,1,2.543.9,3.2,3.2,0,0,1,.973,2.4H103.32a1.551,1.551,0,0,0-.406-1.072,1.51,1.51,0,0,0-2.223.163,3.333,3.333,0,0,0-.4,1.866v.235a3.375,3.375,0,0,0,.4,1.878A1.377,1.377,0,0,0,101.9,13.336Zm4.477-2.641a5.013,5.013,0,0,1,.484-2.242,3.546,3.546,0,0,1,1.395-1.523,4.069,4.069,0,0,1,2.113-.539,3.849,3.849,0,0,1,2.793,1.047,4.2,4.2,0,0,1,1.207,2.844l.016.578A4.418,4.418,0,0,1,113.3,13.98a4.209,4.209,0,0,1-5.832,0,4.5,4.5,0,0,1-1.09-3.187Zm2.258.16a3.16,3.16,0,0,0,.453,1.843,1.628,1.628,0,0,0,2.578.008,3.457,3.457,0,0,0,.461-2.015,3.128,3.128,0,0,0-.461-1.831,1.5,1.5,0,0,0-1.3-.649,1.474,1.474,0,0,0-1.281.646A3.516,3.516,0,0,0,108.633,10.856Zm9.219-4.309.07.977a2.951,2.951,0,0,1,2.43-1.133,2.453,2.453,0,0,1,2,.789,3.682,3.682,0,0,1,.672,2.359V15h-2.258V9.594a1.465,1.465,0,0,0-.312-1.043,1.4,1.4,0,0,0-1.039-.324,1.553,1.553,0,0,0-1.43.813V15h-2.258V6.547Zm14.758,8.609a4.15,4.15,0,0,1-3.027-1.141,4.054,4.054,0,0,1-1.168-3.039v-.219a5.106,5.106,0,0,1,.492-2.277A3.612,3.612,0,0,1,130.3,6.934a3.914,3.914,0,0,1,2.059-.543,3.508,3.508,0,0,1,2.73,1.094,4.444,4.444,0,0,1,1,3.1v.922H130.7a2.1,2.1,0,0,0,.66,1.328,2,2,0,0,0,1.395.5,2.437,2.437,0,0,0,2.039-.945l1.109,1.242a3.389,3.389,0,0,1-1.375,1.121A4.511,4.511,0,0,1,132.609,15.156Zm-.258-6.945a1.411,1.411,0,0,0-1.09.455,2.357,2.357,0,0,0-.535,1.3h3.141V9.788a1.681,1.681,0,0,0-.406-1.165A1.456,1.456,0,0,0,132.352,8.211ZM139.75,15h-2.266V3h2.266ZM62.406,34.852a5.07,5.07,0,0,1-.887,3.129,2.843,2.843,0,0,1-2.395,1.176,2.633,2.633,0,0,1-2.07-.891V42.25H54.8v-11.7h2.094l.078.828a2.654,2.654,0,0,1,2.141-.984,2.862,2.862,0,0,1,2.43,1.156,5.207,5.207,0,0,1,.867,3.188Zm-2.258-.164a3.327,3.327,0,0,0-.418-1.82,1.361,1.361,0,0,0-1.215-.641,1.478,1.478,0,0,0-1.461.813V36.5a1.5,1.5,0,0,0,1.477.836Q60.148,37.336,60.148,34.688Zm8.406-2.023a6.134,6.134,0,0,0-.812-.062,1.654,1.654,0,0,0-1.68.867V39H63.8V30.547h2.133L66,31.555a2.092,2.092,0,0,1,1.883-1.164,2.366,2.366,0,0,1,.7.1Zm.453,2.031a5.013,5.013,0,0,1,.484-2.242,3.546,3.546,0,0,1,1.395-1.523A4.069,4.069,0,0,1,73,30.391a3.849,3.849,0,0,1,2.793,1.047A4.2,4.2,0,0,1,77,34.281l.016.578A4.418,4.418,0,0,1,75.93,37.98a4.209,4.209,0,0,1-5.832,0,4.5,4.5,0,0,1-1.09-3.187Zm2.258.16a3.16,3.16,0,0,0,.453,1.843,1.628,1.628,0,0,0,2.578.008,3.457,3.457,0,0,0,.461-2.015A3.128,3.128,0,0,0,74.3,32.86a1.5,1.5,0,0,0-1.3-.649,1.474,1.474,0,0,0-1.281.646A3.516,3.516,0,0,0,71.266,34.856Zm6.789-.145a5.094,5.094,0,0,1,.887-3.148,2.877,2.877,0,0,1,2.426-1.172,2.589,2.589,0,0,1,2.039.922V27h2.266V39H83.633l-.109-.9a2.657,2.657,0,0,1-2.172,1.055,2.869,2.869,0,0,1-2.395-1.176A5.258,5.258,0,0,1,78.055,34.711Zm2.258.168a3.337,3.337,0,0,0,.414,1.823,1.349,1.349,0,0,0,1.2.634,1.511,1.511,0,0,0,1.477-.884V33.111a1.489,1.489,0,0,0-1.461-.884Q80.313,32.227,80.313,34.879Zm12.172,3.262a2.831,2.831,0,0,1-2.312,1.016,2.67,2.67,0,0,1-2.074-.781,3.335,3.335,0,0,1-.73-2.289V30.547h2.258v5.467q0,1.322,1.2,1.322a1.63,1.63,0,0,0,1.578-.8V30.547h2.266V39H92.547Zm7.406-.8a1.481,1.481,0,0,0,1.016-.344,1.2,1.2,0,0,0,.406-.914h2.117a2.9,2.9,0,0,1-.469,1.574,3.093,3.093,0,0,1-1.262,1.109,3.949,3.949,0,0,1-1.77.395A3.67,3.67,0,0,1,97.07,38a4.56,4.56,0,0,1-1.047-3.184v-.148a4.508,4.508,0,0,1,1.039-3.117,3.627,3.627,0,0,1,2.852-1.164,3.555,3.555,0,0,1,2.543.9,3.2,3.2,0,0,1,.973,2.4h-2.117a1.551,1.551,0,0,0-.406-1.072,1.51,1.51,0,0,0-2.223.163,3.333,3.333,0,0,0-.4,1.866v.235a3.375,3.375,0,0,0,.4,1.878A1.377,1.377,0,0,0,99.891,37.336Zm7.531-8.867v2.078h1.445V32.2h-1.445v4.219a1.007,1.007,0,0,0,.18.672.9.9,0,0,0,.688.2,3.6,3.6,0,0,0,.664-.055v1.711a4.648,4.648,0,0,1-1.367.2,2.156,2.156,0,0,1-2.422-2.4V32.2H103.93V30.547h1.234V28.469Zm2.117,6.227a5.013,5.013,0,0,1,.484-2.242,3.546,3.546,0,0,1,1.395-1.523,4.069,4.069,0,0,1,2.113-.539,3.849,3.849,0,0,1,2.793,1.047,4.2,4.2,0,0,1,1.207,2.844l.016.578a4.418,4.418,0,0,1-1.086,3.121,4.209,4.209,0,0,1-5.832,0,4.5,4.5,0,0,1-1.09-3.187Zm2.258.16a3.16,3.16,0,0,0,.453,1.843,1.628,1.628,0,0,0,2.578.008,3.457,3.457,0,0,0,.461-2.015,3.128,3.128,0,0,0-.461-1.831,1.5,1.5,0,0,0-1.3-.649,1.474,1.474,0,0,0-1.281.646A3.516,3.516,0,0,0,111.8,34.856Z" transform="translate(848 3662)" fill="#fff"/>
    <path id="Trazado_715019" data-name="Trazado 715019" d="M15,12.18l2.578-8.555h2.609L16.223,15H13.777L9.832,3.625h2.6ZM25.645,15a2.507,2.507,0,0,1-.227-.758,2.732,2.732,0,0,1-2.133.914,3,3,0,0,1-2.059-.719,2.312,2.312,0,0,1-.816-1.812,2.389,2.389,0,0,1,1-2.062,4.915,4.915,0,0,1,2.879-.727h1.039V9.352a1.393,1.393,0,0,0-.3-.937,1.183,1.183,0,0,0-.949-.352,1.345,1.345,0,0,0-.895.273.929.929,0,0,0-.324.75H20.6a2.268,2.268,0,0,1,.453-1.359,3,3,0,0,1,1.281-.98,4.669,4.669,0,0,1,1.859-.355,3.689,3.689,0,0,1,2.48.785,2.747,2.747,0,0,1,.918,2.207v3.664a4.041,4.041,0,0,0,.336,1.82V15Zm-1.867-1.57a1.945,1.945,0,0,0,.922-.223,1.462,1.462,0,0,0,.625-.6V11.156H24.48q-1.7,0-1.8,1.172l-.008.133a.9.9,0,0,0,.3.7A1.153,1.153,0,0,0,23.777,13.43Zm10.3-4.766a6.134,6.134,0,0,0-.812-.062,1.654,1.654,0,0,0-1.68.867V15H29.324V6.547h2.133l.063,1.008A2.092,2.092,0,0,1,33.4,6.391a2.366,2.366,0,0,1,.7.1ZM37.543,15H35.277V6.547h2.266Zm-2.4-10.641a1.112,1.112,0,0,1,.34-.836,1.465,1.465,0,0,1,1.848,0,1.105,1.105,0,0,1,.344.836,1.108,1.108,0,0,1-.348.844,1.448,1.448,0,0,1-1.836,0A1.108,1.108,0,0,1,35.145,4.359ZM44.3,15a2.507,2.507,0,0,1-.227-.758,2.732,2.732,0,0,1-2.133.914,3,3,0,0,1-2.059-.719,2.312,2.312,0,0,1-.816-1.812,2.389,2.389,0,0,1,1-2.062,4.915,4.915,0,0,1,2.879-.727H43.98V9.352a1.393,1.393,0,0,0-.3-.937,1.183,1.183,0,0,0-.949-.352,1.345,1.345,0,0,0-.895.273.929.929,0,0,0-.324.75H39.254a2.268,2.268,0,0,1,.453-1.359,3,3,0,0,1,1.281-.98,4.669,4.669,0,0,1,1.859-.355,3.689,3.689,0,0,1,2.48.785,2.747,2.747,0,0,1,.918,2.207v3.664a4.041,4.041,0,0,0,.336,1.82V15Zm-1.867-1.57a1.945,1.945,0,0,0,.922-.223,1.462,1.462,0,0,0,.625-.6V11.156h-.844q-1.7,0-1.8,1.172l-.008.133a.9.9,0,0,0,.3.7A1.153,1.153,0,0,0,42.434,13.43ZM55.6,10.852a5.119,5.119,0,0,1-.867,3.168,2.872,2.872,0,0,1-2.422,1.137,2.639,2.639,0,0,1-2.2-1.055l-.1.9H47.98V3h2.258V7.3a2.571,2.571,0,0,1,2.055-.914,2.9,2.9,0,0,1,2.426,1.137,5.126,5.126,0,0,1,.879,3.2Zm-2.258-.164a3.363,3.363,0,0,0-.406-1.871,1.374,1.374,0,0,0-1.211-.59,1.489,1.489,0,0,0-1.484.883v3.336a1.509,1.509,0,0,0,1.5.891,1.394,1.394,0,0,0,1.438-1.078A5.562,5.562,0,0,0,53.34,10.688ZM59.371,15H57.105V6.547h2.266Zm-2.4-10.641a1.112,1.112,0,0,1,.34-.836,1.465,1.465,0,0,1,1.848,0,1.105,1.105,0,0,1,.344.836,1.108,1.108,0,0,1-.348.844,1.448,1.448,0,0,1-1.836,0A1.108,1.108,0,0,1,56.973,4.359ZM63.613,15H61.348V3h2.266Zm4.242,0H65.59V6.547h2.266Zm-2.4-10.641a1.112,1.112,0,0,1,.34-.836,1.465,1.465,0,0,1,1.848,0,1.105,1.105,0,0,1,.344.836,1.108,1.108,0,0,1-.348.844,1.448,1.448,0,0,1-1.836,0A1.108,1.108,0,0,1,65.457,4.359Zm3.906,6.352a5.094,5.094,0,0,1,.887-3.148,2.877,2.877,0,0,1,2.426-1.172,2.589,2.589,0,0,1,2.039.922V3H76.98V15H74.941l-.109-.9a2.657,2.657,0,0,1-2.172,1.055,2.869,2.869,0,0,1-2.395-1.176A5.258,5.258,0,0,1,69.363,10.711Zm2.258.168a3.337,3.337,0,0,0,.414,1.823,1.349,1.349,0,0,0,1.2.634,1.511,1.511,0,0,0,1.477-.884V9.111a1.489,1.489,0,0,0-1.461-.884Q71.621,8.227,71.621,10.879ZM83.629,15a2.507,2.507,0,0,1-.227-.758,2.732,2.732,0,0,1-2.133.914,3,3,0,0,1-2.059-.719,2.312,2.312,0,0,1-.816-1.812,2.389,2.389,0,0,1,1-2.062,4.915,4.915,0,0,1,2.879-.727h1.039V9.352a1.393,1.393,0,0,0-.3-.937,1.183,1.183,0,0,0-.949-.352,1.345,1.345,0,0,0-.895.273.929.929,0,0,0-.324.75H78.582a2.268,2.268,0,0,1,.453-1.359,3,3,0,0,1,1.281-.98,4.669,4.669,0,0,1,1.859-.355,3.689,3.689,0,0,1,2.48.785,2.747,2.747,0,0,1,.918,2.207v3.664a4.041,4.041,0,0,0,.336,1.82V15Zm-1.867-1.57a1.945,1.945,0,0,0,.922-.223,1.462,1.462,0,0,0,.625-.6V11.156h-.844q-1.7,0-1.8,1.172l-.008.133a.9.9,0,0,0,.3.7A1.153,1.153,0,0,0,81.762,13.43Zm5.2-2.719a5.094,5.094,0,0,1,.887-3.148A2.877,2.877,0,0,1,90.27,6.391a2.589,2.589,0,0,1,2.039.922V3h2.266V15H92.535l-.109-.9a2.657,2.657,0,0,1-2.172,1.055,2.869,2.869,0,0,1-2.395-1.176A5.258,5.258,0,0,1,86.957,10.711Zm2.258.168a3.337,3.337,0,0,0,.414,1.823,1.349,1.349,0,0,0,1.2.634,1.511,1.511,0,0,0,1.477-.884V9.111a1.489,1.489,0,0,0-1.461-.884Q89.215,8.227,89.215,10.879Zm15.844-2.215a6.134,6.134,0,0,0-.812-.062,1.654,1.654,0,0,0-1.68.867V15h-2.258V6.547h2.133l.063,1.008a2.092,2.092,0,0,1,1.883-1.164,2.366,2.366,0,0,1,.7.1Zm4.828,6.492a4.15,4.15,0,0,1-3.027-1.141,4.054,4.054,0,0,1-1.168-3.039v-.219a5.106,5.106,0,0,1,.492-2.277,3.612,3.612,0,0,1,1.395-1.547,3.914,3.914,0,0,1,2.059-.543,3.508,3.508,0,0,1,2.73,1.094,4.444,4.444,0,0,1,1,3.1v.922H107.98a2.1,2.1,0,0,0,.66,1.328,2,2,0,0,0,1.395.5,2.437,2.437,0,0,0,2.039-.945l1.109,1.242a3.389,3.389,0,0,1-1.375,1.121A4.511,4.511,0,0,1,109.887,15.156Zm-.258-6.945a1.411,1.411,0,0,0-1.09.455,2.357,2.357,0,0,0-.535,1.3h3.141V9.788a1.681,1.681,0,0,0-.406-1.165A1.456,1.456,0,0,0,109.629,8.211Zm9.594,4.453a.727.727,0,0,0-.41-.652,4.659,4.659,0,0,0-1.316-.426q-3.016-.633-3.016-2.562a2.323,2.323,0,0,1,.934-1.879,3.766,3.766,0,0,1,2.441-.754,4.053,4.053,0,0,1,2.574.758,2.388,2.388,0,0,1,.965,1.969h-2.258a1.092,1.092,0,0,0-.312-.8A1.322,1.322,0,0,0,117.848,8a1.351,1.351,0,0,0-.883.258.814.814,0,0,0-.312.656.7.7,0,0,0,.355.605,3.657,3.657,0,0,0,1.2.4,9.8,9.8,0,0,1,1.422.379,2.336,2.336,0,0,1,1.789,2.273,2.2,2.2,0,0,1-.992,1.871,4.28,4.28,0,0,1-2.562.715,4.47,4.47,0,0,1-1.887-.379,3.166,3.166,0,0,1-1.293-1.039,2.414,2.414,0,0,1-.469-1.426h2.141a1.179,1.179,0,0,0,.445.922,1.766,1.766,0,0,0,1.109.32,1.635,1.635,0,0,0,.98-.246A.766.766,0,0,0,119.223,12.664Zm11.258-1.812a5.07,5.07,0,0,1-.887,3.129,2.843,2.843,0,0,1-2.395,1.176,2.633,2.633,0,0,1-2.07-.891V18.25h-2.258V6.547h2.094l.078.828a2.654,2.654,0,0,1,2.141-.984,2.862,2.862,0,0,1,2.43,1.156,5.207,5.207,0,0,1,.867,3.188Zm-2.258-.164a3.327,3.327,0,0,0-.418-1.82,1.361,1.361,0,0,0-1.215-.641,1.478,1.478,0,0,0-1.461.813V12.5a1.5,1.5,0,0,0,1.477.836Q128.223,13.336,128.223,10.688Zm7.547,4.469a4.15,4.15,0,0,1-3.027-1.141,4.054,4.054,0,0,1-1.168-3.039v-.219a5.106,5.106,0,0,1,.492-2.277,3.612,3.612,0,0,1,1.395-1.547,3.914,3.914,0,0,1,2.059-.543,3.508,3.508,0,0,1,2.73,1.094,4.444,4.444,0,0,1,1,3.1v.922h-5.383a2.1,2.1,0,0,0,.66,1.328,2,2,0,0,0,1.395.5,2.437,2.437,0,0,0,2.039-.945l1.109,1.242a3.389,3.389,0,0,1-1.375,1.121A4.511,4.511,0,0,1,135.77,15.156Zm-.258-6.945a1.411,1.411,0,0,0-1.09.455,2.357,2.357,0,0,0-.535,1.3h3.141V9.788a1.681,1.681,0,0,0-.406-1.165A1.456,1.456,0,0,0,135.512,8.211Zm8.531,5.125a1.481,1.481,0,0,0,1.016-.344,1.2,1.2,0,0,0,.406-.914h2.117a2.9,2.9,0,0,1-.469,1.574,3.093,3.093,0,0,1-1.262,1.109,3.949,3.949,0,0,1-1.77.395A3.67,3.67,0,0,1,141.223,14a4.56,4.56,0,0,1-1.047-3.184v-.148a4.508,4.508,0,0,1,1.039-3.117,3.627,3.627,0,0,1,2.852-1.164,3.555,3.555,0,0,1,2.543.9,3.2,3.2,0,0,1,.973,2.4h-2.117a1.551,1.551,0,0,0-.406-1.072,1.51,1.51,0,0,0-2.223.163,3.333,3.333,0,0,0-.4,1.866v.235a3.375,3.375,0,0,0,.4,1.878A1.377,1.377,0,0,0,144.043,13.336Zm7.531-8.867V6.547h1.445V8.2h-1.445v4.219a1.007,1.007,0,0,0,.18.672.9.9,0,0,0,.688.2,3.6,3.6,0,0,0,.664-.055v1.711a4.648,4.648,0,0,1-1.367.2,2.156,2.156,0,0,1-2.422-2.4V8.2h-1.234V6.547h1.234V4.469Zm2.117,6.227a5.013,5.013,0,0,1,.484-2.242A3.546,3.546,0,0,1,155.57,6.93a4.069,4.069,0,0,1,2.113-.539,3.849,3.849,0,0,1,2.793,1.047,4.2,4.2,0,0,1,1.207,2.844l.016.578a4.418,4.418,0,0,1-1.086,3.121,4.209,4.209,0,0,1-5.832,0,4.5,4.5,0,0,1-1.09-3.187Zm2.258.16A3.16,3.16,0,0,0,156.4,12.7a1.628,1.628,0,0,0,2.578.008,3.457,3.457,0,0,0,.461-2.015,3.128,3.128,0,0,0-.461-1.831,1.5,1.5,0,0,0-1.3-.649,1.474,1.474,0,0,0-1.281.646A3.516,3.516,0,0,0,155.949,10.856ZM47.219,39a2.507,2.507,0,0,1-.227-.758,2.732,2.732,0,0,1-2.133.914,3,3,0,0,1-2.059-.719,2.312,2.312,0,0,1-.816-1.812,2.389,2.389,0,0,1,1-2.062,4.915,4.915,0,0,1,2.879-.727H46.9v-.484a1.393,1.393,0,0,0-.3-.937,1.183,1.183,0,0,0-.949-.352,1.345,1.345,0,0,0-.895.273.929.929,0,0,0-.324.75H42.172a2.268,2.268,0,0,1,.453-1.359,3,3,0,0,1,1.281-.98,4.669,4.669,0,0,1,1.859-.355,3.689,3.689,0,0,1,2.48.785,2.747,2.747,0,0,1,.918,2.207v3.664a4.041,4.041,0,0,0,.336,1.82V39Zm-1.867-1.57a1.945,1.945,0,0,0,.922-.223,1.462,1.462,0,0,0,.625-.6V35.156h-.844q-1.7,0-1.8,1.172l-.008.133a.9.9,0,0,0,.3.7A1.153,1.153,0,0,0,45.352,37.43Zm17.141-2.578a5.07,5.07,0,0,1-.887,3.129,2.843,2.843,0,0,1-2.395,1.176,2.633,2.633,0,0,1-2.07-.891V42.25H54.883v-11.7h2.094l.078.828a2.654,2.654,0,0,1,2.141-.984,2.862,2.862,0,0,1,2.43,1.156,5.207,5.207,0,0,1,.867,3.188Zm-2.258-.164a3.327,3.327,0,0,0-.418-1.82,1.361,1.361,0,0,0-1.215-.641,1.478,1.478,0,0,0-1.461.813V36.5a1.5,1.5,0,0,0,1.477.836Q60.234,37.336,60.234,34.688Zm8.406-2.023a6.134,6.134,0,0,0-.812-.062,1.654,1.654,0,0,0-1.68.867V39H63.891V30.547h2.133l.063,1.008a2.092,2.092,0,0,1,1.883-1.164,2.366,2.366,0,0,1,.7.1Zm.453,2.031a5.013,5.013,0,0,1,.484-2.242,3.546,3.546,0,0,1,1.395-1.523,4.069,4.069,0,0,1,2.113-.539,3.849,3.849,0,0,1,2.793,1.047,4.2,4.2,0,0,1,1.207,2.844l.016.578a4.418,4.418,0,0,1-1.086,3.121,4.209,4.209,0,0,1-5.832,0,4.5,4.5,0,0,1-1.09-3.187Zm2.258.16A3.16,3.16,0,0,0,71.8,36.7a1.628,1.628,0,0,0,2.578.008,3.457,3.457,0,0,0,.461-2.015,3.128,3.128,0,0,0-.461-1.831,1.5,1.5,0,0,0-1.3-.649,1.474,1.474,0,0,0-1.281.646A3.516,3.516,0,0,0,71.352,34.856Zm6.789-.145a5.094,5.094,0,0,1,.887-3.148,2.877,2.877,0,0,1,2.426-1.172,2.589,2.589,0,0,1,2.039.922V27h2.266V39H83.719l-.109-.9a2.657,2.657,0,0,1-2.172,1.055,2.869,2.869,0,0,1-2.395-1.176A5.258,5.258,0,0,1,78.141,34.711Zm2.258.168a3.337,3.337,0,0,0,.414,1.823,1.349,1.349,0,0,0,1.2.634,1.511,1.511,0,0,0,1.477-.884V33.111a1.489,1.489,0,0,0-1.461-.884Q80.4,32.227,80.4,34.879ZM92.57,38.141a2.831,2.831,0,0,1-2.312,1.016,2.67,2.67,0,0,1-2.074-.781,3.335,3.335,0,0,1-.73-2.289V30.547h2.258v5.467q0,1.322,1.2,1.322a1.63,1.63,0,0,0,1.578-.8V30.547h2.266V39H92.633Zm7.406-.8a1.481,1.481,0,0,0,1.016-.344,1.2,1.2,0,0,0,.406-.914h2.117a2.9,2.9,0,0,1-.469,1.574,3.093,3.093,0,0,1-1.262,1.109,3.949,3.949,0,0,1-1.77.395A3.67,3.67,0,0,1,97.156,38a4.56,4.56,0,0,1-1.047-3.184v-.148a4.508,4.508,0,0,1,1.039-3.117A3.627,3.627,0,0,1,100,30.391a3.555,3.555,0,0,1,2.543.9,3.2,3.2,0,0,1,.973,2.4H101.4a1.551,1.551,0,0,0-.406-1.072,1.51,1.51,0,0,0-2.223.163,3.333,3.333,0,0,0-.4,1.866v.235a3.375,3.375,0,0,0,.4,1.878A1.377,1.377,0,0,0,99.977,37.336Zm8.344,0a1.481,1.481,0,0,0,1.016-.344,1.2,1.2,0,0,0,.406-.914h2.117a2.9,2.9,0,0,1-.469,1.574,3.093,3.093,0,0,1-1.262,1.109,3.949,3.949,0,0,1-1.77.395A3.67,3.67,0,0,1,105.5,38a4.56,4.56,0,0,1-1.047-3.184v-.148a4.508,4.508,0,0,1,1.039-3.117,3.627,3.627,0,0,1,2.852-1.164,3.555,3.555,0,0,1,2.543.9,3.2,3.2,0,0,1,.973,2.4h-2.117a1.551,1.551,0,0,0-.406-1.072,1.51,1.51,0,0,0-2.223.163,3.333,3.333,0,0,0-.4,1.866v.235a3.375,3.375,0,0,0,.4,1.878A1.377,1.377,0,0,0,108.32,37.336ZM115.531,39h-2.266V30.547h2.266Zm-2.4-10.641a1.112,1.112,0,0,1,.34-.836,1.465,1.465,0,0,1,1.848,0,1.193,1.193,0,0,1,0,1.68,1.448,1.448,0,0,1-1.836,0A1.108,1.108,0,0,1,113.133,28.359Zm3.906,6.336a5.013,5.013,0,0,1,.484-2.242,3.546,3.546,0,0,1,1.395-1.523,4.069,4.069,0,0,1,2.113-.539,3.849,3.849,0,0,1,2.793,1.047,4.2,4.2,0,0,1,1.207,2.844l.016.578a4.418,4.418,0,0,1-1.086,3.121,4.209,4.209,0,0,1-5.832,0,4.5,4.5,0,0,1-1.09-3.187Zm2.258.16a3.16,3.16,0,0,0,.453,1.843,1.628,1.628,0,0,0,2.578.008,3.457,3.457,0,0,0,.461-2.015,3.128,3.128,0,0,0-.461-1.831,1.5,1.5,0,0,0-1.3-.649,1.474,1.474,0,0,0-1.281.646A3.516,3.516,0,0,0,119.3,34.856ZM121.477,27h2.461l-2.164,2.422h-1.836Zm7.039,3.547.07.977a2.951,2.951,0,0,1,2.43-1.133,2.453,2.453,0,0,1,2,.789,3.682,3.682,0,0,1,.672,2.359V39H131.43V33.594a1.465,1.465,0,0,0-.312-1.043,1.4,1.4,0,0,0-1.039-.324,1.553,1.553,0,0,0-1.43.813V39h-2.258V30.547Z" transform="translate(848 3569)" fill="#fff"/>
    <path id="Trazado_715020" data-name="Trazado 715020" d="M23.988,12.18l2.578-8.555h2.609L25.215,15H22.77L18.824,3.625h2.6ZM34.637,15a2.507,2.507,0,0,1-.227-.758,2.732,2.732,0,0,1-2.133.914,3,3,0,0,1-2.059-.719,2.312,2.312,0,0,1-.816-1.812,2.389,2.389,0,0,1,1-2.062,4.915,4.915,0,0,1,2.879-.727h1.039V9.352a1.393,1.393,0,0,0-.3-.937,1.183,1.183,0,0,0-.949-.352,1.345,1.345,0,0,0-.895.273.929.929,0,0,0-.324.75H29.59a2.268,2.268,0,0,1,.453-1.359,3,3,0,0,1,1.281-.98,4.669,4.669,0,0,1,1.859-.355,3.689,3.689,0,0,1,2.48.785,2.747,2.747,0,0,1,.918,2.207v3.664a4.041,4.041,0,0,0,.336,1.82V15ZM32.77,13.43a1.945,1.945,0,0,0,.922-.223,1.462,1.462,0,0,0,.625-.6V11.156h-.844q-1.7,0-1.8,1.172l-.008.133a.9.9,0,0,0,.3.7A1.153,1.153,0,0,0,32.77,13.43Zm10.3-4.766a6.134,6.134,0,0,0-.812-.062,1.654,1.654,0,0,0-1.68.867V15H38.316V6.547h2.133l.063,1.008a2.092,2.092,0,0,1,1.883-1.164,2.366,2.366,0,0,1,.7.1ZM46.535,15H44.27V6.547h2.266Zm-2.4-10.641a1.112,1.112,0,0,1,.34-.836,1.465,1.465,0,0,1,1.848,0,1.105,1.105,0,0,1,.344.836,1.108,1.108,0,0,1-.348.844,1.448,1.448,0,0,1-1.836,0A1.108,1.108,0,0,1,44.137,4.359ZM53.293,15a2.507,2.507,0,0,1-.227-.758,2.732,2.732,0,0,1-2.133.914,3,3,0,0,1-2.059-.719,2.312,2.312,0,0,1-.816-1.812,2.389,2.389,0,0,1,1-2.062,4.915,4.915,0,0,1,2.879-.727h1.039V9.352a1.393,1.393,0,0,0-.3-.937,1.183,1.183,0,0,0-.949-.352,1.345,1.345,0,0,0-.895.273.929.929,0,0,0-.324.75H48.246A2.268,2.268,0,0,1,48.7,7.727a3,3,0,0,1,1.281-.98,4.669,4.669,0,0,1,1.859-.355,3.689,3.689,0,0,1,2.48.785,2.747,2.747,0,0,1,.918,2.207v3.664a4.041,4.041,0,0,0,.336,1.82V15Zm-1.867-1.57a1.945,1.945,0,0,0,.922-.223,1.462,1.462,0,0,0,.625-.6V11.156h-.844q-1.7,0-1.8,1.172l-.008.133a.9.9,0,0,0,.3.7A1.153,1.153,0,0,0,51.426,13.43ZM64.59,10.852a5.119,5.119,0,0,1-.867,3.168A2.872,2.872,0,0,1,61.3,15.156a2.639,2.639,0,0,1-2.2-1.055L59,15H56.973V3H59.23V7.3a2.571,2.571,0,0,1,2.055-.914,2.9,2.9,0,0,1,2.426,1.137,5.126,5.126,0,0,1,.879,3.2Zm-2.258-.164a3.363,3.363,0,0,0-.406-1.871,1.374,1.374,0,0,0-1.211-.59,1.489,1.489,0,0,0-1.484.883v3.336a1.509,1.509,0,0,0,1.5.891,1.394,1.394,0,0,0,1.438-1.078A5.562,5.562,0,0,0,62.332,10.688ZM68.363,15H66.1V3h2.266Zm5.75.156a4.15,4.15,0,0,1-3.027-1.141,4.054,4.054,0,0,1-1.168-3.039v-.219A5.106,5.106,0,0,1,70.41,8.48,3.612,3.612,0,0,1,71.8,6.934a3.914,3.914,0,0,1,2.059-.543,3.508,3.508,0,0,1,2.73,1.094,4.444,4.444,0,0,1,1,3.1v.922H72.207a2.1,2.1,0,0,0,.66,1.328,2,2,0,0,0,1.395.5,2.437,2.437,0,0,0,2.039-.945l1.109,1.242a3.389,3.389,0,0,1-1.375,1.121A4.511,4.511,0,0,1,74.113,15.156Zm-.258-6.945a1.411,1.411,0,0,0-1.09.455,2.357,2.357,0,0,0-.535,1.3h3.141V9.788a1.681,1.681,0,0,0-.406-1.165A1.456,1.456,0,0,0,73.855,8.211Zm9.594,4.453a.727.727,0,0,0-.41-.652,4.659,4.659,0,0,0-1.316-.426q-3.016-.633-3.016-2.562a2.323,2.323,0,0,1,.934-1.879,3.766,3.766,0,0,1,2.441-.754,4.053,4.053,0,0,1,2.574.758,2.388,2.388,0,0,1,.965,1.969H83.363a1.092,1.092,0,0,0-.312-.8A1.322,1.322,0,0,0,82.074,8a1.351,1.351,0,0,0-.883.258.814.814,0,0,0-.312.656.7.7,0,0,0,.355.605,3.657,3.657,0,0,0,1.2.4,9.8,9.8,0,0,1,1.422.379,2.336,2.336,0,0,1,1.789,2.273,2.2,2.2,0,0,1-.992,1.871,4.28,4.28,0,0,1-2.562.715,4.47,4.47,0,0,1-1.887-.379,3.166,3.166,0,0,1-1.293-1.039,2.414,2.414,0,0,1-.469-1.426h2.141a1.179,1.179,0,0,0,.445.922,1.766,1.766,0,0,0,1.109.32,1.635,1.635,0,0,0,.98-.246A.766.766,0,0,0,83.449,12.664Z" transform="translate(1174 3562)"/>
    <path id="Trazado_715022" data-name="Trazado 715022" d="M23.633,15V3.625h3.5a5.315,5.315,0,0,1,2.684.676,4.712,4.712,0,0,1,1.848,1.922,5.928,5.928,0,0,1,.664,2.832v.523a5.945,5.945,0,0,1-.652,2.82,4.672,4.672,0,0,1-1.84,1.914,5.355,5.355,0,0,1-2.68.688Zm2.344-9.477v7.594h1.133a2.545,2.545,0,0,0,2.1-.9,4.06,4.06,0,0,0,.742-2.57v-.6a4.124,4.124,0,0,0-.719-2.629,2.537,2.537,0,0,0-2.1-.895ZM36.266,15H34V6.547h2.266Zm-2.4-10.641a1.112,1.112,0,0,1,.34-.836,1.465,1.465,0,0,1,1.848,0,1.105,1.105,0,0,1,.344.836,1.108,1.108,0,0,1-.348.844,1.448,1.448,0,0,1-1.836,0A1.108,1.108,0,0,1,33.867,4.359Zm9.008,4.3a6.134,6.134,0,0,0-.812-.062,1.654,1.654,0,0,0-1.68.867V15H38.125V6.547h2.133l.063,1.008A2.092,2.092,0,0,1,42.2,6.391a2.366,2.366,0,0,1,.7.1ZM47.7,15.156a4.15,4.15,0,0,1-3.027-1.141,4.054,4.054,0,0,1-1.168-3.039v-.219A5.106,5.106,0,0,1,44,8.48a3.612,3.612,0,0,1,1.395-1.547,3.914,3.914,0,0,1,2.059-.543,3.508,3.508,0,0,1,2.73,1.094,4.444,4.444,0,0,1,1,3.1v.922H45.8a2.1,2.1,0,0,0,.66,1.328,2,2,0,0,0,1.395.5,2.437,2.437,0,0,0,2.039-.945L51,13.633a3.389,3.389,0,0,1-1.375,1.121A4.511,4.511,0,0,1,47.7,15.156Zm-.258-6.945a1.411,1.411,0,0,0-1.09.455,2.357,2.357,0,0,0-.535,1.3h3.141V9.788a1.681,1.681,0,0,0-.406-1.165A1.456,1.456,0,0,0,47.445,8.211Zm8.531,5.125a1.481,1.481,0,0,0,1.016-.344,1.2,1.2,0,0,0,.406-.914h2.117a2.9,2.9,0,0,1-.469,1.574,3.093,3.093,0,0,1-1.262,1.109,3.949,3.949,0,0,1-1.77.395A3.67,3.67,0,0,1,53.156,14a4.56,4.56,0,0,1-1.047-3.184v-.148a4.508,4.508,0,0,1,1.039-3.117A3.627,3.627,0,0,1,56,6.391a3.555,3.555,0,0,1,2.543.9,3.2,3.2,0,0,1,.973,2.4H57.4a1.551,1.551,0,0,0-.406-1.072,1.51,1.51,0,0,0-2.223.163,3.333,3.333,0,0,0-.4,1.866v.235a3.375,3.375,0,0,0,.4,1.878A1.377,1.377,0,0,0,55.977,13.336Zm7.531-8.867V6.547h1.445V8.2H63.508v4.219a1.007,1.007,0,0,0,.18.672.9.9,0,0,0,.688.2,3.6,3.6,0,0,0,.664-.055v1.711a4.648,4.648,0,0,1-1.367.2,2.156,2.156,0,0,1-2.422-2.4V8.2H60.016V6.547H61.25V4.469ZM65.625,10.7a5.013,5.013,0,0,1,.484-2.242A3.546,3.546,0,0,1,67.5,6.93a4.069,4.069,0,0,1,2.113-.539A3.849,3.849,0,0,1,72.41,7.438a4.2,4.2,0,0,1,1.207,2.844l.016.578a4.418,4.418,0,0,1-1.086,3.121,4.209,4.209,0,0,1-5.832,0,4.5,4.5,0,0,1-1.09-3.187Zm2.258.16a3.16,3.16,0,0,0,.453,1.843,1.628,1.628,0,0,0,2.578.008,3.457,3.457,0,0,0,.461-2.015,3.128,3.128,0,0,0-.461-1.831,1.5,1.5,0,0,0-1.3-.649,1.474,1.474,0,0,0-1.281.646A3.516,3.516,0,0,0,67.883,10.856ZM79.6,12.664a.727.727,0,0,0-.41-.652,4.659,4.659,0,0,0-1.316-.426q-3.016-.633-3.016-2.562a2.323,2.323,0,0,1,.934-1.879,3.766,3.766,0,0,1,2.441-.754,4.053,4.053,0,0,1,2.574.758,2.388,2.388,0,0,1,.965,1.969H79.516a1.092,1.092,0,0,0-.312-.8A1.322,1.322,0,0,0,78.227,8a1.351,1.351,0,0,0-.883.258.814.814,0,0,0-.312.656.7.7,0,0,0,.355.605,3.657,3.657,0,0,0,1.2.4,9.8,9.8,0,0,1,1.422.379A2.336,2.336,0,0,1,81.8,12.57a2.2,2.2,0,0,1-.992,1.871,4.28,4.28,0,0,1-2.562.715,4.47,4.47,0,0,1-1.887-.379,3.166,3.166,0,0,1-1.293-1.039,2.414,2.414,0,0,1-.469-1.426h2.141a1.179,1.179,0,0,0,.445.922,1.766,1.766,0,0,0,1.109.32,1.635,1.635,0,0,0,.98-.246A.766.766,0,0,0,79.6,12.664Z" transform="translate(1174 3655.711)"/>
    <path id="Trazado_715024" data-name="Trazado 715024" d="M22.563,10.07h-4.5v3.047h5.281V15H15.719V3.625h7.609v1.9H18.063V8.234h4.5Zm6.586,2.594a.727.727,0,0,0-.41-.652,4.659,4.659,0,0,0-1.316-.426q-3.016-.633-3.016-2.562a2.323,2.323,0,0,1,.934-1.879,3.766,3.766,0,0,1,2.441-.754,4.053,4.053,0,0,1,2.574.758,2.388,2.388,0,0,1,.965,1.969H29.063a1.092,1.092,0,0,0-.312-.8A1.322,1.322,0,0,0,27.773,8a1.351,1.351,0,0,0-.883.258.814.814,0,0,0-.312.656.7.7,0,0,0,.355.605,3.657,3.657,0,0,0,1.2.4,9.8,9.8,0,0,1,1.422.379,2.336,2.336,0,0,1,1.789,2.273,2.2,2.2,0,0,1-.992,1.871,4.28,4.28,0,0,1-2.562.715,4.47,4.47,0,0,1-1.887-.379,3.166,3.166,0,0,1-1.293-1.039,2.414,2.414,0,0,1-.469-1.426h2.141a1.179,1.179,0,0,0,.445.922,1.766,1.766,0,0,0,1.109.32,1.635,1.635,0,0,0,.98-.246A.766.766,0,0,0,29.148,12.664Zm6.352-8.2V6.547h1.445V8.2H35.5v4.219a1.007,1.007,0,0,0,.18.672.9.9,0,0,0,.688.2,3.6,3.6,0,0,0,.664-.055v1.711a4.648,4.648,0,0,1-1.367.2,2.156,2.156,0,0,1-2.422-2.4V8.2H32.008V6.547h1.234V4.469ZM40.586,15H38.32V6.547h2.266Zm-2.4-10.641a1.112,1.112,0,0,1,.34-.836,1.465,1.465,0,0,1,1.848,0,1.105,1.105,0,0,1,.344.836,1.108,1.108,0,0,1-.348.844,1.448,1.448,0,0,1-1.836,0A1.108,1.108,0,0,1,38.188,4.359Zm6.375,2.188.07.945a2.971,2.971,0,0,1,2.43-1.1A2.255,2.255,0,0,1,49.3,7.68a2.9,2.9,0,0,1,2.539-1.289,2.521,2.521,0,0,1,2.047.8,3.681,3.681,0,0,1,.672,2.41V15H52.3V9.609a1.61,1.61,0,0,0-.281-1.051,1.246,1.246,0,0,0-.992-.332,1.409,1.409,0,0,0-1.406.969l.008,5.8H47.367V9.617a1.59,1.59,0,0,0-.289-1.062,1.259,1.259,0,0,0-.984-.328,1.463,1.463,0,0,0-1.391.8V15H42.445V6.547ZM61.2,15a2.507,2.507,0,0,1-.227-.758,2.732,2.732,0,0,1-2.133.914,3,3,0,0,1-2.059-.719,2.312,2.312,0,0,1-.816-1.812,2.389,2.389,0,0,1,1-2.062,4.915,4.915,0,0,1,2.879-.727h1.039V9.352a1.393,1.393,0,0,0-.3-.937,1.183,1.183,0,0,0-.949-.352,1.345,1.345,0,0,0-.895.273.929.929,0,0,0-.324.75H56.148A2.268,2.268,0,0,1,56.6,7.727a3,3,0,0,1,1.281-.98,4.669,4.669,0,0,1,1.859-.355,3.689,3.689,0,0,1,2.48.785,2.747,2.747,0,0,1,.918,2.207v3.664a4.041,4.041,0,0,0,.336,1.82V15Zm-1.867-1.57a1.945,1.945,0,0,0,.922-.223,1.462,1.462,0,0,0,.625-.6V11.156h-.844q-1.7,0-1.8,1.172l-.008.133a.9.9,0,0,0,.3.7A1.153,1.153,0,0,0,59.328,13.43Zm5.2-2.719a5.094,5.094,0,0,1,.887-3.148,2.877,2.877,0,0,1,2.426-1.172,2.589,2.589,0,0,1,2.039.922V3h2.266V15H70.1l-.109-.9a2.657,2.657,0,0,1-2.172,1.055,2.869,2.869,0,0,1-2.395-1.176A5.258,5.258,0,0,1,64.523,10.711Zm2.258.168A3.337,3.337,0,0,0,67.2,12.7a1.349,1.349,0,0,0,1.2.634,1.511,1.511,0,0,0,1.477-.884V9.111a1.489,1.489,0,0,0-1.461-.884Q66.781,8.227,66.781,10.879Zm6.758-.184a5.013,5.013,0,0,1,.484-2.242A3.546,3.546,0,0,1,75.418,6.93a4.069,4.069,0,0,1,2.113-.539,3.849,3.849,0,0,1,2.793,1.047,4.2,4.2,0,0,1,1.207,2.844l.016.578a4.418,4.418,0,0,1-1.086,3.121,4.209,4.209,0,0,1-5.832,0,4.5,4.5,0,0,1-1.09-3.187Zm2.258.16A3.16,3.16,0,0,0,76.25,12.7a1.628,1.628,0,0,0,2.578.008,3.457,3.457,0,0,0,.461-2.015,3.128,3.128,0,0,0-.461-1.831,1.5,1.5,0,0,0-1.3-.649,1.474,1.474,0,0,0-1.281.646A3.516,3.516,0,0,0,75.8,10.856Zm11.719,1.808a.727.727,0,0,0-.41-.652,4.659,4.659,0,0,0-1.316-.426q-3.016-.633-3.016-2.562a2.323,2.323,0,0,1,.934-1.879,3.766,3.766,0,0,1,2.441-.754,4.053,4.053,0,0,1,2.574.758,2.388,2.388,0,0,1,.965,1.969H87.43a1.092,1.092,0,0,0-.312-.8A1.322,1.322,0,0,0,86.141,8a1.351,1.351,0,0,0-.883.258.814.814,0,0,0-.312.656.7.7,0,0,0,.355.605,3.657,3.657,0,0,0,1.2.4,9.8,9.8,0,0,1,1.422.379,2.336,2.336,0,0,1,1.789,2.273,2.2,2.2,0,0,1-.992,1.871,4.28,4.28,0,0,1-2.562.715,4.47,4.47,0,0,1-1.887-.379,3.166,3.166,0,0,1-1.293-1.039,2.414,2.414,0,0,1-.469-1.426h2.141a1.179,1.179,0,0,0,.445.922,1.766,1.766,0,0,0,1.109.32,1.635,1.635,0,0,0,.98-.246A.766.766,0,0,0,87.516,12.664Z" transform="translate(1174 3746.21)"/>
    <path id="Trazado_715021" data-name="Trazado 715021" d="M76.641,10.352h-4.5V15H69.8V3.625H77.2v1.9H72.141V8.461h4.5ZM80.8,15H78.531V6.547H80.8ZM78.4,4.359a1.112,1.112,0,0,1,.34-.836,1.465,1.465,0,0,1,1.848,0,1.105,1.105,0,0,1,.344.836,1.108,1.108,0,0,1-.348.844,1.448,1.448,0,0,1-1.836,0A1.108,1.108,0,0,1,78.4,4.359Zm6.648,2.188v8.914a3.024,3.024,0,0,1-.742,2.176,2.821,2.821,0,0,1-2.141.777,4.591,4.591,0,0,1-1.117-.133V16.492a4.238,4.238,0,0,0,.711.07q1.023,0,1.023-1.086V6.547ZM82.6,4.359a1.112,1.112,0,0,1,.34-.836,1.47,1.47,0,0,1,1.852,0,1.112,1.112,0,0,1,.34.836,1.108,1.108,0,0,1-.348.844,1.448,1.448,0,0,1-1.836,0A1.108,1.108,0,0,1,82.6,4.359ZM86.461,10.7a5.013,5.013,0,0,1,.484-2.242A3.546,3.546,0,0,1,88.34,6.93a4.069,4.069,0,0,1,2.113-.539,3.849,3.849,0,0,1,2.793,1.047,4.2,4.2,0,0,1,1.207,2.844l.016.578a4.418,4.418,0,0,1-1.086,3.121,4.209,4.209,0,0,1-5.832,0,4.5,4.5,0,0,1-1.09-3.187Zm2.258.16a3.16,3.16,0,0,0,.453,1.843,1.628,1.628,0,0,0,2.578.008,3.457,3.457,0,0,0,.461-2.015A3.128,3.128,0,0,0,91.75,8.86a1.5,1.5,0,0,0-1.3-.649,1.474,1.474,0,0,0-1.281.646A3.516,3.516,0,0,0,88.719,10.856Zm11.719,1.808a.727.727,0,0,0-.41-.652,4.659,4.659,0,0,0-1.316-.426Q95.7,10.953,95.7,9.023a2.323,2.323,0,0,1,.934-1.879,3.766,3.766,0,0,1,2.441-.754,4.053,4.053,0,0,1,2.574.758,2.388,2.388,0,0,1,.965,1.969h-2.258a1.092,1.092,0,0,0-.312-.8A1.322,1.322,0,0,0,99.063,8a1.351,1.351,0,0,0-.883.258.814.814,0,0,0-.312.656.7.7,0,0,0,.355.605,3.657,3.657,0,0,0,1.2.4,9.8,9.8,0,0,1,1.422.379,2.336,2.336,0,0,1,1.789,2.273,2.2,2.2,0,0,1-.992,1.871,4.28,4.28,0,0,1-2.562.715,4.47,4.47,0,0,1-1.887-.379A3.166,3.166,0,0,1,95.9,13.738a2.414,2.414,0,0,1-.469-1.426H97.57a1.179,1.179,0,0,0,.445.922,1.766,1.766,0,0,0,1.109.32,1.635,1.635,0,0,0,.98-.246A.766.766,0,0,0,100.438,12.664Z" transform="translate(1140 3596)"/>
    <path id="Trazado_715023" data-name="Trazado 715023" d="M53.5,15H51.16V3.625H53.5Zm4.1-8.453.07.977a2.951,2.951,0,0,1,2.43-1.133,2.453,2.453,0,0,1,2,.789,3.682,3.682,0,0,1,.672,2.359V15H60.52V9.594a1.465,1.465,0,0,0-.312-1.043,1.4,1.4,0,0,0-1.039-.324,1.553,1.553,0,0,0-1.43.813V15H55.48V6.547Zm6.531,4.164a5.094,5.094,0,0,1,.887-3.148,2.877,2.877,0,0,1,2.426-1.172,2.589,2.589,0,0,1,2.039.922V3h2.266V15H69.715l-.109-.9a2.657,2.657,0,0,1-2.172,1.055,2.869,2.869,0,0,1-2.395-1.176A5.258,5.258,0,0,1,64.137,10.711Zm2.258.168a3.337,3.337,0,0,0,.414,1.823,1.349,1.349,0,0,0,1.2.634,1.511,1.511,0,0,0,1.477-.884V9.111a1.489,1.489,0,0,0-1.461-.884Q66.395,8.227,66.395,10.879ZM75.887,15H73.621V6.547h2.266Zm-2.4-10.641a1.112,1.112,0,0,1,.34-.836,1.465,1.465,0,0,1,1.848,0,1.105,1.105,0,0,1,.344.836,1.108,1.108,0,0,1-.348.844,1.448,1.448,0,0,1-1.836,0A1.108,1.108,0,0,1,73.488,4.359Zm9.008,4.3a6.134,6.134,0,0,0-.812-.062A1.654,1.654,0,0,0,80,9.469V15H77.746V6.547h2.133l.063,1.008a2.092,2.092,0,0,1,1.883-1.164,2.366,2.366,0,0,1,.7.1Zm4.828,6.492A4.15,4.15,0,0,1,84.3,14.016a4.054,4.054,0,0,1-1.168-3.039v-.219a5.106,5.106,0,0,1,.492-2.277,3.612,3.612,0,0,1,1.395-1.547,3.914,3.914,0,0,1,2.059-.543A3.508,3.508,0,0,1,89.8,7.484a4.444,4.444,0,0,1,1,3.1v.922H85.418a2.1,2.1,0,0,0,.66,1.328,2,2,0,0,0,1.395.5,2.437,2.437,0,0,0,2.039-.945l1.109,1.242a3.389,3.389,0,0,1-1.375,1.121A4.511,4.511,0,0,1,87.324,15.156Zm-.258-6.945a1.411,1.411,0,0,0-1.09.455,2.357,2.357,0,0,0-.535,1.3h3.141V9.788a1.681,1.681,0,0,0-.406-1.165A1.456,1.456,0,0,0,87.066,8.211ZM95.6,13.336a1.481,1.481,0,0,0,1.016-.344,1.2,1.2,0,0,0,.406-.914h2.117a2.9,2.9,0,0,1-.469,1.574,3.093,3.093,0,0,1-1.262,1.109,3.949,3.949,0,0,1-1.77.395A3.67,3.67,0,0,1,92.777,14,4.56,4.56,0,0,1,91.73,10.82v-.148A4.508,4.508,0,0,1,92.77,7.555a3.627,3.627,0,0,1,2.852-1.164,3.555,3.555,0,0,1,2.543.9,3.2,3.2,0,0,1,.973,2.4H97.02a1.551,1.551,0,0,0-.406-1.072,1.51,1.51,0,0,0-2.223.163,3.333,3.333,0,0,0-.4,1.866v.235a3.375,3.375,0,0,0,.4,1.878A1.377,1.377,0,0,0,95.6,13.336Zm7.531-8.867V6.547h1.445V8.2h-1.445v4.219a1.007,1.007,0,0,0,.18.672.9.9,0,0,0,.688.2,3.6,3.6,0,0,0,.664-.055v1.711a4.648,4.648,0,0,1-1.367.2,2.156,2.156,0,0,1-2.422-2.4V8.2H99.637V6.547h1.234V4.469Zm2.117,6.227a5.013,5.013,0,0,1,.484-2.242,3.546,3.546,0,0,1,1.395-1.523,4.069,4.069,0,0,1,2.113-.539,3.849,3.849,0,0,1,2.793,1.047,4.2,4.2,0,0,1,1.207,2.844l.016.578a4.418,4.418,0,0,1-1.086,3.121,4.209,4.209,0,0,1-5.832,0,4.5,4.5,0,0,1-1.09-3.187Zm2.258.16a3.16,3.16,0,0,0,.453,1.843,1.628,1.628,0,0,0,2.578.008A3.457,3.457,0,0,0,111,10.691a3.128,3.128,0,0,0-.461-1.831,1.5,1.5,0,0,0-1.3-.649,1.474,1.474,0,0,0-1.281.646A3.516,3.516,0,0,0,107.5,10.856Zm11.719,1.808a.727.727,0,0,0-.41-.652,4.659,4.659,0,0,0-1.316-.426q-3.016-.633-3.016-2.562a2.323,2.323,0,0,1,.934-1.879,3.766,3.766,0,0,1,2.441-.754,4.053,4.053,0,0,1,2.574.758,2.388,2.388,0,0,1,.965,1.969h-2.258a1.092,1.092,0,0,0-.312-.8A1.322,1.322,0,0,0,117.848,8a1.351,1.351,0,0,0-.883.258.814.814,0,0,0-.312.656.7.7,0,0,0,.355.605,3.657,3.657,0,0,0,1.2.4,9.8,9.8,0,0,1,1.422.379,2.336,2.336,0,0,1,1.789,2.273,2.2,2.2,0,0,1-.992,1.871,4.28,4.28,0,0,1-2.562.715,4.47,4.47,0,0,1-1.887-.379,3.166,3.166,0,0,1-1.293-1.039,2.414,2.414,0,0,1-.469-1.426h2.141a1.179,1.179,0,0,0,.445.922,1.766,1.766,0,0,0,1.109.32,1.635,1.635,0,0,0,.98-.246A.766.766,0,0,0,119.223,12.664Z" transform="translate(1140 3691.711)"/>
    <path id="Trazado_715025" data-name="Trazado 715025" d="M62.059,10.07h-4.5v3.047H62.84V15H55.215V3.625h7.609v1.9H57.559V8.234h4.5Zm6.586,2.594a.727.727,0,0,0-.41-.652,4.659,4.659,0,0,0-1.316-.426Q63.9,10.953,63.9,9.023a2.323,2.323,0,0,1,.934-1.879,3.766,3.766,0,0,1,2.441-.754,4.053,4.053,0,0,1,2.574.758,2.388,2.388,0,0,1,.965,1.969H68.559a1.092,1.092,0,0,0-.312-.8A1.322,1.322,0,0,0,67.27,8a1.351,1.351,0,0,0-.883.258.814.814,0,0,0-.312.656.7.7,0,0,0,.355.605,3.657,3.657,0,0,0,1.2.4,9.8,9.8,0,0,1,1.422.379A2.336,2.336,0,0,1,70.84,12.57a2.2,2.2,0,0,1-.992,1.871,4.28,4.28,0,0,1-2.562.715,4.47,4.47,0,0,1-1.887-.379,3.166,3.166,0,0,1-1.293-1.039,2.414,2.414,0,0,1-.469-1.426h2.141a1.179,1.179,0,0,0,.445.922,1.766,1.766,0,0,0,1.109.32,1.635,1.635,0,0,0,.98-.246A.766.766,0,0,0,68.645,12.664ZM75,4.469V6.547h1.445V8.2H75v4.219a1.007,1.007,0,0,0,.18.672.9.9,0,0,0,.688.2,3.6,3.6,0,0,0,.664-.055v1.711a4.648,4.648,0,0,1-1.367.2,2.156,2.156,0,0,1-2.422-2.4V8.2H71.5V6.547h1.234V4.469ZM82.6,15a2.507,2.507,0,0,1-.227-.758,2.732,2.732,0,0,1-2.133.914,3,3,0,0,1-2.059-.719,2.312,2.312,0,0,1-.816-1.812,2.389,2.389,0,0,1,1-2.062,4.915,4.915,0,0,1,2.879-.727h1.039V9.352a1.393,1.393,0,0,0-.3-.937,1.183,1.183,0,0,0-.949-.352,1.345,1.345,0,0,0-.895.273.929.929,0,0,0-.324.75H77.551A2.268,2.268,0,0,1,78,7.727a3,3,0,0,1,1.281-.98,4.669,4.669,0,0,1,1.859-.355,3.689,3.689,0,0,1,2.48.785,2.747,2.747,0,0,1,.918,2.207v3.664a4.041,4.041,0,0,0,.336,1.82V15ZM80.73,13.43a1.945,1.945,0,0,0,.922-.223,1.462,1.462,0,0,0,.625-.6V11.156h-.844q-1.7,0-1.8,1.172l-.008.133a.9.9,0,0,0,.3.7A1.153,1.153,0,0,0,80.73,13.43ZM81.59,3h2.461L81.887,5.422H80.051Zm6.766,3.547.07.977a2.951,2.951,0,0,1,2.43-1.133,2.453,2.453,0,0,1,2,.789,3.682,3.682,0,0,1,.672,2.359V15H91.27V9.594a1.465,1.465,0,0,0-.312-1.043,1.4,1.4,0,0,0-1.039-.324,1.553,1.553,0,0,0-1.43.813V15H86.23V6.547Zm6.531,4.164a5.094,5.094,0,0,1,.887-3.148A2.877,2.877,0,0,1,98.2,6.391a2.589,2.589,0,0,1,2.039.922V3H102.5V15h-2.039l-.109-.9a2.657,2.657,0,0,1-2.172,1.055,2.869,2.869,0,0,1-2.395-1.176A5.258,5.258,0,0,1,94.887,10.711Zm2.258.168a3.337,3.337,0,0,0,.414,1.823,1.349,1.349,0,0,0,1.2.634,1.511,1.511,0,0,0,1.477-.884V9.111a1.489,1.489,0,0,0-1.461-.884Q97.145,8.227,97.145,10.879ZM109.152,15a2.507,2.507,0,0,1-.227-.758,2.732,2.732,0,0,1-2.133.914,3,3,0,0,1-2.059-.719,2.312,2.312,0,0,1-.816-1.812,2.389,2.389,0,0,1,1-2.062,4.915,4.915,0,0,1,2.879-.727h1.039V9.352a1.393,1.393,0,0,0-.3-.937,1.183,1.183,0,0,0-.949-.352,1.345,1.345,0,0,0-.895.273.929.929,0,0,0-.324.75h-2.258a2.268,2.268,0,0,1,.453-1.359,3,3,0,0,1,1.281-.98,4.669,4.669,0,0,1,1.859-.355,3.689,3.689,0,0,1,2.48.785,2.747,2.747,0,0,1,.918,2.207v3.664a4.041,4.041,0,0,0,.336,1.82V15Zm-1.867-1.57a1.945,1.945,0,0,0,.922-.223,1.462,1.462,0,0,0,.625-.6V11.156h-.844q-1.7,0-1.8,1.172l-.008.133a.9.9,0,0,0,.3.7A1.153,1.153,0,0,0,107.285,13.43Zm10.3-4.766a6.134,6.134,0,0,0-.812-.062,1.654,1.654,0,0,0-1.68.867V15h-2.258V6.547h2.133l.063,1.008a2.092,2.092,0,0,1,1.883-1.164,2.366,2.366,0,0,1,.7.1Z" transform="translate(1140 3782.21)"/>
    <path id="Trazado_715017" data-name="Trazado 715017" d="M70.926,3.625v7.492a3.836,3.836,0,0,1-1.168,2.953,4.5,4.5,0,0,1-3.191,1.086A4.553,4.553,0,0,1,63.4,14.1a3.77,3.77,0,0,1-1.2-2.9V3.625h2.344v7.508a2.167,2.167,0,0,0,.535,1.629,2.054,2.054,0,0,0,1.48.512q1.977,0,2.008-2.078V3.625Zm6.352,9.039a.727.727,0,0,0-.41-.652,4.659,4.659,0,0,0-1.316-.426q-3.016-.633-3.016-2.562a2.323,2.323,0,0,1,.934-1.879,3.766,3.766,0,0,1,2.441-.754,4.053,4.053,0,0,1,2.574.758,2.388,2.388,0,0,1,.965,1.969H77.191a1.092,1.092,0,0,0-.312-.8A1.322,1.322,0,0,0,75.9,8a1.351,1.351,0,0,0-.883.258.814.814,0,0,0-.312.656.7.7,0,0,0,.355.605,3.657,3.657,0,0,0,1.2.4,9.8,9.8,0,0,1,1.422.379,2.336,2.336,0,0,1,1.789,2.273,2.2,2.2,0,0,1-.992,1.871,4.28,4.28,0,0,1-2.562.715,4.47,4.47,0,0,1-1.887-.379,3.166,3.166,0,0,1-1.293-1.039,2.414,2.414,0,0,1-.469-1.426H74.41a1.179,1.179,0,0,0,.445.922,1.766,1.766,0,0,0,1.109.32,1.635,1.635,0,0,0,.98-.246A.766.766,0,0,0,77.277,12.664Zm3.3-1.969a5.013,5.013,0,0,1,.484-2.242A3.546,3.546,0,0,1,82.453,6.93a4.069,4.069,0,0,1,2.113-.539,3.849,3.849,0,0,1,2.793,1.047,4.2,4.2,0,0,1,1.207,2.844l.016.578A4.418,4.418,0,0,1,87.5,13.98a4.209,4.209,0,0,1-5.832,0,4.5,4.5,0,0,1-1.09-3.187Zm2.258.16a3.16,3.16,0,0,0,.453,1.843,1.628,1.628,0,0,0,2.578.008,3.457,3.457,0,0,0,.461-2.015,3.128,3.128,0,0,0-.461-1.831,1.5,1.5,0,0,0-1.3-.649,1.474,1.474,0,0,0-1.281.646A3.516,3.516,0,0,0,82.832,10.856Zm15.016,4.3a4.15,4.15,0,0,1-3.027-1.141,4.054,4.054,0,0,1-1.168-3.039v-.219a5.106,5.106,0,0,1,.492-2.277,3.612,3.612,0,0,1,1.395-1.547A3.914,3.914,0,0,1,97.6,6.391a3.508,3.508,0,0,1,2.73,1.094,4.444,4.444,0,0,1,1,3.1v.922H95.941a2.1,2.1,0,0,0,.66,1.328,2,2,0,0,0,1.395.5,2.437,2.437,0,0,0,2.039-.945l1.109,1.242a3.389,3.389,0,0,1-1.375,1.121A4.511,4.511,0,0,1,97.848,15.156ZM97.59,8.211a1.411,1.411,0,0,0-1.09.455,2.357,2.357,0,0,0-.535,1.3h3.141V9.788A1.681,1.681,0,0,0,98.7,8.623,1.456,1.456,0,0,0,97.59,8.211Zm7.094-1.664.07.977a2.951,2.951,0,0,1,2.43-1.133,2.453,2.453,0,0,1,2,.789,3.682,3.682,0,0,1,.672,2.359V15H107.6V9.594a1.465,1.465,0,0,0-.312-1.043,1.4,1.4,0,0,0-1.039-.324,1.553,1.553,0,0,0-1.43.813V15h-2.258V6.547ZM49.4,34.992V39H47.055V27.625h4.438a5.134,5.134,0,0,1,2.254.469,3.454,3.454,0,0,1,1.5,1.332,3.714,3.714,0,0,1,.523,1.965,3.266,3.266,0,0,1-1.145,2.637,4.767,4.767,0,0,1-3.168.965Zm0-1.9h2.094a2.059,2.059,0,0,0,1.418-.437,1.591,1.591,0,0,0,.488-1.25,1.876,1.876,0,0,0-.492-1.352,1.839,1.839,0,0,0-1.359-.531H49.4ZM59.609,39H57.344V27h2.266Zm6.758,0a2.507,2.507,0,0,1-.227-.758,2.732,2.732,0,0,1-2.133.914,3,3,0,0,1-2.059-.719,2.312,2.312,0,0,1-.816-1.812,2.389,2.389,0,0,1,1-2.062,4.915,4.915,0,0,1,2.879-.727h1.039v-.484a1.393,1.393,0,0,0-.3-.937,1.183,1.183,0,0,0-.949-.352,1.345,1.345,0,0,0-.895.273.929.929,0,0,0-.324.75H61.32a2.268,2.268,0,0,1,.453-1.359,3,3,0,0,1,1.281-.98,4.669,4.669,0,0,1,1.859-.355,3.689,3.689,0,0,1,2.48.785,2.747,2.747,0,0,1,.918,2.207v3.664a4.041,4.041,0,0,0,.336,1.82V39ZM64.5,37.43a1.945,1.945,0,0,0,.922-.223,1.462,1.462,0,0,0,.625-.6V35.156H65.2q-1.7,0-1.8,1.172l-.008.133a.9.9,0,0,0,.3.7A1.153,1.153,0,0,0,64.5,37.43Zm7.625-6.883.07.977a2.951,2.951,0,0,1,2.43-1.133,2.453,2.453,0,0,1,2,.789,3.682,3.682,0,0,1,.672,2.359V39H75.039V33.594a1.465,1.465,0,0,0-.312-1.043,1.4,1.4,0,0,0-1.039-.324,1.553,1.553,0,0,0-1.43.813V39H70V30.547ZM82.9,39.156a4.15,4.15,0,0,1-3.027-1.141A4.054,4.054,0,0,1,78.7,34.977v-.219A5.106,5.106,0,0,1,79.2,32.48a3.612,3.612,0,0,1,1.395-1.547,3.914,3.914,0,0,1,2.059-.543,3.508,3.508,0,0,1,2.73,1.094,4.444,4.444,0,0,1,1,3.1v.922H80.992a2.1,2.1,0,0,0,.66,1.328,2,2,0,0,0,1.395.5,2.437,2.437,0,0,0,2.039-.945L86.2,37.633a3.389,3.389,0,0,1-1.375,1.121A4.511,4.511,0,0,1,82.9,39.156Zm-.258-6.945a1.411,1.411,0,0,0-1.09.455,2.357,2.357,0,0,0-.535,1.3h3.141v-.181a1.681,1.681,0,0,0-.406-1.165A1.456,1.456,0,0,0,82.641,32.211ZM92.555,39a2.507,2.507,0,0,1-.227-.758,2.732,2.732,0,0,1-2.133.914,3,3,0,0,1-2.059-.719,2.312,2.312,0,0,1-.816-1.812,2.389,2.389,0,0,1,1-2.062,4.915,4.915,0,0,1,2.879-.727h1.039v-.484a1.393,1.393,0,0,0-.3-.937,1.183,1.183,0,0,0-.949-.352,1.345,1.345,0,0,0-.895.273.929.929,0,0,0-.324.75H87.508a2.268,2.268,0,0,1,.453-1.359,3,3,0,0,1,1.281-.98,4.669,4.669,0,0,1,1.859-.355,3.689,3.689,0,0,1,2.48.785,2.747,2.747,0,0,1,.918,2.207v3.664a4.041,4.041,0,0,0,.336,1.82V39Zm-1.867-1.57a1.945,1.945,0,0,0,.922-.223,1.462,1.462,0,0,0,.625-.6V35.156h-.844q-1.7,0-1.8,1.172l-.008.133a.9.9,0,0,0,.3.7A1.153,1.153,0,0,0,90.688,37.43Zm9.063-.094a1.481,1.481,0,0,0,1.016-.344,1.2,1.2,0,0,0,.406-.914h2.117a2.9,2.9,0,0,1-.469,1.574,3.093,3.093,0,0,1-1.262,1.109,3.949,3.949,0,0,1-1.77.395A3.67,3.67,0,0,1,96.93,38a4.56,4.56,0,0,1-1.047-3.184v-.148a4.508,4.508,0,0,1,1.039-3.117,3.627,3.627,0,0,1,2.852-1.164,3.555,3.555,0,0,1,2.543.9,3.2,3.2,0,0,1,.973,2.4h-2.117a1.551,1.551,0,0,0-.406-1.072,1.51,1.51,0,0,0-2.223.163,3.333,3.333,0,0,0-.4,1.866v.235a3.375,3.375,0,0,0,.4,1.878A1.377,1.377,0,0,0,99.75,37.336ZM106.961,39H104.7V30.547h2.266Zm-2.4-10.641a1.112,1.112,0,0,1,.34-.836,1.465,1.465,0,0,1,1.848,0,1.193,1.193,0,0,1,0,1.68,1.448,1.448,0,0,1-1.836,0A1.108,1.108,0,0,1,104.563,28.359Zm3.906,6.336a5.013,5.013,0,0,1,.484-2.242,3.546,3.546,0,0,1,1.395-1.523,4.069,4.069,0,0,1,2.113-.539,3.849,3.849,0,0,1,2.793,1.047,4.2,4.2,0,0,1,1.207,2.844l.016.578a4.418,4.418,0,0,1-1.086,3.121,4.209,4.209,0,0,1-5.832,0,4.5,4.5,0,0,1-1.09-3.187Zm2.258.16a3.16,3.16,0,0,0,.453,1.843,1.628,1.628,0,0,0,2.578.008,3.457,3.457,0,0,0,.461-2.015,3.128,3.128,0,0,0-.461-1.831,1.5,1.5,0,0,0-1.3-.649,1.474,1.474,0,0,0-1.281.646A3.516,3.516,0,0,0,110.727,34.856ZM112.906,27h2.461L113.2,29.422h-1.836Zm7.039,3.547.07.977a2.951,2.951,0,0,1,2.43-1.133,2.453,2.453,0,0,1,2,.789,3.682,3.682,0,0,1,.672,2.359V39h-2.258V33.594a1.465,1.465,0,0,0-.312-1.043,1.4,1.4,0,0,0-1.039-.324,1.553,1.553,0,0,0-1.43.813V39H117.82V30.547Z" transform="translate(854 3759)" fill="#fff"/>
    <g id="Grupo_997563" data-name="Grupo 997563" transform="translate(723.76 3366.399)">
      <path id="Trazado_710156" data-name="Trazado 710156" d="M-374.123,520.773h-57.022s-3.736-27.334,26.4-28.367C-404.744,492.407-379.067,487.3-374.123,520.773Z" transform="translate(-1.842 -109.858)" fill="#06d1d1"/>
      <path id="Trazado_710157" data-name="Trazado 710157" d="M-208.283,500.422v-40.36l26.012-17.633,25.629,18.857s.9,39.135,0,39.135Z" transform="translate(-93.163 -89.507)" fill="#a03d3d"/>
      <rect id="Rectángulo_351106" data-name="Rectángulo 351106" width="48.396" height="43.873" transform="translate(-432.987 227.733)" fill="#b76b31"/>
      <path id="Trazado_710158" data-name="Trazado 710158" d="M-212.824,501.934V484.987c0-7.283-.07-14.568.072-21.848a4.792,4.792,0,0,1,1.588-3.356c8.4-6.167,16.925-12.152,25.36-18.266a2.386,2.386,0,0,1,3.328,0c8.519,6.167,17.106,12.24,25.63,18.4a3.179,3.179,0,0,1,1.3,2.047c.135,3.421.061,6.85.061,10.456h-5.195a3.1,3.1,0,0,1-.228-1.115c1.213-5.878-1.621-9.292-6.465-12.232-5.779-3.507-11.1-7.776-16.766-11.825-7.38,5.275-14.731,10.512-22.047,15.8a2.461,2.461,0,0,0-1.03,1.609c-.061,10.509-.045,21.018-.045,31.75h9.214V474.433H-170.3v22.041h9.214V478.367h5.414v23.566Zm36.963-21.845h-16.358v5.185h16.358Zm-.092,16.366v-5.42h-16.234v5.42Z" transform="translate(-91.297 -88.856)"/>
      <path id="Trazado_710159" data-name="Trazado 710159" d="M-379.864,479.765c4.523,6.461,5.462,13.518,4.916,21.151h-60.416c-1.965-10.571,2.7-24.971,16.878-32.037-.272-5.258-.063-10.372-.923-15.3-.868-4.968-2.8-9.75-4.354-14.924,8.181,0,16.033-.337,23.838.122,4.935.291,8.372,4.81,8.466,9.813.087,4.626.11,9.258-.035,13.881a43.373,43.373,0,0,1-.994,5.906l9.164,6.431-4.125,3.99c-1.333-1.027-2.461-1.973-3.666-2.809-2.775-1.925-5.28-3.336-9-1.169-3.7,2.157-7.941,1.394-11.9-.527a5.145,5.145,0,0,0-3.965-.2c-8.7,4.333-13.335,11.458-14.206,21.383h7.289v-6.993h5.4V495.5h24.168v-6.967h5.466v6.911h8.062l-4.035-13.031Zm-17.17-23.461h-16.374c-.086,4.718-1.18,9.517,3.57,12.665a7.748,7.748,0,0,0,9.137.005C-396.047,465.858-396.813,461.093-397.034,456.3Zm-.015-6.053c.086-3.7-1.1-5.714-3.8-5.819-4.982-.194-9.977-.056-15.28-.056l1.819,5.875Z" transform="translate(0 -87.913)"/>
      <path id="Trazado_710160" data-name="Trazado 710160" d="M-382.123,274.251h-53.283V224.668h53.263v13.565h-5.521v-8.1h-10.854v14.4h-20.459V229.993c-3.444,0-6.649-.062-9.846.07-.461.019-1.265.965-1.268,1.487-.072,12.285-.056,24.572-.056,37.073h42.333V244.16h5.689Zm-22.311-44.271c-2.543,0-4.961-.077-7.368.06-.534.03-1.443.791-1.469,1.255-.143,2.585-.069,5.183-.069,7.827h8.906Z" transform="translate(-0.158 -0.335)"/>
      <path id="Trazado_710161" data-name="Trazado 710161" d="M-200.073,287.313c-4.187-2.414-8.318-4.865-12.523-7.18-1.434-.789-1.485-1.646-1.14-3.111.575-2.441,2.007-4.731.273-7.538-1.571-2.542-3.266-4.245-6.281-4.564-2.379-.252-3.376-1.442-3.216-4.064.268-4.393.073-8.815.073-13.249a17.065,17.065,0,0,1,3.585-1c4.066-.182,5.431-3.351,6.507-6.294.546-1.492-.179-3.631-.786-5.313-.673-1.863-.336-2.823,1.407-3.766,4.054-2.194,8-4.59,12.806-7.38.482.759,1.084,1.668,1.647,2.6,2.1,3.483,5.535,3.464,8.823,2.935,1.418-.228,2.9-1.575,3.863-2.8,1.78-2.264,3.36-2.24,5.626-.693a94.772,94.772,0,0,0,9.137,5.362c1.623.859,1.874,1.734,1.437,3.514-.57,2.322-1.64,4.46-.289,7.279,2,4.162,5.719,4.268,9.311,5.441v16.535c-.984.306-1.979.667-3,.925-5.828,1.473-7.914,4.87-6.249,10.727.722,2.54.45,4.033-2.186,5.293-3.862,1.846-7.472,4.219-11.1,6.317-3.045-1.855-4.356-5.482-8.81-5.457C-195.563,281.855-197.075,285.152-200.073,287.313Zm18.328-6.861c1.775-1.013,3.259-1.962,4.832-2.729,1.668-.813,2.427-1.786,1.515-3.68a5.351,5.351,0,0,1,.718-5.766c1.128-1.6,1.831-3.506,3.025-5.041a6.579,6.579,0,0,1,3.28-2.431c2.718-.616,3.789-1.978,3.3-4.686a6.111,6.111,0,0,1-.005-1.767c.213-1.859-.324-2.969-2.431-3.152a5.239,5.239,0,0,1-4.616-3.537,19.033,19.033,0,0,0-2.074-3.557c-1.538-2.211-2.338-4.422-1.067-7.111a2.593,2.593,0,0,0-.636-2.413c-1.8-1.286-3.809-2.273-5.949-3.495-2.247,3.869-5.6,4.165-9.451,4.292-4.071.134-7.209-.911-9.5-4.188-1.684.948-3,1.825-4.426,2.461-2.083.93-2.789,2.266-1.738,4.38.886,1.783.4,3.349-.638,4.93-1.075,1.64-1.785,3.552-3.016,5.048-1.033,1.257-2.464,2.664-3.936,2.974-2.426.51-3.081,1.638-2.8,3.839a10.675,10.675,0,0,1,0,2.358c-.173,1.8.2,3.022,2.37,3.2a5.5,5.5,0,0,1,4.77,3.763,23.766,23.766,0,0,0,2.506,4.33,4.793,4.793,0,0,1,.7,5.192c-.96,2-.4,3.322,1.63,4.182a14.386,14.386,0,0,1,2.8,1.616c1.294.938,2.186.661,3.236-.482.889-.968,2.149-2.343,3.191-2.3C-191.107,276.9-185.314,274.458-181.746,280.452Z" transform="translate(-87.146)"/>
      <path id="Trazado_710162" data-name="Trazado 710162" d="M-299.263,326.492a34.268,34.268,0,0,1,34.014,34.585,34.289,34.289,0,0,1-34.43,33.877,34.286,34.286,0,0,1-34.011-34.588A34.278,34.278,0,0,1-299.263,326.492Zm-.156,62.916A28.848,28.848,0,0,0-270.793,360.6a28.833,28.833,0,0,0-28.578-28.562A28.852,28.852,0,0,0-328.146,360.7,28.86,28.86,0,0,0-299.419,389.408Z" transform="translate(-41.81 -42.031)"/>
      <path id="Trazado_710163" data-name="Trazado 710163" d="M-288.389,281.481l5.1-5.988,3.46,4.389-12.294,12.091L-304.6,279.32l3.91-3.055,4.67,5.529,1.416-.611c-.318-4.767-.1-9.651-1.121-14.262-.819-3.712-4.439-5.012-8.141-5.094-3.814-.084-7.632-.019-11.624-.019v-5.213c5.065,0,10.107-.48,15.017.116,6.695.813,11.123,6.776,11.281,14.134.074,3.423.013,6.848.013,10.272Z" transform="translate(-49.262 -13.334)"/>
      <path id="Trazado_710164" data-name="Trazado 710164" d="M-271.916,464.54-275.469,468l-5.254-5.952-1.383.542c.355,4.846.161,9.82,1.245,14.5.817,3.523,4.422,4.758,8.008,4.861,2.634.075,5.271.015,8.084.015v5.2c-3.891,0-7.756.442-11.479-.1-6.587-.953-11.032-6.724-11.235-13.882-.1-3.509-.017-7.023-.017-11.068l-5.633,6.3-4.408-4.745c1.926-1.847,4.144-3.877,6.246-6.019,2.12-2.16,4.126-4.433,6.1-6.569Z" transform="translate(-56.612 -93.049)"/>
      <path id="Trazado_710165" data-name="Trazado 710165" d="M-381.2,388.09l-3.642-3.778,6.113-5.189-.322-.588c-4.26,0-8.549-.308-12.771.092-3.718.353-6.334,4.077-6.573,8.336-.066,1.173-.01,2.352-.01,3.754h-5.005c-2.258-9.6,3.934-17.712,13.884-18.018a74.173,74.173,0,0,0,10.749-.664l-6.22-5.3,4.318-4.092,12.621,12.69Z" transform="translate(-13.071 -56.836)"/>
      <path id="Trazado_710166" data-name="Trazado 710166" d="M-172.69,359.737c.679,8.649-2.479,14.587-9.306,16.577-3.033.884-6.4.668-9.619.854a25.876,25.876,0,0,0-6.067.663l6.5,4.88-4.441,4.343-12.658-12.583,12.827-12.694,3.842,4-6.31,5.532c4.948,0,9.251.316,13.484-.1,3.633-.354,6.177-3.943,6.5-8.088.083-1.064.012-2.14.012-3.392Z" transform="translate(-93.163 -55.645)"/>
      <path id="Trazado_710167" data-name="Trazado 710167" d="M-159.519,484.3v-5.315h5.41V484.3Z" transform="translate(-113.132 -104.477)"/>
      <path id="Trazado_710168" data-name="Trazado 710168" d="M-177.963,478.733h5.176v5.532h-5.176Z" transform="translate(-105.579 -104.373)"/>
      <path id="Trazado_710169" data-name="Trazado 710169" d="M-329.084,261.74h-5.394v-5.059h5.394Z" transform="translate(-41.487 -13.444)"/>
      <path id="Trazado_710170" data-name="Trazado 710170" d="M-392.7,286.294v-5.416h5.17v5.416Z" transform="translate(-17.645 -23.353)"/>
      <path id="Trazado_710171" data-name="Trazado 710171" d="M-368.574,286.341h-4.992V280.9h4.992Z" transform="translate(-25.481 -23.364)"/>
      <path id="Trazado_710172" data-name="Trazado 710172" d="M-156.567,340.672h5.071v5.447h-5.071Z" transform="translate(-114.341 -47.838)"/>
      <path id="Trazado_710173" data-name="Trazado 710173" d="M-232.35,503.562h5.283v5.075h-5.283Z" transform="translate(-83.308 -114.54)"/>
      <path id="Trazado_710174" data-name="Trazado 710174" d="M-383.358,513.063v5.263h-5.02v-5.263Z" transform="translate(-19.416 -118.431)"/>
      <path id="Trazado_710175" data-name="Trazado 710175" d="M-398.426,425.757h-5.054v-5.146h5.054Z" transform="translate(-13.231 -80.572)"/>
      <path id="Trazado_710176" data-name="Trazado 710176" d="M-161.559,507.307v5.185h-16.358v-5.185Z" transform="translate(-105.598 -116.074)" fill="#abffff"/>
      <path id="Trazado_710177" data-name="Trazado 710177" d="M-161.63,531.265h-16.234v-5.42h16.234Z" transform="translate(-105.62 -123.665)" fill="#abffff"/>
      <path id="Trazado_710178" data-name="Trazado 710178" d="M-381.627,468.625c.22,4.788.986,9.554-3.666,12.67a7.748,7.748,0,0,1-9.137-.005c-4.751-3.148-3.656-7.946-3.57-12.665Z" transform="translate(-15.406 -100.234)" fill="#ffdbdb"/>
      <path id="Trazado_710179" data-name="Trazado 710179" d="M-383.414,454.267h-17.261l-1.819-5.875c5.3,0,10.3-.139,15.28.056C-384.511,448.553-383.327,450.564-383.414,454.267Z" transform="translate(-13.635 -91.929)" fill="#8a3d02"/>
      <path id="Trazado_710180" data-name="Trazado 710180" d="M-389.146,233.648v9.142h-8.906c0-2.644-.074-5.242.069-7.827.026-.464.935-1.225,1.469-1.255C-394.108,233.571-391.689,233.648-389.146,233.648Z" transform="translate(-15.446 -4.003)" fill="#e37c2d"/>
      <path id="Trazado_710181" data-name="Trazado 710181" d="M-177.895,285.47c-3.568-5.994-9.361-3.549-14.408-3.77-1.042-.045-2.3,1.329-3.191,2.3-1.05,1.144-1.942,1.421-3.236.482a14.385,14.385,0,0,0-2.8-1.616c-2.033-.86-2.59-2.182-1.63-4.182a4.793,4.793,0,0,0-.7-5.192,23.765,23.765,0,0,1-2.506-4.33,5.5,5.5,0,0,0-4.77-3.763c-2.17-.175-2.543-1.393-2.37-3.2a10.676,10.676,0,0,0,0-2.359c-.282-2.2.374-3.329,2.8-3.839,1.472-.309,2.9-1.717,3.936-2.974,1.231-1.5,1.941-3.408,3.016-5.048,1.038-1.581,1.523-3.147.638-4.93-1.051-2.113-.344-3.45,1.738-4.38,1.424-.636,2.742-1.512,4.426-2.461,2.29,3.277,5.429,4.322,9.5,4.188,3.848-.127,7.2-.423,9.451-4.292,2.141,1.222,4.152,2.208,5.949,3.495a2.593,2.593,0,0,1,.636,2.413c-1.271,2.689-.471,4.9,1.067,7.111a19.035,19.035,0,0,1,2.074,3.557,5.239,5.239,0,0,0,4.616,3.537c2.108.183,2.644,1.293,2.431,3.152a6.112,6.112,0,0,0,.005,1.767c.494,2.708-.578,4.07-3.3,4.686a6.579,6.579,0,0,0-3.28,2.431c-1.194,1.535-1.9,3.444-3.025,5.041a5.351,5.351,0,0,0-.718,5.766c.912,1.894.153,2.867-1.515,3.68C-174.636,283.508-176.12,284.457-177.895,285.47Zm3.2-24.735A12.574,12.574,0,0,0-187.484,248.1a12.584,12.584,0,0,0-12.638,12.793,12.594,12.594,0,0,0,12.8,12.639A12.594,12.594,0,0,0-174.691,260.735Z" transform="translate(-90.997 -5.018)" fill="#abffff"/>
      <path id="Trazado_710182" data-name="Trazado 710182" d="M-295.574,393.25A28.86,28.86,0,0,1-324.3,364.538a28.852,28.852,0,0,1,28.775-28.663,28.833,28.833,0,0,1,28.578,28.562A28.848,28.848,0,0,1-295.574,393.25Zm2.9-13.775,2.305-.576a8.44,8.44,0,0,0,6.709-8.8,8.262,8.262,0,0,0-7.173-8.086,43.44,43.44,0,0,0-6.752-.282c-2.253,0-4.4-.312-4.408-3.079s2.138-3.117,4.387-3.094c3.7.037,7.4.01,11.078.01v-5.8h-6.157c-.086-1.89-.159-3.51-.233-5.135H-298.3c-.112,1.776-.214,3.406-.317,5.042a31.47,31.47,0,0,0-3.552.863,8.637,8.637,0,0,0-5.4,8.92A8.065,8.065,0,0,0-300.856,367c2.791.433,5.717.044,8.484.558a4.6,4.6,0,0,1,3.028,2.795c.448,1.878-1.026,3.078-2.981,3.153-2.551.1-5.108.044-7.664.051-1.613,0-3.227,0-4.791,0v5.545l6.212.328c.086,1.846.158,3.39.233,5h5.425C-292.824,382.68-292.75,381.134-292.669,379.475Z" transform="translate(-45.655 -45.873)" fill="#ffc403"/>
      <path id="Trazado_710183" data-name="Trazado 710183" d="M-165.363,269.054A12.594,12.594,0,0,1-178,281.851a12.594,12.594,0,0,1-12.8-12.639,12.584,12.584,0,0,1,12.638-12.793A12.574,12.574,0,0,1-165.363,269.054Zm-5.423.1a7.754,7.754,0,0,0-7.123-7.314c-3.748-.147-7.4,3.431-7.418,7.265a7.539,7.539,0,0,0,7.077,7.274A7.624,7.624,0,0,0-170.785,269.158Z" transform="translate(-100.325 -13.337)"/>
      <path id="Trazado_710184" data-name="Trazado 710184" d="M-281.084,385.552c-.08,1.659-.155,3.2-.24,4.96h-5.425c-.075-1.611-.147-3.155-.233-5l-6.212-.328v-5.545c1.565,0,3.178,0,4.791,0,2.555-.007,5.113.047,7.664-.051,1.955-.075,3.429-1.275,2.981-3.153a4.6,4.6,0,0,0-3.028-2.795c-2.767-.514-5.694-.125-8.484-.558a8.065,8.065,0,0,1-6.706-7.541,8.637,8.637,0,0,1,5.4-8.92,31.476,31.476,0,0,1,3.552-.863c.1-1.636.2-3.267.316-5.042h5.385c.074,1.625.148,3.245.233,5.135h6.157v5.8c-3.679,0-7.379.027-11.078-.01-2.249-.023-4.4.315-4.387,3.094s2.155,3.084,4.408,3.079a43.444,43.444,0,0,1,6.752.282,8.262,8.262,0,0,1,7.173,8.086,8.44,8.44,0,0,1-6.709,8.8Z" transform="translate(-57.24 -51.95)"/>
    </g>
  </g>
</svg>
