<svg xmlns="http://www.w3.org/2000/svg" xmlns:xlink="http://www.w3.org/1999/xlink" width="315" height="272" viewBox="0 0 315 272">
  <defs>
    <clipPath id="clip-path">
      <rect id="Rectángulo_349729" data-name="Rectángulo 349729" width="315" height="272" transform="translate(0 0)" fill="none"/>
    </clipPath>
    <clipPath id="clip-path-3">
      <rect id="Rectángulo_349721" data-name="Rectángulo 349721" width="3.686" height="2.82" fill="none"/>
    </clipPath>
    <clipPath id="clip-path-4">
      <rect id="Rectángulo_349722" data-name="Rectángulo 349722" width="27.323" height="27.284" fill="#abffff"/>
    </clipPath>
  </defs>
  <g id="Grupo_1016696" data-name="Grupo 1016696" transform="translate(0.018 -0.084)">
    <g id="Grupo_1016695" data-name="Grupo 1016695" transform="translate(-0.018 0.084)" clip-path="url(#clip-path)">
      <rect id="Rectángulo_349719" data-name="Rectángulo 349719" width="315" height="272" transform="translate(0 0)" fill="#fff"/>
      <g id="Grupo_1016694" data-name="Grupo 1016694" transform="translate(0 0)">
        <g id="Grupo_1016693" data-name="Grupo 1016693" transform="translate(0)" clip-path="url(#clip-path)">
          <path id="Trazado_706829" data-name="Trazado 706829" d="M627.576,551.418c-5.553,4.484-13.444,9.461-19.942,11.6l9.654,1.806-39.879,46.715-79.485,22.725-94.063,99.652,74.1-.025,37.754-60.216,75.641-44.643,29.377-62.191,6.259,7.526c-1.252-6.687-.678-15.955.589-22.953" transform="translate(-348.558 -476.524)" fill="#ffc403"/>
          <path id="Trazado_706830" data-name="Trazado 706830" d="M220.537,1175.617s-4.308-7.671-5.356-9.3-3.778-8.11-3.876-8.366,1.88-3.322,1.439-3.427-.93,1.617-1.4,1.411-1.847-4.35-2.115-4.145c-.5.385.742,2.571.474,2.709s-1.079-2.406-1.6-2.331,1,2.331.853,2.53-1.731-1.927-2.018-1.473c-.156.246,1.456,1.855,1.147,2.006s-1.744-.888-1.9-.588,1.326.71,1.768,1.517,1.195,1.157,1.507,2.653.78,6.909,2.381,9.61,5.122,8.677,5.122,8.677Z" transform="translate(-177.937 -995.227)" fill="#f79c8d"/>
          <path id="Trazado_706831" data-name="Trazado 706831" d="M281.063,1308.744s4.765,5.1,5.474,7.158-.691,5-2.623,5.126-6.232-9.056-6.232-9.056Z" transform="translate(-239.655 -1130.839)" fill="#355389"/>
          <path id="Trazado_706832" data-name="Trazado 706832" d="M398.865,1441.433c-.347-.288-.766-.158-1.97-.711a7.371,7.371,0,0,0-1.121-.332.138.138,0,0,1-.106-.1c-.366-1.376-1.969-7.735-2.145-9.568-.18-1.875-1.4-9.826-1.583-11.035a.139.139,0,0,0-.175-.112l-3.5.969a.138.138,0,0,0-.1.164c.216.948,1.56,6.9,1.955,9.909.315,2.4,3.915,10.1,3.987,10.595l0,.014a.3.3,0,0,0,.3.258h3.9c.148,0,.663.039.554-.051" transform="translate(-335.01 -1226.591)" fill="#f48c7f"/>
          <path id="Trazado_706833" data-name="Trazado 706833" d="M384.578,1361.086c-1.861-5.609-3.943-5.37-3.943-5.37l1.61,11.792c1.149-.312,2.646-1.007,3.794-1.329a51.076,51.076,0,0,0-1.461-5.093" transform="translate(-328.512 -1171.421)" fill="#13375b"/>
          <path id="Trazado_706834" data-name="Trazado 706834" d="M321.843,1255.431c-.57-3.689-3.929-6.341-7.443-4.551a8.33,8.33,0,0,0-2.406,1.915c-1.475,1.881-1.853,4.205-3.377,6.032a15.085,15.085,0,0,0,2.043,1.289l.949-1.257-.327,1.569a23.29,23.29,0,0,0,10.246,2.02,19.441,19.441,0,0,0,.314-7.017" transform="translate(-266.355 -1080.351)" fill="#ffe8ce"/>
          <path id="Trazado_706835" data-name="Trazado 706835" d="M357.933,1564.057a15.048,15.048,0,0,0-2.682-1.477c-.112-.054-.519-.311-.665-.4a5.161,5.161,0,0,1-1.067-.938,5.266,5.266,0,0,1-.522-2.3c.176-1.942,3.009-33.085,3.606-36.456.617-3.48-.323-8.788-.323-8.788l-2.187-.819-4.151,14.292.327,10.879a28.938,28.938,0,0,0-1.1,5.01c-.123,1.874,1.411,17.085,1.411,17.085h0a7.878,7.878,0,0,1-.082,1.343c-.113.569-.74,1.74-.452,2.276a1.44,1.44,0,0,0,.617.669l7.459.12c.406.007.138-.254-.19-.494" transform="translate(-301.349 -1307.206)" fill="#f48c7f"/>
          <path id="Trazado_706836" data-name="Trazado 706836" d="M260.177,1503.04a24.215,24.215,0,0,0-3.207,7.094c-.617,3.212.453,13.085-.734,17.294-.642,2.279-3.076,5.8-3.446,8.743s-1.657,11.444-1.657,11.444h0a7.474,7.474,0,0,1-.9,2.509,7.4,7.4,0,0,0-.976,1.279,3.747,3.747,0,0,0,.131,2.923c.171.372-.012.371.378.491a2.4,2.4,0,0,0,2.876-1.344,6.8,6.8,0,0,0,.564-2.471,11.476,11.476,0,0,1,.408-2.612l8.279-20.175,5.994-17.412,1.535-8.967Z" transform="translate(-214.914 -1297.666)" fill="#f79c8d"/>
          <path id="Trazado_706837" data-name="Trazado 706837" d="M251.273,1867.678a3.682,3.682,0,0,1-3.6-1.5,3.921,3.921,0,0,0-.343,2.933c.3.64,1.157.622,1.836.647a1.774,1.774,0,0,0,1.629-.993,5.935,5.935,0,0,0,.482-1.088" transform="translate(-213.316 -1612.452)" fill="#86b1f2"/>
          <path id="Trazado_706838" data-name="Trazado 706838" d="M359.578,1874.289a6.781,6.781,0,0,1-4.247-.166,3.4,3.4,0,0,0-.341,1.767c.181.526.439.645.667.651,1.8.047,6.6.111,7.974.129a.224.224,0,0,0,.174-.367,36.192,36.192,0,0,0-4.227-2.014" transform="translate(-306.343 -1619.316)" fill="#86b1f2"/>
          <path id="Trazado_706839" data-name="Trazado 706839" d="M305.359,1529.428l.467.03h.024l.463.026h.028l.466.022h.024l.476.018a31.048,31.048,0,0,0,5.353-.2c.714-7.1.98-13.588,1.245-15.023.641-3.48-.559-8.973-.559-8.973l-.573-.1.362-2.034-9.619,1.2s-2.693,3.882-3.335,7.094.471,13.085-.763,17.294c0,0,2.746.425,5.94.641" transform="translate(-258.416 -1298.841)" fill="#f7cc7f"/>
          <path id="Trazado_706840" data-name="Trazado 706840" d="M314.033,1348.25s-3.429-.217-4.786,1.255,3.01,13.119,3.256,14.993-1.258,6.856-1.258,6.856,8.056,1.614,10.358.1c0,0,.247-13.475,0-14.813a39.487,39.487,0,0,0-2.8-7.318c-.493-.535-4.775-1.071-4.775-1.071" transform="translate(-266.673 -1164.962)" fill="#355389"/>
          <path id="Trazado_706841" data-name="Trazado 706841" d="M346.255,1314.3s-.018.1-.05.272a25.806,25.806,0,0,1-1.14,4.293c-.481.9,1.646,3.79,3.692,3.438.609-.1-.515-2.651-.461-2.921.1-.516.244-1.221.387-1.943l.24-1.209c.219-1.1.4-2.006.4-2.006Z" transform="translate(-297.754 -1135.57)" fill="#f7a491"/>
          <path id="Trazado_706842" data-name="Trazado 706842" d="M353.234,1314.567c.032-.171.05-.272.05-.272l3.067-.076s-.179.9-.4,2.006l-.239,1.2a2.876,2.876,0,0,1-1.464-.731,3.851,3.851,0,0,1-1.109-1.642c.038-.193.069-.359.093-.487" transform="translate(-304.782 -1135.57)" fill="#f47458"/>
          <path id="Trazado_706843" data-name="Trazado 706843" d="M348.066,1263.7a2.771,2.771,0,0,0-2.352,1c-.906,1.167-1.883,4.775.368,6.737s4.475-.259,4.8-2.613.458-5.209-2.821-5.124" transform="translate(-297.501 -1091.915)" fill="#f7a491"/>
          <path id="Trazado_706844" data-name="Trazado 706844" d="M386.951,1293c-.269.52-.72.808-1.007.643s-.3-.72-.034-1.24.72-.808,1.007-.643.3.72.034,1.24" transform="translate(-332.898 -1116.123)" fill="#f7a491"/>
          <path id="Trazado_706845" data-name="Trazado 706845" d="M339.707,1260.684s-1.931,3.431-3.313,3.59-1.563,1.982-1.563,1.982.494-4.2,1.861-5.012a5.1,5.1,0,0,1,3.014-.56" transform="translate(-288.98 -1089.285)" fill="#ffe8ce"/>
          <path id="Trazado_706846" data-name="Trazado 706846" d="M339.782,1287.5c.112.609-.114,1.168-.5,1.248s-.8-.349-.911-.958.114-1.168.5-1.248.8.349.912.958" transform="translate(-292.006 -1111.647)" fill="#f7a491"/>
          <path id="Trazado_706847" data-name="Trazado 706847" d="M361.265,1309.92l2.09.408a.931.931,0,0,1-1.129.626c-1.127-.187-.961-1.034-.961-1.034" transform="translate(-311.787 -1131.855)" fill="#fff"/>
          <path id="Trazado_706974" data-name="Trazado 706974" d="M0,0H.872L.9,19.858H.024Z" transform="translate(217.919 238.101) rotate(-10.74)" fill="#3c8f7c"/>
          <path id="Trazado_706848" data-name="Trazado 706848" d="M1322.656,1769.859h-1.031l3.841-19.759.857.161Z" transform="translate(-1140.661 -1512.163)" fill="#3c8f7c"/>
          <path id="Trazado_706849" data-name="Trazado 706849" d="M1542.406,1769.859h-1.031l3.841-19.759.857.161Z" transform="translate(-1330.323 -1512.163)" fill="#3c8f7c"/>
          <path id="Trazado_706850" data-name="Trazado 706850" d="M1374.4,1770.422l.837.01-3.682-19.68-.857.161Z" transform="translate(-1183.013 -1512.726)" fill="#184655"/>
          <path id="Trazado_706851" data-name="Trazado 706851" d="M1336.217,1434.569c4.575.487,10.495,1,16.438,11.02,6.5,10.95,3.076,27.308-2.051,31.854s-21.872,10.158-35.948,1.756c0,0-8.5-5.092-4.137-13.543,6.713-13,5.764-15.717,8.766-20.813s7.222-11.306,16.932-10.273" transform="translate(-1130.001 -1239.452)" fill="#b20d0d"/>
          <path id="Trazado_706852" data-name="Trazado 706852" d="M1370.063,1451.237c-4.057-6.838-8.1-9.248-11.717-10.244a30.078,30.078,0,0,1,4.234,5.678c6.5,10.951,3.076,27.308-2.051,31.854-4.547,4.031-18.23,8.9-31.086,4.09a13.04,13.04,0,0,0,2.621,2.232c14.076,8.4,30.821,2.79,35.948-1.755s8.546-20.9,2.051-31.854" transform="translate(-1147.409 -1245.1)" fill="#8d0a0a"/>
          <path id="Trazado_706853" data-name="Trazado 706853" d="M1391.369,1557.662l-1.176,3.5,3.583-1.4Z" transform="translate(-1199.841 -1345.9)" fill="#f79c8d"/>
          <path id="Trazado_706854" data-name="Trazado 706854" d="M1395.126,1480.994c-.239.01-.893.227-1.851,2.018-1.223,2.287-3.009,9.2-3.009,9.2l5.333,1.966.685-1.442,1.128-11.1s-2.221-.639-2.287-.636" transform="translate(-1199.903 -1279.66)" fill="#6394db"/>
          <path id="Trazado_706855" data-name="Trazado 706855" d="M1430.679,1473.672a32.89,32.89,0,0,0-7.05,1s-1.287,10.948,1.158,19.268c.547,1.862-.453,7.72-.453,7.72l15.8-.206s-1.872-14.161-1.167-16.448.722-10.259.722-10.259-.108-.017-3.551-.606a36.114,36.114,0,0,0-5.464-.464" transform="translate(-1228.407 -1273.334)" fill="#86b1f2"/>
          <path id="Trazado_706856" data-name="Trazado 706856" d="M1482.7,1828.805s-.35,3.995-.992,5.1.034,2.987.068,3.245,1.353.627,3.451.406,2.064-.7,1.894-1.475-1.286-1.77-1.353-2.508a19.077,19.077,0,0,1,.643-3.392Z" transform="translate(-1278.591 -1580.163)" fill="#f7a491"/>
          <path id="Trazado_706857" data-name="Trazado 706857" d="M1353.645,1653.609s-10.909-.6-13.345.861.441,4.46.441,4.46,8.881,3.823,23.749,4.672c3.521.2,3.824-9.089,3.166-9.858s-14.01-.135-14.01-.135" transform="translate(-1155.934 -1428.585)" fill="#e5b05c"/>
          <path id="Trazado_706858" data-name="Trazado 706858" d="M1484.06,1871.8c2.16-.228,1.893-1.278,1.719-2.076-.109-.5-.729-1.088-1.1-1.645a3.613,3.613,0,0,1-1.445.7,5.451,5.451,0,0,1-3.16-.632,10.224,10.224,0,0,0-.289,2.759c.035.266,2.114,1.126,4.273.9" transform="translate(-1277.158 -1614.091)" fill="#f47458"/>
          <path id="Trazado_706859" data-name="Trazado 706859" d="M1486,1662.018c-.436,3.265-2.594,19.52-2.594,19.52l5.007.614s6.157-21.216,5.842-24.461-2.621-3.518-2.621-3.518-4.481-.8-5.634,7.845" transform="translate(-1280.294 -1429.267)" fill="#f7cc7f"/>
          <path id="Trazado_706860" data-name="Trazado 706860" d="M1428.62,1490.38c-1.477-.549-2.2,12.632-2.4,18.057a65.031,65.031,0,0,1-8.313-.083c-.534-.04-1.766-.486-2.3-.555a5.366,5.366,0,0,0-1.305-.061,24.735,24.735,0,0,0-3.059,1.363c-.289.3-1.072,1.058-.94,1.385s1.5-.913,1.5-.913l.671-.373c-.835.808-2.428,1.871-2.2,2.258s1.66-.7,2.684-1.437c-.878.785-1.969,2.191-1.718,2.41.226.2,1.467-1.43,2.793-1.9.492-.174.981.307,1.368.365a2.813,2.813,0,0,0,1,.055l1.436-.4c.489.044.5.33,1,.434.574.121,1.515.248,2.245.425,4.206,1.017,5.608,1.49,6.9,1.489,3.9,0,4.127-21.223.634-22.52" transform="translate(-1217.161 -1287.756)" fill="#f7a491"/>
          <path id="Trazado_706861" data-name="Trazado 706861" d="M1527.042,1494.932c.277-5.557.236-12.407-2.91-13.575-1.241-.461-3.43,2.311-3.037,13.688a23.889,23.889,0,0,0,5.947-.113" transform="translate(-1312.779 -1279.932)" fill="#86b1f2"/>
          <path id="Trazado_706862" data-name="Trazado 706862" d="M1350.984,1853.928a2.677,2.677,0,0,1-.345,2.3c-.782.917-4.033,1.817-4.46,2.314a1.384,1.384,0,0,0-.394.92l9.124-.249-.1-2.728-.42-1.961Z" transform="translate(-1161.512 -1601.868)" fill="#f7a491"/>
          <path id="Trazado_706863" data-name="Trazado 706863" d="M1341.2,1872.908s2.344.939,3.477.383,1.1-.71,1.426-.5.445,2.995.445,2.995l-10.26.069c-.714-.017-1.075-.537-.495-.983a8.394,8.394,0,0,1,1.119-.658,32.308,32.308,0,0,1,4.288-1.3" transform="translate(-1152.638 -1618.088)" fill="#f47458"/>
          <path id="Trazado_706864" data-name="Trazado 706864" d="M1335.658,1657.58c-.7-1.469-2.309-3.382-5.131-2.23-2.691,1.1-3.414,3.8-2.565,6.565s6.44,19.022,6.634,21.257l4.464.029s-.811-12.872-1.01-15.984a29.893,29.893,0,0,0-2.392-9.638" transform="translate(-1145.84 -1429.996)" fill="#f7cc7f"/>
          <path id="Trazado_706865" data-name="Trazado 706865" d="M1327.227,1563.907h14.921a.973.973,0,0,1,.9.6l4.594,11.131h8.226a.413.413,0,1,1,0,.827h-23.412a1.634,1.634,0,0,1-1.491-.959l-4.626-10.237a.967.967,0,0,1,.887-1.362" transform="translate(-1144.656 -1351.295)" fill="#355389"/>
          <path id="Trazado_706866" data-name="Trazado 706866" d="M1391.907,1604.716a.82.82,0,1,0,.616-1.064.877.877,0,0,0-.616,1.064" transform="translate(-1201.302 -1385.622)" fill="#fff"/>
          <path id="Trazado_706867" data-name="Trazado 706867" d="M1463.443,1437.369l.73,4.78s-2.666,5.691-4.258,5.2c-1.335-.414-.514-5.45-.514-5.45a13.709,13.709,0,0,0,.51-4.058c-.218-1.353,3.532-.47,3.532-.47" transform="translate(-1259.357 -1241.725)" fill="#f7a491"/>
          <g id="Grupo_1016689" data-name="Grupo 1016689" transform="translate(200.461 195.361)" opacity="0.2">
            <g id="Grupo_1016688" data-name="Grupo 1016688">
              <g id="Grupo_1016687" data-name="Grupo 1016687" clip-path="url(#clip-path-3)">
                <path id="Trazado_706868" data-name="Trazado 706868" d="M1464.11,1437.839c-.218-1.353,3.532-.47,3.532-.47l.061.4a2.2,2.2,0,0,1-.407.666,4.952,4.952,0,0,1-3.279,1.474,7.318,7.318,0,0,0,.093-2.067" transform="translate(-1464.017 -1437.086)" fill="#f47458"/>
              </g>
            </g>
          </g>
          <path id="Trazado_706869" data-name="Trazado 706869" d="M1454.622,1379.967c.106-.038.849,5.444-.562,6.953s-4.16,2-5.146.814c-1.091-1.314-1.036-7.206,1.158-8.758s4.55.992,4.55.992" transform="translate(-1249.921 -1191.084)" fill="#f7a491"/>
          <path id="Trazado_706870" data-name="Trazado 706870" d="M1455.845,1360.387a6.1,6.1,0,0,1,3.2,1.812c.77.09,1.817.513,2.9,2.291a4.427,4.427,0,0,1-1.2,5.8,3.456,3.456,0,0,0-1.525,2.561l-.244-.71a3.942,3.942,0,0,1-.194-1.672,3.247,3.247,0,0,1,.25-1.005c.372-.794-.8-1.321-1.128-1.981-.253-.508-.265-1.671-.664-2.511l-.476-.641a3.038,3.038,0,0,0-2.172-.609c-1.074.239-.919-3.769,1.256-3.328" transform="translate(-1254.859 -1175.429)"/>
          <path id="Trazado_706871" data-name="Trazado 706871" d="M1483.387,1412.284c-.011.669.295,1.216.683,1.223s.713-.53.724-1.2-.295-1.217-.683-1.223-.713.53-.724,1.2" transform="translate(-1280.275 -1219.26)" fill="#f7a491"/>
          <path id="Trazado_706872" data-name="Trazado 706872" d="M1456.068,1432.837l-2.127-.109a.927.927,0,0,0,.941.88c1.138.091,1.186-.771,1.186-.771" transform="translate(-1254.86 -1237.959)" fill="#fff"/>
          <path id="Trazado_706873" data-name="Trazado 706873" d="M1778.233,1199.352c.232.947.651,2.444.651,2.444-.033.411-.156,2.124-.3,4.223l3.106-1.235a33.037,33.037,0,0,1,.1-3.63c.117-.177.314.044,1.266-1.309a2.63,2.63,0,0,0,.326-1.089s.057-.859-.138-.939a.4.4,0,0,0-.487.2c-.07.149-.052.495-.123.643a1.078,1.078,0,0,1-.708.318,11.4,11.4,0,0,1,.023-2.541s.106-.718.159-.953c.046-.2.229-.788.229-.788s.216-.852-.051-.917c-.157-.038-.557.654-.831,1.389a14.743,14.743,0,0,1-.547,1.619c-.2-.026-.093-1.415-.093-1.415a4.419,4.419,0,0,0,.193-.936c.187-.368.31-1.05-.018-1.106a5.643,5.643,0,0,0-.494.856s-.17.61-.269.9a16.7,16.7,0,0,0-.293,1.647c-.076.292-.145.172-.176.184a7.365,7.365,0,0,1,.067-.945,5.593,5.593,0,0,1,.071-.916,6.577,6.577,0,0,0,.133-.967c.053-.718-.4-.645-.559.012-.06.25-.123.523-.186.8-.245,1.076-.238,2.114-.354,2.122a7.761,7.761,0,0,1-.052-1.877s-.233-1.045-.464-.075a8.4,8.4,0,0,0-.236,2.084,8.112,8.112,0,0,0,.056,2.2" transform="translate(-1534.652 -1031.122)" fill="#f8a492"/>
          <path id="Trazado_706874" data-name="Trazado 706874" d="M1987.211,1181.006c-.232.947-.651,2.444-.651,2.444.033.411.156,2.124.3,4.223l-3.106-1.235a33.1,33.1,0,0,0-.1-3.63c-.117-.177-.314.044-1.266-1.309a2.631,2.631,0,0,1-.326-1.089s-.057-.859.137-.939a.4.4,0,0,1,.487.2c.07.149.052.494.123.643a1.078,1.078,0,0,0,.709.318,11.417,11.417,0,0,0-.024-2.541s-.105-.718-.159-.953c-.046-.2-.229-.788-.229-.788s-.216-.852.051-.917c.157-.038.557.654.831,1.389a14.761,14.761,0,0,0,.547,1.619c.2-.026.093-1.415.093-1.415a4.416,4.416,0,0,1-.193-.936c-.186-.368-.31-1.05.018-1.106a5.649,5.649,0,0,1,.494.856s.17.61.269.9a16.665,16.665,0,0,1,.293,1.647c.076.292.145.172.176.184a7.257,7.257,0,0,0-.067-.945,5.513,5.513,0,0,0-.071-.916,6.619,6.619,0,0,1-.133-.967c-.053-.718.4-.645.559.012.06.25.123.523.186.8.244,1.076.238,2.114.354,2.122a7.779,7.779,0,0,0,.052-1.877s.233-1.045.464-.075a8.38,8.38,0,0,1,.236,2.084,8.1,8.1,0,0,1-.057,2.2" transform="translate(-1710.664 -1015.271)" fill="#f8a492"/>
          <path id="Trazado_706875" data-name="Trazado 706875" d="M1941.879,1810.965a23.635,23.635,0,0,0,2.151,2.382c.429.261-.192,3.343-1.36,3.545-.659.114-1.025-.606-1.025-.606l.189-.887-2.46-2.519Z" transform="translate(-1673.828 -1564.749)" fill="#f7a491"/>
          <path id="Trazado_706876" data-name="Trazado 706876" d="M1875.662,1814.817a23.575,23.575,0,0,0,1.827,2.635c.392.313-.62,3.291-1.8,3.343-.668.029-.938-.731-.938-.731l.3-.857-2.116-2.81Z" transform="translate(-1616.482 -1568.077)" fill="#f7a491"/>
          <path id="Trazado_706877" data-name="Trazado 706877" d="M1876.062,1833.523a18.017,18.017,0,0,1-1.274,1.46,15.119,15.119,0,0,1-1.324,1.061s-.842,1.519-1.073,2.049a8.791,8.791,0,0,0-1.005,3.154c.027.212.506.437.906.315,1.664-.508,5.917-4.373,6.454-5.411.619-1.2-2.684-2.628-2.684-2.628" transform="translate(-1615.141 -1584.239)" fill="#13375b"/>
          <path id="Trazado_706878" data-name="Trazado 706878" d="M1806.462,1565.852c.155-.43.3-.827.446-1.2,1.77.384,3.768.806,5.824,1.241l.25,7.485c0-.578-1.545,11.939-1.545,11.939s3.995,8.786,6.727,13.907a9.413,9.413,0,0,1-3.271,2.785c-4.241-5.051-9.791-14.293-10.022-15.83-.133-.884-.252-15.173,1.592-20.327" transform="translate(-1557.682 -1351.939)" fill="#03a4a4"/>
          <path id="Trazado_706879" data-name="Trazado 706879" d="M1872.229,1575.9c-.541,5.833-1.742,16.984-1.642,17.88.3,1.118,5.648,11.437,6.61,12.939a6.475,6.475,0,0,1-3.219,2.72c-.251.067-9.074-12.406-9.555-13.4-.543-1.119-1.45-7.224-1.466-14.783l-.25-7.485c3.425.725,6.574,1.437,9.522,2.125" transform="translate(-1607.657 -1359.821)" fill="#06d1d1"/>
          <path id="Trazado_706880" data-name="Trazado 706880" d="M1813.815,1393.921l4.032.55s3.225.058,3.625.058,2.939,14.631,3.672,20.129.165,6.472.165,6.472a35.7,35.7,0,0,1-8.894.809,29.148,29.148,0,0,1-8.357-2.455s3.362-10.566,4.028-13.866,1.729-11.7,1.729-11.7" transform="translate(-1560.491 -1204.431)" fill="#355389"/>
          <path id="Trazado_706881" data-name="Trazado 706881" d="M1778.2,1260.138s-.259,10.893.155,11.727c.6,1.212,7.371,9.806,7.371,9.806s-3.234,13.445-4.594,18.088c-.137.468-.743,3.488-.743,3.783,0,.653,2.861,1.481,3.2,1.432.3-.044,2.8-12.833,4.394-19.091a17.841,17.841,0,0,1,2.734-5.913l1.108-1.564-8.505-8.469s-1.048-9.427-1.048-10.208c0-.2-3.66-.358-4.072.41" transform="translate(-1534.652 -1088.347)" fill="#86b1f2"/>
          <path id="Trazado_706882" data-name="Trazado 706882" d="M1885.6,1258.963l10.606-10.735s1.478-10.152,1.583-10.534,2.738-.578,3.8-.681c.341-.033-.178,10.813-.686,12.631-.6,2.148-8.617,11.933-8.617,11.933s-1.437,5.3-1.091,9.188c.575,6.457,2.124,15.339,1.847,15.618-1.724,1.079-8.339,1.194-8.758.524-4.624-7.4,1.317-27.943,1.317-27.943" transform="translate(-1624.762 -1068.864)" fill="#86b1f2"/>
          <path id="Trazado_706883" data-name="Trazado 706883" d="M1949.445,1827.894a18.021,18.021,0,0,1-1.076,1.61,15.174,15.174,0,0,1-1.177,1.221s-.64,1.613-.8,2.168a9.31,9.31,0,0,0-.592,3.37c.054.207.512.6.89.357,1.458-.943,5.355-5.363,5.755-6.46.46-1.266-3-2.266-3-2.266" transform="translate(-1679.34 -1579.375)" fill="#13375b"/>
          <path id="Trazado_706884" data-name="Trazado 706884" d="M1859.3,1295.1a10.891,10.891,0,0,0,1.352-.027,6.338,6.338,0,0,1,1.53,0,3.449,3.449,0,0,1,2.443,1.739c.518,1.272,2.368,1.082.176,5.908-2.481,5.463-5.38,3.674-5.42,3.551s-1.433-4.627-1.433-4.627-1.735,1.708-1.706,1.633-2.362-8.372,3.057-8.178" transform="translate(-1601.642 -1118.985)" fill="#0e2e35"/>
          <path id="Trazado_706885" data-name="Trazado 706885" d="M1876.615,1362l-.289,2.137s-.647,3.079.185,3.673,3.542-3.76,3.542-3.76l-.286-5.415Z" transform="translate(-1619.205 -1173.944)" fill="#f7a491"/>
          <path id="Trazado_706886" data-name="Trazado 706886" d="M1881.648,1360.39a6.155,6.155,0,0,1-3.49,3.423l.245-1.812,3.152-3.366Z" transform="translate(-1620.993 -1173.944)" fill="#f47458"/>
          <path id="Trazado_706887" data-name="Trazado 706887" d="M1864.422,1311.245a2.876,2.876,0,0,0-4.115,1.537,21.582,21.582,0,0,0-.748,2.649c-.518,2.443.3,5.07,1.412,5.281a5.379,5.379,0,0,0,5.295-4.249,4.7,4.7,0,0,0-1.843-5.218" transform="translate(-1604.803 -1132.679)" fill="#f7a491"/>
          <path id="Trazado_706888" data-name="Trazado 706888" d="M1903.008,1347.521a.834.834,0,1,0,.993-.827.917.917,0,0,0-.993.827" transform="translate(-1642.422 -1163.617)" fill="#f7a491"/>
          <path id="Trazado_706889" data-name="Trazado 706889" d="M1873.819,1311.3s-1.386-.162-1.549-1.148-1.18-3.364-3.594-3.441,2.551-1.056,2.722-.992l2.229.819s1.091,1.886,1.094,2.049-.129,1.883-.129,1.883Z" transform="translate(-1612.24 -1128.22)" fill="#0e2e35"/>
          <path id="Trazado_706890" data-name="Trazado 706890" d="M1868.486,1362.506l-2.472-.427a1.09,1.09,0,0,0,.974,1.164c1.319.267,1.5-.738,1.5-.738" transform="translate(-1610.509 -1176.92)" fill="#fff"/>
          <path id="Trazado_706891" data-name="Trazado 706891" d="M971.352,1429.706a2.506,2.506,0,0,0,.265.639,24.3,24.3,0,0,0,2.539,3.355l1.372-3.071s-.224-.964-.612-2.343a7.971,7.971,0,0,0-3.565,1.42" transform="translate(-838.348 -1234.122)" fill="#f8a492"/>
          <path id="Trazado_706892" data-name="Trazado 706892" d="M959.015,1350.926s-7.654,3.274-7.9,3.212a20.122,20.122,0,0,1-3.171-9.656c-.015-2.152,2.235-4.741,4.746-4.229,1.264.258,1.244.607,3.114,3.306a30.992,30.992,0,0,1,3.213,7.367" transform="translate(-818.143 -1158.006)" fill="#13375b"/>
          <path id="Trazado_706893" data-name="Trazado 706893" d="M1073.3,1850.73s-.182,2.986-.183,2.992a16.227,16.227,0,0,0-.33,1.66c0,1.3,6.189-1.1,4.8-1.673-.126-.052-.783-.444-.825-.885-.064-.679-.225-2.053-.225-2.053Z" transform="translate(-925.898 -1599.105)" fill="#f7a491"/>
          <path id="Trazado_706894" data-name="Trazado 706894" d="M1076.2,1872.21s-1.453.4-2.2.5-1.725-.735-2.252-.509c-.579.248-.557,2.479-.557,2.479s7.792.635,9.983-.022c.868-.26-2.007-1.521-4.977-2.443" transform="translate(-924.515 -1617.618)" fill="#8d0a0a"/>
          <path id="Trazado_706895" data-name="Trazado 706895" d="M980.834,1850.73s-.182,2.986-.183,2.992a16.245,16.245,0,0,0-.33,1.66c0,1.3,6.189-1.1,4.8-1.673-.126-.052-.978-.738-1.02-1.178-.064-.679-.03-1.759-.03-1.759Z" transform="translate(-846.089 -1599.105)" fill="#f7a491"/>
          <path id="Trazado_706896" data-name="Trazado 706896" d="M983.439,1872.21s-1.453.4-2.2.5-1.725-.735-2.252-.509c-.58.248-.6,2.479-.6,2.479s7.828.74,10.029-.022c.855-.3-2.007-1.521-4.978-2.443" transform="translate(-844.419 -1617.618)" fill="#8d0a0a"/>
          <path id="Trazado_706897" data-name="Trazado 706897" d="M997.879,1301.963l5.451-7.585c.023-.067.072-.2.148-.41.275-.753.846-2.319,1.343-3.877l.005-.016c.156-.545.488-1.495.809-2.414.356-1.022.8-2.289.814-2.506-.014-.037-.039-.1-.073-.191a17.37,17.37,0,0,1-.566-2.277c-.061-.34-.121-1.166.285-1.166.639,0,.335.825.629,1.34a12.949,12.949,0,0,0,.443-1.719l.107-1.613c.02-.122-.11-1.011.339-1.011h.021c.4.029.394.975.561,2.575.053-.184.106-.406.146-.61a5.824,5.824,0,0,1,.136-.844c-.081-.446-.034-1.149.444-1.083.24.033.22,1.015.22,1.015,0,.135-.017,1.172-.01,1.377.049-.348.241-1.833.616-1.833.311,0,.336.4.329.716,0,.187-.2,1.8-.21,1.983.146-.244.32-1.661.465-1.661.606,0,.387,2.016.165,2.541a2.321,2.321,0,0,0-.069.281,4.928,4.928,0,0,1-.52,1.5c-.381.647-.906,1.676-.986,1.833-.059.321-.241,1.477-.47,2.93-.1.622-.206,1.3-.318,2.01h-.006c-.021.153-.134.639-.565,2.463a21.611,21.611,0,0,1-.678,2.649c-.256.451-6.133,8.379-6.384,8.717l-.147.2Z" transform="translate(-861.242 -1104.724)" fill="#f7a491"/>
          <path id="Trazado_706898" data-name="Trazado 706898" d="M1064.173,1313.4s-.442-1.124-1.23-1.126a.911.911,0,0,1,.817.139,1.543,1.543,0,0,1,.413.987" transform="translate(-917.398 -1133.85)" fill="#f47458"/>
          <path id="Trazado_706899" data-name="Trazado 706899" d="M983.837,1303.21l-.7,4.409s2.674,2.133,4.232,1.683c1.308-.377.411-2.076.411-2.076a10.965,10.965,0,0,1-.483-3.587c.214-1.234-3.459-.428-3.459-.428" transform="translate(-848.517 -1125.835)" fill="#f7a491"/>
          <path id="Trazado_706900" data-name="Trazado 706900" d="M987.913,1304.544a10.978,10.978,0,0,0,3.026.847,5.813,5.813,0,0,1-.071-1.752c.1-.569-.63-.7-1.444-.685-1.065.091-2.014.256-2.014.256l-.135.847a2.2,2.2,0,0,0,.639.485" transform="translate(-852.089 -1125.837)" fill="#fe875e"/>
          <path id="Trazado_706901" data-name="Trazado 706901" d="M963.571,1252.413c-.11,0,1.057,4.925,2.863,5.772s4.5.406,5.006-.921c.559-1.467-1.48-6.491-4.021-7.13s-3.848,2.278-3.848,2.278" transform="translate(-831.625 -1080.123)" fill="#f7a491"/>
          <path id="Trazado_706902" data-name="Trazado 706902" d="M951.774,1232.716a5.662,5.662,0,0,0-2.328,2.555,3.636,3.636,0,0,0-1.89,2.87,4.036,4.036,0,0,0,3.059,4.582,2.764,2.764,0,0,1,2.1,1.729l.207-1.29a5.1,5.1,0,0,0-1.015-1.685c-.61-.562.289-1.381.368-2.049.061-.514-.32-1.513-.238-2.357a5.844,5.844,0,0,1,2.011-1.9c1.7-.642-.427-3.514-2.279-2.453" transform="translate(-817.738 -1064.952)" fill="#13375b"/>
          <path id="Trazado_706903" data-name="Trazado 706903" d="M975.569,1284.612c.236.569.14,1.134-.216,1.261s-.835-.23-1.071-.8-.14-1.134.215-1.261.835.229,1.071.8" transform="translate(-840.766 -1109.277)" fill="#f7a491"/>
          <path id="Trazado_706904" data-name="Trazado 706904" d="M1033.634,1421.963l10.515-1.7s-1.2-2.992-1.624-2.992-7.95,3.263-7.95,3.263l-.6,1.193Z" transform="translate(-892.102 -1224.602)" fill="#f8a492"/>
          <path id="Trazado_706905" data-name="Trazado 706905" d="M983.006,1501.4a34.17,34.17,0,0,0-.621,8.857c.427,3.82.461,17.388.461,17.388l-1.631,21.709,3.87.084s4.589-21.7,4.5-21.142,1.539-15.278,1.539-15.278l-5.471-12.1Z" transform="translate(-846.86 -1296.882)" fill="#184655"/>
          <path id="Trazado_706906" data-name="Trazado 706906" d="M1000.159,1492.068s-.684,4.536.171,6.525,7.332,21.509,7.418,23.1,2.24,19.182,2.24,19.182l4.5-.126.974-19.557-2.039-24.58-1.979-6.215Z" transform="translate(-862.987 -1287.784)" fill="#13375b"/>
          <path id="Trazado_706907" data-name="Trazado 706907" d="M983.135,1328.2a4.06,4.06,0,0,0,2.145.64,7.155,7.155,0,0,0,2.5-1.033l-.2-.685s-2.678-.387-2.745-.346-1.695,1.423-1.695,1.423" transform="translate(-848.517 -1146.415)" fill="#f7a491"/>
          <path id="Trazado_706908" data-name="Trazado 706908" d="M1069.52,1392.7s3.977,3.728,5.772,3.092,2.538-2.813-1.842-6c-3.92-2.849-3.93,2.9-3.93,2.9" transform="translate(-923.074 -1200.186)" fill="#f8a492"/>
          <path id="Trazado_706909" data-name="Trazado 706909" d="M974.258,1349.646c-.591-3.193-4.873-13.13-5.215-14.96-.166-.89-2.476-.91-4.676-.794-2.324.123-4.632.415-4.632.415a7.1,7.1,0,0,0-2.962,1.178c-.905.843-1.146,3.173.156,7.6,1.027,3.491,2.3,5.409,2.93,7.952.128.853.237,1.695.382,2.678.232,3.8,0,8.826,0,8.826s11.2,2.308,15.388-1.194c0,0-.763-8.426-1.368-11.7" transform="translate(-825.118 -1152.524)" fill="#355389"/>
          <path id="Trazado_706910" data-name="Trazado 706910" d="M1031.075,1343.591s-4.394,3.6-4.651,3.6c-.165,0-6.271-4.462-7.68-8.127a3.205,3.205,0,0,1,2.722-4.286c1.294.005,1.869.336,4.434,2.485a32.555,32.555,0,0,1,5.175,6.325" transform="translate(-879.079 -1153.335)" fill="#466eb6"/>
          <path id="Trazado_706911" data-name="Trazado 706911" d="M964.75,624.04c-1.075-.72-2.175-1.4-3.235-2.145a.93.93,0,0,1-.343-.712c.139-1.486.365-2.963.494-4.449a.789.789,0,0,1,.554-.821c1.471-.571,2.927-1.182,4.388-1.78.237-.1.47-.2.879-.378l-2.095-6.689c-1.881.371-3.6.68-5.3,1.06a1.045,1.045,0,0,1-1.312-.487c-.788-1.128-1.735-2.146-2.583-3.234a.841.841,0,0,1-.11-.7c.577-1.485,1.154-2.974,1.821-4.421a.9.9,0,0,0-.466-1.391,4.345,4.345,0,0,1-.652-.506l-3.242-1.732a2.225,2.225,0,0,1-.406-.084c-1.319-.536-1.064-.525-1.813.568-.913,1.332-1.8,2.68-2.583,3.844l-5.858-.544-2.285-5.511A22.63,22.63,0,0,0,933.894,596c.371,1.837.728,3.629,1.1,5.419a.617.617,0,0,1-.27.751c-1.24.922-2.459,1.876-3.632,2.88a.737.737,0,0,1-.919.139c-1.5-.627-3.015-1.219-4.517-1.839a.633.633,0,0,0-.891.22,19.9,19.9,0,0,0-2.779,5.351c-.137.377.045.54.332.725,1.325.856,2.63,1.743,3.961,2.59a.785.785,0,0,1,.424.946c-.265,1.7-.43,3.418-.65,5.266l-5.323,2.178a20.754,20.754,0,0,0,2.04,6.763l5.754-1.175c1.108,1.269,2.107,2.474,3.18,3.611a1,1,0,0,1,.24,1.284c-.632,1.413-1.209,2.851-1.793,4.284-.115.283-.343.613.1.847q2.717,1.425,5.433,2.851c.385.2.628.073.861-.287.867-1.34,1.793-2.644,2.637-4,.326-.523.676-.543,1.222-.47a37.1,37.1,0,0,0,4.065.365.885.885,0,0,1,1,.682c.635,1.661,1.335,3.3,2,4.909a20.218,20.218,0,0,0,6.824-2.109c-.373-1.768-.731-3.56-1.14-5.34a.757.757,0,0,1,.374-.9c1.107-.865,2.152-1.807,3.25-2.684a.934.934,0,0,1,.771-.147c1.34.521,2.661,1.088,3.982,1.656.738.317,1.035.448,1.319.259l3.094-5.715c.007-.465-.314-.685-1.183-1.268m-11.5-2a10.607,10.607,0,0,1-14.317,4.276h0a10.467,10.467,0,0,1-4.3-14.223,10.607,10.607,0,0,1,14.317-4.276h0a10.467,10.467,0,0,1,4.3,14.223Z" transform="translate(-794.653 -513.252)" fill="#06d1d1"/>
          <path id="Trazado_706912" data-name="Trazado 706912" d="M476.076,861.908c-1.738.168-3.471.4-5.212.531a1.269,1.269,0,0,1-.971-.448c-1.139-1.661-2.181-3.388-3.331-5.041a1.058,1.058,0,0,1-.134-1.325c1.034-1.848,2.018-3.723,3.018-5.589.162-.3.314-.611.585-1.142l-7.953-5.158c-1.632,1.989-3.146,3.773-4.583,5.615a1.407,1.407,0,0,1-1.783.612c-1.793-.5-3.655-.749-5.477-1.155a1.145,1.145,0,0,1-.718-.631c-.684-2.035-1.372-4.072-1.929-6.142-.268-.994-.756-1.245-1.685-1.047a5.9,5.9,0,0,1-1.114.031l-4.862.966a2.967,2.967,0,0,1-.494.259c-1.832.568-1.559.363-1.392,2.136.2,2.161.444,4.319.639,6.193L432.127,855l-7.134-3.773a30.121,30.121,0,0,0-5.177,7.874c1.972,1.591,3.891,3.148,5.822,4.69a.831.831,0,0,1,.368,1.01c-.492,2.014-.932,4.044-1.283,6.087a.984.984,0,0,1-.834.928c-2.1.628-4.183,1.3-6.279,1.942-.521.158-.762.376-.736.988a26.718,26.718,0,0,0,1.737,7.925c.183.508.513.522.971.47,2.115-.241,4.237-.432,6.35-.688a1.068,1.068,0,0,1,1.258.621c1.195,1.992,2.506,3.915,3.875,6.021l-3.645,6.8a28.293,28.293,0,0,0,7.961,5.282l4.959-6.125c2.246.373,4.325.773,6.422,1.037a1.354,1.354,0,0,1,1.359,1.128c.565,2.006,1.208,3.99,1.84,5.977.125.393.174.929.838.792q4.051-.837,8.1-1.672c.574-.119.715-.46.646-1.032-.258-2.131-.422-4.274-.716-6.4-.114-.82.233-1.139.863-1.529a49.681,49.681,0,0,0,4.535-3.087,1.2,1.2,0,0,1,1.624-.142c2.094,1.183,4.235,2.285,6.313,3.395a26.914,26.914,0,0,0,5.263-8.008c-1.915-1.518-3.835-3.073-5.8-4.573a1.018,1.018,0,0,1-.394-1.258c.4-1.841.673-3.711,1.056-5.557a1.245,1.245,0,0,1,.673-.809c1.841-.6,3.7-1.139,5.564-1.676,1.041-.3,1.462-.418,1.593-.855l-1.726-8.571c-.394-.489-.917-.444-2.324-.308m-13.667,7.721a14.237,14.237,0,1,1-16.757-11.1,14.15,14.15,0,0,1,16.757,11.1" transform="translate(-359.787 -726.652)" fill="#03a4a4"/>
          <g id="Grupo_1016692" data-name="Grupo 1016692" transform="translate(86.16 74.879)" opacity="0.2">
            <g id="Grupo_1016691" data-name="Grupo 1016691">
              <g id="Grupo_1016690" data-name="Grupo 1016690" clip-path="url(#clip-path-4)">
                <path id="Trazado_706913" data-name="Trazado 706913" d="M655.738,567.138c-.7-.328-1.405-.633-2.095-.975a.554.554,0,0,1-.266-.389c-.052-.886-.052-1.775-.109-2.66a.468.468,0,0,1,.252-.532c.814-.466,1.615-.955,2.42-1.435.131-.078.258-.161.483-.3l-1.832-3.747c-1.073.385-2.053.719-3.019,1.092a.622.622,0,0,1-.815-.17c-.565-.593-1.213-1.108-1.809-1.673a.5.5,0,0,1-.128-.4c.206-.924.411-1.851.673-2.761.126-.437,0-.642-.4-.776a2.617,2.617,0,0,1-.429-.24l-2.062-.731a1.317,1.317,0,0,1-.246-.013c-.823-.2-.673-.214-1.015.495-.417.864-.819,1.735-1.174,2.489l-3.493.2-1.839-3.038a13.427,13.427,0,0,0-3.76,1.814c.383,1.047.754,2.069,1.132,3.089a.366.366,0,0,1-.091.466c-.647.652-1.277,1.321-1.877,2.015a.438.438,0,0,1-.528.163c-.938-.236-1.882-.449-2.821-.681a.376.376,0,0,0-.5.208,11.813,11.813,0,0,0-1.154,3.392c-.047.234.075.314.26.4.856.386,1.7.792,2.561,1.172a.468.468,0,0,1,.334.519c0,1.024.054,2.048.091,3.154l-2.935,1.753a12.364,12.364,0,0,0,1.807,3.8l3.277-1.2c.765.648,1.461,1.268,2.194,1.841a.593.593,0,0,1,.257.734c-.245.887-.455,1.783-.67,2.678-.042.177-.146.391.136.489l3.45,1.195c.245.085.376-.013.48-.245.389-.865.817-1.713,1.191-2.584.144-.336.349-.379.676-.384a22.08,22.08,0,0,0,2.423-.146.528.528,0,0,1,.648.312c.522.92,1.081,1.82,1.614,2.709a12,12,0,0,0,3.823-1.845c-.378-1.006-.75-2.028-1.15-3.039a.449.449,0,0,1,.139-.565c.573-.607,1.1-1.253,1.67-1.866a.555.555,0,0,1,.44-.155c.834.188,1.662.4,2.49.621.463.121.649.172.8.035l1.306-3.634c-.038-.274-.246-.375-.809-.641m-6.939-.16a6.3,6.3,0,0,1-8.034,3.783,6.235,6.235,0,0,1-3.808-7.981h0A6.3,6.3,0,0,1,644.991,559a6.235,6.235,0,0,1,3.808,7.981" transform="translate(-629.225 -551.31)" fill="#abffff"/>
              </g>
            </g>
          </g>
          <path id="Trazado_706914" data-name="Trazado 706914" d="M728.991,1732.978l-2.069-.008c.273-8.969.514-22.59.057-23.354a.337.337,0,0,0,.138.1l1.679-.435c.271.136.435.217.492,4.032.029,1.963.018,4.673-.033,8.056-.087,5.759-.262,11.549-.264,11.607" transform="translate(-627.385 -1476.898)" fill="#355389"/>
          <path id="Trazado_706915" data-name="Trazado 706915" d="M690.977,1882.685H677.018a1.16,1.16,0,0,0-1.164,1.157.2.2,0,0,0,.2.2h15.88a.2.2,0,0,0,.2-.2,1.16,1.16,0,0,0-1.164-1.157" transform="translate(-583.309 -1626.714)" fill="#355389"/>
          <path id="Trazado_706916" data-name="Trazado 706916" d="M723.831,1874.3h-1.71a.91.91,0,1,0,0,1.82h1.71a.91.91,0,1,0,0-1.82" transform="translate(-622.451 -1619.468)" fill="#355389"/>
          <rect id="Rectángulo_349723" data-name="Rectángulo 349723" width="0.826" height="40.886" transform="translate(51.062 216.418)" fill="#13375b"/>
          <path id="Trazado_706917" data-name="Trazado 706917" d="M682.881,1377.39a10.941,10.941,0,0,1,1.012-5.3,4.532,4.532,0,0,1,4.035-2.283c5.045-.006,5.686,6.615,8.9,9.169.981.78,2.078,1.416,3.007,2.258,3.429,3.108,1.884,8.861-1.264,11.586-2.185,1.891-5.618,2.965-8.311,1.487a8.435,8.435,0,0,1-3.233-3.459,47.1,47.1,0,0,1-2.542-6.421,23.833,23.833,0,0,1-1.6-7.033" transform="translate(-589.363 -1183.593)" fill="#13375b"/>
          <path id="Trazado_706918" data-name="Trazado 706918" d="M561.944,1500.338l10.978-3.041s2.313-3.087,5.289-7.227c.973.957,1.513,2.426,2.493,3.373l-7.267,7.985a1.391,1.391,0,0,1-1.025.454l-10.088.033-3.452.274V1500Z" transform="translate(-482.345 -1287.503)" fill="#f48c7f"/>
          <path id="Trazado_706919" data-name="Trazado 706919" d="M673.645,1488.784a48.018,48.018,0,0,0,4.737-5.505c.969-1.667-.66-.582-2.325-1.021-.63-.166-.471-3.836-1.663-2.643a54.5,54.5,0,0,0-4.413,5.38Z" transform="translate(-578.241 -1278.263)" fill="#03a4a4"/>
          <path id="Trazado_706920" data-name="Trazado 706920" d="M694.116,1467.66s3.381-.663,4.924.618-.331,12.667-.329,14.554a62.778,62.778,0,0,0,1.06,7.22s-10.248,1.782-11.876-1.051c0,0-.463-10.8-.394-12.153a37.452,37.452,0,0,1,2.008-7.5c.42-.594,4.607-1.684,4.607-1.684" transform="translate(-593.355 -1267.991)" fill="#06d1d1"/>
          <path id="Trazado_706921" data-name="Trazado 706921" d="M716.627,1430.067s.018.1.05.271a25.69,25.69,0,0,0,1.143,4.287c.482.9-1.651,3.785-3.7,3.434-.611-.1.517-2.648.462-2.917-.1-.516-.244-1.219-.388-1.941l-.241-1.207c-.22-1.1-.4-2-.4-2Z" transform="translate(-615.845 -1235.595)" fill="#f7a491"/>
          <path id="Trazado_706922" data-name="Trazado 706922" d="M716.677,1430.338c-.032-.171-.05-.271-.05-.271l-3.076-.076s.179.9.4,2c.077.386.159.8.239,1.2a2.891,2.891,0,0,0,1.469-.73,3.847,3.847,0,0,0,1.113-1.64c-.038-.193-.07-.359-.093-.486" transform="translate(-615.845 -1235.595)" fill="#f47458"/>
          <path id="Trazado_706923" data-name="Trazado 706923" d="M702.048,1379.536a2.786,2.786,0,0,1,2.359,1c.909,1.165,1.888,4.769-.369,6.728s-4.488-.259-4.819-2.61-.459-5.2,2.83-5.118" transform="translate(-603.336 -1191.996)" fill="#f7a491"/>
          <path id="Trazado_706924" data-name="Trazado 706924" d="M694.139,1408.8c.269.519.722.807,1.01.642s.3-.719.034-1.239-.722-.807-1.01-.642-.3.719-.034,1.238" transform="translate(-598.925 -1216.173)" fill="#f7a491"/>
          <path id="Trazado_706925" data-name="Trazado 706925" d="M719.711,1376.525s1.937,3.427,3.323,3.585,1.568,1.979,1.568,1.979-.5-4.2-1.867-5.005a5.134,5.134,0,0,0-3.023-.56" transform="translate(-621.161 -1189.37)" fill="#13375b"/>
          <path id="Trazado_706926" data-name="Trazado 706926" d="M741.142,1403.3c-.113.609.114,1.167.506,1.247s.8-.349.914-.957-.114-1.167-.506-1.247-.8.349-.914.957" transform="translate(-639.633 -1211.702)" fill="#f7a491"/>
          <path id="Trazado_706927" data-name="Trazado 706927" d="M646.116,1809.739a47.729,47.729,0,0,1,3.131,4.028c.021.323-.123,3.841-.493,4.164s-1.457.551-1.107.914c.264.274,2.3.216,3.642.142.393-.021.886-3.137,1.042-3.595.226-.665.776-2.163.57-2.626a3.911,3.911,0,0,0-1.255-1.123,36.9,36.9,0,0,1-3.426-4.21Z" transform="translate(-557.643 -1561.697)" fill="#f48c7f"/>
          <path id="Trazado_706928" data-name="Trazado 706928" d="M658.523,1838.225s-2.089,5.843-2.906,6.124c-.217.075-1.259.265-1.455.723a1.963,1.963,0,0,0,0,.6h4.354s.551-2.574.768-3.705a16.724,16.724,0,0,0,1.024-3.015,6.7,6.7,0,0,0-1.785-.725" transform="translate(-564.564 -1588.301)" fill="#8d0a0a"/>
          <path id="Trazado_706929" data-name="Trazado 706929" d="M442.158,1826.176s-2.54,3.553-2.317,4.677c.12.6.653,1.389.347,1.956a1.528,1.528,0,0,1-.655.708l-7.924.127c-.432.007-.147-.268.2-.522a15.99,15.99,0,0,1,2.849-1.563c.119-.057.551-.329.707-.423a5.467,5.467,0,0,0,1.134-.993c.569-.628,3.071-5.745,3.071-5.745Z" transform="translate(-372.318 -1576.353)" fill="#f7a491"/>
          <path id="Trazado_706930" data-name="Trazado 706930" d="M431.77,1872.816a7.231,7.231,0,0,0,4.511-.176,3.583,3.583,0,0,1,.363,1.87c-.192.556-.466.682-.708.688-1.914.05-7.012.118-8.471.137a.236.236,0,0,1-.185-.389,38.467,38.467,0,0,1,4.491-2.13" transform="translate(-368.721 -1618.035)" fill="#8d0a0a"/>
          <path id="Trazado_706931" data-name="Trazado 706931" d="M550.109,1632.2a56.494,56.494,0,0,0,3.948,4.131c.8.565,8.5,14.649,8.5,14.649l-2.743,1.989s-6.881-8.523-10.113-13.082c-2.732-3.855-1.726-3.61-3.333-5.957a3.12,3.12,0,0,1,.483-4.087q.218-.2.474-.408c2.378-1.969,18.682-4.186,18.682-4.186l10.428,1.014s-8.52,5.935-8.838,6.093-11.766,1.817-12,1.817-5.485-1.974-5.485-1.974" transform="translate(-471.08 -1404.291)" fill="#8d0a0a"/>
          <path id="Trazado_706932" data-name="Trazado 706932" d="M520.84,1630.922s1.789,5.331-.894,7.819-18.622,2.211-23.869,2.211c0,0-2.146,5.844-2.385,6.792s-10.653,13.189-10.653,13.189l-2.862-1.817s11.209-21.639,12.084-22.587,13.356-4.739,16.456-5.607,12.123,0,12.123,0" transform="translate(-414.425 -1408.861)" fill="#b20d0d"/>
          <path id="Trazado_706933" data-name="Trazado 706933" d="M606.32,1497.649l9.518-2.092s3.443-4.394,6.748-8.175c.973.957,1.514,2.426,2.493,3.374l-7.267,7.985a1.393,1.393,0,0,1-1.025.454l-10.088.033-3.452.274v-2.195Z" transform="translate(-520.644 -1285.179)" fill="#f7a491"/>
          <path id="Trazado_706934" data-name="Trazado 706934" d="M718.02,1479.634a47.993,47.993,0,0,0,4.737-5.505c.97-1.667.25-4.461-1.414-4.9s-6.986,6.615-6.986,6.615Z" transform="translate(-616.54 -1269.479)" fill="#03a4a4"/>
          <path id="Trazado_706935" data-name="Trazado 706935" d="M476.411,1483.733h15.7a1.023,1.023,0,0,1,.947.631l4.834,11.711h8.654a.435.435,0,1,1,0,.87H481.913a1.72,1.72,0,0,1-1.569-1.008l-4.867-10.771a1.017,1.017,0,0,1,.934-1.433" transform="translate(-410.289 -1282.027)" fill="#8d0a0a"/>
          <path id="Trazado_706936" data-name="Trazado 706936" d="M544.46,1526.668a.863.863,0,1,0,.648-1.119.922.922,0,0,0-.648,1.119" transform="translate(-469.887 -1318.142)" fill="#fff"/>
          <path id="Trazado_706937" data-name="Trazado 706937" d="M413.129,1582.845h-46.9a.988.988,0,1,1,0-1.975h46.9a.988.988,0,1,1,0,1.975" transform="translate(-315.22 -1365.951)" fill="#184655"/>
          <path id="Trazado_706938" data-name="Trazado 706938" d="M714.524,1426.186l2.127-.109a.927.927,0,0,1-.941.88c-1.139.091-1.186-.771-1.186-.771" transform="translate(-616.685 -1232.213)" fill="#fff"/>
          <path id="Trazado_706939" data-name="Trazado 706939" d="M658.056,1643.767l.96-3.972a6.476,6.476,0,0,1,6.022-4.914l12.165-.489.376-1.23-12.59.505a7.7,7.7,0,0,0-7.161,5.844l-1.021,4.221c.346.015.767.026,1.249.035" transform="translate(-566.87 -1411.131)" fill="#355389"/>
          <path id="Trazado_706940" data-name="Trazado 706940" d="M655.284,1547.06s-16.714.284-18.456,0-2.5,1.886-1.977,3.023,1.951,1.576,4.057,1.679,19.635.594,20.129.129c.4-.38,5.718-18.427,7.651-25.027a2.507,2.507,0,0,0-4.809-1.417Z" transform="translate(-547.781 -1316.538)" fill="#184655"/>
          <rect id="Rectángulo_349724" data-name="Rectángulo 349724" width="0.826" height="40.886" transform="translate(97.086 216.418)" fill="#13375b"/>
          <rect id="Rectángulo_349725" data-name="Rectángulo 349725" width="46.644" height="0.44" transform="translate(51.062 219.064)" fill="#13375b"/>
          <path id="Trazado_706941" data-name="Trazado 706941" d="M1597.828,145.525s6.06,3.9,21,3.366c0,0-16.008,6.005-22.268,6.934l-2.576-10.107Z" transform="translate(-1375.725 -125.84)" fill="#b20d0d"/>
          <path id="Trazado_706942" data-name="Trazado 706942" d="M1608.46,166.4a15.337,15.337,0,0,1-4.128,5.211l-1.342-5.267.087-2.548Z" transform="translate(-1383.5 -141.629)" fill="#8d0a0a"/>
          <path id="Trazado_706943" data-name="Trazado 706943" d="M1474.717,99.446s17.5-1.175,20.221-.182l2.813,11.037a55.555,55.555,0,0,0-19.664,2.365Z" transform="translate(-1272.792 -85.527)" fill="#b20d0d"/>
          <path id="Trazado_706944" data-name="Trazado 706944" d="M1360.7,992.518s-.843,1.367-.767,1.772,1.09,4.69,1.649,4.974,1.973.228,1.656.785c-.24.421-2.768.98-4.455,1.307-.492.1-2.082-3.6-2.419-4.117-.489-.751-1.64-2.431-1.531-3.067a4.953,4.953,0,0,1,1.2-1.777,7.789,7.789,0,0,0,1.254-2.248Z" transform="translate(-1169.315 -855.576)" fill="#f48c7f"/>
          <path id="Trazado_706945" data-name="Trazado 706945" d="M1485.353,998.04s-.285,3.064-.285,3.072c.039.464.026,1.639.129,2.044.388,1.521,6.578-3.029,4.858-3.314a1.682,1.682,0,0,1-.9-.909,3.652,3.652,0,0,1,.123-1.945Z" transform="translate(-1281.726 -861.488)" fill="#f7a491"/>
          <path id="Trazado_706946" data-name="Trazado 706946" d="M1405.189,599.723s1.789,4.914,1.807,4.989c2.078,8.155,7.765,23.674,7.846,25.285.2,3.929-3.065,25.049-3.065,25.049l-4.524.583-.1-24.278-4.449-8.663-7.611-17.422Z" transform="translate(-1204.071 -518.258)" fill="#03a4a4"/>
          <path id="Trazado_706947" data-name="Trazado 706947" d="M1366.036,614.961l.385,4.987,2.757,20.23-3.687,21.378s1.921,2.493,3.8,2.437l8.636-23.168,2.054-27.383-1.728-5.534Z" transform="translate(-1178.52 -525.331)" fill="#06d1d1"/>
          <path id="Trazado_706948" data-name="Trazado 706948" d="M1351.487,1006.373s4.42,6.569,5.519,6.663c.292.025,1.639-.064,2.026.44a6.071,6.071,0,0,1,.363.913l-5.546,1.585s-1.5-3.415-2.124-4.745c0,0-2.294-3.056-2.215-3.406s1.976-1.451,1.976-1.451" transform="translate(-1164.727 -869.597)" fill="#13375b"/>
          <path id="Trazado_706949" data-name="Trazado 706949" d="M1484,1022l.169-2.86a7.131,7.131,0,0,0,2.64-.045c.8-.325,2.3-1.2,2.3-1.2,3.592.25,6.441.093,6.17,1.089Z" transform="translate(-1280.806 -879.551)" fill="#13375b"/>
          <path id="Trazado_706950" data-name="Trazado 706950" d="M1546.681,445.964l2.392,1.823c.461-.353,1.469-1.839,2.121-2.3l-2.185-2.368a.626.626,0,0,1-.255-.567,1.964,1.964,0,0,1,.06-.365c.068-.187.129-.41.2-.6s-.383-.563-.62-.63-.315.836-.418,1.1a29.12,29.12,0,0,0-.755,3.392Z" transform="translate(-1334.902 -381.084)" fill="#f48c7f"/>
          <path id="Trazado_706951" data-name="Trazado 706951" d="M1404.689,477.731c-.672-.712-1.62-1.111-2.323-1.851l-10.613,7.26s-8.2-9.639-12.66-6.224a73.476,73.476,0,0,0,5.51,7.876c2.725,3.352,6.885,4.951,7.7,4.581.915-.417,12.15-11.356,12.388-11.642" transform="translate(-1190.26 -411.26)" fill="#13375b"/>
          <path id="Trazado_706952" data-name="Trazado 706952" d="M1224.476,271.306c.351.929.958,2.391.958,2.391.017.42.1,2.165.215,4.3l2.986-1.625a33.647,33.647,0,0,1-.344-3.68c.1-.193.323.006,1.118-1.477a2.671,2.671,0,0,0,.2-1.14s-.049-.875-.255-.932a.411.411,0,0,0-.468.258c-.053.159.008.506-.045.664a1.1,1.1,0,0,1-.677.407,11.616,11.616,0,0,1-.289-2.57s.018-.738.043-.982c.021-.208.135-.824.135-.824s.113-.887-.164-.921c-.163-.02-.482.728-.669,1.5a15.019,15.019,0,0,1-.354,1.7c-.2,0-.268-1.418-.268-1.418a4.505,4.505,0,0,0,.079-.969c.143-.394.184-1.1-.154-1.116a5.732,5.732,0,0,0-.394.925s-.1.637-.162.937a17.024,17.024,0,0,0-.093,1.7c-.041.3-.125.191-.155.207a7.351,7.351,0,0,1-.049-.963,5.63,5.63,0,0,1-.042-.934,6.751,6.751,0,0,0,.015-.993c-.035-.732-.485-.6-.563.08-.03.26-.06.543-.089.831-.115,1.117.02,2.164-.1,2.187a7.9,7.9,0,0,1-.283-1.89s-.364-1.028-.478-.02a8.557,8.557,0,0,0,.017,2.134,8.25,8.25,0,0,0,.328,2.221" transform="translate(-1056.466 -228.964)" fill="#f8a492"/>
          <path id="Trazado_706953" data-name="Trazado 706953" d="M1333.61,374.263a1.736,1.736,0,0,0-2.838.708,1.291,1.291,0,0,0-1.632.634s-1.853-.32-1.964,2.388a.9.9,0,0,0-.93,1.039,2.7,2.7,0,0,0,.655,1.759,1.305,1.305,0,0,0-.113,1.418,1.252,1.252,0,0,0,1.026.87s.365,1.409,1.043,1.765a2.065,2.065,0,0,0,1.5.047.97.97,0,0,0,1.041.592c.721-.157,1.539-.955,2.393-.743a8.834,8.834,0,0,0,2.932-.37,2.953,2.953,0,0,0,1.245-3.667,1.771,1.771,0,0,0-.144-2.485,3.084,3.084,0,0,0-1.189-3.252,4.173,4.173,0,0,0-3.027-.7" transform="translate(-1144.649 -323.042)" fill="#f47458"/>
          <path id="Trazado_706954" data-name="Trazado 706954" d="M1363.307,477.378l-3.665-1.873s-3.256.472-3.66.521-1.164,15.118-1.229,20.763.63,6.559.63,6.559a36.343,36.343,0,0,0,9.086-.263,29.607,29.607,0,0,0,8.142-3.5s-4.7-10.268-5.776-13.52-3.528-8.691-3.528-8.691" transform="translate(-1169.25 -410.936)" fill="#f7cc7f"/>
          <path id="Trazado_706955" data-name="Trazado 706955" d="M1245.687,350.274l-12.038-9.559s-2.743-10.078-2.9-10.452-2.837-.252-3.922-.227c-.348.008,1.511,10.9,2.248,12.679.87,2.1,10.175,11.011,10.175,11.011s2.1,5.181,2.233,9.151c.214,6.594-.259,15.757.056,16,1.874.88,8.573.194,8.913-.534,3.761-8.036-4.77-28.073-4.77-28.073" transform="translate(-1058.81 -285.223)" fill="#13375b"/>
          <path id="Trazado_706956" data-name="Trazado 706956" d="M1365.7,442.2l.549,2.1s1.022,2.992.26,3.684-4-3.323-4-3.323l-.371-5.434Z" transform="translate(-1175.63 -379.592)" fill="#f7a491"/>
          <path id="Trazado_706957" data-name="Trazado 706957" d="M1362.262,440.987a6.207,6.207,0,0,0,3.907,2.993l-.465-1.777-3.562-2.977Z" transform="translate(-1175.63 -379.592)" fill="#f47458"/>
          <path id="Trazado_706958" data-name="Trazado 706958" d="M1326.389,405.87c.1.822.652,1.433,1.233,1.363s.97-.793.87-1.616-.652-1.432-1.233-1.363-.97.793-.87,1.615" transform="translate(-1144.759 -349.372)" fill="#f47458"/>
          <path id="Trazado_706959" data-name="Trazado 706959" d="M1346.653,383.346c.058.473.677.787,1.383.7s1.233-.537,1.175-1.01-.677-.787-1.383-.7-1.233.537-1.175,1.01" transform="translate(-1162.258 -330.429)" fill="#f47458"/>
          <path id="Trazado_706960" data-name="Trazado 706960" d="M1356.712,394.009a2.892,2.892,0,0,1,4.028,1.818,21.582,21.582,0,0,1,.566,2.706c.349,2.483-.653,5.062-1.791,5.2a5.4,5.4,0,0,1-5.022-4.616,4.733,4.733,0,0,1,2.22-5.107" transform="translate(-1168.966 -340.279)" fill="#f7a491"/>
          <path id="Trazado_706961" data-name="Trazado 706961" d="M1350.945,428.953a.84.84,0,1,1-.939-.9.924.924,0,0,1,.939.9" transform="translate(-1164.546 -369.938)" fill="#f7a491"/>
          <path id="Trazado_706962" data-name="Trazado 706962" d="M1383.493,378.953c1.288.783,1.871,2.139,1.3,3.028s-2.073.974-3.361.191-1.871-2.139-1.3-3.028,2.074-.974,3.361-.191" transform="translate(-1190.969 -327.054)" fill="#f47458"/>
          <path id="Trazado_706963" data-name="Trazado 706963" d="M1370.51,386.783c.049.4-.4.787-1,.859s-1.131-.195-1.18-.6.4-.787,1-.859,1.131.195,1.18.6" transform="translate(-1180.966 -333.757)" fill="#f47458"/>
          <path id="Trazado_706964" data-name="Trazado 706964" d="M1398.966,405.243a.938.938,0,1,1-1.045-.824.938.938,0,0,1,1.045.824" transform="translate(-1205.799 -349.514)" fill="#f47458"/>
          <path id="Trazado_706965" data-name="Trazado 706965" d="M1398.658,480.5s5.089,11.949,6.9,16.16c.2.456,1.18,3.434,1.216,3.731.08.66-2.708,1.845-3.058,1.836-.312-.007-4.409-12.626-6.789-18.756a18.2,18.2,0,0,0-3.49-5.643l-1.156-.948-.112-.355s5.167.457,6.49,3.975" transform="translate(-1201.545 -411.817)" fill="#13375b"/>
          <path id="Trazado_706975" data-name="Trazado 706975" d="M0,0H.941l.132,83.977H.132Z" transform="translate(200.939 11.954) rotate(-14.208)" fill="#13375b"/>
          <path id="Trazado_706966" data-name="Trazado 706966" d="M1562.85,450.164a2.825,2.825,0,0,0-.166-.548,1.556,1.556,0,0,0-.316-.5.951.951,0,0,1-.161-.332.575.575,0,0,0-.071-.132l0,0a1.336,1.336,0,0,0-.313-.3,1.4,1.4,0,0,1-.337-.364,1.012,1.012,0,0,0-.379-.332c-.151-.073-.267-.075-.321.017-.25.427-1.5,1.79-.995,2.449a15.827,15.827,0,0,1,1.091,1.386c.157.358.707.333,1.036.208a1.244,1.244,0,0,0,.934-1.549" transform="translate(-1346.112 -386.826)" fill="#f7a491"/>
          <rect id="Rectángulo_349727" data-name="Rectángulo 349727" width="266.44" height="0.939" transform="translate(20.955 256.979)" fill="#184655"/>
          <path id="Trazado_706967" data-name="Trazado 706967" d="M1441.717,340.425a.2.2,0,0,1,.3-.046c.132.136.266.27.4.4.295.3.3.318.341.311.106-.016.109-.205.1-.275a2.238,2.238,0,0,1-.043-.463.342.342,0,0,1,.574-.257c.231.187.453.389.673.591.017-.333.026-.666.048-1a.133.133,0,0,1,.221-.1l1.017.79c.052.04.272.257.335.218s.053-.268.059-.319c.032-.285.047-.385.171-1.311a.156.156,0,0,1,.258-.076c.716.851.824.762.889,1.017a.073.073,0,0,1-.086.09c-.137-.014-.169-.027-.527-.37q-.139-.133-.271-.273c-.129,1.126-.135,1.413-.418,1.5-.2.059-.23,0-1.382-.9,0,.35-.021.7-.037,1.048a.151.151,0,0,1-.252.111c-.825-.675-.819-.725-.908-.765,0,0,0-.061-.015.026-.025.148.117.468.013.736a.456.456,0,0,1-.6.293c-.146-.071-.186-.143-.627-.564a3.908,3.908,0,0,1-.5.776.609.609,0,0,1-.295.217.161.161,0,0,1-.2-.189c.1-.317.389-.393.761-1.221" transform="translate(-1243.647 -292.871)" fill="#f47458"/>
          <path id="Trazado_706968" data-name="Trazado 706968" d="M1412.255,301.258a5.326,5.326,0,0,0,.938.08c.062,0,.177.013.217-.049.1-.148-.156-.377-.269-.956-.049-.251-.172-.766.167-.868a1.911,1.911,0,0,1,.57-.007c.136,0,.272,0,.408,0-.243-.941-.3-.888-.2-1.1a.12.12,0,0,1,.162-.047c.19.126.135.1.453,1.283a.185.185,0,0,1-.171.235c-.184,0-1.016-.071-1.12-.063.006.01,0,.054,0,.064a3.021,3.021,0,0,0,.277,1.079c.113.293.106.687-.269.77a3.715,3.715,0,0,1-.941-.021c.169.573.343,1.145.508,1.719a.2.2,0,0,1-.189.259c-.372-.033-.744-.054-1.117-.072a3.427,3.427,0,0,0,.459.948c.148.215-.156.477-.492-.09a3.316,3.316,0,0,1-.427-1.015.2.2,0,0,1,.189-.26c.369.007.739.03,1.108.061-.162-.573-.317-1.148-.479-1.721a.189.189,0,0,1,.222-.234" transform="translate(-1217.979 -257.835)" fill="#66ccb2"/>
          <path id="Trazado_706969" data-name="Trazado 706969" d="M1354.037,284.915a.19.19,0,0,1-.189-.177,4.343,4.343,0,0,1,0-1.5c.053-.262.437-.163.4.093a5.294,5.294,0,0,0-.055,1.223,4.137,4.137,0,0,0,.888-.112.2.2,0,0,1,.248.178c-.02.324-.131,1.55-.144,1.561a.062.062,0,0,1,.032,0c.128.026.571-.065.771-.053.225.014.3.317.308.5.023.372-.256.78-.125,1.144s.679-.035,1.092.25c.318.22.208.591.077,1.176a.451.451,0,0,1-.208.354.1.1,0,0,1-.115-.013c-.157-.178-.076-.389.029-.925.014-.068.057-.183.009-.244-.16-.2-.627.086-1.005-.158a.854.854,0,0,1-.289-.882c.038-.248.191-.553.111-.807-.214.011-.431.028-.644.023a.368.368,0,0,1-.4-.365,6.443,6.443,0,0,1,.052-.8c.014-.176.027-.352.042-.528a4.661,4.661,0,0,1-.884.058" transform="translate(-1168.414 -244.685)" fill="#07345a"/>
          <path id="Trazado_706970" data-name="Trazado 706970" d="M1456.966,386.563c.892,1.135.052,1.686-.322,1.357a.31.31,0,0,1,.02-.5c.086-.055.224.032.189.136-.029.086.069.109.11.018.055-.123-.033-.276-.088-.385-.127-.253-.288-.582-.6-.631-.468-.073-.975.391-.719,1.1a1.267,1.267,0,0,0,2.343-.06,1.521,1.521,0,0,0-.546-1.589c-.093-.072.021-.2.115-.155a1.519,1.519,0,0,1,.7,1.911,1.559,1.559,0,0,1-1.752.922,1.474,1.474,0,0,1-1.279-1.581,1.02,1.02,0,0,1,1.825-.538" transform="translate(-1255.886 -333.469)" fill="#3c8f7c"/>
          <path id="Trazado_706971" data-name="Trazado 706971" d="M1325.1,319.466c.123.185.193.562-.059.679a.207.207,0,0,1-.3-.115c-.04-.132.033-.252-.086-.356a.278.278,0,0,0-.349.037c-.291.235-.215.751-.064,1.043a.7.7,0,0,0,1.223.07,1.567,1.567,0,0,0,.173-.505c.025-.1.179-.139.229-.036a.933.933,0,0,1-.417,1.1,1.127,1.127,0,0,1-1.21-.018,1.434,1.434,0,0,1-.565-1.233c.033-.952,1.025-1.263,1.425-.665" transform="translate(-1142.427 -275.858)" fill="#f7cc7f"/>
          <path id="Trazado_706972" data-name="Trazado 706972" d="M1003.649,1292.02a.934.934,0,0,0,1.263.271c1.023-.506.615-1.268.615-1.268Z" transform="translate(-866.222 -1115.529)" fill="#fff"/>
          <path id="Trazado_706973" data-name="Trazado 706973" d="M1381.967,446.21a.928.928,0,0,0,1.021.788c1.142-.016,1.107-.879,1.107-.879Z" transform="translate(-1192.741 -385.547)" fill="#fff"/>
        </g>
      </g>
    </g>
  </g>
</svg>
