<svg xmlns="http://www.w3.org/2000/svg" xmlns:xlink="http://www.w3.org/1999/xlink" width="115.443" height="115.443" viewBox="0 0 115.443 115.443">
  <defs>
    <clipPath id="clip-path">
      <rect id="Rectángulo_340250" data-name="Rectángulo 340250" width="95.103" height="92.802" fill="none"/>
    </clipPath>
  </defs>
  <g id="Grupo_1017189" data-name="Grupo 1017189" transform="translate(-395 -1337)">
    <path id="Trazado_700600" data-name="Trazado 700600" d="M57.722,0a57.814,57.814,0,0,1,49.511,28.032A57.728,57.728,0,1,1,57.722,0Z" transform="translate(395 1337)" fill="#ffe8ce"/>
    <g id="Grupo_974337" data-name="Grupo 974337" transform="translate(405.17 1355.691)">
      <g id="Grupo_974336" data-name="Grupo 974336" clip-path="url(#clip-path)">
        <path id="Trazado_700631" data-name="Trazado 700631" d="M33.148,8.2c.144.185.341.075.514.086a6.66,6.66,0,0,1,1.14.08,1.263,1.263,0,0,1,1.066,1.247c.026,1,.048,1.057,1.006.7a28.485,28.485,0,0,1,4.555-1.164,28.925,28.925,0,0,1,4.266-.6c1.473-.068,2.946-.207,4.419-.14,1.536.071,3.067.2,4.6.417a48.872,48.872,0,0,1,7.365,1.724c.854.261,1.682.631,2.52.95.778.3,1.482.718,2.227,1.066.2.092.267.047.266-.169q-.008-2.757-.009-5.514c0-.835.041-1.672-.015-2.5a9.9,9.9,0,0,1,.07-1.668A2.3,2.3,0,0,1,68.993.777,4.964,4.964,0,0,1,69.868.7C77.337.691,84.806.7,92.276.679a2.6,2.6,0,0,1,2.21.929,2.964,2.964,0,0,1,.6,1.863c.025,2.549.018,5.1.007,7.649A1.549,1.549,0,0,1,93.64,12.85a1.608,1.608,0,0,1-.312-.064,1.544,1.544,0,0,1-1.011-1.557c0-2.442-.01-4.884-.008-7.326,0-.29-.041-.447-.4-.443-1.825.018-3.65.015-5.476.006-.323,0-.414.1-.412.432q.025,3.64.006,7.28a2.369,2.369,0,0,1-2.515,2.546q-2.413.039-4.826.005a2.376,2.376,0,0,1-2.565-2.314l.012-.028-.018-.025c0-.325.006-.649.006-.973q-.009-3.2-.021-6.4l.018-.027-.02-.025.018-.224c.026-.058.05-.116-.039-.143a1.617,1.617,0,0,0-.671-.11c-1.686.008-3.372.019-5.058,0-.39,0-.521.065-.52.5q.025,10.595.012,21.19a1.869,1.869,0,0,0,.019.414c.066.284.181.5.555.44a9.87,9.87,0,0,1,1.28-.095c.789-.014,1.578,0,2.367,0l17.586.009c.663,0,.666,0,.667-.648,0-2.226,0-4.451,0-6.677,0-1.066.3-1.444,1.315-1.7,1.231.246,1.429.773,1.446,1.906.036,2.349.02,4.7.007,7.047a2.6,2.6,0,0,1-1.794,2.772,1.182,1.182,0,0,1-.392.067q-3.317-.005-6.634-.015c-.649,0-1.3.006-1.947-.01-.33-.008-.277.1-.157.318a39.6,39.6,0,0,1,2.366,4.979q.763,2,1.333,4.067c.4,1.46.723,2.938.983,4.424.167.953.244,1.929.331,2.9a39.415,39.415,0,0,1,.135,4.38,36.294,36.294,0,0,1-.418,4.551,27.8,27.8,0,0,1-.573,3.073.367.367,0,0,0,.083.342,12.81,12.81,0,0,1,2.083,3.682,9.042,9.042,0,0,1,.414,1.8,21,21,0,0,1,.285,3.247A13.277,13.277,0,0,1,90.632,70a9.642,9.642,0,0,1-2.461,4.312c-.107.106-.236.173.043.3A10.507,10.507,0,0,1,90.9,76.47a9.708,9.708,0,0,1,2.362,3.252,12.135,12.135,0,0,1,1.013,3.726c.228,2.249.078,4.5.117,6.747a2.365,2.365,0,0,1-2.6,2.568q-11.646.054-23.293.011a2.273,2.273,0,0,1-2.479-2.205c-.15-1.46-.023-2.934-.057-4.4,0-.159.08-.343-.084-.476.062.038.1.023.1-.051s-.044-.087-.1-.047c.1-.067.092-.164.074-.264.129-.084.028-.162-.029-.192-.091-.047-.137.006-.106.108a11.312,11.312,0,0,0-1.981.761c-1.408.519-2.835.979-4.277,1.391-1.339.383-2.71.632-4.073.909-.826.168-1.683.183-2.52.3a30.211,30.211,0,0,1-5.845.149,11.663,11.663,0,0,1-2.861-.283,9.041,9.041,0,0,0-1.445-.141,24.641,24.641,0,0,1-2.541-.5c-.775-.174-1.534-.419-2.3-.617-1.2-.309-2.363-.755-3.541-1.142-.1-.032-.245-.055-.265-.217-.027-.21-.113-.195-.312-.142-.337.09-.579-.223-.873-.337-.46-.179-.478-.178-.474.331.01,1.53.051,3.06.015,4.589a2.461,2.461,0,0,1-2.96,2.445,4.893,4.893,0,0,0-.6.034q-11.877,0-23.754,0c-.834,0-1.672.049-2.5-.015A2.4,2.4,0,0,1,.833,91.95a2.2,2.2,0,0,1-.519-1.358C.32,88.63.339,86.668.32,84.706c-.01-1.026.273-1.6,1.386-1.85,1.17.409,1.388.722,1.388,2,0,1.561.006,3.123-.013,4.684,0,.294.117.509.348.562.11.025.309-.127.5-.126,1.423,0,2.847-.015,4.27.014.406.009.483-.115.482-.491-.014-3.525-.009-7.049-.007-10.574a4.037,4.037,0,0,1,.044-.738A2.541,2.541,0,0,1,11.44,76.1c2.552-.007,5.105,0,7.658,0,.789,0,1.578.012,2.367,0a2.658,2.658,0,0,1,2.724,2.826c-.052,3.509-.009,7.018-.026,10.527,0,.44.133.543.555.535,1.515-.027,3.032-.032,4.547,0,.406.008.483-.1.482-.481-.013-3.478-.008-6.956-.008-10.435q0-3.942,0-7.884a.647.647,0,0,0-.267-.64q-4.055-2.607-8.1-5.225c-1.539-1-3.113-1.941-4.6-3.011a.631.631,0,0,0-.8.024c-.679.435-1.362.864-2.038,1.3q-5.247,3.408-10.5,6.813a.714.714,0,0,0-.34.7q.011,2.945,0,5.89a1.492,1.492,0,0,1-1.54,1.739A1.342,1.342,0,0,1,.325,77.393c0-2.395.024-4.789,0-7.184a1.751,1.751,0,0,1,.86-1.6c2.346-1.544,4.678-3.11,7.049-4.614.874-.555,1.768-1.084,2.663-1.609a.446.446,0,0,0,.233-.638,34.729,34.729,0,0,1-1.4-4.788c-.208-1.033-.322-2.084-.5-3.122a30.068,30.068,0,0,1-.351-3.213c-.075-1.151.02-2.313.007-3.47a28.316,28.316,0,0,1,.177-2.992c.108-1.138.329-2.268.55-3.392A37.79,37.79,0,0,1,11,35.583a38.918,38.918,0,0,1,2.8-6.169c.038-.067.086-.128.12-.2.23-.47.2-.536-.326-.536q-5.846,0-11.693.006c-1.34,0-1.864-.518-1.864-1.848,0-5.425.052-10.851-.037-16.274A2.711,2.711,0,0,1,1.6,7.914C3.808,6.63,5.986,5.3,8.182,4a6.064,6.064,0,0,1,1.839-.975c1.073-.2,1.81.205,1.887,1.52.05.847.009,1.7.009,2.63.436-.257.839-.492,1.238-.73,1.861-1.11,3.712-2.236,5.585-3.325A1.466,1.466,0,0,1,20.929,4.49c.019,1.143.006,2.288-.016,3.431-.006.3.063.4.377.389q1.252-.042,2.505-.019c.294,0,.387-.063.384-.374-.016-1.854,0-3.709-.009-5.564a2.309,2.309,0,0,1,1.7-2.2A4.987,4.987,0,0,1,26.954.025c.959,0,1.925-.07,2.875.023A4.648,4.648,0,0,1,32.013.4,2.421,2.421,0,0,1,33.13,2.658c0,1.808.008,3.616.013,5.423a.066.066,0,0,0,.005.115M83.12,10.931c.063.041.079.012.074-.049q.009-3.569.021-7.138c0-.213-.039-.283-.28-.28-1.222.013-2.444,0-3.665-.011-.286,0-.4.05-.4.383.013,2.224.087,4.449-.028,6.672-.017.325.048.468.426.458,1.283-.034,2.566-.027,3.85-.036m-71.608,68-.008,0c-.132,1.135-.041,2.274-.069,3.411-.006.259.208.22.373.219,3.058-.014,6.116-.036,9.175-.035.329,0,.422-.08.415-.4-.018-.91-.023-1.822,0-2.732.012-.384-.1-.494-.487-.491-2.642.016-5.283,0-7.925.009a8.96,8.96,0,0,0-1.479.026M85.072,68.011c-.054-.107-.157-.079-.244-.082a12.16,12.16,0,0,1-1.79-.271c-1.316-.251-2.607-.609-3.91-.919a35.855,35.855,0,0,0-4.269-.827,4.1,4.1,0,0,0-2.477.3.669.669,0,0,0-.4.651,7.984,7.984,0,0,0,.354,2.293,8.114,8.114,0,0,0,8.272,5.8,3.909,3.909,0,0,0,1.669-.218A8.126,8.126,0,0,0,88.3,68.265c.071-.311-.026-.387-.312-.349a21.166,21.166,0,0,1-2.915.095M26.127,28.7v0c-2.769,0-5.538.005-8.307-.007a.7.7,0,0,0-.7.4,52.993,52.993,0,0,0-2.719,5.37,34.975,34.975,0,0,0-2.29,7.756,30.915,30.915,0,0,0-.373,3.073q-.151,1.863-.128,3.736c.019,1.347.138,2.683.279,4.023.117,1.1.308,2.187.5,3.273.117.664.338,1.308.491,1.966a14.12,14.12,0,0,1,.532,1.933c.013.143.1.431.347.243.521-.4,1.134-.636,1.649-1.05a1.31,1.31,0,0,1,1.187-.333,10.051,10.051,0,0,1,2.427,1.332c.832.455,1.608,1.056,2.414,1.585,1.4.921,2.823,1.819,4.225,2.743,1.266.835,2.553,1.636,3.777,2.54a18.9,18.9,0,0,0,1.893,1.132,2.251,2.251,0,0,1,1.2,2.21c-.04,3.709,0,7.42-.007,11.13a.566.566,0,0,0,.382.6c.569.249,1.121.537,1.691.782a31.518,31.518,0,0,0,4.539,1.594c1.491.386,2.993.692,4.515.942a29.889,29.889,0,0,0,3.713.323,35.259,35.259,0,0,0,7.363-.411c1.237-.212,2.483-.379,3.7-.695a27.566,27.566,0,0,0,5.8-2.073,6.484,6.484,0,0,1,1.168-.523c.465-.135.979-.314,1.1-.962a7.476,7.476,0,0,1,.672-1.792,9.865,9.865,0,0,1,2.518-3.295A9.035,9.035,0,0,1,72.018,74.7c.23-.1.336-.208.092-.446a5.8,5.8,0,0,1-.649-.817,11.3,11.3,0,0,1-1.628-3.025,9.592,9.592,0,0,1-.641-3.167,24.507,24.507,0,0,1,.112-3.628,15.486,15.486,0,0,1,.864-3.071,11.677,11.677,0,0,1,3.989-4.912,7.584,7.584,0,0,1,3.085-1.388,12.46,12.46,0,0,1,2.437-.421,12.97,12.97,0,0,1,1.749.086,10.269,10.269,0,0,1,4.029,1.285c.361.211.5.138.542-.287.086-.779.219-1.55.294-2.333.108-1.12.228-2.239.255-3.363a43.605,43.605,0,0,0-.367-5.981,17.667,17.667,0,0,0-.424-2.409c-.255-.994-.481-1.989-.833-2.963-.329-.91-.6-1.841-.944-2.752a48.866,48.866,0,0,0-2.837-5.972.779.779,0,0,0-.8-.454c-3.635.011-7.27,0-10.9,0a1.763,1.763,0,0,1-.864-.189A2.694,2.694,0,0,1,67.06,26c0-.587.019-1.174.019-1.761,0-2.659-.012-5.318.009-7.976a.753.753,0,0,0-.5-.81,45.878,45.878,0,0,0-6.771-2.731c-.85-.24-1.7-.475-2.565-.638-1.445-.272-2.9-.488-4.355-.674-1.061-.135-2.124-.149-3.185-.236a19.025,19.025,0,0,0-3.225.077,6.226,6.226,0,0,0-1.134.052c-.91.262-1.858.178-2.78.38-.854.187-1.733.321-2.574.542a35.3,35.3,0,0,0-3.728,1.146c-.272.1-.418.205-.417.544.025,4,.031,8.007.04,12.011,0,.464.018.928-.008,1.391A1.356,1.356,0,0,1,34.8,28.661a3.481,3.481,0,0,1-.785.039q-3.945,0-7.889,0M2.813,18.166h.008c0,2.427.01,4.854-.011,7.281,0,.37.076.478.451.471,1.1-.021,2.2-.048,3.293.023.514.034.551-.127.546-.55q-.027-2.666,0-5.333a2.4,2.4,0,0,1,2.408-2.475q3.712-.056,7.425,0A2.3,2.3,0,0,1,19.3,19.532a5.891,5.891,0,0,1,.04,1.071c0,1.623.008,3.246,0,4.869,0,.318.045.456.425.453,2.692-.022,5.383-.016,8.075-.016,1.609,0,3.218-.013,4.826.027.363.009.424-.055.423-.4q-.017-6.956,0-13.912c0-.439-.1-.571-.556-.57-4.208.015-8.415.009-12.623,0-1.236,0-1.739-.512-1.748-1.753-.005-.742-.009-1.484-.006-2.226,0-.268-.067-.341-.322-.188q-2.28,1.375-4.57,2.735c-.676.4-1.341.827-2.036,1.2a1.356,1.356,0,0,1-2.1-1.238c-.011-.819-.012-1.639-.016-2.458,0-.2.011-.412-.294-.231L3.087,10.3a.55.55,0,0,0-.279.536c.01,2.443.006,4.885.006,7.327M80.229,89.983v-.019q5.5,0,10.993,0c.294,0,.442-.044.436-.4-.025-1.468-.021-2.936-.012-4.4a9.839,9.839,0,0,0-.434-3.057,8.234,8.234,0,0,0-5.424-5.468.987.987,0,0,0-.8.042,10.822,10.822,0,0,1-9.641-.017.994.994,0,0,0-.718-.067,8.269,8.269,0,0,0-5.816,7.085c-.131,1.93-.015,3.861-.075,5.791-.013.427.162.52.545.519q5.473-.013,10.947-.005m-63.853.009v-.028c1.546,0,3.092-.011,4.639.009.325,0,.385-.1.383-.395q-.014-1.947.012-3.894c0-.273-.05-.367-.354-.366-2.938.016-5.876.012-8.814.019-.274,0-.594-.1-.812.076s.058.454.017.691a.822.822,0,0,0,0,.139c0,1.113.008,2.226-.021,3.337-.01.373.131.422.456.419,1.5-.017,3-.007,4.5-.007" transform="translate(0 0)"/>
        <path id="Trazado_700632" data-name="Trazado 700632" d="M4.171,183.665a1.492,1.492,0,0,0,1.54-1.739q.009-2.945,0-5.89a.715.715,0,0,1,.34-.7q5.254-3.4,10.5-6.813c.676-.439,1.359-.868,2.038-1.3a.631.631,0,0,1,.8-.025c1.491,1.07,3.065,2.013,4.6,3.011q4.045,2.622,8.1,5.225a.648.648,0,0,1,.268.64q-.008,3.942,0,7.884c0,3.478-.005,6.956.008,10.435,0,.376-.076.489-.482.481-1.515-.031-3.032-.025-4.547,0-.423.008-.557-.095-.555-.535.017-3.509-.026-7.019.026-10.527a2.658,2.658,0,0,0-2.724-2.826c-.789.007-1.578,0-2.367,0-2.553,0-5.105-.01-7.658,0a2.54,2.54,0,0,0-2.724,2.083,4.031,4.031,0,0,0-.045.738c0,3.525-.007,7.05.007,10.574,0,.377-.076.5-.482.492-1.423-.03-2.846-.009-4.269-.015-.189,0-.388.152-.5.126-.232-.054-.352-.268-.348-.563.019-1.561.013-3.123.013-4.684,0-1.276-.218-1.589-1.388-2-.08-.7.065-1.4-.056-2.112a6.672,6.672,0,0,1,.068-1.519.444.444,0,0,0-.167-.441" transform="translate(-2.618 -104.881)" fill="#b20d0d"/>
        <path id="Trazado_700633" data-name="Trazado 700633" d="M193.879,9.829q.011,3.2.02,6.4c0,.325,0,.649-.005.973l-.028.028.033.024a2.376,2.376,0,0,0,2.565,2.314q2.413.034,4.826-.005a2.368,2.368,0,0,0,2.516-2.545q.022-3.64-.006-7.28c0-.332.089-.434.412-.432,1.825.009,3.65.012,5.475-.006.356,0,.4.153.4.443,0,2.442.011,4.884.008,7.326a1.543,1.543,0,0,0,1.01,1.556,1.584,1.584,0,0,0,.313.064,24.052,24.052,0,0,1-.006,4.038c-1.015.259-1.313.638-1.315,1.7,0,2.226,0,4.451,0,6.677,0,.651,0,.648-.667.648l-17.586-.009c-.789,0-1.578-.01-2.367,0a9.882,9.882,0,0,0-1.281.094c-.374.056-.489-.155-.554-.439a1.87,1.87,0,0,1-.019-.414q0-10.595-.012-21.19c0-.433.131-.5.52-.5,1.685.019,3.372.008,5.057,0a1.615,1.615,0,0,1,.671.11l.039.143-.018.224-.023.027Z" transform="translate(-117.775 -5.835)" fill="#b20d0d"/>
        <path id="Trazado_700634" data-name="Trazado 700634" d="M176.8,228.8c-.031-.1.016-.156.106-.109.057.03.158.108.029.192-.085.036-.1-.034-.135-.083" transform="translate(-110.985 -143.559)" fill="#eb5368"/>
        <path id="Trazado_700635" data-name="Trazado 700635" d="M176.944,229.912c.06-.04.1-.027.1.047s-.041.089-.1.051a.415.415,0,0,1-.025-.07c0-.007.015-.019.023-.028" transform="translate(-111.067 -144.319)" fill="#eb5368"/>
        <path id="Trazado_700636" data-name="Trazado 700636" d="M88.994,21.825a.066.066,0,0,1-.005-.115c0,.039,0,.077.005.115" transform="translate(-55.845 -13.629)" fill="#a6e8a5"/>
        <path id="Trazado_700637" data-name="Trazado 700637" d="M45.709,47.479q3.945,0,7.889,0a3.5,3.5,0,0,0,.785-.039A1.357,1.357,0,0,0,55.467,46.1c.026-.462.009-.927.008-1.391-.01-4-.015-8.007-.04-12.011,0-.338.145-.44.416-.544A35.333,35.333,0,0,1,59.579,31c.84-.221,1.72-.355,2.573-.542.922-.2,1.87-.118,2.781-.38a6.225,6.225,0,0,1,1.134-.052,19.024,19.024,0,0,1,3.225-.077c1.06.087,2.124.1,3.185.236,1.459.186,2.91.4,4.355.674.867.163,1.716.4,2.565.638a45.871,45.871,0,0,1,6.771,2.731.752.752,0,0,1,.5.81c-.021,2.658-.008,5.318-.009,7.976,0,.587-.019,1.174-.02,1.761a2.7,2.7,0,0,0,1.512,2.493,1.763,1.763,0,0,0,.864.189c3.635,0,7.27.009,10.905,0a.779.779,0,0,1,.8.454,48.835,48.835,0,0,1,2.837,5.971c.346.911.615,1.843.944,2.752.352.974.577,1.969.833,2.963a17.609,17.609,0,0,1,.424,2.409,43.551,43.551,0,0,1,.367,5.981c-.028,1.124-.147,2.243-.255,3.363-.075.782-.208,1.554-.294,2.333-.047.426-.181.5-.542.287a10.268,10.268,0,0,0-4.029-1.285A12.974,12.974,0,0,0,99.26,72.6a12.521,12.521,0,0,0-2.437.421,7.584,7.584,0,0,0-3.085,1.388,11.685,11.685,0,0,0-3.989,4.912,15.485,15.485,0,0,0-.863,3.071,24.459,24.459,0,0,0-.112,3.628,9.582,9.582,0,0,0,.641,3.167,11.3,11.3,0,0,0,1.627,3.025,5.821,5.821,0,0,0,.649.817c.245.239.139.348-.092.446a9.043,9.043,0,0,0-2.343,1.541,9.865,9.865,0,0,0-2.518,3.295,7.474,7.474,0,0,0-.673,1.793c-.116.648-.631.827-1.1.962a6.474,6.474,0,0,0-1.168.523,27.545,27.545,0,0,1-5.8,2.073c-1.213.316-2.459.482-3.7.695a35.262,35.262,0,0,1-7.363.411,29.889,29.889,0,0,1-3.713-.323c-1.522-.251-3.024-.555-4.515-.942a31.523,31.523,0,0,1-4.539-1.594c-.571-.245-1.123-.533-1.691-.782a.566.566,0,0,1-.382-.6c0-3.71-.032-7.42.007-11.13a2.251,2.251,0,0,0-1.2-2.21,18.966,18.966,0,0,1-1.894-1.132c-1.224-.9-2.51-1.706-3.777-2.541-1.4-.924-2.82-1.823-4.225-2.743-.805-.529-1.581-1.13-2.413-1.585a10.061,10.061,0,0,0-2.428-1.332,1.31,1.31,0,0,0-1.187.333c-.515.414-1.128.654-1.648,1.05-.247.188-.335-.1-.348-.243a14.067,14.067,0,0,0-.532-1.933c-.153-.658-.374-1.3-.491-1.966-.192-1.086-.383-2.171-.5-3.273-.141-1.34-.261-2.677-.279-4.023q-.025-1.871.128-3.736c.084-1.028.188-2.059.373-3.072a34.932,34.932,0,0,1,2.29-7.756,52.994,52.994,0,0,1,2.719-5.37.7.7,0,0,1,.695-.4c2.769.012,5.538.007,8.307.007ZM67.9,47.139A20.286,20.286,0,0,0,48.575,69.962c1,8.887,9.449,18.5,21.6,17.566A20.187,20.187,0,0,0,88.671,64.533c-1.233-9.294-9.1-17.341-20.769-17.394" transform="translate(-19.581 -18.777)" fill="#d4fffd"/>
        <path id="Trazado_700638" data-name="Trazado 700638" d="M7.55,29.661c0-2.442,0-4.885-.006-7.327a.551.551,0,0,1,.279-.536l5.736-3.4c.3-.181.293.027.294.231,0,.819,0,1.639.016,2.458a1.355,1.355,0,0,0,2.1,1.238c.694-.37,1.36-.794,2.036-1.2q2.287-1.365,4.57-2.735c.254-.153.323-.08.321.188,0,.742,0,1.484.006,2.226.009,1.241.511,1.751,1.747,1.753,4.208.006,8.416.013,12.623,0,.453,0,.558.131.556.57q-.024,6.956,0,13.912c0,.341-.06.4-.423.4-1.608-.04-3.217-.027-4.826-.027-2.692,0-5.383-.006-8.075.016-.38,0-.427-.135-.425-.453.012-1.623.007-3.246,0-4.869a5.925,5.925,0,0,0-.04-1.071,2.3,2.3,0,0,0-2.365-1.945q-3.712-.056-7.425,0a2.4,2.4,0,0,0-2.408,2.475q-.028,2.667,0,5.333c0,.423-.032.584-.546.55C10.2,37.365,9.1,37.392,8,37.413c-.375.007-.454-.1-.451-.471.021-2.427.011-4.854.011-7.281H7.55" transform="translate(-4.736 -11.495)" fill="#b20d0d"/>
        <path id="Trazado_700639" data-name="Trazado 700639" d="M196.156,219.1q-5.473,0-10.947.006c-.383,0-.558-.092-.545-.52.06-1.93-.056-3.861.075-5.791a8.268,8.268,0,0,1,5.816-7.085.991.991,0,0,1,.718.066,10.82,10.82,0,0,0,9.641.017.987.987,0,0,1,.8-.042,8.233,8.233,0,0,1,5.424,5.468,9.842,9.842,0,0,1,.434,3.057c-.009,1.468-.013,2.936.012,4.4.006.361-.141.405-.435.4q-5.5-.008-10.993,0Z" transform="translate(-115.927 -129.113)" fill="#b20d0d"/>
        <path id="Trazado_700640" data-name="Trazado 700640" d="M201.995,186.017a8.114,8.114,0,0,1-8.272-5.8,7.993,7.993,0,0,1-.353-2.293.668.668,0,0,1,.4-.651,4.1,4.1,0,0,1,2.477-.3,35.867,35.867,0,0,1,4.269.827c1.3.31,2.594.667,3.91.919a12.148,12.148,0,0,0,1.79.271c.087,0,.19-.025.244.082a8.083,8.083,0,0,1-.655,2.1,8.673,8.673,0,0,1-3.283,4.061c-.268.17-.6.358-.533.78" transform="translate(-121.393 -111.063)" fill="#f8f9fb"/>
        <path id="Trazado_700641" data-name="Trazado 700641" d="M35.5,233.866c-1.5,0-3-.009-4.5.007-.325,0-.466-.046-.456-.419.029-1.112.017-2.225.021-3.337a.822.822,0,0,1,0-.139c.042-.237-.24-.507-.017-.691s.537-.075.812-.076c2.938-.007,5.876,0,8.814-.019.3,0,.357.093.354.366q-.025,1.947-.012,3.894c0,.292-.058.4-.383.395-1.546-.02-3.092-.009-4.639-.009v.028" transform="translate(-19.129 -143.875)" fill="#06d1d1"/>
        <path id="Trazado_700642" data-name="Trazado 700642" d="M30.789,211.981a8.964,8.964,0,0,1,1.479-.026c2.641,0,5.283.007,7.925-.009.388,0,.5.107.487.491-.028.91-.023,1.821,0,2.732.006.323-.086.4-.416.4-3.058,0-6.117.021-9.175.035-.165,0-.379.04-.373-.219.029-1.137-.063-2.276.069-3.411l.009,0" transform="translate(-19.277 -133.049)" fill="#06d1d1"/>
        <path id="Trazado_700643" data-name="Trazado 700643" d="M216.091,16.755c-1.283.009-2.567,0-3.85.036-.378.01-.443-.134-.426-.458.114-2.223.041-4.448.028-6.672,0-.334.112-.387.4-.383,1.222.015,2.444.023,3.665.011.24,0,.281.068.28.28q-.017,3.569-.021,7.138l-.074.05" transform="translate(-132.971 -5.824)" fill="#f8f9fb"/>
        <path id="Trazado_700644" data-name="Trazado 700644" d="M216.529,189.483c-.063-.422.265-.61.533-.78a8.672,8.672,0,0,0,3.283-4.061,8.081,8.081,0,0,0,.655-2.1,21.108,21.108,0,0,0,2.915-.094c.286-.038.383.038.312.349a8.124,8.124,0,0,1-6.028,6.469,3.9,3.9,0,0,1-1.669.219" transform="translate(-135.927 -114.53)" fill="#fdc064"/>
        <path id="Trazado_700645" data-name="Trazado 700645" d="M204.433,9.744l-.039-.143c.089.027.066.084.039.143" transform="translate(-128.314 -6.027)" fill="#eb5368"/>
        <path id="Trazado_700646" data-name="Trazado 700646" d="M204.414,10.64l-.025-.025.023-.027.02.026Z" transform="translate(-128.31 -6.647)" fill="#eb5368"/>
        <path id="Trazado_700647" data-name="Trazado 700647" d="M204.456,30.577l-.033-.024.028-.029.018.025Z" transform="translate(-128.332 -19.162)" fill="#eb5368"/>
        <path id="Trazado_700648" data-name="Trazado 700648" d="M223.306,29.285l.074-.05c.005.061-.011.09-.074.05" transform="translate(-140.186 -18.353)" fill="#a6e8a5"/>
        <path id="Trazado_700649" data-name="Trazado 700649" d="M30.913,212.052l-.009,0,.009,0" transform="translate(-19.401 -133.119)" fill="#eb5368"/>
        <path id="Trazado_700650" data-name="Trazado 700650" d="M96.96,76.2c11.667.053,19.537,8.1,20.769,17.394a20.186,20.186,0,0,1-18.493,22.994,20.325,20.325,0,0,1-21.6-17.566A20.286,20.286,0,0,1,96.96,76.2m18.19,21.248a1.016,1.016,0,0,0,.028-.577,2.4,2.4,0,0,0-.007-.8.174.174,0,0,0-.019-.214,16.678,16.678,0,0,0-1.742-7.108,17.228,17.228,0,0,0-12.674-9.483,16.912,16.912,0,0,0-6.953.162A17.448,17.448,0,0,0,80.309,95.466a16.6,16.6,0,0,0,.87,6.546,17.352,17.352,0,0,0,10.2,10.677,16.318,16.318,0,0,0,5.432,1.149,17.741,17.741,0,0,0,12.228-4.087,17.713,17.713,0,0,0,4.6-6.2,17.234,17.234,0,0,0,1.508-6.108" transform="translate(-48.639 -47.835)"/>
        <path id="Trazado_700651" data-name="Trazado 700651" d="M119.9,100.748a2.4,2.4,0,0,1,.007.8,1.237,1.237,0,0,0-.028.577,17.241,17.241,0,0,1-1.508,6.108,17.713,17.713,0,0,1-4.6,6.2,17.741,17.741,0,0,1-12.228,4.087,16.318,16.318,0,0,1-5.432-1.149A17.351,17.351,0,0,1,85.9,106.7a16.6,16.6,0,0,1-.87-6.546A17.449,17.449,0,0,1,98.508,84.106a16.912,16.912,0,0,1,6.953-.162,17.228,17.228,0,0,1,12.673,9.483,16.678,16.678,0,0,1,1.742,7.108l.019.214m-16.161,12.178c.01-.008.029-.019.028-.024a.328.328,0,0,0-.027-.061c.009-.063.017-.125.026-.188a.134.134,0,0,0,.136-.095c.334-.114.669-.222,1-.341a7.224,7.224,0,0,0,4.5-6.5,6.069,6.069,0,0,0-2.167-4.8,8.328,8.328,0,0,0-3.086-1.538c-.279-.084-.44-.194-.437-.537.018-2.086.016-4.173.006-6.26,0-.32.1-.369.385-.288a6.046,6.046,0,0,1,1.714.9,1.217,1.217,0,0,0,1.395.075,1.348,1.348,0,0,0,.707-1.311,1.659,1.659,0,0,0-.865-1.248,7.074,7.074,0,0,0-2.921-1.228c-.335-.058-.439-.2-.416-.52a8.792,8.792,0,0,0,0-1.112,1.364,1.364,0,0,0-2.614-.473,3.731,3.731,0,0,0-.158,1.726c0,.315-.087.471-.4.532a5.913,5.913,0,0,0-4.331,6.654,4.938,4.938,0,0,0,2.3,3.477,13.962,13.962,0,0,0,2,1.075.6.6,0,0,1,.428.65c-.015,2.643-.009,5.286-.009,7.929a1.022,1.022,0,0,0,0,.139c.036.266-.068.371-.336.307-.19-.045-.382-.023-.581-.076a8.155,8.155,0,0,1-2.219-1.022,1.69,1.69,0,0,0-.77-.3,1.384,1.384,0,0,0-.782,2.579,8.507,8.507,0,0,0,4.328,1.585c.327.015.375.13.363.4-.018.4-.017.8,0,1.205a1.442,1.442,0,0,0,1.078,1.4,1.319,1.319,0,0,0,1.362-.448,1.447,1.447,0,0,0,.357-.791c.01-.008.03-.018.029-.024a.347.347,0,0,0-.025-.063q0-.7,0-1.4" transform="translate(-53.364 -52.519)" fill="#ffc403"/>
        <path id="Trazado_700652" data-name="Trazado 700652" d="M178.651,132.308a1.237,1.237,0,0,1,.028-.577,1.017,1.017,0,0,1-.028.577" transform="translate(-112.14 -82.698)" fill="#eb5368"/>
        <path id="Trazado_700653" data-name="Trazado 700653" d="M178.707,129.208c-.006-.071-.013-.143-.019-.214a.175.175,0,0,1,.019.214" transform="translate(-112.176 -80.979)" fill="#eb5368"/>
        <path id="Trazado_700654" data-name="Trazado 700654" d="M121.54,117.543l-.026.188a.074.074,0,0,0,0,.085q0,.7,0,1.4a.08.08,0,0,0,0,.087,1.449,1.449,0,0,1-.356.791,1.32,1.32,0,0,1-1.363.448,1.442,1.442,0,0,1-1.078-1.4c-.017-.4-.019-.8,0-1.205.012-.275-.036-.39-.363-.4a8.505,8.505,0,0,1-4.328-1.585,1.384,1.384,0,0,1,.781-2.579,1.69,1.69,0,0,1,.77.3,8.16,8.16,0,0,0,2.219,1.022c.2.053.391.031.581.076.268.064.373-.041.336-.307a1.086,1.086,0,0,1,0-.139c0-2.643-.006-5.286.009-7.929a.6.6,0,0,0-.428-.65,14.022,14.022,0,0,1-2-1.075,4.938,4.938,0,0,1-2.3-3.477,5.913,5.913,0,0,1,4.331-6.654c.311-.061.4-.217.4-.532a3.731,3.731,0,0,1,.157-1.726,1.364,1.364,0,0,1,2.614.473,8.723,8.723,0,0,1,0,1.112c-.023.324.08.462.416.52a7.073,7.073,0,0,1,2.921,1.228,1.658,1.658,0,0,1,.865,1.248,1.347,1.347,0,0,1-.707,1.311,1.217,1.217,0,0,1-1.395-.075,6.048,6.048,0,0,0-1.714-.9c-.281-.081-.386-.032-.385.288.01,2.087.012,4.174-.006,6.26,0,.343.158.454.437.537a8.329,8.329,0,0,1,3.086,1.538,6.07,6.07,0,0,1,2.167,4.8,7.225,7.225,0,0,1-4.5,6.5c-.332.119-.667.228-1,.341-.07,0-.13.006-.136.095m-.029-10.2c0,.06,0,.119,0,.178,0,2.147-.007,4.294-.016,6.441,0,.634.048.67.626.367a4.267,4.267,0,0,0,2.229-4.288,3.388,3.388,0,0,0-2.5-2.861c-.114-.041-.363-.171-.339.162m-2.8-4.456c0-1.839,0-3.595,0-5.351,0-.3-.182-.252-.334-.155a6.006,6.006,0,0,0-.7.526,3.372,3.372,0,0,0-.832,3.383,4.063,4.063,0,0,0,1.869,1.6" transform="translate(-71.143 -57.409)"/>
        <path id="Trazado_700655" data-name="Trazado 700655" d="M135.4,161.392c.006-.089.066-.1.136-.095a.133.133,0,0,1-.136.095" transform="translate(-84.998 -101.258)" fill="#f5a86b"/>
        <path id="Trazado_700656" data-name="Trazado 700656" d="M135.294,166.13a.079.079,0,0,1,0-.087.373.373,0,0,1,.025.063c0,.006-.019.016-.029.024" transform="translate(-84.927 -104.238)" fill="#f5a86b"/>
        <path id="Trazado_700657" data-name="Trazado 700657" d="M135.3,162.144a.074.074,0,0,1,0-.085.325.325,0,0,1,.027.061c0,.005-.018.016-.028.024" transform="translate(-84.93 -101.737)" fill="#f5a86b"/>
        <path id="Trazado_700658" data-name="Trazado 700658" d="M135.3,133.771c-.024-.333.225-.2.339-.162a3.388,3.388,0,0,1,2.5,2.861,4.266,4.266,0,0,1-2.23,4.288c-.578.3-.629.268-.626-.367q.014-3.221.016-6.441c.079-.061.076-.12,0-.178" transform="translate(-84.928 -83.839)" fill="#fdc064"/>
        <path id="Trazado_700659" data-name="Trazado 700659" d="M124.326,112.765a4.063,4.063,0,0,1-1.869-1.6,3.371,3.371,0,0,1,.832-3.383,6.006,6.006,0,0,1,.7-.526c.152-.1.334-.14.334.155,0,1.757,0,3.513,0,5.351" transform="translate(-76.761 -67.288)" fill="#fdc064"/>
        <path id="Trazado_700660" data-name="Trazado 700660" d="M135.318,134.145c.079.058.082.117,0,.178l0-.178" transform="translate(-84.949 -84.213)" fill="#f5a86b"/>
      </g>
    </g>
  </g>
</svg>
