<svg xmlns="http://www.w3.org/2000/svg" width="136.19" height="140" viewBox="0 0 136.19 140">
  <g id="Grupo_974094" data-name="Grupo 974094" transform="translate(-0.385)">
    <g id="Grupo_992549" data-name="Grupo 992549">
      <path id="Trazado_700038" data-name="Trazado 700038" d="M137.731,62.856A62.856,62.856,0,1,1,74.875,0a62.856,62.856,0,0,1,62.856,62.856" transform="translate(-1.156)" fill="#ffdeb8"/>
      <path id="Trazado_700039" data-name="Trazado 700039" d="M28.972,154.9l.223-.051a.961.961,0,0,1-.233.006Z" transform="translate(-2.786 -14.898)" fill="#fff"/>
      <path id="Trazado_700043" data-name="Trazado 700043" d="M115.677,134.987l.737-.169-.084-.366a.969.969,0,0,1-.653.535" transform="translate(-11.129 -12.935)" fill="#fff"/>
      <g id="Grupo_992550" data-name="Grupo 992550" transform="translate(-18.939 1.724)">
        <g id="Grupo_992551" data-name="Grupo 992551" transform="translate(19.324 29.781)">
          <rect id="Rectángulo_349527" data-name="Rectángulo 349527" width="26.345" height="17.432" transform="translate(2.058 62.994)" fill="#06d1d1"/>
          <rect id="Rectángulo_349528" data-name="Rectángulo 349528" width="9.187" height="17.432" transform="translate(19.252 63.03)" fill="#03a4a4"/>
          <rect id="Rectángulo_349529" data-name="Rectángulo 349529" width="26.345" height="28.368" transform="translate(24.489 52.19)" fill="#6789cc"/>
          <rect id="Rectángulo_349530" data-name="Rectángulo 349530" width="9.187" height="28.368" transform="translate(41.516 52.19)" fill="#5e5a90"/>
          <rect id="Rectángulo_349531" data-name="Rectángulo 349531" width="26.345" height="42.969" transform="translate(49.215 37.767)" fill="#abffff"/>
          <rect id="Rectángulo_349532" data-name="Rectángulo 349532" width="9.187" height="42.825" transform="translate(66.1 37.767)" fill="#03a4a4"/>
          <rect id="Rectángulo_349533" data-name="Rectángulo 349533" width="26.345" height="58.77" transform="translate(74.619 21.824)" fill="#8d0a0a"/>
          <rect id="Rectángulo_349534" data-name="Rectángulo 349534" width="9.187" height="58.77" transform="translate(91.647 21.824)" fill="#a03d3d"/>
          <path id="Trazado_706524" data-name="Trazado 706524" d="M0,0H26.345V80.664H0Z" transform="translate(99.608 0.036)" fill="#06d1d1"/>
          <rect id="Rectángulo_349536" data-name="Rectángulo 349536" width="9.187" height="80.522" transform="translate(116.635)" fill="#03a4a4"/>
          <rect id="Rectángulo_349537" data-name="Rectángulo 349537" width="125.048" height="2.094" transform="translate(3.142 80.593)" fill="#03a4a4"/>
          <path id="Trazado_706507" data-name="Trazado 706507" d="M19.947,88.271S65.057,99.456,113.2,64.686l8.888,7.258,2.571-31.115L102.6,45.28l5.094,11.614s-22.686,30-87.733,31.378Z" transform="translate(-12.284 -7.69)" fill="#f5b0a9"/>
          <path id="Trazado_706508" data-name="Trazado 706508" d="M19.94,88.274s46.979,8.638,93.19-28.654l7.687,6.985,3.039-25.8-24.905,5.33,6.925,6.117S84.822,83.418,19.94,88.274" transform="translate(-12.289 -7.704)" fill="#ffe8ce"/>
          <path id="Trazado_706509" data-name="Trazado 706509" d="M74.33,61.084H85.314V77.421c0,1.689-2.463,2.582-5.485,2.582s-5.485-.893-5.485-2.582V61.084Z" transform="translate(22.089 5.112)" fill="#f8a92f" fill-rule="evenodd"/>
          <path id="Trazado_706510" data-name="Trazado 706510" d="M79.822,59.21c3.029,0,5.485,1.369,5.485,3.058s-2.456,3.058-5.485,3.058-5.485-1.369-5.485-3.058,2.456-3.058,5.485-3.058" transform="translate(22.093 3.928)" fill="#ffc243"/>
          <path id="Trazado_706511" data-name="Trazado 706511" d="M79.3,59.816a6.363,6.363,0,0,0-3.225.8c-.3.178-.916.643-.916,1.082s.619.893.916,1.082a6.943,6.943,0,0,0,6.45,0c.3-.178.916-.643.916-1.082s-.619-.893-.916-1.082a6.363,6.363,0,0,0-3.225-.8" transform="translate(22.614 4.31)" fill="#f8a92f" fill-rule="evenodd"/>
          <path id="Trazado_706512" data-name="Trazado 706512" d="M77.314,62.419a.336.336,0,0,1,.31-.6,1.844,1.844,0,0,0,.227.095,1.191,1.191,0,0,0,.274.036,1.281,1.281,0,0,0,.369-.059.946.946,0,0,0-.369-.059,1.633,1.633,0,0,1-.713-.155.614.614,0,0,1,0-1.167,1.475,1.475,0,0,1,.369-.119.354.354,0,0,1,.393-.274.326.326,0,0,1,.274.274.956.956,0,0,1,.178.036,1.176,1.176,0,0,1,.428.191.351.351,0,0,1,.059.477.338.338,0,0,1-.473.06l0,0a.035.035,0,0,1-.024-.011.722.722,0,0,0-.163-.059,1.459,1.459,0,0,0-.326-.047,1.281,1.281,0,0,0-.369.059.946.946,0,0,0,.369.059,1.633,1.633,0,0,1,.713.155.614.614,0,0,1,0,1.167,1.412,1.412,0,0,1-.38.119.338.338,0,0,1-.4.25.326.326,0,0,1-.25-.25.6.6,0,0,1-.142-.036,1.463,1.463,0,0,1-.369-.155Z" transform="translate(23.769 4.502)" fill="#d69228" fill-rule="evenodd"/>
          <path id="Trazado_706513" data-name="Trazado 706513" d="M79.822,76.673c3.034,0,5.485-.893,5.485-2.582V71.836c0,1.689-2.463,2.582-5.485,2.582s-5.485-.893-5.485-2.582v2.273c0,1.689,2.463,2.582,5.485,2.582Zm0-9.068c3.034,0,5.485-.893,5.485-2.582V62.768c0,1.689-2.463,2.582-5.485,2.582s-5.485-.893-5.485-2.582v2.26c0,1.689,2.463,2.582,5.485,2.582Zm0,4.534c-3.034,0-5.485-.893-5.485-2.582V67.3c0,1.689,2.463,2.582,5.485,2.582s5.485-.893,5.485-2.582v2.26c0,1.689-2.463,2.582-5.485,2.582Z" transform="translate(22.093 6.177)" fill="#d69228" fill-rule="evenodd"/>
          <path id="Trazado_706514" data-name="Trazado 706514" d="M68.974,64.145H59.967V75.866c0,1.392,2.022,2.122,4.509,2.122s4.509-.726,4.509-2.122V64.145Z" transform="translate(13.01 7.047)" fill="#f8a92f" fill-rule="evenodd"/>
          <path id="Trazado_706515" data-name="Trazado 706515" d="M64.469,62.709c2.491,0,4.509,1.124,4.509,2.51s-2.019,2.51-4.509,2.51S59.96,66.6,59.96,65.219s2.019-2.51,4.509-2.51" transform="translate(13.006 6.139)" fill="#ffc243"/>
          <path id="Trazado_706516" data-name="Trazado 706516" d="M64.041,63.206a5.164,5.164,0,0,0-2.654.653c-.238.155-.749.524-.749.881s.512.738.749.881a5.417,5.417,0,0,0,2.654.653,5.164,5.164,0,0,0,2.654-.653c.25-.155.749-.524.749-.881s-.512-.738-.749-.881a5.287,5.287,0,0,0-2.654-.653" transform="translate(13.435 6.452)" fill="#f8a92f" fill-rule="evenodd"/>
          <path id="Trazado_706517" data-name="Trazado 706517" d="M62.41,65.34a.275.275,0,1,1,.25-.49,1,1,0,0,0,.191.083.756.756,0,0,0,.227.024.8.8,0,0,0,.3-.047.878.878,0,0,0-.3-.047,1.376,1.376,0,0,1-.583-.119.5.5,0,0,1-.326-.63.488.488,0,0,1,.326-.326.937.937,0,0,1,.31-.095.275.275,0,0,1,.313-.23l.013,0a.277.277,0,0,1,.227.227.6.6,0,0,1,.142.036.835.835,0,0,1,.344.155.292.292,0,0,1,.024.393.276.276,0,0,1-.369.036.521.521,0,0,0-.131-.047,1.037,1.037,0,0,0-.274-.036.8.8,0,0,0-.3.047.871.871,0,0,0,.3.047,1.375,1.375,0,0,1,.583.119.5.5,0,0,1,.326.63.488.488,0,0,1-.326.326.937.937,0,0,1-.31.095.276.276,0,0,1-.326.2.294.294,0,0,1-.2-.2.419.419,0,0,1-.119-.024,2.214,2.214,0,0,1-.3-.119Z" transform="translate(14.387 6.614)" fill="#d69228" fill-rule="evenodd"/>
          <path id="Trazado_706518" data-name="Trazado 706518" d="M68.98,73.062c0,1.392-2.022,2.122-4.509,2.122s-4.509-.726-4.509-2.122v1.856c0,1.392,2.022,2.122,4.509,2.122s4.509-.726,4.509-2.122Zm0-7.437c0,1.392-2.022,2.122-4.509,2.122s-4.511-.73-4.511-2.122v1.856c0,1.392,2.022,2.122,4.509,2.122s4.509-.726,4.509-2.122Zm0,3.724v1.856c0,1.392-2.022,2.122-4.509,2.122s-4.509-.726-4.509-2.122V69.349c0,1.392,2.022,2.122,4.509,2.122s4.509-.73,4.509-2.122" transform="translate(13.006 7.982)" fill="#d69228" fill-rule="evenodd"/>
          <path id="Trazado_706519" data-name="Trazado 706519" d="M22.3,67.164h-7.05v6.259c0,1.082,1.583,1.653,3.522,1.653S22.3,74.5,22.3,73.423V67.164Z" transform="translate(-15.252 8.955)" fill="#f8a92f" fill-rule="evenodd"/>
          <path id="Trazado_706520" data-name="Trazado 706520" d="M18.781,66.041c1.945,0,3.522.88,3.522,1.963s-1.577,1.963-3.522,1.963-3.522-.88-3.522-1.963,1.577-1.963,3.522-1.963" transform="translate(-15.248 8.245)" fill="#ffc243"/>
          <path id="Trazado_706521" data-name="Trazado 706521" d="M18.445,66.428a4.048,4.048,0,0,0-2.071.512c-.191.119-.583.416-.583.69s.393.571.6.69a4.173,4.173,0,0,0,2.071.512,4.048,4.048,0,0,0,2.071-.512c.191-.119.6-.416.6-.69s-.393-.571-.6-.69a4.173,4.173,0,0,0-2.071-.512Z" transform="translate(-14.911 8.489)" fill="#f8a92f" fill-rule="evenodd"/>
          <path id="Trazado_706522" data-name="Trazado 706522" d="M17.17,68.1a.213.213,0,1,1,.191-.38.66.66,0,0,0,.155.059.82.82,0,0,0,.178.024.515.515,0,0,0,.238-.036.781.781,0,0,0-.238-.036,1.292,1.292,0,0,1-.464-.095.394.394,0,0,1-.25-.5.375.375,0,0,1,.25-.25.805.805,0,0,1,.238-.072.217.217,0,0,1,.428,0,.345.345,0,0,1,.108.024.806.806,0,0,1,.274.119.221.221,0,0,1,.011.31.218.218,0,0,1-.3.024l-.108-.036a1.361,1.361,0,0,0-.214-.036.123.123,0,1,0,0,.072,1.292,1.292,0,0,1,.464.095.394.394,0,0,1,.25.5.375.375,0,0,1-.25.25,1.526,1.526,0,0,1-.238.083.218.218,0,0,1-.261.163.208.208,0,0,1-.155-.155.311.311,0,0,1-.095-.024,2.011,2.011,0,0,1-.238-.095Z" transform="translate(-14.172 8.618)" fill="#d69228" fill-rule="evenodd"/>
          <path id="Trazado_706523" data-name="Trazado 706523" d="M22.3,68.323c0,1.082-1.583,1.653-3.522,1.653s-3.522-.571-3.522-1.653v1.451c0,1.082,1.583,1.653,3.522,1.653s3.522-.571,3.522-1.653Zm0,2.9v1.451c0,1.082-1.583,1.653-3.522,1.653s-3.522-.571-3.522-1.653V71.226c0,1.082,1.583,1.653,3.522,1.653s3.522-.571,3.522-1.653" transform="translate(-15.248 9.688)" fill="#d69228" fill-rule="evenodd"/>
        </g>
      </g>
    </g>
  </g>
</svg>
