<svg xmlns="http://www.w3.org/2000/svg" xmlns:xlink="http://www.w3.org/1999/xlink" width="100" height="100" viewBox="0 0 100 100">
  <defs>
    <clipPath id="clip-path">
      <rect id="Rectángulo_352986" data-name="Rectángulo 352986" width="76.861" height="67.098" fill="none"/>
    </clipPath>
  </defs>
  <g id="Grupo_1017233" data-name="Grupo 1017233" transform="translate(-1270 -6293)">
    <circle id="Elipse_5681" data-name="Elipse 5681" cx="50" cy="50" r="50" transform="translate(1270 6293)" fill="#b48c6d"/>
    <g id="Grupo_1003074" data-name="Grupo 1003074" transform="translate(1281.569 6264.2)">
      <g id="Grupo_1003073" data-name="Grupo 1003073" transform="translate(0 39.702)" clip-path="url(#clip-path)">
        <path id="Trazado_714920" data-name="Trazado 714920" d="M18.792,41.411q-5.164,0-10.327,0a1.381,1.381,0,0,1-1.5-1.281c0-3.774.009-7.548-.014-11.321,0-.714.576-1.314,1.577-1.325,3.372-.035,6.745-.015,10.118-.016h.328v-.421c0-1.642.009-3.285-.005-4.927a.988.988,0,0,1,.629-.908,2.225,2.225,0,0,1,.945-.231q8.046-.022,16.093-.013h.338V15.724h-.357q-7.926,0-15.852,0a2.033,2.033,0,0,1-1.368-.39,1.079,1.079,0,0,1-.425-.862q0-5.124,0-10.247c0-1.022,0-2.044,0-3.066a1.088,1.088,0,0,1,.791-1A3.551,3.551,0,0,1,20.71.005Q38.424-.006,56.138,0a3.146,3.146,0,0,1,.89.146,1.162,1.162,0,0,1,.858,1.162q-.005,3.761,0,7.522c0,1.852-.018,3.7.012,5.556a1.33,1.33,0,0,1-1.335,1.282c-.336.014-.671.049-1.007.049q-7.686,0-15.372,0h-.291v5.242h.333q7.9,0,15.792.006a3.846,3.846,0,0,1,.983.135,1.157,1.157,0,0,1,.887,1.144q0,2.529,0,5.058v.156h.337q4.894,0,9.788,0a2.949,2.949,0,0,1,.79.089,1.268,1.268,0,0,1,1.1,1.332c-.012,3.591-.006,7.181-.011,10.771a3.173,3.173,0,0,1-.06.771,1.373,1.373,0,0,1-1.409.975L58.4,41.4H57.9v3.89h.318c2.422,0,4.844-.007,7.266.008a3.017,3.017,0,0,1,1,.17,1.356,1.356,0,0,1,.931,1.373c.013,2.053,0,4.106,0,6.159v.248h.531l7.236,0a1.745,1.745,0,0,1,1.144.306,1.423,1.423,0,0,1,.53,1.2c.01,2.376,0,4.752,0,7.128,0,1.214.008,2.429-.007,3.643a2.15,2.15,0,0,1-.153.75,1.277,1.277,0,0,1-1.11.767,8.676,8.676,0,0,1-1.1.055q-8.842,0-17.684,0a1.981,1.981,0,0,1-1.456-.456A1.023,1.023,0,0,1,55,65.88q0-5.792,0-11.583a1.228,1.228,0,0,1,1.186-1.042c2.712,0,5.424,0,8.158,0V48.029H39.891v5.224h.36q3.5-.006,7-.012c1.072,0,1.6.434,1.688,1.369.033.371.059.743.059,1.114Q49,60.6,48.988,65.475a2.091,2.091,0,0,1-.191.828,1.318,1.318,0,0,1-1.21.733c-.525.034-1.052.053-1.578.053-5.4,0-10.808-.005-16.213.008a1.7,1.7,0,0,1-1.906-1.261.874.874,0,0,1-.029-.229c0-3.59-.009-7.181.01-10.771a2.139,2.139,0,0,1,.285-.945,1.269,1.269,0,0,1,1.2-.64l6.875,0h.734V48.03H12.508v5.222h.3q3.723-.007,7.446-.014a1.636,1.636,0,0,1,1.288.417,1.01,1.01,0,0,1,.309.708q0,5.753,0,11.505a1.28,1.28,0,0,1-1.186,1.164,6.183,6.183,0,0,1-.916.056q-8.932,0-17.864,0a3.013,3.013,0,0,1-.814-.081,1.355,1.355,0,0,1-1.074-1.32Q0,60.118.006,54.549a1.424,1.424,0,0,1,1.455-1.306c2.432.018,4.864,0,7.3,0h.676v-.312c0-2.114-.015-4.228.014-6.341a1.347,1.347,0,0,1,.381-.766,1.605,1.605,0,0,1,1.234-.528q3.813-.009,7.626-.007h.285c0-.717,0-1.414,0-2.11,0-.516,0-1.031-.009-1.546,0-.073-.072-.145-.11-.218h-.061M73.849,64.466l.036-.1c-.005-.07-.014-.139-.014-.209q0-3.865,0-7.73v-.636H57.9v8.689h15.17c.259,0,.518-.007.777-.011M54.883,41.415H54.82c-.04,0-.08-.009-.12-.009q-5.1,0-10.207,0a1.381,1.381,0,0,1-1.5-1.281q-.005-4.455,0-8.91c0-.856,0-1.712,0-2.568a.738.738,0,0,1,.059-.323,1.6,1.6,0,0,1,1.519-.849c3.373-.019,6.745-.011,10.118-.011H55c0-.152,0-.281,0-.41-.019-1.062-.049-2.124-.052-3.186,0-.242-.1-.289-.348-.289-2.081,0-4.162-.008-6.244-.008q-12.384,0-24.769,0H21.878v3.889h.352q4.744,0,9.488,0a7.409,7.409,0,0,1,.8.052c.86.095,1.351.578,1.351,1.324,0,3.756-.009,7.513.007,11.269a1.45,1.45,0,0,1-1.518,1.3c-2.912-.015-5.824-.012-8.736-.015H21.877v3.871H55c0-1.233,0-2.448,0-3.662,0-.064-.071-.127-.109-.191M21.865,13.092h33.05c.029-.5.083-.987.081-1.471-.011-2.913-.038-5.827-.049-8.74,0-.213-.081-.267-.311-.266-2.251,0-4.5-.005-6.753-.006q-12.741,0-25.483,0h-.534ZM30.975,30.2H9.863v8.569H30.975Zm14.907,8.569H66.993V30.2H45.882ZM18.887,64.478c.03-.56.078-1.079.081-1.6.009-1.9,0-3.79,0-5.685,0-.078,0-.157-.007-.235a3.174,3.174,0,0,1-.032-.9c.071-.288-.052-.276-.282-.276q-7.607,0-15.214,0H2.992v.278c0,2.742,0,5.484-.013,8.226,0,.2.1.2.268.2q7.293,0,14.586,0h1.054m26.98-8.692H31v8.674H45.867Z" transform="translate(0 0)"/>
        <path id="Trazado_714921" data-name="Trazado 714921" d="M306.687,306.356l.036-.1-.036.1" transform="translate(-232.838 -241.889)" fill="#4d4d4d"/>
        <path id="Trazado_714922" data-name="Trazado 714922" d="M148.4,27.545q-2.925,0-5.849,0a1.621,1.621,0,0,1-1.48-.77,1.16,1.16,0,0,1,.643-1.648,2.36,2.36,0,0,1,.841-.182q5.8-.019,11.609-.009a1.516,1.516,0,0,1,1.711,1.149,1.034,1.034,0,0,1-.356,1,1.528,1.528,0,0,1-1.15.469q-2.985,0-5.969,0Z" transform="translate(-106.981 -19.695)"/>
        <path id="Trazado_714923" data-name="Trazado 714923" d="M117.467,25.162a1.341,1.341,0,0,1,1.478,1.254,1.419,1.419,0,0,1-1.51,1.311,1.5,1.5,0,0,1-1.474-1.363,1.417,1.417,0,0,1,1.506-1.2" transform="translate(-88.038 -19.869)" fill="#020202"/>
      </g>
    </g>
  </g>
</svg>
