<svg xmlns="http://www.w3.org/2000/svg" width="751" height="376.997" viewBox="0 0 751 376.997">
  <g id="Grupo_1017230" data-name="Grupo 1017230" transform="translate(-425 -1286)">
    <path id="Unión_40" data-name="Unión 40" d="M-4169,11750.972h20.437a7.017,7.017,0,0,1-.13-1.349V11655a7,7,0,0,1,7-7h34.74a7,7,0,0,1,7,7v94.623a7.017,7.017,0,0,1-.13,1.349H-4081l-44,32.028Z" transform="translate(4966 -10241.016)" fill="#06d1d1"/>
    <path id="Unión_42" data-name="Unión 42" d="M-4169,11754.4h15.328a7.045,7.045,0,0,1-.1-1.16v-128.161a7,7,0,0,1,7-7h22.554a7,7,0,0,1,7,7v128.161a7.045,7.045,0,0,1-.1,1.16H-4103l-33,33.1Z" transform="translate(12337.5 5609) rotate(90)" fill="#06d1d1"/>
    <path id="Unión_43" data-name="Unión 43" d="M-4169,11754.4h15.328a7.045,7.045,0,0,1-.1-1.16v-128.161a7,7,0,0,1,7-7h22.554a7,7,0,0,1,7,7v128.161a7.045,7.045,0,0,1-.1,1.16H-4103l-33,33.1Z" transform="translate(-10691.083 -2663.001) rotate(-90)" fill="#06d1d1"/>
    <path id="Unión_44" data-name="Unión 44" d="M1712,11774v-56h5v51h250v-51h5v51h175v-51h5v56Z" transform="translate(-1134 -10112)" fill="#b20d0d"/>
    <path id="Unión_45" data-name="Unión 45" d="M8438.814,11750.631h2.438v-8.718a1.011,1.011,0,1,1,2.021,0v8.718h2.538l-3.5,8.057Zm2.438-17.4v-11.32a1.011,1.011,0,1,1,2.021,0v11.32a1.011,1.011,0,1,1-2.021,0Zm0-21v-11.32a1.011,1.011,0,1,1,2.021,0v11.32a1.011,1.011,0,1,1-2.021,0Z" transform="translate(-10669.902 10101.812) rotate(-90)" fill="#06d1d1"/>
    <path id="Trazado_714988" data-name="Trazado 714988" d="M18.072,23h-4.09V15.875H7.924V23H3.811V5.938H7.924v6.773h6.059V5.938h4.09Zm6.984,0h-4.1V5.938h4.1Zm11.66-4.535a1.69,1.69,0,0,0-.639-1.406,7.938,7.938,0,0,0-2.244-1.043,21.53,21.53,0,0,1-2.625-1.043q-3.316-1.629-3.316-4.477a4.014,4.014,0,0,1,.826-2.5,5.344,5.344,0,0,1,2.338-1.687,9.1,9.1,0,0,1,3.4-.6,7.958,7.958,0,0,1,3.3.656,5.223,5.223,0,0,1,2.268,1.869A4.881,4.881,0,0,1,40.83,11h-4.1a2.063,2.063,0,0,0-.639-1.617,2.489,2.489,0,0,0-1.729-.574,2.807,2.807,0,0,0-1.74.486,1.432,1.432,0,0,0,.064,2.426,8.867,8.867,0,0,0,2.473,1.1,15.147,15.147,0,0,1,2.906,1.225,4.884,4.884,0,0,1,2.766,4.395,4.166,4.166,0,0,1-1.687,3.516,7.506,7.506,0,0,1-4.629,1.277,9.184,9.184,0,0,1-3.756-.744,5.663,5.663,0,0,1-2.531-2.039,5.313,5.313,0,0,1-.85-2.982H31.5a2.617,2.617,0,0,0,.709,2.021,3.351,3.351,0,0,0,2.3.65,2.647,2.647,0,0,0,1.611-.439A1.45,1.45,0,0,0,36.717,18.465ZM56.334,9.113H51.213V23H47.1V9.113H42.072V5.938H56.334ZM72.189,14.82a10.062,10.062,0,0,1-.926,4.418A6.842,6.842,0,0,1,68.633,22.2a7.326,7.326,0,0,1-3.885,1.037,7.429,7.429,0,0,1-3.867-1,6.831,6.831,0,0,1-2.631-2.865,9.772,9.772,0,0,1-.99-4.277v-.961a10.106,10.106,0,0,1,.92-4.424,6.825,6.825,0,0,1,2.637-2.959,7.805,7.805,0,0,1,7.775-.012A6.948,6.948,0,0,1,71.234,9.67a9.816,9.816,0,0,1,.955,4.365Zm-4.184-.715a7.175,7.175,0,0,0-.85-3.861,2.725,2.725,0,0,0-2.432-1.318q-3.094,0-3.27,4.641l-.012,1.254a7.379,7.379,0,0,0,.832,3.855,2.721,2.721,0,0,0,2.473,1.348,2.688,2.688,0,0,0,2.4-1.324,7.178,7.178,0,0,0,.855-3.809ZM80.65,16.965H78.424V23H74.311V5.938h6.715a7.5,7.5,0,0,1,4.746,1.346,4.561,4.561,0,0,1,1.711,3.8,5.54,5.54,0,0,1-.721,2.95,5.115,5.115,0,0,1-2.256,1.9l3.563,6.889V23H83.662ZM78.424,13.8h2.6a2.335,2.335,0,0,0,1.764-.617,2.384,2.384,0,0,0,.592-1.721,2.412,2.412,0,0,0-.6-1.733A2.313,2.313,0,0,0,81.025,9.1h-2.6ZM94.35,23h-4.1V5.938h4.1Zm12.762-3.187h-5.637L100.49,23H96.1l6.258-17.062h3.867L112.525,23h-4.418Zm-4.652-3.176h3.668l-1.84-5.918Z" transform="translate(524 1573)" fill="#12263f"/>
    <path id="Trazado_714987" data-name="Trazado 714987" d="M39.107,19.813H33.471L32.486,23H28.092L34.35,5.938h3.867L44.521,23H40.1Zm-4.652-3.176h3.668l-1.84-5.918Zm15.8-3.293,3.141-7.406h4.441l-5.5,10.934V23H48.166V16.871L42.682,5.938H47.1Zm19.406,2.414H63.189v4.078H70.83V23H59.076V5.938H70.854V9.113H63.189v3.6h6.469Zm9.188,1.207H76.619V23H72.506V5.938h6.715a7.5,7.5,0,0,1,4.746,1.346,4.561,4.561,0,0,1,1.711,3.8,5.54,5.54,0,0,1-.721,2.95,5.115,5.115,0,0,1-2.256,1.9l3.563,6.889V23H81.857ZM76.619,13.8h2.6a2.335,2.335,0,0,0,1.764-.617,2.384,2.384,0,0,0,.592-1.721,2.412,2.412,0,0,0-.6-1.733A2.313,2.313,0,0,0,79.221,9.1h-2.6Z" transform="translate(595 1458)" fill="#12263f"/>
    <path id="Trazado_714986" data-name="Trazado 714986" d="M23.119,23h-4.09V15.875H12.971V23H8.857V5.938h4.113v6.773h6.059V5.938h4.09Zm.334,21.82a10.062,10.062,0,0,1-.926,4.418A6.842,6.842,0,0,1,19.9,52.2a7.326,7.326,0,0,1-3.885,1.037,7.429,7.429,0,0,1-3.867-1,6.831,6.831,0,0,1-2.631-2.865,9.772,9.772,0,0,1-.99-4.277v-.961a10.106,10.106,0,0,1,.92-4.424,6.825,6.825,0,0,1,2.637-2.959A7.377,7.377,0,0,1,15.988,35.7a7.3,7.3,0,0,1,3.867,1.031A6.948,6.948,0,0,1,22.5,39.67a9.816,9.816,0,0,1,.955,4.365Zm-4.184-.715a7.175,7.175,0,0,0-.85-3.861,2.725,2.725,0,0,0-2.432-1.318q-3.094,0-3.27,4.641l-.012,1.254a7.379,7.379,0,0,0,.832,3.855,2.721,2.721,0,0,0,2.473,1.348,2.688,2.688,0,0,0,2.4-1.324,7.178,7.178,0,0,0,.855-3.809ZM16,73.344l3.141-7.406h4.441l-5.5,10.934V83H13.914V76.871L8.43,65.938h4.418Z" transform="translate(825 1418)" fill="#12263f"/>
    <path id="Trazado_714985" data-name="Trazado 714985" d="M11.984,5.938l3.809,11.871,3.8-11.871H25V23H20.879V19.016l.4-8.156L17.152,23H14.434L10.3,10.848l.4,8.168V23H6.582V5.938ZM37.52,19.813H31.883L30.9,23H26.5L32.762,5.938h3.867L42.934,23H38.516Zm-4.652-3.176h3.668L34.7,10.719ZM58.426,23h-4.09L48.289,12.383V23H44.176V5.938h4.113l6.035,10.617V5.938h4.1ZM55.918,1.473a3.417,3.417,0,0,1-.779,2.268,2.418,2.418,0,0,1-1.928.932,3.8,3.8,0,0,1-1.723-.492,3.593,3.593,0,0,0-1.535-.492.88.88,0,0,0-.639.258,1.071,1.071,0,0,0-.264.8l-2.191-.117a3.435,3.435,0,0,1,.779-2.25,2.39,2.39,0,0,1,1.916-.949,3.955,3.955,0,0,1,1.535.433,9.427,9.427,0,0,0,1.2.492,2.32,2.32,0,0,0,.533.059.9.9,0,0,0,.645-.261,1.076,1.076,0,0,0,.27-.806ZM70.93,19.813H65.293L64.309,23H59.914L66.172,5.938h3.867L76.344,23H71.926Zm-4.652-3.176h3.668l-1.84-5.918ZM91.836,23h-4.09L81.7,12.383V23H77.586V5.938H81.7l6.035,10.617V5.938h4.1Zm12.5-3.187H98.7L97.719,23H93.324L99.582,5.938h3.867L109.754,23h-4.418Zm-4.652-3.176h3.668l-1.84-5.918Z" transform="translate(935.417 1458)" fill="#12263f"/>
    <path id="Trazado_714989" data-name="Trazado 714989" d="M16.787,17.211V23H12.674V5.938h6.809a7.93,7.93,0,0,1,3.463.721,5.431,5.431,0,0,1,2.332,2.051,5.6,5.6,0,0,1,.826,3.018,4.937,4.937,0,0,1-1.787,3.99,7.415,7.415,0,0,1-4.9,1.494Zm0-3.176h2.7a2.542,2.542,0,0,0,1.822-.6,2.221,2.221,0,0,0,.627-1.687,2.745,2.745,0,0,0-.645-1.91,2.282,2.282,0,0,0-1.758-.727H16.787Zm17.848,2.93H32.408V23H28.295V5.938H35.01a7.5,7.5,0,0,1,4.746,1.346,4.561,4.561,0,0,1,1.711,3.8,5.54,5.54,0,0,1-.721,2.95,5.115,5.115,0,0,1-2.256,1.9l3.563,6.889V23H37.646ZM32.408,13.8h2.6a2.335,2.335,0,0,0,1.764-.617,2.384,2.384,0,0,0,.592-1.721,2.412,2.412,0,0,0-.6-1.733A2.313,2.313,0,0,0,35.01,9.1h-2.6Zm22.125,1.957H48.064v4.078h7.641V23H43.951V5.938H55.729V9.113H48.064v3.6h6.469Zm11.648,2.707a1.69,1.69,0,0,0-.639-1.406A7.938,7.938,0,0,0,63.3,16.016a21.53,21.53,0,0,1-2.625-1.043q-3.316-1.629-3.316-4.477a4.014,4.014,0,0,1,.826-2.5,5.344,5.344,0,0,1,2.338-1.687,9.1,9.1,0,0,1,3.4-.6,7.958,7.958,0,0,1,3.3.656,5.223,5.223,0,0,1,2.268,1.869A4.881,4.881,0,0,1,70.295,11h-4.1a2.063,2.063,0,0,0-.639-1.617,2.489,2.489,0,0,0-1.729-.574,2.807,2.807,0,0,0-1.74.486,1.432,1.432,0,0,0,.064,2.426,8.867,8.867,0,0,0,2.473,1.1,15.147,15.147,0,0,1,2.906,1.225,4.884,4.884,0,0,1,2.766,4.395,4.166,4.166,0,0,1-1.687,3.516,7.506,7.506,0,0,1-4.629,1.277,9.184,9.184,0,0,1-3.756-.744,5.663,5.663,0,0,1-2.531-2.039,5.313,5.313,0,0,1-.85-2.982h4.125a2.617,2.617,0,0,0,.709,2.021,3.351,3.351,0,0,0,2.3.65A2.647,2.647,0,0,0,65.59,19.7,1.45,1.45,0,0,0,66.182,18.465Zm16.8-2.707H76.518v4.078h7.641V23H72.4V5.938H84.182V9.113H76.518v3.6h6.469ZM100.084,23h-4.09L89.947,12.383V23H85.834V5.938h4.113l6.035,10.617V5.938h4.1ZM115.74,9.113h-5.121V23h-4.113V9.113h-5.027V5.938H115.74Zm12.316,6.645h-6.469v4.078h7.641V23H117.475V5.938h11.777V9.113h-7.664v3.6h6.469Z" transform="translate(771 1573)" fill="#12263f"/>
    <path id="Trazado_714990" data-name="Trazado 714990" d="M36.346,16.2H29.713V23H25.6V5.938H37.014V9.113h-7.3v3.926h6.633ZM52.107,5.938V17.105a6.419,6.419,0,0,1-.809,3.287,5.238,5.238,0,0,1-2.32,2.115,8.174,8.174,0,0,1-3.574.727,7.062,7.062,0,0,1-4.91-1.617,5.768,5.768,0,0,1-1.828-4.43V5.938H42.8V17.27q.07,2.8,2.6,2.8a2.518,2.518,0,0,0,1.934-.7,3.286,3.286,0,0,0,.656-2.285V5.938ZM68.068,9.113H62.947V23H58.834V9.113H53.807V5.938H68.068ZM83.186,5.938V17.105a6.419,6.419,0,0,1-.809,3.287,5.238,5.238,0,0,1-2.32,2.115,8.174,8.174,0,0,1-3.574.727,7.062,7.062,0,0,1-4.91-1.617,5.768,5.768,0,0,1-1.828-4.43V5.938h4.137V17.27q.07,2.8,2.6,2.8a2.518,2.518,0,0,0,1.934-.7,3.286,3.286,0,0,0,.656-2.285V5.938Zm8.906,11.027H89.865V23H85.752V5.938h6.715a7.5,7.5,0,0,1,4.746,1.346,4.561,4.561,0,0,1,1.711,3.8,5.54,5.54,0,0,1-.721,2.95,5.115,5.115,0,0,1-2.256,1.9l3.563,6.889V23H95.1ZM89.865,13.8h2.6a2.335,2.335,0,0,0,1.764-.617,2.384,2.384,0,0,0,.592-1.721,2.412,2.412,0,0,0-.6-1.733A2.313,2.313,0,0,0,92.467,9.1h-2.6Zm25.992,1.02a10.062,10.062,0,0,1-.926,4.418A6.842,6.842,0,0,1,112.3,22.2a7.326,7.326,0,0,1-3.885,1.037,7.429,7.429,0,0,1-3.867-1,6.831,6.831,0,0,1-2.631-2.865,9.772,9.772,0,0,1-.99-4.277v-.961a10.106,10.106,0,0,1,.92-4.424,6.825,6.825,0,0,1,2.637-2.959,7.805,7.805,0,0,1,7.775-.012A6.948,6.948,0,0,1,114.9,9.67a9.816,9.816,0,0,1,.955,4.365Zm-4.184-.715a7.175,7.175,0,0,0-.85-3.861,2.725,2.725,0,0,0-2.432-1.318q-3.094,0-3.27,4.641l-.012,1.254a7.379,7.379,0,0,0,.832,3.855,2.721,2.721,0,0,0,2.473,1.348,2.688,2.688,0,0,0,2.4-1.324,7.178,7.178,0,0,0,.855-3.809Z" transform="translate(940 1573)" fill="#12263f"/>
    <rect id="Rectángulo_349886" data-name="Rectángulo 349886" width="145" height="6" transform="translate(605 1336)" fill="#b20d0d"/>
    <rect id="Rectángulo_349887" data-name="Rectángulo 349887" width="76" height="6" transform="translate(920 1336)" fill="#b20d0d"/>
    <ellipse id="Elipse_5697" data-name="Elipse 5697" cx="95" cy="53" rx="95" ry="53" transform="translate(425 1286)" fill="#ffe8ce"/>
    <ellipse id="Elipse_5698" data-name="Elipse 5698" cx="95" cy="53" rx="95" ry="53" transform="translate(746 1286)" fill="#ffe8ce"/>
    <ellipse id="Elipse_5699" data-name="Elipse 5699" cx="95" cy="53" rx="95" ry="53" transform="translate(986 1286)" fill="#ffe8ce"/>
    <path id="Trazado_714982" data-name="Trazado 714982" d="M27.57,23V5.938H33.7a8.679,8.679,0,0,1,5.01,1.207,4.016,4.016,0,0,1,1.717,3.5,4.06,4.06,0,0,1-.609,2.262,3.551,3.551,0,0,1-1.793,1.383,3.6,3.6,0,0,1,2.051,1.313,3.816,3.816,0,0,1,.715,2.344A4.518,4.518,0,0,1,39.2,21.717,7.556,7.556,0,0,1,34.5,23Zm4.113-7.254v4.09h2.7a2.564,2.564,0,0,0,1.711-.51,1.784,1.784,0,0,0,.6-1.436,1.891,1.891,0,0,0-2.121-2.145Zm0-2.7h2.145a3.047,3.047,0,0,0,1.922-.494,1.752,1.752,0,0,0,.574-1.422A1.839,1.839,0,0,0,35.7,9.578a3.324,3.324,0,0,0-2-.476H31.684Zm21.059,6.762H47.105L46.121,23H41.727L47.984,5.938h3.867L58.156,23H53.738ZM48.09,16.637h3.668l-1.84-5.918Zm15.422,3.2h7.16V23H59.4V5.938h4.113Zm18.809-.023H76.684L75.7,23H71.3L77.563,5.938H81.43L87.734,23H83.316Zm-4.652-3.176h3.668L79.5,10.719ZM103.227,23h-4.09L93.09,12.383V23H88.977V5.938H93.09l6.035,10.617V5.938h4.1Zm16.406-5.777a6.231,6.231,0,0,1-.961,3.146,5.8,5.8,0,0,1-2.467,2.115,8.4,8.4,0,0,1-3.627.75,6.7,6.7,0,0,1-5.3-2.191,9.048,9.048,0,0,1-1.934-6.187v-.844a10.328,10.328,0,0,1,.873-4.389,6.615,6.615,0,0,1,2.514-2.906,7.013,7.013,0,0,1,3.8-1.025,7.354,7.354,0,0,1,4.992,1.635,6.459,6.459,0,0,1,2.145,4.506h-4.1a3.056,3.056,0,0,0-.785-2.238,3.229,3.229,0,0,0-2.25-.68,2.457,2.457,0,0,0-2.25,1.148,7.381,7.381,0,0,0-.75,3.668v1.207a8.167,8.167,0,0,0,.686,3.9,2.509,2.509,0,0,0,2.361,1.172,3.159,3.159,0,0,0,2.168-.668,2.835,2.835,0,0,0,.8-2.121Zm12.527-1.465h-6.469v4.078h7.641V23H121.578V5.938h11.777V9.113h-7.664v3.6h6.469ZM32.691,53H28.6V45.875H22.543V53H18.43V35.938h4.113v6.773H28.6V35.938h4.09Zm6.984,0h-4.1V35.938h4.1Zm11.66-4.535a1.69,1.69,0,0,0-.639-1.406,7.938,7.938,0,0,0-2.244-1.043,21.53,21.53,0,0,1-2.625-1.043q-3.316-1.629-3.316-4.477a4.014,4.014,0,0,1,.826-2.5,5.344,5.344,0,0,1,2.338-1.687,9.1,9.1,0,0,1,3.4-.6,7.958,7.958,0,0,1,3.3.656,5.223,5.223,0,0,1,2.268,1.869A4.881,4.881,0,0,1,55.449,41h-4.1a2.063,2.063,0,0,0-.639-1.617,2.489,2.489,0,0,0-1.729-.574,2.807,2.807,0,0,0-1.74.486,1.432,1.432,0,0,0,.064,2.426,8.867,8.867,0,0,0,2.473,1.1,15.147,15.147,0,0,1,2.906,1.225,4.884,4.884,0,0,1,2.766,4.395,4.166,4.166,0,0,1-1.687,3.516,7.506,7.506,0,0,1-4.629,1.277,9.184,9.184,0,0,1-3.756-.744,5.663,5.663,0,0,1-2.531-2.039A5.313,5.313,0,0,1,42,47.469h4.125a2.617,2.617,0,0,0,.709,2.021,3.351,3.351,0,0,0,2.3.65,2.647,2.647,0,0,0,1.611-.439A1.45,1.45,0,0,0,51.336,48.465Zm19.617-9.352H65.832V53H61.719V39.113H56.691V35.938H70.953ZM86.809,44.82a10.062,10.062,0,0,1-.926,4.418A6.842,6.842,0,0,1,83.252,52.2a7.326,7.326,0,0,1-3.885,1.037,7.429,7.429,0,0,1-3.867-1,6.831,6.831,0,0,1-2.631-2.865,9.772,9.772,0,0,1-.99-4.277v-.961a10.106,10.106,0,0,1,.92-4.424,6.825,6.825,0,0,1,2.637-2.959,7.805,7.805,0,0,1,7.775-.012,6.948,6.948,0,0,1,2.643,2.936,9.816,9.816,0,0,1,.955,4.365Zm-4.184-.715a7.175,7.175,0,0,0-.85-3.861,2.725,2.725,0,0,0-2.432-1.318q-3.094,0-3.27,4.641l-.012,1.254a7.379,7.379,0,0,0,.832,3.855,2.721,2.721,0,0,0,2.473,1.348,2.688,2.688,0,0,0,2.4-1.324,7.178,7.178,0,0,0,.855-3.809Zm-2.8-12.738H84l-3.258,3.68-3.223-.006Zm15.445,15.6H93.043V53H88.93V35.938h6.715a7.5,7.5,0,0,1,4.746,1.346,4.561,4.561,0,0,1,1.711,3.8,5.54,5.54,0,0,1-.721,2.95,5.115,5.115,0,0,1-2.256,1.9l3.563,6.889V53H98.281ZM93.043,43.8h2.6a2.335,2.335,0,0,0,1.764-.617A2.384,2.384,0,0,0,98,41.463a2.412,2.412,0,0,0-.6-1.733,2.313,2.313,0,0,0-1.758-.629h-2.6ZM108.969,53h-4.1V35.938h4.1Zm16.664-5.777a6.231,6.231,0,0,1-.961,3.146,5.8,5.8,0,0,1-2.467,2.115,8.4,8.4,0,0,1-3.627.75,6.7,6.7,0,0,1-5.3-2.191,9.048,9.048,0,0,1-1.934-6.187v-.844a10.328,10.328,0,0,1,.873-4.389,6.615,6.615,0,0,1,2.514-2.906,7.013,7.013,0,0,1,3.8-1.025,7.354,7.354,0,0,1,4.992,1.635,6.459,6.459,0,0,1,2.145,4.506h-4.1a3.056,3.056,0,0,0-.785-2.238,3.229,3.229,0,0,0-2.25-.68,2.457,2.457,0,0,0-2.25,1.148,7.381,7.381,0,0,0-.75,3.668v1.207a8.167,8.167,0,0,0,.686,3.9,2.509,2.509,0,0,0,2.361,1.172,3.159,3.159,0,0,0,2.168-.668,2.835,2.835,0,0,0,.8-2.121Zm16.395-2.4a10.062,10.062,0,0,1-.926,4.418,6.842,6.842,0,0,1-2.631,2.959,7.326,7.326,0,0,1-3.885,1.037,7.429,7.429,0,0,1-3.867-1,6.831,6.831,0,0,1-2.631-2.865,9.772,9.772,0,0,1-.99-4.277v-.961a10.106,10.106,0,0,1,.92-4.424,6.825,6.825,0,0,1,2.637-2.959,7.805,7.805,0,0,1,7.775-.012,6.948,6.948,0,0,1,2.643,2.936,9.816,9.816,0,0,1,.955,4.365Zm-4.184-.715a7.175,7.175,0,0,0-.85-3.861,2.725,2.725,0,0,0-2.432-1.318q-3.094,0-3.27,4.641l-.012,1.254a7.379,7.379,0,0,0,.832,3.855,2.721,2.721,0,0,0,2.473,1.348,2.688,2.688,0,0,0,2.4-1.324,7.178,7.178,0,0,0,.855-3.809Z" transform="translate(440 1310)" fill="#12263f"/>
    <path id="Trazado_714983" data-name="Trazado 714983" d="M27.57,23V5.938H33.7a8.679,8.679,0,0,1,5.01,1.207,4.016,4.016,0,0,1,1.717,3.5,4.06,4.06,0,0,1-.609,2.262,3.551,3.551,0,0,1-1.793,1.383,3.6,3.6,0,0,1,2.051,1.313,3.816,3.816,0,0,1,.715,2.344A4.518,4.518,0,0,1,39.2,21.717,7.556,7.556,0,0,1,34.5,23Zm4.113-7.254v4.09h2.7a2.564,2.564,0,0,0,1.711-.51,1.784,1.784,0,0,0,.6-1.436,1.891,1.891,0,0,0-2.121-2.145Zm0-2.7h2.145a3.047,3.047,0,0,0,1.922-.494,1.752,1.752,0,0,0,.574-1.422A1.839,1.839,0,0,0,35.7,9.578a3.324,3.324,0,0,0-2-.476H31.684Zm21.059,6.762H47.105L46.121,23H41.727L47.984,5.938h3.867L58.156,23H53.738ZM48.09,16.637h3.668l-1.84-5.918Zm15.422,3.2h7.16V23H59.4V5.938h4.113Zm18.809-.023H76.684L75.7,23H71.3L77.563,5.938H81.43L87.734,23H83.316Zm-4.652-3.176h3.668L79.5,10.719ZM103.227,23h-4.09L93.09,12.383V23H88.977V5.938H93.09l6.035,10.617V5.938h4.1Zm16.406-5.777a6.231,6.231,0,0,1-.961,3.146,5.8,5.8,0,0,1-2.467,2.115,8.4,8.4,0,0,1-3.627.75,6.7,6.7,0,0,1-5.3-2.191,9.048,9.048,0,0,1-1.934-6.187v-.844a10.328,10.328,0,0,1,.873-4.389,6.615,6.615,0,0,1,2.514-2.906,7.013,7.013,0,0,1,3.8-1.025,7.354,7.354,0,0,1,4.992,1.635,6.459,6.459,0,0,1,2.145,4.506h-4.1a3.056,3.056,0,0,0-.785-2.238,3.229,3.229,0,0,0-2.25-.68,2.457,2.457,0,0,0-2.25,1.148,7.381,7.381,0,0,0-.75,3.668v1.207a8.167,8.167,0,0,0,.686,3.9,2.509,2.509,0,0,0,2.361,1.172,3.159,3.159,0,0,0,2.168-.668,2.835,2.835,0,0,0,.8-2.121Zm12.527-1.465h-6.469v4.078h7.641V23H121.578V5.938h11.777V9.113h-7.664v3.6h6.469ZM32.691,53H28.6V45.875H22.543V53H18.43V35.938h4.113v6.773H28.6V35.938h4.09Zm6.984,0h-4.1V35.938h4.1Zm11.66-4.535a1.69,1.69,0,0,0-.639-1.406,7.938,7.938,0,0,0-2.244-1.043,21.53,21.53,0,0,1-2.625-1.043q-3.316-1.629-3.316-4.477a4.014,4.014,0,0,1,.826-2.5,5.344,5.344,0,0,1,2.338-1.687,9.1,9.1,0,0,1,3.4-.6,7.958,7.958,0,0,1,3.3.656,5.223,5.223,0,0,1,2.268,1.869A4.881,4.881,0,0,1,55.449,41h-4.1a2.063,2.063,0,0,0-.639-1.617,2.489,2.489,0,0,0-1.729-.574,2.807,2.807,0,0,0-1.74.486,1.432,1.432,0,0,0,.064,2.426,8.867,8.867,0,0,0,2.473,1.1,15.147,15.147,0,0,1,2.906,1.225,4.884,4.884,0,0,1,2.766,4.395,4.166,4.166,0,0,1-1.687,3.516,7.506,7.506,0,0,1-4.629,1.277,9.184,9.184,0,0,1-3.756-.744,5.663,5.663,0,0,1-2.531-2.039A5.313,5.313,0,0,1,42,47.469h4.125a2.617,2.617,0,0,0,.709,2.021,3.351,3.351,0,0,0,2.3.65,2.647,2.647,0,0,0,1.611-.439A1.45,1.45,0,0,0,51.336,48.465Zm19.617-9.352H65.832V53H61.719V39.113H56.691V35.938H70.953ZM86.809,44.82a10.062,10.062,0,0,1-.926,4.418A6.842,6.842,0,0,1,83.252,52.2a7.326,7.326,0,0,1-3.885,1.037,7.429,7.429,0,0,1-3.867-1,6.831,6.831,0,0,1-2.631-2.865,9.772,9.772,0,0,1-.99-4.277v-.961a10.106,10.106,0,0,1,.92-4.424,6.825,6.825,0,0,1,2.637-2.959,7.805,7.805,0,0,1,7.775-.012,6.948,6.948,0,0,1,2.643,2.936,9.816,9.816,0,0,1,.955,4.365Zm-4.184-.715a7.175,7.175,0,0,0-.85-3.861,2.725,2.725,0,0,0-2.432-1.318q-3.094,0-3.27,4.641l-.012,1.254a7.379,7.379,0,0,0,.832,3.855,2.721,2.721,0,0,0,2.473,1.348,2.688,2.688,0,0,0,2.4-1.324,7.178,7.178,0,0,0,.855-3.809Zm-2.8-12.738H84l-3.258,3.68-3.223-.006Zm15.445,15.6H93.043V53H88.93V35.938h6.715a7.5,7.5,0,0,1,4.746,1.346,4.561,4.561,0,0,1,1.711,3.8,5.54,5.54,0,0,1-.721,2.95,5.115,5.115,0,0,1-2.256,1.9l3.563,6.889V53H98.281ZM93.043,43.8h2.6a2.335,2.335,0,0,0,1.764-.617A2.384,2.384,0,0,0,98,41.463a2.412,2.412,0,0,0-.6-1.733,2.313,2.313,0,0,0-1.758-.629h-2.6ZM108.969,53h-4.1V35.938h4.1Zm16.664-5.777a6.231,6.231,0,0,1-.961,3.146,5.8,5.8,0,0,1-2.467,2.115,8.4,8.4,0,0,1-3.627.75,6.7,6.7,0,0,1-5.3-2.191,9.048,9.048,0,0,1-1.934-6.187v-.844a10.328,10.328,0,0,1,.873-4.389,6.615,6.615,0,0,1,2.514-2.906,7.013,7.013,0,0,1,3.8-1.025,7.354,7.354,0,0,1,4.992,1.635,6.459,6.459,0,0,1,2.145,4.506h-4.1a3.056,3.056,0,0,0-.785-2.238,3.229,3.229,0,0,0-2.25-.68,2.457,2.457,0,0,0-2.25,1.148,7.381,7.381,0,0,0-.75,3.668v1.207a8.167,8.167,0,0,0,.686,3.9,2.509,2.509,0,0,0,2.361,1.172,3.159,3.159,0,0,0,2.168-.668,2.835,2.835,0,0,0,.8-2.121Zm16.395-2.4a10.062,10.062,0,0,1-.926,4.418,6.842,6.842,0,0,1-2.631,2.959,7.326,7.326,0,0,1-3.885,1.037,7.429,7.429,0,0,1-3.867-1,6.831,6.831,0,0,1-2.631-2.865,9.772,9.772,0,0,1-.99-4.277v-.961a10.106,10.106,0,0,1,.92-4.424,6.825,6.825,0,0,1,2.637-2.959,7.805,7.805,0,0,1,7.775-.012,6.948,6.948,0,0,1,2.643,2.936,9.816,9.816,0,0,1,.955,4.365Zm-4.184-.715a7.175,7.175,0,0,0-.85-3.861,2.725,2.725,0,0,0-2.432-1.318q-3.094,0-3.27,4.641l-.012,1.254a7.379,7.379,0,0,0,.832,3.855,2.721,2.721,0,0,0,2.473,1.348,2.688,2.688,0,0,0,2.4-1.324,7.178,7.178,0,0,0,.855-3.809Z" transform="translate(761 1309)" fill="#12263f"/>
    <path id="Trazado_714984" data-name="Trazado 714984" d="M27.57,23V5.938H33.7a8.679,8.679,0,0,1,5.01,1.207,4.016,4.016,0,0,1,1.717,3.5,4.06,4.06,0,0,1-.609,2.262,3.551,3.551,0,0,1-1.793,1.383,3.6,3.6,0,0,1,2.051,1.313,3.816,3.816,0,0,1,.715,2.344A4.518,4.518,0,0,1,39.2,21.717,7.556,7.556,0,0,1,34.5,23Zm4.113-7.254v4.09h2.7a2.564,2.564,0,0,0,1.711-.51,1.784,1.784,0,0,0,.6-1.436,1.891,1.891,0,0,0-2.121-2.145Zm0-2.7h2.145a3.047,3.047,0,0,0,1.922-.494,1.752,1.752,0,0,0,.574-1.422A1.839,1.839,0,0,0,35.7,9.578a3.324,3.324,0,0,0-2-.476H31.684Zm21.059,6.762H47.105L46.121,23H41.727L47.984,5.938h3.867L58.156,23H53.738ZM48.09,16.637h3.668l-1.84-5.918Zm15.422,3.2h7.16V23H59.4V5.938h4.113Zm18.809-.023H76.684L75.7,23H71.3L77.563,5.938H81.43L87.734,23H83.316Zm-4.652-3.176h3.668L79.5,10.719ZM103.227,23h-4.09L93.09,12.383V23H88.977V5.938H93.09l6.035,10.617V5.938h4.1Zm16.406-5.777a6.231,6.231,0,0,1-.961,3.146,5.8,5.8,0,0,1-2.467,2.115,8.4,8.4,0,0,1-3.627.75,6.7,6.7,0,0,1-5.3-2.191,9.048,9.048,0,0,1-1.934-6.187v-.844a10.328,10.328,0,0,1,.873-4.389,6.615,6.615,0,0,1,2.514-2.906,7.013,7.013,0,0,1,3.8-1.025,7.354,7.354,0,0,1,4.992,1.635,6.459,6.459,0,0,1,2.145,4.506h-4.1a3.056,3.056,0,0,0-.785-2.238,3.229,3.229,0,0,0-2.25-.68,2.457,2.457,0,0,0-2.25,1.148,7.381,7.381,0,0,0-.75,3.668v1.207a8.167,8.167,0,0,0,.686,3.9,2.509,2.509,0,0,0,2.361,1.172,3.159,3.159,0,0,0,2.168-.668,2.835,2.835,0,0,0,.8-2.121Zm12.527-1.465h-6.469v4.078h7.641V23H121.578V5.938h11.777V9.113h-7.664v3.6h6.469ZM8.7,47.211V53H4.584V35.938h6.809a7.93,7.93,0,0,1,3.463.721,5.431,5.431,0,0,1,2.332,2.051,5.6,5.6,0,0,1,.826,3.018,4.937,4.937,0,0,1-1.787,3.99,7.415,7.415,0,0,1-4.9,1.494Zm0-3.176h2.7a2.542,2.542,0,0,0,1.822-.6,2.221,2.221,0,0,0,.627-1.687,2.745,2.745,0,0,0-.645-1.91,2.282,2.282,0,0,0-1.758-.727H8.7Zm17.848,2.93H24.318V53H20.205V35.938H26.92a7.5,7.5,0,0,1,4.746,1.346,4.561,4.561,0,0,1,1.711,3.8,5.54,5.54,0,0,1-.721,2.95,5.115,5.115,0,0,1-2.256,1.9l3.563,6.889V53H29.557ZM24.318,43.8h2.6a2.335,2.335,0,0,0,1.764-.617,2.384,2.384,0,0,0,.592-1.721,2.412,2.412,0,0,0-.6-1.733A2.313,2.313,0,0,0,26.92,39.1h-2.6Zm25.992,1.02a10.062,10.062,0,0,1-.926,4.418A6.842,6.842,0,0,1,46.754,52.2a7.326,7.326,0,0,1-3.885,1.037,7.429,7.429,0,0,1-3.867-1,6.831,6.831,0,0,1-2.631-2.865,9.772,9.772,0,0,1-.99-4.277v-.961a10.106,10.106,0,0,1,.92-4.424,6.825,6.825,0,0,1,2.637-2.959,7.805,7.805,0,0,1,7.775-.012,6.948,6.948,0,0,1,2.643,2.936,9.816,9.816,0,0,1,.955,4.365Zm-4.184-.715a7.175,7.175,0,0,0-.85-3.861,2.725,2.725,0,0,0-2.432-1.318q-3.094,0-3.27,4.641l-.012,1.254a7.379,7.379,0,0,0,.832,3.855,2.721,2.721,0,0,0,2.473,1.348,2.688,2.688,0,0,0,2.4-1.324,7.178,7.178,0,0,0,.855-3.809Zm12.047-.762,3.141-7.406h4.441l-5.5,10.934V53H56.088V46.871L50.6,35.938h4.418ZM77.58,45.758H71.111v4.078h7.641V53H67V35.938H78.775v3.176H71.111v3.6H77.58Zm16.652,1.465a6.231,6.231,0,0,1-.961,3.146A5.8,5.8,0,0,1,90.8,52.484a8.4,8.4,0,0,1-3.627.75,6.7,6.7,0,0,1-5.3-2.191,9.048,9.048,0,0,1-1.934-6.187v-.844a10.328,10.328,0,0,1,.873-4.389,6.615,6.615,0,0,1,2.514-2.906,7.013,7.013,0,0,1,3.8-1.025,7.354,7.354,0,0,1,4.992,1.635,6.459,6.459,0,0,1,2.145,4.506h-4.1a3.056,3.056,0,0,0-.785-2.238,3.229,3.229,0,0,0-2.25-.68,2.457,2.457,0,0,0-2.25,1.148,7.381,7.381,0,0,0-.75,3.668v1.207a8.167,8.167,0,0,0,.686,3.9,2.509,2.509,0,0,0,2.361,1.172,3.159,3.159,0,0,0,2.168-.668,2.835,2.835,0,0,0,.8-2.121Zm15-8.109h-5.121V53H100V39.113H94.971V35.938h14.262Zm10.02,10.7h-5.637L112.631,53h-4.395l6.258-17.062h3.867L124.666,53h-4.418ZM114.6,46.637h3.668l-1.84-5.918ZM125.908,53V35.938h5.5a8.085,8.085,0,0,1,4.066,1.025,7.208,7.208,0,0,1,2.818,2.895,8.739,8.739,0,0,1,1.025,4.189v.785a8.79,8.79,0,0,1-.99,4.2,7.239,7.239,0,0,1-2.789,2.906A7.907,7.907,0,0,1,131.521,53Zm4.113-13.887V49.836h1.43a3.2,3.2,0,0,0,2.719-1.26,6.173,6.173,0,0,0,.949-3.744v-.738a6.123,6.123,0,0,0-.949-3.727,3.256,3.256,0,0,0-2.766-1.254Zm25.852,5.707a10.062,10.062,0,0,1-.926,4.418,6.842,6.842,0,0,1-2.631,2.959,7.326,7.326,0,0,1-3.885,1.037,7.429,7.429,0,0,1-3.867-1,6.831,6.831,0,0,1-2.631-2.865,9.772,9.772,0,0,1-.99-4.277v-.961a10.106,10.106,0,0,1,.92-4.424,6.825,6.825,0,0,1,2.637-2.959,7.805,7.805,0,0,1,7.775-.012,6.948,6.948,0,0,1,2.643,2.936,9.816,9.816,0,0,1,.955,4.365Zm-4.184-.715a7.175,7.175,0,0,0-.85-3.861,2.725,2.725,0,0,0-2.432-1.318q-3.094,0-3.27,4.641l-.012,1.254a7.379,7.379,0,0,0,.832,3.855,2.721,2.721,0,0,0,2.473,1.348,2.688,2.688,0,0,0,2.4-1.324,7.178,7.178,0,0,0,.855-3.809Z" transform="translate(1001 1310)" fill="#12263f"/>
  </g>
</svg>
