<svg xmlns="http://www.w3.org/2000/svg" xmlns:xlink="http://www.w3.org/1999/xlink" width="481.235" height="699.377" viewBox="0 0 481.235 699.377">
  <defs>
    <clipPath id="clip-path">
      <rect id="Rectángulo_352957" data-name="Rectángulo 352957" width="699.376" height="481.235" fill="none"/>
    </clipPath>
    <linearGradient id="linear-gradient" x1="0.5" y1="0.555" x2="0.5" gradientUnits="objectBoundingBox">
      <stop offset="0" stop-color="#b20d0d"/>
      <stop offset="1" stop-color="#590707"/>
    </linearGradient>
    <linearGradient id="linear-gradient-2" x1="0.5" y1="1" x2="0.5" gradientUnits="objectBoundingBox">
      <stop offset="0" stop-color="#ba4040"/>
      <stop offset="1" stop-color="#5d2020"/>
    </linearGradient>
    <linearGradient id="linear-gradient-3" x1="0.5" y1="1" x2="0.5" gradientUnits="objectBoundingBox">
      <stop offset="0" stop-color="#fcc510"/>
      <stop offset="1" stop-color="#fc9240"/>
    </linearGradient>
    <linearGradient id="linear-gradient-4" x1="0.5" y1="1" x2="0.5" gradientUnits="objectBoundingBox">
      <stop offset="0" stop-color="#06d1d1"/>
      <stop offset="1" stop-color="#036969"/>
    </linearGradient>
    <linearGradient id="linear-gradient-5" x1="0.5" y1="0.5" x2="0.5" y2="1.16" gradientUnits="objectBoundingBox">
      <stop offset="0" stop-color="#ffc403"/>
      <stop offset="1" stop-color="#ff9a03"/>
    </linearGradient>
    <clipPath id="clip-path-3">
      <rect id="Rectángulo_352936" data-name="Rectángulo 352936" width="140.322" height="140.197" fill="none"/>
    </clipPath>
    <clipPath id="clip-path-5">
      <rect id="Rectángulo_352938" data-name="Rectángulo 352938" width="132.033" height="131.69" fill="none"/>
    </clipPath>
    <clipPath id="clip-path-6">
      <rect id="Rectángulo_352952" data-name="Rectángulo 352952" width="128.21" height="127.75" fill="none"/>
    </clipPath>
    <clipPath id="clip-path-8">
      <rect id="Rectángulo_352953" data-name="Rectángulo 352953" width="82.814" height="82.814" fill="#ff8989"/>
    </clipPath>
    <clipPath id="clip-path-9">
      <rect id="Rectángulo_352954" data-name="Rectángulo 352954" width="82.812" height="82.814" fill="#fff0bf"/>
    </clipPath>
    <clipPath id="clip-path-10">
      <rect id="Rectángulo_352955" data-name="Rectángulo 352955" width="82.814" height="82.814" fill="#abffff"/>
    </clipPath>
  </defs>
  <g id="Grupo_1003019" data-name="Grupo 1003019" transform="translate(481.235) rotate(90)">
    <g id="Grupo_1003010" data-name="Grupo 1003010" clip-path="url(#clip-path)">
      <g id="Grupo_1002990" data-name="Grupo 1002990">
        <g id="Grupo_1002989" data-name="Grupo 1002989" clip-path="url(#clip-path)">
          <path id="Trazado_714767" data-name="Trazado 714767" d="M112.545,361.325h0A112.545,112.545,0,0,1,0,248.779V112.545a112.545,112.545,0,1,1,225.09,0V248.779A112.548,112.548,0,0,1,112.545,361.325" transform="translate(16.722 119.91)" fill="#ffe1e1"/>
          <path id="Trazado_714768" data-name="Trazado 714768" d="M112.545,361.325h0A112.545,112.545,0,0,1,0,248.779V112.545a112.545,112.545,0,0,1,225.09,0V248.779A112.548,112.548,0,0,1,112.545,361.325" transform="translate(236.248 0)" fill="#ffe591"/>
          <path id="Trazado_714769" data-name="Trazado 714769" d="M112.545,361.325h0A112.545,112.545,0,0,1,0,248.779V112.545a112.545,112.545,0,1,1,225.09,0V248.779A112.545,112.545,0,0,1,112.545,361.325" transform="translate(457.564 119.91)" fill="#abffff"/>
          <path id="Trazado_714770" data-name="Trazado 714770" d="M129.267,0A129.415,129.415,0,0,0,0,129.267H38.113a91.154,91.154,0,1,1,182.308,0h38.113A129.415,129.415,0,0,0,129.267,0" transform="translate(0 109.08)" fill="url(#linear-gradient)"/>
          <path id="Trazado_714771" data-name="Trazado 714771" d="M133.505,66.751A66.753,66.753,0,1,0,66.755,133.5a66.752,66.752,0,0,0,66.751-66.751" transform="translate(62.512 171.596)" fill="url(#linear-gradient-2)"/>
          <path id="Trazado_714772" data-name="Trazado 714772" d="M56.164,0a56.166,56.166,0,1,0,56.164,56.164A56.228,56.228,0,0,0,56.164,0" transform="translate(73.103 182.18)" fill="#b20d0d"/>
          <path id="Trazado_714773" data-name="Trazado 714773" d="M133.505,66.751A66.753,66.753,0,1,0,66.755,133.5a66.752,66.752,0,0,0,66.751-66.751" transform="translate(282.934 171.596)" fill="url(#linear-gradient-3)"/>
          <path id="Trazado_714774" data-name="Trazado 714774" d="M56.164,0a56.166,56.166,0,1,0,56.164,56.164A56.228,56.228,0,0,0,56.164,0" transform="translate(293.524 182.18)" fill="#ffc403"/>
          <path id="Trazado_714775" data-name="Trazado 714775" d="M133.5,66.751A66.751,66.751,0,1,0,66.751,133.5,66.752,66.752,0,0,0,133.5,66.751" transform="translate(503.358 171.596)" fill="url(#linear-gradient-4)"/>
          <path id="Trazado_714776" data-name="Trazado 714776" d="M56.164,0a56.166,56.166,0,1,0,56.164,56.164A56.228,56.228,0,0,0,56.164,0" transform="translate(513.945 182.18)" fill="#3ab2b2"/>
          <path id="Trazado_714777" data-name="Trazado 714777" d="M258.534,0H220.421a91.255,91.255,0,0,1-91.154,91.154A91.257,91.257,0,0,1,38.113,0H0A129.415,129.415,0,0,0,129.267,129.267,129.415,129.415,0,0,0,258.534,0" transform="translate(220.421 238.347)" fill="url(#linear-gradient-5)"/>
          <path id="Trazado_714778" data-name="Trazado 714778" d="M129.267,0A129.415,129.415,0,0,0,0,129.267H38.113a91.154,91.154,0,0,1,182.308,0h38.113A129.415,129.415,0,0,0,129.267,0" transform="translate(440.842 109.08)" fill="url(#linear-gradient-4)"/>
        </g>
      </g>
      <g id="Grupo_1002992" data-name="Grupo 1002992" transform="translate(191.563 308.235) rotate(90)">
        <g id="Grupo_1002991" data-name="Grupo 1002991" transform="translate(0)" clip-path="url(#clip-path-3)">
          <path id="Trazado_714779" data-name="Trazado 714779" d="M100.795,0c2.729,1.024,4.92,2.607,6.01,5.472a9.736,9.736,0,0,1,.438,3.59c0,7.144-.041,14.288-.074,21.432a15.756,15.756,0,0,1-4.183,10.631c-3.281,3.734-7.494,5.752-12.2,6.971-5.726,1.477-11.555,2.43-17.351,3.546a54.33,54.33,0,0,1-5.73,1.083c-.648.052-.692.464-.692.946,0,1.23.052,2.46-.018,3.686-.044.7.42.965.836,1.252a20.939,20.939,0,0,1,8.735,13.846,1.921,1.921,0,0,0,1.488,1.779,5.9,5.9,0,0,1,4.246,6.05c-.022.5,0,1.005-.063,1.5a3.439,3.439,0,0,0,1.583,3.4c2.942,2.445,1.9,7.45-.968,8.742a2.557,2.557,0,0,0-1.734,2.795c.037,8.149-3.4,14.759-9.423,20.018A23.231,23.231,0,0,1,59.136,122.4c-6.175.751-12.351.527-18.044-2.342a26.221,26.221,0,0,1-14.258-17.8,22.979,22.979,0,0,1-.527-6.558,1.143,1.143,0,0,0-.854-1.363c-3.918-1.392-4.485-5.914-2.338-8.775.055-.07.11-.169.184-.2,2.43-.939,1.845-3.031,1.841-4.876a6.315,6.315,0,0,1,3.13-5.8c.225-.14.475-.361.7-.354,1.76.07,1.731-1.138,1.981-2.408a20.971,20.971,0,0,1,8.727-13.36,1.243,1.243,0,0,0,.534-1.171,14.365,14.365,0,0,1,.015-2.729c.239-1.517-.42-2-1.83-2.246-4.555-.81-9.077-1.819-13.629-2.644a64.183,64.183,0,0,1-10.911-2.53c-5.115-1.885-9.438-4.8-11.99-9.828A18.345,18.345,0,0,1,.03,29.176C-.029,22.349.037,15.518,0,8.69-.022,4.813,2.788.818,6.79.21,6.842.2,6.875.074,6.919,0ZM18.953,17.963a2.271,2.271,0,0,1,2.18,2.39,25.546,25.546,0,0,1-.309,3.9c-.166,1.963-.243,3.944-.589,5.877a111.286,111.286,0,0,1-3,12.844c-.291.957-.1,1.134.8,1.307,4.445.862,8.871,1.8,13.3,2.707a1.373,1.373,0,0,0,1.48-.711c1.3-1.922,2.578-3.859,3.9-5.763q5.689-8.186,11.415-16.346c1.738-2.464,3.259-5.085,3.45-8.1.225-3.6,0-7.232.011-10.852,0-.759-.088-1.13-1.013-1.127q-14.245.055-28.494,0c-.924,0-1.016.361-1,1.116.04,2.092.026,4.187.007,6.279-.011,1.676-.471,2.143-2.128,2.239-1.58-.243-1.966-.67-1.981-2.272-.015-2.092-.041-4.187.015-6.279.022-.814-.147-1.108-1.027-1.079-2.316.077-4.636.04-6.956.048-3.1.011-4.842,1.723-4.846,4.813q-.011,9.965.011,19.933a26.638,26.638,0,0,0,.258,2.81c.552,5.023,3.649,8.028,7.755,10.322.619.342.935.269,1.153-.471.7-2.357,1.374-4.717,1.889-7.125a75.31,75.31,0,0,0,1.727-13.754c.037-1.532.574-2.357,1.992-2.7M71.008,4.1c-4.728,0-9.46.018-14.188-.018-.858-.007-1.175.184-1.156,1.112.066,3.277-.059,6.558.081,9.832a13.744,13.744,0,0,0,2.29,7.328c5.052,7.354,10.171,14.663,15.153,22.069,1.322,1.97,2.578,3.366,5.085,2.033.07-.037.18,0,.269-.011C82.2,45.728,85.855,45,89.516,44.3c.832-.158.961-.446.7-1.3A83.505,83.505,0,0,1,87.1,28.83a114.953,114.953,0,0,1-.954-12.517c-.048-3.594-.077-7.2.026-10.786.037-1.267-.376-1.473-1.521-1.458-4.544.066-9.092.029-13.64.029M53.586,83.528v.026H74.72c3.215,0,3.215,0,3.182-3.156-.022-1.874-.482-2.357-2.375-2.482a6.055,6.055,0,0,0-.817,0A1.647,1.647,0,0,1,72.86,76.55a24.666,24.666,0,0,1-.254-2.95A18.335,18.335,0,0,0,62.314,60.079a18.465,18.465,0,0,0-16.659-.236c-6.33,2.928-10.252,7.7-10.845,14.888-.232,2.817-.309,2.81-3.119,3.215-1.874.269-2.338.821-2.342,2.773a10.71,10.71,0,0,1-.011,1.5c-.162,1.1.287,1.34,1.34,1.333,7.634-.044,15.271-.022,22.908-.022M53.7,94.793V94.8c-7.365,0-14.726.015-22.091-.018-.891,0-1.355.129-1.226,1.156.162,1.289.044,2.581.228,3.9.862,6.161,4.058,10.834,8.889,14.509.626.475,1.351,1.462,2.128,1.068.571-.287.125-1.41.21-2.158a2.241,2.241,0,0,0,0-.272c.033-1.293.976-1.664,1.981-1.742a1.577,1.577,0,0,1,1.889,1.62c.052,1.226.088,2.456.055,3.682a1.054,1.054,0,0,0,.935,1.219c1.263.339,2.581.346,3.819.622,1.167.258,1.083-.158,1.079-.928-.015-2.777-.011-5.549,0-8.326,0-1.72.928-2.909,2.184-2.85,1.2.059,1.882,1.053,1.907,2.81,0,.18,0,.365,0,.545,0,2.64-.007,5.281.007,7.917,0,.449-.191,1.182.652.98,1.388-.335,2.832-.254,4.213-.692.7-.225.95-.49.921-1.2-.048-1.134-.055-2.276.007-3.41a2.069,2.069,0,0,1,2.1-2.018,2.1,2.1,0,0,1,2.007,2.117c.018.5.011,1,0,1.5-.015.847.239.891.95.464a18.18,18.18,0,0,0,3.108-2.324c4.82-4.6,7.534-10.149,7.435-16.954-.015-1.053-.309-1.252-1.293-1.245-7.365.041-14.726.022-22.091.022m49.521-75.331h-.088c0-3.822.011-7.648-.007-11.474A4.141,4.141,0,0,0,99.3,4.121c-2.637-.018-5.277.022-7.913-.029-.847-.015-1.164.151-1.16,1.1.015,9.11-.136,18.228,1.572,27.239.585,3.086,1.37,6.12,2.206,9.14.217.781.667.946,1.351.482.8-.549,1.639-1.046,2.423-1.62a12.582,12.582,0,0,0,5.373-9.3c.317-3.863.07-7.774.07-11.666M44.38,55.63a23.954,23.954,0,0,1,18.464-.044c0-1.193-.088-2.29.018-3.369a5.849,5.849,0,0,0-1.919-4.82A30.068,30.068,0,0,0,54.6,42.642a1.733,1.733,0,0,0-1.9.074,25.188,25.188,0,0,0-6.407,4.765,5.8,5.8,0,0,0-1.907,3.933c.007,1.366,0,2.729,0,4.216m9.434,32.085H36.629c-2.953,0-5.91-.015-8.864.007-1.4.011-1.985.622-1.742,1.775.206.994.946,1.193,1.834,1.189q25.917-.006,51.83-.011a1.354,1.354,0,0,0,1.024-.214c.527-.453.906-.972.67-1.642A1.664,1.664,0,0,0,79.6,87.7c-8.595.029-17.186.018-25.78.015M46.664,33.451a40.217,40.217,0,0,1,5.774,3.233,2.076,2.076,0,0,0,2.353.151c1.819-1.068,3.616-2.176,5.468-3.178.556-.3.35-.427.118-.759-2.232-3.185-4.448-6.378-6.691-9.6q-3.507,5.076-7.022,10.156m-9.942,14.5c.512.169.95.07,1.4.21,2.106.652,2.114.619,3.34-1.315.21-.335.468-.637.689-.965,1.834-2.71,4.563-4.371,7.177-6.175-.987-.622-1.915-1.274-2.905-1.815-1.223-.674-2.916.133-4.139,1.915-1.838,2.673-3.657,5.362-5.557,8.146M58.1,39.774c3.13,1.952,6.083,4,7.818,7.28.622,1.182,1.142,1.852,2.607,1.289a3.506,3.506,0,0,1,2.147-.287c-.6-.891-1.064-1.642-1.591-2.349-1.768-2.383-3.137-5.056-5.189-7.232a2.358,2.358,0,0,0-3.152-.331c-.88.512-1.734,1.068-2.64,1.631" transform="translate(3.752 0.026)" fill="#010000"/>
          <path id="Trazado_714780" data-name="Trazado 714780" d="M29.108.052h4.636c2,0,4.146,2.449,3.973,4.415-.114,1.267.052,2.556-.041,3.822a1.418,1.418,0,0,0,1.175,1.653,28.568,28.568,0,0,1,7.354,3.13c.626.394.884-.074,1.248-.4a32.413,32.413,0,0,1,3.653-3.417,4.635,4.635,0,0,1,5.748.556c1.8,1.8,3.546,3.66,5.413,5.395a4.911,4.911,0,0,1,.041,7.431q-1.287,1.315-2.607,2.6a.9.9,0,0,0-.166,1.281,34.662,34.662,0,0,1,3.034,7.321c.206.759.7.95,1.414.939,1.41-.018,2.824.1,4.227-.011,1.882-.147,4.272,2.125,4.209,4.338-.081,2.773-.088,5.557,0,8.33a4.549,4.549,0,0,1-4.728,4.8c-1.322.011-2.64.015-3.959,0-.541-.007-1.013.063-1.156.678a30.293,30.293,0,0,1-2.935,7.328,1.345,1.345,0,0,0,.383,1.952c.77.633,1.37,1.477,2.151,2.092a4.714,4.714,0,0,1,.563,7,43.842,43.842,0,0,1-6.522,6.334,4.925,4.925,0,0,1-5.792-.486c-.946-.917-1.9-1.826-2.791-2.8a1.229,1.229,0,0,0-1.576-.368,33.045,33.045,0,0,1-7.612,3.16c-.685.228-.759.655-.751,1.237.011,1.318,0,2.64,0,3.962a4.492,4.492,0,0,1-4.691,4.666c-2.5-.007-5,.018-7.5,0-3.344-.029-5.417-2.261-5.262-5.24.055-1.09-.055-2.191.026-3.277A1.3,1.3,0,0,0,19.2,76.9a30.051,30.051,0,0,1-6.93-2.78,1.2,1.2,0,0,0-1.642.265,26.814,26.814,0,0,1-3.668,3.41c-1.919,1.248-6.039.177-6.8-1.882a2.08,2.08,0,0,1,.766-2.537,1.782,1.782,0,0,1,2.533.162c.854,1.038,1.355.619,2.088-.129,1.307-1.337,2.482-2.828,4.323-3.565A3.766,3.766,0,0,1,13.4,70a40.949,40.949,0,0,0,7.836,3.288,4.7,4.7,0,0,1,3.178,4.452c0,1.322.033,2.64-.007,3.962-.026.8.225,1.156,1.083,1.142,2.316-.037,4.64-.041,6.956,0,.873.018,1.1-.361,1.086-1.142-.033-1.138-.037-2.279,0-3.414.1-3.126,1.329-4.423,3.889-5.211a34.139,34.139,0,0,0,6.963-2.887c2.371-1.359,4.423-.435,5.873.961.921.884,1.823,1.782,2.7,2.707.427.449.722.523,1.193.033q2.519-2.6,5.111-5.119c.582-.567.63-.994,0-1.565-.873-.8-1.62-1.738-2.53-2.486A4.758,4.758,0,0,1,55.7,58.8a48.559,48.559,0,0,0,3.09-7.516,4.509,4.509,0,0,1,4.338-3.193c1.362-.063,2.729-.041,4.091-.022.736.007,1.057-.25,1.046-1.042q-.055-3.618,0-7.24c.007-.655-.21-.836-.854-.851a27.522,27.522,0,0,1-5.13-.214A4.667,4.667,0,0,1,58.67,35.4a25.783,25.783,0,0,0-2.633-6.382,5.359,5.359,0,0,1,.957-7.162c.77-.773,1.525-1.565,2.32-2.313.556-.523.534-.935-.015-1.469-1.727-1.683-3.436-3.384-5.107-5.122-.552-.571-.895-.269-1.281.114-.968.961-1.944,1.915-2.894,2.9a4.185,4.185,0,0,1-5.023,1.064,72.023,72.023,0,0,0-8.5-3.528c-2.073-.667-2.824-2.438-2.95-4.474-.077-1.267-.037-2.548-.007-3.822.015-.644-.1-1.02-.876-1.009q-3.684.055-7.365,0c-.77-.007-.9.361-.884,1.009.033,1.366.022,2.732,0,4.1a4.438,4.438,0,0,1-3.255,4.371,2.161,2.161,0,0,1-2.751-1.038,2.14,2.14,0,0,1,1.027-2.651c.74-.324.8-.773.832-1.444.077-1.753-.225-3.506.25-5.258A4.671,4.671,0,0,1,24.608.018c.133,0,.273-.018.409-.018h4.091V.052" transform="translate(64.071 52.913)" fill="#010000"/>
          <path id="Trazado_714781" data-name="Trazado 714781" d="M7.881,38.694a16.658,16.658,0,0,1-6.238-1.108c-1.786-.556-2.206-2.5-.814-3.542a2.642,2.642,0,0,1,2.46-.328,17.324,17.324,0,0,0,5.638.814c7.162.052,13.345-6.01,14.439-12.841,1.189-7.424-4-14.811-10.4-16.8a16.008,16.008,0,0,0-5.406-.707A2.077,2.077,0,0,1,5.219,2.017,2.108,2.108,0,0,1,7.458.028a18.543,18.543,0,0,1,14.2,5.358A19.25,19.25,0,0,1,27.5,17.129a18.462,18.462,0,0,1-3.973,14.258A17.387,17.387,0,0,1,11.619,38.4a6.574,6.574,0,0,1-1.7.306,17.639,17.639,0,0,0-2.036-.015" transform="translate(84.79 76.978)" fill="#010000"/>
          <path id="Trazado_714782" data-name="Trazado 714782" d="M15.345.027c4.548,0,9.1.041,13.64-.026,1.145-.018,1.558.188,1.521,1.455-.1,3.594-.074,7.192-.026,10.789a114.958,114.958,0,0,0,.954,12.513,83.505,83.505,0,0,0,3.119,14.17c.261.858.133,1.145-.7,1.3-3.66.7-7.317,1.425-10.974,2.139-.088.018-.2-.026-.269.011-2.508,1.337-3.763-.063-5.085-2.033-4.982-7.4-10.1-14.711-15.153-22.069a13.744,13.744,0,0,1-2.29-7.328C-.058,7.683.067,4.4,0,1.124-.018.2.3,0,1.157.008c4.728.037,9.46.018,14.188.018" transform="translate(59.415 4.097)" fill="#ff0707"/>
          <path id="Trazado_714783" data-name="Trazado 714783" d="M24.281,25.552c-7.637,0-15.271-.022-22.908.026-1.049,0-1.5-.239-1.34-1.337a10.171,10.171,0,0,0,.011-1.5c0-1.952.471-2.5,2.342-2.773,2.81-.4,2.887-.4,3.119-3.215C6.1,9.567,10.019,4.8,16.349,1.867A18.488,18.488,0,0,1,33.008,2.1,18.348,18.348,0,0,1,43.3,15.624a24.6,24.6,0,0,0,.254,2.95A1.644,1.644,0,0,0,45.4,19.94a7.566,7.566,0,0,1,.818,0c1.893.125,2.353.611,2.375,2.482.033,3.16.033,3.16-3.178,3.16H24.281v-.029" transform="translate(33.054 58.002)" fill="#ff9838"/>
          <path id="Trazado_714784" data-name="Trazado 714784" d="M1.86,9.633c1.657-.1,2.117-.563,2.128-2.239.018-2.1.033-4.187-.007-6.279C3.966.361,4.058,0,4.982,0Q19.228.055,33.477,0c.921,0,1.013.368,1.013,1.127-.011,3.616.214,7.247-.011,10.852-.191,3.02-1.716,5.641-3.45,8.1Q25.283,28.231,19.613,36.43c-1.322,1.9-2.6,3.841-3.9,5.763a1.373,1.373,0,0,1-1.48.711C9.8,42,5.373,41.059.928,40.2c-.9-.173-1.094-.35-.8-1.307a111.287,111.287,0,0,0,3-12.844c.346-1.933.423-3.914.589-5.877a26.032,26.032,0,0,0,.309-3.9,2.272,2.272,0,0,0-2.18-2.386L1.86,9.633m17.786-3.4V6.175c-1.955,0-3.911-.033-5.866.007-2.379.048-3.653,1.068-3.925,3.38A21.412,21.412,0,0,0,9.865,14.2a3.481,3.481,0,0,0,3.4,3.049c4.135.052,8.278.055,12.413-.018a3.287,3.287,0,0,0,3.163-3.344c.022-1.5.048-3-.015-4.5a3.07,3.07,0,0,0-3.045-3.13c-2.04-.085-4.087-.018-6.135-.018" transform="translate(20.857 4.11)" fill="#ff0707"/>
          <path id="Trazado_714785" data-name="Trazado 714785" d="M23.338.022C30.7.022,38.064.041,45.429,0c.983-.007,1.278.191,1.293,1.245.1,6.805-2.614,12.351-7.435,16.954a17.8,17.8,0,0,1-3.108,2.324c-.711.427-.965.383-.95-.464.007-.5.015-1,0-1.5a2.1,2.1,0,0,0-2.007-2.117,2.069,2.069,0,0,0-2.1,2.018c-.063,1.134-.055,2.276-.007,3.41.029.714-.217.98-.921,1.2-1.381.438-2.824.357-4.213.692-.843.206-.648-.53-.652-.98-.015-2.637-.007-5.277-.007-7.917,0-.18,0-.365,0-.545-.026-1.753-.7-2.751-1.907-2.806-1.256-.063-2.18,1.127-2.184,2.847-.007,2.777-.011,5.553,0,8.326,0,.77.088,1.186-1.079.928-1.237-.276-2.556-.284-3.819-.622a1.054,1.054,0,0,1-.935-1.219c.033-1.226,0-2.456-.055-3.682a1.579,1.579,0,0,0-1.889-1.62c-1.005.077-1.948.449-1.981,1.742a2.241,2.241,0,0,1,0,.272c-.085.748.361,1.871-.21,2.158-.777.394-1.5-.589-2.128-1.068C4.308,15.9,1.111,11.228.25,5.067.065,3.749.183,2.456.021,1.168-.108.14.356.008,1.247.011,8.612.044,15.973.03,23.338.03Z" transform="translate(34.115 94.796)" fill="#ffc403"/>
          <path id="Trazado_714786" data-name="Trazado 714786" d="M14.8,9.631l-.011,4.246c-1.418.346-1.955,1.167-2,2.7a75.028,75.028,0,0,1-1.727,13.757c-.512,2.4-1.186,4.765-1.885,7.125-.217.736-.534.81-1.153.468C3.92,35.633.823,32.628.275,27.605A25.713,25.713,0,0,1,.017,24.8Q-.016,14.829.006,4.863c0-3.09,1.742-4.8,4.846-4.813C7.168.042,9.488.079,11.8,0c.884-.029,1.053.265,1.031,1.079-.055,2.092-.029,4.187-.015,6.279.015,1.606.4,2.029,1.981,2.272" transform="translate(7.915 4.111)" fill="#fff"/>
          <path id="Trazado_714787" data-name="Trazado 714787" d="M13,15.371c0,3.889.247,7.8-.07,11.666a12.575,12.575,0,0,1-5.376,9.3c-.781.574-1.62,1.072-2.419,1.62-.685.464-1.134.3-1.351-.482-.84-3.023-1.62-6.058-2.206-9.14C-.136,19.322.015,10.209,0,1.1,0,.152.313-.014,1.16,0,3.8.052,6.437.008,9.073.03A4.144,4.144,0,0,1,12.9,3.9c.015,3.826,0,7.648,0,11.474H13" transform="translate(93.979 4.116)" fill="#fff"/>
          <path id="Trazado_714788" data-name="Trazado 714788" d="M0,13.239c0-1.488,0-2.85,0-4.213A5.8,5.8,0,0,1,1.908,5.09,25.156,25.156,0,0,1,8.311.328a1.725,1.725,0,0,1,1.9-.074,30.037,30.037,0,0,1,6.348,4.754,5.853,5.853,0,0,1,1.919,4.817c-.11,1.079-.018,2.18-.018,3.373A23.971,23.971,0,0,0,0,13.239" transform="translate(48.133 42.417)" fill="#ff9838"/>
          <path id="Trazado_714789" data-name="Trazado 714789" d="M27.847.018C36.438.018,45.033.029,53.624,0A1.666,1.666,0,0,1,55.41,1.119c.239.67-.14,1.193-.667,1.642a1.344,1.344,0,0,1-1.024.214Q27.8,2.992,1.89,2.99C1,2.99.262,2.791.053,1.8-.187.644.391.037,1.8.026,4.751,0,7.708.018,10.662.018H27.847" transform="translate(29.72 87.726)" fill="#ffc403"/>
          <path id="Trazado_714790" data-name="Trazado 714790" d="M0,10.156Q3.513,5.074,7.022,0c2.243,3.222,4.459,6.418,6.691,9.6.232.328.438.46-.118.759-1.852,1-3.649,2.11-5.468,3.178a2.076,2.076,0,0,1-2.353-.151A39.867,39.867,0,0,0,0,10.156" transform="translate(50.416 23.321)" fill="#fff"/>
          <path id="Trazado_714791" data-name="Trazado 714791" d="M0,10.3C1.9,7.515,3.719,4.827,5.553,2.15,6.776.367,8.47-.435,9.692.235c.991.545,1.922,1.2,2.905,1.815-2.611,1.8-5.343,3.469-7.173,6.175-.221.328-.479.633-.689.968C3.509,11.127,3.5,11.161,1.4,10.509c-.449-.14-.884-.041-1.4-.21" transform="translate(40.473 37.679)" fill="#fff"/>
          <path id="Trazado_714792" data-name="Trazado 714792" d="M0,2.08C.906,1.516,1.76.96,2.64.449A2.358,2.358,0,0,1,5.792.78c2.051,2.176,3.421,4.85,5.188,7.232.527.707.991,1.458,1.591,2.349a3.506,3.506,0,0,0-2.147.287c-1.466.563-1.985-.107-2.607-1.289C6.083,6.079,3.13,4.032,0,2.08" transform="translate(61.85 37.72)" fill="#fff"/>
          <path id="Trazado_714793" data-name="Trazado 714793" d="M9.914.068c2.044,0,4.091-.063,6.135.022a3.062,3.062,0,0,1,3.042,3.126c.066,1.5.037,3,.018,4.507a3.292,3.292,0,0,1-3.163,3.344c-4.139.074-8.278.066-12.417.015a3.474,3.474,0,0,1-3.4-3.049A21.379,21.379,0,0,1,.119,3.4C.391,1.088,1.669.068,4.044.02,6-.02,7.959.013,9.914.013V.068m-.254,4H6.121c-1.8,0-1.742,0-1.8,1.856-.026.9.236,1.142,1.119,1.119,2.541-.059,5.082-.018,7.623-.018,2.055,0,2.007,0,2-2.011,0-.836-.335-.976-1.046-.957-1.451.037-2.905.011-4.356.011" transform="translate(30.589 10.272)" fill="#010000"/>
          <path id="Trazado_714794" data-name="Trazado 714794" d="M5.338.013C6.788.013,8.243.038,9.694,0c.711-.018,1.042.122,1.046.954.011,2.014.059,2.014-2,2.014-2.541,0-5.082-.04-7.623.018C.237,3.01-.024,2.767,0,1.869.057.013,0,.013,1.8.013H5.338" transform="translate(34.911 14.327)" fill="#ffc403"/>
        </g>
      </g>
      <g id="Grupo_1002994" data-name="Grupo 1002994">
        <g id="Grupo_1002993" data-name="Grupo 1002993" clip-path="url(#clip-path)">
          <path id="Trazado_714795" data-name="Trazado 714795" d="M10.359,37.292H29.746V0H0V28.645Z" transform="translate(292.74 102.288)" fill="#fff"/>
        </g>
      </g>
      <g id="Grupo_1002996" data-name="Grupo 1002996" transform="translate(415.533 31.703) rotate(90)">
        <g id="Grupo_1002995" data-name="Grupo 1002995" transform="translate(0 0)" clip-path="url(#clip-path-5)">
          <path id="Trazado_714796" data-name="Trazado 714796" d="M33.067,17.187h-.085c0-4.872.011-9.744,0-14.615A2.465,2.465,0,0,0,30.357,0Q16.78,0,3.2,0A2.9,2.9,0,0,0,.055,2.9C-.019,7.218,0,11.538.047,15.857a1.709,1.709,0,0,0,1.79,1.856c1.683.077,2.272-.446,2.283-2.235.026-3.506.041-7.015-.015-10.521-.011-.895.214-1.127,1.116-1.123q11.4.061,22.805,0c.924,0,1.208.173,1.2,1.167-.052,6.971-.022,13.942-.029,20.912,0,1.878.453,3.966-.214,5.579s-2.5,2.725-3.786,4.091a2.092,2.092,0,0,1-1.675.7c-6.065-.022-12.13-.041-18.191.022-1.086.011-1.237-.379-1.223-1.315.048-3.248.037-6.5.011-9.751-.015-1.565-.563-2.158-1.849-2.158-1.62,0-2.235.56-2.246,2.191C0,29.132-.023,32.981.036,36.829c.033,2.279.98,3.229,3.362,3.27,7.089.125,14.177.044,21.27.044a3.914,3.914,0,0,0,2.905-1.281c1.285-1.315,2.545-2.659,3.9-3.889a4.83,4.83,0,0,0,1.609-3.929c-.055-4.618-.018-9.239-.018-13.857M16.935,27.932c-2,0-4.006-.011-6.01,0-1.311.011-2.044.659-2.084,1.782a1.839,1.839,0,0,0,2,2.066q5.949.044,11.894,0a1.877,1.877,0,0,0,2.011-1.944,1.985,1.985,0,0,0-2.055-1.9c-1.919-.018-3.837,0-5.756-.007m-.048-13.043c-1.966,0-3.929-.018-5.892,0-1.348.015-2.151.755-2.151,1.919a1.928,1.928,0,0,0,2.139,1.933q5.827.022,11.651,0a1.934,1.934,0,1,0,.011-3.852c-1.919-.018-3.841-.007-5.759,0m-.151,6.547c-1.919,0-3.837-.022-5.756.007-1.455.022-2.125.648-2.139,1.893-.015,1.27.714,1.955,2.2,1.963q5.623.028,11.253,0c1.631,0,2.489-.689,2.452-1.893-.037-1.329-.814-1.955-2.511-1.97-1.83-.015-3.664,0-5.5,0M20.19,8.4v0c-.9,0-1.793-.026-2.692,0a1.831,1.831,0,0,0-1.992,1.782,1.814,1.814,0,0,0,1.885,2.058c1.793.059,3.59.048,5.384,0a1.832,1.832,0,0,0,1.97-1.845,1.99,1.99,0,0,0-1.992-1.992C21.9,8.375,21.044,8.4,20.19,8.4" transform="translate(80.874 80.861)" fill="#fff"/>
          <path id="Trazado_714797" data-name="Trazado 714797" d="M1.833,67.067A1.977,1.977,0,0,1,.021,64.883C-.019,62.659.01,60.435.01,58.211V21.39c0-2.8,1.245-4.032,4.076-4.032,16.1,0,32.2-.026,48.3.037a2.7,2.7,0,0,0,2.677-1.506A32.325,32.325,0,0,1,69.214,3.17,30.292,30.292,0,0,1,79.528.249,36.647,36.647,0,0,1,86.51.11a32.067,32.067,0,0,1,13.872,4.566,33.647,33.647,0,0,1,6.805,5.31,34.462,34.462,0,0,1,8.9,16.773,32.164,32.164,0,0,1,.508,9.357,26.273,26.273,0,0,1-1.108,5.991,1.274,1.274,0,0,0,.63,1.734,18.115,18.115,0,0,1,8.149,12.782,17.779,17.779,0,0,1-4.1,14.439,17.371,17.371,0,0,1-13.787,6.673A18.182,18.182,0,0,1,94.2,73.5a19.157,19.157,0,0,1-5.041-6.614c-.295-.619-.508-.829-1.366-.692a28.586,28.586,0,0,1-8.908-.144,32.981,32.981,0,0,1-4.275-.8c-.913-.265-1.215.125-1.212,1.119.044,9.88.033,19.76.026,29.636q-.017,15.654-.052,31.3a4.013,4.013,0,0,1-2.876,3.863c-.184.07-.438-.029-.5.261H3.365C1.844,130.625.5,129.653.147,127.8a7.568,7.568,0,0,1-.133-1.385q-.006-25.74,0-51.484c0-1.569.5-2.265,1.823-2.563,1.565.07,1.974.486,2.018,2.081.011.342,0,.685,0,1.027,0,12.745.022,25.49-.033,38.231-.007,1.289.368,1.528,1.558,1.5,3.414-.081,6.835-.026,10.248-.029q26.331-.006,52.658-.015c.663,0,1.307.18,1.3-.972q-.055-24.889-.011-49.779a1.223,1.223,0,0,0-.8-1.241,27.841,27.841,0,0,1-5.3-3.266c-1.134-.961-2.268-2.128-3.992-1.079-.225.136-.589.048-.887.048-2.349,0-4.7.011-7.044,0-2.184-.011-3.263-1.046-3.292-3.233q-.05-3.53,0-7.059a3.109,3.109,0,0,1,2.265-3.237,7.75,7.75,0,0,1,1.646-.21,28.6,28.6,0,0,1-1.9-8.915c-.007-.8-.295-1.061-1.061-1.027a28.1,28.1,0,0,1-3.2-.007,1.509,1.509,0,0,0-1.521.806q-1.712,2.618-3.473,5.2a2.881,2.881,0,0,1-2.456,1.333c-5.041.007-10.079.055-15.116-.022a2.572,2.572,0,0,1-2.184-4.047A15.606,15.606,0,0,1,22.985,36c.449-.523.383-.74-.188-.98a1.732,1.732,0,0,1-1.256-1.687,1.768,1.768,0,0,1,1.274-1.808c.46-.191.711-.368.236-.884a22.278,22.278,0,0,1-1.6-2.092c-1.374-1.919-.39-4.43,1.885-4.47,5.163-.1,10.333-.022,15.5-.022a2.583,2.583,0,0,1,2.224,1.414c1.175,1.775,2.39,3.524,3.6,5.277.228.331.412.655.961.626,1.234-.066,2.475-.037,3.712-.015.63.015.95-.188.939-.876a24.14,24.14,0,0,1,1.547-7.943c.42-1.259.081-1.363-1.046-1.359q-22.741.05-45.481,0c-1.145,0-1.466.258-1.462,1.443q.066,20.979.026,41.954c0,1.97-.317,2.349-2.018,2.489M66.621,20.322a2.32,2.32,0,0,1,.059,3.233,12.188,12.188,0,0,0-.8,1.664,17.412,17.412,0,0,0-1.745,6.135c1.915,0,3.833-.044,5.748.026.759.026.711-.571.792-.9A12.574,12.574,0,0,1,79.635,21a12.118,12.118,0,0,1,13.032,3.255,12.179,12.179,0,0,1,3.425,11.736,13.2,13.2,0,0,1-23.232,4.934,10.6,10.6,0,0,1-2.147-4.714c-.059-.335.011-1.05-.806-1.024-1.915.052-3.833.015-5.811.015a7.364,7.364,0,0,1,.254,1.024,16.5,16.5,0,0,0,4.312,9.519c5.266,5.881,11.89,7.659,19.524,6.142a1.992,1.992,0,0,0,1.484-1.171,18,18,0,0,1,9.191-8.44c.862-.357,1.97-.438,2.375-1.595A20.088,20.088,0,0,0,102.311,29.7a19.3,19.3,0,0,0-8.263-12.436,17.558,17.558,0,0,0-11.073-3.13,19.019,19.019,0,0,0-9.346,2.585c-1.175.725-2.394,1.259-3.6.015-.541-1.635-.4-2.154,1.068-3.031a22.982,22.982,0,0,1,28.712,3.285,24,24,0,0,1,5.2,8.064,21.712,21.712,0,0,1,1.576,8.621,19.861,19.861,0,0,1-1.068,6.3c-.291.814.018.88.648.862a12.311,12.311,0,0,1,4.85.644c.574.225.611-.1.755-.5a17.285,17.285,0,0,0,.943-4.912A32.568,32.568,0,0,0,112,26.372a29.979,29.979,0,0,0-9.777-15.658A29.157,29.157,0,0,0,88.248,4.2a28.223,28.223,0,0,0-9.873.055,29.884,29.884,0,0,0-20.747,14.7,27.735,27.735,0,0,0-3.616,12.406c1.845,0,3.719-.018,5.594.011.641.011.6-.387.681-.821a25.914,25.914,0,0,1,3.034-8.871c.88-1.477,1.687-1.845,3.3-1.351m53.87,38.938c.357-7.715-6.838-14.917-14.7-14.6-8.392.342-14.59,6.625-14.431,14.811.166,8.377,6.039,14.207,14.619,14.413A14.32,14.32,0,0,0,120.491,59.26m-91.5,59.78c-7.983,0-15.971.018-23.958-.022-.968,0-1.237.258-1.2,1.215.074,1.922.088,3.852,0,5.77-.059,1.226.324,1.613,1.58,1.609,10.76-.048,21.524-.026,32.284-.026,5.126,0,10.252-.022,15.374.018.891.007,1.175-.228,1.142-1.134-.066-2.007-.085-4.021.007-6.028.048-1.112-.243-1.44-1.4-1.432-7.943.055-15.89.029-23.833.029M57.04,35.207a7.171,7.171,0,0,1-1.407-.015c-1.407-.284-1.812.3-1.547,1.613.166.821.236,1.664.416,2.482A28.937,28.937,0,0,0,65.075,56.329a28.024,28.024,0,0,0,12.071,5.612,34.4,34.4,0,0,0,9.792.5c.644-.055.766-.306.747-.869a18.321,18.321,0,0,1-.044-4.644c.236-1.068-.457-1.057-1.1-.921a18.679,18.679,0,0,1-8.661-.368c-9.092-2.39-14.906-8.186-17.1-17.421-.714-3-.652-3.016-3.738-3.016m17.455,0c.549,3.911,4.412,7.593,10.524,6.9A8.814,8.814,0,0,0,92.494,33.2a9.02,9.02,0,0,0-8.079-8.963c-4.794-.53-9.346,2.9-9.909,7.125q4.237,0,8.459,0c1.462,0,2.324.718,2.419,1.863.085.994-1.119,2.073-2.43,2.022-2.813-.118-5.634-.037-8.458-.037M63.86,119.114v-.041c-1.576,0-3.152.037-4.728-.011-.77-.026-1.046.21-1.031,1.005q.072,3.264,0,6.529c-.018.817.284.994,1.035.983,3.067-.044,6.135-.059,9.2-.022.913.007,1.186-.346,1.167-1.212-.037-2.088-.048-4.183.007-6.271.022-.836-.317-.994-1.049-.976-1.536.044-3.067.015-4.6.015M25.846,27.89c.446.7.8,1.215,1.116,1.749a3.164,3.164,0,0,0,3.252,1.768c3.02-.177,6.058-.048,9.088-.066.306,0,.678.169.961-.217-.622-.924-1.234-1.856-1.867-2.777a1.094,1.094,0,0,0-.987-.464c-3.789.011-7.578.007-11.563.007m14.579,7.317c-4.032,0-7.788,0-11.544,0-.3,0-.593-.007-.8.269a18.97,18.97,0,0,0-2.151,3.2c3.889,0,7.641,0,11.393,0a1.073,1.073,0,0,0,1.013-.405c.648-.95,1.293-1.9,2.084-3.064m17.664,19.83a50.037,50.037,0,0,1-3.925-5.63c-.405-.689-1.075-.32-1.606-.3-.471.015-.468.527-.468.917,0,1.41.026,2.821-.011,4.231-.015.644.261.8.843.792,1.617-.022,3.233-.007,5.166-.007" transform="translate(3.841 0.237)" fill="#010000"/>
          <path id="Trazado_714798" data-name="Trazado 714798" d="M0,45.886c1.7-.136,2.018-.519,2.018-2.489Q2.027,22.419,2,1.443C1.992.258,2.313,0,3.458,0Q26.2.061,48.939,0c1.127,0,1.462.1,1.046,1.359a24.158,24.158,0,0,0-1.547,7.943c.011.689-.309.891-.939.88-1.237-.026-2.478-.055-3.716.011-.545.029-.733-.295-.961-.626-1.2-1.753-2.419-3.5-3.6-5.277A2.574,2.574,0,0,0,37,2.88c-5.166,0-10.333-.077-15.5.022-2.272.044-3.255,2.552-1.882,4.47a21.669,21.669,0,0,0,1.6,2.092c.475.516.225.692-.236.884a1.764,1.764,0,0,0-1.274,1.808,1.729,1.729,0,0,0,1.252,1.687c.574.239.641.457.191.98a15.606,15.606,0,0,0-1.716,2.456,2.571,2.571,0,0,0,2.18,4.047c5.041.077,10.079.029,15.12.022a2.875,2.875,0,0,0,2.452-1.333q1.762-2.585,3.476-5.2a1.509,1.509,0,0,1,1.521-.806,28.105,28.105,0,0,0,3.2.007c.766-.033,1.05.236,1.057,1.027a28.712,28.712,0,0,0,1.9,8.915,7.75,7.75,0,0,0-1.646.21,3.111,3.111,0,0,0-2.265,3.241q-.044,3.524,0,7.055c.029,2.187,1.108,3.222,3.288,3.233,2.349.011,4.7,0,7.048,0,.3,0,.663.088.884-.048,1.727-1.049,2.861.118,4,1.083a28.1,28.1,0,0,0,5.3,3.263,1.221,1.221,0,0,1,.8,1.241q-.028,24.889.011,49.779c0,1.156-.641.972-1.3.972Q40.125,94,13.8,94c-3.417,0-6.835-.052-10.248.033-1.189.029-1.565-.214-1.561-1.5.059-12.741.037-25.486.037-38.231,0-.342.007-.685,0-1.027C1.974,51.679,1.569,51.263,0,51.193q.006-2.651,0-5.306M59.983,82.626h.007c0-1.326-.077-2.655.018-3.973a2.633,2.633,0,0,0-2.8-2.835c-2.6.081-5.211.088-7.81,0A2.941,2.941,0,0,0,46.443,78.6c-.026,2.563-.059,5.13,0,7.693a2.925,2.925,0,0,0,2.835,3.086c2.729.063,5.465.055,8.193-.018a2.485,2.485,0,0,0,2.5-2.637c.033-1.366.007-2.736.007-4.1m-6.757-24v-.011c-1.322,0-2.644-.022-3.966,0a2.377,2.377,0,0,0-2.607,2.2,35.951,35.951,0,0,0-.015,9.136,2.355,2.355,0,0,0,2.4,2.158c2.894.1,5.8.063,8.694-.037a2.29,2.29,0,0,0,2.228-2.43q.061-4.226.007-8.455a2.369,2.369,0,0,0-2.526-2.552c-1.407-.052-2.813-.011-4.22-.011m6.754-10.48h-.007c0-1.451.037-2.905-.011-4.356a2.723,2.723,0,0,0-2.276-2.5c-2.85-.011-5.7.015-8.554.125a2.37,2.37,0,0,0-2.511,2.324,38.411,38.411,0,0,0,0,8.893,2.348,2.348,0,0,0,2.456,2.235c2.858.085,5.715.077,8.569-.007a2.342,2.342,0,0,0,2.327-2.486c.04-1.41.007-2.821.007-4.231M26.76,84.062q-7.236,0-14.464,0a3.483,3.483,0,0,0-1.245.136,1.765,1.765,0,0,0-1.075,2.184c.214,1.267,1.171,1.513,2.217,1.517q14.527.022,29.058,0c1.506,0,2.3-.667,2.3-1.874.007-1.3-.759-1.966-2.327-1.966-4.824-.011-9.644,0-14.464,0m.063-17.208q-7.357,0-14.715,0c-1.653,0-2.162.53-2.117,2.106.033,1.1.851,1.734,2.313,1.738q8.379.011,16.762,0,6.015,0,12.027,0a2.269,2.269,0,0,0,2.066-.729,2.057,2.057,0,0,0,.225-2.132c-.357-.869-1.068-.987-1.845-.987q-7.357-.011-14.715-.007m-.033-17.223c-4.9,0-9.806-.011-14.707,0-1.583.007-2.147.619-2.088,2.147.041,1.1.84,1.694,2.346,1.694q10.1.011,20.209,0c2.942,0,5.884-.011,8.827,0a1.965,1.965,0,0,0,2.151-1.392c.427-1.41-.468-2.445-2.151-2.452-4.861-.018-9.722-.007-14.586-.007M26.775,32.39c-4.864,0-9.725-.007-14.59.007-1.5,0-2.173.589-2.191,1.8-.022,1.458.582,2.033,2.239,2.033q14.461.011,28.922,0c.254,0,.512-.018.766-.041a1.672,1.672,0,0,0,1.639-1.856c.037-1.385-.582-1.933-2.324-1.944-4.82-.022-9.641-.007-14.461-.007m6.032,14.288c2.9,0,5.8.018,8.7-.007,1.421-.015,2.04-.6,2.058-1.815A1.82,1.82,0,0,0,41.5,42.845q-8.633-.039-17.263,0c-1.377.007-2.22.814-2.206,1.907a2.089,2.089,0,0,0,2.331,1.926q4.22.011,8.44,0m.085-17.223c2.858,0,5.715.011,8.573-.007,1.44-.007,2.058-.552,2.088-1.753a1.822,1.822,0,0,0-2.007-2.07c-5.756-.033-11.515-.022-17.274-.011a2.237,2.237,0,0,0-1.948.932c-.869,1.311.136,2.883,1.863,2.9,2.9.029,5.8.007,8.705.007m.044,30.627v-.011c-2.9,0-5.8.007-8.709,0a2.159,2.159,0,0,0-2.147,1.491c-.3.851.284,1.521.935,2.047a2.525,2.525,0,0,0,1.712.309q6.209.011,12.421,0c1.539,0,3.075,0,4.61-.033a1.616,1.616,0,0,0,1.517-.736,1.968,1.968,0,0,0-1.631-3.075c-2.9.029-5.8.007-8.709.007M32.8,77.331V77.3c-2.813,0-5.627-.011-8.44.007a2.14,2.14,0,0,0-2.324,1.963c-.015,1.142.88,1.86,2.364,1.878,1.237.011,2.475,0,3.712,0q6.518,0,13.043-.007c.711,0,1.473.066,1.974-.608a2.089,2.089,0,0,0,.287-2.136,1.583,1.583,0,0,0-1.664-1.064q-4.48.006-8.952,0" transform="translate(5.671 21.417)" fill="#c8effe"/>
          <path id="Trazado_714799" data-name="Trazado 714799" d="M33.067,17.188c0,4.618-.037,9.239.018,13.857a4.818,4.818,0,0,1-1.609,3.925c-1.359,1.234-2.618,2.578-3.9,3.892a3.921,3.921,0,0,1-2.905,1.281c-7.089,0-14.181.081-21.27-.044C1.015,40.06.069,39.106.036,36.83-.023,32.982,0,29.13.028,25.282c.007-1.631.622-2.191,2.243-2.191,1.285,0,1.834.593,1.849,2.158.026,3.252.041,6.5-.011,9.751-.011.932.136,1.326,1.223,1.315,6.061-.063,12.126-.044,18.191-.022a2.087,2.087,0,0,0,1.676-.7c1.289-1.366,3.115-2.486,3.786-4.095s.21-3.7.214-5.575c.007-6.971-.022-13.942.029-20.912.007-.994-.276-1.171-1.2-1.167q-11.406.055-22.805,0c-.9,0-1.127.228-1.112,1.123.052,3.506.037,7.011.015,10.521-.015,1.79-.6,2.313-2.287,2.235A1.706,1.706,0,0,1,.051,15.859C0,11.539-.019,7.22.054,2.9A2.9,2.9,0,0,1,3.2.006Q16.778,0,30.36,0a2.462,2.462,0,0,1,2.618,2.57c.015,4.872.007,9.744.007,14.615h.081" transform="translate(80.874 80.86)" fill="#010000"/>
          <path id="Trazado_714800" data-name="Trazado 714800" d="M8.1,0c1.919,0,3.837-.011,5.756,0a1.987,1.987,0,0,1,2.055,1.9A1.88,1.88,0,0,1,13.9,3.856Q7.946,3.894,2,3.852A1.835,1.835,0,0,1,0,1.79C.038.663.775.019,2.082.008,4.089-.007,6.092,0,8.1,0" transform="translate(89.713 108.793)" fill="#010000"/>
          <path id="Trazado_714801" data-name="Trazado 714801" d="M8.042.006c1.922,0,3.841-.015,5.763,0a1.949,1.949,0,0,1,2.1,1.867,1.954,1.954,0,0,1-2.114,1.985q-5.822.028-11.651,0A1.926,1.926,0,0,1,0,1.931,1.908,1.908,0,0,1,2.154.013C4.117-.009,6.08.006,8.042.006" transform="translate(89.718 95.741)" fill="#010000"/>
          <path id="Trazado_714802" data-name="Trazado 714802" d="M7.9.009c1.834,0,3.668-.015,5.5,0,1.694.011,2.471.637,2.508,1.97.037,1.2-.817,1.882-2.452,1.893q-5.623.017-11.253,0C.715,3.861-.011,3.183,0,1.905.015.661.685.038,2.14.012c1.919-.026,3.837,0,5.756,0" transform="translate(89.714 102.288)" fill="#010000"/>
          <path id="Trazado_714803" data-name="Trazado 714803" d="M4.687.014C5.541.014,6.4-.015,7.25.021A1.99,1.99,0,0,1,9.242,2.014a1.832,1.832,0,0,1-1.97,1.845c-1.793.044-3.59.055-5.384,0A1.814,1.814,0,0,1,0,1.8,1.831,1.831,0,0,1,1.995.014c.9-.029,1.793,0,2.692,0Z" transform="translate(96.377 89.251)" fill="#010000"/>
          <path id="Trazado_714804" data-name="Trazado 714804" d="M5.936,2.622c1.208,1.241,2.427.707,3.6-.015A18.972,18.972,0,0,1,18.887.022a17.55,17.55,0,0,1,11.066,3.13A19.276,19.276,0,0,1,38.22,15.588a20.19,20.19,0,0,1-1.072,10.988c-.405,1.156-1.517,1.234-2.379,1.595a18.008,18.008,0,0,0-9.195,8.44A1.976,1.976,0,0,1,24.1,37.778C16.46,39.3,9.839,37.52,4.57,31.639A16.541,16.541,0,0,1,.254,22.12,6.765,6.765,0,0,0,0,21.1c1.977,0,3.9.033,5.811-.018.821-.022.755.689.814,1.024a10.571,10.571,0,0,0,2.147,4.717A12.6,12.6,0,0,0,18.4,31.894,12.661,12.661,0,0,0,32,21.881a12.178,12.178,0,0,0-3.425-11.732A12.109,12.109,0,0,0,15.543,6.89a12.585,12.585,0,0,0-8.959,9.482c-.081.328-.037.924-.792.895-1.919-.066-3.83-.022-5.752-.022A17.567,17.567,0,0,1,1.786,11.11a12.429,12.429,0,0,1,.8-1.664A2.316,2.316,0,0,0,2.53,6.212a15.773,15.773,0,0,1,3.406-3.59" transform="translate(67.933 14.346)" fill="#fff"/>
          <path id="Trazado_714805" data-name="Trazado 714805" d="M16.015,12.944a15.773,15.773,0,0,0-3.406,3.59c-1.617-.493-2.419-.129-3.3,1.348a25.961,25.961,0,0,0-3.031,8.871c-.081.438-.04.832-.681.825-1.874-.029-3.749-.011-5.594-.011A27.722,27.722,0,0,1,3.616,15.161,29.067,29.067,0,0,1,13.536,4.7,29.2,29.2,0,0,1,24.363.46,28.312,28.312,0,0,1,34.235.409,29.186,29.186,0,0,1,48.214,6.923,30,30,0,0,1,57.99,22.584a32.69,32.69,0,0,1,.707,9.692,17.04,17.04,0,0,1-.946,4.912c-.136.405-.177.729-.751.5a12.244,12.244,0,0,0-4.846-.644c-.633.018-.939-.048-.652-.862a19.857,19.857,0,0,0,1.064-6.3,21.647,21.647,0,0,0-1.576-8.62A23.949,23.949,0,0,0,45.8,13.2,23.27,23.27,0,0,0,34.14,6.82,22.983,22.983,0,0,0,17.086,9.913c-1.469.876-1.609,1.4-1.072,3.031" transform="translate(57.854 4.025)" fill="#ff0606"/>
          <path id="Trazado_714806" data-name="Trazado 714806" d="M29.134,14.607A14.32,14.32,0,0,1,14.618,29.234C6.038,29.028.165,23.2,0,14.821-.155,6.635,6.038.353,14.431.01c7.866-.32,15.061,6.879,14.7,14.6M16,10.119V10.1c1.024,0,2.051.037,3.075-.011,1.3-.059,1.826-.63,1.856-1.911a1.911,1.911,0,0,0-1.852-1.97,8.56,8.56,0,0,0-1.536,0c-.755.085-1.031-.125-1.005-.957a2.186,2.186,0,0,0-1.911-2.386A2.07,2.07,0,0,0,12.74,5.243c.015.781-.228,1.061-1.02,1.241-3.458.8-4.776,3.97-3.414,7.254.821,1.985,2.541,2.692,4.548,2.8,1.149.063,2.305-.011,3.458.041a1.223,1.223,0,0,1,1.281,1.164,1.108,1.108,0,0,1-.8,1.289,4.24,4.24,0,0,1-1.263.144c-1.834.022-3.671-.029-5.505.037-1.267.048-1.745.744-1.664,2.187.066,1.119.725,1.536,1.779,1.488a12.282,12.282,0,0,0,1.278-.015c1.057-.169,1.4.206,1.326,1.3-.092,1.414.519,2.011,1.793,2.051a1.842,1.842,0,0,0,2-2.051c-.022-.858.3-1.112,1.079-1.329a4.625,4.625,0,0,0,2.8-1.76,5.256,5.256,0,0,0,.482-5.6,5.022,5.022,0,0,0-4.864-2.777c-.983-.018-1.966-.026-2.946,0-.9.026-1.517-.423-1.536-1.263s.586-1.337,1.5-1.329c.983.007,1.963,0,2.946,0" transform="translate(95.194 44.889)" fill="#fdd302"/>
          <path id="Trazado_714807" data-name="Trazado 714807" d="M25.164.03C33.107.03,41.05.055,48.993,0c1.156-.007,1.447.32,1.4,1.432-.092,2-.074,4.021-.007,6.028.029.906-.254,1.142-1.142,1.134C44.117,8.554,39,8.573,33.869,8.573c-10.764,0-21.524-.018-32.287.026C.33,8.606-.053,8.216.006,6.993c.088-1.922.074-3.852,0-5.77C-.031.265.238,0,1.206.007,9.193.048,17.177.03,25.164.03" transform="translate(7.668 119.247)" fill="#ffc403"/>
          <path id="Trazado_714808" data-name="Trazado 714808" d="M3.03.084C6.115.084,6.053.1,6.767,3.1c2.2,9.235,8.013,15.032,17.1,17.421a18.679,18.679,0,0,0,8.661.368c.641-.136,1.333-.147,1.1.921a18.321,18.321,0,0,0,.044,4.644c.018.563-.1.814-.748.869a34.537,34.537,0,0,1-9.792-.5,28.073,28.073,0,0,1-12.071-5.616A28.929,28.929,0,0,1,.492,4.168C.312,3.347.242,2.5.076,1.683-.189.375.216-.214,1.623.07A7.168,7.168,0,0,0,3.03.084" transform="translate(57.852 35.359)" fill="#ff0606"/>
          <path id="Trazado_714809" data-name="Trazado 714809" d="M0,11.027c2.824,0,5.645-.081,8.458.037,1.311.055,2.515-1.027,2.43-2.022-.1-1.142-.957-1.86-2.419-1.863q-4.226-.006-8.458,0C.574,2.955,5.126-.473,9.92.054A9.02,9.02,0,0,1,18,9.017a8.811,8.811,0,0,1-7.475,8.915C4.412,18.62.549,14.938,0,11.027" transform="translate(78.336 24.416)" fill="#ff0606"/>
          <path id="Trazado_714810" data-name="Trazado 714810" d="M5.76.053c1.536,0,3.067.029,4.6-.015.733-.018,1.072.14,1.049.976-.055,2.088-.048,4.183-.007,6.271.018.865-.254,1.219-1.167,1.212-3.067-.037-6.135-.022-9.2.022C.284,8.53-.018,8.354,0,7.536Q.078,4.277,0,1.007C-.014.212.262-.024,1.032,0,2.608.05,4.184.013,5.76.013V.053" transform="translate(61.941 119.297)" fill="#ffc403"/>
          <path id="Trazado_714811" data-name="Trazado 714811" d="M0,.007c3.984,0,7.774,0,11.563-.007a1.1,1.1,0,0,1,.987.464c.63.921,1.245,1.852,1.867,2.777-.287.387-.655.217-.961.217-3.031.018-6.069-.11-9.092.066A3.17,3.17,0,0,1,1.112,1.756C.8,1.219.446.7,0,.007" transform="translate(29.688 28.119)" fill="#ffc403"/>
          <path id="Trazado_714812" data-name="Trazado 714812" d="M14.49,0C13.7,1.167,13.058,2.117,12.41,3.067a1.076,1.076,0,0,1-1.013.405c-3.752,0-7.5,0-11.4,0A19.193,19.193,0,0,1,2.151.269c.2-.276.5-.269.8-.269C6.706,0,10.458,0,14.49,0" transform="translate(29.776 35.439)" fill="#ffc403"/>
          <path id="Trazado_714813" data-name="Trazado 714813" d="M6.01,6.047c-1.933,0-3.55-.015-5.166.007C.262,6.062-.014,5.907,0,5.263c.037-1.41.011-2.821.011-4.231,0-.39,0-.9.468-.917.53-.018,1.2-.387,1.606.3A50.038,50.038,0,0,0,6.01,6.047" transform="translate(55.92 49.226)" fill="#ffc403"/>
          <path id="Trazado_714814" data-name="Trazado 714814" d="M13.572,6.818c0,1.366.029,2.736,0,4.1a2.491,2.491,0,0,1-2.5,2.637q-4.1.11-8.2.018A2.922,2.922,0,0,1,.039,10.489C-.027,7.926.006,5.359.032,2.8A2.95,2.95,0,0,1,2.988,0c2.6.092,5.211.088,7.81,0a2.633,2.633,0,0,1,2.8,2.835c-.1,1.318-.018,2.651-.018,3.977Zm-6.8-2.95c-2.92-.007-2.92-.007-2.92,2.905,0,3,0,3,2.979,2.99,2.913-.007,2.913-.007,2.913-2.924,0-2.964,0-2.964-2.972-2.972" transform="translate(52.082 97.225)" fill="#010000"/>
          <path id="Trazado_714815" data-name="Trazado 714815" d="M6.872.023c1.407,0,2.813-.041,4.22.007a2.37,2.37,0,0,1,2.526,2.556q.055,4.226,0,8.451a2.3,2.3,0,0,1-2.232,2.434c-2.894.1-5.8.136-8.69.037A2.362,2.362,0,0,1,.284,11.346,35.922,35.922,0,0,1,.3,2.214,2.379,2.379,0,0,1,2.906.015C4.228-.014,5.55.008,6.872.008ZM3.908,6.736c0,3.009,0,3.009,2.961,3C9.8,9.726,9.8,9.726,9.8,6.839c0-2.983,0-2.983-2.95-2.99S3.908,3.838,3.908,6.736" transform="translate(52.024 80.022)" fill="#010000"/>
          <path id="Trazado_714816" data-name="Trazado 714816" d="M13.619,6.858c0,1.41.029,2.821-.011,4.227a2.332,2.332,0,0,1-2.324,2.486c-2.854.088-5.715.092-8.569.011A2.35,2.35,0,0,1,.26,11.347a38.208,38.208,0,0,1,0-8.893A2.37,2.37,0,0,1,2.771.127C5.618.016,8.475-.006,11.325,0A2.716,2.716,0,0,1,13.6,2.5c.052,1.451.015,2.905.015,4.36ZM6.859,9.8C9.79,9.793,9.79,9.793,9.79,6.891V6.762c0-2.824,0-2.824-2.876-2.835C3.9,3.919,3.9,3.919,3.9,6.9c0,2.905,0,2.905,2.957,2.9" transform="translate(52.03 62.706)" fill="#010000"/>
          <path id="Trazado_714817" data-name="Trazado 714817" d="M16.831,0Q24.062,0,31.3,0c1.572,0,2.338.667,2.331,1.966-.007,1.208-.8,1.874-2.305,1.874q-14.527.011-29.058,0c-1.042,0-2-.25-2.217-1.517A1.767,1.767,0,0,1,1.122.141,3.668,3.668,0,0,1,2.367,0Q9.6-.006,16.831,0" transform="translate(15.6 105.478)" fill="#010000"/>
          <path id="Trazado_714818" data-name="Trazado 714818" d="M16.832,0q7.357,0,14.715,0a1.7,1.7,0,0,1,1.845.987,2.062,2.062,0,0,1-.221,2.132,2.276,2.276,0,0,1-2.069.729q-6.01-.011-12.027,0-8.379,0-16.762,0C.85,3.847.032,3.213,0,2.112-.045.533.463.01,2.117.006c4.9-.011,9.81,0,14.715,0" transform="translate(15.662 88.272)" fill="#010000"/>
          <path id="Trazado_714819" data-name="Trazado 714819" d="M16.8,0c4.861,0,9.722-.011,14.582.007,1.683.007,2.581,1.042,2.151,2.452a1.963,1.963,0,0,1-2.151,1.392c-2.939-.015-5.881,0-8.823,0q-10.108,0-20.213,0c-1.5,0-2.305-.6-2.346-1.694C-.055.626.512.015,2.092.008,7-.007,11.9,0,16.8,0" transform="translate(15.661 71.044)" fill="#010000"/>
          <path id="Trazado_714820" data-name="Trazado 714820" d="M16.781,0C21.6,0,26.422-.01,31.242.012c1.742.007,2.36.56,2.324,1.944a1.672,1.672,0,0,1-1.639,1.856c-.254.022-.512.041-.766.041q-14.461,0-28.918,0C.582,3.849-.022,3.275,0,1.817.019.6.693.016,2.192.008c4.864-.015,9.729,0,14.59,0" transform="translate(15.664 53.803)" fill="#010000"/>
          <path id="Trazado_714821" data-name="Trazado 714821" d="M10.771,3.857c-2.813,0-5.627.007-8.44,0A2.085,2.085,0,0,1,0,1.928C-.018.834.825.028,2.206.02q8.628-.044,17.259,0a1.82,1.82,0,0,1,2.062,2.007c-.022,1.219-.637,1.8-2.062,1.815-2.9.029-5.8.007-8.694.011" transform="translate(27.706 64.238)" fill="#010000"/>
          <path id="Trazado_714822" data-name="Trazado 714822" d="M10.883,3.852c-2.9,0-5.8.022-8.7-.007C.455,3.826-.551,2.254.318.943A2.23,2.23,0,0,1,2.263.011C8.022,0,13.781-.011,19.541.022a1.825,1.825,0,0,1,2.007,2.07c-.029,1.2-.652,1.745-2.092,1.756-2.858.015-5.715,0-8.573,0" transform="translate(27.679 47.021)" fill="#010000"/>
          <path id="Trazado_714823" data-name="Trazado 714823" d="M10.939.015c2.9,0,5.807.022,8.709-.007a1.966,1.966,0,0,1,1.628,3.075,1.618,1.618,0,0,1-1.513.733c-1.536.037-3.075.033-4.61.037q-6.209.006-12.421,0a2.506,2.506,0,0,1-1.712-.313C.363,3.012-.222,2.338.083,1.491A2.151,2.151,0,0,1,2.23,0c2.9.011,5.807,0,8.709,0Z" transform="translate(27.667 81.484)" fill="#010000"/>
          <path id="Trazado_714824" data-name="Trazado 714824" d="M10.764.036q4.474,0,8.952,0A1.583,1.583,0,0,1,21.38,1.1a2.089,2.089,0,0,1-.287,2.136c-.5.674-1.263.608-1.974.608q-6.523.017-13.043.007c-1.237,0-2.475.011-3.712,0C.88,3.833-.015,3.115,0,1.973A2.14,2.14,0,0,1,2.324.011C5.137-.008,7.951,0,10.764,0V.036" transform="translate(27.706 98.711)" fill="#010000"/>
          <path id="Trazado_714825" data-name="Trazado 714825" d="M8.221,7.247c-.983,0-1.963.007-2.946,0-.91-.007-1.517.475-1.5,1.329S4.414,9.866,5.316,9.84c.98-.029,1.963-.022,2.946,0a5.022,5.022,0,0,1,4.864,2.777,5.256,5.256,0,0,1-.482,5.6,4.625,4.625,0,0,1-2.8,1.76c-.781.217-1.1.471-1.079,1.329a1.842,1.842,0,0,1-2,2.051c-1.274-.04-1.885-.637-1.793-2.051.074-1.09-.269-1.466-1.326-1.3a12.278,12.278,0,0,1-1.278.015C1.313,20.066.654,19.65.588,18.53c-.081-1.443.4-2.139,1.664-2.187,1.834-.066,3.671-.015,5.505-.037a4.24,4.24,0,0,0,1.263-.144,1.108,1.108,0,0,0,.8-1.289A1.223,1.223,0,0,0,8.534,13.71c-1.153-.052-2.309.022-3.458-.041-2.007-.11-3.727-.817-4.548-2.8C-.834,7.583.484,4.416,3.942,3.613c.792-.18,1.035-.46,1.02-1.241A2.07,2.07,0,0,1,6.848,0,2.186,2.186,0,0,1,8.759,2.387c-.026.832.25,1.042,1.005.957a8.561,8.561,0,0,1,1.536,0,1.911,1.911,0,0,1,1.852,1.97C13.122,6.592,12.6,7.163,11.3,7.222c-1.024.048-2.051.011-3.075.011v.015" transform="translate(102.973 47.76)" fill="#010000"/>
          <path id="Trazado_714826" data-name="Trazado 714826" d="M2.92,0C5.892.008,5.892.008,5.892,2.972c0,2.916,0,2.916-2.913,2.924C0,5.9,0,5.9,0,2.906,0-.007,0-.007,2.92,0" transform="translate(55.932 101.092)" fill="#ffc403"/>
          <path id="Trazado_714827" data-name="Trazado 714827" d="M0,2.888C0-.01,0-.01,2.939,0s2.95.007,2.95,2.99c0,2.887,0,2.887-2.927,2.9C0,5.9,0,5.9,0,2.888" transform="translate(55.932 83.869)" fill="#ffc403"/>
          <path id="Trazado_714828" data-name="Trazado 714828" d="M2.957,5.874C0,5.882,0,5.882,0,2.976,0-.007,0-.007,3.012,0,5.888.012,5.888.012,5.888,2.836v.129c0,2.9,0,2.9-2.931,2.909" transform="translate(55.932 66.633)" fill="#ffc403"/>
        </g>
      </g>
      <g id="Grupo_1002998" data-name="Grupo 1002998" transform="translate(633.983 315.764) rotate(90)">
        <g id="Grupo_1002997" data-name="Grupo 1002997" transform="translate(0 0)" clip-path="url(#clip-path-6)">
          <path id="Trazado_714829" data-name="Trazado 714829" d="M79.555,12.005A39.879,39.879,0,0,1,80.586,6.6,8.965,8.965,0,0,1,88.15.273,18.765,18.765,0,0,1,90.945.026c7.8-.015,15.6.055,23.4-.026,4.235-.044,8.418,3.62,9.28,7.512a9.342,9.342,0,0,1,.247,2.044c.015,22,.059,44-.029,66.007-.018,4.22-1.8,7.987-4.286,11.357a21.669,21.669,0,0,1-12.41,8.182,5.279,5.279,0,0,1-1.657.306c-1.407-.114-1.583.6-1.554,1.786a23.8,23.8,0,0,1-.265,4.64,4.683,4.683,0,0,1-1.3,2.257c-3.358,3.447-6.768,6.846-10.193,10.23-2.614,2.585-5.266,5.137-7.924,7.678a5.977,5.977,0,0,1-4.312,1.591q-26.265-.006-52.53,0c-2.986,0-5.973.022-8.959-.007-4.076-.037-6.606-2.533-6.621-6.58-.026-8.138-.007-16.273-.007-24.411v-1.37c-5,1.488-10.4-1.289-11.508-6.19-.689-3.056-.368-5.943,1.944-8.293Q7.325,71.59,12.48,66.53a1.191,1.191,0,0,0,.276-1.687A52.389,52.389,0,0,1,7.726,52a60.777,60.777,0,0,1-1.348-7.98c-.453-3.988-.626-7.991-1.466-11.949C4.1,28.252,3.723,24.348,3.1,20.489c-.453-2.806-1-5.6-1.521-8.484Zm20.378,83.55c-.736-.14-1.333-.261-1.93-.368A21.576,21.576,0,0,1,83.79,86.213a21.805,21.805,0,0,1-3.962-13.025c-.044-18.6-.018-37.2-.018-55.8V16.011H32.052v3.94H75.773V71.767H74.514c-8.8,0-17.595-.011-26.388.029a2.88,2.88,0,0,0-1.712.655,12.955,12.955,0,0,1-8.852,3.31c-2.615-.041-5.229-.029-7.844.015a2.037,2.037,0,0,0-1.285.482Q22.456,82.037,16.553,87.9a2.63,2.63,0,0,0-.707,1.679c-.044,9.092-.033,18.184-.033,27.276,0,1.955.8,2.743,2.769,2.743H79.809c0-4.555.011-8.952,0-13.349a6.255,6.255,0,0,1,6.521-6.606c4.187.107,8.381.026,12.572.022.353,0,.707-.037,1.035-.055Zm2.305-39.729c-10.348.191-18.379,7.608-18.368,17.838.011,10.6,7.788,17.69,18.147,17.97,9.574.261,18.688-7.755,17.882-19.461-.567-8.186-7.965-16.442-17.661-16.346m17.635,5.06c.011-.221.026-.372.026-.519q-.006-25.469-.022-50.939a5.874,5.874,0,0,0-5.358-5.4Q102.008,3.99,89.5,4.018a4.23,4.23,0,0,0-1.061.191c-3.064.8-4.64,3.137-4.64,6.4q-.011,24.536,0,49.072v1.311c1.164-1.226,2.228-2.283,3.211-3.414a2.7,2.7,0,0,0,.74-1.513c.063-3.819.04-7.637.029-11.46-.007-2.99,1.7-4.776,4.666-4.747,6.433.063,12.863.018,19.3.022a3.865,3.865,0,0,1,4.176,4.11c.015,3.944-.007,7.888.022,11.832a2.008,2.008,0,0,0,.365,1.223c1.127,1.289,2.327,2.515,3.576,3.841m-81.9,2.88c0-6.3.026-12.52-.011-18.74a8.122,8.122,0,0,0-2.53-6c-1.657-1.58-3.428-3.038-5.2-4.489a1.771,1.771,0,0,0-1.359-.3Q19.817,36.64,10.8,39.166a1.207,1.207,0,0,0-.678.9,30.759,30.759,0,0,0,.239,4.666,55.35,55.35,0,0,0,3.189,12.388c.759,1.845,1.635,3.642,2.5,5.56,4.062-3.962,7.884-7.814,11.854-11.5,1.536-1.425,2.486-2.887,2.117-5.019-.007-.063.066-.14.114-.236h3.855c0,4.286.007,8.51,0,12.734-.007,2.968.928,4.71,3.984,5.111M29.99,54.728,28.863,55.8c-2.2,2.125-4.434,4.22-6.606,6.378-5.675,5.649-11.357,11.29-16.965,17a4.923,4.923,0,0,0,.423,7.287,5.143,5.143,0,0,0,6.86-.3c4.22-4.272,8.562-8.425,12.837-12.642,2.217-2.184,4.4-4.4,6.6-6.6.313-.313.608-.644,1-1.061-3.745-2.916-2.9-7.022-3.023-11.139m-2.007-38.7H6.283c.118.633.221,1.186.317,1.742.493,2.876,1,5.752,1.48,8.632.431,2.556.928,5.107,1.215,7.681.125,1.153.641,1.2,1.466.976,2.309-.622,4.607-1.281,6.916-1.911q5.148-1.4,10.307-2.769Zm21.7,51.686h22.1V59.858H49.68Zm62.177-13.588V43.931H92.06V54.2a25.481,25.481,0,0,1,9.9-2.4,22.954,22.954,0,0,1,9.9,2.324M71.8,47.849c-4.89,0-9.652,0-14.413.011a1.22,1.22,0,0,0-.784.206c-2.545,2.519-5.063,5.06-7.663,7.667H71.8ZM41.958,56.437a15.212,15.212,0,0,0,1.826-1.3c3.771-3.771,7.516-7.567,11.327-11.415l-7.078-7.225c-1.617,1.664-3.056,3.218-4.574,4.688A4.11,4.11,0,0,0,41.877,44.8c.261,3.712.081,7.457.081,11.64M71.807,24.006h-19.8v6.179c1.212-.493,2.324-.935,3.428-1.4,4.091-1.716,7.008-.648,8.326,3.038h8.046Zm-31.768-.041V38.846a10.967,10.967,0,0,0,1.178-.858c1.48-1.455,2.924-2.942,4.408-4.393.692-.674,1.44-1.289,2.239-2v-7.63ZM83.8,116.7c4.515-4.393,8.849-8.613,13.393-13.036-3.992,0-7.634-.026-11.276.015a2.055,2.055,0,0,0-2.106,2.1c-.037,3.561-.011,7.122-.011,10.918M63.249,35.933c-1.046,2.629-2.081,5.222-3.126,7.851H71.759V35.933ZM32.881,71.759c2,0,3.741.066,5.472-.018A7.785,7.785,0,0,0,43.416,69.7c2.508-2.305,2.784-5.27,2.471-8.366a1.827,1.827,0,0,0-3.031-1.068c-1.171.887-.88,2.128-.891,3.3A3.958,3.958,0,0,1,37.8,67.79a2.012,2.012,0,0,0-1.237.324c-1.208,1.112-2.342,2.305-3.679,3.646M57.3,40.083c.825-2.062,1.712-4.157,2.478-6.293a1.65,1.65,0,0,0-.346-1.414,1.586,1.586,0,0,0-1.374-.247c-2.151.759-4.264,1.617-6.326,2.412,1.849,1.838,3.657,3.638,5.568,5.542m-21.391-6.1V24.013H32c0,2.147-.007,4.216.007,6.286a.961.961,0,0,0,.2.659c1.189,1.005,2.4,1.974,3.7,3.023" transform="translate(2.113 2.216)" fill="#010000"/>
          <path id="Trazado_714830" data-name="Trazado 714830" d="M84.122,79.54V83.6c-.328.018-.681.055-1.035.055-4.191.007-8.385.085-12.572-.018a6.249,6.249,0,0,0-6.522,6.606c.015,4.4,0,8.794,0,13.349h-1.23q-30,0-60,0C.8,103.586,0,102.8,0,100.846,0,91.754-.01,82.662.031,73.571a2.653,2.653,0,0,1,.711-1.679Q6.63,66.014,12.621,60.244a2.058,2.058,0,0,1,1.285-.482q3.922-.066,7.84-.015a12.94,12.94,0,0,0,8.856-3.31,2.876,2.876,0,0,1,1.712-.652c8.794-.044,17.591-.029,26.388-.029h1.259V3.94H16.241V0H64V1.381c0,18.6-.026,37.2.018,55.792A21.808,21.808,0,0,0,67.979,70.2a21.581,21.581,0,0,0,14.214,8.974c.6.107,1.193.225,1.93.365M4.015,99.532H59.94V87.715H4.015ZM59.984,79.742H4.059v3.844H59.984Zm0-7.972H4.063v3.841H59.984ZM28.172,67.642H59.94V63.8H28.172Z" transform="translate(17.925 18.228)" fill="#abffff"/>
          <path id="Trazado_714831" data-name="Trazado 714831" d="M18.368,0c9.7-.1,17.094,8.157,17.657,16.346.81,11.706-8.3,19.719-17.878,19.461C7.788,35.529.011,28.436,0,17.835-.011,7.609,8.02.192,18.368,0M16.136,8.139c-.8.534-1.418.917-2.007,1.333-2.305,1.635-2.427,5.8-.663,7.722,1.392,1.521,3.322,2.058,5,3.06a3.848,3.848,0,0,1,1.547,1.591,1.544,1.544,0,0,1-1.2,2.051,2.081,2.081,0,0,1-2.685-1.657c-.074-.729-.015-1.473-.015-2.254H12.226c-.475,4.375,1.09,6.455,3.955,7.634v4.213h3.911c0-1.16-.055-2.276.033-3.377a1.58,1.58,0,0,1,.692-1.042,5.878,5.878,0,0,0,3.255-4.71,5.4,5.4,0,0,0-3.126-5.59c-1.2-.622-2.394-1.241-3.609-1.826-.884-.423-1.425-1.049-1.108-2.04.361-1.127,1.3-1.377,2.371-1.278a1.523,1.523,0,0,1,1.488,1.738c.011.729,0,1.462,0,2.151h3.984c0-.541-.026-.994.007-1.447a5.66,5.66,0,0,0-3.513-6,1.343,1.343,0,0,1-.457-1c-.055-1.1-.022-2.217-.022-3.373H16.136Z" transform="translate(85.984 58.041)" fill="#fcd770"/>
          <path id="Trazado_714832" data-name="Trazado 714832" d="M36.084,56.874c-1.248-1.329-2.449-2.552-3.576-3.844a1.992,1.992,0,0,1-.368-1.219c-.026-3.944,0-7.888-.022-11.832a3.866,3.866,0,0,0-4.176-4.113c-6.429,0-12.863.044-19.292-.018-2.964-.029-4.677,1.757-4.669,4.747.015,3.819.033,7.641-.029,11.46a2.7,2.7,0,0,1-.74,1.513C2.232,54.7,1.164,55.755,0,56.981V55.67Q0,31.134,0,6.6C0,3.336,1.58,1,4.643.2A4.26,4.26,0,0,1,5.7.007Q18.215,0,30.726.018a5.871,5.871,0,0,1,5.358,5.4q.033,25.469.022,50.939c0,.147-.011.295-.022.519M32.122,17.959c0-3.362.018-6.724-.007-10.086A3.86,3.86,0,0,0,28.226,3.98q-9.9-.006-19.793,0A4.035,4.035,0,0,0,4.01,8.3C3.937,14.733,3.959,21.166,4,27.6a4,4,0,0,0,4.1,4.264q10.081.055,20.165,0a3.832,3.832,0,0,0,3.852-3.944c.018-3.318,0-6.639,0-9.961" transform="translate(85.907 6.227)" fill="#969faa"/>
          <path id="Trazado_714833" data-name="Trazado 714833" d="M27.854,29.568c-3.06-.4-3.992-2.139-3.984-5.111.007-4.224,0-8.447,0-12.734H20.018c-.048.1-.125.173-.114.236.368,2.132-.582,3.594-2.121,5.023-3.97,3.686-7.788,7.538-11.85,11.5-.869-1.919-1.746-3.716-2.5-5.56A54.878,54.878,0,0,1,.239,10.538,30.808,30.808,0,0,1,0,5.872a1.2,1.2,0,0,1,.678-.9Q9.7,2.446,18.751.035A1.758,1.758,0,0,1,20.11.341c1.771,1.447,3.546,2.905,5.2,4.485a8.128,8.128,0,0,1,2.53,6c.037,6.22.011,12.443.011,18.74" transform="translate(12.233 36.409)" fill="#f0d0b4"/>
          <path id="Trazado_714834" data-name="Trazado 714834" d="M26.11,0c.121,4.121-.722,8.223,3.023,11.143-.39.412-.685.744-1,1.061-2.2,2.2-4.386,4.415-6.6,6.6C17.257,23.019,12.92,27.172,8.7,31.444a5.143,5.143,0,0,1-6.86.3,4.926,4.926,0,0,1-.423-7.287C7.02,18.743,12.7,13.1,18.377,7.457c2.173-2.162,4.4-4.257,6.61-6.378C25.3.773,25.62.468,26.11,0" transform="translate(5.993 56.941)" fill="#b20d0d"/>
          <path id="Trazado_714835" data-name="Trazado 714835" d="M21.7,0V14.35c-3.436.924-6.875,1.838-10.307,2.773-2.309.626-4.607,1.285-6.916,1.907-.825.225-1.34.177-1.466-.976-.287-2.574-.784-5.122-1.215-7.681C1.315,7.494.814,4.618.317,1.742.221,1.189.118.637,0,0Z" transform="translate(8.396 18.239)" fill="#b20d0d"/>
          <rect id="Rectángulo_352939" data-name="Rectángulo 352939" width="22.102" height="7.855" transform="translate(51.793 62.071)" fill="#ffeaa7"/>
          <path id="Trazado_714836" data-name="Trazado 714836" d="M19.8,10.193A22.954,22.954,0,0,0,9.9,7.869a25.416,25.416,0,0,0-9.9,2.4V0H19.8Z" transform="translate(94.174 46.148)" fill="#69d6f4"/>
          <path id="Trazado_714837" data-name="Trazado 714837" d="M22.857,0V7.885H0C2.6,5.274,5.119,2.733,7.663.218a1.226,1.226,0,0,1,.781-.21C13.205,0,17.966,0,22.857,0" transform="translate(51.057 50.065)" fill="#ffeaa7"/>
          <path id="Trazado_714838" data-name="Trazado 714838" d="M.1,19.944C.1,15.761.276,12.012.014,8.3A4.123,4.123,0,0,1,1.6,4.684C3.115,3.218,4.555,1.661,6.175,0l7.074,7.221C9.438,11.069,5.693,14.866,1.925,18.637A15.261,15.261,0,0,1,.1,19.944" transform="translate(43.976 38.709)" fill="#b20d0d"/>
          <path id="Trazado_714839" data-name="Trazado 714839" d="M19.8,0V7.821H11.754C10.436,4.135,7.519,3.067,3.428,4.783c-1.1.46-2.213.9-3.428,1.4V0Z" transform="translate(54.12 26.222)" fill="#ffeaa7"/>
          <path id="Trazado_714840" data-name="Trazado 714840" d="M0,0H7.825V7.634c-.8.711-1.547,1.322-2.239,2C4.1,11.08,2.659,12.568,1.178,14.023A10.919,10.919,0,0,1,0,14.884Z" transform="translate(42.152 26.178)" fill="#feeaa7"/>
          <path id="Trazado_714841" data-name="Trazado 714841" d="M.007,13.047c0-3.8-.022-7.361.015-10.922A2.053,2.053,0,0,1,2.128.023C5.766-.018,9.408.008,13.4.008,8.855,4.431,4.521,8.651.007,13.047" transform="translate(85.904 105.865)" fill="#06d1d1"/>
          <path id="Trazado_714842" data-name="Trazado 714842" d="M3.13,0h8.51V7.851H0C1.05,5.222,2.084,2.629,3.13,0" transform="translate(62.233 38.146)" fill="#ffeaa7"/>
          <path id="Trazado_714843" data-name="Trazado 714843" d="M0,11.93C1.337,10.589,2.467,9.4,3.679,8.284A2.006,2.006,0,0,1,4.916,7.96,3.951,3.951,0,0,0,9.081,3.736C9.1,2.569,8.8,1.328,9.976.441a1.827,1.827,0,0,1,3.031,1.072c.313,3.093.037,6.058-2.471,8.363a7.8,7.8,0,0,1-5.067,2.036C3.738,12,2,11.93,0,11.93" transform="translate(34.994 62.042)" fill="#efcfb3"/>
          <path id="Trazado_714844" data-name="Trazado 714844" d="M5.564,8.012,0,2.47C2.058,1.674,4.172.816,6.326.061A1.575,1.575,0,0,1,7.7.3a1.648,1.648,0,0,1,.35,1.418c-.77,2.136-1.653,4.227-2.482,6.29" transform="translate(53.848 34.284)" fill="#a8b0bb"/>
          <path id="Trazado_714845" data-name="Trazado 714845" d="M3.909,9.968C2.616,8.919,1.4,7.95.212,6.945a.961.961,0,0,1-.2-.659C-.006,4.216,0,2.147,0,0H3.909Z" transform="translate(34.112 26.23)" fill="#ffeaa7"/>
          <path id="Trazado_714846" data-name="Trazado 714846" d="M0,0H55.925V11.817H0ZM4.242,7.825H51.933V3.988H4.242Z" transform="translate(21.94 105.943)"/>
          <rect id="Rectángulo_352940" data-name="Rectángulo 352940" width="55.925" height="3.844" transform="translate(21.984 97.97)"/>
          <rect id="Rectángulo_352941" data-name="Rectángulo 352941" width="55.921" height="3.841" transform="translate(21.988 90.002)"/>
          <rect id="Rectángulo_352942" data-name="Rectángulo 352942" width="31.768" height="3.841" transform="translate(46.096 82.025)"/>
          <path id="Trazado_714847" data-name="Trazado 714847" d="M3.995,4.1V0H7.95c0,1.156-.033,2.268.022,3.373a1.343,1.343,0,0,0,.457,1,5.66,5.66,0,0,1,3.513,6c-.033.453-.007.906-.007,1.447H7.95c0-.689.007-1.421,0-2.151A1.523,1.523,0,0,0,6.458,7.928c-1.075-.1-2.011.151-2.371,1.278-.317.991.225,1.617,1.108,2.04,1.215.586,2.412,1.2,3.609,1.826a5.4,5.4,0,0,1,3.126,5.59,5.878,5.878,0,0,1-3.255,4.71,1.58,1.58,0,0,0-.692,1.042c-.088,1.1-.033,2.217-.033,3.377H4.039V23.578C1.174,22.4-.391,20.319.084,15.945H3.973c0,.781-.059,1.525.015,2.254a2.081,2.081,0,0,0,2.685,1.657,1.544,1.544,0,0,0,1.2-2.051,3.848,3.848,0,0,0-1.547-1.591c-1.675-1-3.605-1.539-5-3.06-1.764-1.926-1.642-6.087.663-7.722.589-.416,1.2-.8,2.007-1.333" transform="translate(98.126 62.082)" fill="#010100"/>
          <path id="Trazado_714848" data-name="Trazado 714848" d="M28.162,13.986c0,3.322.015,6.639,0,9.961a3.832,3.832,0,0,1-3.852,3.944q-10.086.055-20.165,0a4,4,0,0,1-4.1-4.264C0,17.193-.023,10.756.047,4.323A4.041,4.041,0,0,1,4.473,0q9.893.011,19.789.007A3.858,3.858,0,0,1,28.154,3.9c.022,3.362.007,6.728.007,10.09M8.17,4.065H4.329V15.908H8.17ZM20.234,23.851h3.874V20.006H20.234Zm-7.961,0h3.874V20H12.272Zm-7.954.007H8.185V19.988H4.318Zm15.919-8h3.856V12.049H20.237Zm-7.954.026h3.87V12.016h-3.87Zm7.961-7.972h3.874V4.051H20.245Zm-7.95-.011h3.848V4.032H12.294Z" transform="translate(89.867 10.2)"/>
          <rect id="Rectángulo_352943" data-name="Rectángulo 352943" width="47.691" height="3.837" transform="translate(26.182 109.934)" fill="#b20d0d"/>
          <rect id="Rectángulo_352944" data-name="Rectángulo 352944" width="3.841" height="11.843" transform="translate(94.196 14.269)" fill="#ff826e"/>
          <rect id="Rectángulo_352945" data-name="Rectángulo 352945" width="3.874" height="3.844" transform="translate(110.1 30.207)" fill="#ff826e"/>
          <rect id="Rectángulo_352946" data-name="Rectángulo 352946" width="3.874" height="3.855" transform="translate(102.139 30.199)" fill="#ff826e"/>
          <rect id="Rectángulo_352947" data-name="Rectángulo 352947" width="3.867" height="3.874" transform="translate(94.185 30.185)" fill="#ff826e"/>
          <rect id="Rectángulo_352948" data-name="Rectángulo 352948" width="3.855" height="3.815" transform="translate(110.104 22.249)" fill="#ff826e"/>
          <rect id="Rectángulo_352949" data-name="Rectángulo 352949" width="3.87" height="3.874" transform="translate(102.15 22.22)" fill="#ff826e"/>
          <rect id="Rectángulo_352950" data-name="Rectángulo 352950" width="3.874" height="3.867" transform="translate(110.111 14.247)" fill="#ff826e"/>
          <rect id="Rectángulo_352951" data-name="Rectángulo 352951" width="3.848" height="3.874" transform="translate(102.161 14.232)" fill="#ff826e"/>
        </g>
      </g>
      <g id="Grupo_1003009" data-name="Grupo 1003009">
        <g id="Grupo_1003008" data-name="Grupo 1003008" clip-path="url(#clip-path)">
          <g id="Grupo_1003001" data-name="Grupo 1003001" transform="translate(87.86 196.939)" opacity="0.6">
            <g id="Grupo_1003000" data-name="Grupo 1003000">
              <g id="Grupo_1002999" data-name="Grupo 1002999" clip-path="url(#clip-path-8)">
                <path id="Trazado_714849" data-name="Trazado 714849" d="M82.814,41.409A41.407,41.407,0,1,0,41.4,82.814a41.408,41.408,0,0,0,41.409-41.4" transform="translate(-0.001 0)" fill="#ff8989"/>
              </g>
            </g>
          </g>
          <path id="Trazado_714850" data-name="Trazado 714850" d="M4.577,0h0A4.577,4.577,0,0,0,0,4.577v31.5a4.577,4.577,0,1,0,9.154,0V4.577A4.577,4.577,0,0,0,4.577,0" transform="translate(124.69 218.02)" fill="#fff"/>
          <path id="Trazado_714851" data-name="Trazado 714851" d="M40.65,4.577h0A4.577,4.577,0,0,0,36.073,0H4.577a4.577,4.577,0,1,0,0,9.154h31.5A4.577,4.577,0,0,0,40.65,4.577" transform="translate(108.94 233.77)" fill="#fff"/>
          <g id="Grupo_1003004" data-name="Grupo 1003004" transform="translate(308.281 196.939)" opacity="0.6">
            <g id="Grupo_1003003" data-name="Grupo 1003003">
              <g id="Grupo_1003002" data-name="Grupo 1003002" clip-path="url(#clip-path-9)">
                <path id="Trazado_714852" data-name="Trazado 714852" d="M82.814,41.409A41.407,41.407,0,1,0,41.4,82.814a41.408,41.408,0,0,0,41.409-41.4" transform="translate(-0.001 0)" fill="#fff0bf"/>
              </g>
            </g>
          </g>
          <path id="Trazado_714853" data-name="Trazado 714853" d="M4.577,0h0A4.577,4.577,0,0,0,0,4.577v31.5a4.577,4.577,0,1,0,9.154,0V4.577A4.577,4.577,0,0,0,4.577,0" transform="translate(345.111 218.02)" fill="#fff"/>
          <path id="Trazado_714854" data-name="Trazado 714854" d="M40.65,4.577h0A4.577,4.577,0,0,0,36.073,0H4.577a4.577,4.577,0,0,0,0,9.154h31.5A4.577,4.577,0,0,0,40.65,4.577" transform="translate(329.361 233.77)" fill="#fff"/>
          <g id="Grupo_1003007" data-name="Grupo 1003007" transform="translate(528.701 196.939)" opacity="0.6">
            <g id="Grupo_1003006" data-name="Grupo 1003006">
              <g id="Grupo_1003005" data-name="Grupo 1003005" clip-path="url(#clip-path-10)">
                <path id="Trazado_714855" data-name="Trazado 714855" d="M82.814,41.409A41.407,41.407,0,1,0,41.4,82.814a41.408,41.408,0,0,0,41.409-41.4" transform="translate(0 0)" fill="#abffff"/>
              </g>
            </g>
          </g>
          <path id="Trazado_714856" data-name="Trazado 714856" d="M4.577,0h0A4.577,4.577,0,0,0,0,4.577v31.5a4.577,4.577,0,1,0,9.154,0V4.577A4.577,4.577,0,0,0,4.577,0" transform="translate(565.532 218.02)" fill="#fff"/>
          <path id="Trazado_714857" data-name="Trazado 714857" d="M40.65,4.577h0A4.577,4.577,0,0,0,36.073,0H4.577a4.577,4.577,0,0,0,0,9.154h31.5A4.577,4.577,0,0,0,40.65,4.577" transform="translate(549.786 233.77)" fill="#fff"/>
        </g>
      </g>
    </g>
  </g>
</svg>
