<svg id="Grupo_1003011" data-name="Grupo 1003011" xmlns="http://www.w3.org/2000/svg" xmlns:xlink="http://www.w3.org/1999/xlink" width="820" height="564.235" viewBox="0 0 820 564.235">
  <defs>
    <clipPath id="clip-path">
      <rect id="Rectángulo_352957" data-name="Rectángulo 352957" width="820" height="564.235" fill="none"/>
    </clipPath>
    <linearGradient id="linear-gradient" x1="0.5" y1="0.445" x2="0.5" y2="1" gradientUnits="objectBoundingBox">
      <stop offset="0" stop-color="#b20d0d"/>
      <stop offset="1" stop-color="#590707"/>
    </linearGradient>
    <linearGradient id="linear-gradient-2" x1="0.5" x2="0.5" y2="1" gradientUnits="objectBoundingBox">
      <stop offset="0" stop-color="#ba4040"/>
      <stop offset="1" stop-color="#5d2020"/>
    </linearGradient>
    <linearGradient id="linear-gradient-3" x1="0.5" x2="0.5" y2="1" gradientUnits="objectBoundingBox">
      <stop offset="0" stop-color="#fcc510"/>
      <stop offset="1" stop-color="#fc9240"/>
    </linearGradient>
    <linearGradient id="linear-gradient-4" x1="0.5" x2="0.5" y2="1" gradientUnits="objectBoundingBox">
      <stop offset="0" stop-color="#06d1d1"/>
      <stop offset="1" stop-color="#036969"/>
    </linearGradient>
    <linearGradient id="linear-gradient-5" x1="0.5" y1="0.5" x2="0.5" y2="-0.16" gradientUnits="objectBoundingBox">
      <stop offset="0" stop-color="#ffc403"/>
      <stop offset="1" stop-color="#ff9a03"/>
    </linearGradient>
    <clipPath id="clip-path-3">
      <rect id="Rectángulo_352936" data-name="Rectángulo 352936" width="164.523" height="164.376" fill="none"/>
    </clipPath>
    <clipPath id="clip-path-5">
      <rect id="Rectángulo_352938" data-name="Rectángulo 352938" width="154.805" height="154.403" fill="none"/>
    </clipPath>
    <clipPath id="clip-path-6">
      <rect id="Rectángulo_352952" data-name="Rectángulo 352952" width="150.323" height="149.783" fill="none"/>
    </clipPath>
    <clipPath id="clip-path-8">
      <rect id="Rectángulo_352953" data-name="Rectángulo 352953" width="97.097" height="97.097" fill="#ff8989"/>
    </clipPath>
    <clipPath id="clip-path-9">
      <rect id="Rectángulo_352954" data-name="Rectángulo 352954" width="97.095" height="97.097" fill="#fff0bf"/>
    </clipPath>
    <clipPath id="clip-path-10">
      <rect id="Rectángulo_352955" data-name="Rectángulo 352955" width="97.097" height="97.097" fill="#abffff"/>
    </clipPath>
  </defs>
  <g id="Grupo_1003010" data-name="Grupo 1003010" clip-path="url(#clip-path)">
    <g id="Grupo_1002990" data-name="Grupo 1002990">
      <g id="Grupo_1002989" data-name="Grupo 1002989" clip-path="url(#clip-path)">
        <path id="Trazado_714767" data-name="Trazado 714767" d="M136.5,0h0A131.956,131.956,0,0,0,4.541,131.956V291.687a131.956,131.956,0,0,0,263.913,0V131.956A131.959,131.959,0,0,0,136.5,0" transform="translate(15.065)" fill="#ffe1e1"/>
        <path id="Trazado_714768" data-name="Trazado 714768" d="M196.112,32.563h0A131.956,131.956,0,0,0,64.156,164.519V324.25a131.956,131.956,0,0,0,263.913,0V164.519A131.959,131.959,0,0,0,196.112,32.563" transform="translate(212.839 108.028)" fill="#ffe591"/>
        <path id="Trazado_714769" data-name="Trazado 714769" d="M256.213,0h0A131.956,131.956,0,0,0,124.257,131.956V291.687a131.956,131.956,0,1,0,263.913,0V131.956A131.956,131.956,0,0,0,256.213,0" transform="translate(412.225)" fill="#abffff"/>
        <path id="Trazado_714770" data-name="Trazado 714770" d="M151.562,217.521C67.992,217.521,0,149.529,0,65.959H44.686a106.876,106.876,0,0,0,213.752,0h44.686c0,83.57-67.992,151.562-151.562,151.562" transform="translate(0 218.82)" fill="url(#linear-gradient)"/>
        <path id="Trazado_714771" data-name="Trazado 714771" d="M173.508,126.1A78.266,78.266,0,1,1,95.244,47.832,78.265,78.265,0,0,1,173.508,126.1" transform="translate(56.318 158.683)" fill="url(#linear-gradient-2)"/>
        <path id="Trazado_714772" data-name="Trazado 714772" d="M85.7,182.413a65.853,65.853,0,1,1,65.851-65.851A65.925,65.925,0,0,1,85.7,182.413" transform="translate(65.859 168.221)" fill="#b20d0d"/>
        <path id="Trazado_714773" data-name="Trazado 714773" d="M233.366,126.1A78.266,78.266,0,1,1,155.1,47.832,78.265,78.265,0,0,1,233.366,126.1" transform="translate(254.898 158.683)" fill="url(#linear-gradient-3)"/>
        <path id="Trazado_714774" data-name="Trazado 714774" d="M145.561,182.413a65.853,65.853,0,1,1,65.851-65.851,65.925,65.925,0,0,1-65.851,65.851" transform="translate(264.439 168.221)" fill="#ffc403"/>
        <path id="Trazado_714775" data-name="Trazado 714775" d="M293.22,126.1a78.264,78.264,0,1,1-78.264-78.264A78.265,78.265,0,0,1,293.22,126.1" transform="translate(453.481 158.683)" fill="url(#linear-gradient-4)"/>
        <path id="Trazado_714776" data-name="Trazado 714776" d="M205.419,182.413a65.853,65.853,0,1,1,65.851-65.851,65.925,65.925,0,0,1-65.851,65.851" transform="translate(463.019 168.221)" fill="#3ab2b2"/>
        <path id="Trazado_714777" data-name="Trazado 714777" d="M362.982,182.417H318.3a106.876,106.876,0,0,0-213.752,0H59.858c0-83.57,67.992-151.562,151.562-151.562S362.982,98.847,362.982,182.417" transform="translate(198.58 102.362)" fill="url(#linear-gradient-5)"/>
        <path id="Trazado_714778" data-name="Trazado 714778" d="M271.278,217.521c-83.57,0-151.562-67.992-151.562-151.562H164.4a106.876,106.876,0,0,0,213.752,0H422.84c0,83.57-67.992,151.562-151.562,151.562" transform="translate(397.16 218.82)" fill="url(#linear-gradient-4)"/>
      </g>
    </g>
    <g id="Grupo_1002992" data-name="Grupo 1002992" transform="translate(60.152 28.388)">
      <g id="Grupo_1002991" data-name="Grupo 1002991" clip-path="url(#clip-path-3)">
        <path id="Trazado_714779" data-name="Trazado 714779" d="M29.456,155.239c-3.2-1.2-5.768-3.057-7.046-6.416a11.415,11.415,0,0,1-.514-4.21c0-8.376.047-16.752.086-25.128a18.474,18.474,0,0,1,4.9-12.465c3.847-4.378,8.786-6.744,14.308-8.173C47.909,97.116,54.744,96,61.539,94.69a63.7,63.7,0,0,1,6.718-1.269c.76-.06.812-.544.812-1.11,0-1.442-.06-2.884.022-4.322.052-.82-.492-1.131-.98-1.468A24.55,24.55,0,0,1,57.87,70.287,2.252,2.252,0,0,0,56.125,68.2a6.919,6.919,0,0,1-4.978-7.094c.026-.587,0-1.179.073-1.757.216-1.736-.41-2.78-1.857-3.981-3.45-2.867-2.232-8.734,1.136-10.25a3,3,0,0,0,2.034-3.277c-.043-9.555,3.985-17.3,11.049-23.47A27.237,27.237,0,0,1,78.3,11.733c7.24-.881,14.481-.617,21.156,2.746A30.744,30.744,0,0,1,116.173,35.35a26.942,26.942,0,0,1,.617,7.689,1.341,1.341,0,0,0,1,1.6c4.594,1.632,5.259,6.934,2.742,10.289-.065.082-.13.2-.216.229-2.85,1.1-2.163,3.553-2.159,5.716a7.4,7.4,0,0,1-3.67,6.8c-.263.164-.557.423-.825.414-2.064-.082-2.029,1.334-2.323,2.824A24.588,24.588,0,0,1,101.11,86.569a1.458,1.458,0,0,0-.626,1.373,16.842,16.842,0,0,1-.017,3.2c-.281,1.779.492,2.34,2.146,2.634,5.341.95,10.643,2.133,15.979,3.1a75.252,75.252,0,0,1,12.793,2.966c6,2.211,11.066,5.63,14.058,11.523a21.509,21.509,0,0,1,2.159,9.667c.069,8-.009,16.014.035,24.018.026,4.546-3.268,9.231-7.962,9.943-.06.009-.1.16-.151.246Zm95.957-21.061a2.662,2.662,0,0,1-2.556-2.8,29.952,29.952,0,0,1,.363-4.572c.194-2.3.285-4.624.691-6.891a130.479,130.479,0,0,1,3.523-15.06c.341-1.123.112-1.33-.941-1.533-5.211-1.01-10.4-2.111-15.6-3.173a1.61,1.61,0,0,0-1.736.833c-1.524,2.254-3.022,4.525-4.572,6.757q-6.671,9.6-13.384,19.165c-2.038,2.888-3.821,5.963-4.046,9.5-.263,4.223,0,8.48-.013,12.724,0,.889.1,1.325,1.187,1.321q16.7-.065,33.409,0c1.084,0,1.192-.423,1.174-1.308-.047-2.452-.03-4.909-.009-7.361.013-1.964.553-2.513,2.5-2.625,1.852.285,2.306.786,2.323,2.664.017,2.452.047,4.909-.017,7.361-.026.954.173,1.3,1.2,1.265,2.716-.091,5.436-.047,8.156-.056,3.64-.013,5.678-2.021,5.682-5.643q.013-11.683-.013-23.371a31.232,31.232,0,0,0-.3-3.294c-.648-5.889-4.279-9.412-9.093-12.1-.725-.4-1.1-.315-1.351.553-.82,2.763-1.61,5.531-2.215,8.354a88.3,88.3,0,0,0-2.025,16.126c-.043,1.8-.674,2.763-2.336,3.165M64.38,150.434c5.544,0,11.092-.022,16.635.022,1.006.009,1.377-.216,1.356-1.3-.078-3.843.069-7.689-.095-11.528a16.114,16.114,0,0,0-2.686-8.592c-5.924-8.622-11.925-17.192-17.767-25.875-1.55-2.31-3.022-3.946-5.962-2.383-.082.043-.212,0-.315.013-4.287.838-8.575,1.692-12.866,2.508-.976.186-1.127.522-.82,1.528a97.907,97.907,0,0,1,3.657,16.614,134.78,134.78,0,0,1,1.118,14.675c.056,4.214.091,8.436-.03,12.646-.043,1.485.44,1.727,1.783,1.71,5.328-.078,10.66-.035,15.992-.035M84.807,57.3v-.03H60.028c-3.769,0-3.769,0-3.73,3.7.026,2.2.566,2.763,2.785,2.91a7.1,7.1,0,0,0,.958,0,1.931,1.931,0,0,1,2.167,1.6c.363,1.157.078,2.336.3,3.458A21.5,21.5,0,0,0,74.574,84.8a21.649,21.649,0,0,0,19.532.276c7.422-3.432,12.02-9.024,12.715-17.456.272-3.3.363-3.294,3.657-3.769,2.2-.315,2.742-.963,2.746-3.251a12.558,12.558,0,0,1,.013-1.757c.19-1.287-.337-1.572-1.572-1.563-8.95.052-17.9.026-26.859.026M84.673,44.1v-.009c8.635,0,17.266-.017,25.9.022,1.045,0,1.589-.151,1.438-1.356-.19-1.511-.052-3.027-.268-4.572-1.01-7.223-4.758-12.7-10.422-17.011-.734-.557-1.585-1.714-2.5-1.252-.669.337-.147,1.654-.246,2.53a2.627,2.627,0,0,0,0,.319c-.039,1.515-1.144,1.952-2.323,2.042a1.849,1.849,0,0,1-2.215-1.9c-.06-1.438-.1-2.88-.065-4.318a1.236,1.236,0,0,0-1.1-1.429c-1.481-.4-3.027-.406-4.477-.73-1.369-.3-1.269.186-1.265,1.088.017,3.255.013,6.506,0,9.762,0,2.016-1.088,3.411-2.56,3.342-1.412-.069-2.206-1.235-2.236-3.294,0-.212,0-.427,0-.639,0-3.1.009-6.191-.009-9.283,0-.527.224-1.386-.764-1.148-1.628.393-3.32.3-4.939.812-.825.263-1.114.574-1.079,1.412.056,1.33.065,2.668-.009,4a2.426,2.426,0,0,1-2.457,2.366,2.459,2.459,0,0,1-2.353-2.483c-.022-.587-.013-1.174,0-1.762.017-.993-.281-1.045-1.114-.544a21.316,21.316,0,0,0-3.644,2.724c-5.652,5.4-8.834,11.9-8.717,19.878.017,1.235.363,1.468,1.515,1.459,8.635-.047,17.266-.026,25.9-.026M26.611,132.421h.1c0,4.482-.013,8.967.009,13.453a4.855,4.855,0,0,0,4.486,4.533c3.091.022,6.187-.026,9.278.035.993.017,1.364-.177,1.36-1.287-.017-10.682.16-21.372-1.844-31.937-.686-3.618-1.606-7.176-2.586-10.716-.255-.915-.781-1.11-1.585-.566-.941.643-1.921,1.226-2.841,1.9a14.752,14.752,0,0,0-6.3,10.906c-.371,4.529-.082,9.114-.082,13.678M95.6,90.014a28.085,28.085,0,0,1-21.648.052c0,1.4.1,2.686-.022,3.951a6.858,6.858,0,0,0,2.249,5.652,35.254,35.254,0,0,0,7.443,5.574,2.032,2.032,0,0,0,2.228-.086,29.533,29.533,0,0,0,7.512-5.587c1.183-1.3,2.245-2.707,2.236-4.611-.009-1.6,0-3.2,0-4.944M84.539,52.4h20.15c3.463,0,6.93.017,10.392-.009,1.645-.013,2.327-.73,2.042-2.081-.242-1.166-1.11-1.4-2.15-1.395q-30.387.006-60.769.013a1.587,1.587,0,0,0-1.2.25c-.617.531-1.062,1.14-.786,1.926a1.951,1.951,0,0,0,2.094,1.313c10.077-.035,20.15-.022,30.227-.017m8.385,63.623a47.154,47.154,0,0,1-6.77-3.791,2.434,2.434,0,0,0-2.759-.177c-2.133,1.252-4.24,2.552-6.412,3.726-.652.35-.41.5-.138.889,2.616,3.735,5.216,7.478,7.845,11.26q4.112-5.952,8.234-11.908m11.657-17c-.6-.2-1.114-.082-1.636-.246-2.47-.764-2.478-.725-3.916,1.541-.246.393-.548.747-.807,1.131-2.15,3.178-5.349,5.125-8.415,7.24,1.157.73,2.245,1.494,3.407,2.129,1.433.79,3.419-.155,4.853-2.245,2.154-3.135,4.287-6.286,6.515-9.55m-25.063,9.585c-3.67-2.288-7.133-4.689-9.166-8.536-.73-1.386-1.338-2.172-3.057-1.511a4.111,4.111,0,0,1-2.517.337c.7,1.045,1.248,1.926,1.865,2.755,2.072,2.793,3.679,5.928,6.083,8.48a2.764,2.764,0,0,0,3.7.389c1.032-.6,2.034-1.252,3.1-1.913" transform="translate(12.489 9.107)" fill="#010000"/>
        <path id="Trazado_714780" data-name="Trazado 714780" d="M65.761,108.6H60.325c-2.344,0-4.862-2.871-4.659-5.177.134-1.485-.06-3,.047-4.482A1.663,1.663,0,0,0,54.337,97a33.5,33.5,0,0,1-8.622-3.67c-.734-.462-1.036.086-1.464.466-1.459,1.3-2.612,2.923-4.283,4.007a5.434,5.434,0,0,1-6.74-.652c-2.116-2.107-4.158-4.292-6.347-6.325-2.634-2.444-2.724-5.98-.047-8.713q1.509-1.541,3.057-3.052a1.049,1.049,0,0,0,.194-1.5,40.64,40.64,0,0,1-3.558-8.583c-.242-.889-.825-1.114-1.658-1.1-1.654.022-3.312-.117-4.957.013-2.206.173-5.008-2.491-4.935-5.086.095-3.251.1-6.515,0-9.766a5.333,5.333,0,0,1,5.544-5.63c1.55-.013,3.1-.017,4.641,0,.635.009,1.187-.073,1.356-.794a35.518,35.518,0,0,1,3.441-8.592,1.577,1.577,0,0,0-.449-2.288c-.9-.743-1.606-1.731-2.521-2.452a5.527,5.527,0,0,1-.661-8.208,51.4,51.4,0,0,1,7.646-7.426,5.774,5.774,0,0,1,6.791.57c1.11,1.075,2.232,2.141,3.273,3.286a1.442,1.442,0,0,0,1.848.432,38.745,38.745,0,0,1,8.924-3.7c.8-.268.889-.769.881-1.451-.013-1.546,0-3.1,0-4.646a5.267,5.267,0,0,1,5.5-5.47c2.932.009,5.863-.022,8.8,0,3.92.035,6.351,2.651,6.17,6.144-.065,1.278.065,2.569-.03,3.843A1.52,1.52,0,0,0,77.384,18.5a35.233,35.233,0,0,1,8.126,3.26,1.41,1.41,0,0,0,1.926-.311,31.439,31.439,0,0,1,4.3-4c2.249-1.464,7.081-.207,7.974,2.206a2.439,2.439,0,0,1-.9,2.975,2.09,2.09,0,0,1-2.97-.19c-1-1.218-1.589-.725-2.448.151-1.533,1.567-2.91,3.316-5.069,4.179a4.416,4.416,0,0,1-4.149-.186,48.012,48.012,0,0,0-9.188-3.856,5.507,5.507,0,0,1-3.726-5.22c0-1.55-.039-3.1.009-4.646.03-.937-.263-1.356-1.269-1.338-2.716.043-5.44.047-8.156,0-1.023-.022-1.3.423-1.274,1.338.039,1.334.043,2.673,0,4-.112,3.666-1.559,5.185-4.559,6.109a40.026,40.026,0,0,0-8.164,3.385c-2.78,1.593-5.185.509-6.886-1.127-1.079-1.036-2.137-2.09-3.16-3.173-.5-.527-.846-.613-1.4-.039q-2.953,3.044-5.993,6c-.682.665-.738,1.166,0,1.835,1.023.933,1.9,2.038,2.966,2.914a5.579,5.579,0,0,1,1.209,6.947,56.934,56.934,0,0,0-3.622,8.812,5.287,5.287,0,0,1-5.086,3.743c-1.6.073-3.2.047-4.8.026-.864-.009-1.239.294-1.226,1.222q.065,4.242,0,8.488c-.009.769.246.98,1,1a32.269,32.269,0,0,1,6.014.25A5.472,5.472,0,0,1,31.1,67.147a30.23,30.23,0,0,0,3.087,7.482c1.792,3.113,1.433,5.824-1.123,8.4-.9.907-1.787,1.835-2.72,2.711-.652.613-.626,1.1.017,1.723,2.025,1.973,4.028,3.968,5.988,6.006.648.669,1.049.315,1.5-.134,1.136-1.127,2.28-2.245,3.394-3.4a4.906,4.906,0,0,1,5.889-1.248A84.445,84.445,0,0,0,57.1,92.824c2.431.781,3.312,2.858,3.458,5.246.091,1.485.043,2.988.009,4.482-.017.756.117,1.2,1.028,1.183q4.32-.065,8.635,0c.9.009,1.053-.423,1.036-1.183-.039-1.6-.026-3.2,0-4.805a5.2,5.2,0,0,1,3.817-5.125A2.387,2.387,0,1,1,77.1,96.947c-.868.38-.941.907-.976,1.692-.091,2.055.263,4.11-.294,6.165a5.477,5.477,0,0,1-4.8,3.83c-.155,0-.32.022-.479.022h-4.8v-.06" transform="translate(-10.488 -6.318)" fill="#010000"/>
        <path id="Trazado_714781" data-name="Trazado 714781" d="M44.711,13.267c2.232-.225,4.792.509,7.314,1.3,2.094.652,2.586,2.927.954,4.153a3.1,3.1,0,0,1-2.884.384,20.312,20.312,0,0,0-6.61-.954c-8.4-.06-15.647,7.046-16.929,15.055-1.395,8.7,4.689,17.365,12.188,19.7a18.769,18.769,0,0,0,6.338.829,2.435,2.435,0,0,1,2.75,2.534A2.471,2.471,0,0,1,45.207,58.6a21.741,21.741,0,0,1-16.653-6.282A22.57,22.57,0,0,1,21.7,38.55a21.646,21.646,0,0,1,4.659-16.717c3.5-4.469,8.1-7.56,13.967-8.225a7.708,7.708,0,0,1,1.995-.358,20.681,20.681,0,0,0,2.388.017" transform="translate(11.158 15.488)" fill="#010000"/>
        <path id="Trazado_714782" data-name="Trazado 714782" d="M49.15,82.16c-5.332,0-10.664-.047-15.992.03-1.343.022-1.826-.22-1.783-1.705.121-4.214.086-8.432.03-12.65a134.784,134.784,0,0,0-1.118-14.671A97.907,97.907,0,0,0,26.629,36.55c-.307-1.006-.155-1.343.82-1.528,4.292-.82,8.579-1.671,12.866-2.508.1-.022.233.03.315-.013,2.94-1.567,4.413.073,5.962,2.383,5.842,8.678,11.843,17.248,17.767,25.875a16.114,16.114,0,0,1,2.686,8.592c.164,3.834.017,7.685.095,11.523.022,1.088-.35,1.317-1.356,1.308-5.544-.043-11.092-.022-16.635-.022" transform="translate(27.719 77.381)" fill="#ff0707"/>
        <path id="Trazado_714783" data-name="Trazado 714783" d="M58.379,21.984c8.955,0,17.9.026,26.859-.03,1.23,0,1.762.281,1.572,1.567a11.925,11.925,0,0,0-.013,1.757c0,2.288-.553,2.932-2.746,3.251C80.757,29,80.666,29,80.394,32.3c-.7,8.428-5.293,14.019-12.715,17.456a21.676,21.676,0,0,1-19.532-.276A21.512,21.512,0,0,1,36.079,33.624c-.22-1.127.065-2.3-.3-3.458a1.928,1.928,0,0,0-2.167-1.6,8.871,8.871,0,0,1-.959,0c-2.219-.147-2.759-.717-2.785-2.91-.039-3.7-.039-3.7,3.726-3.7H58.379v.035" transform="translate(38.921 44.429)" fill="#ff9838"/>
        <path id="Trazado_714784" data-name="Trazado 714784" d="M75.346,70.917c-1.943.112-2.483.661-2.5,2.625-.022,2.457-.039,4.909.009,7.361.017.885-.091,1.313-1.174,1.308q-16.7-.065-33.409,0c-1.079,0-1.187-.432-1.187-1.321.013-4.24-.25-8.5.013-12.724.224-3.54,2.012-6.614,4.046-9.5Q47.882,49.111,54.531,39.5c1.55-2.232,3.048-4.5,4.572-6.757a1.61,1.61,0,0,1,1.736-.833c5.2,1.062,10.388,2.163,15.6,3.173,1.053.2,1.282.41.941,1.533a130.48,130.48,0,0,0-3.523,15.06c-.406,2.267-.5,4.59-.691,6.891a30.522,30.522,0,0,0-.363,4.577,2.664,2.664,0,0,0,2.556,2.8l-.013,4.978M54.492,74.906v.065c2.293,0,4.585.039,6.878-.009,2.789-.056,4.283-1.252,4.6-3.963a25.1,25.1,0,0,0-.013-5.431,4.082,4.082,0,0,0-3.985-3.575c-4.849-.06-9.706-.065-14.554.022a3.854,3.854,0,0,0-3.709,3.92c-.026,1.762-.056,3.523.017,5.28a3.6,3.6,0,0,0,3.571,3.67c2.392.1,4.792.022,7.193.022" transform="translate(62.543 77.347)" fill="#ff0707"/>
        <path id="Trazado_714785" data-name="Trazado 714785" d="M57.5,40.318c-8.635,0-17.266-.022-25.9.026-1.153.009-1.5-.225-1.515-1.459-.117-7.979,3.065-14.481,8.717-19.878a20.874,20.874,0,0,1,3.644-2.724c.833-.5,1.131-.449,1.114.544-.009.587-.017,1.174,0,1.762a2.462,2.462,0,0,0,2.353,2.483A2.426,2.426,0,0,0,48.377,18.7c.073-1.33.065-2.668.009-4-.035-.838.255-1.148,1.079-1.412,1.619-.514,3.312-.419,4.939-.812.989-.242.76.622.764,1.148.017,3.091.009,6.187.009,9.283,0,.212,0,.427,0,.639.03,2.055.825,3.225,2.236,3.29,1.472.073,2.556-1.321,2.56-3.337.009-3.255.013-6.511,0-9.762,0-.9-.1-1.39,1.265-1.088,1.451.324,3,.332,4.477.73a1.236,1.236,0,0,1,1.1,1.429c-.039,1.438,0,2.88.065,4.318a1.851,1.851,0,0,0,2.215,1.9c1.179-.091,2.284-.527,2.323-2.042a2.627,2.627,0,0,1,0-.319c.1-.876-.423-2.193.246-2.53.911-.462,1.762.691,2.5,1.252C79.818,21.7,83.565,27.18,84.575,34.4c.216,1.546.078,3.061.268,4.572.151,1.2-.393,1.36-1.438,1.356-8.635-.039-17.266-.022-25.9-.022Z" transform="translate(39.657 12.887)" fill="#ffc403"/>
        <path id="Trazado_714786" data-name="Trazado 714786" d="M45.869,66.584l.013-4.978c1.662-.406,2.293-1.369,2.34-3.165a87.968,87.968,0,0,1,2.025-16.13c.6-2.819,1.39-5.587,2.211-8.354.255-.864.626-.95,1.351-.548,4.818,2.69,8.449,6.213,9.093,12.1a30.147,30.147,0,0,1,.3,3.29q.039,11.69.013,23.375c0,3.622-2.042,5.63-5.682,5.643-2.716.009-5.436-.035-8.151.056-1.036.035-1.235-.311-1.209-1.265.065-2.452.035-4.909.017-7.361-.017-1.882-.471-2.379-2.323-2.664" transform="translate(92.02 81.68)" fill="#fff"/>
        <path id="Trazado_714787" data-name="Trazado 714787" d="M23.07,59.936c0-4.559-.289-9.144.082-13.678a14.743,14.743,0,0,1,6.3-10.906c.915-.674,1.9-1.256,2.837-1.9.8-.544,1.33-.35,1.585.566.984,3.545,1.9,7.1,2.586,10.716,2,10.569,1.826,21.255,1.844,31.937,0,1.11-.367,1.3-1.36,1.287-3.091-.06-6.187-.009-9.278-.035a4.859,4.859,0,0,1-4.486-4.533c-.017-4.486,0-8.967,0-13.453H23.07" transform="translate(16.029 81.592)" fill="#fff"/>
        <path id="Trazado_714788" data-name="Trazado 714788" d="M55.644,29.533c0,1.744,0,3.342,0,4.939.009,1.908-1.053,3.316-2.236,4.615A29.5,29.5,0,0,1,45.9,44.67a2.023,2.023,0,0,1-2.232.086,35.217,35.217,0,0,1-7.443-5.574,6.862,6.862,0,0,1-2.249-5.647C34.1,32.27,34,30.979,34,29.58a28.1,28.1,0,0,0,21.648-.047" transform="translate(52.445 69.589)" fill="#ff9838"/>
        <path id="Trazado_714789" data-name="Trazado 714789" d="M61.3,23.5c-10.073,0-20.15-.013-30.223.022a1.954,1.954,0,0,1-2.094-1.313c-.281-.786.164-1.4.781-1.926a1.576,1.576,0,0,1,1.2-.25q30.387-.019,60.769-.017c1.041,0,1.908.233,2.154,1.395.281,1.356-.4,2.068-2.047,2.081-3.463.026-6.93.009-10.392.009H61.3" transform="translate(35.725 38.002)" fill="#ffc403"/>
        <path id="Trazado_714790" data-name="Trazado 714790" d="M50.915,38.874Q46.8,44.833,42.682,50.782c-2.629-3.778-5.229-7.525-7.845-11.26-.272-.384-.514-.54.138-.889,2.172-1.174,4.279-2.474,6.412-3.726a2.434,2.434,0,0,1,2.759.177,46.743,46.743,0,0,0,6.77,3.791" transform="translate(54.497 86.252)" fill="#fff"/>
        <path id="Trazado_714791" data-name="Trazado 714791" d="M52.4,32.15c-2.224,3.264-4.361,6.416-6.511,9.555-1.433,2.09-3.419,3.031-4.853,2.245-1.161-.639-2.254-1.4-3.407-2.129,3.061-2.116,6.265-4.067,8.411-7.24.259-.384.561-.743.807-1.136,1.438-2.267,1.446-2.306,3.916-1.541.527.164,1.036.047,1.636.246" transform="translate(64.673 75.973)" fill="#fff"/>
        <path id="Trazado_714792" data-name="Trazado 714792" d="M46.568,41.741c-1.062.661-2.064,1.313-3.1,1.913a2.764,2.764,0,0,1-3.7-.389c-2.4-2.552-4.011-5.686-6.083-8.48-.617-.829-1.161-1.71-1.865-2.755a4.111,4.111,0,0,0,2.517-.337c1.718-.661,2.327.125,3.057,1.511,2.034,3.847,5.5,6.247,9.166,8.536" transform="translate(45.438 75.971)" fill="#fff"/>
        <path id="Trazado_714793" data-name="Trazado 714793" d="M49.343,51.8c-2.4,0-4.8.073-7.193-.026a3.59,3.59,0,0,1-3.566-3.666c-.078-1.757-.043-3.523-.022-5.285a3.86,3.86,0,0,1,3.709-3.92c4.853-.086,9.706-.078,14.559-.017a4.074,4.074,0,0,1,3.981,3.575,25.066,25.066,0,0,1,.017,5.427c-.32,2.716-1.818,3.912-4.6,3.968-2.293.047-4.59.009-6.882.009V51.8m.3-4.689H53.79c2.107,0,2.042,0,2.107-2.176.03-1.053-.276-1.338-1.313-1.313-2.979.069-5.958.022-8.937.022-2.409,0-2.353,0-2.34,2.357,0,.98.393,1.144,1.226,1.123,1.7-.043,3.407-.013,5.108-.013" transform="translate(67.692 100.456)" fill="#010000"/>
        <path id="Trazado_714794" data-name="Trazado 714794" d="M45.977,43.435c-1.7,0-3.407-.03-5.108.013-.833.022-1.222-.142-1.226-1.118-.013-2.362-.069-2.362,2.34-2.362,2.979,0,5.958.047,8.937-.022,1.036-.026,1.343.259,1.313,1.313-.065,2.176,0,2.176-2.107,2.176H45.977" transform="translate(71.356 104.129)" fill="#ffc403"/>
      </g>
    </g>
    <g id="Grupo_1002994" data-name="Grupo 1002994">
      <g id="Grupo_1002993" data-name="Grupo 1002993" clip-path="url(#clip-path)">
        <path id="Trazado_714795" data-name="Trazado 714795" d="M91.642,92.78h22.732V136.5H79.5V102.918Z" transform="translate(263.733 307.801)" fill="#fff"/>
      </g>
    </g>
    <g id="Grupo_1002996" data-name="Grupo 1002996" transform="translate(321.046 386.53)">
      <g id="Grupo_1002995" data-name="Grupo 1002995" clip-path="url(#clip-path-5)">
        <path id="Trazado_714796" data-name="Trazado 714796" d="M79.289,119.367h.1c0,5.712-.013,11.424,0,17.136a2.89,2.89,0,0,0,3.074,3.014q15.919,0,31.846,0A3.4,3.4,0,0,0,118,136.119c.086-5.064.06-10.129.009-15.193a2,2,0,0,0-2.1-2.176c-1.973-.091-2.664.522-2.677,2.621-.03,4.11-.047,8.225.017,12.335.013,1.049-.25,1.321-1.308,1.317q-13.367-.071-26.738,0c-1.084,0-1.416-.2-1.407-1.369.06-8.173.026-16.346.035-24.519,0-2.2-.531-4.65.25-6.541s2.932-3.195,4.438-4.8a2.453,2.453,0,0,1,1.964-.825c7.111.026,14.222.048,21.329-.026,1.274-.013,1.451.445,1.433,1.541-.056,3.808-.043,7.62-.013,11.433.017,1.835.661,2.53,2.167,2.53,1.9,0,2.621-.656,2.634-2.569.026-4.516.056-9.028-.013-13.54-.039-2.673-1.148-3.786-3.942-3.834-8.311-.147-16.622-.052-24.938-.052a4.589,4.589,0,0,0-3.407,1.5c-1.507,1.541-2.983,3.117-4.577,4.559a5.663,5.663,0,0,0-1.887,4.607c.065,5.414.022,10.833.022,16.247m18.915-12.6c2.349,0,4.7.013,7.046,0,1.537-.013,2.4-.773,2.444-2.09a2.156,2.156,0,0,0-2.344-2.422q-6.975-.052-13.946,0a2.2,2.2,0,0,0-2.357,2.28,2.327,2.327,0,0,0,2.409,2.228c2.249.022,4.5,0,6.748.009m.056,15.293c2.306,0,4.607.022,6.908,0,1.58-.017,2.521-.885,2.521-2.249a2.261,2.261,0,0,0-2.508-2.267q-6.832-.026-13.661,0a2.267,2.267,0,1,0-.013,4.516c2.249.022,4.5.009,6.753,0m.177-7.677c2.249,0,4.5.026,6.748-.009,1.705-.026,2.491-.76,2.508-2.219.017-1.49-.838-2.293-2.578-2.3q-6.593-.032-13.194,0c-1.913,0-2.919.807-2.875,2.219.043,1.559.954,2.293,2.945,2.31,2.146.017,4.3,0,6.446,0m-4.05,15.28v0c1.053,0,2.1.03,3.156,0a2.253,2.253,0,1,0,.125-4.5c-2.1-.069-4.21-.056-6.312,0a2.148,2.148,0,0,0-2.31,2.163,2.334,2.334,0,0,0,2.336,2.336c1,.043,2,.009,3,.009" transform="translate(-58.077 -79.922)" fill="#fff"/>
        <path id="Trazado_714797" data-name="Trazado 714797" d="M219.174,165a2.317,2.317,0,0,1,2.124,2.56c.048,2.608.013,5.216.013,7.823v43.171c0,3.281-1.459,4.728-4.779,4.728-18.88,0-37.757.03-56.633-.043a3.171,3.171,0,0,0-3.139,1.766,37.9,37.9,0,0,1-16.588,14.913,35.517,35.517,0,0,1-12.093,3.424,42.967,42.967,0,0,1-8.186.164,37.6,37.6,0,0,1-16.264-5.354,39.45,39.45,0,0,1-7.979-6.226,40.405,40.405,0,0,1-10.435-19.666,37.711,37.711,0,0,1-.6-10.971,30.8,30.8,0,0,1,1.3-7.025,1.494,1.494,0,0,0-.738-2.034,21.239,21.239,0,0,1-9.555-14.986,20.845,20.845,0,0,1,4.805-16.929A20.367,20.367,0,0,1,96.6,152.493a21.318,21.318,0,0,1,14.278,4.965,22.46,22.46,0,0,1,5.911,7.754c.345.725.6.971,1.6.812a33.517,33.517,0,0,1,10.444.168,38.669,38.669,0,0,1,5.013.937c1.071.311,1.425-.147,1.421-1.313-.052-11.584-.039-23.168-.03-34.747q.019-18.354.06-36.7a4.705,4.705,0,0,1,3.372-4.529c.216-.082.514.035.592-.307h78.121c1.783.95,3.363,2.09,3.773,4.257a8.874,8.874,0,0,1,.155,1.623q.006,30.179,0,60.363c0,1.839-.587,2.655-2.137,3-1.835-.082-2.314-.57-2.366-2.439-.013-.4,0-.8,0-1.2,0-14.943-.026-29.886.039-44.824.009-1.511-.432-1.792-1.826-1.757-4,.095-8.013.03-12.016.035q-30.872.006-61.74.017c-.777,0-1.533-.212-1.528,1.14q.065,29.182.013,58.364a1.434,1.434,0,0,0,.933,1.455,32.643,32.643,0,0,1,6.213,3.83c1.33,1.127,2.66,2.5,4.68,1.265.263-.16.691-.056,1.041-.056,2.755,0,5.509-.013,8.259,0,2.56.013,3.825,1.226,3.86,3.791q.058,4.138,0,8.277a3.646,3.646,0,0,1-2.655,3.8,9.086,9.086,0,0,1-1.93.246,33.535,33.535,0,0,1,2.228,10.453c.009.933.345,1.243,1.243,1.2a32.949,32.949,0,0,1,3.752.009,1.769,1.769,0,0,0,1.783-.946q2.008-3.07,4.071-6.1a3.378,3.378,0,0,1,2.88-1.563c5.911-.009,11.817-.065,17.723.026a3.015,3.015,0,0,1,2.56,4.745,18.3,18.3,0,0,1-2.012,2.88c-.527.613-.449.868.22,1.148a2.031,2.031,0,0,1,1.472,1.977,2.073,2.073,0,0,1-1.494,2.12c-.54.224-.833.432-.276,1.036a26.12,26.12,0,0,1,1.878,2.452c1.61,2.249.458,5.194-2.211,5.241-6.053.117-12.115.026-18.172.026a3.029,3.029,0,0,1-2.608-1.658c-1.377-2.081-2.8-4.132-4.218-6.187-.268-.389-.484-.769-1.127-.734-1.446.078-2.9.043-4.352.017-.738-.017-1.114.22-1.1,1.028a28.3,28.3,0,0,1-1.813,9.313c-.492,1.477-.095,1.6,1.226,1.593q26.663-.058,53.326,0c1.343,0,1.718-.3,1.714-1.692q-.078-24.6-.03-49.19c0-2.31.371-2.755,2.366-2.919m-75.962,54.807a2.72,2.72,0,0,1-.069-3.791,14.29,14.29,0,0,0,.937-1.952c1.278-2.2,1.628-4.65,2.046-7.193-2.245,0-4.495.052-6.74-.03-.889-.03-.833.669-.928,1.053a14.743,14.743,0,0,1-10.5,11.113c-5.962,1.9-11.066.389-15.28-3.817a14.279,14.279,0,0,1-4.015-13.76,15.474,15.474,0,0,1,27.239-5.785,12.425,12.425,0,0,1,2.517,5.526c.069.393-.013,1.231.946,1.2,2.245-.06,4.495-.017,6.813-.017a8.633,8.633,0,0,1-.3-1.2A19.349,19.349,0,0,0,140.82,190c-6.174-6.9-13.941-8.98-22.891-7.2a2.336,2.336,0,0,0-1.74,1.373,21.106,21.106,0,0,1-10.777,9.9c-1.01.419-2.31.514-2.785,1.87a23.552,23.552,0,0,0-1.261,12.883,22.626,22.626,0,0,0,9.688,14.58,20.586,20.586,0,0,0,12.983,3.67A22.3,22.3,0,0,0,135,224.035c1.377-.851,2.806-1.477,4.218-.017.635,1.917.471,2.526-1.252,3.553-6.209,3.691-12.875,5.151-19.99,3.627a27.245,27.245,0,0,1-13.674-7.478,28.145,28.145,0,0,1-6.092-9.455,25.456,25.456,0,0,1-1.848-10.107,23.286,23.286,0,0,1,1.252-7.392c.341-.954-.022-1.032-.76-1.01A14.434,14.434,0,0,1,91.164,195c-.674-.263-.717.112-.885.592a20.267,20.267,0,0,0-1.105,5.76A38.185,38.185,0,0,0,90,212.714a35.15,35.15,0,0,0,11.463,18.358,34.186,34.186,0,0,0,16.389,7.642,33.09,33.09,0,0,0,11.575-.065,35.038,35.038,0,0,0,24.325-17.231,32.519,32.519,0,0,0,4.24-14.546c-2.163,0-4.361.022-6.558-.013-.751-.013-.708.453-.8.963a30.384,30.384,0,0,1-3.558,10.4c-1.032,1.731-1.977,2.163-3.868,1.585M80.05,174.154c-.419,9.045,8.018,17.49,17.24,17.115,9.84-.4,17.106-7.767,16.92-17.365-.194-9.822-7.081-16.657-17.141-16.9a16.79,16.79,0,0,0-17.02,17.149m107.282-70.091c9.36,0,18.725-.022,28.09.026,1.136,0,1.451-.3,1.407-1.425-.086-2.254-.1-4.516,0-6.766.069-1.438-.38-1.891-1.852-1.887-12.616.056-25.236.03-37.852.03-6.01,0-12.02.026-18.026-.022-1.045-.009-1.377.268-1.338,1.33.078,2.353.1,4.715-.009,7.068-.056,1.3.285,1.688,1.636,1.68,9.313-.065,18.63-.035,27.943-.035m-32.887,98.293a8.408,8.408,0,0,1,1.649.017c1.649.332,2.124-.354,1.813-1.891-.194-.963-.276-1.952-.488-2.91a33.928,33.928,0,0,0-12.4-19.981,32.858,32.858,0,0,0-14.153-6.58,40.338,40.338,0,0,0-11.48-.591c-.756.065-.9.358-.876,1.019.065,1.818.449,3.635.052,5.444-.276,1.252.535,1.239,1.287,1.079a21.9,21.9,0,0,1,10.155.432c10.66,2.8,17.477,9.6,20.055,20.426.838,3.519.764,3.536,4.382,3.536m-20.465,0c-.643-4.585-5.172-8.9-12.339-8.1a10.334,10.334,0,0,0-8.765,10.453,10.576,10.576,0,0,0,9.473,10.509c5.621.622,10.958-3.4,11.618-8.354q-4.967,0-9.917,0c-1.714,0-2.724-.842-2.837-2.185-.1-1.166,1.313-2.431,2.85-2.37,3.3.138,6.606.043,9.917.043m12.469-98.379v.048c1.848,0,3.7-.043,5.544.013.9.03,1.226-.246,1.209-1.179q-.084-3.827,0-7.655c.022-.958-.332-1.166-1.213-1.153-3.6.052-7.193.069-10.789.026-1.071-.009-1.39.406-1.369,1.42.043,2.448.056,4.9-.009,7.353-.026.98.371,1.166,1.23,1.144,1.8-.052,3.6-.017,5.4-.017m44.57,106.958c-.522-.82-.937-1.425-1.308-2.051a3.709,3.709,0,0,0-3.812-2.072c-3.54.207-7.1.056-10.656.078-.358,0-.794-.2-1.127.255.73,1.084,1.446,2.176,2.189,3.255a1.283,1.283,0,0,0,1.157.544c4.443-.013,8.885-.009,13.557-.009m-17.093-8.579c4.728,0,9.132,0,13.535,0,.354,0,.7.009.933-.315a22.242,22.242,0,0,0,2.521-3.752c-4.559,0-8.959,0-13.358,0a1.258,1.258,0,0,0-1.187.475c-.76,1.114-1.515,2.228-2.444,3.592m-20.711-23.25a58.666,58.666,0,0,1,4.6,6.6c.475.807,1.261.376,1.882.354.553-.017.548-.617.548-1.075,0-1.654-.03-3.307.013-4.961.017-.756-.307-.937-.989-.928-1.9.026-3.791.009-6.057.009" transform="translate(-71.023 -89.509)" fill="#010000"/>
        <path id="Trazado_714798" data-name="Trazado 714798" d="M169.715,150.39c-1.995.16-2.366.609-2.366,2.919q-.006,24.6.03,49.19c0,1.39-.371,1.692-1.714,1.692q-26.663-.071-53.326,0c-1.321,0-1.714-.117-1.226-1.593a28.324,28.324,0,0,0,1.813-9.313c-.013-.807.363-1.045,1.1-1.032,1.451.03,2.906.065,4.356-.013.639-.035.859.345,1.127.734,1.412,2.055,2.837,4.106,4.218,6.187a3.018,3.018,0,0,0,2.608,1.658c6.057,0,12.115.091,18.172-.026,2.664-.052,3.817-2.992,2.206-5.241a25.407,25.407,0,0,0-1.878-2.452c-.557-.6-.263-.812.276-1.036a2.068,2.068,0,0,0,1.494-2.12,2.027,2.027,0,0,0-1.468-1.977c-.674-.281-.751-.535-.225-1.148a18.3,18.3,0,0,0,2.012-2.88,3.015,3.015,0,0,0-2.556-4.745c-5.911-.091-11.817-.035-17.728-.026a3.371,3.371,0,0,0-2.875,1.563q-2.066,3.031-4.076,6.1a1.769,1.769,0,0,1-1.783.946,32.953,32.953,0,0,0-3.752-.009c-.9.039-1.231-.276-1.239-1.2a33.664,33.664,0,0,0-2.232-10.453,9.087,9.087,0,0,0,1.93-.246,3.647,3.647,0,0,0,2.655-3.8q.052-4.132,0-8.272c-.035-2.565-1.3-3.778-3.856-3.791-2.755-.013-5.509,0-8.264,0-.35,0-.777-.1-1.036.056-2.025,1.23-3.355-.138-4.685-1.269a32.946,32.946,0,0,0-6.209-3.825,1.432,1.432,0,0,1-.937-1.455q.032-29.182-.013-58.364c0-1.356.751-1.14,1.528-1.14q30.872-.013,61.741-.017c4.007,0,8.013.06,12.016-.039,1.395-.035,1.835.25,1.831,1.762-.069,14.939-.043,29.882-.043,44.824,0,.4-.009.8,0,1.2.056,1.87.531,2.357,2.37,2.439q-.007,3.109,0,6.222M99.392,107.314h-.009c0,1.554.091,3.113-.022,4.659a3.087,3.087,0,0,0,3.281,3.325c3.048-.095,6.109-.1,9.157,0a3.449,3.449,0,0,0,3.467-3.273c.03-3,.069-6.014,0-9.019a3.429,3.429,0,0,0-3.324-3.618c-3.2-.073-6.407-.065-9.606.022A2.913,2.913,0,0,0,99.4,102.5c-.039,1.6-.009,3.208-.009,4.81m7.923,28.137v.013c1.55,0,3.1.026,4.65,0a2.787,2.787,0,0,0,3.057-2.578,42.152,42.152,0,0,0,.017-10.712,2.761,2.761,0,0,0-2.819-2.53c-3.394-.117-6.8-.073-10.194.043a2.685,2.685,0,0,0-2.612,2.85q-.071,4.954-.009,9.913a2.778,2.778,0,0,0,2.962,2.992c1.649.06,3.3.013,4.948.013M99.4,147.739H99.4c0,1.7-.043,3.407.013,5.108a3.193,3.193,0,0,0,2.668,2.927c3.342.013,6.688-.017,10.03-.147a2.778,2.778,0,0,0,2.945-2.724,45.036,45.036,0,0,0,0-10.427,2.753,2.753,0,0,0-2.88-2.621c-3.35-.1-6.7-.091-10.047.009a2.746,2.746,0,0,0-2.729,2.914c-.047,1.654-.009,3.307-.009,4.961m38.948-42.109q8.484,0,16.959,0a4.083,4.083,0,0,0,1.459-.16,2.07,2.07,0,0,0,1.261-2.56c-.25-1.485-1.373-1.774-2.6-1.779q-17.033-.026-34.07,0c-1.766,0-2.694.781-2.7,2.2-.009,1.524.889,2.306,2.729,2.306,5.656.013,11.308,0,16.959,0m-.073,20.176q8.626,0,17.253,0c1.939,0,2.534-.622,2.483-2.47-.039-1.291-1-2.034-2.711-2.038q-9.825-.013-19.653,0-7.053,0-14.1,0a2.66,2.66,0,0,0-2.422.855,2.411,2.411,0,0,0-.263,2.5c.419,1.019,1.252,1.157,2.163,1.157q8.626.013,17.253.009M138.31,146c5.747,0,11.5.013,17.244,0,1.857-.009,2.517-.725,2.448-2.517-.047-1.287-.984-1.986-2.75-1.986q-11.845-.013-23.695,0c-3.45,0-6.9.013-10.349,0a2.3,2.3,0,0,0-2.521,1.632c-.5,1.654.548,2.867,2.521,2.875,5.7.022,11.4.009,17.1.009m.017,20.215c5.7,0,11.4.009,17.106-.009,1.757,0,2.547-.691,2.569-2.116.026-1.71-.682-2.383-2.625-2.383q-16.955-.013-33.91,0c-.3,0-.6.022-.9.047a1.96,1.96,0,0,0-1.921,2.176c-.043,1.623.682,2.267,2.724,2.28,5.652.026,11.3.009,16.955.009m-7.072-16.752c-3.4,0-6.8-.022-10.2.009-1.667.017-2.392.7-2.413,2.129a2.134,2.134,0,0,0,2.413,2.357q10.122.045,20.241,0c1.615-.009,2.6-.954,2.586-2.236a2.45,2.45,0,0,0-2.733-2.258q-4.948-.013-9.9,0m-.1,20.193c-3.35,0-6.7-.013-10.051.009-1.688.009-2.413.648-2.448,2.055a2.136,2.136,0,0,0,2.353,2.426c6.748.039,13.5.026,20.253.013a2.623,2.623,0,0,0,2.284-1.092c1.019-1.537-.16-3.381-2.185-3.4-3.4-.035-6.8-.009-10.207-.009m-.052-35.909v.013c3.4,0,6.8-.009,10.211,0a2.531,2.531,0,0,0,2.517-1.749c.354-1-.332-1.783-1.1-2.4a2.96,2.96,0,0,0-2.008-.363q-7.279-.013-14.563,0c-1.8,0-3.605,0-5.406.039a1.9,1.9,0,0,0-1.779.863,2.307,2.307,0,0,0,1.913,3.605c3.4-.035,6.8-.009,10.211-.009m.16-20.223v.039c3.3,0,6.6.013,9.9-.009a2.509,2.509,0,0,0,2.724-2.3c.017-1.338-1.032-2.18-2.772-2.2-1.451-.013-2.9,0-4.352,0q-7.642,0-15.293.009c-.833,0-1.727-.078-2.314.712a2.449,2.449,0,0,0-.337,2.5,1.856,1.856,0,0,0,1.951,1.248q5.252-.006,10.5,0" transform="translate(-21.564 -74.898)" fill="#c8effe"/>
        <path id="Trazado_714799" data-name="Trazado 714799" d="M79.289,119.367c0-5.414.043-10.833-.022-16.247a5.649,5.649,0,0,1,1.887-4.6c1.593-1.446,3.07-3.022,4.577-4.564a4.6,4.6,0,0,1,3.407-1.5c8.311,0,16.627-.095,24.938.052,2.793.047,3.9,1.166,3.942,3.834.069,4.512.039,9.028.009,13.54-.009,1.913-.73,2.569-2.629,2.569-1.507,0-2.15-.7-2.167-2.53-.03-3.812-.047-7.62.013-11.433.013-1.092-.16-1.554-1.433-1.541-7.107.073-14.218.052-21.329.026a2.447,2.447,0,0,0-1.964.825c-1.511,1.6-3.653,2.914-4.438,4.8s-.246,4.335-.25,6.537c-.009,8.173.026,16.346-.035,24.519-.009,1.166.324,1.373,1.407,1.369q13.374-.065,26.738,0c1.053,0,1.321-.268,1.3-1.317-.06-4.11-.043-8.221-.017-12.335.017-2.1.708-2.711,2.681-2.621A2,2,0,0,1,118,120.925c.056,5.064.082,10.129,0,15.193a3.4,3.4,0,0,1-3.683,3.394q-15.925.013-31.85,0a2.886,2.886,0,0,1-3.07-3.014c-.017-5.712-.009-11.424-.009-17.136h-.095" transform="translate(-58.077 -79.922)" fill="#010000"/>
        <path id="Trazado_714800" data-name="Trazado 714800" d="M90.69,99.231c-2.249,0-4.5.013-6.748,0A2.33,2.33,0,0,1,81.533,97a2.2,2.2,0,0,1,2.357-2.284q6.975-.045,13.946,0a2.151,2.151,0,0,1,2.344,2.418c-.043,1.321-.907,2.077-2.439,2.09-2.353.017-4.7,0-7.051,0" transform="translate(-50.563 -72.389)" fill="#010000"/>
        <path id="Trazado_714801" data-name="Trazado 714801" d="M90.75,102.773c-2.254,0-4.5.017-6.757,0a2.267,2.267,0,1,1,.017-4.516q6.826-.032,13.661,0a2.258,2.258,0,0,1,2.508,2.262c0,1.364-.946,2.232-2.526,2.249-2.3.026-4.6.009-6.9.009" transform="translate(-50.567 -60.63)" fill="#010000"/>
        <path id="Trazado_714802" data-name="Trazado 714802" d="M90.924,101c-2.15,0-4.3.017-6.45,0-1.986-.013-2.9-.747-2.94-2.31-.043-1.407.958-2.206,2.875-2.219q6.593-.019,13.194,0c1.74.013,2.59.807,2.578,2.306-.017,1.459-.8,2.189-2.508,2.219-2.249.03-4.5,0-6.748,0" transform="translate(-50.564 -66.536)" fill="#010000"/>
        <path id="Trazado_714803" data-name="Trazado 714803" d="M86.873,104.544c-1,0-2,.035-3-.009a2.334,2.334,0,0,1-2.336-2.336,2.148,2.148,0,0,1,2.31-2.163c2.1-.052,4.21-.065,6.312,0a2.253,2.253,0,1,1-.125,4.5c-1.053.035-2.1,0-3.156,0Z" transform="translate(-50.563 -54.802)" fill="#010000"/>
        <path id="Trazado_714804" data-name="Trazado 714804" d="M119.556,152.818c-1.416-1.455-2.845-.829-4.223.017a22.244,22.244,0,0,1-10.962,3.031A20.576,20.576,0,0,1,91.4,152.2a22.6,22.6,0,0,1-9.693-14.58,23.672,23.672,0,0,1,1.256-12.883c.475-1.356,1.779-1.446,2.789-1.87a21.113,21.113,0,0,0,10.781-9.9,2.317,2.317,0,0,1,1.731-1.369c8.955-1.783,16.717.3,22.9,7.2a19.394,19.394,0,0,1,5.06,11.161,7.932,7.932,0,0,0,.3,1.2c-2.319,0-4.572-.039-6.813.022-.963.026-.885-.807-.954-1.2a12.394,12.394,0,0,0-2.517-5.531,14.777,14.777,0,0,0-11.295-5.95A14.844,14.844,0,0,0,89,130.237a14.278,14.278,0,0,0,4.015,13.756c4.21,4.21,9.313,5.725,15.28,3.821A14.755,14.755,0,0,0,118.8,136.7c.095-.384.043-1.084.928-1.049,2.249.078,4.49.026,6.744.026-.423,2.543-.773,5-2.046,7.193a14.573,14.573,0,0,1-.941,1.952,2.715,2.715,0,0,0,.069,3.791,18.494,18.494,0,0,1-3.994,4.21" transform="translate(-51.361 -18.31)" fill="#fff"/>
        <path id="Trazado_714805" data-name="Trazado 714805" d="M128.667,143.043a18.494,18.494,0,0,0,3.994-4.21c1.9.579,2.837.151,3.873-1.58a30.439,30.439,0,0,0,3.553-10.4c.095-.514.047-.976.8-.967,2.2.035,4.4.013,6.558.013a32.5,32.5,0,0,1-4.24,14.546,35.051,35.051,0,0,1-24.325,17.236,33.2,33.2,0,0,1-11.575.06A34.219,34.219,0,0,1,90.914,150.1,35.178,35.178,0,0,1,79.451,131.74a38.328,38.328,0,0,1-.829-11.364,19.979,19.979,0,0,1,1.11-5.76c.16-.475.207-.855.881-.592a14.355,14.355,0,0,0,5.682.756c.743-.022,1.1.056.764,1.01a23.282,23.282,0,0,0-1.248,7.392,25.381,25.381,0,0,0,1.848,10.107,28.08,28.08,0,0,0,6.083,9.455,27.284,27.284,0,0,0,13.674,7.478c7.124,1.528,13.786.069,19.994-3.627,1.723-1.028,1.887-1.636,1.256-3.553" transform="translate(-60.472 -8.535)" fill="#ff0606"/>
        <path id="Trazado_714806" data-name="Trazado 714806" d="M76.462,122.312a16.79,16.79,0,0,1,17.02-17.149c10.06.242,16.946,7.076,17.136,16.9.186,9.6-7.076,16.964-16.916,17.365-9.222.376-17.659-8.065-17.24-17.115m15.4,5.263v.017c-1.2,0-2.4-.043-3.605.013-1.528.069-2.142.738-2.176,2.241a2.24,2.24,0,0,0,2.172,2.31,10.036,10.036,0,0,0,1.8,0c.885-.1,1.209.147,1.179,1.123a2.563,2.563,0,0,0,2.241,2.8c1.3-.035,2.249-1.144,2.211-2.78-.017-.915.268-1.243,1.2-1.455,4.054-.941,5.6-4.654,4-8.506-.963-2.327-2.979-3.156-5.332-3.286-1.347-.073-2.7.013-4.054-.048a1.434,1.434,0,0,1-1.5-1.364,1.3,1.3,0,0,1,.933-1.511,4.971,4.971,0,0,1,1.481-.168c2.15-.026,4.3.035,6.455-.043,1.485-.056,2.047-.872,1.952-2.565-.078-1.312-.851-1.8-2.085-1.744a14.4,14.4,0,0,0-1.5.017c-1.239.2-1.641-.242-1.554-1.52.108-1.658-.609-2.357-2.1-2.4a2.16,2.16,0,0,0-2.344,2.4c.026,1.006-.35,1.3-1.265,1.559a5.423,5.423,0,0,0-3.286,2.064,6.163,6.163,0,0,0-.566,6.563c1.144,2.353,3.217,3.208,5.7,3.255,1.153.022,2.306.03,3.454,0,1.058-.03,1.779.5,1.8,1.481.026,1-.686,1.567-1.753,1.559-1.153-.009-2.3,0-3.454,0" transform="translate(-67.43 -37.667)" fill="#fdd302"/>
        <path id="Trazado_714807" data-name="Trazado 714807" d="M124.031,100.617c-9.313,0-18.626-.03-27.939.035-1.356.009-1.7-.376-1.641-1.68.108-2.349.086-4.715.009-7.068-.035-1.062.3-1.338,1.338-1.33,6.01.048,12.016.026,18.026.026,12.62,0,25.236.022,37.856-.03,1.468-.009,1.917.449,1.848,1.882-.1,2.254-.086,4.516,0,6.766.043,1.123-.272,1.433-1.407,1.425-9.365-.048-18.725-.026-28.09-.026" transform="translate(-7.721 -86.063)" fill="#ffc403"/>
        <path id="Trazado_714808" data-name="Trazado 714808" d="M121.292,140.328c-3.618,0-3.545-.017-4.382-3.536-2.578-10.828-9.395-17.624-20.055-20.426a21.9,21.9,0,0,0-10.155-.432c-.751.16-1.563.173-1.287-1.079.4-1.809.013-3.627-.052-5.444-.022-.661.121-.954.876-1.019a40.494,40.494,0,0,1,11.48.587,32.915,32.915,0,0,1,14.153,6.584,33.918,33.918,0,0,1,12.4,19.977c.212.963.294,1.951.488,2.914.311,1.533-.164,2.224-1.813,1.891a8.4,8.4,0,0,0-1.649-.017" transform="translate(-37.869 -27.481)" fill="#ff0606"/>
        <path id="Trazado_714809" data-name="Trazado 714809" d="M105.158,121.959c-3.312,0-6.619.095-9.917-.043-1.537-.065-2.949,1.2-2.85,2.37.112,1.338,1.123,2.18,2.837,2.185q4.954.006,9.917,0c-.661,4.952-6,8.972-11.618,8.354a10.576,10.576,0,0,1-9.473-10.509,10.331,10.331,0,0,1,8.765-10.453c7.167-.807,11.7,3.51,12.339,8.1" transform="translate(-42.2 -9.112)" fill="#ff0606"/>
        <path id="Trazado_714810" data-name="Trazado 714810" d="M96.922,100.5c-1.8,0-3.6-.035-5.4.017-.859.022-1.256-.164-1.23-1.144.065-2.448.056-4.9.009-7.353-.022-1.015.3-1.429,1.369-1.42,3.6.043,7.193.026,10.789-.026.881-.013,1.235.194,1.213,1.153q-.091,3.821,0,7.655c.017.933-.307,1.209-1.209,1.179-1.848-.056-3.7-.013-5.544-.013V100.5" transform="translate(-21.495 -86.036)" fill="#ffc403"/>
        <path id="Trazado_714811" data-name="Trazado 714811" d="M115.14,120.827c-4.672,0-9.114,0-13.557.009a1.292,1.292,0,0,1-1.157-.544c-.738-1.079-1.459-2.172-2.189-3.255.337-.453.769-.255,1.127-.255,3.553-.022,7.115.13,10.66-.078a3.716,3.716,0,0,1,3.812,2.072c.371.63.781,1.235,1.3,2.051" transform="translate(4.857 0.599)" fill="#ffc403"/>
        <path id="Trazado_714812" data-name="Trazado 714812" d="M98.193,118.788c.924-1.364,1.68-2.478,2.439-3.592a1.261,1.261,0,0,1,1.187-.475c4.4,0,8.8,0,13.363,0a22.5,22.5,0,0,1-2.521,3.752c-.237.324-.583.315-.937.315-4.4,0-8.8,0-13.531,0" transform="translate(4.711 -5.941)" fill="#ffc403"/>
        <path id="Trazado_714813" data-name="Trazado 714813" d="M93.4,110.285c2.267,0,4.162.017,6.057-.009.682-.009,1.006.173.989.928-.043,1.654-.013,3.307-.013,4.961,0,.458,0,1.058-.548,1.075-.622.022-1.408.453-1.882-.354a58.668,58.668,0,0,0-4.6-6.6" transform="translate(-11.203 -20.688)" fill="#ffc403"/>
        <path id="Trazado_714814" data-name="Trazado 714814" d="M92.415,103.16c0-1.6-.035-3.208,0-4.81a2.921,2.921,0,0,1,2.932-3.091q4.805-.13,9.611-.022a3.426,3.426,0,0,1,3.32,3.618c.078,3,.039,6.014.009,9.019a3.458,3.458,0,0,1-3.467,3.277c-3.052-.108-6.109-.1-9.157,0a3.087,3.087,0,0,1-3.281-3.325c.112-1.546.022-3.109.022-4.663Zm7.974,3.458c3.424.009,3.424.009,3.424-3.407,0-3.514,0-3.514-3.493-3.506-3.415.009-3.415.009-3.415,3.428,0,3.476,0,3.476,3.484,3.484" transform="translate(-14.588 -70.744)" fill="#010000"/>
        <path id="Trazado_714815" data-name="Trazado 714815" d="M100.321,115.752c-1.649,0-3.3.047-4.948-.009a2.779,2.779,0,0,1-2.962-3q-.065-4.954,0-9.909a2.7,2.7,0,0,1,2.616-2.854c3.394-.112,6.8-.16,10.189-.043a2.769,2.769,0,0,1,2.824,2.534,42.118,42.118,0,0,1-.017,10.707,2.79,2.79,0,0,1-3.057,2.578c-1.55.035-3.1.009-4.65.009Zm3.476-7.871c0-3.527,0-3.527-3.471-3.519-3.432.013-3.432.013-3.432,3.4,0,3.5,0,3.5,3.458,3.506s3.445.013,3.445-3.385" transform="translate(-14.571 -55.198)" fill="#010000"/>
        <path id="Trazado_714816" data-name="Trazado 714816" d="M92.4,112.507c0-1.654-.035-3.307.013-4.957a2.735,2.735,0,0,1,2.724-2.914c3.346-.1,6.7-.108,10.047-.013a2.756,2.756,0,0,1,2.88,2.621,44.8,44.8,0,0,1,0,10.427,2.779,2.779,0,0,1-2.945,2.729c-3.337.13-6.688.155-10.03.147a3.184,3.184,0,0,1-2.664-2.927c-.06-1.7-.017-3.407-.017-5.112Zm7.927-3.45c-3.437.009-3.437.009-3.437,3.411v.151c0,3.312,0,3.312,3.372,3.325,3.532.009,3.532.009,3.532-3.489,0-3.407,0-3.407-3.467-3.4" transform="translate(-14.563 -39.666)" fill="#010000"/>
        <path id="Trazado_714817" data-name="Trazado 714817" d="M116.538,100.113q-8.477,0-16.959,0c-1.844,0-2.742-.781-2.733-2.306.009-1.416.937-2.2,2.7-2.2q17.033-.013,34.07,0c1.222,0,2.349.294,2.6,1.779a2.072,2.072,0,0,1-1.261,2.56,4.3,4.3,0,0,1-1.459.16q-8.477.013-16.959,0" transform="translate(0.242 -69.381)" fill="#010000"/>
        <path id="Trazado_714818" data-name="Trazado 714818" d="M116.486,104.786q-8.626,0-17.253,0a1.991,1.991,0,0,1-2.163-1.157,2.418,2.418,0,0,1,.259-2.5,2.668,2.668,0,0,1,2.426-.855q7.046.013,14.1,0,9.825,0,19.653,0c1.714,0,2.673.743,2.707,2.034.056,1.852-.54,2.465-2.478,2.47-5.751.013-11.5,0-17.253,0" transform="translate(0.221 -53.883)" fill="#010000"/>
        <path id="Trazado_714819" data-name="Trazado 714819" d="M116.569,109.464c-5.7,0-11.4.013-17.1-.009-1.973-.009-3.027-1.222-2.521-2.875a2.3,2.3,0,0,1,2.521-1.632c3.445.017,6.9,0,10.345,0q11.852,0,23.7,0c1.762,0,2.7.7,2.75,1.986.069,1.792-.6,2.508-2.448,2.517-5.751.017-11.5,0-17.248,0" transform="translate(0.172 -38.363)" fill="#010000"/>
        <path id="Trazado_714820" data-name="Trazado 714820" d="M116.526,114.144c-5.652,0-11.3.017-16.955-.009-2.042-.009-2.768-.656-2.724-2.28a1.96,1.96,0,0,1,1.921-2.176c.3-.026.6-.047.9-.047q16.955,0,33.905,0c1.947,0,2.655.674,2.629,2.383-.022,1.425-.812,2.111-2.569,2.12-5.7.017-11.407,0-17.106,0" transform="translate(0.237 -22.828)" fill="#010000"/>
        <path id="Trazado_714821" data-name="Trazado 714821" d="M109.456,106.8c3.3,0,6.6-.009,9.9,0,1.6,0,2.716.941,2.733,2.258.022,1.282-.967,2.228-2.586,2.236q-10.116.052-20.236,0a2.134,2.134,0,0,1-2.418-2.353c.026-1.429.747-2.116,2.418-2.128,3.4-.035,6.8-.009,10.194-.013" transform="translate(0.235 -32.237)" fill="#010000"/>
        <path id="Trazado_714822" data-name="Trazado 714822" d="M109.35,111.48c3.4,0,6.8-.026,10.2.009,2.025.022,3.2,1.865,2.185,3.4a2.615,2.615,0,0,1-2.28,1.092c-6.753.013-13.505.026-20.258-.013a2.14,2.14,0,0,1-2.353-2.426c.035-1.407.764-2.046,2.452-2.059,3.35-.017,6.7,0,10.051,0" transform="translate(0.241 -16.724)" fill="#010000"/>
        <path id="Trazado_714823" data-name="Trazado 714823" d="M109.314,106.618c-3.4,0-6.809-.026-10.211.009a2.3,2.3,0,0,1-1.908-3.605,1.9,1.9,0,0,1,1.775-.859c1.8-.043,3.605-.039,5.406-.043q7.279-.006,14.563,0a2.938,2.938,0,0,1,2.008.367c.768.613,1.455,1.4,1.1,2.4a2.522,2.522,0,0,1-2.517,1.749c-3.4-.013-6.809,0-10.211,0Z" transform="translate(0.226 -47.771)" fill="#010000"/>
        <path id="Trazado_714824" data-name="Trazado 714824" d="M109.485,101.913q-5.246,0-10.5,0a1.856,1.856,0,0,1-1.951-1.248,2.449,2.449,0,0,1,.337-2.5c.587-.79,1.481-.712,2.314-.712q7.648-.019,15.293-.009c1.451,0,2.9-.013,4.352,0,1.74.022,2.789.864,2.772,2.2a2.509,2.509,0,0,1-2.724,2.3c-3.3.022-6.6.009-9.9.009v-.039" transform="translate(0.215 -63.289)" fill="#010000"/>
        <path id="Trazado_714825" data-name="Trazado 714825" d="M84.97,124.858c1.153,0,2.3-.009,3.454,0,1.066.009,1.779-.557,1.753-1.559-.022-.984-.743-1.511-1.8-1.481-1.148.035-2.3.026-3.454,0-2.487-.047-4.559-.9-5.7-3.255a6.163,6.163,0,0,1,.566-6.563,5.423,5.423,0,0,1,3.286-2.064c.915-.255,1.291-.553,1.265-1.559a2.16,2.16,0,0,1,2.344-2.4c1.494.047,2.211.747,2.1,2.4-.086,1.278.315,1.718,1.554,1.52a14.4,14.4,0,0,1,1.5-.017c1.235-.056,2.008.432,2.085,1.744.095,1.692-.466,2.508-1.952,2.565-2.15.078-4.3.017-6.455.043a4.972,4.972,0,0,0-1.481.168,1.3,1.3,0,0,0-.933,1.511,1.434,1.434,0,0,0,1.5,1.364c1.351.06,2.707-.026,4.054.048,2.353.13,4.369.958,5.332,3.286,1.6,3.851.052,7.564-4,8.506-.928.212-1.213.54-1.2,1.455.039,1.636-.907,2.746-2.211,2.78a2.563,2.563,0,0,1-2.241-2.8c.03-.976-.294-1.222-1.179-1.123a10.037,10.037,0,0,1-1.8,0,2.24,2.24,0,0,1-2.172-2.31c.035-1.5.648-2.172,2.176-2.241,1.2-.056,2.4-.013,3.605-.013v-.017" transform="translate(-60.537 -34.95)" fill="#010000"/>
        <path id="Trazado_714826" data-name="Trazado 714826" d="M96.909,103.147c-3.484-.009-3.484-.009-3.484-3.484,0-3.419,0-3.419,3.415-3.428,3.493-.009,3.493-.009,3.493,3.506,0,3.415,0,3.415-3.424,3.407" transform="translate(-11.107 -67.273)" fill="#ffc403"/>
        <path id="Trazado_714827" data-name="Trazado 714827" d="M100.33,104.432c0,3.4,0,3.4-3.445,3.385s-3.458-.009-3.458-3.506c0-3.385,0-3.385,3.432-3.4,3.471-.009,3.471-.009,3.471,3.519" transform="translate(-11.104 -51.75)" fill="#ffc403"/>
        <path id="Trazado_714828" data-name="Trazado 714828" d="M96.863,105.6c3.467-.009,3.467-.009,3.467,3.4,0,3.5,0,3.5-3.532,3.489-3.372-.013-3.372-.013-3.372-3.325v-.151c0-3.4,0-3.4,3.437-3.411" transform="translate(-11.104 -36.208)" fill="#ffc403"/>
      </g>
    </g>
    <g id="Grupo_1002998" data-name="Grupo 1002998" transform="translate(593.274 58.33)">
      <g id="Grupo_1002997" data-name="Grupo 1002997" clip-path="url(#clip-path-6)">
        <path id="Trazado_714829" data-name="Trazado 714829" d="M190,144.875a46.756,46.756,0,0,1-1.209,6.342,10.511,10.511,0,0,1-8.868,7.413,22,22,0,0,1-3.277.289c-9.149.017-18.293-.065-27.438.03-4.965.052-9.87-4.244-10.88-8.808a10.953,10.953,0,0,1-.289-2.4c-.017-25.8-.069-51.594.034-77.391.022-4.948,2.107-9.365,5.026-13.315a25.407,25.407,0,0,1,14.55-9.594,6.189,6.189,0,0,1,1.943-.358c1.649.134,1.857-.708,1.822-2.094a27.909,27.909,0,0,1,.311-5.44,5.491,5.491,0,0,1,1.52-2.647c3.938-4.041,7.936-8.026,11.951-11.994,3.065-3.031,6.174-6.023,9.291-9a7.008,7.008,0,0,1,5.056-1.865q30.795.006,61.589,0c3.5,0,7-.026,10.5.009,4.779.043,7.746,2.97,7.763,7.715.03,9.542.009,19.079.009,28.621V52c5.859-1.744,12.193,1.511,13.492,7.258.807,3.584.432,6.968-2.28,9.723q-5.932,6.036-11.977,11.968a1.4,1.4,0,0,0-.324,1.977,61.424,61.424,0,0,1,5.9,15.064,71.26,71.26,0,0,1,1.58,9.356c.531,4.676.734,9.369,1.718,14.01.95,4.473,1.395,9.05,2.129,13.574.531,3.29,1.174,6.563,1.783,9.948ZM166.1,46.914c.864.164,1.563.307,2.262.432a25.3,25.3,0,0,1,16.666,10.522,25.566,25.566,0,0,1,4.646,15.271c.052,21.808.022,43.611.022,65.419v1.619h55.994v-4.62H194.432V74.806h1.477c10.315,0,20.629.013,30.939-.035A3.377,3.377,0,0,0,228.856,74a15.189,15.189,0,0,1,10.379-3.881c3.065.048,6.131.035,9.2-.017a2.388,2.388,0,0,0,1.507-.566q7.007-6.774,13.928-13.652a3.083,3.083,0,0,0,.829-1.969c.052-10.66.039-21.32.039-31.98,0-2.293-.933-3.217-3.247-3.217H189.7c0,5.341-.013,10.5,0,15.651a7.334,7.334,0,0,1-7.646,7.746c-4.909-.125-9.827-.03-14.74-.026-.414,0-.829.043-1.213.065ZM163.4,93.5c12.132-.225,21.549-8.92,21.536-20.914-.013-12.426-9.132-20.741-21.277-21.069-11.226-.307-21.911,9.093-20.966,22.818.665,9.6,9.339,19.278,20.707,19.165m-20.677-5.932c-.013.259-.03.436-.03.609q.007,29.862.026,59.724A6.887,6.887,0,0,0,149,154.226q14.669.045,29.338.013a4.96,4.96,0,0,0,1.243-.224c3.592-.941,5.44-3.679,5.44-7.5q.013-28.768,0-57.535V87.439c-1.364,1.438-2.612,2.677-3.765,4a3.161,3.161,0,0,0-.868,1.774c-.073,4.477-.047,8.955-.035,13.436.009,3.506-1.995,5.6-5.47,5.565-7.543-.073-15.081-.022-22.624-.026a4.532,4.532,0,0,1-4.9-4.818c-.017-4.624.009-9.248-.026-13.872a2.355,2.355,0,0,0-.427-1.433c-1.321-1.511-2.729-2.949-4.192-4.5m96.026-3.376c0,7.383-.03,14.68.013,21.972a9.523,9.523,0,0,0,2.966,7.038c1.943,1.852,4.02,3.562,6.1,5.263a2.077,2.077,0,0,0,1.593.354q10.615-2.824,21.19-5.785a1.415,1.415,0,0,0,.794-1.053,36.064,36.064,0,0,0-.281-5.47,64.9,64.9,0,0,0-3.739-14.524c-.889-2.163-1.917-4.27-2.936-6.519-4.762,4.646-9.244,9.162-13.9,13.488-1.8,1.671-2.914,3.385-2.483,5.885.009.073-.078.164-.134.276h-4.52c0-5.026-.009-9.978,0-14.93.009-3.48-1.088-5.522-4.672-5.993m9.36,10.6,1.321-1.261c2.582-2.491,5.2-4.948,7.746-7.478,6.653-6.623,13.315-13.238,19.891-19.934a5.773,5.773,0,0,0-.5-8.544,6.03,6.03,0,0,0-8.044.35c-4.948,5.008-10.038,9.878-15.051,14.822-2.6,2.56-5.164,5.155-7.741,7.741-.367.367-.712.756-1.17,1.243,4.391,3.419,3.4,8.234,3.545,13.06m2.353,45.377h25.443c-.138-.743-.259-1.39-.371-2.042-.578-3.372-1.17-6.744-1.736-10.12-.505-3-1.088-5.988-1.425-9.006-.147-1.351-.751-1.4-1.718-1.144-2.707.73-5.4,1.5-8.108,2.241q-6.036,1.639-12.085,3.247Zm-25.439-60.6H199.112v9.209h25.914Zm-72.9,15.932v11.951h23.211V95.4a29.876,29.876,0,0,1-11.606,2.811,26.913,26.913,0,0,1-11.605-2.724m46.966,7.357c5.734,0,11.316,0,16.9-.013a1.43,1.43,0,0,0,.92-.242c2.983-2.953,5.937-5.932,8.985-8.989h-26.8ZM234.08,92.779a17.836,17.836,0,0,0-2.141,1.528c-4.421,4.421-8.812,8.872-13.281,13.384l8.3,8.471c1.9-1.952,3.584-3.773,5.362-5.5a4.818,4.818,0,0,0,1.857-4.24c-.307-4.352-.1-8.743-.1-13.648m-35,38.024H222.3v-7.245c-1.421.579-2.724,1.1-4.02,1.636-4.8,2.012-8.216.76-9.762-3.562h-9.434Zm37.247.047V113.4a12.859,12.859,0,0,0-1.382,1.006c-1.736,1.705-3.428,3.45-5.168,5.151-.812.79-1.688,1.511-2.625,2.344v8.946ZM185.024,22.128c-5.293,5.151-10.375,10.1-15.7,15.284,4.68,0,8.95.03,13.22-.017a2.41,2.41,0,0,0,2.47-2.465c.043-4.175.013-8.35.013-12.8m24.092,94.692c1.226-3.083,2.439-6.122,3.666-9.2H199.138v9.2Zm35.607-42.005c-2.344,0-4.387-.078-6.416.022a9.128,9.128,0,0,0-5.937,2.388c-2.94,2.7-3.264,6.178-2.9,9.809a2.142,2.142,0,0,0,3.553,1.252c1.373-1.041,1.032-2.5,1.045-3.864a4.64,4.64,0,0,1,4.887-4.952,2.36,2.36,0,0,0,1.451-.38c1.416-1.3,2.746-2.7,4.313-4.274m-28.63,37.139c-.967,2.418-2.008,4.874-2.906,7.379a1.935,1.935,0,0,0,.406,1.658,1.859,1.859,0,0,0,1.61.289c2.521-.889,5-1.9,7.417-2.828-2.167-2.154-4.287-4.266-6.528-6.5m25.081,7.154V130.8h4.581c0-2.517.009-4.944-.009-7.37a1.127,1.127,0,0,0-.238-.773c-1.395-1.179-2.819-2.314-4.335-3.545" transform="translate(-135.429 -11.765)" fill="#010000"/>
        <path id="Trazado_714830" data-name="Trazado 714830" d="M144.516,43.319V38.561c.384-.022.8-.065,1.213-.065,4.913-.009,9.831-.1,14.74.022a7.327,7.327,0,0,0,7.646-7.746c-.017-5.155,0-10.31,0-15.651h1.442q35.173,0,70.345,0c2.314,0,3.247.92,3.247,3.212,0,10.66.013,21.32-.035,31.98a3.111,3.111,0,0,1-.833,1.969q-6.9,6.891-13.928,13.656a2.413,2.413,0,0,1-1.507.566q-4.6.078-9.192.017a15.172,15.172,0,0,0-10.384,3.881,3.372,3.372,0,0,1-2.008.764c-10.31.052-20.625.035-30.939.035h-1.477v60.752h51.262v4.62H168.111v-1.619c0-21.8.03-43.611-.022-65.415a25.57,25.57,0,0,0-4.646-15.275,25.3,25.3,0,0,0-16.666-10.522c-.7-.125-1.4-.263-2.262-.427m93.923-23.44h-65.57V33.734h65.57Zm-65.622,23.2h65.57V38.574h-65.57Zm0,9.347h65.566v-4.5H172.817Zm37.3,4.84H172.869v4.5h37.247Z" transform="translate(-113.84 -8.165)" fill="#abffff"/>
        <path id="Trazado_714831" data-name="Trazado 714831" d="M159.843,64.7c-11.368.112-20.042-9.563-20.7-19.165-.95-13.725,9.736-23.12,20.962-22.818,12.145.328,21.264,8.644,21.277,21.074.013,11.99-9.4,20.685-21.536,20.91m2.616-9.542c.941-.626,1.662-1.075,2.353-1.563,2.7-1.917,2.845-6.8.777-9.054-1.632-1.783-3.894-2.413-5.859-3.588a4.511,4.511,0,0,1-1.813-1.865,1.81,1.81,0,0,1,1.4-2.4,2.44,2.44,0,0,1,3.148,1.943c.086.855.017,1.727.017,2.642h4.559c.557-5.129-1.278-7.569-4.637-8.95V27.384h-4.585c0,1.36.065,2.668-.039,3.959a1.852,1.852,0,0,1-.812,1.222c-2.111,1.282-3.627,2.927-3.817,5.522a6.332,6.332,0,0,0,3.666,6.554c1.4.73,2.806,1.455,4.231,2.141,1.036.5,1.671,1.23,1.3,2.392-.423,1.321-1.52,1.615-2.781,1.5a1.786,1.786,0,0,1-1.744-2.038c-.013-.855,0-1.714,0-2.521h-4.672c0,.635.03,1.166-.009,1.7a6.636,6.636,0,0,0,4.119,7.033,1.575,1.575,0,0,1,.535,1.17c.065,1.3.026,2.6.026,3.955h4.637Z" transform="translate(-131.87 17.026)" fill="#fcd770"/>
        <path id="Trazado_714832" data-name="Trazado 714832" d="M139.12,31.162c1.464,1.559,2.871,2.992,4.192,4.507a2.336,2.336,0,0,1,.432,1.429c.03,4.624,0,9.248.026,13.872a4.533,4.533,0,0,0,4.9,4.823c7.538,0,15.081-.052,22.619.022,3.476.035,5.483-2.059,5.475-5.565-.017-4.477-.039-8.959.035-13.436a3.161,3.161,0,0,1,.868-1.775c1.148-1.325,2.4-2.565,3.765-4v1.537q0,28.768,0,57.535c0,3.825-1.848,6.567-5.44,7.5a5,5,0,0,1-1.243.224q-14.669.013-29.338-.013A6.883,6.883,0,0,1,139.12,91.5q-.039-29.862-.026-59.724c0-.173.013-.345.026-.609m4.646,45.628c0,3.942-.022,7.884.009,11.826a4.526,4.526,0,0,0,4.559,4.564q11.606.006,23.207,0c3.346,0,5.151-2,5.185-5.069.086-7.543.06-15.085.013-22.628a4.692,4.692,0,0,0-4.81-5q-11.819-.065-23.643,0a4.493,4.493,0,0,0-4.516,4.624c-.022,3.89,0,7.784,0,11.679" transform="translate(-131.828 44.636)" fill="#969faa"/>
        <path id="Trazado_714833" data-name="Trazado 714833" d="M161.35,30.285c3.588.466,4.68,2.508,4.672,5.993-.009,4.952,0,9.9,0,14.93h4.516c.056-.117.147-.2.134-.276-.432-2.5.682-4.214,2.487-5.889,4.654-4.322,9.132-8.838,13.894-13.484,1.019,2.249,2.047,4.356,2.936,6.519a64.343,64.343,0,0,1,3.739,14.52,36.121,36.121,0,0,1,.281,5.47,1.4,1.4,0,0,1-.794,1.058q-10.576,2.96-21.19,5.785a2.061,2.061,0,0,1-1.593-.358c-2.077-1.7-4.158-3.407-6.1-5.259a9.53,9.53,0,0,1-2.966-7.038c-.043-7.292-.013-14.589-.013-21.972" transform="translate(-58.027 42.141)" fill="#f0d0b4"/>
        <path id="Trazado_714834" data-name="Trazado 714834" d="M166.234,62.389c-.142-4.831.846-9.641-3.545-13.065.458-.484.8-.872,1.17-1.243C166.437,45.5,169,42.9,171.6,40.343c5.017-4.944,10.1-9.814,15.055-14.822a6.03,6.03,0,0,1,8.044-.35,5.776,5.776,0,0,1,.5,8.544c-6.576,6.7-13.237,13.311-19.891,19.93-2.547,2.534-5.164,4.991-7.75,7.478-.371.358-.743.717-1.317,1.265" transform="translate(-53.551 20.633)" fill="#b20d0d"/>
        <path id="Trazado_714835" data-name="Trazado 714835" d="M164.055,60.49V43.664c4.028-1.084,8.061-2.154,12.085-3.251,2.707-.734,5.4-1.507,8.108-2.236.967-.263,1.572-.207,1.718,1.144.337,3.018.92,6.006,1.425,9.006.566,3.376,1.153,6.748,1.736,10.12.112.648.233,1.3.371,2.042Z" transform="translate(-49.019 67.909)" fill="#b20d0d"/>
        <rect id="Rectángulo_352939" data-name="Rectángulo 352939" width="25.914" height="9.209" transform="translate(63.683 67.798)" fill="#ffeaa7"/>
        <path id="Trazado_714836" data-name="Trazado 714836" d="M141.278,32.968a26.913,26.913,0,0,0,11.605,2.724,29.8,29.8,0,0,0,11.606-2.811V44.919H141.278Z" transform="translate(-124.582 50.757)" fill="#69d6f4"/>
        <path id="Trazado_714837" data-name="Trazado 714837" d="M152.156,41.709V32.465h26.8c-3.044,3.061-6,6.04-8.985,8.989a1.438,1.438,0,0,1-.915.246c-5.583.013-11.165.009-16.9.009" transform="translate(-88.494 49.374)" fill="#ffeaa7"/>
        <path id="Trazado_714838" data-name="Trazado 714838" d="M172.11,32.274c0,4.9-.212,9.3.1,13.652a4.834,4.834,0,0,1-1.857,4.24c-1.779,1.718-3.467,3.545-5.367,5.492l-8.294-8.467c4.469-4.512,8.86-8.963,13.276-13.384a17.893,17.893,0,0,1,2.146-1.533" transform="translate(-73.459 48.74)" fill="#b20d0d"/>
        <path id="Trazado_714839" data-name="Trazado 714839" d="M152.154,48.127v-9.17h9.434c1.546,4.322,4.965,5.574,9.762,3.562,1.3-.54,2.595-1.058,4.02-1.636v7.245Z" transform="translate(-88.501 70.911)" fill="#ffeaa7"/>
        <path id="Trazado_714840" data-name="Trazado 714840" d="M167.831,54.5h-9.175v-8.95c.937-.833,1.813-1.55,2.625-2.344,1.74-1.7,3.432-3.441,5.168-5.146a12.8,12.8,0,0,1,1.382-1.01Z" transform="translate(-66.93 64.588)" fill="#feeaa7"/>
        <path id="Trazado_714841" data-name="Trazado 714841" d="M160.964,15.91c0,4.456.026,8.631-.017,12.806a2.407,2.407,0,0,1-2.47,2.465c-4.266.047-8.536.017-13.216.017,5.328-5.185,10.41-10.133,15.7-15.288" transform="translate(-111.368 -5.548)" fill="#06d1d1"/>
        <path id="Trazado_714842" data-name="Trazado 714842" d="M162.145,44.916h-9.978v-9.2h13.648c-1.231,3.083-2.444,6.122-3.67,9.2" transform="translate(-88.458 60.142)" fill="#ffeaa7"/>
        <path id="Trazado_714843" data-name="Trazado 714843" d="M174.536,28.136c-1.567,1.572-2.893,2.97-4.313,4.274a2.352,2.352,0,0,1-1.451.38,4.632,4.632,0,0,0-4.883,4.952c-.017,1.369.324,2.824-1.049,3.864a2.142,2.142,0,0,1-3.553-1.256c-.367-3.627-.043-7.1,2.9-9.805a9.139,9.139,0,0,1,5.941-2.388c2.029-.1,4.067-.022,6.412-.022" transform="translate(-65.243 34.917)" fill="#efcfb3"/>
        <path id="Trazado_714844" data-name="Trazado 714844" d="M158.374,36.716l6.524,6.5c-2.413.933-4.892,1.939-7.418,2.824a1.846,1.846,0,0,1-1.606-.285,1.933,1.933,0,0,1-.41-1.662c.9-2.5,1.939-4.957,2.91-7.374" transform="translate(-77.71 63.476)" fill="#a8b0bb"/>
        <path id="Trazado_714845" data-name="Trazado 714845" d="M161.9,38.372c1.515,1.23,2.94,2.366,4.335,3.545a1.127,1.127,0,0,1,.238.773c.017,2.426.009,4.853.009,7.37H161.9Z" transform="translate(-56.158 68.97)" fill="#ffeaa7"/>
        <path id="Trazado_714846" data-name="Trazado 714846" d="M216.653,30.078h-65.57V16.223h65.57ZM211.679,20.9H155.763v4.5h55.916Z" transform="translate(-92.054 -4.51)"/>
        <rect id="Rectángulo_352940" data-name="Rectángulo 352940" width="65.57" height="4.507" transform="translate(58.977 30.408)"/>
        <rect id="Rectángulo_352941" data-name="Rectángulo 352941" width="65.566" height="4.503" transform="translate(58.977 39.756)"/>
        <rect id="Rectángulo_352942" data-name="Rectángulo 352942" width="37.247" height="4.503" transform="translate(59.029 49.107)"/>
        <path id="Trazado_714847" data-name="Trazado 714847" d="M151.674,51.575V56.38h-4.637c0-1.356.039-2.66-.026-3.955a1.575,1.575,0,0,0-.535-1.17,6.636,6.636,0,0,1-4.119-7.033c.039-.531.009-1.062.009-1.7h4.672c0,.807-.009,1.667,0,2.521a1.786,1.786,0,0,0,1.744,2.038c1.261.117,2.357-.177,2.781-1.5.371-1.161-.263-1.9-1.3-2.392-1.425-.686-2.828-1.412-4.231-2.141A6.332,6.332,0,0,1,142.37,34.5c.19-2.595,1.705-4.24,3.817-5.522A1.852,1.852,0,0,0,147,27.755c.1-1.291.039-2.6.039-3.959h4.585v4.939c3.359,1.382,5.194,3.821,4.637,8.95H151.7c0-.915.069-1.787-.017-2.642a2.44,2.44,0,0,0-3.148-1.943,1.81,1.81,0,0,0-1.4,2.4,4.512,4.512,0,0,0,1.813,1.865c1.964,1.174,4.227,1.8,5.859,3.588,2.068,2.258,1.926,7.137-.777,9.054-.691.488-1.412.937-2.353,1.563" transform="translate(-121.085 20.614)" fill="#010100"/>
        <path id="Trazado_714848" data-name="Trazado 714848" d="M140.181,54.186c0-3.894-.017-7.784,0-11.679a4.493,4.493,0,0,1,4.516-4.624q11.826-.065,23.643,0a4.694,4.694,0,0,1,4.81,5c.052,7.543.073,15.09-.009,22.632-.035,3.061-1.844,5.069-5.19,5.069q-11.6-.013-23.2-.009a4.523,4.523,0,0,1-4.564-4.559c-.026-3.942-.009-7.888-.009-11.83m23.44,11.631h4.5V51.932h-4.5Zm-14.144-23.2h-4.542v4.507h4.542Zm9.334,0h-4.542v4.52h4.542Zm9.326-.009H163.6v4.542h4.533Zm-18.665,9.378h-4.52v4.473h4.52Zm9.326-.03H154.26V56.5H158.8ZM149.464,61.3h-4.542v4.533h4.542Zm9.321.013h-4.512v4.542h4.512Z" transform="translate(-128.243 67.24)"/>
        <rect id="Rectángulo_352943" data-name="Rectángulo 352943" width="55.916" height="4.499" transform="translate(63.709 16.389)" fill="#b20d0d"/>
        <rect id="Rectángulo_352944" data-name="Rectángulo 352944" width="4.503" height="13.885" transform="translate(35.378 119.168)" fill="#ff826e"/>
        <rect id="Rectángulo_352945" data-name="Rectángulo 352945" width="4.542" height="4.507" transform="translate(16.692 109.859)" fill="#ff826e"/>
        <rect id="Rectángulo_352946" data-name="Rectángulo 352946" width="4.542" height="4.52" transform="translate(26.026 109.855)" fill="#ff826e"/>
        <rect id="Rectángulo_352947" data-name="Rectángulo 352947" width="4.533" height="4.542" transform="translate(35.36 109.851)" fill="#ff826e"/>
        <rect id="Rectángulo_352948" data-name="Rectángulo 352948" width="4.52" height="4.473" transform="translate(16.709 119.224)" fill="#ff826e"/>
        <rect id="Rectángulo_352949" data-name="Rectángulo 352949" width="4.538" height="4.542" transform="translate(26.017 119.189)" fill="#ff826e"/>
        <rect id="Rectángulo_352950" data-name="Rectángulo 352950" width="4.542" height="4.533" transform="translate(16.679 128.545)" fill="#ff826e"/>
        <rect id="Rectángulo_352951" data-name="Rectángulo 352951" width="4.512" height="4.542" transform="translate(26.03 128.554)" fill="#ff826e"/>
      </g>
    </g>
    <g id="Grupo_1003009" data-name="Grupo 1003009">
      <g id="Grupo_1003008" data-name="Grupo 1003008" clip-path="url(#clip-path)">
        <g id="Grupo_1003001" data-name="Grupo 1003001" transform="translate(103.013 236.232)" opacity="0.6">
          <g id="Grupo_1003000" data-name="Grupo 1003000">
            <g id="Grupo_1002999" data-name="Grupo 1002999" clip-path="url(#clip-path-8)">
              <path id="Trazado_714849" data-name="Trazado 714849" d="M120.956,103.261a48.548,48.548,0,1,1-48.55-48.546,48.55,48.55,0,0,1,48.55,48.546" transform="translate(-23.86 -54.715)" fill="#ff8989"/>
            </g>
          </g>
        </g>
        <path id="Trazado_714850" data-name="Trazado 714850" d="M39.228,108.1h0a5.367,5.367,0,0,1-5.367-5.367V65.807a5.367,5.367,0,1,1,10.733,0v36.928a5.367,5.367,0,0,1-5.367,5.367" transform="translate(112.334 200.511)" fill="#fff"/>
        <path id="Trazado_714851" data-name="Trazado 714851" d="M77.245,70.083h0a5.367,5.367,0,0,1-5.367,5.367H34.951a5.367,5.367,0,1,1,0-10.733H71.878a5.367,5.367,0,0,1,5.367,5.367" transform="translate(98.145 214.696)" fill="#fff"/>
        <g id="Grupo_1003004" data-name="Grupo 1003004" transform="translate(361.451 236.232)" opacity="0.6">
          <g id="Grupo_1003003" data-name="Grupo 1003003">
            <g id="Grupo_1003002" data-name="Grupo 1003002" clip-path="url(#clip-path-9)">
              <path id="Trazado_714852" data-name="Trazado 714852" d="M180.814,103.261a48.548,48.548,0,1,1-48.55-48.546,48.55,48.55,0,0,1,48.55,48.546" transform="translate(-83.718 -54.715)" fill="#fff0bf"/>
            </g>
          </g>
        </g>
        <path id="Trazado_714853" data-name="Trazado 714853" d="M99.086,108.1h0a5.367,5.367,0,0,1-5.367-5.367V65.807a5.367,5.367,0,1,1,10.733,0v36.928a5.367,5.367,0,0,1-5.367,5.367" transform="translate(310.914 200.511)" fill="#fff"/>
        <path id="Trazado_714854" data-name="Trazado 714854" d="M137.1,70.083h0a5.367,5.367,0,0,1-5.367,5.367H94.809a5.367,5.367,0,0,1,0-10.733h36.928a5.367,5.367,0,0,1,5.367,5.367" transform="translate(296.725 214.696)" fill="#fff"/>
        <g id="Grupo_1003007" data-name="Grupo 1003007" transform="translate(619.888 236.232)" opacity="0.6">
          <g id="Grupo_1003006" data-name="Grupo 1003006">
            <g id="Grupo_1003005" data-name="Grupo 1003005" clip-path="url(#clip-path-10)">
              <path id="Trazado_714855" data-name="Trazado 714855" d="M240.672,103.261a48.548,48.548,0,1,1-48.55-48.546,48.55,48.55,0,0,1,48.55,48.546" transform="translate(-143.575 -54.715)" fill="#abffff"/>
            </g>
          </g>
        </g>
        <path id="Trazado_714856" data-name="Trazado 714856" d="M158.944,108.1h0a5.367,5.367,0,0,1-5.367-5.367V65.807a5.367,5.367,0,1,1,10.733,0v36.928a5.367,5.367,0,0,1-5.367,5.367" transform="translate(509.494 200.511)" fill="#fff"/>
        <path id="Trazado_714857" data-name="Trazado 714857" d="M196.962,70.083h0a5.367,5.367,0,0,1-5.367,5.367H154.668a5.367,5.367,0,0,1,0-10.733H191.6a5.367,5.367,0,0,1,5.367,5.367" transform="translate(495.309 214.696)" fill="#fff"/>
      </g>
    </g>
  </g>
</svg>
